<?xml version="1.0" encoding="UTF-8" standalone="no"?>
<!DOCTYPE svg PUBLIC "-//W3C//DTD SVG 1.1//EN"
 "http://www.w3.org/Graphics/SVG/1.1/DTD/svg11.dtd">
<!-- Generated by graphviz version 2.43.0 (0)
 -->
<!-- Title: loc_map/include/adapter/adapter.hpp Pages: 1 -->
<!--zoomable 408 -->
<svg id="main" version="1.1" xmlns="http://www.w3.org/2000/svg" xmlns:xlink="http://www.w3.org/1999/xlink" xml:space="preserve" onload="init(evt)">
<style type="text/css"><![CDATA[
.edge:hover path { stroke: red; }
.edge:hover polygon { stroke: red; fill: red; }
]]></style>
<script type="text/javascript"><![CDATA[
var edges = document.getElementsByTagName('g');
if (edges && edges.length) {
  for (var i=0;i<edges.length;i++) {
    if (edges[i].id.substr(0,4)=='edge') {
      edges[i].setAttribute('class','edge');
    }
  }
}
]]></script>
        <defs>
                <circle id="rim" cx="0" cy="0" r="7"/>
                <circle id="rim2" cx="0" cy="0" r="3.5"/>
                <g id="zoomPlus">
                        <use xlink:href="#rim" fill="#404040">
                                <set attributeName="fill" to="#808080" begin="zoomplus.mouseover" end="zoomplus.mouseout"/>
                        </use>
                        <path d="M-4,0h8M0,-4v8" fill="none" stroke="white" stroke-width="1.5" pointer-events="none"/>
                </g>
                <g id="zoomMin">
                        <use xlink:href="#rim" fill="#404040">
                                <set attributeName="fill" to="#808080" begin="zoomminus.mouseover" end="zoomminus.mouseout"/>
                        </use>
                        <path d="M-4,0h8" fill="none" stroke="white" stroke-width="1.5" pointer-events="none"/>
                </g>
                <g id="dirArrow">
                        <path fill="none" stroke="white" stroke-width="1.5" d="M0,-3.0v7 M-2.5,-0.5L0,-3.0L2.5,-0.5"/>
                </g>
               <g id="resetDef">
                       <use xlink:href="#rim2" fill="#404040">
                               <set attributeName="fill" to="#808080" begin="reset.mouseover" end="reset.mouseout"/>
                       </use>
               </g>
        </defs>

<script type="text/javascript">
var viewWidth = 2250;
var viewHeight = 408;
var sectionId = 'dynsection-0';
</script>
<script xlink:href="svgpan.js"/>
<svg id="graph" class="graph">
<g id="viewport">
<title>loc_map/include/adapter/adapter.hpp</title>
<polygon fill="white" stroke="transparent" points="-4,4 -4,-404 2245.5,-404 2245.5,4 -4,4"/>
<!-- Node1 -->
<g id="node1" class="node">
<title>Node1</title>
<g id="a_node1"><a xlink:title=" ">
<polygon fill="#bfbfbf" stroke="black" points="1403,-369.5 1403,-399.5 1525,-399.5 1525,-369.5 1403,-369.5"/>
<text text-anchor="start" x="1411" y="-387.5" font-family="Helvetica,sans-Serif" font-size="10.00">loc_map/include/adapter</text>
<text text-anchor="middle" x="1464" y="-376.5" font-family="Helvetica,sans-Serif" font-size="10.00">/adapter.hpp</text>
</a>
</g>
</g>
<!-- Node2 -->
<g id="node2" class="node">
<title>Node2</title>
<g id="a_node2"><a xlink:title=" ">
<polygon fill="white" stroke="#bfbfbf" points="294.5,-0.5 294.5,-19.5 335.5,-19.5 335.5,-0.5 294.5,-0.5"/>
<text text-anchor="middle" x="315" y="-7.5" font-family="Helvetica,sans-Serif" font-size="10.00">string</text>
</a>
</g>
</g>
<!-- Node1&#45;&gt;Node2 -->
<g id="edge1" class="edge">
<title>Node1&#45;&gt;Node2</title>
<path fill="none" stroke="midnightblue" d="M1402.79,-383.33C1239.22,-382.28 778.47,-375.47 398,-333 218.55,-312.97 0,-432.06 0,-251.5 0,-251.5 0,-251.5 0,-121 0,-61.25 204.56,-26.37 283.99,-15.07"/>
<polygon fill="midnightblue" stroke="midnightblue" points="284.91,-18.48 294.33,-13.64 283.95,-11.54 284.91,-18.48"/>
</g>
<!-- Node3 -->
<g id="node3" class="node">
<title>Node3</title>
<g id="a_node3"><a xlink:title=" ">
<polygon fill="white" stroke="#bfbfbf" points="1492.5,-308 1492.5,-327 1643.5,-327 1643.5,-308 1492.5,-308"/>
<text text-anchor="middle" x="1568" y="-315" font-family="Helvetica,sans-Serif" font-size="10.00">eufs_msgs/msg/can_state.hpp</text>
</a>
</g>
</g>
<!-- Node1&#45;&gt;Node3 -->
<g id="edge2" class="edge">
<title>Node1&#45;&gt;Node3</title>
<path fill="none" stroke="midnightblue" d="M1486.57,-369.4C1504.01,-358.5 1528.03,-343.48 1545.47,-332.58"/>
<polygon fill="midnightblue" stroke="midnightblue" points="1547.76,-335.28 1554.39,-327.01 1544.05,-329.34 1547.76,-335.28"/>
</g>
<!-- Node4 -->
<g id="node4" class="node">
<title>Node4</title>
<g id="a_node4"><a xlink:title=" ">
<polygon fill="white" stroke="#bfbfbf" points="28.5,-235.5 28.5,-265.5 143.5,-265.5 143.5,-235.5 28.5,-235.5"/>
<text text-anchor="start" x="36.5" y="-253.5" font-family="Helvetica,sans-Serif" font-size="10.00">eufs_msgs/msg/wheel</text>
<text text-anchor="middle" x="86" y="-242.5" font-family="Helvetica,sans-Serif" font-size="10.00">_speeds_stamped.hpp</text>
</a>
</g>
</g>
<!-- Node1&#45;&gt;Node4 -->
<g id="edge3" class="edge">
<title>Node1&#45;&gt;Node4</title>
<path fill="none" stroke="midnightblue" d="M1402.72,-381.58C1215.88,-374.98 637.14,-348.93 153.51,-266.18"/>
<polygon fill="midnightblue" stroke="midnightblue" points="153.98,-262.71 143.53,-264.46 152.79,-269.6 153.98,-262.71"/>
</g>
<!-- Node5 -->
<g id="node5" class="node">
<title>Node5</title>
<g id="a_node5"><a xlink:title=" ">
<polygon fill="white" stroke="#bfbfbf" points="1661.5,-302.5 1661.5,-332.5 1780.5,-332.5 1780.5,-302.5 1661.5,-302.5"/>
<text text-anchor="start" x="1669.5" y="-320.5" font-family="Helvetica,sans-Serif" font-size="10.00">eufs_msgs/srv/set_can</text>
<text text-anchor="middle" x="1721" y="-309.5" font-family="Helvetica,sans-Serif" font-size="10.00">_state.hpp</text>
</a>
</g>
</g>
<!-- Node1&#45;&gt;Node5 -->
<g id="edge4" class="edge">
<title>Node1&#45;&gt;Node5</title>
<path fill="none" stroke="midnightblue" d="M1519.45,-369.48C1559.34,-359.39 1613.29,-345.74 1655.34,-335.11"/>
<polygon fill="midnightblue" stroke="midnightblue" points="1656.37,-338.46 1665.21,-332.61 1654.65,-331.67 1656.37,-338.46"/>
</g>
<!-- Node6 -->
<g id="node6" class="node">
<title>Node6</title>
<g id="a_node6"><a xlink:title=" ">
<polygon fill="white" stroke="#bfbfbf" points="1798.5,-302.5 1798.5,-332.5 1911.5,-332.5 1911.5,-302.5 1798.5,-302.5"/>
<text text-anchor="start" x="1806.5" y="-320.5" font-family="Helvetica,sans-Serif" font-size="10.00">fs_msgs/msg/finished</text>
<text text-anchor="middle" x="1855" y="-309.5" font-family="Helvetica,sans-Serif" font-size="10.00">_signal.hpp</text>
</a>
</g>
</g>
<!-- Node1&#45;&gt;Node6 -->
<g id="edge5" class="edge">
<title>Node1&#45;&gt;Node6</title>
<path fill="none" stroke="midnightblue" d="M1525.19,-375.25C1588.68,-366.41 1691.05,-351.38 1788.32,-333.25"/>
<polygon fill="midnightblue" stroke="midnightblue" points="1789.14,-336.66 1798.33,-331.37 1787.85,-329.78 1789.14,-336.66"/>
</g>
<!-- Node7 -->
<g id="node7" class="node">
<title>Node7</title>
<g id="a_node7"><a xlink:title=" ">
<polygon fill="white" stroke="#bfbfbf" points="1929.5,-308 1929.5,-327 2068.5,-327 2068.5,-308 1929.5,-308"/>
<text text-anchor="middle" x="1999" y="-315" font-family="Helvetica,sans-Serif" font-size="10.00">fs_msgs/msg/go_signal.hpp</text>
</a>
</g>
</g>
<!-- Node1&#45;&gt;Node7 -->
<g id="edge6" class="edge">
<title>Node1&#45;&gt;Node7</title>
<path fill="none" stroke="midnightblue" d="M1525.17,-378.19C1613.01,-370.23 1779.85,-353.89 1921,-333 1929.14,-331.8 1937.72,-330.36 1946.1,-328.88"/>
<polygon fill="midnightblue" stroke="midnightblue" points="1946.97,-332.28 1956.18,-327.05 1945.72,-325.39 1946.97,-332.28"/>
</g>
<!-- Node8 -->
<g id="node8" class="node">
<title>Node8</title>
<g id="a_node8"><a xlink:title=" ">
<polygon fill="white" stroke="#bfbfbf" points="2086.5,-308 2086.5,-327 2241.5,-327 2241.5,-308 2086.5,-308"/>
<text text-anchor="middle" x="2164" y="-315" font-family="Helvetica,sans-Serif" font-size="10.00">fs_msgs/msg/wheel_states.hpp</text>
</a>
</g>
</g>
<!-- Node1&#45;&gt;Node8 -->
<g id="edge7" class="edge">
<title>Node1&#45;&gt;Node8</title>
<path fill="none" stroke="midnightblue" d="M1525.18,-380.19C1635.81,-373.83 1876.36,-358.25 2078,-333 2087.59,-331.8 2097.74,-330.3 2107.58,-328.72"/>
<polygon fill="midnightblue" stroke="midnightblue" points="2108.39,-332.13 2117.69,-327.05 2107.25,-325.22 2108.39,-332.13"/>
</g>
<!-- Node9 -->
<g id="node9" class="node">
<title>Node9</title>
<g id="a_node9"><a xlink:href="data__structures_8hpp.html" target="_top" xlink:title=" ">
<polygon fill="white" stroke="black" points="672.5,-112.5 672.5,-131.5 815.5,-131.5 815.5,-112.5 672.5,-112.5"/>
<text text-anchor="middle" x="744" y="-119.5" font-family="Helvetica,sans-Serif" font-size="10.00">loc_map/data_structures.hpp</text>
</a>
</g>
</g>
<!-- Node1&#45;&gt;Node9 -->
<g id="edge8" class="edge">
<title>Node1&#45;&gt;Node9</title>
<path fill="none" stroke="midnightblue" d="M1466.47,-369.37C1469.58,-352.89 1475.56,-324.97 1484,-302 1490.17,-285.21 1497.89,-283.41 1502,-266 1505.17,-252.59 1510.95,-245.47 1502,-235 1415.77,-134.14 1003.59,-122.46 825.86,-122.22"/>
<polygon fill="midnightblue" stroke="midnightblue" points="825.78,-118.72 815.78,-122.22 825.78,-125.72 825.78,-118.72"/>
</g>
<!-- Node14 -->
<g id="node14" class="node">
<title>Node14</title>
<g id="a_node14"><a xlink:href="lm__node_8hpp.html" target="_top" xlink:title=" ">
<polygon fill="white" stroke="black" points="688,-308 688,-327 800,-327 800,-308 688,-308"/>
<text text-anchor="middle" x="744" y="-315" font-family="Helvetica,sans-Serif" font-size="10.00">loc_map/lm_node.hpp</text>
</a>
</g>
</g>
<!-- Node1&#45;&gt;Node14 -->
<g id="edge16" class="edge">
<title>Node1&#45;&gt;Node14</title>
<path fill="none" stroke="midnightblue" d="M1402.92,-377.99C1268.76,-365.87 949.26,-337.03 810.37,-324.49"/>
<polygon fill="midnightblue" stroke="midnightblue" points="810.56,-320.99 800.29,-323.58 809.93,-327.97 810.56,-320.99"/>
</g>
<!-- Node27 -->
<g id="node27" class="node">
<title>Node27</title>
<g id="a_node27"><a xlink:title=" ">
<polygon fill="white" stroke="#bfbfbf" points="1249.5,-241 1249.5,-260 1340.5,-260 1340.5,-241 1249.5,-241"/>
<text text-anchor="middle" x="1295" y="-248" font-family="Helvetica,sans-Serif" font-size="10.00">rclcpp/rclcpp.hpp</text>
</a>
</g>
</g>
<!-- Node1&#45;&gt;Node27 -->
<g id="edge40" class="edge">
<title>Node1&#45;&gt;Node27</title>
<path fill="none" stroke="midnightblue" d="M1445.91,-369.37C1413.71,-344.22 1346.74,-291.91 1313.93,-266.29"/>
<polygon fill="midnightblue" stroke="midnightblue" points="1316.04,-263.49 1306.01,-260.1 1311.73,-269.01 1316.04,-263.49"/>
</g>
<!-- Node28 -->
<g id="node28" class="node">
<title>Node28</title>
<g id="a_node28"><a xlink:title=" ">
<polygon fill="white" stroke="#bfbfbf" points="1359,-241 1359,-260 1493,-260 1493,-241 1359,-241"/>
<text text-anchor="middle" x="1426" y="-248" font-family="Helvetica,sans-Serif" font-size="10.00">sensor_msgs/msg/imu.hpp</text>
</a>
</g>
</g>
<!-- Node1&#45;&gt;Node28 -->
<g id="edge41" class="edge">
<title>Node1&#45;&gt;Node28</title>
<path fill="none" stroke="midnightblue" d="M1459.93,-369.37C1453.03,-345.4 1439.03,-296.75 1431.34,-270.06"/>
<polygon fill="midnightblue" stroke="midnightblue" points="1434.6,-268.74 1428.47,-260.1 1427.88,-270.68 1434.6,-268.74"/>
</g>
<!-- Node9&#45;&gt;Node2 -->
<g id="edge11" class="edge">
<title>Node9&#45;&gt;Node2</title>
<path fill="none" stroke="midnightblue" d="M697.82,-112.48C654.29,-104.18 587.38,-90.68 530,-76 463.48,-58.98 386.75,-34.63 345.33,-21.07"/>
<polygon fill="midnightblue" stroke="midnightblue" points="346.18,-17.67 335.59,-17.87 344,-24.32 346.18,-17.67"/>
</g>
<!-- Node10 -->
<g id="node10" class="node">
<title>Node10</title>
<g id="a_node10"><a xlink:title=" ">
<polygon fill="white" stroke="#bfbfbf" points="539,-56.5 539,-75.5 585,-75.5 585,-56.5 539,-56.5"/>
<text text-anchor="middle" x="562" y="-63.5" font-family="Helvetica,sans-Serif" font-size="10.00">chrono</text>
</a>
</g>
</g>
<!-- Node9&#45;&gt;Node10 -->
<g id="edge9" class="edge">
<title>Node9&#45;&gt;Node10</title>
<path fill="none" stroke="midnightblue" d="M715.16,-112.44C682.55,-102.77 629.54,-87.04 595.22,-76.86"/>
<polygon fill="midnightblue" stroke="midnightblue" points="595.8,-73.38 585.22,-73.89 593.81,-80.09 595.8,-73.38"/>
</g>
<!-- Node11 -->
<g id="node11" class="node">
<title>Node11</title>
<g id="a_node11"><a xlink:title=" ">
<polygon fill="white" stroke="#bfbfbf" points="711.5,-0.5 711.5,-19.5 746.5,-19.5 746.5,-0.5 711.5,-0.5"/>
<text text-anchor="middle" x="729" y="-7.5" font-family="Helvetica,sans-Serif" font-size="10.00">map</text>
</a>
</g>
</g>
<!-- Node9&#45;&gt;Node11 -->
<g id="edge10" class="edge">
<title>Node9&#45;&gt;Node11</title>
<path fill="none" stroke="midnightblue" d="M760.47,-112.38C780.5,-100.66 810.23,-78.57 798,-56 789.12,-39.6 771.37,-28.23 756.1,-21.02"/>
<polygon fill="midnightblue" stroke="midnightblue" points="757.11,-17.64 746.55,-16.87 754.33,-24.07 757.11,-17.64"/>
</g>
<!-- Node12 -->
<g id="node12" class="node">
<title>Node12</title>
<g id="a_node12"><a xlink:href="color_8hpp.html" target="_top" xlink:title=" ">
<polygon fill="white" stroke="black" points="603.5,-56.5 603.5,-75.5 680.5,-75.5 680.5,-56.5 603.5,-56.5"/>
<text text-anchor="middle" x="642" y="-63.5" font-family="Helvetica,sans-Serif" font-size="10.00">utils/color.hpp</text>
</a>
</g>
</g>
<!-- Node9&#45;&gt;Node12 -->
<g id="edge12" class="edge">
<title>Node9&#45;&gt;Node12</title>
<path fill="none" stroke="midnightblue" d="M727.61,-112.32C711.33,-103.7 686.13,-90.36 667.28,-80.39"/>
<polygon fill="midnightblue" stroke="midnightblue" points="668.82,-77.24 658.35,-75.65 665.55,-83.43 668.82,-77.24"/>
</g>
<!-- Node13 -->
<g id="node13" class="node">
<title>Node13</title>
<g id="a_node13"><a xlink:href="position_8hpp.html" target="_top" xlink:title=" ">
<polygon fill="white" stroke="black" points="699,-56.5 699,-75.5 789,-75.5 789,-56.5 699,-56.5"/>
<text text-anchor="middle" x="744" y="-63.5" font-family="Helvetica,sans-Serif" font-size="10.00">utils/position.hpp</text>
</a>
</g>
</g>
<!-- Node9&#45;&gt;Node13 -->
<g id="edge15" class="edge">
<title>Node9&#45;&gt;Node13</title>
<path fill="none" stroke="midnightblue" d="M744,-112.08C744,-105.01 744,-94.86 744,-85.99"/>
<polygon fill="midnightblue" stroke="midnightblue" points="747.5,-85.75 744,-75.75 740.5,-85.75 747.5,-85.75"/>
</g>
<!-- Node12&#45;&gt;Node2 -->
<g id="edge14" class="edge">
<title>Node12&#45;&gt;Node2</title>
<path fill="none" stroke="midnightblue" d="M603.24,-57.65C600.12,-57.08 597.01,-56.52 594,-56 503.98,-40.3 397.26,-23.63 345.8,-15.71"/>
<polygon fill="midnightblue" stroke="midnightblue" points="346.1,-12.21 335.68,-14.15 345.03,-19.13 346.1,-12.21"/>
</g>
<!-- Node12&#45;&gt;Node11 -->
<g id="edge13" class="edge">
<title>Node12&#45;&gt;Node11</title>
<path fill="none" stroke="midnightblue" d="M655.98,-56.32C669.55,-47.9 690.38,-34.97 706.32,-25.07"/>
<polygon fill="midnightblue" stroke="midnightblue" points="708.41,-27.9 715.06,-19.65 704.71,-21.95 708.41,-27.9"/>
</g>
<!-- Node14&#45;&gt;Node2 -->
<g id="edge20" class="edge">
<title>Node14&#45;&gt;Node2</title>
<path fill="none" stroke="midnightblue" d="M687.87,-312.28C565.34,-302.84 283.57,-279.76 268,-266 240.13,-241.37 249,-221.69 249,-184.5 249,-184.5 249,-184.5 249,-121 249,-82.86 278.54,-46.52 298.09,-26.64"/>
<polygon fill="midnightblue" stroke="midnightblue" points="300.56,-29.12 305.26,-19.63 295.67,-24.12 300.56,-29.12"/>
</g>
<!-- Node14&#45;&gt;Node4 -->
<g id="edge25" class="edge">
<title>Node14&#45;&gt;Node4</title>
<path fill="none" stroke="midnightblue" d="M687.8,-314.16C584.04,-309.32 355.31,-296.14 153.7,-266.13"/>
<polygon fill="midnightblue" stroke="midnightblue" points="153.92,-262.63 143.51,-264.6 152.88,-269.55 153.92,-262.63"/>
</g>
<!-- Node14&#45;&gt;Node9 -->
<g id="edge36" class="edge">
<title>Node14&#45;&gt;Node9</title>
<path fill="none" stroke="midnightblue" d="M800.28,-316.75C888.11,-315.81 1051.5,-308.25 1088,-266 1166.34,-175.31 951.07,-140.99 826.16,-128.95"/>
<polygon fill="midnightblue" stroke="midnightblue" points="826.14,-125.43 815.85,-127.98 825.48,-132.4 826.14,-125.43"/>
</g>
<!-- Node15 -->
<g id="node15" class="node">
<title>Node15</title>
<g id="a_node15"><a xlink:title=" ">
<polygon fill="white" stroke="#bfbfbf" points="1136.5,-241 1136.5,-260 1231.5,-260 1231.5,-241 1136.5,-241"/>
<text text-anchor="middle" x="1184" y="-248" font-family="Helvetica,sans-Serif" font-size="10.00">gtest/gtest_prod.h</text>
</a>
</g>
</g>
<!-- Node14&#45;&gt;Node15 -->
<g id="edge17" class="edge">
<title>Node14&#45;&gt;Node15</title>
<path fill="none" stroke="midnightblue" d="M800.31,-310.7C874.4,-302.68 1008.52,-286.8 1122,-266 1127.85,-264.93 1133.98,-263.67 1140.02,-262.34"/>
<polygon fill="midnightblue" stroke="midnightblue" points="1141.04,-265.7 1150.01,-260.07 1139.49,-258.87 1141.04,-265.7"/>
</g>
<!-- Node16 -->
<g id="node16" class="node">
<title>Node16</title>
<g id="a_node16"><a xlink:title=" ">
<polygon fill="white" stroke="#bfbfbf" points="161.5,-241 161.5,-260 220.5,-260 220.5,-241 161.5,-241"/>
<text text-anchor="middle" x="191" y="-248" font-family="Helvetica,sans-Serif" font-size="10.00">functional</text>
</a>
</g>
</g>
<!-- Node14&#45;&gt;Node16 -->
<g id="edge18" class="edge">
<title>Node14&#45;&gt;Node16</title>
<path fill="none" stroke="midnightblue" d="M687.65,-314.94C593.12,-311.43 397.02,-300.3 235,-266 231.32,-265.22 227.52,-264.24 223.76,-263.17"/>
<polygon fill="midnightblue" stroke="midnightblue" points="224.62,-259.77 214.03,-260.14 222.54,-266.45 224.62,-259.77"/>
</g>
<!-- Node17 -->
<g id="node17" class="node">
<title>Node17</title>
<g id="a_node17"><a xlink:title=" ">
<polygon fill="white" stroke="#bfbfbf" points="277,-241 277,-260 329,-260 329,-241 277,-241"/>
<text text-anchor="middle" x="303" y="-248" font-family="Helvetica,sans-Serif" font-size="10.00">memory</text>
</a>
</g>
</g>
<!-- Node14&#45;&gt;Node17 -->
<g id="edge19" class="edge">
<title>Node14&#45;&gt;Node17</title>
<path fill="none" stroke="midnightblue" d="M687.94,-314.29C608.77,-310.09 460.24,-298.29 338,-266 335.55,-265.35 333.05,-264.57 330.56,-263.71"/>
<polygon fill="midnightblue" stroke="midnightblue" points="331.8,-260.44 321.21,-260.13 329.29,-266.98 331.8,-260.44"/>
</g>
<!-- Node18 -->
<g id="node18" class="node">
<title>Node18</title>
<g id="a_node18"><a xlink:title=" ">
<polygon fill="white" stroke="#bfbfbf" points="347.5,-241 347.5,-260 398.5,-260 398.5,-241 347.5,-241"/>
<text text-anchor="middle" x="373" y="-248" font-family="Helvetica,sans-Serif" font-size="10.00">typeinfo</text>
</a>
</g>
</g>
<!-- Node14&#45;&gt;Node18 -->
<g id="edge21" class="edge">
<title>Node14&#45;&gt;Node18</title>
<path fill="none" stroke="midnightblue" d="M687.92,-312.48C620.28,-306.64 503.63,-293.36 407,-266 404.71,-265.35 402.37,-264.59 400.04,-263.75"/>
<polygon fill="midnightblue" stroke="midnightblue" points="401.28,-260.48 390.69,-260.05 398.7,-266.99 401.28,-260.48"/>
</g>
<!-- Node19 -->
<g id="node19" class="node">
<title>Node19</title>
<g id="a_node19"><a xlink:title=" ">
<polygon fill="white" stroke="#bfbfbf" points="416.5,-235.5 416.5,-265.5 535.5,-265.5 535.5,-235.5 416.5,-235.5"/>
<text text-anchor="start" x="424.5" y="-253.5" font-family="Helvetica,sans-Serif" font-size="10.00">custom_interfaces/msg</text>
<text text-anchor="middle" x="476" y="-242.5" font-family="Helvetica,sans-Serif" font-size="10.00">/cone_array.hpp</text>
</a>
</g>
</g>
<!-- Node14&#45;&gt;Node19 -->
<g id="edge22" class="edge">
<title>Node14&#45;&gt;Node19</title>
<path fill="none" stroke="midnightblue" d="M708.69,-307.94C666.89,-297.8 596.36,-280.69 543.88,-267.96"/>
<polygon fill="midnightblue" stroke="midnightblue" points="544.51,-264.51 533.97,-265.56 542.86,-271.32 544.51,-264.51"/>
</g>
<!-- Node20 -->
<g id="node20" class="node">
<title>Node20</title>
<g id="a_node20"><a xlink:title=" ">
<polygon fill="white" stroke="#bfbfbf" points="553.5,-235.5 553.5,-265.5 672.5,-265.5 672.5,-235.5 553.5,-235.5"/>
<text text-anchor="start" x="561.5" y="-253.5" font-family="Helvetica,sans-Serif" font-size="10.00">custom_interfaces/msg</text>
<text text-anchor="middle" x="613" y="-242.5" font-family="Helvetica,sans-Serif" font-size="10.00">/point2d.hpp</text>
</a>
</g>
</g>
<!-- Node14&#45;&gt;Node20 -->
<g id="edge23" class="edge">
<title>Node14&#45;&gt;Node20</title>
<path fill="none" stroke="midnightblue" d="M726.6,-307.87C707.35,-298.31 675.73,-282.63 650.74,-270.22"/>
<polygon fill="midnightblue" stroke="midnightblue" points="652.03,-266.96 641.52,-265.65 648.92,-273.23 652.03,-266.96"/>
</g>
<!-- Node21 -->
<g id="node21" class="node">
<title>Node21</title>
<g id="a_node21"><a xlink:title=" ">
<polygon fill="white" stroke="#bfbfbf" points="815.5,-235.5 815.5,-265.5 934.5,-265.5 934.5,-235.5 815.5,-235.5"/>
<text text-anchor="start" x="823.5" y="-253.5" font-family="Helvetica,sans-Serif" font-size="10.00">custom_interfaces/msg</text>
<text text-anchor="middle" x="875" y="-242.5" font-family="Helvetica,sans-Serif" font-size="10.00">/pose.hpp</text>
</a>
</g>
</g>
<!-- Node14&#45;&gt;Node21 -->
<g id="edge24" class="edge">
<title>Node14&#45;&gt;Node21</title>
<path fill="none" stroke="midnightblue" d="M761.4,-307.87C780.65,-298.31 812.27,-282.63 837.26,-270.22"/>
<polygon fill="midnightblue" stroke="midnightblue" points="839.08,-273.23 846.48,-265.65 835.97,-266.96 839.08,-273.23"/>
</g>
<!-- Node22 -->
<g id="node22" class="node">
<title>Node22</title>
<g id="a_node22"><a xlink:href="ekf_8hpp.html" target="_top" xlink:title=" ">
<polygon fill="white" stroke="black" points="690.5,-241 690.5,-260 797.5,-260 797.5,-241 690.5,-241"/>
<text text-anchor="middle" x="744" y="-248" font-family="Helvetica,sans-Serif" font-size="10.00">kalman_filter/ekf.hpp</text>
</a>
</g>
</g>
<!-- Node14&#45;&gt;Node22 -->
<g id="edge26" class="edge">
<title>Node14&#45;&gt;Node22</title>
<path fill="none" stroke="midnightblue" d="M744,-307.73C744,-298.18 744,-282.62 744,-270.28"/>
<polygon fill="midnightblue" stroke="midnightblue" points="747.5,-270.13 744,-260.13 740.5,-270.13 747.5,-270.13"/>
</g>
<!-- Node14&#45;&gt;Node27 -->
<g id="edge37" class="edge">
<title>Node14&#45;&gt;Node27</title>
<path fill="none" stroke="midnightblue" d="M800.19,-313.65C892.56,-308.31 1082.02,-294.68 1240,-266 1245.21,-265.05 1250.65,-263.87 1256,-262.58"/>
<polygon fill="midnightblue" stroke="midnightblue" points="1257.24,-265.88 1266.08,-260.03 1255.52,-259.09 1257.24,-265.88"/>
</g>
<!-- Node14&#45;&gt;Node28 -->
<g id="edge38" class="edge">
<title>Node14&#45;&gt;Node28</title>
<path fill="none" stroke="midnightblue" d="M800.09,-313.75C907.17,-308.07 1147.94,-293.25 1349,-266 1357.43,-264.86 1366.33,-263.41 1374.98,-261.87"/>
<polygon fill="midnightblue" stroke="midnightblue" points="1375.76,-265.28 1384.97,-260.04 1374.5,-258.4 1375.76,-265.28"/>
</g>
<!-- Node29 -->
<g id="node29" class="node">
<title>Node29</title>
<g id="a_node29"><a xlink:title=" ">
<polygon fill="white" stroke="#bfbfbf" points="952.5,-241 952.5,-260 1079.5,-260 1079.5,-241 952.5,-241"/>
<text text-anchor="middle" x="1016" y="-248" font-family="Helvetica,sans-Serif" font-size="10.00">std_msgs/msg/string.hpp</text>
</a>
</g>
</g>
<!-- Node14&#45;&gt;Node29 -->
<g id="edge39" class="edge">
<title>Node14&#45;&gt;Node29</title>
<path fill="none" stroke="midnightblue" d="M779.84,-307.94C828.76,-296.24 916.49,-275.28 970.15,-262.46"/>
<polygon fill="midnightblue" stroke="midnightblue" points="971.17,-265.81 980.08,-260.08 969.54,-259 971.17,-265.81"/>
</g>
<!-- Node22&#45;&gt;Node9 -->
<g id="edge35" class="edge">
<title>Node22&#45;&gt;Node9</title>
<path fill="none" stroke="midnightblue" d="M765.43,-240.91C782.31,-232.85 804.67,-219.03 815,-199 821.32,-186.76 821.64,-180.07 815,-168 807.11,-153.66 792.51,-143.25 778.6,-136.08"/>
<polygon fill="midnightblue" stroke="midnightblue" points="779.7,-132.73 769.16,-131.62 776.71,-139.06 779.7,-132.73"/>
</g>
<!-- Node23 -->
<g id="node23" class="node">
<title>Node23</title>
<g id="a_node23"><a xlink:title=" ">
<polygon fill="white" stroke="#bfbfbf" points="574.5,-112.5 574.5,-131.5 647.5,-131.5 647.5,-112.5 574.5,-112.5"/>
<text text-anchor="middle" x="611" y="-119.5" font-family="Helvetica,sans-Serif" font-size="10.00">Eigen/Dense</text>
</a>
</g>
</g>
<!-- Node22&#45;&gt;Node23 -->
<g id="edge27" class="edge">
<title>Node22&#45;&gt;Node23</title>
<path fill="none" stroke="midnightblue" d="M708.97,-240.96C653.76,-227.41 552.47,-202.2 550,-199 541.57,-188.1 543.79,-180.3 550,-168 556.81,-154.52 569.77,-144.08 582,-136.67"/>
<polygon fill="midnightblue" stroke="midnightblue" points="584.07,-139.52 591.09,-131.59 580.66,-133.41 584.07,-139.52"/>
</g>
<!-- Node24 -->
<g id="node24" class="node">
<title>Node24</title>
<g id="a_node24"><a xlink:title=" ">
<polygon fill="white" stroke="#bfbfbf" points="863,-174 863,-193 907,-193 907,-174 863,-174"/>
<text text-anchor="middle" x="885" y="-181" font-family="Helvetica,sans-Serif" font-size="10.00">vector</text>
</a>
</g>
</g>
<!-- Node22&#45;&gt;Node24 -->
<g id="edge28" class="edge">
<title>Node22&#45;&gt;Node24</title>
<path fill="none" stroke="midnightblue" d="M762.72,-240.87C786.85,-229.75 829,-210.32 856.95,-197.43"/>
<polygon fill="midnightblue" stroke="midnightblue" points="858.58,-200.53 866.2,-193.17 855.65,-194.18 858.58,-200.53"/>
</g>
<!-- Node25 -->
<g id="node25" class="node">
<title>Node25</title>
<g id="a_node25"><a xlink:href="motion__models_8hpp.html" target="_top" xlink:title=" ">
<polygon fill="white" stroke="black" points="559,-168.5 559,-198.5 663,-198.5 663,-168.5 559,-168.5"/>
<text text-anchor="start" x="567" y="-186.5" font-family="Helvetica,sans-Serif" font-size="10.00">kalman_filter/motion</text>
<text text-anchor="middle" x="611" y="-175.5" font-family="Helvetica,sans-Serif" font-size="10.00">_models.hpp</text>
</a>
</g>
</g>
<!-- Node22&#45;&gt;Node25 -->
<g id="edge29" class="edge">
<title>Node22&#45;&gt;Node25</title>
<path fill="none" stroke="midnightblue" d="M726.34,-240.87C706.64,-231.24 674.2,-215.39 648.73,-202.94"/>
<polygon fill="midnightblue" stroke="midnightblue" points="650.22,-199.77 639.7,-198.53 647.15,-206.06 650.22,-199.77"/>
</g>
<!-- Node26 -->
<g id="node26" class="node">
<title>Node26</title>
<g id="a_node26"><a xlink:href="observation__models_8hpp.html" target="_top" xlink:title=" ">
<polygon fill="white" stroke="black" points="681.5,-168.5 681.5,-198.5 806.5,-198.5 806.5,-168.5 681.5,-168.5"/>
<text text-anchor="start" x="689.5" y="-186.5" font-family="Helvetica,sans-Serif" font-size="10.00">kalman_filter/observation</text>
<text text-anchor="middle" x="744" y="-175.5" font-family="Helvetica,sans-Serif" font-size="10.00">_models.hpp</text>
</a>
</g>
</g>
<!-- Node22&#45;&gt;Node26 -->
<g id="edge32" class="edge">
<title>Node22&#45;&gt;Node26</title>
<path fill="none" stroke="midnightblue" d="M744,-240.73C744,-232.54 744,-219.92 744,-208.71"/>
<polygon fill="midnightblue" stroke="midnightblue" points="747.5,-208.59 744,-198.59 740.5,-208.59 747.5,-208.59"/>
</g>
<!-- Node25&#45;&gt;Node9 -->
<g id="edge31" class="edge">
<title>Node25&#45;&gt;Node9</title>
<path fill="none" stroke="midnightblue" d="M642.52,-168.4C664.64,-158.51 693.97,-145.38 715.41,-135.79"/>
<polygon fill="midnightblue" stroke="midnightblue" points="716.95,-138.94 724.65,-131.66 714.09,-132.55 716.95,-138.94"/>
</g>
<!-- Node25&#45;&gt;Node23 -->
<g id="edge30" class="edge">
<title>Node25&#45;&gt;Node23</title>
<path fill="none" stroke="midnightblue" d="M611,-168.4C611,-160.47 611,-150.46 611,-141.86"/>
<polygon fill="midnightblue" stroke="midnightblue" points="614.5,-141.66 611,-131.66 607.5,-141.66 614.5,-141.66"/>
</g>
<!-- Node26&#45;&gt;Node9 -->
<g id="edge34" class="edge">
<title>Node26&#45;&gt;Node9</title>
<path fill="none" stroke="midnightblue" d="M744,-168.4C744,-160.47 744,-150.46 744,-141.86"/>
<polygon fill="midnightblue" stroke="midnightblue" points="747.5,-141.66 744,-131.66 740.5,-141.66 747.5,-141.66"/>
</g>
<!-- Node26&#45;&gt;Node23 -->
<g id="edge33" class="edge">
<title>Node26&#45;&gt;Node23</title>
<path fill="none" stroke="midnightblue" d="M712.48,-168.4C690.36,-158.51 661.03,-145.38 639.59,-135.79"/>
<polygon fill="midnightblue" stroke="midnightblue" points="640.91,-132.55 630.35,-131.66 638.05,-138.94 640.91,-132.55"/>
</g>
</g>
</svg>
        <g id="navigator" transform="translate(0 0)" fill="#404254">
                <rect fill="#f2f5e9" fill-opacity="0.5" stroke="#606060" stroke-width=".5" x="0" y="0" width="60" height="60"/>
                <use id="zoomplus" xlink:href="#zoomPlus" x="17" y="9" onmousedown="handleZoom(evt,'in')"/>
                <use id="zoomminus" xlink:href="#zoomMin" x="42" y="9" onmousedown="handleZoom(evt,'out')"/>
                <use id="reset" xlink:href="#resetDef" x="30" y="36" onmousedown="handleReset()"/>
                <g id="arrowUp" xlink:href="#dirArrow" transform="translate(30 24)" onmousedown="handlePan(0,-1)">
                  <use xlink:href="#rim" fill="#404040">
                        <set attributeName="fill" to="#808080" begin="arrowUp.mouseover" end="arrowUp.mouseout"/>
                  </use>
                  <path fill="none" stroke="white" stroke-width="1.5" d="M0,-3.0v7 M-2.5,-0.5L0,-3.0L2.5,-0.5"/>
                </g>
                <g id="arrowRight" xlink:href="#dirArrow" transform="rotate(90) translate(36 -43)" onmousedown="handlePan(1,0)">
                  <use xlink:href="#rim" fill="#404040">
                        <set attributeName="fill" to="#808080" begin="arrowRight.mouseover" end="arrowRight.mouseout"/>
                  </use>
                  <path fill="none" stroke="white" stroke-width="1.5" d="M0,-3.0v7 M-2.5,-0.5L0,-3.0L2.5,-0.5"/>
                </g>
                <g id="arrowDown" xlink:href="#dirArrow" transform="rotate(180) translate(-30 -48)" onmousedown="handlePan(0,1)">
                  <use xlink:href="#rim" fill="#404040">
                        <set attributeName="fill" to="#808080" begin="arrowDown.mouseover" end="arrowDown.mouseout"/>
                  </use>
                  <path fill="none" stroke="white" stroke-width="1.5" d="M0,-3.0v7 M-2.5,-0.5L0,-3.0L2.5,-0.5"/>
                </g>
                <g id="arrowLeft" xlink:href="#dirArrow" transform="rotate(270) translate(-36 17)" onmousedown="handlePan(-1,0)">
                  <use xlink:href="#rim" fill="#404040">
                        <set attributeName="fill" to="#808080" begin="arrowLeft.mouseover" end="arrowLeft.mouseout"/>
                  </use>
                  <path fill="none" stroke="white" stroke-width="1.5" d="M0,-3.0v7 M-2.5,-0.5L0,-3.0L2.5,-0.5"/>
                </g>
        </g>
        <svg viewBox="0 0 15 15" width="100%" height="30px" preserveAspectRatio="xMaxYMin meet">
         <g id="arrow_out" transform="scale(0.3 0.3)">
          <a xlink:href="adapter_8hpp__incl_org.svg" target="_base">
           <rect id="button" ry="5" rx="5" y="6" x="6" height="38" width="38"
                fill="#f2f5e9" fill-opacity="0.5" stroke="#606060" stroke-width="1.0"/>
           <path id="arrow"
             d="M 11.500037,31.436501 C 11.940474,20.09759 22.043105,11.32322 32.158766,21.979434 L 37.068811,17.246167 C 37.068811,17.246167 37.088388,32 37.088388,32 L 22.160133,31.978069 C 22.160133,31.978069 26.997745,27.140456 26.997745,27.140456 C 18.528582,18.264221 13.291696,25.230495 11.500037,31.436501 z"
             style="fill:#404040;"/>
          </a>
         </g>
        </svg>
</svg>
