<?xml version="1.0" encoding="UTF-8" standalone="no"?>
<!DOCTYPE svg PUBLIC "-//W3C//DTD SVG 1.1//EN"
 "http://www.w3.org/Graphics/SVG/1.1/DTD/svg11.dtd">
<!-- Generated by graphviz version 2.43.0 (0)
 -->
<!-- Title: src/loc_map/src/adapter/adapter.cpp Pages: 1 -->
<!--zoomable 456 -->

<svg id="main" version="1.1" xmlns="http://www.w3.org/2000/svg" xmlns:xlink="http://www.w3.org/1999/xlink" xml:space="preserve" onload="init(evt)">
<style type="text/css"><![CDATA[
.node, .edge {opacity: 0.7;}
.node.selected, .edge.selected {opacity: 1;}
.edge:hover path { stroke: red; }
.edge:hover polygon { stroke: red; fill: red; }
]]></style>

<defs>
  <circle id="rim" cx="0" cy="0" r="7"/>
  <circle id="rim2" cx="0" cy="0" r="3.5"/>
  <g id="zoomPlus">
    <use xlink:href="#rim" fill="#404040"><set attributeName="fill" to="#808080" begin="zoomplus.mouseover" end="zoomplus.mouseout"/></use>
    <path d="M-4,0h8M0,-4v8" fill="none" stroke="white" stroke-width="1.5" pointer-events="none"/>
  </g>
  <g id="zoomMin">
    <use xlink:href="#rim" fill="#404040"><set attributeName="fill" to="#808080" begin="zoomminus.mouseover" end="zoomminus.mouseout"/></use>
    <path d="M-4,0h8" fill="none" stroke="white" stroke-width="1.5" pointer-events="none"/>
  </g>
  <g id="arrowUp" transform="translate(30 24)">
    <use xlink:href="#rim"/>
    <path pointer-events="none" fill="none" stroke="white" stroke-width="1.5" d="M0,-3.0v7 M-2.5,-0.5L0,-3.0L2.5,-0.5"/>
  </g>
  <g id="arrowRight" transform="rotate(90) translate(36 -43)">
    <use xlink:href="#rim"/>
    <path pointer-events="none" fill="none" stroke="white" stroke-width="1.5" d="M0,-3.0v7 M-2.5,-0.5L0,-3.0L2.5,-0.5"/>
  </g>
  <g id="arrowDown" transform="rotate(180) translate(-30 -48)">
    <use xlink:href="#rim"/>
    <path pointer-events="none" fill="none" stroke="white" stroke-width="1.5" d="M0,-3.0v7 M-2.5,-0.5L0,-3.0L2.5,-0.5"/>
  </g>
  <g id="arrowLeft" transform="rotate(270) translate(-36 17)">
    <use xlink:href="#rim"/>
    <path pointer-events="none" fill="none" stroke="white" stroke-width="1.5" d="M0,-3.0v7 M-2.5,-0.5L0,-3.0L2.5,-0.5"/>
  </g>
  <g id="resetDef">
    <use xlink:href="#rim2" fill="#404040"><set attributeName="fill" to="#808080" begin="reset.mouseover" end="reset.mouseout"/></use>
  </g>
</defs>
<script type="application/ecmascript">
var viewWidth = 2420;
var viewHeight = 456;
var sectionId = 'dynsection-0';
</script>
<script type="application/ecmascript" xlink:href="svg.min.js"/>
<svg id="graph" class="graph">
<g id="viewport">
<title>src/loc_map/src/adapter/adapter.cpp</title>
<!-- Node1 -->
<g id="Node000001" class="node">
<title>Node1</title>
<g id="a_Node000001"><a xlink:title=" ">
<polygon fill="#999999" stroke="#666666" points="1642.5,-448 1509.5,-448 1509.5,-418 1642.5,-418 1642.5,-448"/>
<text text-anchor="start" x="1517.5" y="-436" font-family="Helvetica,sans-Serif" font-size="10.00">src/loc_map/src/adapter</text>
<text text-anchor="middle" x="1576" y="-425" font-family="Helvetica,sans-Serif" font-size="10.00">/adapter.cpp</text>
</a>
</g>
</g>
<!-- Node2 -->
<g id="Node000002" class="node">
<title>Node2</title>
<g id="a_Node000002"><a xlink:href="adapter_8hpp.html" target="_top" xlink:title=" ">
<polygon fill="white" stroke="#666666" points="1633.5,-382 1518.5,-382 1518.5,-363 1633.5,-363 1633.5,-382"/>
<text text-anchor="middle" x="1576" y="-370" font-family="Helvetica,sans-Serif" font-size="10.00">adapter/adapter.hpp</text>
</a>
</g>
</g>
<!-- Node1&#45;&gt;Node2 -->
<g id="edge1_Node000001_Node000002" class="edge">
<title>Node1&#45;&gt;Node2</title>
<g id="a_edge1_Node000001_Node000002"><a xlink:title=" ">
<path fill="none" stroke="#63b8ff" d="M1576,-417.84C1576,-410.21 1576,-400.7 1576,-392.45"/>
<polygon fill="#63b8ff" stroke="#63b8ff" points="1579.5,-392.27 1576,-382.27 1572.5,-392.27 1579.5,-392.27"/>
</a>
</g>
</g>
<!-- Node3 -->
<g id="Node000003" class="node">
<title>Node3</title>
<g id="a_Node000003"><a xlink:title=" ">
<polygon fill="#e0e0e0" stroke="#999999" points="359,-19 315,-19 315,0 359,0 359,-19"/>
<text text-anchor="middle" x="337" y="-7" font-family="Helvetica,sans-Serif" font-size="10.00">string</text>
</a>
</g>
</g>
<!-- Node2&#45;&gt;Node3 -->
<g id="edge2_Node000002_Node000003" class="edge">
<title>Node2&#45;&gt;Node3</title>
<g id="a_edge2_Node000002_Node000003"><a xlink:title=" ">
<path fill="none" stroke="#63b8ff" d="M1518.39,-371.88C1348.71,-372.45 836.26,-370.19 414,-327 227.57,-307.93 0,-434.4 0,-247 0,-247 0,-247 0,-118.5 0,-54.87 220.64,-23.5 304.86,-13.85"/>
<polygon fill="#63b8ff" stroke="#63b8ff" points="305.34,-17.32 314.89,-12.73 304.56,-10.36 305.34,-17.32"/>
</a>
</g>
</g>
<!-- Node4 -->
<g id="Node000004" class="node">
<title>Node4</title>
<g id="a_Node000004"><a xlink:title=" ">
<polygon fill="#e0e0e0" stroke="#999999" points="1768,-321.5 1604,-321.5 1604,-302.5 1768,-302.5 1768,-321.5"/>
<text text-anchor="middle" x="1686" y="-309.5" font-family="Helvetica,sans-Serif" font-size="10.00">eufs_msgs/msg/can_state.hpp</text>
</a>
</g>
</g>
<!-- Node2&#45;&gt;Node4 -->
<g id="edge3_Node000002_Node000004" class="edge">
<title>Node2&#45;&gt;Node4</title>
<g id="a_edge3_Node000002_Node000004"><a xlink:title=" ">
<path fill="none" stroke="#63b8ff" d="M1592.23,-362.87C1610.27,-353.28 1639.62,-337.67 1660.68,-326.47"/>
<polygon fill="#63b8ff" stroke="#63b8ff" points="1662.52,-329.45 1669.7,-321.67 1659.23,-323.27 1662.52,-329.45"/>
</a>
</g>
</g>
<!-- Node5 -->
<g id="Node000005" class="node">
<title>Node5</title>
<g id="a_Node000005"><a xlink:title=" ">
<polygon fill="#e0e0e0" stroke="#999999" points="153.5,-261 28.5,-261 28.5,-231 153.5,-231 153.5,-261"/>
<text text-anchor="start" x="36.5" y="-249" font-family="Helvetica,sans-Serif" font-size="10.00">eufs_msgs/msg/wheel</text>
<text text-anchor="middle" x="91" y="-238" font-family="Helvetica,sans-Serif" font-size="10.00">_speeds_stamped.hpp</text>
</a>
</g>
</g>
<!-- Node2&#45;&gt;Node5 -->
<g id="edge4_Node000002_Node000005" class="edge">
<title>Node2&#45;&gt;Node5</title>
<g id="a_edge4_Node000002_Node000005"><a xlink:title=" ">
<path fill="none" stroke="#63b8ff" d="M1518.28,-369.71C1381.42,-365.2 1026.52,-351.9 731,-327 480.66,-305.91 415.24,-300.47 163.85,-261.23"/>
<polygon fill="#63b8ff" stroke="#63b8ff" points="164.09,-257.72 153.67,-259.64 163.01,-264.64 164.09,-257.72"/>
</a>
</g>
</g>
<!-- Node6 -->
<g id="Node000006" class="node">
<title>Node6</title>
<g id="a_Node000006"><a xlink:title=" ">
<polygon fill="#e0e0e0" stroke="#999999" points="1914,-327 1786,-327 1786,-297 1914,-297 1914,-327"/>
<text text-anchor="start" x="1794" y="-315" font-family="Helvetica,sans-Serif" font-size="10.00">eufs_msgs/srv/set_can</text>
<text text-anchor="middle" x="1850" y="-304" font-family="Helvetica,sans-Serif" font-size="10.00">_state.hpp</text>
</a>
</g>
</g>
<!-- Node2&#45;&gt;Node6 -->
<g id="edge5_Node000002_Node000006" class="edge">
<title>Node2&#45;&gt;Node6</title>
<g id="a_edge5_Node000002_Node000006"><a xlink:title=" ">
<path fill="none" stroke="#63b8ff" d="M1615.84,-362.99C1657.66,-354.07 1724.35,-339.83 1775.88,-328.82"/>
<polygon fill="#63b8ff" stroke="#63b8ff" points="1776.92,-332.18 1785.97,-326.67 1775.46,-325.34 1776.92,-332.18"/>
</a>
</g>
</g>
<!-- Node7 -->
<g id="Node000007" class="node">
<title>Node7</title>
<g id="a_Node000007"><a xlink:title=" ">
<polygon fill="#e0e0e0" stroke="#999999" points="2054,-327 1932,-327 1932,-297 2054,-297 2054,-327"/>
<text text-anchor="start" x="1940" y="-315" font-family="Helvetica,sans-Serif" font-size="10.00">fs_msgs/msg/finished</text>
<text text-anchor="middle" x="1993" y="-304" font-family="Helvetica,sans-Serif" font-size="10.00">_signal.hpp</text>
</a>
</g>
</g>
<!-- Node2&#45;&gt;Node7 -->
<g id="edge6_Node000002_Node000007" class="edge">
<title>Node2&#45;&gt;Node7</title>
<g id="a_edge6_Node000002_Node000007"><a xlink:title=" ">
<path fill="none" stroke="#63b8ff" d="M1633.59,-365.36C1700.49,-357.95 1814.4,-344.48 1921.91,-327.11"/>
<polygon fill="#63b8ff" stroke="#63b8ff" points="1922.66,-330.53 1931.96,-325.47 1921.53,-323.62 1922.66,-330.53"/>
</a>
</g>
</g>
<!-- Node8 -->
<g id="Node000008" class="node">
<title>Node8</title>
<g id="a_Node000008"><a xlink:title=" ">
<polygon fill="#e0e0e0" stroke="#999999" points="2224,-321.5 2072,-321.5 2072,-302.5 2224,-302.5 2224,-321.5"/>
<text text-anchor="middle" x="2148" y="-309.5" font-family="Helvetica,sans-Serif" font-size="10.00">fs_msgs/msg/go_signal.hpp</text>
</a>
</g>
</g>
<!-- Node2&#45;&gt;Node8 -->
<g id="edge7_Node000002_Node000008" class="edge">
<title>Node2&#45;&gt;Node8</title>
<g id="a_edge7_Node000002_Node000008"><a xlink:title=" ">
<path fill="none" stroke="#63b8ff" d="M1633.87,-367.57C1725.25,-361.06 1908.47,-346.76 2063,-327 2071.73,-325.88 2080.94,-324.54 2089.94,-323.13"/>
<polygon fill="#63b8ff" stroke="#63b8ff" points="2090.67,-326.56 2099.99,-321.53 2089.56,-319.65 2090.67,-326.56"/>
</a>
</g>
</g>
<!-- Node9 -->
<g id="Node000009" class="node">
<title>Node9</title>
<g id="a_Node000009"><a xlink:title=" ">
<polygon fill="#e0e0e0" stroke="#999999" points="2412,-321.5 2242,-321.5 2242,-302.5 2412,-302.5 2412,-321.5"/>
<text text-anchor="middle" x="2327" y="-309.5" font-family="Helvetica,sans-Serif" font-size="10.00">fs_msgs/msg/wheel_states.hpp</text>
</a>
</g>
</g>
<!-- Node2&#45;&gt;Node9 -->
<g id="edge8_Node000002_Node000009" class="edge">
<title>Node2&#45;&gt;Node9</title>
<g id="a_edge8_Node000002_Node000009"><a xlink:title=" ">
<path fill="none" stroke="#63b8ff" d="M1633.7,-369.15C1748.21,-364.14 2012.21,-350.88 2233,-327 2243.32,-325.88 2254.24,-324.47 2264.85,-322.98"/>
<polygon fill="#63b8ff" stroke="#63b8ff" points="2265.49,-326.42 2274.89,-321.52 2264.49,-319.49 2265.49,-326.42"/>
</a>
</g>
</g>
<!-- Node10 -->
<g id="Node000010" class="node">
<title>Node10</title>
<g id="a_Node000010"><a xlink:href="data__structures_8hpp.html" target="_top" xlink:title=" ">
<polygon fill="white" stroke="#666666" points="881,-129 723,-129 723,-110 881,-110 881,-129"/>
<text text-anchor="middle" x="802" y="-117" font-family="Helvetica,sans-Serif" font-size="10.00">loc_map/data_structures.hpp</text>
</a>
</g>
</g>
<!-- Node2&#45;&gt;Node10 -->
<g id="edge9_Node000002_Node000010" class="edge">
<title>Node2&#45;&gt;Node10</title>
<g id="a_edge9_Node000002_Node000010"><a xlink:title=" ">
<path fill="none" stroke="#63b8ff" d="M1577.12,-362.88C1579.22,-348.63 1584.48,-319.49 1595,-297 1608.36,-268.44 1641.62,-254.85 1621,-231 1573.74,-176.33 1093.6,-139.27 891.21,-125.96"/>
<polygon fill="#63b8ff" stroke="#63b8ff" points="891.4,-122.47 881.2,-125.31 890.95,-129.45 891.4,-122.47"/>
</a>
</g>
</g>
<!-- Node15 -->
<g id="Node000015" class="node">
<title>Node15</title>
<g id="a_Node000015"><a xlink:href="lm__node_8hpp.html" target="_top" xlink:title=" ">
<polygon fill="white" stroke="#666666" points="864,-321.5 740,-321.5 740,-302.5 864,-302.5 864,-321.5"/>
<text text-anchor="middle" x="802" y="-309.5" font-family="Helvetica,sans-Serif" font-size="10.00">loc_map/lm_node.hpp</text>
</a>
</g>
</g>
<!-- Node2&#45;&gt;Node15 -->
<g id="edge17_Node000002_Node000015" class="edge">
<title>Node2&#45;&gt;Node15</title>
<g id="a_edge17_Node000002_Node000015"><a xlink:title=" ">
<path fill="none" stroke="#63b8ff" d="M1518.46,-367.15C1379.75,-356.67 1027.18,-330.02 874.41,-318.47"/>
<polygon fill="#63b8ff" stroke="#63b8ff" points="874.44,-314.97 864.2,-317.7 873.91,-321.95 874.44,-314.97"/>
</a>
</g>
</g>
<!-- Node28 -->
<g id="Node000028" class="node">
<title>Node28</title>
<g id="a_Node000028"><a xlink:title=" ">
<polygon fill="#e0e0e0" stroke="#999999" points="1446.5,-255.5 1347.5,-255.5 1347.5,-236.5 1446.5,-236.5 1446.5,-255.5"/>
<text text-anchor="middle" x="1397" y="-243.5" font-family="Helvetica,sans-Serif" font-size="10.00">rclcpp/rclcpp.hpp</text>
</a>
</g>
</g>
<!-- Node2&#45;&gt;Node28 -->
<g id="edge41_Node000002_Node000028" class="edge">
<title>Node2&#45;&gt;Node28</title>
<g id="a_edge41_Node000002_Node000028"><a xlink:title=" ">
<path fill="none" stroke="#63b8ff" d="M1563.7,-362.94C1533.55,-341.98 1455.72,-287.84 1418.05,-261.64"/>
<polygon fill="#63b8ff" stroke="#63b8ff" points="1419.6,-258.45 1409.39,-255.62 1415.6,-264.2 1419.6,-258.45"/>
</a>
</g>
</g>
<!-- Node29 -->
<g id="Node000029" class="node">
<title>Node29</title>
<g id="a_Node000029"><a xlink:title=" ">
<polygon fill="#e0e0e0" stroke="#999999" points="1611.5,-255.5 1464.5,-255.5 1464.5,-236.5 1611.5,-236.5 1611.5,-255.5"/>
<text text-anchor="middle" x="1538" y="-243.5" font-family="Helvetica,sans-Serif" font-size="10.00">sensor_msgs/msg/imu.hpp</text>
</a>
</g>
</g>
<!-- Node2&#45;&gt;Node29 -->
<g id="edge42_Node000002_Node000029" class="edge">
<title>Node2&#45;&gt;Node29</title>
<g id="a_edge42_Node000002_Node000029"><a xlink:title=" ">
<path fill="none" stroke="#63b8ff" d="M1573.28,-362.98C1570.44,-354.03 1565.85,-339.54 1562,-327 1555.56,-306.05 1548.36,-281.96 1543.54,-265.73"/>
<polygon fill="#63b8ff" stroke="#63b8ff" points="1546.82,-264.48 1540.62,-255.89 1540.11,-266.47 1546.82,-264.48"/>
</a>
</g>
</g>
<!-- Node10&#45;&gt;Node3 -->
<g id="edge12_Node000010_Node000003" class="edge">
<title>Node10&#45;&gt;Node3</title>
<g id="a_edge12_Node000010_Node000003"><a xlink:title=" ">
<path fill="none" stroke="#63b8ff" d="M751.75,-109.94C704.81,-101.67 632.87,-88.33 571,-74 498.14,-57.12 413.71,-33.09 368.86,-19.96"/>
<polygon fill="#63b8ff" stroke="#63b8ff" points="369.7,-16.56 359.12,-17.1 367.73,-23.27 369.7,-16.56"/>
</a>
</g>
</g>
<!-- Node11 -->
<g id="Node000011" class="node">
<title>Node11</title>
<g id="a_Node000011"><a xlink:title=" ">
<polygon fill="#e0e0e0" stroke="#999999" points="630,-74 580,-74 580,-55 630,-55 630,-74"/>
<text text-anchor="middle" x="605" y="-62" font-family="Helvetica,sans-Serif" font-size="10.00">chrono</text>
</a>
</g>
</g>
<!-- Node10&#45;&gt;Node11 -->
<g id="edge10_Node000010_Node000011" class="edge">
<title>Node10&#45;&gt;Node11</title>
<g id="a_edge10_Node000010_Node000011"><a xlink:title=" ">
<path fill="none" stroke="#63b8ff" d="M770.35,-109.98C734.66,-100.38 676.8,-84.82 639.84,-74.87"/>
<polygon fill="#63b8ff" stroke="#63b8ff" points="640.58,-71.45 630.01,-72.23 638.76,-78.21 640.58,-71.45"/>
</a>
</g>
</g>
<!-- Node12 -->
<g id="Node000012" class="node">
<title>Node12</title>
<g id="a_Node000012"><a xlink:title=" ">
<polygon fill="#e0e0e0" stroke="#999999" points="805,-19 767,-19 767,0 805,0 805,-19"/>
<text text-anchor="middle" x="786" y="-7" font-family="Helvetica,sans-Serif" font-size="10.00">map</text>
</a>
</g>
</g>
<!-- Node10&#45;&gt;Node12 -->
<g id="edge11_Node000010_Node000012" class="edge">
<title>Node10&#45;&gt;Node12</title>
<g id="a_edge11_Node000010_Node000012"><a xlink:title=" ">
<path fill="none" stroke="#63b8ff" d="M820.65,-109.94C842.41,-98.67 873.88,-77.62 861,-55 851.04,-37.51 831.21,-26.19 814.44,-19.34"/>
<polygon fill="#63b8ff" stroke="#63b8ff" points="815.6,-16.04 805.01,-15.81 813.15,-22.6 815.6,-16.04"/>
</a>
</g>
</g>
<!-- Node13 -->
<g id="Node000013" class="node">
<title>Node13</title>
<g id="a_Node000013"><a xlink:href="color_8hpp.html" target="_top" xlink:title=" ">
<polygon fill="white" stroke="#666666" points="733.5,-74 648.5,-74 648.5,-55 733.5,-55 733.5,-74"/>
<text text-anchor="middle" x="691" y="-62" font-family="Helvetica,sans-Serif" font-size="10.00">utils/color.hpp</text>
</a>
</g>
</g>
<!-- Node10&#45;&gt;Node13 -->
<g id="edge13_Node000010_Node000013" class="edge">
<title>Node10&#45;&gt;Node13</title>
<g id="a_edge13_Node000010_Node000013"><a xlink:title=" ">
<path fill="none" stroke="#63b8ff" d="M784.17,-109.98C766.39,-101.5 738.85,-88.35 718.32,-78.54"/>
<polygon fill="#63b8ff" stroke="#63b8ff" points="719.69,-75.32 709.16,-74.17 716.67,-81.64 719.69,-75.32"/>
</a>
</g>
</g>
<!-- Node14 -->
<g id="Node000014" class="node">
<title>Node14</title>
<g id="a_Node000014"><a xlink:href="position_8hpp.html" target="_top" xlink:title=" ">
<polygon fill="white" stroke="#666666" points="852.5,-74 751.5,-74 751.5,-55 852.5,-55 852.5,-74"/>
<text text-anchor="middle" x="802" y="-62" font-family="Helvetica,sans-Serif" font-size="10.00">utils/position.hpp</text>
</a>
</g>
</g>
<!-- Node10&#45;&gt;Node14 -->
<g id="edge16_Node000010_Node000014" class="edge">
<title>Node10&#45;&gt;Node14</title>
<g id="a_edge16_Node000010_Node000014"><a xlink:title=" ">
<path fill="none" stroke="#63b8ff" d="M802,-109.75C802,-102.8 802,-92.85 802,-84.13"/>
<polygon fill="#63b8ff" stroke="#63b8ff" points="805.5,-84.09 802,-74.09 798.5,-84.09 805.5,-84.09"/>
</a>
</g>
</g>
<!-- Node13&#45;&gt;Node3 -->
<g id="edge15_Node000013_Node000003" class="edge">
<title>Node13&#45;&gt;Node3</title>
<g id="a_edge15_Node000013_Node000003"><a xlink:title=" ">
<path fill="none" stroke="#63b8ff" d="M648.44,-56.49C645.25,-55.98 642.07,-55.48 639,-55 540.85,-39.75 424.55,-22.98 369.28,-15.09"/>
<polygon fill="#63b8ff" stroke="#63b8ff" points="369.77,-11.62 359.37,-13.67 368.78,-18.55 369.77,-11.62"/>
</a>
</g>
</g>
<!-- Node13&#45;&gt;Node12 -->
<g id="edge14_Node000013_Node000012" class="edge">
<title>Node13&#45;&gt;Node12</title>
<g id="a_edge14_Node000013_Node000012"><a xlink:title=" ">
<path fill="none" stroke="#63b8ff" d="M706.26,-54.98C721.13,-46.69 743.98,-33.94 761.42,-24.22"/>
<polygon fill="#63b8ff" stroke="#63b8ff" points="763.43,-27.1 770.46,-19.17 760.02,-20.99 763.43,-27.1"/>
</a>
</g>
</g>
<!-- Node15&#45;&gt;Node3 -->
<g id="edge21_Node000015_Node000003" class="edge">
<title>Node15&#45;&gt;Node3</title>
<g id="a_edge21_Node000015_Node000003"><a xlink:title=" ">
<path fill="none" stroke="#63b8ff" d="M739.92,-306.93C606.08,-297.9 300.98,-275.8 284,-261 256.45,-236.99 265,-217.54 265,-181 265,-181 265,-181 265,-118.5 265,-80.1 296.89,-44.98 318.23,-25.78"/>
<polygon fill="#63b8ff" stroke="#63b8ff" points="320.79,-28.19 326.06,-19 316.21,-22.89 320.79,-28.19"/>
</a>
</g>
</g>
<!-- Node15&#45;&gt;Node5 -->
<g id="edge26_Node000015_Node000005" class="edge">
<title>Node15&#45;&gt;Node5</title>
<g id="a_edge26_Node000015_Node000005"><a xlink:title=" ">
<path fill="none" stroke="#63b8ff" d="M739.96,-308.56C627.09,-303.6 380.51,-290.34 163.63,-261.12"/>
<polygon fill="#63b8ff" stroke="#63b8ff" points="164.03,-257.65 153.65,-259.77 163.09,-264.58 164.03,-257.65"/>
</a>
</g>
</g>
<!-- Node15&#45;&gt;Node10 -->
<g id="edge37_Node000015_Node000010" class="edge">
<title>Node15&#45;&gt;Node10</title>
<g id="a_edge37_Node000015_Node000010"><a xlink:title=" ">
<path fill="none" stroke="#63b8ff" d="M864.06,-307.11C965.06,-300.15 1155.8,-284.08 1176,-261 1260.67,-164.25 1026.65,-133.95 891.05,-124.59"/>
<polygon fill="#63b8ff" stroke="#63b8ff" points="891.28,-121.1 881.07,-123.93 890.81,-128.08 891.28,-121.1"/>
</a>
</g>
</g>
<!-- Node16 -->
<g id="Node000016" class="node">
<title>Node16</title>
<g id="a_Node000016"><a xlink:title=" ">
<polygon fill="#e0e0e0" stroke="#999999" points="1329.5,-255.5 1224.5,-255.5 1224.5,-236.5 1329.5,-236.5 1329.5,-255.5"/>
<text text-anchor="middle" x="1277" y="-243.5" font-family="Helvetica,sans-Serif" font-size="10.00">gtest/gtest_prod.h</text>
</a>
</g>
</g>
<!-- Node15&#45;&gt;Node16 -->
<g id="edge18_Node000015_Node000016" class="edge">
<title>Node15&#45;&gt;Node16</title>
<g id="a_edge18_Node000015_Node000016"><a xlink:title=" ">
<path fill="none" stroke="#63b8ff" d="M864.1,-305.03C944.28,-296.95 1088.02,-281.18 1210,-261 1216.15,-259.98 1222.6,-258.79 1228.97,-257.54"/>
<polygon fill="#63b8ff" stroke="#63b8ff" points="1229.73,-260.96 1238.84,-255.55 1228.34,-254.1 1229.73,-260.96"/>
</a>
</g>
</g>
<!-- Node17 -->
<g id="Node000017" class="node">
<title>Node17</title>
<g id="a_Node000017"><a xlink:title=" ">
<polygon fill="#e0e0e0" stroke="#999999" points="236.5,-255.5 171.5,-255.5 171.5,-236.5 236.5,-236.5 236.5,-255.5"/>
<text text-anchor="middle" x="204" y="-243.5" font-family="Helvetica,sans-Serif" font-size="10.00">functional</text>
</a>
</g>
</g>
<!-- Node15&#45;&gt;Node17 -->
<g id="edge19_Node000015_Node000017" class="edge">
<title>Node15&#45;&gt;Node17</title>
<g id="a_edge19_Node000015_Node000017"><a xlink:title=" ">
<path fill="none" stroke="#63b8ff" d="M739.88,-309.38C637.25,-305.82 426.21,-294.7 251,-261 247.27,-260.28 243.41,-259.39 239.58,-258.4"/>
<polygon fill="#63b8ff" stroke="#63b8ff" points="240.2,-254.94 229.63,-255.64 238.33,-261.69 240.2,-254.94"/>
</a>
</g>
</g>
<!-- Node18 -->
<g id="Node000018" class="node">
<title>Node18</title>
<g id="a_Node000018"><a xlink:title=" ">
<polygon fill="#e0e0e0" stroke="#999999" points="351,-255.5 293,-255.5 293,-236.5 351,-236.5 351,-255.5"/>
<text text-anchor="middle" x="322" y="-243.5" font-family="Helvetica,sans-Serif" font-size="10.00">memory</text>
</a>
</g>
</g>
<!-- Node15&#45;&gt;Node18 -->
<g id="edge20_Node000015_Node000018" class="edge">
<title>Node15&#45;&gt;Node18</title>
<g id="a_edge20_Node000015_Node000018"><a xlink:title=" ">
<path fill="none" stroke="#63b8ff" d="M739.7,-308.66C653.38,-304.37 493,-292.54 360,-261 357.49,-260.4 354.91,-259.69 352.34,-258.91"/>
<polygon fill="#63b8ff" stroke="#63b8ff" points="353.22,-255.51 342.63,-255.62 350.98,-262.14 353.22,-255.51"/>
</a>
</g>
</g>
<!-- Node19 -->
<g id="Node000019" class="node">
<title>Node19</title>
<g id="a_Node000019"><a xlink:title=" ">
<polygon fill="#e0e0e0" stroke="#999999" points="426.5,-255.5 369.5,-255.5 369.5,-236.5 426.5,-236.5 426.5,-255.5"/>
<text text-anchor="middle" x="398" y="-243.5" font-family="Helvetica,sans-Serif" font-size="10.00">typeinfo</text>
</a>
</g>
</g>
<!-- Node15&#45;&gt;Node19 -->
<g id="edge22_Node000015_Node000019" class="edge">
<title>Node15&#45;&gt;Node19</title>
<g id="a_edge22_Node000015_Node000019"><a xlink:title=" ">
<path fill="none" stroke="#63b8ff" d="M739.82,-306.84C666.16,-300.92 540.18,-287.7 435,-261 432.55,-260.38 430.05,-259.65 427.55,-258.85"/>
<polygon fill="#63b8ff" stroke="#63b8ff" points="428.69,-255.54 418.09,-255.55 426.38,-262.15 428.69,-255.54"/>
</a>
</g>
</g>
<!-- Node20 -->
<g id="Node000020" class="node">
<title>Node20</title>
<g id="a_Node000020"><a xlink:title=" ">
<polygon fill="#e0e0e0" stroke="#999999" points="575.5,-261 444.5,-261 444.5,-231 575.5,-231 575.5,-261"/>
<text text-anchor="start" x="452.5" y="-249" font-family="Helvetica,sans-Serif" font-size="10.00">custom_interfaces/msg</text>
<text text-anchor="middle" x="510" y="-238" font-family="Helvetica,sans-Serif" font-size="10.00">/cone_array.hpp</text>
</a>
</g>
</g>
<!-- Node15&#45;&gt;Node20 -->
<g id="edge23_Node000015_Node000020" class="edge">
<title>Node15&#45;&gt;Node20</title>
<g id="a_edge23_Node000015_Node000020"><a xlink:title=" ">
<path fill="none" stroke="#63b8ff" d="M762.92,-302.44C717.33,-292.44 640.94,-275.7 584.02,-263.22"/>
<polygon fill="#63b8ff" stroke="#63b8ff" points="584.51,-259.75 573.99,-261.02 583.01,-266.58 584.51,-259.75"/>
</a>
</g>
</g>
<!-- Node21 -->
<g id="Node000021" class="node">
<title>Node21</title>
<g id="a_Node000021"><a xlink:title=" ">
<polygon fill="#e0e0e0" stroke="#999999" points="724.5,-261 593.5,-261 593.5,-231 724.5,-231 724.5,-261"/>
<text text-anchor="start" x="601.5" y="-249" font-family="Helvetica,sans-Serif" font-size="10.00">custom_interfaces/msg</text>
<text text-anchor="middle" x="659" y="-238" font-family="Helvetica,sans-Serif" font-size="10.00">/point2d.hpp</text>
</a>
</g>
</g>
<!-- Node15&#45;&gt;Node21 -->
<g id="edge24_Node000015_Node000021" class="edge">
<title>Node15&#45;&gt;Node21</title>
<g id="a_edge24_Node000015_Node000021"><a xlink:title=" ">
<path fill="none" stroke="#63b8ff" d="M782.71,-302.37C761.57,-292.91 727.04,-277.45 699.83,-265.27"/>
<polygon fill="#63b8ff" stroke="#63b8ff" points="701.1,-262.01 690.54,-261.12 698.24,-268.4 701.1,-262.01"/>
</a>
</g>
</g>
<!-- Node22 -->
<g id="Node000022" class="node">
<title>Node22</title>
<g id="a_Node000022"><a xlink:title=" ">
<polygon fill="#e0e0e0" stroke="#999999" points="1010.5,-261 879.5,-261 879.5,-231 1010.5,-231 1010.5,-261"/>
<text text-anchor="start" x="887.5" y="-249" font-family="Helvetica,sans-Serif" font-size="10.00">custom_interfaces/msg</text>
<text text-anchor="middle" x="945" y="-238" font-family="Helvetica,sans-Serif" font-size="10.00">/pose.hpp</text>
</a>
</g>
</g>
<!-- Node15&#45;&gt;Node22 -->
<g id="edge25_Node000015_Node000022" class="edge">
<title>Node15&#45;&gt;Node22</title>
<g id="a_edge25_Node000015_Node000022"><a xlink:title=" ">
<path fill="none" stroke="#63b8ff" d="M821.29,-302.37C842.43,-292.91 876.96,-277.45 904.17,-265.27"/>
<polygon fill="#63b8ff" stroke="#63b8ff" points="905.76,-268.4 913.46,-261.12 902.9,-262.01 905.76,-268.4"/>
</a>
</g>
</g>
<!-- Node23 -->
<g id="Node000023" class="node">
<title>Node23</title>
<g id="a_Node000023"><a xlink:href="ekf_8hpp.html" target="_top" xlink:title=" ">
<polygon fill="white" stroke="#666666" points="861.5,-255.5 742.5,-255.5 742.5,-236.5 861.5,-236.5 861.5,-255.5"/>
<text text-anchor="middle" x="802" y="-243.5" font-family="Helvetica,sans-Serif" font-size="10.00">kalman_filter/ekf.hpp</text>
</a>
</g>
</g>
<!-- Node15&#45;&gt;Node23 -->
<g id="edge27_Node000015_Node000023" class="edge">
<title>Node15&#45;&gt;Node23</title>
<g id="a_edge27_Node000015_Node000023"><a xlink:title=" ">
<path fill="none" stroke="#63b8ff" d="M802,-302.37C802,-293.16 802,-278.29 802,-266.27"/>
<polygon fill="#63b8ff" stroke="#63b8ff" points="805.5,-265.91 802,-255.91 798.5,-265.91 805.5,-265.91"/>
</a>
</g>
</g>
<!-- Node15&#45;&gt;Node28 -->
<g id="edge38_Node000015_Node000028" class="edge">
<title>Node15&#45;&gt;Node28</title>
<g id="a_edge38_Node000015_Node000028"><a xlink:title=" ">
<path fill="none" stroke="#63b8ff" d="M864.26,-308.03C964.55,-302.6 1167.85,-288.98 1338,-261 1343.45,-260.1 1349.15,-258.99 1354.76,-257.77"/>
<polygon fill="#63b8ff" stroke="#63b8ff" points="1355.73,-261.15 1364.71,-255.52 1354.18,-254.32 1355.73,-261.15"/>
</a>
</g>
</g>
<!-- Node15&#45;&gt;Node29 -->
<g id="edge39_Node000015_Node000029" class="edge">
<title>Node15&#45;&gt;Node29</title>
<g id="a_edge39_Node000015_Node000029"><a xlink:title=" ">
<path fill="none" stroke="#63b8ff" d="M864.31,-308.11C980.69,-302.31 1238.88,-287.45 1455,-261 1463.75,-259.93 1472.98,-258.59 1481.98,-257.16"/>
<polygon fill="#63b8ff" stroke="#63b8ff" points="1482.71,-260.59 1492.01,-255.52 1481.58,-253.68 1482.71,-260.59"/>
</a>
</g>
</g>
<!-- Node30 -->
<g id="Node000030" class="node">
<title>Node30</title>
<g id="a_Node000030"><a xlink:title=" ">
<polygon fill="#e0e0e0" stroke="#999999" points="1167.5,-255.5 1028.5,-255.5 1028.5,-236.5 1167.5,-236.5 1167.5,-255.5"/>
<text text-anchor="middle" x="1098" y="-243.5" font-family="Helvetica,sans-Serif" font-size="10.00">std_msgs/msg/string.hpp</text>
</a>
</g>
</g>
<!-- Node15&#45;&gt;Node30 -->
<g id="edge40_Node000015_Node000030" class="edge">
<title>Node15&#45;&gt;Node30</title>
<g id="a_edge40_Node000015_Node000030"><a xlink:title=" ">
<path fill="none" stroke="#63b8ff" d="M841.61,-302.44C895.11,-290.87 990.44,-270.26 1048.57,-257.69"/>
<polygon fill="#63b8ff" stroke="#63b8ff" points="1049.59,-261.05 1058.62,-255.51 1048.11,-254.21 1049.59,-261.05"/>
</a>
</g>
</g>
<!-- Node23&#45;&gt;Node10 -->
<g id="edge36_Node000023_Node000010" class="edge">
<title>Node23&#45;&gt;Node10</title>
<g id="a_edge36_Node000023_Node000010"><a xlink:title=" ">
<path fill="none" stroke="#63b8ff" d="M827.66,-236.42C846.14,-228.74 869.73,-215.48 881,-195 887.43,-183.32 887.73,-176.51 881,-165 872.32,-150.14 856.65,-139.86 841.54,-132.95"/>
<polygon fill="#63b8ff" stroke="#63b8ff" points="842.85,-129.71 832.27,-129.08 840.15,-136.17 842.85,-129.71"/>
</a>
</g>
</g>
<!-- Node24 -->
<g id="Node000024" class="node">
<title>Node24</title>
<g id="a_Node000024"><a xlink:title=" ">
<polygon fill="#e0e0e0" stroke="#999999" points="692.5,-129 615.5,-129 615.5,-110 692.5,-110 692.5,-129"/>
<text text-anchor="middle" x="654" y="-117" font-family="Helvetica,sans-Serif" font-size="10.00">Eigen/Dense</text>
</a>
</g>
</g>
<!-- Node23&#45;&gt;Node24 -->
<g id="edge28_Node000023_Node000024" class="edge">
<title>Node23&#45;&gt;Node24</title>
<g id="a_edge28_Node000023_Node000024"><a xlink:title=" ">
<path fill="none" stroke="#63b8ff" d="M762.01,-236.4C700.34,-223.04 588.77,-198.48 586,-195 577.7,-184.56 579.66,-176.73 586,-165 593.58,-150.98 607.7,-140.67 621.13,-133.53"/>
<polygon fill="#63b8ff" stroke="#63b8ff" points="622.77,-136.62 630.22,-129.08 619.7,-130.33 622.77,-136.62"/>
</a>
</g>
</g>
<!-- Node25 -->
<g id="Node000025" class="node">
<title>Node25</title>
<g id="a_Node000025"><a xlink:title=" ">
<polygon fill="#e0e0e0" stroke="#999999" points="976.5,-189.5 929.5,-189.5 929.5,-170.5 976.5,-170.5 976.5,-189.5"/>
<text text-anchor="middle" x="953" y="-177.5" font-family="Helvetica,sans-Serif" font-size="10.00">vector</text>
</a>
</g>
</g>
<!-- Node23&#45;&gt;Node25 -->
<g id="edge29_Node000023_Node000025" class="edge">
<title>Node23&#45;&gt;Node25</title>
<g id="a_edge29_Node000023_Node000025"><a xlink:title=" ">
<path fill="none" stroke="#63b8ff" d="M822.36,-236.37C848.26,-225.39 893.17,-206.36 922.99,-193.72"/>
<polygon fill="#63b8ff" stroke="#63b8ff" points="924.63,-196.82 932.48,-189.7 921.9,-190.38 924.63,-196.82"/>
</a>
</g>
</g>
<!-- Node26 -->
<g id="Node000026" class="node">
<title>Node26</title>
<g id="a_Node000026"><a xlink:href="motion__models_8hpp.html" target="_top" xlink:title=" ">
<polygon fill="white" stroke="#666666" points="713,-195 595,-195 595,-165 713,-165 713,-195"/>
<text text-anchor="start" x="603" y="-183" font-family="Helvetica,sans-Serif" font-size="10.00">kalman_filter/motion</text>
<text text-anchor="middle" x="654" y="-172" font-family="Helvetica,sans-Serif" font-size="10.00">_models.hpp</text>
</a>
</g>
</g>
<!-- Node23&#45;&gt;Node26 -->
<g id="edge30_Node000023_Node000026" class="edge">
<title>Node23&#45;&gt;Node26</title>
<g id="a_edge30_Node000023_Node000026"><a xlink:title=" ">
<path fill="none" stroke="#63b8ff" d="M782.04,-236.37C760.06,-226.87 724.11,-211.32 695.89,-199.11"/>
<polygon fill="#63b8ff" stroke="#63b8ff" points="697.21,-195.87 686.64,-195.12 694.43,-202.3 697.21,-195.87"/>
</a>
</g>
</g>
<!-- Node27 -->
<g id="Node000027" class="node">
<title>Node27</title>
<g id="a_Node000027"><a xlink:href="observation__models_8hpp.html" target="_top" xlink:title=" ">
<polygon fill="white" stroke="#666666" points="872.5,-195 731.5,-195 731.5,-165 872.5,-165 872.5,-195"/>
<text text-anchor="start" x="739.5" y="-183" font-family="Helvetica,sans-Serif" font-size="10.00">kalman_filter/observation</text>
<text text-anchor="middle" x="802" y="-172" font-family="Helvetica,sans-Serif" font-size="10.00">_models.hpp</text>
</a>
</g>
</g>
<!-- Node23&#45;&gt;Node27 -->
<g id="edge33_Node000023_Node000027" class="edge">
<title>Node23&#45;&gt;Node27</title>
<g id="a_edge33_Node000023_Node000027"><a xlink:title=" ">
<path fill="none" stroke="#63b8ff" d="M802,-236.37C802,-228.49 802,-216.45 802,-205.6"/>
<polygon fill="#63b8ff" stroke="#63b8ff" points="805.5,-205.36 802,-195.36 798.5,-205.36 805.5,-205.36"/>
</a>
</g>
</g>
<!-- Node26&#45;&gt;Node10 -->
<g id="edge32_Node000026_Node000010" class="edge">
<title>Node26&#45;&gt;Node10</title>
<g id="a_edge32_Node000026_Node000010"><a xlink:title=" ">
<path fill="none" stroke="#63b8ff" d="M689.45,-164.99C714.14,-155.23 746.78,-142.33 770.55,-132.93"/>
<polygon fill="#63b8ff" stroke="#63b8ff" points="772.13,-136.07 780.14,-129.14 769.56,-129.56 772.13,-136.07"/>
</a>
</g>
</g>
<!-- Node26&#45;&gt;Node24 -->
<g id="edge31_Node000026_Node000024" class="edge">
<title>Node26&#45;&gt;Node24</title>
<g id="a_edge31_Node000026_Node000024"><a xlink:title=" ">
<path fill="none" stroke="#63b8ff" d="M654,-164.84C654,-157.21 654,-147.7 654,-139.45"/>
<polygon fill="#63b8ff" stroke="#63b8ff" points="657.5,-139.27 654,-129.27 650.5,-139.27 657.5,-139.27"/>
</a>
</g>
</g>
<!-- Node27&#45;&gt;Node10 -->
<g id="edge35_Node000027_Node000010" class="edge">
<title>Node27&#45;&gt;Node10</title>
<g id="a_edge35_Node000027_Node000010"><a xlink:title=" ">
<path fill="none" stroke="#63b8ff" d="M802,-164.84C802,-157.21 802,-147.7 802,-139.45"/>
<polygon fill="#63b8ff" stroke="#63b8ff" points="805.5,-139.27 802,-129.27 798.5,-139.27 805.5,-139.27"/>
</a>
</g>
</g>
<!-- Node27&#45;&gt;Node24 -->
<g id="edge34_Node000027_Node000024" class="edge">
<title>Node27&#45;&gt;Node24</title>
<g id="a_edge34_Node000027_Node000024"><a xlink:title=" ">
<path fill="none" stroke="#63b8ff" d="M766.55,-164.99C741.86,-155.23 709.22,-142.33 685.45,-132.93"/>
<polygon fill="#63b8ff" stroke="#63b8ff" points="686.44,-129.56 675.86,-129.14 683.87,-136.07 686.44,-129.56"/>
</a>
</g>
</g>
</g>
</svg>

<g id="navigator" transform="translate(0 0)" fill="#404254">
  <rect fill="#f2f5e9" fill-opacity="0.5" stroke="#606060" stroke-width=".5" x="0" y="0" width="60" height="60"/>
  <use id="zoomplus" xlink:href="#zoomPlus" x="17" y="9" onmousedown="handleZoom(evt,'in')"/>
  <use id="zoomminus" xlink:href="#zoomMin" x="42" y="9" onmousedown="handleZoom(evt,'out')"/>
  <use id="reset" xlink:href="#resetDef" x="30" y="36" onmousedown="handleReset()"/>
   <use id="arrowup" xlink:href="#arrowUp" x="0" y="0" onmousedown="handlePan(0,-1)"/>
  <use id="arrowright" xlink:href="#arrowRight" x="0" y="0" onmousedown="handlePan(1,0)"/>
  <use id="arrowdown" xlink:href="#arrowDown" x="0" y="0" onmousedown="handlePan(0,1)"/>
  <use id="arrowleft" xlink:href="#arrowLeft" x="0" y="0" onmousedown="handlePan(-1,0)"/>
</g>
<svg viewBox="0 0 15 15" width="100%" height="30px" preserveAspectRatio="xMaxYMin meet">
 <g id="arrow_out" transform="scale(0.3 0.3)">
  <a xlink:href="adapter_8cpp__incl_org.svg" target="_base">
   <rect id="button" ry="5" rx="5" y="6" x="6" height="38" width="38"
        fill="#f2f5e9" fill-opacity="0.5" stroke="#606060" stroke-width="1.0"/>
   <path id="arrow"
     d="M 11.500037,31.436501 C 11.940474,20.09759 22.043105,11.32322 32.158766,21.979434 L 37.068811,17.246167 C 37.068811,17.246167 37.088388,32 37.088388,32 L 22.160133,31.978069 C 22.160133,31.978069 26.997745,27.140456 26.997745,27.140456 C 18.528582,18.264221 13.291696,25.230495 11.500037,31.436501 z"
     style="fill:#404040;"/>
  </a>
 </g>
</svg>

<style type='text/css'>
<![CDATA[
[data-mouse-over-selected='false'] { opacity: 0.7; }
[data-mouse-over-selected='true']  { opacity: 1.0; }
]]>
</style>
<script type="application/ecmascript"><![CDATA[
document.addEventListener('DOMContentLoaded', (event) => {
  highlightEdges();
  highlightAdjacentNodes();
});
]]></script>
</svg>
