<?xml version="1.0" encoding="UTF-8" standalone="no"?>
<!DOCTYPE svg PUBLIC "-//W3C//DTD SVG 1.1//EN"
 "http://www.w3.org/Graphics/SVG/1.1/DTD/svg11.dtd">
<!-- Generated by graphviz version 2.43.0 (0)
 -->
<!-- Title: loc_map/src/adapter/adapter.cpp Pages: 1 -->
<svg width="2250pt" height="464pt"
 viewBox="0.00 0.00 2249.50 464.00" xmlns="http://www.w3.org/2000/svg" xmlns:xlink="http://www.w3.org/1999/xlink">
<g id="graph0" class="graph" transform="scale(1 1) rotate(0) translate(4 460)">
<title>loc_map/src/adapter/adapter.cpp</title>
<polygon fill="white" stroke="transparent" points="-4,4 -4,-460 2245.5,-460 2245.5,4 -4,4"/>
<!-- Node1 -->
<g id="node1" class="node">
<title>Node1</title>
<g id="a_node1"><a xlink:title=" ">
<polygon fill="#bfbfbf" stroke="black" points="1411.5,-425.5 1411.5,-455.5 1516.5,-455.5 1516.5,-425.5 1411.5,-425.5"/>
<text text-anchor="start" x="1419.5" y="-443.5" font-family="Helvetica,sans-Serif" font-size="10.00">loc_map/src/adapter</text>
<text text-anchor="middle" x="1464" y="-432.5" font-family="Helvetica,sans-Serif" font-size="10.00">/adapter.cpp</text>
</a>
</g>
</g>
<!-- Node2 -->
<g id="node2" class="node">
<title>Node2</title>
<g id="a_node2"><a xlink:href="adapter_8hpp.html" target="_top" xlink:title=" ">
<polygon fill="white" stroke="black" points="1413,-369.5 1413,-388.5 1515,-388.5 1515,-369.5 1413,-369.5"/>
<text text-anchor="middle" x="1464" y="-376.5" font-family="Helvetica,sans-Serif" font-size="10.00">adapter/adapter.hpp</text>
</a>
</g>
</g>
<!-- Node1&#45;&gt;Node2 -->
<g id="edge1" class="edge">
<title>Node1&#45;&gt;Node2</title>
<path fill="none" stroke="midnightblue" d="M1464,-425.4C1464,-417.47 1464,-407.46 1464,-398.86"/>
<polygon fill="midnightblue" stroke="midnightblue" points="1467.5,-398.66 1464,-388.66 1460.5,-398.66 1467.5,-398.66"/>
</g>
<!-- Node3 -->
<g id="node3" class="node">
<title>Node3</title>
<g id="a_node3"><a xlink:title=" ">
<polygon fill="white" stroke="#bfbfbf" points="294.5,-0.5 294.5,-19.5 335.5,-19.5 335.5,-0.5 294.5,-0.5"/>
<text text-anchor="middle" x="315" y="-7.5" font-family="Helvetica,sans-Serif" font-size="10.00">string</text>
</a>
</g>
</g>
<!-- Node2&#45;&gt;Node3 -->
<g id="edge2" class="edge">
<title>Node2&#45;&gt;Node3</title>
<path fill="none" stroke="midnightblue" d="M1412.78,-378.24C1258.77,-378.46 786.54,-375.35 398,-333 218.5,-313.43 0,-432.06 0,-251.5 0,-251.5 0,-251.5 0,-121 0,-61.25 204.56,-26.37 283.99,-15.07"/>
<polygon fill="midnightblue" stroke="midnightblue" points="284.91,-18.48 294.33,-13.64 283.95,-11.54 284.91,-18.48"/>
</g>
<!-- Node4 -->
<g id="node4" class="node">
<title>Node4</title>
<g id="a_node4"><a xlink:title=" ">
<polygon fill="white" stroke="#bfbfbf" points="1492.5,-308 1492.5,-327 1643.5,-327 1643.5,-308 1492.5,-308"/>
<text text-anchor="middle" x="1568" y="-315" font-family="Helvetica,sans-Serif" font-size="10.00">eufs_msgs/msg/can_state.hpp</text>
</a>
</g>
</g>
<!-- Node2&#45;&gt;Node4 -->
<g id="edge3" class="edge">
<title>Node2&#45;&gt;Node4</title>
<path fill="none" stroke="midnightblue" d="M1478.9,-369.48C1495.97,-359.71 1524.16,-343.58 1544.26,-332.08"/>
<polygon fill="midnightblue" stroke="midnightblue" points="1546.19,-335.01 1553.13,-327.01 1542.71,-328.94 1546.19,-335.01"/>
</g>
<!-- Node5 -->
<g id="node5" class="node">
<title>Node5</title>
<g id="a_node5"><a xlink:title=" ">
<polygon fill="white" stroke="#bfbfbf" points="28.5,-235.5 28.5,-265.5 143.5,-265.5 143.5,-235.5 28.5,-235.5"/>
<text text-anchor="start" x="36.5" y="-253.5" font-family="Helvetica,sans-Serif" font-size="10.00">eufs_msgs/msg/wheel</text>
<text text-anchor="middle" x="86" y="-242.5" font-family="Helvetica,sans-Serif" font-size="10.00">_speeds_stamped.hpp</text>
</a>
</g>
</g>
<!-- Node2&#45;&gt;Node5 -->
<g id="edge4" class="edge">
<title>Node2&#45;&gt;Node5</title>
<path fill="none" stroke="midnightblue" d="M1412.94,-376.8C1237.9,-372.03 646.16,-350.4 153.69,-266.21"/>
<polygon fill="midnightblue" stroke="midnightblue" points="153.98,-262.71 143.53,-264.46 152.79,-269.6 153.98,-262.71"/>
</g>
<!-- Node6 -->
<g id="node6" class="node">
<title>Node6</title>
<g id="a_node6"><a xlink:title=" ">
<polygon fill="white" stroke="#bfbfbf" points="1661.5,-302.5 1661.5,-332.5 1780.5,-332.5 1780.5,-302.5 1661.5,-302.5"/>
<text text-anchor="start" x="1669.5" y="-320.5" font-family="Helvetica,sans-Serif" font-size="10.00">eufs_msgs/srv/set_can</text>
<text text-anchor="middle" x="1721" y="-309.5" font-family="Helvetica,sans-Serif" font-size="10.00">_state.hpp</text>
</a>
</g>
</g>
<!-- Node2&#45;&gt;Node6 -->
<g id="edge5" class="edge">
<title>Node2&#45;&gt;Node6</title>
<path fill="none" stroke="midnightblue" d="M1500.82,-369.48C1540.04,-360.4 1603.02,-345.81 1651.6,-334.57"/>
<polygon fill="midnightblue" stroke="midnightblue" points="1652.47,-337.96 1661.42,-332.29 1650.89,-331.14 1652.47,-337.96"/>
</g>
<!-- Node7 -->
<g id="node7" class="node">
<title>Node7</title>
<g id="a_node7"><a xlink:title=" ">
<polygon fill="white" stroke="#bfbfbf" points="1798.5,-302.5 1798.5,-332.5 1911.5,-332.5 1911.5,-302.5 1798.5,-302.5"/>
<text text-anchor="start" x="1806.5" y="-320.5" font-family="Helvetica,sans-Serif" font-size="10.00">fs_msgs/msg/finished</text>
<text text-anchor="middle" x="1855" y="-309.5" font-family="Helvetica,sans-Serif" font-size="10.00">_signal.hpp</text>
</a>
</g>
</g>
<!-- Node2&#45;&gt;Node7 -->
<g id="edge6" class="edge">
<title>Node2&#45;&gt;Node7</title>
<path fill="none" stroke="midnightblue" d="M1515.03,-372.27C1577.36,-364.99 1686.22,-351.32 1788.46,-333.2"/>
<polygon fill="midnightblue" stroke="midnightblue" points="1789.11,-336.64 1798.34,-331.43 1787.87,-329.75 1789.11,-336.64"/>
</g>
<!-- Node8 -->
<g id="node8" class="node">
<title>Node8</title>
<g id="a_node8"><a xlink:title=" ">
<polygon fill="white" stroke="#bfbfbf" points="1929.5,-308 1929.5,-327 2068.5,-327 2068.5,-308 1929.5,-308"/>
<text text-anchor="middle" x="1999" y="-315" font-family="Helvetica,sans-Serif" font-size="10.00">fs_msgs/msg/go_signal.hpp</text>
</a>
</g>
</g>
<!-- Node2&#45;&gt;Node8 -->
<g id="edge7" class="edge">
<title>Node2&#45;&gt;Node8</title>
<path fill="none" stroke="midnightblue" d="M1515.23,-374.39C1599.93,-368.11 1774.38,-353.81 1921,-333 1929.33,-331.82 1938.13,-330.37 1946.69,-328.86"/>
<polygon fill="midnightblue" stroke="midnightblue" points="1947.39,-332.29 1956.6,-327.06 1946.14,-325.4 1947.39,-332.29"/>
</g>
<!-- Node9 -->
<g id="node9" class="node">
<title>Node9</title>
<g id="a_node9"><a xlink:title=" ">
<polygon fill="white" stroke="#bfbfbf" points="2086.5,-308 2086.5,-327 2241.5,-327 2241.5,-308 2086.5,-308"/>
<text text-anchor="middle" x="2164" y="-315" font-family="Helvetica,sans-Serif" font-size="10.00">fs_msgs/msg/wheel_states.hpp</text>
</a>
</g>
</g>
<!-- Node2&#45;&gt;Node9 -->
<g id="edge8" class="edge">
<title>Node2&#45;&gt;Node9</title>
<path fill="none" stroke="midnightblue" d="M1515.1,-375.88C1620.59,-371.14 1870.02,-358.1 2078,-333 2087.81,-331.82 2098.2,-330.29 2108.25,-328.68"/>
<polygon fill="midnightblue" stroke="midnightblue" points="2108.85,-332.13 2118.14,-327.05 2107.71,-325.22 2108.85,-332.13"/>
</g>
<!-- Node10 -->
<g id="node10" class="node">
<title>Node10</title>
<g id="a_node10"><a xlink:href="data__structures_8hpp.html" target="_top" xlink:title=" ">
<polygon fill="white" stroke="black" points="672.5,-112.5 672.5,-131.5 815.5,-131.5 815.5,-112.5 672.5,-112.5"/>
<text text-anchor="middle" x="744" y="-119.5" font-family="Helvetica,sans-Serif" font-size="10.00">loc_map/data_structures.hpp</text>
</a>
</g>
</g>
<!-- Node2&#45;&gt;Node10 -->
<g id="edge9" class="edge">
<title>Node2&#45;&gt;Node10</title>
<path fill="none" stroke="midnightblue" d="M1465.66,-369.39C1468.55,-355.11 1475.05,-325.75 1484,-302 1490.31,-285.26 1497.89,-283.41 1502,-266 1505.17,-252.59 1510.95,-245.47 1502,-235 1415.77,-134.14 1003.59,-122.46 825.86,-122.22"/>
<polygon fill="midnightblue" stroke="midnightblue" points="825.78,-118.72 815.78,-122.22 825.78,-125.72 825.78,-118.72"/>
</g>
<!-- Node15 -->
<g id="node15" class="node">
<title>Node15</title>
<g id="a_node15"><a xlink:href="lm__node_8hpp.html" target="_top" xlink:title=" ">
<polygon fill="white" stroke="black" points="688,-308 688,-327 800,-327 800,-308 688,-308"/>
<text text-anchor="middle" x="744" y="-315" font-family="Helvetica,sans-Serif" font-size="10.00">loc_map/lm_node.hpp</text>
</a>
</g>
</g>
<!-- Node2&#45;&gt;Node15 -->
<g id="edge17" class="edge">
<title>Node2&#45;&gt;Node15</title>
<path fill="none" stroke="midnightblue" d="M1412.8,-373.77C1285.15,-363.22 952.89,-335.76 810.43,-323.99"/>
<polygon fill="midnightblue" stroke="midnightblue" points="810.35,-320.47 800.1,-323.14 809.78,-327.45 810.35,-320.47"/>
</g>
<!-- Node28 -->
<g id="node28" class="node">
<title>Node28</title>
<g id="a_node28"><a xlink:title=" ">
<polygon fill="white" stroke="#bfbfbf" points="1249.5,-241 1249.5,-260 1340.5,-260 1340.5,-241 1249.5,-241"/>
<text text-anchor="middle" x="1295" y="-248" font-family="Helvetica,sans-Serif" font-size="10.00">rclcpp/rclcpp.hpp</text>
</a>
</g>
</g>
<!-- Node2&#45;&gt;Node28 -->
<g id="edge41" class="edge">
<title>Node2&#45;&gt;Node28</title>
<path fill="none" stroke="midnightblue" d="M1452.38,-369.31C1423.92,-348 1350.44,-293 1314.87,-266.38"/>
<polygon fill="midnightblue" stroke="midnightblue" points="1316.8,-263.45 1306.7,-260.26 1312.61,-269.05 1316.8,-263.45"/>
</g>
<!-- Node29 -->
<g id="node29" class="node">
<title>Node29</title>
<g id="a_node29"><a xlink:title=" ">
<polygon fill="white" stroke="#bfbfbf" points="1359,-241 1359,-260 1493,-260 1493,-241 1359,-241"/>
<text text-anchor="middle" x="1426" y="-248" font-family="Helvetica,sans-Serif" font-size="10.00">sensor_msgs/msg/imu.hpp</text>
</a>
</g>
</g>
<!-- Node2&#45;&gt;Node29 -->
<g id="edge42" class="edge">
<title>Node2&#45;&gt;Node29</title>
<path fill="none" stroke="midnightblue" d="M1461.28,-369.39C1458.43,-360.34 1453.84,-345.69 1450,-333 1443.47,-311.44 1436.19,-286.59 1431.38,-270.05"/>
<polygon fill="midnightblue" stroke="midnightblue" points="1434.63,-268.71 1428.48,-260.08 1427.91,-270.66 1434.63,-268.71"/>
</g>
<!-- Node10&#45;&gt;Node3 -->
<g id="edge12" class="edge">
<title>Node10&#45;&gt;Node3</title>
<path fill="none" stroke="midnightblue" d="M697.82,-112.48C654.29,-104.18 587.38,-90.68 530,-76 463.48,-58.98 386.75,-34.63 345.33,-21.07"/>
<polygon fill="midnightblue" stroke="midnightblue" points="346.18,-17.67 335.59,-17.87 344,-24.32 346.18,-17.67"/>
</g>
<!-- Node11 -->
<g id="node11" class="node">
<title>Node11</title>
<g id="a_node11"><a xlink:title=" ">
<polygon fill="white" stroke="#bfbfbf" points="539,-56.5 539,-75.5 585,-75.5 585,-56.5 539,-56.5"/>
<text text-anchor="middle" x="562" y="-63.5" font-family="Helvetica,sans-Serif" font-size="10.00">chrono</text>
</a>
</g>
</g>
<!-- Node10&#45;&gt;Node11 -->
<g id="edge10" class="edge">
<title>Node10&#45;&gt;Node11</title>
<path fill="none" stroke="midnightblue" d="M715.16,-112.44C682.55,-102.77 629.54,-87.04 595.22,-76.86"/>
<polygon fill="midnightblue" stroke="midnightblue" points="595.8,-73.38 585.22,-73.89 593.81,-80.09 595.8,-73.38"/>
</g>
<!-- Node12 -->
<g id="node12" class="node">
<title>Node12</title>
<g id="a_node12"><a xlink:title=" ">
<polygon fill="white" stroke="#bfbfbf" points="711.5,-0.5 711.5,-19.5 746.5,-19.5 746.5,-0.5 711.5,-0.5"/>
<text text-anchor="middle" x="729" y="-7.5" font-family="Helvetica,sans-Serif" font-size="10.00">map</text>
</a>
</g>
</g>
<!-- Node10&#45;&gt;Node12 -->
<g id="edge11" class="edge">
<title>Node10&#45;&gt;Node12</title>
<path fill="none" stroke="midnightblue" d="M760.47,-112.38C780.5,-100.66 810.23,-78.57 798,-56 789.12,-39.6 771.37,-28.23 756.1,-21.02"/>
<polygon fill="midnightblue" stroke="midnightblue" points="757.11,-17.64 746.55,-16.87 754.33,-24.07 757.11,-17.64"/>
</g>
<!-- Node13 -->
<g id="node13" class="node">
<title>Node13</title>
<g id="a_node13"><a xlink:href="color_8hpp.html" target="_top" xlink:title=" ">
<polygon fill="white" stroke="black" points="603.5,-56.5 603.5,-75.5 680.5,-75.5 680.5,-56.5 603.5,-56.5"/>
<text text-anchor="middle" x="642" y="-63.5" font-family="Helvetica,sans-Serif" font-size="10.00">utils/color.hpp</text>
</a>
</g>
</g>
<!-- Node10&#45;&gt;Node13 -->
<g id="edge13" class="edge">
<title>Node10&#45;&gt;Node13</title>
<path fill="none" stroke="midnightblue" d="M727.61,-112.32C711.33,-103.7 686.13,-90.36 667.28,-80.39"/>
<polygon fill="midnightblue" stroke="midnightblue" points="668.82,-77.24 658.35,-75.65 665.55,-83.43 668.82,-77.24"/>
</g>
<!-- Node14 -->
<g id="node14" class="node">
<title>Node14</title>
<g id="a_node14"><a xlink:href="position_8hpp.html" target="_top" xlink:title=" ">
<polygon fill="white" stroke="black" points="699,-56.5 699,-75.5 789,-75.5 789,-56.5 699,-56.5"/>
<text text-anchor="middle" x="744" y="-63.5" font-family="Helvetica,sans-Serif" font-size="10.00">utils/position.hpp</text>
</a>
</g>
</g>
<!-- Node10&#45;&gt;Node14 -->
<g id="edge16" class="edge">
<title>Node10&#45;&gt;Node14</title>
<path fill="none" stroke="midnightblue" d="M744,-112.08C744,-105.01 744,-94.86 744,-85.99"/>
<polygon fill="midnightblue" stroke="midnightblue" points="747.5,-85.75 744,-75.75 740.5,-85.75 747.5,-85.75"/>
</g>
<!-- Node13&#45;&gt;Node3 -->
<g id="edge15" class="edge">
<title>Node13&#45;&gt;Node3</title>
<path fill="none" stroke="midnightblue" d="M603.24,-57.65C600.12,-57.08 597.01,-56.52 594,-56 503.98,-40.3 397.26,-23.63 345.8,-15.71"/>
<polygon fill="midnightblue" stroke="midnightblue" points="346.1,-12.21 335.68,-14.15 345.03,-19.13 346.1,-12.21"/>
</g>
<!-- Node13&#45;&gt;Node12 -->
<g id="edge14" class="edge">
<title>Node13&#45;&gt;Node12</title>
<path fill="none" stroke="midnightblue" d="M655.98,-56.32C669.55,-47.9 690.38,-34.97 706.32,-25.07"/>
<polygon fill="midnightblue" stroke="midnightblue" points="708.41,-27.9 715.06,-19.65 704.71,-21.95 708.41,-27.9"/>
</g>
<!-- Node15&#45;&gt;Node3 -->
<g id="edge21" class="edge">
<title>Node15&#45;&gt;Node3</title>
<path fill="none" stroke="midnightblue" d="M687.87,-312.28C565.34,-302.84 283.57,-279.76 268,-266 240.13,-241.37 249,-221.69 249,-184.5 249,-184.5 249,-184.5 249,-121 249,-82.86 278.54,-46.52 298.09,-26.64"/>
<polygon fill="midnightblue" stroke="midnightblue" points="300.56,-29.12 305.26,-19.63 295.67,-24.12 300.56,-29.12"/>
</g>
<!-- Node15&#45;&gt;Node5 -->
<g id="edge26" class="edge">
<title>Node15&#45;&gt;Node5</title>
<path fill="none" stroke="midnightblue" d="M687.8,-314.16C584.04,-309.32 355.31,-296.14 153.7,-266.13"/>
<polygon fill="midnightblue" stroke="midnightblue" points="153.92,-262.63 143.51,-264.6 152.88,-269.55 153.92,-262.63"/>
</g>
<!-- Node15&#45;&gt;Node10 -->
<g id="edge37" class="edge">
<title>Node15&#45;&gt;Node10</title>
<path fill="none" stroke="midnightblue" d="M800.28,-316.75C888.11,-315.81 1051.5,-308.25 1088,-266 1166.34,-175.31 951.07,-140.99 826.16,-128.95"/>
<polygon fill="midnightblue" stroke="midnightblue" points="826.14,-125.43 815.85,-127.98 825.48,-132.4 826.14,-125.43"/>
</g>
<!-- Node16 -->
<g id="node16" class="node">
<title>Node16</title>
<g id="a_node16"><a xlink:title=" ">
<polygon fill="white" stroke="#bfbfbf" points="1136.5,-241 1136.5,-260 1231.5,-260 1231.5,-241 1136.5,-241"/>
<text text-anchor="middle" x="1184" y="-248" font-family="Helvetica,sans-Serif" font-size="10.00">gtest/gtest_prod.h</text>
</a>
</g>
</g>
<!-- Node15&#45;&gt;Node16 -->
<g id="edge18" class="edge">
<title>Node15&#45;&gt;Node16</title>
<path fill="none" stroke="midnightblue" d="M800.31,-310.7C874.4,-302.68 1008.52,-286.8 1122,-266 1127.85,-264.93 1133.98,-263.67 1140.02,-262.34"/>
<polygon fill="midnightblue" stroke="midnightblue" points="1141.04,-265.7 1150.01,-260.07 1139.49,-258.87 1141.04,-265.7"/>
</g>
<!-- Node17 -->
<g id="node17" class="node">
<title>Node17</title>
<g id="a_node17"><a xlink:title=" ">
<polygon fill="white" stroke="#bfbfbf" points="161.5,-241 161.5,-260 220.5,-260 220.5,-241 161.5,-241"/>
<text text-anchor="middle" x="191" y="-248" font-family="Helvetica,sans-Serif" font-size="10.00">functional</text>
</a>
</g>
</g>
<!-- Node15&#45;&gt;Node17 -->
<g id="edge19" class="edge">
<title>Node15&#45;&gt;Node17</title>
<path fill="none" stroke="midnightblue" d="M687.65,-314.94C593.12,-311.43 397.02,-300.3 235,-266 231.32,-265.22 227.52,-264.24 223.76,-263.17"/>
<polygon fill="midnightblue" stroke="midnightblue" points="224.62,-259.77 214.03,-260.14 222.54,-266.45 224.62,-259.77"/>
</g>
<!-- Node18 -->
<g id="node18" class="node">
<title>Node18</title>
<g id="a_node18"><a xlink:title=" ">
<polygon fill="white" stroke="#bfbfbf" points="277,-241 277,-260 329,-260 329,-241 277,-241"/>
<text text-anchor="middle" x="303" y="-248" font-family="Helvetica,sans-Serif" font-size="10.00">memory</text>
</a>
</g>
</g>
<!-- Node15&#45;&gt;Node18 -->
<g id="edge20" class="edge">
<title>Node15&#45;&gt;Node18</title>
<path fill="none" stroke="midnightblue" d="M687.94,-314.29C608.77,-310.09 460.24,-298.29 338,-266 335.55,-265.35 333.05,-264.57 330.56,-263.71"/>
<polygon fill="midnightblue" stroke="midnightblue" points="331.8,-260.44 321.21,-260.13 329.29,-266.98 331.8,-260.44"/>
</g>
<!-- Node19 -->
<g id="node19" class="node">
<title>Node19</title>
<g id="a_node19"><a xlink:title=" ">
<polygon fill="white" stroke="#bfbfbf" points="347.5,-241 347.5,-260 398.5,-260 398.5,-241 347.5,-241"/>
<text text-anchor="middle" x="373" y="-248" font-family="Helvetica,sans-Serif" font-size="10.00">typeinfo</text>
</a>
</g>
</g>
<!-- Node15&#45;&gt;Node19 -->
<g id="edge22" class="edge">
<title>Node15&#45;&gt;Node19</title>
<path fill="none" stroke="midnightblue" d="M687.92,-312.48C620.28,-306.64 503.63,-293.36 407,-266 404.71,-265.35 402.37,-264.59 400.04,-263.75"/>
<polygon fill="midnightblue" stroke="midnightblue" points="401.28,-260.48 390.69,-260.05 398.7,-266.99 401.28,-260.48"/>
</g>
<!-- Node20 -->
<g id="node20" class="node">
<title>Node20</title>
<g id="a_node20"><a xlink:title=" ">
<polygon fill="white" stroke="#bfbfbf" points="416.5,-235.5 416.5,-265.5 535.5,-265.5 535.5,-235.5 416.5,-235.5"/>
<text text-anchor="start" x="424.5" y="-253.5" font-family="Helvetica,sans-Serif" font-size="10.00">custom_interfaces/msg</text>
<text text-anchor="middle" x="476" y="-242.5" font-family="Helvetica,sans-Serif" font-size="10.00">/cone_array.hpp</text>
</a>
</g>
</g>
<!-- Node15&#45;&gt;Node20 -->
<g id="edge23" class="edge">
<title>Node15&#45;&gt;Node20</title>
<path fill="none" stroke="midnightblue" d="M708.69,-307.94C666.89,-297.8 596.36,-280.69 543.88,-267.96"/>
<polygon fill="midnightblue" stroke="midnightblue" points="544.51,-264.51 533.97,-265.56 542.86,-271.32 544.51,-264.51"/>
</g>
<!-- Node21 -->
<g id="node21" class="node">
<title>Node21</title>
<g id="a_node21"><a xlink:title=" ">
<polygon fill="white" stroke="#bfbfbf" points="553.5,-235.5 553.5,-265.5 672.5,-265.5 672.5,-235.5 553.5,-235.5"/>
<text text-anchor="start" x="561.5" y="-253.5" font-family="Helvetica,sans-Serif" font-size="10.00">custom_interfaces/msg</text>
<text text-anchor="middle" x="613" y="-242.5" font-family="Helvetica,sans-Serif" font-size="10.00">/point2d.hpp</text>
</a>
</g>
</g>
<!-- Node15&#45;&gt;Node21 -->
<g id="edge24" class="edge">
<title>Node15&#45;&gt;Node21</title>
<path fill="none" stroke="midnightblue" d="M726.6,-307.87C707.35,-298.31 675.73,-282.63 650.74,-270.22"/>
<polygon fill="midnightblue" stroke="midnightblue" points="652.03,-266.96 641.52,-265.65 648.92,-273.23 652.03,-266.96"/>
</g>
<!-- Node22 -->
<g id="node22" class="node">
<title>Node22</title>
<g id="a_node22"><a xlink:title=" ">
<polygon fill="white" stroke="#bfbfbf" points="815.5,-235.5 815.5,-265.5 934.5,-265.5 934.5,-235.5 815.5,-235.5"/>
<text text-anchor="start" x="823.5" y="-253.5" font-family="Helvetica,sans-Serif" font-size="10.00">custom_interfaces/msg</text>
<text text-anchor="middle" x="875" y="-242.5" font-family="Helvetica,sans-Serif" font-size="10.00">/pose.hpp</text>
</a>
</g>
</g>
<!-- Node15&#45;&gt;Node22 -->
<g id="edge25" class="edge">
<title>Node15&#45;&gt;Node22</title>
<path fill="none" stroke="midnightblue" d="M761.4,-307.87C780.65,-298.31 812.27,-282.63 837.26,-270.22"/>
<polygon fill="midnightblue" stroke="midnightblue" points="839.08,-273.23 846.48,-265.65 835.97,-266.96 839.08,-273.23"/>
</g>
<!-- Node23 -->
<g id="node23" class="node">
<title>Node23</title>
<g id="a_node23"><a xlink:href="ekf_8hpp.html" target="_top" xlink:title=" ">
<polygon fill="white" stroke="black" points="690.5,-241 690.5,-260 797.5,-260 797.5,-241 690.5,-241"/>
<text text-anchor="middle" x="744" y="-248" font-family="Helvetica,sans-Serif" font-size="10.00">kalman_filter/ekf.hpp</text>
</a>
</g>
</g>
<!-- Node15&#45;&gt;Node23 -->
<g id="edge27" class="edge">
<title>Node15&#45;&gt;Node23</title>
<path fill="none" stroke="midnightblue" d="M744,-307.73C744,-298.18 744,-282.62 744,-270.28"/>
<polygon fill="midnightblue" stroke="midnightblue" points="747.5,-270.13 744,-260.13 740.5,-270.13 747.5,-270.13"/>
</g>
<!-- Node15&#45;&gt;Node28 -->
<g id="edge38" class="edge">
<title>Node15&#45;&gt;Node28</title>
<path fill="none" stroke="midnightblue" d="M800.19,-313.65C892.56,-308.31 1082.02,-294.68 1240,-266 1245.21,-265.05 1250.65,-263.87 1256,-262.58"/>
<polygon fill="midnightblue" stroke="midnightblue" points="1257.24,-265.88 1266.08,-260.03 1255.52,-259.09 1257.24,-265.88"/>
</g>
<!-- Node15&#45;&gt;Node29 -->
<g id="edge39" class="edge">
<title>Node15&#45;&gt;Node29</title>
<path fill="none" stroke="midnightblue" d="M800.09,-313.75C907.17,-308.07 1147.94,-293.25 1349,-266 1357.43,-264.86 1366.33,-263.41 1374.98,-261.87"/>
<polygon fill="midnightblue" stroke="midnightblue" points="1375.76,-265.28 1384.97,-260.04 1374.5,-258.4 1375.76,-265.28"/>
</g>
<!-- Node30 -->
<g id="node30" class="node">
<title>Node30</title>
<g id="a_node30"><a xlink:title=" ">
<polygon fill="white" stroke="#bfbfbf" points="952.5,-241 952.5,-260 1079.5,-260 1079.5,-241 952.5,-241"/>
<text text-anchor="middle" x="1016" y="-248" font-family="Helvetica,sans-Serif" font-size="10.00">std_msgs/msg/string.hpp</text>
</a>
</g>
</g>
<!-- Node15&#45;&gt;Node30 -->
<g id="edge40" class="edge">
<title>Node15&#45;&gt;Node30</title>
<path fill="none" stroke="midnightblue" d="M779.84,-307.94C828.76,-296.24 916.49,-275.28 970.15,-262.46"/>
<polygon fill="midnightblue" stroke="midnightblue" points="971.17,-265.81 980.08,-260.08 969.54,-259 971.17,-265.81"/>
</g>
<!-- Node23&#45;&gt;Node10 -->
<g id="edge36" class="edge">
<title>Node23&#45;&gt;Node10</title>
<path fill="none" stroke="midnightblue" d="M765.43,-240.91C782.31,-232.85 804.67,-219.03 815,-199 821.32,-186.76 821.64,-180.07 815,-168 807.11,-153.66 792.51,-143.25 778.6,-136.08"/>
<polygon fill="midnightblue" stroke="midnightblue" points="779.7,-132.73 769.16,-131.62 776.71,-139.06 779.7,-132.73"/>
</g>
<!-- Node24 -->
<g id="node24" class="node">
<title>Node24</title>
<g id="a_node24"><a xlink:title=" ">
<polygon fill="white" stroke="#bfbfbf" points="574.5,-112.5 574.5,-131.5 647.5,-131.5 647.5,-112.5 574.5,-112.5"/>
<text text-anchor="middle" x="611" y="-119.5" font-family="Helvetica,sans-Serif" font-size="10.00">Eigen/Dense</text>
</a>
</g>
</g>
<!-- Node23&#45;&gt;Node24 -->
<g id="edge28" class="edge">
<title>Node23&#45;&gt;Node24</title>
<path fill="none" stroke="midnightblue" d="M708.97,-240.96C653.76,-227.41 552.47,-202.2 550,-199 541.57,-188.1 543.79,-180.3 550,-168 556.81,-154.52 569.77,-144.08 582,-136.67"/>
<polygon fill="midnightblue" stroke="midnightblue" points="584.07,-139.52 591.09,-131.59 580.66,-133.41 584.07,-139.52"/>
</g>
<!-- Node25 -->
<g id="node25" class="node">
<title>Node25</title>
<g id="a_node25"><a xlink:title=" ">
<polygon fill="white" stroke="#bfbfbf" points="863,-174 863,-193 907,-193 907,-174 863,-174"/>
<text text-anchor="middle" x="885" y="-181" font-family="Helvetica,sans-Serif" font-size="10.00">vector</text>
</a>
</g>
</g>
<!-- Node23&#45;&gt;Node25 -->
<g id="edge29" class="edge">
<title>Node23&#45;&gt;Node25</title>
<path fill="none" stroke="midnightblue" d="M762.72,-240.87C786.85,-229.75 829,-210.32 856.95,-197.43"/>
<polygon fill="midnightblue" stroke="midnightblue" points="858.58,-200.53 866.2,-193.17 855.65,-194.18 858.58,-200.53"/>
</g>
<!-- Node26 -->
<g id="node26" class="node">
<title>Node26</title>
<g id="a_node26"><a xlink:href="motion__models_8hpp.html" target="_top" xlink:title=" ">
<polygon fill="white" stroke="black" points="559,-168.5 559,-198.5 663,-198.5 663,-168.5 559,-168.5"/>
<text text-anchor="start" x="567" y="-186.5" font-family="Helvetica,sans-Serif" font-size="10.00">kalman_filter/motion</text>
<text text-anchor="middle" x="611" y="-175.5" font-family="Helvetica,sans-Serif" font-size="10.00">_models.hpp</text>
</a>
</g>
</g>
<!-- Node23&#45;&gt;Node26 -->
<g id="edge30" class="edge">
<title>Node23&#45;&gt;Node26</title>
<path fill="none" stroke="midnightblue" d="M726.34,-240.87C706.64,-231.24 674.2,-215.39 648.73,-202.94"/>
<polygon fill="midnightblue" stroke="midnightblue" points="650.22,-199.77 639.7,-198.53 647.15,-206.06 650.22,-199.77"/>
</g>
<!-- Node27 -->
<g id="node27" class="node">
<title>Node27</title>
<g id="a_node27"><a xlink:href="observation__models_8hpp.html" target="_top" xlink:title=" ">
<polygon fill="white" stroke="black" points="681.5,-168.5 681.5,-198.5 806.5,-198.5 806.5,-168.5 681.5,-168.5"/>
<text text-anchor="start" x="689.5" y="-186.5" font-family="Helvetica,sans-Serif" font-size="10.00">kalman_filter/observation</text>
<text text-anchor="middle" x="744" y="-175.5" font-family="Helvetica,sans-Serif" font-size="10.00">_models.hpp</text>
</a>
</g>
</g>
<!-- Node23&#45;&gt;Node27 -->
<g id="edge33" class="edge">
<title>Node23&#45;&gt;Node27</title>
<path fill="none" stroke="midnightblue" d="M744,-240.73C744,-232.54 744,-219.92 744,-208.71"/>
<polygon fill="midnightblue" stroke="midnightblue" points="747.5,-208.59 744,-198.59 740.5,-208.59 747.5,-208.59"/>
</g>
<!-- Node26&#45;&gt;Node10 -->
<g id="edge32" class="edge">
<title>Node26&#45;&gt;Node10</title>
<path fill="none" stroke="midnightblue" d="M642.52,-168.4C664.64,-158.51 693.97,-145.38 715.41,-135.79"/>
<polygon fill="midnightblue" stroke="midnightblue" points="716.95,-138.94 724.65,-131.66 714.09,-132.55 716.95,-138.94"/>
</g>
<!-- Node26&#45;&gt;Node24 -->
<g id="edge31" class="edge">
<title>Node26&#45;&gt;Node24</title>
<path fill="none" stroke="midnightblue" d="M611,-168.4C611,-160.47 611,-150.46 611,-141.86"/>
<polygon fill="midnightblue" stroke="midnightblue" points="614.5,-141.66 611,-131.66 607.5,-141.66 614.5,-141.66"/>
</g>
<!-- Node27&#45;&gt;Node10 -->
<g id="edge35" class="edge">
<title>Node27&#45;&gt;Node10</title>
<path fill="none" stroke="midnightblue" d="M744,-168.4C744,-160.47 744,-150.46 744,-141.86"/>
<polygon fill="midnightblue" stroke="midnightblue" points="747.5,-141.66 744,-131.66 740.5,-141.66 747.5,-141.66"/>
</g>
<!-- Node27&#45;&gt;Node24 -->
<g id="edge34" class="edge">
<title>Node27&#45;&gt;Node24</title>
<path fill="none" stroke="midnightblue" d="M712.48,-168.4C690.36,-158.51 661.03,-145.38 639.59,-135.79"/>
<polygon fill="midnightblue" stroke="midnightblue" points="640.91,-132.55 630.35,-131.66 638.05,-138.94 640.91,-132.55"/>
</g>
</g>
</svg>
