<?xml version="1.0" encoding="UTF-8" standalone="no"?>
<!DOCTYPE svg PUBLIC "-//W3C//DTD SVG 1.1//EN"
 "http://www.w3.org/Graphics/SVG/1.1/DTD/svg11.dtd">
<!-- Generated by graphviz version 2.43.0 (0)
 -->
<!-- Title: NormalVelocityModel Pages: 1 -->
<svg width="168pt" height="248pt"
 viewBox="0.00 0.00 168.00 248.00" xmlns="http://www.w3.org/2000/svg" xmlns:xlink="http://www.w3.org/1999/xlink">
<g id="graph0" class="graph" transform="scale(1 1) rotate(0) translate(4 244)">
<title>NormalVelocityModel</title>
<polygon fill="white" stroke="transparent" points="-4,4 -4,-244 164,-244 164,4 -4,4"/>
<!-- Node1 -->
<g id="node1" class="node">
<title>Node1</title>
<g id="a_node1"><a xlink:title="Motion estimation that uses the module of the velocity and the rotational velocity.">
<polygon fill="#bfbfbf" stroke="black" points="13.5,-0.5 13.5,-90.5 146.5,-90.5 146.5,-0.5 13.5,-0.5"/>
<text text-anchor="middle" x="80" y="-78.5" font-family="Helvetica,sans-Serif" font-size="10.00">NormalVelocityModel</text>
<polyline fill="none" stroke="black" points="13.5,-71.5 146.5,-71.5 "/>
<text text-anchor="middle" x="80" y="-59.5" font-family="Helvetica,sans-Serif" font-size="10.00"> </text>
<polyline fill="none" stroke="black" points="13.5,-52.5 146.5,-52.5 "/>
<text text-anchor="start" x="21.5" y="-40.5" font-family="Helvetica,sans-Serif" font-size="10.00">+ NormalVelocityModel()</text>
<text text-anchor="start" x="21.5" y="-29.5" font-family="Helvetica,sans-Serif" font-size="10.00">+ predict_expected_state()</text>
<text text-anchor="start" x="21.5" y="-18.5" font-family="Helvetica,sans-Serif" font-size="10.00">+ get_motion_to_state</text>
<text text-anchor="start" x="21.5" y="-7.5" font-family="Helvetica,sans-Serif" font-size="10.00">_matrix()</text>
</a>
</g>
</g>
<!-- Node2 -->
<g id="node2" class="node">
<title>Node2</title>
<g id="a_node2"><a xlink:href="classMotionModel.html" target="_top" xlink:title="Abstract Moiton Model class designed to be implemented by the different motion models.">
<polygon fill="white" stroke="black" points="0,-127.5 0,-239.5 160,-239.5 160,-127.5 0,-127.5"/>
<text text-anchor="middle" x="80" y="-227.5" font-family="Helvetica,sans-Serif" font-size="10.00">MotionModel</text>
<polyline fill="none" stroke="black" points="0,-220.5 160,-220.5 "/>
<text text-anchor="middle" x="80" y="-208.5" font-family="Helvetica,sans-Serif" font-size="10.00"> </text>
<polyline fill="none" stroke="black" points="0,-201.5 160,-201.5 "/>
<text text-anchor="start" x="8" y="-189.5" font-family="Helvetica,sans-Serif" font-size="10.00">+ MotionModel()</text>
<text text-anchor="start" x="8" y="-178.5" font-family="Helvetica,sans-Serif" font-size="10.00">+ predict_expected_state()</text>
<text text-anchor="start" x="8" y="-167.5" font-family="Helvetica,sans-Serif" font-size="10.00">+ get_motion_to_state</text>
<text text-anchor="start" x="8" y="-156.5" font-family="Helvetica,sans-Serif" font-size="10.00">_matrix()</text>
<text text-anchor="start" x="8" y="-145.5" font-family="Helvetica,sans-Serif" font-size="10.00">+ get_process_noise_covariance</text>
<text text-anchor="start" x="8" y="-134.5" font-family="Helvetica,sans-Serif" font-size="10.00">_matrix()</text>
</a>
</g>
</g>
<!-- Node2&#45;&gt;Node1 -->
<g id="edge1" class="edge">
<title>Node2&#45;&gt;Node1</title>
<path fill="none" stroke="midnightblue" d="M80,-117.08C80,-108.07 80,-99.01 80,-90.51"/>
<polygon fill="none" stroke="midnightblue" points="76.5,-117.18 80,-127.18 83.5,-117.18 76.5,-117.18"/>
</g>
</g>
</svg>
