<?xml version="1.0" encoding="UTF-8" standalone="no"?>
<!DOCTYPE svg PUBLIC "-//W3C//DTD SVG 1.1//EN"
 "http://www.w3.org/Graphics/SVG/1.1/DTD/svg11.dtd">
<!-- Generated by graphviz version 2.43.0 (0)
 -->
<!-- Title: ExecTimeTestEKFTests Pages: 1 -->
<svg width="743pt" height="438pt"
 viewBox="0.00 0.00 742.50 438.00" xmlns="http://www.w3.org/2000/svg" xmlns:xlink="http://www.w3.org/1999/xlink">
<g id="graph0" class="graph" transform="scale(1 1) rotate(0) translate(4 434)">
<title>ExecTimeTestEKFTests</title>
<!-- Node1 -->
<g id="Node000001" class="node">
<title>Node1</title>
<g id="a_Node000001"><a xlink:title="Test class for performance measurements of Extended Kalman Filter steps.">
<polygon fill="#999999" stroke="transparent" points="373,-169 253,-169 253,0 373,0 373,-169"/>
<text text-anchor="start" x="258" y="-156.5" font-family="Helvetica,sans-Serif" font-size="10.00">ExecTimeTestEKFTests</text>
<text text-anchor="start" x="265" y="-141.5" font-family="Helvetica,sans-Serif" font-size="10.00">#</text>
<text text-anchor="start" x="286" y="-141.5" font-family="Helvetica,sans-Serif" font-size="10.00">start_time</text>
<text text-anchor="start" x="265" y="-126.5" font-family="Helvetica,sans-Serif" font-size="10.00">#</text>
<text text-anchor="start" x="286" y="-126.5" font-family="Helvetica,sans-Serif" font-size="10.00">duration</text>
<text text-anchor="start" x="265" y="-111.5" font-family="Helvetica,sans-Serif" font-size="10.00">#</text>
<text text-anchor="start" x="286" y="-111.5" font-family="Helvetica,sans-Serif" font-size="10.00">end_time</text>
<text text-anchor="start" x="265" y="-96.5" font-family="Helvetica,sans-Serif" font-size="10.00">#</text>
<text text-anchor="start" x="286" y="-96.5" font-family="Helvetica,sans-Serif" font-size="10.00">workload</text>
<text text-anchor="start" x="265" y="-81.5" font-family="Helvetica,sans-Serif" font-size="10.00">#</text>
<text text-anchor="start" x="286" y="-81.5" font-family="Helvetica,sans-Serif" font-size="10.00">Q_test</text>
<text text-anchor="start" x="265" y="-66.5" font-family="Helvetica,sans-Serif" font-size="10.00">#</text>
<text text-anchor="start" x="286" y="-66.5" font-family="Helvetica,sans-Serif" font-size="10.00">R_test</text>
<text text-anchor="start" x="265" y="-51.5" font-family="Helvetica,sans-Serif" font-size="10.00">#</text>
<text text-anchor="start" x="286" y="-51.5" font-family="Helvetica,sans-Serif" font-size="10.00">print_to_file()</text>
<text text-anchor="start" x="265" y="-36.5" font-family="Helvetica,sans-Serif" font-size="10.00">#</text>
<text text-anchor="start" x="286" y="-36.5" font-family="Helvetica,sans-Serif" font-size="10.00">fill_X()</text>
<text text-anchor="start" x="265" y="-21.5" font-family="Helvetica,sans-Serif" font-size="10.00">#</text>
<text text-anchor="start" x="286" y="-21.5" font-family="Helvetica,sans-Serif" font-size="10.00">SetUp()</text>
<text text-anchor="start" x="265" y="-6.5" font-family="Helvetica,sans-Serif" font-size="10.00">#</text>
<text text-anchor="start" x="286" y="-6.5" font-family="Helvetica,sans-Serif" font-size="10.00">TearDown()</text>
<polygon fill="#666666" stroke="#666666" points="253,-151.5 253,-151.5 373,-151.5 373,-151.5 253,-151.5"/>
<polygon fill="#666666" stroke="#666666" points="253,-61.5 253,-61.5 284,-61.5 284,-61.5 253,-61.5"/>
<polygon fill="#666666" stroke="#666666" points="284,-61.5 284,-61.5 373,-61.5 373,-61.5 284,-61.5"/>
<polygon fill="none" stroke="#666666" points="253,0 253,-169 373,-169 373,0 253,0"/>
</a>
</g>
</g>
<!-- Node2 -->
<g id="Node000002" class="node">
<title>Node2</title>
<g id="a_Node000002"><a xlink:title=" ">
<polygon fill="white" stroke="transparent" points="70,-347.5 0,-347.5 0,-298.5 70,-298.5 70,-347.5"/>
<text text-anchor="start" x="5" y="-335" font-family="Helvetica,sans-Serif" font-size="10.00">testing::Test</text>
<text text-anchor="start" x="33" y="-320" font-family="Helvetica,sans-Serif" font-size="10.00"> </text>
<text text-anchor="start" x="33" y="-305" font-family="Helvetica,sans-Serif" font-size="10.00"> </text>
<polygon fill="#666666" stroke="#666666" points="0,-330 0,-330 70,-330 70,-330 0,-330"/>
<polygon fill="#666666" stroke="#666666" points="0,-315 0,-315 70,-315 70,-315 0,-315"/>
<polygon fill="none" stroke="#666666" points="0,-298.5 0,-347.5 70,-347.5 70,-298.5 0,-298.5"/>
</a>
</g>
</g>
<!-- Node2&#45;&gt;Node1 -->
<g id="edge1_Node000001_Node000002" class="edge">
<title>Node2&#45;&gt;Node1</title>
<g id="a_edge1_Node000001_Node000002"><a xlink:title=" ">
<path fill="none" stroke="#63b8ff" d="M42.79,-288.23C49.37,-265.68 60.72,-236.51 79,-216 126.34,-162.86 200.68,-126.63 252.83,-106.07"/>
<polygon fill="none" stroke="#63b8ff" points="39.36,-287.5 40.09,-298.07 46.11,-289.35 39.36,-287.5"/>
</a>
</g>
</g>
<!-- Node3 -->
<g id="Node000003" class="node">
<title>Node3</title>
<g id="a_Node000003"><a xlink:href="classExtendedKalmanFilter.html" target="_top" xlink:title="Extended Kalman Filter class.">
<polygon fill="white" stroke="transparent" points="225.5,-430 88.5,-430 88.5,-216 225.5,-216 225.5,-430"/>
<text text-anchor="start" x="103" y="-418" font-family="Helvetica,sans-Serif" font-size="10.00">ExtendedKalmanFilter</text>
<text text-anchor="start" x="155.5" y="-403" font-family="Helvetica,sans-Serif" font-size="10.00"> </text>
<text text-anchor="start" x="93" y="-388" font-family="Helvetica,sans-Serif" font-size="10.00">+</text>
<text text-anchor="start" x="106" y="-388" font-family="Helvetica,sans-Serif" font-size="10.00">ExtendedKalmanFilter()</text>
<text text-anchor="start" x="93" y="-373" font-family="Helvetica,sans-Serif" font-size="10.00">+</text>
<text text-anchor="start" x="106" y="-373" font-family="Helvetica,sans-Serif" font-size="10.00">ExtendedKalmanFilter()</text>
<text text-anchor="start" x="93" y="-358" font-family="Helvetica,sans-Serif" font-size="10.00">+</text>
<text text-anchor="start" x="106" y="-358" font-family="Helvetica,sans-Serif" font-size="10.00">update()</text>
<text text-anchor="start" x="93" y="-343" font-family="Helvetica,sans-Serif" font-size="10.00">+</text>
<text text-anchor="start" x="106" y="-343" font-family="Helvetica,sans-Serif" font-size="10.00">prediction_step()</text>
<text text-anchor="start" x="93" y="-328" font-family="Helvetica,sans-Serif" font-size="10.00">+</text>
<text text-anchor="start" x="106" y="-328" font-family="Helvetica,sans-Serif" font-size="10.00">correction_step()</text>
<text text-anchor="start" x="93" y="-313" font-family="Helvetica,sans-Serif" font-size="10.00">+</text>
<text text-anchor="start" x="106" y="-313" font-family="Helvetica,sans-Serif" font-size="10.00">set_X_y()</text>
<text text-anchor="start" x="93" y="-298" font-family="Helvetica,sans-Serif" font-size="10.00">+</text>
<text text-anchor="start" x="106" y="-298" font-family="Helvetica,sans-Serif" font-size="10.00">set_P()</text>
<text text-anchor="start" x="93" y="-283" font-family="Helvetica,sans-Serif" font-size="10.00">+</text>
<text text-anchor="start" x="106" y="-283" font-family="Helvetica,sans-Serif" font-size="10.00">init_X_size()</text>
<text text-anchor="start" x="93" y="-268" font-family="Helvetica,sans-Serif" font-size="10.00">+</text>
<text text-anchor="start" x="106" y="-268" font-family="Helvetica,sans-Serif" font-size="10.00">push_to_colors()</text>
<text text-anchor="start" x="93" y="-253" font-family="Helvetica,sans-Serif" font-size="10.00">+</text>
<text text-anchor="start" x="106" y="-253" font-family="Helvetica,sans-Serif" font-size="10.00">get_state()</text>
<text text-anchor="start" x="93" y="-238" font-family="Helvetica,sans-Serif" font-size="10.00">+</text>
<text text-anchor="start" x="106" y="-238" font-family="Helvetica,sans-Serif" font-size="10.00">get_covariance()</text>
<text text-anchor="start" x="93" y="-223" font-family="Helvetica,sans-Serif" font-size="10.00">+</text>
<text text-anchor="start" x="106" y="-223" font-family="Helvetica,sans-Serif" font-size="10.00">get_last_update()</text>
<polygon fill="#666666" stroke="#666666" points="89,-413 89,-413 226,-413 226,-413 89,-413"/>
<polygon fill="#666666" stroke="#666666" points="89,-398 89,-398 226,-398 226,-398 89,-398"/>
<polygon fill="none" stroke="#666666" points="88.5,-216 88.5,-430 225.5,-430 225.5,-216 88.5,-216"/>
</a>
</g>
</g>
<!-- Node3&#45;&gt;Node1 -->
<g id="edge2_Node000001_Node000003" class="edge">
<title>Node3&#45;&gt;Node1</title>
<g id="a_edge2_Node000001_Node000003"><a xlink:title=" ">
<path fill="none" stroke="#63b8ff" d="M225.65,-217.92C234.17,-205.02 242.83,-191.88 251.23,-179.14"/>
<polygon fill="none" stroke="#63b8ff" points="251.3,-179.04 251.26,-171.83 257.91,-169.02 257.94,-176.24 251.3,-179.04"/>
</a>
</g>
<text text-anchor="middle" x="271" y="-190" font-family="Helvetica,sans-Serif" font-size="10.00" fill="grey"> #ekf_test</text>
</g>
<!-- Node4 -->
<g id="Node000004" class="node">
<title>Node4</title>
<g id="a_Node000004"><a xlink:href="structMotionUpdate.html" target="_top" xlink:title="Struct for data retrieved by the IMU.">
<polygon fill="white" stroke="transparent" points="382.5,-385 243.5,-385 243.5,-261 382.5,-261 382.5,-385"/>
<text text-anchor="start" x="278.5" y="-373" font-family="Helvetica,sans-Serif" font-size="10.00">MotionUpdate</text>
<text text-anchor="start" x="248" y="-358" font-family="Helvetica,sans-Serif" font-size="10.00">+</text>
<text text-anchor="start" x="261" y="-358" font-family="Helvetica,sans-Serif" font-size="10.00">translational_velocity</text>
<text text-anchor="start" x="248" y="-343" font-family="Helvetica,sans-Serif" font-size="10.00">+</text>
<text text-anchor="start" x="261" y="-343" font-family="Helvetica,sans-Serif" font-size="10.00">translational_velocity_x</text>
<text text-anchor="start" x="248" y="-328" font-family="Helvetica,sans-Serif" font-size="10.00">+</text>
<text text-anchor="start" x="261" y="-328" font-family="Helvetica,sans-Serif" font-size="10.00">translational_velocity_y</text>
<text text-anchor="start" x="248" y="-313" font-family="Helvetica,sans-Serif" font-size="10.00">+</text>
<text text-anchor="start" x="261" y="-313" font-family="Helvetica,sans-Serif" font-size="10.00">rotational_velocity</text>
<text text-anchor="start" x="248" y="-298" font-family="Helvetica,sans-Serif" font-size="10.00">+</text>
<text text-anchor="start" x="261" y="-298" font-family="Helvetica,sans-Serif" font-size="10.00">steering_angle</text>
<text text-anchor="start" x="248" y="-283" font-family="Helvetica,sans-Serif" font-size="10.00">+</text>
<text text-anchor="start" x="261" y="-283" font-family="Helvetica,sans-Serif" font-size="10.00">last_update</text>
<text text-anchor="start" x="311.5" y="-268" font-family="Helvetica,sans-Serif" font-size="10.00"> </text>
<polygon fill="#666666" stroke="#666666" points="244,-368 244,-368 383,-368 383,-368 244,-368"/>
<polygon fill="#666666" stroke="#666666" points="244,-278 244,-278 259,-278 259,-278 244,-278"/>
<polygon fill="#666666" stroke="#666666" points="259,-278 259,-278 383,-278 383,-278 259,-278"/>
<polygon fill="none" stroke="#666666" points="243.5,-261 243.5,-385 382.5,-385 382.5,-261 243.5,-261"/>
</a>
</g>
</g>
<!-- Node4&#45;&gt;Node1 -->
<g id="edge3_Node000001_Node000004" class="edge">
<title>Node4&#45;&gt;Node1</title>
<g id="a_edge3_Node000001_Node000004"><a xlink:title=" ">
<path fill="none" stroke="#63b8ff" d="M313,-260.79C313,-236.58 313,-208.17 313,-181.36"/>
<polygon fill="none" stroke="#63b8ff" points="313,-181.17 309,-175.17 313,-169.17 317,-175.17 313,-181.17"/>
</a>
</g>
<text text-anchor="middle" x="367.5" y="-190" font-family="Helvetica,sans-Serif" font-size="10.00" fill="grey"> #motion_update_test</text>
</g>
<!-- Node5 -->
<g id="Node000005" class="node">
<title>Node5</title>
<g id="a_Node000005"><a xlink:href="classMotionModel.html" target="_top" xlink:title="Abstract Moiton Model class designed to be implemented by the different motion models.">
<polygon fill="white" stroke="transparent" points="571,-381 401,-381 401,-265 571,-265 571,-381"/>
<text text-anchor="start" x="454" y="-369" font-family="Helvetica,sans-Serif" font-size="10.00">MotionModel</text>
<text text-anchor="start" x="484" y="-354" font-family="Helvetica,sans-Serif" font-size="10.00"> </text>
<text text-anchor="start" x="405" y="-339" font-family="Helvetica,sans-Serif" font-size="10.00">+</text>
<text text-anchor="start" x="418" y="-339" font-family="Helvetica,sans-Serif" font-size="10.00">MotionModel()</text>
<text text-anchor="start" x="405" y="-324" font-family="Helvetica,sans-Serif" font-size="10.00">+</text>
<text text-anchor="start" x="418" y="-324" font-family="Helvetica,sans-Serif" font-size="10.00">predict_expected_state()</text>
<text text-anchor="start" x="405" y="-309" font-family="Helvetica,sans-Serif" font-size="10.00">+</text>
<text text-anchor="start" x="418" y="-309" font-family="Helvetica,sans-Serif" font-size="10.00">get_motion_to_state</text>
<text text-anchor="start" x="418" y="-298" font-family="Helvetica,sans-Serif" font-size="10.00">_matrix()</text>
<text text-anchor="start" x="405" y="-283" font-family="Helvetica,sans-Serif" font-size="10.00">+</text>
<text text-anchor="start" x="418" y="-283" font-family="Helvetica,sans-Serif" font-size="10.00">get_process_noise_covariance</text>
<text text-anchor="start" x="418" y="-272" font-family="Helvetica,sans-Serif" font-size="10.00">_matrix()</text>
<polygon fill="#666666" stroke="#666666" points="401,-364 401,-364 571,-364 571,-364 401,-364"/>
<polygon fill="#666666" stroke="#666666" points="401,-349 401,-349 571,-349 571,-349 401,-349"/>
<polygon fill="none" stroke="#666666" points="401,-265 401,-381 571,-381 571,-265 401,-265"/>
</a>
</g>
</g>
<!-- Node5&#45;&gt;Node1 -->
<g id="edge4_Node000001_Node000005" class="edge">
<title>Node5&#45;&gt;Node1</title>
<g id="a_edge4_Node000001_Node000005"><a xlink:title=" ">
<path fill="none" stroke="#63b8ff" d="M466.84,-264.97C456.85,-239.75 443.12,-210.55 426,-187 413.62,-169.97 397.97,-153.69 382.3,-139.35"/>
<polygon fill="none" stroke="#63b8ff" points="382.05,-139.13 374.91,-138.12 373.09,-131.14 380.23,-132.15 382.05,-139.13"/>
</a>
</g>
<text text-anchor="middle" x="485" y="-190" font-family="Helvetica,sans-Serif" font-size="10.00" fill="grey"> #motion_model_test</text>
</g>
<!-- Node6 -->
<g id="Node000006" class="node">
<title>Node6</title>
<g id="a_Node000006"><a xlink:href="classObservationModel.html" target="_top" xlink:title="Observation Model class compiled of functions for observation model.">
<polygon fill="white" stroke="transparent" points="734.5,-394 589.5,-394 589.5,-252 734.5,-252 734.5,-394"/>
<text text-anchor="start" x="617.5" y="-382" font-family="Helvetica,sans-Serif" font-size="10.00">ObservationModel</text>
<text text-anchor="start" x="660.5" y="-367" font-family="Helvetica,sans-Serif" font-size="10.00"> </text>
<text text-anchor="start" x="594" y="-352" font-family="Helvetica,sans-Serif" font-size="10.00">+</text>
<text text-anchor="start" x="607" y="-352" font-family="Helvetica,sans-Serif" font-size="10.00">ObservationModel()</text>
<text text-anchor="start" x="594" y="-337" font-family="Helvetica,sans-Serif" font-size="10.00">+</text>
<text text-anchor="start" x="607" y="-337" font-family="Helvetica,sans-Serif" font-size="10.00">observation_model()</text>
<text text-anchor="start" x="594" y="-322" font-family="Helvetica,sans-Serif" font-size="10.00">+</text>
<text text-anchor="start" x="607" y="-322" font-family="Helvetica,sans-Serif" font-size="10.00">inverse_observation</text>
<text text-anchor="start" x="607" y="-311" font-family="Helvetica,sans-Serif" font-size="10.00">_model()</text>
<text text-anchor="start" x="594" y="-296" font-family="Helvetica,sans-Serif" font-size="10.00">+</text>
<text text-anchor="start" x="607" y="-296" font-family="Helvetica,sans-Serif" font-size="10.00">get_state_to_observation</text>
<text text-anchor="start" x="607" y="-285" font-family="Helvetica,sans-Serif" font-size="10.00">_matrix()</text>
<text text-anchor="start" x="594" y="-270" font-family="Helvetica,sans-Serif" font-size="10.00">+</text>
<text text-anchor="start" x="607" y="-270" font-family="Helvetica,sans-Serif" font-size="10.00">get_observation_noise</text>
<text text-anchor="start" x="607" y="-259" font-family="Helvetica,sans-Serif" font-size="10.00">_covariance_matrix()</text>
<polygon fill="#666666" stroke="#666666" points="590,-377 590,-377 735,-377 735,-377 590,-377"/>
<polygon fill="#666666" stroke="#666666" points="590,-362 590,-362 735,-362 735,-362 590,-362"/>
<polygon fill="none" stroke="#666666" points="589.5,-252 589.5,-394 734.5,-394 734.5,-252 589.5,-252"/>
</a>
</g>
</g>
<!-- Node6&#45;&gt;Node1 -->
<g id="edge5_Node000001_Node000006" class="edge">
<title>Node6&#45;&gt;Node1</title>
<g id="a_edge5_Node000001_Node000006"><a xlink:title=" ">
<path fill="none" stroke="#63b8ff" d="M611.99,-251.95C601.95,-239.48 591.06,-226.99 580,-216 525.18,-161.54 443.12,-126.14 384.46,-106.13"/>
<polygon fill="none" stroke="#63b8ff" points="384.44,-106.13 377.48,-108.03 373.05,-102.34 380.01,-100.44 384.44,-106.13"/>
</a>
</g>
<text text-anchor="middle" x="621" y="-190" font-family="Helvetica,sans-Serif" font-size="10.00" fill="grey"> #observation_model_test</text>
</g>
</g>
</svg>
