<?xml version="1.0" encoding="UTF-8" standalone="no"?>
<!DOCTYPE svg PUBLIC "-//W3C//DTD SVG 1.1//EN"
 "http://www.w3.org/Graphics/SVG/1.1/DTD/svg11.dtd">
<!-- Generated by graphviz version 2.43.0 (0)
 -->
<!-- Title: ObservationModel::get_state_to_observation_matrix Pages: 1 -->
<svg width="350pt" height="50pt"
 viewBox="0.00 0.00 350.00 50.00" xmlns="http://www.w3.org/2000/svg" xmlns:xlink="http://www.w3.org/1999/xlink">
<g id="graph0" class="graph" transform="scale(1 1) rotate(0) translate(4 46)">
<title>ObservationModel::get_state_to_observation_matrix</title>
<polygon fill="white" stroke="transparent" points="-4,4 -4,-46 346,-46 346,4 -4,4"/>
<!-- Node1 -->
<g id="node1" class="node">
<title>Node1</title>
<g id="a_node1"><a xlink:title="Get the state to observation matrix of the observation model (H)">
<polygon fill="#bfbfbf" stroke="black" points="227,-0.5 227,-41.5 342,-41.5 342,-0.5 227,-0.5"/>
<text text-anchor="start" x="235" y="-29.5" font-family="Helvetica,sans-Serif" font-size="10.00">ObservationModel::get</text>
<text text-anchor="start" x="235" y="-18.5" font-family="Helvetica,sans-Serif" font-size="10.00">_state_to_observation</text>
<text text-anchor="middle" x="284.5" y="-7.5" font-family="Helvetica,sans-Serif" font-size="10.00">_matrix</text>
</a>
</g>
</g>
<!-- Node2 -->
<g id="node2" class="node">
<title>Node2</title>
<g id="a_node2"><a xlink:href="classExtendedKalmanFilter.html#a230559bb9193f7acf494ae9e889fb6f8" target="_top" xlink:title="Correction step:">
<polygon fill="white" stroke="black" points="78,-6 78,-36 191,-36 191,-6 78,-6"/>
<text text-anchor="start" x="86" y="-24" font-family="Helvetica,sans-Serif" font-size="10.00">ExtendedKalmanFilter</text>
<text text-anchor="middle" x="134.5" y="-13" font-family="Helvetica,sans-Serif" font-size="10.00">::correction_step</text>
</a>
</g>
</g>
<!-- Node1&#45;&gt;Node2 -->
<g id="edge1" class="edge">
<title>Node1&#45;&gt;Node2</title>
<path fill="none" stroke="midnightblue" d="M216.54,-21C208.14,-21 199.62,-21 191.41,-21"/>
<polygon fill="midnightblue" stroke="midnightblue" points="216.7,-24.5 226.7,-21 216.7,-17.5 216.7,-24.5"/>
</g>
<!-- Node3 -->
<g id="node3" class="node">
<title>Node3</title>
<g id="a_node3"><a xlink:href="slam__test_8cpp.html#aa751639fa208fe991a3ba5969c0daa28" target="_top" xlink:title="Test the EKF SLAM algorithm in a linear movement.">
<polygon fill="white" stroke="black" points="0,-11.5 0,-30.5 42,-30.5 42,-11.5 0,-11.5"/>
<text text-anchor="middle" x="21" y="-18.5" font-family="Helvetica,sans-Serif" font-size="10.00">TEST</text>
</a>
</g>
</g>
<!-- Node2&#45;&gt;Node3 -->
<g id="edge2" class="edge">
<title>Node2&#45;&gt;Node3</title>
<path fill="none" stroke="midnightblue" d="M67.65,-21C58.43,-21 49.59,-21 42.19,-21"/>
<polygon fill="midnightblue" stroke="midnightblue" points="67.75,-24.5 77.75,-21 67.75,-17.5 67.75,-24.5"/>
</g>
</g>
</svg>
