<?xml version="1.0" encoding="UTF-8" standalone="no"?>
<!DOCTYPE svg PUBLIC "-//W3C//DTD SVG 1.1//EN"
 "http://www.w3.org/Graphics/SVG/1.1/DTD/svg11.dtd">
<!-- Generated by graphviz version 2.43.0 (0)
 -->
<!-- Title: ImuVelocityModel::predict_expected_state Pages: 1 -->
<svg width="229pt" height="138pt"
 viewBox="0.00 0.00 229.00 138.00" xmlns="http://www.w3.org/2000/svg" xmlns:xlink="http://www.w3.org/1999/xlink">
<g id="graph0" class="graph" transform="scale(1 1) rotate(0) translate(4 134)">
<title>ImuVelocityModel::predict_expected_state</title>
<!-- Node1 -->
<g id="Node000001" class="node">
<title>Node1</title>
<g id="a_Node000001"><a xlink:title="Calculate expected state vector from velocity model using IMU data and linear functions Uses translat...">
<polygon fill="#999999" stroke="#666666" points="221,-79.5 77,-79.5 77,-49.5 221,-49.5 221,-79.5"/>
<text text-anchor="start" x="85" y="-67.5" font-family="Helvetica,sans-Serif" font-size="10.00">ImuVelocityModel::predict</text>
<text text-anchor="middle" x="149" y="-56.5" font-family="Helvetica,sans-Serif" font-size="10.00">_expected_state</text>
</a>
</g>
</g>
<!-- Node2 -->
<g id="Node000002" class="node">
<title>Node2</title>
<g id="a_Node000002"><a xlink:href="motion__model__test_8cpp.html#ae0937a30b47fc882eb19bb57e6ca6bbf" target="_top" xlink:title=" ">
<polygon fill="white" stroke="#666666" points="41,-130 0,-130 0,-111 41,-111 41,-130"/>
<text text-anchor="middle" x="20.5" y="-118" font-family="Helvetica,sans-Serif" font-size="10.00">TEST</text>
</a>
</g>
</g>
<!-- Node1&#45;&gt;Node2 -->
<g id="edge1_Node000001_Node000002" class="edge">
<title>Node1&#45;&gt;Node2</title>
<g id="a_edge1_Node000001_Node000002"><a xlink:title=" ">
<path fill="none" stroke="#63b8ff" d="M104.8,-83.62C83.25,-93.17 58.23,-104.24 41.29,-111.74"/>
<polygon fill="#63b8ff" stroke="#63b8ff" points="106.37,-86.76 114.1,-79.51 103.54,-80.35 106.37,-86.76"/>
</a>
</g>
</g>
<!-- Node3 -->
<g id="Node000003" class="node">
<title>Node3</title>
<g id="a_Node000003"><a xlink:href="motion__model__test_8cpp.html#a9c31f0345da32c0c5eaa421433ba5ec3" target="_top" xlink:title=" ">
<polygon fill="white" stroke="#666666" points="41,-93 0,-93 0,-74 41,-74 41,-93"/>
<text text-anchor="middle" x="20.5" y="-81" font-family="Helvetica,sans-Serif" font-size="10.00">TEST</text>
</a>
</g>
</g>
<!-- Node1&#45;&gt;Node3 -->
<g id="edge2_Node000001_Node000003" class="edge">
<title>Node1&#45;&gt;Node3</title>
<g id="a_edge2_Node000001_Node000003"><a xlink:title=" ">
<path fill="none" stroke="#63b8ff" d="M66.92,-76.68C57.43,-78.1 48.52,-79.44 41.15,-80.55"/>
<polygon fill="#63b8ff" stroke="#63b8ff" points="67.62,-80.11 76.98,-75.17 66.58,-73.19 67.62,-80.11"/>
</a>
</g>
</g>
<!-- Node4 -->
<g id="Node000004" class="node">
<title>Node4</title>
<g id="a_Node000004"><a xlink:href="motion__model__test_8cpp.html#a13d66ed5f0bcb51eb59eaeb8da3fe292" target="_top" xlink:title=" ">
<polygon fill="white" stroke="#666666" points="41,-56 0,-56 0,-37 41,-37 41,-56"/>
<text text-anchor="middle" x="20.5" y="-44" font-family="Helvetica,sans-Serif" font-size="10.00">TEST</text>
</a>
</g>
</g>
<!-- Node1&#45;&gt;Node4 -->
<g id="edge3_Node000001_Node000004" class="edge">
<title>Node1&#45;&gt;Node4</title>
<g id="a_edge3_Node000001_Node000004"><a xlink:title=" ">
<path fill="none" stroke="#63b8ff" d="M66.92,-52.96C57.43,-51.61 48.52,-50.35 41.15,-49.3"/>
<polygon fill="#63b8ff" stroke="#63b8ff" points="66.59,-56.45 76.98,-54.4 67.58,-49.52 66.59,-56.45"/>
</a>
</g>
</g>
<!-- Node5 -->
<g id="Node000005" class="node">
<title>Node5</title>
<g id="a_Node000005"><a xlink:href="motion__model__test_8cpp.html#a6fbede91fc0c55e0beeee30fb29a34bf" target="_top" xlink:title=" ">
<polygon fill="white" stroke="#666666" points="41,-19 0,-19 0,0 41,0 41,-19"/>
<text text-anchor="middle" x="20.5" y="-7" font-family="Helvetica,sans-Serif" font-size="10.00">TEST</text>
</a>
</g>
</g>
<!-- Node1&#45;&gt;Node5 -->
<g id="edge4_Node000001_Node000005" class="edge">
<title>Node1&#45;&gt;Node5</title>
<g id="a_edge4_Node000001_Node000005"><a xlink:title=" ">
<path fill="none" stroke="#63b8ff" d="M104.15,-45.43C82.66,-36.09 57.86,-25.31 41.07,-18.01"/>
<polygon fill="#63b8ff" stroke="#63b8ff" points="102.87,-48.69 113.43,-49.47 105.66,-42.27 102.87,-48.69"/>
</a>
</g>
</g>
</g>
</svg>
