<?xml version="1.0" encoding="UTF-8" standalone="no"?>
<!DOCTYPE svg PUBLIC "-//W3C//DTD SVG 1.1//EN"
 "http://www.w3.org/Graphics/SVG/1.1/DTD/svg11.dtd">
<!-- Generated by graphviz version 2.43.0 (0)
 -->
<!-- Title: ObservationModel::observation_model Pages: 1 -->
<svg width="416pt" height="113pt"
 viewBox="0.00 0.00 416.00 112.50" xmlns="http://www.w3.org/2000/svg" xmlns:xlink="http://www.w3.org/1999/xlink">
<g id="graph0" class="graph" transform="scale(1 1) rotate(0) translate(4 108.5)">
<title>ObservationModel::observation_model</title>
<!-- Node1 -->
<g id="Node000001" class="node">
<title>Node1</title>
<g id="a_Node000001"><a xlink:title="Calculate expected observation from the state vector.">
<polygon fill="#999999" stroke="#666666" points="408,-61.5 238,-61.5 238,-31.5 408,-31.5 408,-61.5"/>
<text text-anchor="start" x="246" y="-49.5" font-family="Helvetica,sans-Serif" font-size="10.00">ObservationModel::observation</text>
<text text-anchor="middle" x="323" y="-38.5" font-family="Helvetica,sans-Serif" font-size="10.00">_model</text>
</a>
</g>
</g>
<!-- Node2 -->
<g id="Node000002" class="node">
<title>Node2</title>
<g id="a_Node000002"><a xlink:href="classExtendedKalmanFilter.html#a230559bb9193f7acf494ae9e889fb6f8" target="_top" xlink:title="Correction step:">
<polygon fill="white" stroke="#666666" points="202,-104.5 77,-104.5 77,-74.5 202,-74.5 202,-104.5"/>
<text text-anchor="start" x="85" y="-92.5" font-family="Helvetica,sans-Serif" font-size="10.00">ExtendedKalmanFilter</text>
<text text-anchor="middle" x="139.5" y="-81.5" font-family="Helvetica,sans-Serif" font-size="10.00">::correction_step</text>
</a>
</g>
</g>
<!-- Node1&#45;&gt;Node2 -->
<g id="edge1_Node000001_Node000002" class="edge">
<title>Node1&#45;&gt;Node2</title>
<g id="a_edge1_Node000001_Node000002"><a xlink:title=" ">
<path fill="none" stroke="#63b8ff" d="M248.52,-63.91C233.12,-67.56 217.03,-71.37 202.11,-74.9"/>
<polygon fill="#63b8ff" stroke="#63b8ff" points="249.6,-67.25 258.52,-61.54 247.98,-60.44 249.6,-67.25"/>
</a>
</g>
</g>
<!-- Node4 -->
<g id="Node000004" class="node">
<title>Node4</title>
<g id="a_Node000004"><a xlink:href="observation__model__test_8cpp.html#ace83b03e85ae2ce2ae7e32c548597d3f" target="_top" xlink:title="Test the observation model in a scenario where the vehicle is always aligned with the x axis.">
<polygon fill="white" stroke="#666666" points="160,-56 119,-56 119,-37 160,-37 160,-56"/>
<text text-anchor="middle" x="139.5" y="-44" font-family="Helvetica,sans-Serif" font-size="10.00">TEST</text>
</a>
</g>
</g>
<!-- Node1&#45;&gt;Node4 -->
<g id="edge3_Node000001_Node000004" class="edge">
<title>Node1&#45;&gt;Node4</title>
<g id="a_edge3_Node000001_Node000004"><a xlink:title=" ">
<path fill="none" stroke="#63b8ff" d="M227.7,-46.5C202.12,-46.5 176.91,-46.5 160.23,-46.5"/>
<polygon fill="#63b8ff" stroke="#63b8ff" points="227.89,-50 237.89,-46.5 227.89,-43 227.89,-50"/>
</a>
</g>
</g>
<!-- Node5 -->
<g id="Node000005" class="node">
<title>Node5</title>
<g id="a_Node000005"><a xlink:href="observation__model__test_8cpp.html#afcf4ad927c46c840a8747b5425c6cc64" target="_top" xlink:title="Test different cases for known values individually.">
<polygon fill="white" stroke="#666666" points="160,-19 119,-19 119,0 160,0 160,-19"/>
<text text-anchor="middle" x="139.5" y="-7" font-family="Helvetica,sans-Serif" font-size="10.00">TEST</text>
</a>
</g>
</g>
<!-- Node1&#45;&gt;Node5 -->
<g id="edge4_Node000001_Node000005" class="edge">
<title>Node1&#45;&gt;Node5</title>
<g id="a_edge4_Node000001_Node000005"><a xlink:title=" ">
<path fill="none" stroke="#63b8ff" d="M238.36,-29.45C209.23,-23.51 179.13,-17.38 160.14,-13.5"/>
<polygon fill="#63b8ff" stroke="#63b8ff" points="237.68,-32.88 248.18,-31.45 239.08,-26.02 237.68,-32.88"/>
</a>
</g>
</g>
<!-- Node3 -->
<g id="Node000003" class="node">
<title>Node3</title>
<g id="a_Node000003"><a xlink:href="slam__test_8cpp.html#aa751639fa208fe991a3ba5969c0daa28" target="_top" xlink:title="Test the EKF SLAM algorithm in a linear movement.">
<polygon fill="white" stroke="#666666" points="41,-99 0,-99 0,-80 41,-80 41,-99"/>
<text text-anchor="middle" x="20.5" y="-87" font-family="Helvetica,sans-Serif" font-size="10.00">TEST</text>
</a>
</g>
</g>
<!-- Node2&#45;&gt;Node3 -->
<g id="edge2_Node000002_Node000003" class="edge">
<title>Node2&#45;&gt;Node3</title>
<g id="a_edge2_Node000002_Node000003"><a xlink:title=" ">
<path fill="none" stroke="#63b8ff" d="M66.65,-89.5C57.33,-89.5 48.48,-89.5 41.12,-89.5"/>
<polygon fill="#63b8ff" stroke="#63b8ff" points="66.92,-93 76.92,-89.5 66.92,-86 66.92,-93"/>
</a>
</g>
</g>
</g>
</svg>
