<?xml version="1.0" encoding="UTF-8" standalone="no"?>
<!DOCTYPE svg PUBLIC "-//W3C//DTD SVG 1.1//EN"
 "http://www.w3.org/Graphics/SVG/1.1/DTD/svg11.dtd">
<!-- Generated by graphviz version 2.43.0 (0)
 -->
<!-- Title: ExtendedKalmanFilter::correction_step Pages: 1 -->
<svg width="310pt" height="160pt"
 viewBox="0.00 0.00 310.00 159.50" xmlns="http://www.w3.org/2000/svg" xmlns:xlink="http://www.w3.org/1999/xlink">
<g id="graph0" class="graph" transform="scale(1 1) rotate(0) translate(4 155.5)">
<title>ExtendedKalmanFilter::correction_step</title>
<polygon fill="white" stroke="transparent" points="-4,4 -4,-155.5 306,-155.5 306,4 -4,4"/>
<!-- Node1 -->
<g id="node1" class="node">
<title>Node1</title>
<g id="a_node1"><a xlink:title="Correction step:">
<polygon fill="#bfbfbf" stroke="black" points="0,-55.5 0,-85.5 113,-85.5 113,-55.5 0,-55.5"/>
<text text-anchor="start" x="8" y="-73.5" font-family="Helvetica,sans-Serif" font-size="10.00">ExtendedKalmanFilter</text>
<text text-anchor="middle" x="56.5" y="-62.5" font-family="Helvetica,sans-Serif" font-size="10.00">::correction_step</text>
</a>
</g>
</g>
<!-- Node2 -->
<g id="node2" class="node">
<title>Node2</title>
<g id="a_node2"><a xlink:href="classObservationModel.html#a97a9e71e7cee696be91a569eb65b9df9" target="_top" xlink:title="Get the observation noise covariance matrix (C or H)">
<polygon fill="white" stroke="black" points="149,-110 149,-151 302,-151 302,-110 149,-110"/>
<text text-anchor="start" x="157" y="-139" font-family="Helvetica,sans-Serif" font-size="10.00">ObservationModel::get</text>
<text text-anchor="start" x="157" y="-128" font-family="Helvetica,sans-Serif" font-size="10.00">_observation_noise_covariance</text>
<text text-anchor="middle" x="225.5" y="-117" font-family="Helvetica,sans-Serif" font-size="10.00">_matrix</text>
</a>
</g>
</g>
<!-- Node1&#45;&gt;Node2 -->
<g id="edge1" class="edge">
<title>Node1&#45;&gt;Node2</title>
<path fill="none" stroke="midnightblue" d="M99.64,-85.64C117.25,-91.97 138.13,-99.47 157.73,-106.51"/>
<polygon fill="midnightblue" stroke="midnightblue" points="156.64,-109.84 167.23,-109.92 159,-103.25 156.64,-109.84"/>
</g>
<!-- Node3 -->
<g id="node3" class="node">
<title>Node3</title>
<g id="a_node3"><a xlink:href="classObservationModel.html#aa789708c6a934ba1edfc8386b1f38d4f" target="_top" xlink:title="Get the state to observation matrix of the observation model (H)">
<polygon fill="white" stroke="black" points="168,-50 168,-91 283,-91 283,-50 168,-50"/>
<text text-anchor="start" x="176" y="-79" font-family="Helvetica,sans-Serif" font-size="10.00">ObservationModel::get</text>
<text text-anchor="start" x="176" y="-68" font-family="Helvetica,sans-Serif" font-size="10.00">_state_to_observation</text>
<text text-anchor="middle" x="225.5" y="-57" font-family="Helvetica,sans-Serif" font-size="10.00">_matrix</text>
</a>
</g>
</g>
<!-- Node1&#45;&gt;Node3 -->
<g id="edge2" class="edge">
<title>Node1&#45;&gt;Node3</title>
<path fill="none" stroke="midnightblue" d="M113.11,-70.5C127.45,-70.5 143.03,-70.5 157.86,-70.5"/>
<polygon fill="midnightblue" stroke="midnightblue" points="157.99,-74 167.99,-70.5 157.99,-67 157.99,-74"/>
</g>
<!-- Node4 -->
<g id="node4" class="node">
<title>Node4</title>
<g id="a_node4"><a xlink:href="classObservationModel.html#a0f8d3fc26c59869171ad60d08322d1d7" target="_top" xlink:title="Calculate expected observation from the state vector.">
<polygon fill="white" stroke="black" points="149.5,-0.5 149.5,-30.5 301.5,-30.5 301.5,-0.5 149.5,-0.5"/>
<text text-anchor="start" x="157.5" y="-18.5" font-family="Helvetica,sans-Serif" font-size="10.00">ObservationModel::observation</text>
<text text-anchor="middle" x="225.5" y="-7.5" font-family="Helvetica,sans-Serif" font-size="10.00">_model</text>
</a>
</g>
</g>
<!-- Node1&#45;&gt;Node4 -->
<g id="edge3" class="edge">
<title>Node1&#45;&gt;Node4</title>
<path fill="none" stroke="midnightblue" d="M103.13,-55.47C123.57,-48.74 147.84,-40.75 169.29,-33.68"/>
<polygon fill="midnightblue" stroke="midnightblue" points="170.52,-36.96 178.92,-30.51 168.33,-30.31 170.52,-36.96"/>
</g>
</g>
</svg>
