<?xml version="1.0" encoding="UTF-8" standalone="no"?>
<!DOCTYPE svg PUBLIC "-//W3C//DTD SVG 1.1//EN"
 "http://www.w3.org/Graphics/SVG/1.1/DTD/svg11.dtd">
<!-- Generated by graphviz version 2.43.0 (0)
 -->
<!-- Title: MotionModel::get_process_noise_covariance_matrix Pages: 1 -->
<svg width="366pt" height="78pt"
 viewBox="0.00 0.00 366.00 77.50" xmlns="http://www.w3.org/2000/svg" xmlns:xlink="http://www.w3.org/1999/xlink">
<g id="graph0" class="graph" transform="scale(1 1) rotate(0) translate(4 73.5)">
<title>MotionModel::get_process_noise_covariance_matrix</title>
<polygon fill="white" stroke="transparent" points="-4,4 -4,-73.5 362,-73.5 362,4 -4,4"/>
<!-- Node1 -->
<g id="node1" class="node">
<title>Node1</title>
<g id="a_node1"><a xlink:title="Get the process noise covariance matrix object.">
<polygon fill="#bfbfbf" stroke="black" points="227,-17 227,-47 358,-47 358,-17 227,-17"/>
<text text-anchor="start" x="235" y="-35" font-family="Helvetica,sans-Serif" font-size="10.00">MotionModel::get_process</text>
<text text-anchor="middle" x="292.5" y="-24" font-family="Helvetica,sans-Serif" font-size="10.00">_noise_covariance_matrix</text>
</a>
</g>
</g>
<!-- Node2 -->
<g id="node2" class="node">
<title>Node2</title>
<g id="a_node2"><a xlink:href="classExtendedKalmanFilter.html#aa5aeb5c329fffcbcb1a197de8e263427" target="_top" xlink:title="Prediction step:">
<polygon fill="white" stroke="black" points="78,-39 78,-69 191,-69 191,-39 78,-39"/>
<text text-anchor="start" x="86" y="-57" font-family="Helvetica,sans-Serif" font-size="10.00">ExtendedKalmanFilter</text>
<text text-anchor="middle" x="134.5" y="-46" font-family="Helvetica,sans-Serif" font-size="10.00">::prediction_step</text>
</a>
</g>
</g>
<!-- Node1&#45;&gt;Node2 -->
<g id="edge1" class="edge">
<title>Node1&#45;&gt;Node2</title>
<path fill="none" stroke="midnightblue" d="M216.74,-42.54C208.21,-43.75 199.63,-44.96 191.41,-46.12"/>
<polygon fill="midnightblue" stroke="midnightblue" points="217.28,-46 226.7,-41.14 216.31,-39.07 217.28,-46"/>
</g>
<!-- Node4 -->
<g id="node4" class="node">
<title>Node4</title>
<g id="a_node4"><a xlink:href="motion__model__test_8cpp.html#acc27b86c37d2d289be41247829ecfaf2" target="_top" xlink:title=" ">
<polygon fill="white" stroke="black" points="113.5,-0.5 113.5,-19.5 155.5,-19.5 155.5,-0.5 113.5,-0.5"/>
<text text-anchor="middle" x="134.5" y="-7.5" font-family="Helvetica,sans-Serif" font-size="10.00">TEST</text>
</a>
</g>
</g>
<!-- Node1&#45;&gt;Node4 -->
<g id="edge3" class="edge">
<title>Node1&#45;&gt;Node4</title>
<path fill="none" stroke="midnightblue" d="M216.78,-21.46C194.35,-18.3 171.54,-15.08 155.82,-12.87"/>
<polygon fill="midnightblue" stroke="midnightblue" points="216.31,-24.93 226.7,-22.86 217.28,-18 216.31,-24.93"/>
</g>
<!-- Node3 -->
<g id="node3" class="node">
<title>Node3</title>
<g id="a_node3"><a xlink:href="slam__test_8cpp.html#aa751639fa208fe991a3ba5969c0daa28" target="_top" xlink:title="Test the EKF SLAM algorithm in a linear movement.">
<polygon fill="white" stroke="black" points="0,-44.5 0,-63.5 42,-63.5 42,-44.5 0,-44.5"/>
<text text-anchor="middle" x="21" y="-51.5" font-family="Helvetica,sans-Serif" font-size="10.00">TEST</text>
</a>
</g>
</g>
<!-- Node2&#45;&gt;Node3 -->
<g id="edge2" class="edge">
<title>Node2&#45;&gt;Node3</title>
<path fill="none" stroke="midnightblue" d="M67.65,-54C58.43,-54 49.59,-54 42.19,-54"/>
<polygon fill="midnightblue" stroke="midnightblue" points="67.75,-57.5 77.75,-54 67.75,-50.5 67.75,-57.5"/>
</g>
</g>
</svg>
