<?xml version="1.0" encoding="UTF-8" standalone="no"?>
<!DOCTYPE svg PUBLIC "-//W3C//DTD SVG 1.1//EN"
 "http://www.w3.org/Graphics/SVG/1.1/DTD/svg11.dtd">
<!-- Generated by graphviz version 2.43.0 (0)
 -->
<!-- Title: ObservationModel::get_observation_noise_covariance_matrix Pages: 1 -->
<svg width="416pt" height="49pt"
 viewBox="0.00 0.00 416.00 49.00" xmlns="http://www.w3.org/2000/svg" xmlns:xlink="http://www.w3.org/1999/xlink">
<g id="graph0" class="graph" transform="scale(1 1) rotate(0) translate(4 45)">
<title>ObservationModel::get_observation_noise_covariance_matrix</title>
<!-- Node1 -->
<g id="Node000001" class="node">
<title>Node1</title>
<g id="a_Node000001"><a xlink:title="Get the observation noise covariance matrix (C or H)">
<polygon fill="#999999" stroke="#666666" points="408,-41 238,-41 238,0 408,0 408,-41"/>
<text text-anchor="start" x="246" y="-29" font-family="Helvetica,sans-Serif" font-size="10.00">ObservationModel::get</text>
<text text-anchor="start" x="246" y="-18" font-family="Helvetica,sans-Serif" font-size="10.00">_observation_noise_covariance</text>
<text text-anchor="middle" x="323" y="-7" font-family="Helvetica,sans-Serif" font-size="10.00">_matrix</text>
</a>
</g>
</g>
<!-- Node2 -->
<g id="Node000002" class="node">
<title>Node2</title>
<g id="a_Node000002"><a xlink:href="classExtendedKalmanFilter.html#a230559bb9193f7acf494ae9e889fb6f8" target="_top" xlink:title="Correction step:">
<polygon fill="white" stroke="#666666" points="202,-35.5 77,-35.5 77,-5.5 202,-5.5 202,-35.5"/>
<text text-anchor="start" x="85" y="-23.5" font-family="Helvetica,sans-Serif" font-size="10.00">ExtendedKalmanFilter</text>
<text text-anchor="middle" x="139.5" y="-12.5" font-family="Helvetica,sans-Serif" font-size="10.00">::correction_step</text>
</a>
</g>
</g>
<!-- Node1&#45;&gt;Node2 -->
<g id="edge1_Node000001_Node000002" class="edge">
<title>Node1&#45;&gt;Node2</title>
<g id="a_edge1_Node000001_Node000002"><a xlink:title=" ">
<path fill="none" stroke="#63b8ff" d="M227.7,-20.5C219.02,-20.5 210.39,-20.5 202.11,-20.5"/>
<polygon fill="#63b8ff" stroke="#63b8ff" points="227.89,-24 237.89,-20.5 227.89,-17 227.89,-24"/>
</a>
</g>
</g>
<!-- Node3 -->
<g id="Node000003" class="node">
<title>Node3</title>
<g id="a_Node000003"><a xlink:href="slam__test_8cpp.html#aa751639fa208fe991a3ba5969c0daa28" target="_top" xlink:title="Test the EKF SLAM algorithm in a linear movement.">
<polygon fill="white" stroke="#666666" points="41,-30 0,-30 0,-11 41,-11 41,-30"/>
<text text-anchor="middle" x="20.5" y="-18" font-family="Helvetica,sans-Serif" font-size="10.00">TEST</text>
</a>
</g>
</g>
<!-- Node2&#45;&gt;Node3 -->
<g id="edge2_Node000002_Node000003" class="edge">
<title>Node2&#45;&gt;Node3</title>
<g id="a_edge2_Node000002_Node000003"><a xlink:title=" ">
<path fill="none" stroke="#63b8ff" d="M66.65,-20.5C57.33,-20.5 48.48,-20.5 41.12,-20.5"/>
<polygon fill="#63b8ff" stroke="#63b8ff" points="66.92,-24 76.92,-20.5 66.92,-17 66.92,-24"/>
</a>
</g>
</g>
</g>
</svg>
