<?xml version="1.0" encoding="UTF-8" standalone="no"?>
<!DOCTYPE svg PUBLIC "-//W3C//DTD SVG 1.1//EN"
 "http://www.w3.org/Graphics/SVG/1.1/DTD/svg11.dtd">
<!-- Generated by graphviz version 2.43.0 (0)
 -->
<!-- Title: ExecTimeTest::fill_X Pages: 1 -->
<svg width="282pt" height="86pt"
 viewBox="0.00 0.00 282.00 86.00" xmlns="http://www.w3.org/2000/svg" xmlns:xlink="http://www.w3.org/1999/xlink">
<g id="graph0" class="graph" transform="scale(1 1) rotate(0) translate(4 82)">
<title>ExecTimeTest::fill_X</title>
<!-- Node1 -->
<g id="Node000001" class="node">
<title>Node1</title>
<g id="a_Node000001"><a xlink:title=" ">
<polygon fill="#999999" stroke="#666666" points="113,-48.5 0,-48.5 0,-29.5 113,-29.5 113,-48.5"/>
<text text-anchor="middle" x="56.5" y="-36.5" font-family="Helvetica,sans-Serif" font-size="10.00">ExecTimeTest::fill_X</text>
</a>
</g>
</g>
<!-- Node2 -->
<g id="Node000002" class="node">
<title>Node2</title>
<g id="a_Node000002"><a xlink:href="classExtendedKalmanFilter.html#a20242ba22cd157af7bcdc1faf3eccf0c" target="_top" xlink:title="pushes back to colors vector">
<polygon fill="white" stroke="#666666" points="274,-78 149,-78 149,-48 274,-48 274,-78"/>
<text text-anchor="start" x="157" y="-66" font-family="Helvetica,sans-Serif" font-size="10.00">ExtendedKalmanFilter</text>
<text text-anchor="middle" x="211.5" y="-55" font-family="Helvetica,sans-Serif" font-size="10.00">::push_to_colors</text>
</a>
</g>
</g>
<!-- Node1&#45;&gt;Node2 -->
<g id="edge1_Node000001_Node000002" class="edge">
<title>Node1&#45;&gt;Node2</title>
<g id="a_edge1_Node000001_Node000002"><a xlink:title=" ">
<path fill="none" stroke="#63b8ff" d="M113.17,-47.73C121.52,-49.04 130.23,-50.41 138.86,-51.76"/>
<polygon fill="#63b8ff" stroke="#63b8ff" points="138.5,-55.25 148.92,-53.34 139.59,-48.33 138.5,-55.25"/>
</a>
</g>
</g>
<!-- Node3 -->
<g id="Node000003" class="node">
<title>Node3</title>
<g id="a_Node000003"><a xlink:href="classExtendedKalmanFilter.html#ada3c7923554c8e0f35bb81ef5bb47f35" target="_top" xlink:title="set X at y">
<polygon fill="white" stroke="#666666" points="274,-30 149,-30 149,0 274,0 274,-30"/>
<text text-anchor="start" x="157" y="-18" font-family="Helvetica,sans-Serif" font-size="10.00">ExtendedKalmanFilter</text>
<text text-anchor="middle" x="211.5" y="-7" font-family="Helvetica,sans-Serif" font-size="10.00">::set_X_y</text>
</a>
</g>
</g>
<!-- Node1&#45;&gt;Node3 -->
<g id="edge2_Node000001_Node000003" class="edge">
<title>Node1&#45;&gt;Node3</title>
<g id="a_edge2_Node000001_Node000003"><a xlink:title=" ">
<path fill="none" stroke="#63b8ff" d="M113.17,-30.27C121.52,-28.96 130.23,-27.59 138.86,-26.24"/>
<polygon fill="#63b8ff" stroke="#63b8ff" points="139.59,-29.67 148.92,-24.66 138.5,-22.75 139.59,-29.67"/>
</a>
</g>
</g>
</g>
</svg>
