<?xml version="1.0" encoding="UTF-8" standalone="no"?>
<!DOCTYPE svg PUBLIC "-//W3C//DTD SVG 1.1//EN"
 "http://www.w3.org/Graphics/SVG/1.1/DTD/svg11.dtd">
<!-- Generated by graphviz version 2.43.0 (0)
 -->
<!-- Title: NormalVelocityModel::get_motion_to_state_matrix Pages: 1 -->
<svg width="208pt" height="138pt"
 viewBox="0.00 0.00 208.00 138.00" xmlns="http://www.w3.org/2000/svg" xmlns:xlink="http://www.w3.org/1999/xlink">
<g id="graph0" class="graph" transform="scale(1 1) rotate(0) translate(4 134)">
<title>NormalVelocityModel::get_motion_to_state_matrix</title>
<!-- Node1 -->
<g id="Node000001" class="node">
<title>Node1</title>
<g id="a_Node000001"><a xlink:title="Calculate state covariance matrix from velocity model using normal motion data Uses translation veloc...">
<polygon fill="#999999" stroke="#666666" points="200,-85 77,-85 77,-44 200,-44 200,-85"/>
<text text-anchor="start" x="85" y="-73" font-family="Helvetica,sans-Serif" font-size="10.00">NormalVelocityModel</text>
<text text-anchor="start" x="85" y="-62" font-family="Helvetica,sans-Serif" font-size="10.00">::get_motion_to_state</text>
<text text-anchor="middle" x="138.5" y="-51" font-family="Helvetica,sans-Serif" font-size="10.00">_matrix</text>
</a>
</g>
</g>
<!-- Node2 -->
<g id="Node000002" class="node">
<title>Node2</title>
<g id="a_Node000002"><a xlink:href="motion__model__test_8cpp.html#a4b4be8c03914d03c683a1fecbcbdf310" target="_top" xlink:title=" ">
<polygon fill="white" stroke="#666666" points="41,-130 0,-130 0,-111 41,-111 41,-130"/>
<text text-anchor="middle" x="20.5" y="-118" font-family="Helvetica,sans-Serif" font-size="10.00">TEST</text>
</a>
</g>
</g>
<!-- Node1&#45;&gt;Node2 -->
<g id="edge1_Node000001_Node000002" class="edge">
<title>Node1&#45;&gt;Node2</title>
<g id="a_edge1_Node000001_Node000002"><a xlink:title=" ">
<path fill="none" stroke="#63b8ff" d="M85.78,-89.47C70,-97.09 53.59,-105.01 41.31,-110.94"/>
<polygon fill="#63b8ff" stroke="#63b8ff" points="87.48,-92.53 94.96,-85.03 84.44,-86.23 87.48,-92.53"/>
</a>
</g>
</g>
<!-- Node3 -->
<g id="Node000003" class="node">
<title>Node3</title>
<g id="a_Node000003"><a xlink:href="motion__model__test_8cpp.html#ac536fb8afc350c3ccd4907c25a507b81" target="_top" xlink:title=" ">
<polygon fill="white" stroke="#666666" points="41,-93 0,-93 0,-74 41,-74 41,-93"/>
<text text-anchor="middle" x="20.5" y="-81" font-family="Helvetica,sans-Serif" font-size="10.00">TEST</text>
</a>
</g>
</g>
<!-- Node1&#45;&gt;Node3 -->
<g id="edge2_Node000001_Node000003" class="edge">
<title>Node1&#45;&gt;Node3</title>
<g id="a_edge2_Node000001_Node000003"><a xlink:title=" ">
<path fill="none" stroke="#63b8ff" d="M66.86,-76.07C57.45,-77.61 48.51,-79.08 41.1,-80.29"/>
<polygon fill="#63b8ff" stroke="#63b8ff" points="67.48,-79.52 76.78,-74.45 66.35,-72.61 67.48,-79.52"/>
</a>
</g>
</g>
<!-- Node4 -->
<g id="Node000004" class="node">
<title>Node4</title>
<g id="a_Node000004"><a xlink:href="motion__model__test_8cpp.html#a985258fd91e481fac6ee05ad73bab7fd" target="_top" xlink:title=" ">
<polygon fill="white" stroke="#666666" points="41,-56 0,-56 0,-37 41,-37 41,-56"/>
<text text-anchor="middle" x="20.5" y="-44" font-family="Helvetica,sans-Serif" font-size="10.00">TEST</text>
</a>
</g>
</g>
<!-- Node1&#45;&gt;Node4 -->
<g id="edge3_Node000001_Node000004" class="edge">
<title>Node1&#45;&gt;Node4</title>
<g id="a_edge3_Node000001_Node000004"><a xlink:title=" ">
<path fill="none" stroke="#63b8ff" d="M66.86,-53.54C57.45,-52.08 48.51,-50.69 41.1,-49.54"/>
<polygon fill="#63b8ff" stroke="#63b8ff" points="66.36,-57 76.78,-55.08 67.44,-50.09 66.36,-57"/>
</a>
</g>
</g>
<!-- Node5 -->
<g id="Node000005" class="node">
<title>Node5</title>
<g id="a_Node000005"><a xlink:href="motion__model__test_8cpp.html#abaac5c4600343357227b100565bf0831" target="_top" xlink:title=" ">
<polygon fill="white" stroke="#666666" points="41,-19 0,-19 0,0 41,0 41,-19"/>
<text text-anchor="middle" x="20.5" y="-7" font-family="Helvetica,sans-Serif" font-size="10.00">TEST</text>
</a>
</g>
</g>
<!-- Node1&#45;&gt;Node5 -->
<g id="edge4_Node000001_Node000005" class="edge">
<title>Node1&#45;&gt;Node5</title>
<g id="a_edge4_Node000001_Node000005"><a xlink:title=" ">
<path fill="none" stroke="#63b8ff" d="M84.92,-39.57C69.39,-32.21 53.33,-24.59 41.26,-18.87"/>
<polygon fill="#63b8ff" stroke="#63b8ff" points="83.44,-42.74 93.98,-43.86 86.44,-36.42 83.44,-42.74"/>
</a>
</g>
</g>
</g>
</svg>
