<?xml version="1.0" encoding="UTF-8" standalone="no"?>
<!DOCTYPE svg PUBLIC "-//W3C//DTD SVG 1.1//EN"
 "http://www.w3.org/Graphics/SVG/1.1/DTD/svg11.dtd">
<!-- Generated by graphviz version 2.43.0 (0)
 -->
<!-- Title: ExtendedKalmanFilter::prediction_step Pages: 1 -->
<svg width="288pt" height="137pt"
 viewBox="0.00 0.00 288.00 137.00" xmlns="http://www.w3.org/2000/svg" xmlns:xlink="http://www.w3.org/1999/xlink">
<g id="graph0" class="graph" transform="scale(1 1) rotate(0) translate(4 133)">
<title>ExtendedKalmanFilter::prediction_step</title>
<polygon fill="white" stroke="transparent" points="-4,4 -4,-133 284,-133 284,4 -4,4"/>
<!-- Node1 -->
<g id="node1" class="node">
<title>Node1</title>
<g id="a_node1"><a xlink:title="Prediction step:">
<polygon fill="#bfbfbf" stroke="black" points="0,-49.5 0,-79.5 113,-79.5 113,-49.5 0,-49.5"/>
<text text-anchor="start" x="8" y="-67.5" font-family="Helvetica,sans-Serif" font-size="10.00">ExtendedKalmanFilter</text>
<text text-anchor="middle" x="56.5" y="-56.5" font-family="Helvetica,sans-Serif" font-size="10.00">::prediction_step</text>
</a>
</g>
</g>
<!-- Node2 -->
<g id="node2" class="node">
<title>Node2</title>
<g id="a_node2"><a xlink:href="classMotionModel.html#a2b34ea48a6e20bb8e53ee73650e56811" target="_top" xlink:title="Calculate state covariance matrix from motion estimation.">
<polygon fill="white" stroke="black" points="151.5,-98.5 151.5,-128.5 277.5,-128.5 277.5,-98.5 151.5,-98.5"/>
<text text-anchor="start" x="159.5" y="-116.5" font-family="Helvetica,sans-Serif" font-size="10.00">MotionModel::get_motion</text>
<text text-anchor="middle" x="214.5" y="-105.5" font-family="Helvetica,sans-Serif" font-size="10.00">_to_state_matrix</text>
</a>
</g>
</g>
<!-- Node1&#45;&gt;Node2 -->
<g id="edge1" class="edge">
<title>Node1&#45;&gt;Node2</title>
<path fill="none" stroke="midnightblue" d="M105.58,-79.6C121.52,-84.61 139.42,-90.23 156,-95.44"/>
<polygon fill="midnightblue" stroke="midnightblue" points="154.99,-98.79 165.58,-98.45 157.09,-92.11 154.99,-98.79"/>
</g>
<!-- Node3 -->
<g id="node3" class="node">
<title>Node3</title>
<g id="a_node3"><a xlink:href="classMotionModel.html#a76de9b7caf93cd717bf388aff40ab589" target="_top" xlink:title="Get the process noise covariance matrix object.">
<polygon fill="white" stroke="black" points="149,-49.5 149,-79.5 280,-79.5 280,-49.5 149,-49.5"/>
<text text-anchor="start" x="157" y="-67.5" font-family="Helvetica,sans-Serif" font-size="10.00">MotionModel::get_process</text>
<text text-anchor="middle" x="214.5" y="-56.5" font-family="Helvetica,sans-Serif" font-size="10.00">_noise_covariance_matrix</text>
</a>
</g>
</g>
<!-- Node1&#45;&gt;Node3 -->
<g id="edge2" class="edge">
<title>Node1&#45;&gt;Node3</title>
<path fill="none" stroke="midnightblue" d="M113.38,-64.5C121.67,-64.5 130.33,-64.5 138.93,-64.5"/>
<polygon fill="midnightblue" stroke="midnightblue" points="138.98,-68 148.98,-64.5 138.98,-61 138.98,-68"/>
</g>
<!-- Node4 -->
<g id="node4" class="node">
<title>Node4</title>
<g id="a_node4"><a xlink:href="classMotionModel.html#a24a7f8fab182b07ba116911cdd33893f" target="_top" xlink:title="Calculate expected state vector from motion estimation.">
<polygon fill="white" stroke="black" points="161,-0.5 161,-30.5 268,-30.5 268,-0.5 161,-0.5"/>
<text text-anchor="start" x="169" y="-18.5" font-family="Helvetica,sans-Serif" font-size="10.00">MotionModel::predict</text>
<text text-anchor="middle" x="214.5" y="-7.5" font-family="Helvetica,sans-Serif" font-size="10.00">_expected_state</text>
</a>
</g>
</g>
<!-- Node1&#45;&gt;Node4 -->
<g id="edge3" class="edge">
<title>Node1&#45;&gt;Node4</title>
<path fill="none" stroke="midnightblue" d="M105.58,-49.4C121.52,-44.39 139.42,-38.77 156,-33.56"/>
<polygon fill="midnightblue" stroke="midnightblue" points="157.09,-36.89 165.58,-30.55 154.99,-30.21 157.09,-36.89"/>
</g>
</g>
</svg>
