<?xml version="1.0" encoding="UTF-8" standalone="no"?>
<!DOCTYPE svg PUBLIC "-//W3C//DTD SVG 1.1//EN"
 "http://www.w3.org/Graphics/SVG/1.1/DTD/svg11.dtd">
<!-- Generated by graphviz version 2.43.0 (0)
 -->
<!-- Title: ObservationModel::observation_model Pages: 1 -->
<svg width="387pt" height="78pt"
 viewBox="0.00 0.00 387.00 77.50" xmlns="http://www.w3.org/2000/svg" xmlns:xlink="http://www.w3.org/1999/xlink">
<g id="graph0" class="graph" transform="scale(1 1) rotate(0) translate(4 73.5)">
<title>ObservationModel::observation_model</title>
<polygon fill="white" stroke="transparent" points="-4,4 -4,-73.5 383,-73.5 383,4 -4,4"/>
<!-- Node1 -->
<g id="node1" class="node">
<title>Node1</title>
<g id="a_node1"><a xlink:title="Calculate expected observation from the state vector.">
<polygon fill="#bfbfbf" stroke="black" points="227,-17 227,-47 379,-47 379,-17 227,-17"/>
<text text-anchor="start" x="235" y="-35" font-family="Helvetica,sans-Serif" font-size="10.00">ObservationModel::observation</text>
<text text-anchor="middle" x="303" y="-24" font-family="Helvetica,sans-Serif" font-size="10.00">_model</text>
</a>
</g>
</g>
<!-- Node2 -->
<g id="node2" class="node">
<title>Node2</title>
<g id="a_node2"><a xlink:href="classExtendedKalmanFilter.html#a230559bb9193f7acf494ae9e889fb6f8" target="_top" xlink:title="Correction step:">
<polygon fill="white" stroke="black" points="78,-39 78,-69 191,-69 191,-39 78,-39"/>
<text text-anchor="start" x="86" y="-57" font-family="Helvetica,sans-Serif" font-size="10.00">ExtendedKalmanFilter</text>
<text text-anchor="middle" x="134.5" y="-46" font-family="Helvetica,sans-Serif" font-size="10.00">::correction_step</text>
</a>
</g>
</g>
<!-- Node1&#45;&gt;Node2 -->
<g id="edge1" class="edge">
<title>Node1&#45;&gt;Node2</title>
<path fill="none" stroke="midnightblue" d="M216.5,-43.3C207.93,-44.43 199.4,-45.56 191.26,-46.63"/>
<polygon fill="midnightblue" stroke="midnightblue" points="217.09,-46.75 226.54,-41.97 216.17,-39.81 217.09,-46.75"/>
</g>
<!-- Node4 -->
<g id="node4" class="node">
<title>Node4</title>
<g id="a_node4"><a xlink:href="observation__model__test_8cpp.html#ace83b03e85ae2ce2ae7e32c548597d3f" target="_top" xlink:title="Test the observation model in a scenario where the vehicle is always aligned with the x axis.">
<polygon fill="white" stroke="black" points="113.5,-0.5 113.5,-19.5 155.5,-19.5 155.5,-0.5 113.5,-0.5"/>
<text text-anchor="middle" x="134.5" y="-7.5" font-family="Helvetica,sans-Serif" font-size="10.00">TEST</text>
</a>
</g>
</g>
<!-- Node1&#45;&gt;Node4 -->
<g id="edge3" class="edge">
<title>Node1&#45;&gt;Node4</title>
<path fill="none" stroke="midnightblue" d="M216.47,-20.7C193.75,-17.7 171.26,-14.73 155.77,-12.68"/>
<polygon fill="midnightblue" stroke="midnightblue" points="216.17,-24.19 226.54,-22.03 217.09,-17.25 216.17,-24.19"/>
</g>
<!-- Node3 -->
<g id="node3" class="node">
<title>Node3</title>
<g id="a_node3"><a xlink:href="slam__test_8cpp.html#aa751639fa208fe991a3ba5969c0daa28" target="_top" xlink:title="Test the EKF SLAM algorithm in a linear movement.">
<polygon fill="white" stroke="black" points="0,-44.5 0,-63.5 42,-63.5 42,-44.5 0,-44.5"/>
<text text-anchor="middle" x="21" y="-51.5" font-family="Helvetica,sans-Serif" font-size="10.00">TEST</text>
</a>
</g>
</g>
<!-- Node2&#45;&gt;Node3 -->
<g id="edge2" class="edge">
<title>Node2&#45;&gt;Node3</title>
<path fill="none" stroke="midnightblue" d="M67.65,-54C58.43,-54 49.59,-54 42.19,-54"/>
<polygon fill="midnightblue" stroke="midnightblue" points="67.75,-57.5 77.75,-54 67.75,-50.5 67.75,-57.5"/>
</g>
</g>
</svg>
