<?xml version="1.0" encoding="UTF-8" standalone="no"?>
<!DOCTYPE svg PUBLIC "-//W3C//DTD SVG 1.1//EN"
 "http://www.w3.org/Graphics/SVG/1.1/DTD/svg11.dtd">
<!-- Generated by graphviz version 2.43.0 (0)
 -->
<!-- Title: ImuVelocityModel::get_motion_to_state_matrix Pages: 1 -->
<svg width="224pt" height="138pt"
 viewBox="0.00 0.00 224.00 138.00" xmlns="http://www.w3.org/2000/svg" xmlns:xlink="http://www.w3.org/1999/xlink">
<g id="graph0" class="graph" transform="scale(1 1) rotate(0) translate(4 134)">
<title>ImuVelocityModel::get_motion_to_state_matrix</title>
<!-- Node1 -->
<g id="Node000001" class="node">
<title>Node1</title>
<g id="a_Node000001"><a xlink:title="Calculate state covariance matrix from velocity model using IMU data and linear functions Uses transl...">
<polygon fill="#999999" stroke="#666666" points="216,-79.5 77,-79.5 77,-49.5 216,-49.5 216,-79.5"/>
<text text-anchor="start" x="85" y="-67.5" font-family="Helvetica,sans-Serif" font-size="10.00">ImuVelocityModel::get</text>
<text text-anchor="middle" x="146.5" y="-56.5" font-family="Helvetica,sans-Serif" font-size="10.00">_motion_to_state_matrix</text>
</a>
</g>
</g>
<!-- Node2 -->
<g id="Node000002" class="node">
<title>Node2</title>
<g id="a_Node000002"><a xlink:href="motion__model__test_8cpp.html#ae0937a30b47fc882eb19bb57e6ca6bbf" target="_top" xlink:title=" ">
<polygon fill="white" stroke="#666666" points="41,-130 0,-130 0,-111 41,-111 41,-130"/>
<text text-anchor="middle" x="20.5" y="-118" font-family="Helvetica,sans-Serif" font-size="10.00">TEST</text>
</a>
</g>
</g>
<!-- Node1&#45;&gt;Node2 -->
<g id="edge1_Node000001_Node000002" class="edge">
<title>Node1&#45;&gt;Node2</title>
<g id="a_edge1_Node000001_Node000002"><a xlink:title=" ">
<path fill="none" stroke="#63b8ff" d="M102.93,-83.73C82.01,-93.17 57.8,-104.1 41.26,-111.58"/>
<polygon fill="#63b8ff" stroke="#63b8ff" points="104.6,-86.81 112.27,-79.51 101.72,-80.43 104.6,-86.81"/>
</a>
</g>
</g>
<!-- Node3 -->
<g id="Node000003" class="node">
<title>Node3</title>
<g id="a_Node000003"><a xlink:href="motion__model__test_8cpp.html#a9c31f0345da32c0c5eaa421433ba5ec3" target="_top" xlink:title=" ">
<polygon fill="white" stroke="#666666" points="41,-93 0,-93 0,-74 41,-74 41,-93"/>
<text text-anchor="middle" x="20.5" y="-81" font-family="Helvetica,sans-Serif" font-size="10.00">TEST</text>
</a>
</g>
</g>
<!-- Node1&#45;&gt;Node3 -->
<g id="edge2_Node000001_Node000003" class="edge">
<title>Node1&#45;&gt;Node3</title>
<g id="a_edge2_Node000001_Node000003"><a xlink:title=" ">
<path fill="none" stroke="#63b8ff" d="M66.95,-76.54C57.49,-77.98 48.59,-79.35 41.21,-80.48"/>
<polygon fill="#63b8ff" stroke="#63b8ff" points="67.62,-79.97 76.97,-75 66.56,-73.06 67.62,-79.97"/>
</a>
</g>
</g>
<!-- Node4 -->
<g id="Node000004" class="node">
<title>Node4</title>
<g id="a_Node000004"><a xlink:href="motion__model__test_8cpp.html#a13d66ed5f0bcb51eb59eaeb8da3fe292" target="_top" xlink:title=" ">
<polygon fill="white" stroke="#666666" points="41,-56 0,-56 0,-37 41,-37 41,-56"/>
<text text-anchor="middle" x="20.5" y="-44" font-family="Helvetica,sans-Serif" font-size="10.00">TEST</text>
</a>
</g>
</g>
<!-- Node1&#45;&gt;Node4 -->
<g id="edge3_Node000001_Node000004" class="edge">
<title>Node1&#45;&gt;Node4</title>
<g id="a_edge3_Node000001_Node000004"><a xlink:title=" ">
<path fill="none" stroke="#63b8ff" d="M66.95,-53.1C57.49,-51.72 48.59,-50.43 41.21,-49.36"/>
<polygon fill="#63b8ff" stroke="#63b8ff" points="66.57,-56.58 76.97,-54.55 67.58,-49.65 66.57,-56.58"/>
</a>
</g>
</g>
<!-- Node5 -->
<g id="Node000005" class="node">
<title>Node5</title>
<g id="a_Node000005"><a xlink:href="motion__model__test_8cpp.html#a6fbede91fc0c55e0beeee30fb29a34bf" target="_top" xlink:title=" ">
<polygon fill="white" stroke="#666666" points="41,-19 0,-19 0,0 41,0 41,-19"/>
<text text-anchor="middle" x="20.5" y="-7" font-family="Helvetica,sans-Serif" font-size="10.00">TEST</text>
</a>
</g>
</g>
<!-- Node1&#45;&gt;Node5 -->
<g id="edge4_Node000001_Node000005" class="edge">
<title>Node1&#45;&gt;Node5</title>
<g id="a_edge4_Node000001_Node000005"><a xlink:title=" ">
<path fill="none" stroke="#63b8ff" d="M102.29,-45.33C81.43,-36.08 57.43,-25.44 41.05,-18.17"/>
<polygon fill="#63b8ff" stroke="#63b8ff" points="101.06,-48.62 111.62,-49.47 103.89,-42.22 101.06,-48.62"/>
</a>
</g>
</g>
</g>
</svg>
