<?xml version="1.0" encoding="UTF-8" standalone="no"?>
<!DOCTYPE svg PUBLIC "-//W3C//DTD SVG 1.1//EN"
 "http://www.w3.org/Graphics/SVG/1.1/DTD/svg11.dtd">
<!-- Generated by graphviz version 2.43.0 (0)
 -->
<!-- Title: MotionModel Pages: 1 -->
<svg width="178pt" height="124pt"
 viewBox="0.00 0.00 178.00 124.00" xmlns="http://www.w3.org/2000/svg" xmlns:xlink="http://www.w3.org/1999/xlink">
<g id="graph0" class="graph" transform="scale(1 1) rotate(0) translate(4 120)">
<title>MotionModel</title>
<!-- Node1 -->
<g id="Node000001" class="node">
<title>Node1</title>
<g id="a_Node000001"><a xlink:title="Abstract Moiton Model class designed to be implemented by the different motion models.">
<polygon fill="#999999" stroke="transparent" points="170,-116 0,-116 0,0 170,0 170,-116"/>
<text text-anchor="start" x="53" y="-104" font-family="Helvetica,sans-Serif" font-size="10.00">MotionModel</text>
<text text-anchor="start" x="83" y="-89" font-family="Helvetica,sans-Serif" font-size="10.00"> </text>
<text text-anchor="start" x="4" y="-74" font-family="Helvetica,sans-Serif" font-size="10.00">+</text>
<text text-anchor="start" x="17" y="-74" font-family="Helvetica,sans-Serif" font-size="10.00">MotionModel()</text>
<text text-anchor="start" x="4" y="-59" font-family="Helvetica,sans-Serif" font-size="10.00">+</text>
<text text-anchor="start" x="17" y="-59" font-family="Helvetica,sans-Serif" font-size="10.00">predict_expected_state()</text>
<text text-anchor="start" x="4" y="-44" font-family="Helvetica,sans-Serif" font-size="10.00">+</text>
<text text-anchor="start" x="17" y="-44" font-family="Helvetica,sans-Serif" font-size="10.00">get_motion_to_state</text>
<text text-anchor="start" x="17" y="-33" font-family="Helvetica,sans-Serif" font-size="10.00">_matrix()</text>
<text text-anchor="start" x="4" y="-18" font-family="Helvetica,sans-Serif" font-size="10.00">+</text>
<text text-anchor="start" x="17" y="-18" font-family="Helvetica,sans-Serif" font-size="10.00">get_process_noise_covariance</text>
<text text-anchor="start" x="17" y="-7" font-family="Helvetica,sans-Serif" font-size="10.00">_matrix()</text>
<polygon fill="#666666" stroke="#666666" points="0,-99 0,-99 170,-99 170,-99 0,-99"/>
<polygon fill="#666666" stroke="#666666" points="0,-84 0,-84 170,-84 170,-84 0,-84"/>
<polygon fill="none" stroke="#666666" points="0,0 0,-116 170,-116 170,0 0,0"/>
</a>
</g>
</g>
</g>
</svg>
