<?xml version="1.0" encoding="UTF-8" standalone="no"?>
<!DOCTYPE svg PUBLIC "-//W3C//DTD SVG 1.1//EN"
 "http://www.w3.org/Graphics/SVG/1.1/DTD/svg11.dtd">
<!-- Generated by graphviz version 2.43.0 (0)
 -->
<!-- Title: NormalVelocityModel::predict_expected_state Pages: 1 -->
<svg width="222pt" height="175pt"
 viewBox="0.00 0.00 222.00 175.00" xmlns="http://www.w3.org/2000/svg" xmlns:xlink="http://www.w3.org/1999/xlink">
<g id="graph0" class="graph" transform="scale(1 1) rotate(0) translate(4 171)">
<title>NormalVelocityModel::predict_expected_state</title>
<!-- Node1 -->
<g id="Node000001" class="node">
<title>Node1</title>
<g id="a_Node000001"><a xlink:title="Calculate expected state vector from velocity model using normal motion data Uses translation velocit...">
<polygon fill="#999999" stroke="#666666" points="214,-98.5 77,-98.5 77,-68.5 214,-68.5 214,-98.5"/>
<text text-anchor="start" x="85" y="-86.5" font-family="Helvetica,sans-Serif" font-size="10.00">NormalVelocityModel</text>
<text text-anchor="middle" x="145.5" y="-75.5" font-family="Helvetica,sans-Serif" font-size="10.00">::predict_expected_state</text>
</a>
</g>
</g>
<!-- Node2 -->
<g id="Node000002" class="node">
<title>Node2</title>
<g id="a_Node000002"><a xlink:href="motion__model__test_8cpp.html#a89bd5d192ba500ce6cd5d7ff246df691" target="_top" xlink:title=" ">
<polygon fill="white" stroke="#666666" points="41,-167 0,-167 0,-148 41,-148 41,-167"/>
<text text-anchor="middle" x="20.5" y="-155" font-family="Helvetica,sans-Serif" font-size="10.00">TEST</text>
</a>
</g>
</g>
<!-- Node1&#45;&gt;Node2 -->
<g id="edge1_Node000001_Node000002" class="edge">
<title>Node1&#45;&gt;Node2</title>
<g id="a_edge1_Node000001_Node000002"><a xlink:title=" ">
<path fill="none" stroke="#63b8ff" d="M110.53,-103.94C86.61,-118.33 55.69,-136.93 37.29,-148"/>
<polygon fill="#63b8ff" stroke="#63b8ff" points="112.55,-106.81 119.31,-98.65 108.94,-100.81 112.55,-106.81"/>
</a>
</g>
</g>
<!-- Node3 -->
<g id="Node000003" class="node">
<title>Node3</title>
<g id="a_Node000003"><a xlink:href="motion__model__test_8cpp.html#a4b4be8c03914d03c683a1fecbcbdf310" target="_top" xlink:title=" ">
<polygon fill="white" stroke="#666666" points="41,-130 0,-130 0,-111 41,-111 41,-130"/>
<text text-anchor="middle" x="20.5" y="-118" font-family="Helvetica,sans-Serif" font-size="10.00">TEST</text>
</a>
</g>
</g>
<!-- Node1&#45;&gt;Node3 -->
<g id="edge2_Node000001_Node000003" class="edge">
<title>Node1&#45;&gt;Node3</title>
<g id="a_edge2_Node000001_Node000003"><a xlink:title=" ">
<path fill="none" stroke="#63b8ff" d="M84.71,-101.49C68.93,-106.23 53.01,-111.02 41.09,-114.61"/>
<polygon fill="#63b8ff" stroke="#63b8ff" points="85.9,-104.78 94.47,-98.55 83.89,-98.08 85.9,-104.78"/>
</a>
</g>
</g>
<!-- Node4 -->
<g id="Node000004" class="node">
<title>Node4</title>
<g id="a_Node000004"><a xlink:href="motion__model__test_8cpp.html#ac536fb8afc350c3ccd4907c25a507b81" target="_top" xlink:title=" ">
<polygon fill="white" stroke="#666666" points="41,-93 0,-93 0,-74 41,-74 41,-93"/>
<text text-anchor="middle" x="20.5" y="-81" font-family="Helvetica,sans-Serif" font-size="10.00">TEST</text>
</a>
</g>
</g>
<!-- Node1&#45;&gt;Node4 -->
<g id="edge3_Node000001_Node000004" class="edge">
<title>Node1&#45;&gt;Node4</title>
<g id="a_edge3_Node000001_Node000004"><a xlink:title=" ">
<path fill="none" stroke="#63b8ff" d="M66.6,-83.5C57.27,-83.5 48.49,-83.5 41.2,-83.5"/>
<polygon fill="#63b8ff" stroke="#63b8ff" points="66.88,-87 76.88,-83.5 66.88,-80 66.88,-87"/>
</a>
</g>
</g>
<!-- Node5 -->
<g id="Node000005" class="node">
<title>Node5</title>
<g id="a_Node000005"><a xlink:href="motion__model__test_8cpp.html#a985258fd91e481fac6ee05ad73bab7fd" target="_top" xlink:title=" ">
<polygon fill="white" stroke="#666666" points="41,-56 0,-56 0,-37 41,-37 41,-56"/>
<text text-anchor="middle" x="20.5" y="-44" font-family="Helvetica,sans-Serif" font-size="10.00">TEST</text>
</a>
</g>
</g>
<!-- Node1&#45;&gt;Node5 -->
<g id="edge4_Node000001_Node000005" class="edge">
<title>Node1&#45;&gt;Node5</title>
<g id="a_edge4_Node000001_Node000005"><a xlink:title=" ">
<path fill="none" stroke="#63b8ff" d="M84.71,-65.51C68.93,-60.77 53.01,-55.98 41.09,-52.39"/>
<polygon fill="#63b8ff" stroke="#63b8ff" points="83.89,-68.92 94.47,-68.45 85.9,-62.22 83.89,-68.92"/>
</a>
</g>
</g>
<!-- Node6 -->
<g id="Node000006" class="node">
<title>Node6</title>
<g id="a_Node000006"><a xlink:href="motion__model__test_8cpp.html#abaac5c4600343357227b100565bf0831" target="_top" xlink:title=" ">
<polygon fill="white" stroke="#666666" points="41,-19 0,-19 0,0 41,0 41,-19"/>
<text text-anchor="middle" x="20.5" y="-7" font-family="Helvetica,sans-Serif" font-size="10.00">TEST</text>
</a>
</g>
</g>
<!-- Node1&#45;&gt;Node6 -->
<g id="edge5_Node000001_Node000006" class="edge">
<title>Node1&#45;&gt;Node6</title>
<g id="a_edge5_Node000001_Node000006"><a xlink:title=" ">
<path fill="none" stroke="#63b8ff" d="M110.53,-63.06C86.61,-48.67 55.69,-30.07 37.29,-19"/>
<polygon fill="#63b8ff" stroke="#63b8ff" points="108.94,-66.19 119.31,-68.35 112.55,-60.19 108.94,-66.19"/>
</a>
</g>
</g>
</g>
</svg>
