<?xml version="1.0" encoding="UTF-8" standalone="no"?>
<!DOCTYPE svg PUBLIC "-//W3C//DTD SVG 1.1//EN"
 "http://www.w3.org/Graphics/SVG/1.1/DTD/svg11.dtd">
<!-- Generated by graphviz version 2.43.0 (0)
 -->
<!-- Title: ExecTimeTest Pages: 1 -->
<svg width="937pt" height="791pt"
 viewBox="0.00 0.00 936.50 791.00" xmlns="http://www.w3.org/2000/svg" xmlns:xlink="http://www.w3.org/1999/xlink">
<g id="graph0" class="graph" transform="scale(1 1) rotate(0) translate(4 787)">
<title>ExecTimeTest</title>
<!-- Node1 -->
<g id="Node000001" class="node">
<title>Node1</title>
<g id="a_Node000001"><a xlink:title=" ">
<polygon fill="#999999" stroke="transparent" points="459,-259 315,-259 315,0 459,0 459,-259"/>
<text text-anchor="start" x="353.5" y="-246.5" font-family="Helvetica,sans-Serif" font-size="10.00">ExecTimeTest</text>
<text text-anchor="start" x="319" y="-231.5" font-family="Helvetica,sans-Serif" font-size="10.00">#</text>
<text text-anchor="start" x="332" y="-231.5" font-family="Helvetica,sans-Serif" font-size="10.00">Q_test</text>
<text text-anchor="start" x="319" y="-216.5" font-family="Helvetica,sans-Serif" font-size="10.00">#</text>
<text text-anchor="start" x="332" y="-216.5" font-family="Helvetica,sans-Serif" font-size="10.00">R_test</text>
<text text-anchor="start" x="319" y="-201.5" font-family="Helvetica,sans-Serif" font-size="10.00">#</text>
<text text-anchor="start" x="332" y="-201.5" font-family="Helvetica,sans-Serif" font-size="10.00">use_odometry_test</text>
<text text-anchor="start" x="319" y="-186.5" font-family="Helvetica,sans-Serif" font-size="10.00">#</text>
<text text-anchor="start" x="332" y="-186.5" font-family="Helvetica,sans-Serif" font-size="10.00">helper</text>
<text text-anchor="start" x="319" y="-171.5" font-family="Helvetica,sans-Serif" font-size="10.00">#</text>
<text text-anchor="start" x="332" y="-171.5" font-family="Helvetica,sans-Serif" font-size="10.00">receiver_publisher_mock</text>
<text text-anchor="start" x="319" y="-156.5" font-family="Helvetica,sans-Serif" font-size="10.00">#</text>
<text text-anchor="start" x="332" y="-156.5" font-family="Helvetica,sans-Serif" font-size="10.00">lm_node_test</text>
<text text-anchor="start" x="319" y="-141.5" font-family="Helvetica,sans-Serif" font-size="10.00">#</text>
<text text-anchor="start" x="332" y="-141.5" font-family="Helvetica,sans-Serif" font-size="10.00">cone_array_msg</text>
<text text-anchor="start" x="319" y="-126.5" font-family="Helvetica,sans-Serif" font-size="10.00">#</text>
<text text-anchor="start" x="332" y="-126.5" font-family="Helvetica,sans-Serif" font-size="10.00">cones_publisher</text>
<text text-anchor="start" x="319" y="-111.5" font-family="Helvetica,sans-Serif" font-size="10.00">#</text>
<text text-anchor="start" x="332" y="-111.5" font-family="Helvetica,sans-Serif" font-size="10.00">received_pose</text>
<text text-anchor="start" x="319" y="-96.5" font-family="Helvetica,sans-Serif" font-size="10.00">#</text>
<text text-anchor="start" x="332" y="-96.5" font-family="Helvetica,sans-Serif" font-size="10.00">received_track_map</text>
<text text-anchor="start" x="332" y="-81.5" font-family="Helvetica,sans-Serif" font-size="10.00">and 8 more...</text>
<text text-anchor="start" x="319" y="-66.5" font-family="Helvetica,sans-Serif" font-size="10.00">#</text>
<text text-anchor="start" x="332" y="-66.5" font-family="Helvetica,sans-Serif" font-size="10.00">print_to_file()</text>
<text text-anchor="start" x="319" y="-51.5" font-family="Helvetica,sans-Serif" font-size="10.00">#</text>
<text text-anchor="start" x="332" y="-51.5" font-family="Helvetica,sans-Serif" font-size="10.00">fill_X()</text>
<text text-anchor="start" x="319" y="-36.5" font-family="Helvetica,sans-Serif" font-size="10.00">#</text>
<text text-anchor="start" x="332" y="-36.5" font-family="Helvetica,sans-Serif" font-size="10.00">fill_cone_array()</text>
<text text-anchor="start" x="319" y="-21.5" font-family="Helvetica,sans-Serif" font-size="10.00">#</text>
<text text-anchor="start" x="332" y="-21.5" font-family="Helvetica,sans-Serif" font-size="10.00">SetUp()</text>
<text text-anchor="start" x="319" y="-6.5" font-family="Helvetica,sans-Serif" font-size="10.00">#</text>
<text text-anchor="start" x="332" y="-6.5" font-family="Helvetica,sans-Serif" font-size="10.00">TearDown()</text>
<polygon fill="#666666" stroke="#666666" points="315,-241.5 315,-241.5 459,-241.5 459,-241.5 315,-241.5"/>
<polygon fill="#666666" stroke="#666666" points="315,-76.5 315,-76.5 330,-76.5 330,-76.5 315,-76.5"/>
<polygon fill="#666666" stroke="#666666" points="330,-76.5 330,-76.5 459,-76.5 459,-76.5 330,-76.5"/>
<polygon fill="none" stroke="#666666" points="315,0 315,-259 459,-259 459,0 315,0"/>
</a>
</g>
</g>
<!-- Node2 -->
<g id="Node000002" class="node">
<title>Node2</title>
<g id="a_Node000002"><a xlink:title=" ">
<polygon fill="white" stroke="transparent" points="70,-448.5 0,-448.5 0,-399.5 70,-399.5 70,-448.5"/>
<text text-anchor="start" x="5" y="-436" font-family="Helvetica,sans-Serif" font-size="10.00">testing::Test</text>
<text text-anchor="start" x="33" y="-421" font-family="Helvetica,sans-Serif" font-size="10.00"> </text>
<text text-anchor="start" x="33" y="-406" font-family="Helvetica,sans-Serif" font-size="10.00"> </text>
<polygon fill="#666666" stroke="#666666" points="0,-431 0,-431 70,-431 70,-431 0,-431"/>
<polygon fill="#666666" stroke="#666666" points="0,-416 0,-416 70,-416 70,-416 0,-416"/>
<polygon fill="none" stroke="#666666" points="0,-399.5 0,-448.5 70,-448.5 70,-399.5 0,-399.5"/>
</a>
</g>
</g>
<!-- Node2&#45;&gt;Node1 -->
<g id="edge1_Node000001_Node000002" class="edge">
<title>Node2&#45;&gt;Node1</title>
<g id="a_edge1_Node000001_Node000002"><a xlink:title=" ">
<path fill="none" stroke="#63b8ff" d="M43.07,-389.47C49.78,-367.04 61.17,-337.9 79,-317 143.31,-241.62 246.05,-188.09 314.98,-158.25"/>
<polygon fill="none" stroke="#63b8ff" points="39.66,-388.68 40.31,-399.26 46.39,-390.59 39.66,-388.68"/>
</a>
</g>
</g>
<!-- Node3 -->
<g id="Node000003" class="node">
<title>Node3</title>
<g id="a_Node000003"><a xlink:href="structVehicleState.html" target="_top" xlink:title="Struct for state of the vehicle.">
<polygon fill="white" stroke="transparent" points="167.5,-448.5 88.5,-448.5 88.5,-399.5 167.5,-399.5 167.5,-448.5"/>
<text text-anchor="start" x="98" y="-436" font-family="Helvetica,sans-Serif" font-size="10.00">VehicleState</text>
<text text-anchor="start" x="93" y="-421" font-family="Helvetica,sans-Serif" font-size="10.00">+</text>
<text text-anchor="start" x="106" y="-421" font-family="Helvetica,sans-Serif" font-size="10.00">last_update</text>
<text text-anchor="start" x="126.5" y="-406" font-family="Helvetica,sans-Serif" font-size="10.00"> </text>
<polygon fill="#666666" stroke="#666666" points="89,-431 89,-431 168,-431 168,-431 89,-431"/>
<polygon fill="#666666" stroke="#666666" points="89,-416 89,-416 104,-416 104,-416 89,-416"/>
<polygon fill="#666666" stroke="#666666" points="104,-416 104,-416 168,-416 168,-416 104,-416"/>
<polygon fill="none" stroke="#666666" points="88.5,-399.5 88.5,-448.5 167.5,-448.5 167.5,-399.5 88.5,-399.5"/>
</a>
</g>
</g>
<!-- Node3&#45;&gt;Node1 -->
<g id="edge2_Node000001_Node000003" class="edge">
<title>Node3&#45;&gt;Node1</title>
<g id="a_edge2_Node000001_Node000003"><a xlink:title=" ">
<path fill="none" stroke="#63b8ff" d="M127.61,-399.34C128.23,-368.53 133.3,-314.21 159,-277 194.42,-225.71 254.24,-188.27 303.72,-164.09"/>
<polygon fill="none" stroke="#63b8ff" points="303.93,-163.99 307.62,-157.8 314.76,-158.82 311.06,-165.02 303.93,-163.99"/>
</a>
</g>
<text text-anchor="middle" x="209.5" y="-285.5" font-family="Helvetica,sans-Serif" font-size="10.00" fill="grey"> #vehicle_state_test</text>
</g>
<!-- Node4 -->
<g id="Node000004" class="node">
<title>Node4</title>
<g id="a_Node000004"><a xlink:href="structPose.html" target="_top" xlink:title="Struct for pose representation.">
<polygon fill="white" stroke="transparent" points="165.5,-657 90.5,-657 90.5,-578 165.5,-578 165.5,-657"/>
<text text-anchor="start" x="116.5" y="-644.5" font-family="Helvetica,sans-Serif" font-size="10.00">Pose</text>
<text text-anchor="start" x="95" y="-629.5" font-family="Helvetica,sans-Serif" font-size="10.00">+</text>
<text text-anchor="start" x="108" y="-629.5" font-family="Helvetica,sans-Serif" font-size="10.00">orientation</text>
<text text-anchor="start" x="95" y="-614.5" font-family="Helvetica,sans-Serif" font-size="10.00">+</text>
<text text-anchor="start" x="108" y="-614.5" font-family="Helvetica,sans-Serif" font-size="10.00">Pose()</text>
<text text-anchor="start" x="95" y="-599.5" font-family="Helvetica,sans-Serif" font-size="10.00">+</text>
<text text-anchor="start" x="108" y="-599.5" font-family="Helvetica,sans-Serif" font-size="10.00">Pose()</text>
<text text-anchor="start" x="95" y="-584.5" font-family="Helvetica,sans-Serif" font-size="10.00">+</text>
<text text-anchor="start" x="108" y="-584.5" font-family="Helvetica,sans-Serif" font-size="10.00">Pose()</text>
<polygon fill="#666666" stroke="#666666" points="91,-639.5 91,-639.5 166,-639.5 166,-639.5 91,-639.5"/>
<polygon fill="#666666" stroke="#666666" points="91,-624.5 91,-624.5 106,-624.5 106,-624.5 91,-624.5"/>
<polygon fill="#666666" stroke="#666666" points="106,-624.5 106,-624.5 166,-624.5 166,-624.5 106,-624.5"/>
<polygon fill="none" stroke="#666666" points="90.5,-578 90.5,-657 165.5,-657 165.5,-578 90.5,-578"/>
</a>
</g>
</g>
<!-- Node4&#45;&gt;Node3 -->
<g id="edge3_Node000003_Node000004" class="edge">
<title>Node4&#45;&gt;Node3</title>
<g id="a_edge3_Node000003_Node000004"><a xlink:title=" ">
<path fill="none" stroke="#63b8ff" d="M128,-577.75C128,-543.59 128,-494.22 128,-460.94"/>
<polygon fill="none" stroke="#63b8ff" points="128,-460.61 124,-454.61 128,-448.61 132,-454.61 128,-460.61"/>
</a>
</g>
<text text-anchor="middle" x="145.5" y="-552" font-family="Helvetica,sans-Serif" font-size="10.00" fill="grey"> +pose</text>
</g>
<!-- Node5 -->
<g id="Node000005" class="node">
<title>Node5</title>
<g id="a_Node000005"><a xlink:href="structPosition.html" target="_top" xlink:title="Struct for position.">
<polygon fill="white" stroke="transparent" points="162,-783 94,-783 94,-704 162,-704 162,-783"/>
<text text-anchor="start" x="108" y="-770.5" font-family="Helvetica,sans-Serif" font-size="10.00">Position</text>
<text text-anchor="start" x="98" y="-755.5" font-family="Helvetica,sans-Serif" font-size="10.00">+</text>
<text text-anchor="start" x="111" y="-755.5" font-family="Helvetica,sans-Serif" font-size="10.00">x</text>
<text text-anchor="start" x="98" y="-740.5" font-family="Helvetica,sans-Serif" font-size="10.00">+</text>
<text text-anchor="start" x="111" y="-740.5" font-family="Helvetica,sans-Serif" font-size="10.00">y</text>
<text text-anchor="start" x="98" y="-725.5" font-family="Helvetica,sans-Serif" font-size="10.00">+</text>
<text text-anchor="start" x="111" y="-725.5" font-family="Helvetica,sans-Serif" font-size="10.00">Position()</text>
<text text-anchor="start" x="98" y="-710.5" font-family="Helvetica,sans-Serif" font-size="10.00">+</text>
<text text-anchor="start" x="111" y="-710.5" font-family="Helvetica,sans-Serif" font-size="10.00">Position()</text>
<polygon fill="#666666" stroke="#666666" points="94,-765.5 94,-765.5 162,-765.5 162,-765.5 94,-765.5"/>
<polygon fill="#666666" stroke="#666666" points="94,-735.5 94,-735.5 109,-735.5 109,-735.5 94,-735.5"/>
<polygon fill="#666666" stroke="#666666" points="109,-735.5 109,-735.5 162,-735.5 162,-735.5 109,-735.5"/>
<polygon fill="none" stroke="#666666" points="94,-704 94,-783 162,-783 162,-704 94,-704"/>
</a>
</g>
</g>
<!-- Node5&#45;&gt;Node4 -->
<g id="edge4_Node000004_Node000005" class="edge">
<title>Node5&#45;&gt;Node4</title>
<g id="a_edge4_Node000004_Node000005"><a xlink:title=" ">
<path fill="none" stroke="#63b8ff" d="M128,-703.95C128,-692.98 128,-680.87 128,-669.3"/>
<polygon fill="none" stroke="#63b8ff" points="128,-669.03 124,-663.03 128,-657.03 132,-663.03 128,-669.03"/>
</a>
</g>
<text text-anchor="middle" x="153.5" y="-678" font-family="Helvetica,sans-Serif" font-size="10.00" fill="grey"> +position</text>
</g>
<!-- Node6 -->
<g id="Node000006" class="node">
<title>Node6</title>
<g id="a_Node000006"><a xlink:href="structMotionUpdate.html" target="_top" xlink:title="Struct for data retrieved by the IMU.">
<polygon fill="white" stroke="transparent" points="324.5,-486 185.5,-486 185.5,-362 324.5,-362 324.5,-486"/>
<text text-anchor="start" x="220.5" y="-474" font-family="Helvetica,sans-Serif" font-size="10.00">MotionUpdate</text>
<text text-anchor="start" x="190" y="-459" font-family="Helvetica,sans-Serif" font-size="10.00">+</text>
<text text-anchor="start" x="203" y="-459" font-family="Helvetica,sans-Serif" font-size="10.00">translational_velocity</text>
<text text-anchor="start" x="190" y="-444" font-family="Helvetica,sans-Serif" font-size="10.00">+</text>
<text text-anchor="start" x="203" y="-444" font-family="Helvetica,sans-Serif" font-size="10.00">translational_velocity_x</text>
<text text-anchor="start" x="190" y="-429" font-family="Helvetica,sans-Serif" font-size="10.00">+</text>
<text text-anchor="start" x="203" y="-429" font-family="Helvetica,sans-Serif" font-size="10.00">translational_velocity_y</text>
<text text-anchor="start" x="190" y="-414" font-family="Helvetica,sans-Serif" font-size="10.00">+</text>
<text text-anchor="start" x="203" y="-414" font-family="Helvetica,sans-Serif" font-size="10.00">rotational_velocity</text>
<text text-anchor="start" x="190" y="-399" font-family="Helvetica,sans-Serif" font-size="10.00">+</text>
<text text-anchor="start" x="203" y="-399" font-family="Helvetica,sans-Serif" font-size="10.00">steering_angle</text>
<text text-anchor="start" x="190" y="-384" font-family="Helvetica,sans-Serif" font-size="10.00">+</text>
<text text-anchor="start" x="203" y="-384" font-family="Helvetica,sans-Serif" font-size="10.00">last_update</text>
<text text-anchor="start" x="253.5" y="-369" font-family="Helvetica,sans-Serif" font-size="10.00"> </text>
<polygon fill="#666666" stroke="#666666" points="186,-469 186,-469 325,-469 325,-469 186,-469"/>
<polygon fill="#666666" stroke="#666666" points="186,-379 186,-379 201,-379 201,-379 186,-379"/>
<polygon fill="#666666" stroke="#666666" points="201,-379 201,-379 325,-379 325,-379 201,-379"/>
<polygon fill="none" stroke="#666666" points="185.5,-362 185.5,-486 324.5,-486 324.5,-362 185.5,-362"/>
</a>
</g>
</g>
<!-- Node6&#45;&gt;Node1 -->
<g id="edge5_Node000001_Node000006" class="edge">
<title>Node6&#45;&gt;Node1</title>
<g id="a_edge5_Node000001_Node000006"><a xlink:title=" ">
<path fill="none" stroke="#63b8ff" d="M254.18,-361.82C255.7,-334.95 260.11,-303.54 271,-277 279.96,-255.18 293.18,-233.93 307.53,-214.7"/>
<polygon fill="none" stroke="#63b8ff" points="307.58,-214.64 308.06,-207.45 314.89,-205.13 314.4,-212.32 307.58,-214.64"/>
</a>
</g>
<text text-anchor="middle" x="325.5" y="-285.5" font-family="Helvetica,sans-Serif" font-size="10.00" fill="grey"> #motion_update_test</text>
</g>
<!-- Node7 -->
<g id="Node000007" class="node">
<title>Node7</title>
<g id="a_Node000007"><a xlink:href="structConeMap.html" target="_top" xlink:title="Struct for cone map.">
<polygon fill="white" stroke="transparent" points="421.5,-456 342.5,-456 342.5,-392 421.5,-392 421.5,-456"/>
<text text-anchor="start" x="359.5" y="-444" font-family="Helvetica,sans-Serif" font-size="10.00">ConeMap</text>
<text text-anchor="start" x="347" y="-429" font-family="Helvetica,sans-Serif" font-size="10.00">+</text>
<text text-anchor="start" x="360" y="-429" font-family="Helvetica,sans-Serif" font-size="10.00">map</text>
<text text-anchor="start" x="347" y="-414" font-family="Helvetica,sans-Serif" font-size="10.00">+</text>
<text text-anchor="start" x="360" y="-414" font-family="Helvetica,sans-Serif" font-size="10.00">last_update</text>
<text text-anchor="start" x="380.5" y="-399" font-family="Helvetica,sans-Serif" font-size="10.00"> </text>
<polygon fill="#666666" stroke="#666666" points="343,-439 343,-439 422,-439 422,-439 343,-439"/>
<polygon fill="#666666" stroke="#666666" points="343,-409 343,-409 358,-409 358,-409 343,-409"/>
<polygon fill="#666666" stroke="#666666" points="358,-409 358,-409 422,-409 422,-409 358,-409"/>
<polygon fill="none" stroke="#666666" points="342.5,-392 342.5,-456 421.5,-456 421.5,-392 342.5,-392"/>
</a>
</g>
</g>
<!-- Node7&#45;&gt;Node1 -->
<g id="edge6_Node000001_Node000007" class="edge">
<title>Node7&#45;&gt;Node1</title>
<g id="a_edge6_Node000001_Node000007"><a xlink:title=" ">
<path fill="none" stroke="#63b8ff" d="M382.53,-391.97C383.03,-362.69 383.82,-316.61 384.59,-271.24"/>
<polygon fill="none" stroke="#63b8ff" points="384.6,-271.1 380.7,-265.04 384.8,-259.11 388.7,-265.17 384.6,-271.1"/>
</a>
</g>
<text text-anchor="middle" x="441.5" y="-291" font-family="Helvetica,sans-Serif" font-size="10.00" fill="grey"> #perception_map_test</text>
<text text-anchor="middle" x="441.5" y="-280" font-family="Helvetica,sans-Serif" font-size="10.00" fill="grey">#track_map_test</text>
</g>
<!-- Node8 -->
<g id="Node000008" class="node">
<title>Node8</title>
<g id="a_Node000008"><a xlink:href="classMotionModel.html" target="_top" xlink:title="Abstract Moiton Model class designed to be implemented by the different motion models.">
<polygon fill="white" stroke="transparent" points="610,-482 440,-482 440,-366 610,-366 610,-482"/>
<text text-anchor="start" x="493" y="-470" font-family="Helvetica,sans-Serif" font-size="10.00">MotionModel</text>
<text text-anchor="start" x="523" y="-455" font-family="Helvetica,sans-Serif" font-size="10.00"> </text>
<text text-anchor="start" x="444" y="-440" font-family="Helvetica,sans-Serif" font-size="10.00">+</text>
<text text-anchor="start" x="457" y="-440" font-family="Helvetica,sans-Serif" font-size="10.00">MotionModel()</text>
<text text-anchor="start" x="444" y="-425" font-family="Helvetica,sans-Serif" font-size="10.00">+</text>
<text text-anchor="start" x="457" y="-425" font-family="Helvetica,sans-Serif" font-size="10.00">predict_expected_state()</text>
<text text-anchor="start" x="444" y="-410" font-family="Helvetica,sans-Serif" font-size="10.00">+</text>
<text text-anchor="start" x="457" y="-410" font-family="Helvetica,sans-Serif" font-size="10.00">get_motion_to_state</text>
<text text-anchor="start" x="457" y="-399" font-family="Helvetica,sans-Serif" font-size="10.00">_matrix()</text>
<text text-anchor="start" x="444" y="-384" font-family="Helvetica,sans-Serif" font-size="10.00">+</text>
<text text-anchor="start" x="457" y="-384" font-family="Helvetica,sans-Serif" font-size="10.00">get_process_noise_covariance</text>
<text text-anchor="start" x="457" y="-373" font-family="Helvetica,sans-Serif" font-size="10.00">_matrix()</text>
<polygon fill="#666666" stroke="#666666" points="440,-465 440,-465 610,-465 610,-465 440,-465"/>
<polygon fill="#666666" stroke="#666666" points="440,-450 440,-450 610,-450 610,-450 440,-450"/>
<polygon fill="none" stroke="#666666" points="440,-366 440,-482 610,-482 610,-366 440,-366"/>
</a>
</g>
</g>
<!-- Node8&#45;&gt;Node1 -->
<g id="edge7_Node000001_Node000008" class="edge">
<title>Node8&#45;&gt;Node1</title>
<g id="a_edge7_Node000001_Node000008"><a xlink:title=" ">
<path fill="none" stroke="#63b8ff" d="M523.22,-365.65C520.66,-337.93 515.05,-304.74 503,-277 493.76,-255.71 480.62,-234.89 466.49,-215.92"/>
<polygon fill="none" stroke="#63b8ff" points="466.33,-215.71 459.5,-213.38 459.03,-206.18 465.85,-208.51 466.33,-215.71"/>
</a>
</g>
<text text-anchor="middle" x="562" y="-285.5" font-family="Helvetica,sans-Serif" font-size="10.00" fill="grey"> #motion_model_test</text>
</g>
<!-- Node9 -->
<g id="Node000009" class="node">
<title>Node9</title>
<g id="a_Node000009"><a xlink:href="classObservationModel.html" target="_top" xlink:title="Observation Model class compiled of functions for observation model.">
<polygon fill="white" stroke="transparent" points="773.5,-495 628.5,-495 628.5,-353 773.5,-353 773.5,-495"/>
<text text-anchor="start" x="656.5" y="-483" font-family="Helvetica,sans-Serif" font-size="10.00">ObservationModel</text>
<text text-anchor="start" x="699.5" y="-468" font-family="Helvetica,sans-Serif" font-size="10.00"> </text>
<text text-anchor="start" x="633" y="-453" font-family="Helvetica,sans-Serif" font-size="10.00">+</text>
<text text-anchor="start" x="646" y="-453" font-family="Helvetica,sans-Serif" font-size="10.00">ObservationModel()</text>
<text text-anchor="start" x="633" y="-438" font-family="Helvetica,sans-Serif" font-size="10.00">+</text>
<text text-anchor="start" x="646" y="-438" font-family="Helvetica,sans-Serif" font-size="10.00">observation_model()</text>
<text text-anchor="start" x="633" y="-423" font-family="Helvetica,sans-Serif" font-size="10.00">+</text>
<text text-anchor="start" x="646" y="-423" font-family="Helvetica,sans-Serif" font-size="10.00">inverse_observation</text>
<text text-anchor="start" x="646" y="-412" font-family="Helvetica,sans-Serif" font-size="10.00">_model()</text>
<text text-anchor="start" x="633" y="-397" font-family="Helvetica,sans-Serif" font-size="10.00">+</text>
<text text-anchor="start" x="646" y="-397" font-family="Helvetica,sans-Serif" font-size="10.00">get_state_to_observation</text>
<text text-anchor="start" x="646" y="-386" font-family="Helvetica,sans-Serif" font-size="10.00">_matrix()</text>
<text text-anchor="start" x="633" y="-371" font-family="Helvetica,sans-Serif" font-size="10.00">+</text>
<text text-anchor="start" x="646" y="-371" font-family="Helvetica,sans-Serif" font-size="10.00">get_observation_noise</text>
<text text-anchor="start" x="646" y="-360" font-family="Helvetica,sans-Serif" font-size="10.00">_covariance_matrix()</text>
<polygon fill="#666666" stroke="#666666" points="629,-478 629,-478 774,-478 774,-478 629,-478"/>
<polygon fill="#666666" stroke="#666666" points="629,-463 629,-463 774,-463 774,-463 629,-463"/>
<polygon fill="none" stroke="#666666" points="628.5,-353 628.5,-495 773.5,-495 773.5,-353 628.5,-353"/>
</a>
</g>
</g>
<!-- Node9&#45;&gt;Node1 -->
<g id="edge8_Node000001_Node000009" class="edge">
<title>Node9&#45;&gt;Node1</title>
<g id="a_edge8_Node000001_Node000009"><a xlink:title=" ">
<path fill="none" stroke="#63b8ff" d="M670.62,-352.89C657.26,-327.13 639.82,-298.92 619,-277 576.53,-232.29 517.68,-195.33 469.89,-169.72"/>
<polygon fill="none" stroke="#63b8ff" points="469.86,-169.71 462.68,-170.44 459.24,-164.11 466.42,-163.37 469.86,-169.71"/>
</a>
</g>
<text text-anchor="middle" x="701" y="-285.5" font-family="Helvetica,sans-Serif" font-size="10.00" fill="grey"> #observation_model_test</text>
</g>
<!-- Node10 -->
<g id="Node000010" class="node">
<title>Node10</title>
<g id="a_Node000010"><a xlink:href="classExtendedKalmanFilter.html" target="_top" xlink:title="Extended Kalman Filter class.">
<polygon fill="white" stroke="transparent" points="928.5,-531 791.5,-531 791.5,-317 928.5,-317 928.5,-531"/>
<text text-anchor="start" x="806" y="-519" font-family="Helvetica,sans-Serif" font-size="10.00">ExtendedKalmanFilter</text>
<text text-anchor="start" x="858.5" y="-504" font-family="Helvetica,sans-Serif" font-size="10.00"> </text>
<text text-anchor="start" x="796" y="-489" font-family="Helvetica,sans-Serif" font-size="10.00">+</text>
<text text-anchor="start" x="809" y="-489" font-family="Helvetica,sans-Serif" font-size="10.00">ExtendedKalmanFilter()</text>
<text text-anchor="start" x="796" y="-474" font-family="Helvetica,sans-Serif" font-size="10.00">+</text>
<text text-anchor="start" x="809" y="-474" font-family="Helvetica,sans-Serif" font-size="10.00">ExtendedKalmanFilter()</text>
<text text-anchor="start" x="796" y="-459" font-family="Helvetica,sans-Serif" font-size="10.00">+</text>
<text text-anchor="start" x="809" y="-459" font-family="Helvetica,sans-Serif" font-size="10.00">update()</text>
<text text-anchor="start" x="796" y="-444" font-family="Helvetica,sans-Serif" font-size="10.00">+</text>
<text text-anchor="start" x="809" y="-444" font-family="Helvetica,sans-Serif" font-size="10.00">prediction_step()</text>
<text text-anchor="start" x="796" y="-429" font-family="Helvetica,sans-Serif" font-size="10.00">+</text>
<text text-anchor="start" x="809" y="-429" font-family="Helvetica,sans-Serif" font-size="10.00">correction_step()</text>
<text text-anchor="start" x="796" y="-414" font-family="Helvetica,sans-Serif" font-size="10.00">+</text>
<text text-anchor="start" x="809" y="-414" font-family="Helvetica,sans-Serif" font-size="10.00">set_X_y()</text>
<text text-anchor="start" x="796" y="-399" font-family="Helvetica,sans-Serif" font-size="10.00">+</text>
<text text-anchor="start" x="809" y="-399" font-family="Helvetica,sans-Serif" font-size="10.00">set_P()</text>
<text text-anchor="start" x="796" y="-384" font-family="Helvetica,sans-Serif" font-size="10.00">+</text>
<text text-anchor="start" x="809" y="-384" font-family="Helvetica,sans-Serif" font-size="10.00">init_X_size()</text>
<text text-anchor="start" x="796" y="-369" font-family="Helvetica,sans-Serif" font-size="10.00">+</text>
<text text-anchor="start" x="809" y="-369" font-family="Helvetica,sans-Serif" font-size="10.00">push_to_colors()</text>
<text text-anchor="start" x="796" y="-354" font-family="Helvetica,sans-Serif" font-size="10.00">+</text>
<text text-anchor="start" x="809" y="-354" font-family="Helvetica,sans-Serif" font-size="10.00">get_state()</text>
<text text-anchor="start" x="796" y="-339" font-family="Helvetica,sans-Serif" font-size="10.00">+</text>
<text text-anchor="start" x="809" y="-339" font-family="Helvetica,sans-Serif" font-size="10.00">get_covariance()</text>
<text text-anchor="start" x="796" y="-324" font-family="Helvetica,sans-Serif" font-size="10.00">+</text>
<text text-anchor="start" x="809" y="-324" font-family="Helvetica,sans-Serif" font-size="10.00">get_last_update()</text>
<polygon fill="#666666" stroke="#666666" points="792,-514 792,-514 929,-514 929,-514 792,-514"/>
<polygon fill="#666666" stroke="#666666" points="792,-499 792,-499 929,-499 929,-499 792,-499"/>
<polygon fill="none" stroke="#666666" points="791.5,-317 791.5,-531 928.5,-531 928.5,-317 791.5,-317"/>
</a>
</g>
</g>
<!-- Node10&#45;&gt;Node1 -->
<g id="edge9_Node000001_Node000010" class="edge">
<title>Node10&#45;&gt;Node1</title>
<g id="a_edge9_Node000001_Node000010"><a xlink:title=" ">
<path fill="none" stroke="#63b8ff" d="M806.44,-316.97C795.81,-302.24 783.64,-288.3 770,-277 682.13,-204.2 554.14,-165.13 470.73,-146.09"/>
<polygon fill="none" stroke="#63b8ff" points="470.72,-146.09 463.99,-148.69 459.01,-143.48 465.73,-140.88 470.72,-146.09"/>
</a>
</g>
<text text-anchor="middle" x="815" y="-285.5" font-family="Helvetica,sans-Serif" font-size="10.00" fill="grey"> #ekf_test</text>
</g>
</g>
</svg>
