<?xml version="1.0" encoding="UTF-8" standalone="no"?>
<!DOCTYPE svg PUBLIC "-//W3C//DTD SVG 1.1//EN"
 "http://www.w3.org/Graphics/SVG/1.1/DTD/svg11.dtd">
<!-- Generated by graphviz version 2.43.0 (0)
 -->
<!-- Title: MotionModel Pages: 1 -->
<svg width="312pt" height="250pt"
 viewBox="0.00 0.00 312.00 250.00" xmlns="http://www.w3.org/2000/svg" xmlns:xlink="http://www.w3.org/1999/xlink">
<g id="graph0" class="graph" transform="scale(1 1) rotate(0) translate(4 246)">
<title>MotionModel</title>
<!-- Node1 -->
<g id="Node000001" class="node">
<title>Node1</title>
<g id="a_Node000001"><a xlink:title="Abstract Moiton Model class designed to be implemented by the different motion models.">
<polygon fill="#999999" stroke="transparent" points="236.5,-242 66.5,-242 66.5,-126 236.5,-126 236.5,-242"/>
<text text-anchor="start" x="119.5" y="-230" font-family="Helvetica,sans-Serif" font-size="10.00">MotionModel</text>
<text text-anchor="start" x="149.5" y="-215" font-family="Helvetica,sans-Serif" font-size="10.00"> </text>
<text text-anchor="start" x="70.5" y="-200" font-family="Helvetica,sans-Serif" font-size="10.00">+</text>
<text text-anchor="start" x="83.5" y="-200" font-family="Helvetica,sans-Serif" font-size="10.00">MotionModel()</text>
<text text-anchor="start" x="70.5" y="-185" font-family="Helvetica,sans-Serif" font-size="10.00">+</text>
<text text-anchor="start" x="83.5" y="-185" font-family="Helvetica,sans-Serif" font-size="10.00">predict_expected_state()</text>
<text text-anchor="start" x="70.5" y="-170" font-family="Helvetica,sans-Serif" font-size="10.00">+</text>
<text text-anchor="start" x="83.5" y="-170" font-family="Helvetica,sans-Serif" font-size="10.00">get_motion_to_state</text>
<text text-anchor="start" x="83.5" y="-159" font-family="Helvetica,sans-Serif" font-size="10.00">_matrix()</text>
<text text-anchor="start" x="70.5" y="-144" font-family="Helvetica,sans-Serif" font-size="10.00">+</text>
<text text-anchor="start" x="83.5" y="-144" font-family="Helvetica,sans-Serif" font-size="10.00">get_process_noise_covariance</text>
<text text-anchor="start" x="83.5" y="-133" font-family="Helvetica,sans-Serif" font-size="10.00">_matrix()</text>
<polygon fill="#666666" stroke="#666666" points="66.5,-225 66.5,-225 236.5,-225 236.5,-225 66.5,-225"/>
<polygon fill="#666666" stroke="#666666" points="66.5,-210 66.5,-210 236.5,-210 236.5,-210 66.5,-210"/>
<polygon fill="none" stroke="#666666" points="66.5,-126 66.5,-242 236.5,-242 236.5,-126 66.5,-126"/>
</a>
</g>
</g>
<!-- Node2 -->
<g id="Node000002" class="node">
<title>Node2</title>
<g id="a_Node000002"><a xlink:href="classImuVelocityModel.html" target="_top" xlink:title="Motion estimation that uses the specific values of the x and y axis accelerations,...">
<polygon fill="white" stroke="transparent" points="143,-90 0,-90 0,0 143,0 143,-90"/>
<text text-anchor="start" x="28" y="-78" font-family="Helvetica,sans-Serif" font-size="10.00">ImuVelocityModel</text>
<text text-anchor="start" x="70" y="-63" font-family="Helvetica,sans-Serif" font-size="10.00"> </text>
<text text-anchor="start" x="4.5" y="-48" font-family="Helvetica,sans-Serif" font-size="10.00">+</text>
<text text-anchor="start" x="17.5" y="-48" font-family="Helvetica,sans-Serif" font-size="10.00">ImuVelocityModel()</text>
<text text-anchor="start" x="4.5" y="-33" font-family="Helvetica,sans-Serif" font-size="10.00">+</text>
<text text-anchor="start" x="17.5" y="-33" font-family="Helvetica,sans-Serif" font-size="10.00">predict_expected_state()</text>
<text text-anchor="start" x="4.5" y="-18" font-family="Helvetica,sans-Serif" font-size="10.00">+</text>
<text text-anchor="start" x="17.5" y="-18" font-family="Helvetica,sans-Serif" font-size="10.00">get_motion_to_state</text>
<text text-anchor="start" x="17.5" y="-7" font-family="Helvetica,sans-Serif" font-size="10.00">_matrix()</text>
<polygon fill="#666666" stroke="#666666" points="0.5,-73 0.5,-73 143.5,-73 143.5,-73 0.5,-73"/>
<polygon fill="#666666" stroke="#666666" points="0.5,-58 0.5,-58 143.5,-58 143.5,-58 0.5,-58"/>
<polygon fill="none" stroke="#666666" points="0,0 0,-90 143,-90 143,0 0,0"/>
</a>
</g>
</g>
<!-- Node1&#45;&gt;Node2 -->
<g id="edge1_Node000001_Node000002" class="edge">
<title>Node1&#45;&gt;Node2</title>
<g id="a_edge1_Node000001_Node000002"><a xlink:title=" ">
<path fill="none" stroke="#63b8ff" d="M112.96,-117C107.64,-107.9 102.29,-98.73 97.28,-90.15"/>
<polygon fill="none" stroke="#63b8ff" points="109.97,-118.82 118.04,-125.69 116.02,-115.29 109.97,-118.82"/>
</a>
</g>
</g>
<!-- Node3 -->
<g id="Node000003" class="node">
<title>Node3</title>
<g id="a_Node000003"><a xlink:href="classNormalVelocityModel.html" target="_top" xlink:title="Motion estimation that uses the module of the velocity and the rotational velocity.">
<polygon fill="white" stroke="transparent" points="304,-90 161,-90 161,0 304,0 304,-90"/>
<text text-anchor="start" x="180" y="-78" font-family="Helvetica,sans-Serif" font-size="10.00">NormalVelocityModel</text>
<text text-anchor="start" x="231" y="-63" font-family="Helvetica,sans-Serif" font-size="10.00"> </text>
<text text-anchor="start" x="165.5" y="-48" font-family="Helvetica,sans-Serif" font-size="10.00">+</text>
<text text-anchor="start" x="178.5" y="-48" font-family="Helvetica,sans-Serif" font-size="10.00">NormalVelocityModel()</text>
<text text-anchor="start" x="165.5" y="-33" font-family="Helvetica,sans-Serif" font-size="10.00">+</text>
<text text-anchor="start" x="178.5" y="-33" font-family="Helvetica,sans-Serif" font-size="10.00">predict_expected_state()</text>
<text text-anchor="start" x="165.5" y="-18" font-family="Helvetica,sans-Serif" font-size="10.00">+</text>
<text text-anchor="start" x="178.5" y="-18" font-family="Helvetica,sans-Serif" font-size="10.00">get_motion_to_state</text>
<text text-anchor="start" x="178.5" y="-7" font-family="Helvetica,sans-Serif" font-size="10.00">_matrix()</text>
<polygon fill="#666666" stroke="#666666" points="161.5,-73 161.5,-73 304.5,-73 304.5,-73 161.5,-73"/>
<polygon fill="#666666" stroke="#666666" points="161.5,-58 161.5,-58 304.5,-58 304.5,-58 161.5,-58"/>
<polygon fill="none" stroke="#666666" points="161,0 161,-90 304,-90 304,0 161,0"/>
</a>
</g>
</g>
<!-- Node1&#45;&gt;Node3 -->
<g id="edge2_Node000001_Node000003" class="edge">
<title>Node1&#45;&gt;Node3</title>
<g id="a_edge2_Node000001_Node000003"><a xlink:title=" ">
<path fill="none" stroke="#63b8ff" d="M190.52,-117C195.9,-107.9 201.32,-98.73 206.39,-90.15"/>
<polygon fill="none" stroke="#63b8ff" points="187.46,-115.3 185.38,-125.69 193.48,-118.87 187.46,-115.3"/>
</a>
</g>
</g>
</g>
</svg>
