<?xml version="1.0" encoding="UTF-8" standalone="no"?>
<!DOCTYPE svg PUBLIC "-//W3C//DTD SVG 1.1//EN"
 "http://www.w3.org/Graphics/SVG/1.1/DTD/svg11.dtd">
<!-- Generated by graphviz version 2.43.0 (0)
 -->
<!-- Title: ObservationModel Pages: 1 -->
<svg width="153pt" height="150pt"
 viewBox="0.00 0.00 153.00 150.00" xmlns="http://www.w3.org/2000/svg" xmlns:xlink="http://www.w3.org/1999/xlink">
<g id="graph0" class="graph" transform="scale(1 1) rotate(0) translate(4 146)">
<title>ObservationModel</title>
<!-- Node1 -->
<g id="Node000001" class="node">
<title>Node1</title>
<g id="a_Node000001"><a xlink:title="Observation Model class compiled of functions for observation model.">
<polygon fill="#999999" stroke="transparent" points="145,-142 0,-142 0,0 145,0 145,-142"/>
<text text-anchor="start" x="28" y="-130" font-family="Helvetica,sans-Serif" font-size="10.00">ObservationModel</text>
<text text-anchor="start" x="71" y="-115" font-family="Helvetica,sans-Serif" font-size="10.00"> </text>
<text text-anchor="start" x="4.5" y="-100" font-family="Helvetica,sans-Serif" font-size="10.00">+</text>
<text text-anchor="start" x="17.5" y="-100" font-family="Helvetica,sans-Serif" font-size="10.00">ObservationModel()</text>
<text text-anchor="start" x="4.5" y="-85" font-family="Helvetica,sans-Serif" font-size="10.00">+</text>
<text text-anchor="start" x="17.5" y="-85" font-family="Helvetica,sans-Serif" font-size="10.00">observation_model()</text>
<text text-anchor="start" x="4.5" y="-70" font-family="Helvetica,sans-Serif" font-size="10.00">+</text>
<text text-anchor="start" x="17.5" y="-70" font-family="Helvetica,sans-Serif" font-size="10.00">inverse_observation</text>
<text text-anchor="start" x="17.5" y="-59" font-family="Helvetica,sans-Serif" font-size="10.00">_model()</text>
<text text-anchor="start" x="4.5" y="-44" font-family="Helvetica,sans-Serif" font-size="10.00">+</text>
<text text-anchor="start" x="17.5" y="-44" font-family="Helvetica,sans-Serif" font-size="10.00">get_state_to_observation</text>
<text text-anchor="start" x="17.5" y="-33" font-family="Helvetica,sans-Serif" font-size="10.00">_matrix()</text>
<text text-anchor="start" x="4.5" y="-18" font-family="Helvetica,sans-Serif" font-size="10.00">+</text>
<text text-anchor="start" x="17.5" y="-18" font-family="Helvetica,sans-Serif" font-size="10.00">get_observation_noise</text>
<text text-anchor="start" x="17.5" y="-7" font-family="Helvetica,sans-Serif" font-size="10.00">_covariance_matrix()</text>
<polygon fill="#666666" stroke="#666666" points="0.5,-125 0.5,-125 145.5,-125 145.5,-125 0.5,-125"/>
<polygon fill="#666666" stroke="#666666" points="0.5,-110 0.5,-110 145.5,-110 145.5,-110 0.5,-110"/>
<polygon fill="none" stroke="#666666" points="0,0 0,-142 145,-142 145,0 0,0"/>
</a>
</g>
</g>
</g>
</svg>
