<?xml version="1.0" encoding="UTF-8" standalone="no"?>
<!DOCTYPE svg PUBLIC "-//W3C//DTD SVG 1.1//EN"
 "http://www.w3.org/Graphics/SVG/1.1/DTD/svg11.dtd">
<!-- Generated by graphviz version 2.43.0 (0)
 -->
<!-- Title: MotionModel Pages: 1 -->
<svg width="292pt" height="248pt"
 viewBox="0.00 0.00 292.00 248.00" xmlns="http://www.w3.org/2000/svg" xmlns:xlink="http://www.w3.org/1999/xlink">
<g id="graph0" class="graph" transform="scale(1 1) rotate(0) translate(4 244)">
<title>MotionModel</title>
<polygon fill="white" stroke="transparent" points="-4,4 -4,-244 288,-244 288,4 -4,4"/>
<!-- Node1 -->
<g id="node1" class="node">
<title>Node1</title>
<g id="a_node1"><a xlink:title="Abstract Moiton Model class designed to be implemented by the different motion models.">
<polygon fill="#bfbfbf" stroke="black" points="61.5,-127.5 61.5,-239.5 221.5,-239.5 221.5,-127.5 61.5,-127.5"/>
<text text-anchor="middle" x="141.5" y="-227.5" font-family="Helvetica,sans-Serif" font-size="10.00">MotionModel</text>
<polyline fill="none" stroke="black" points="61.5,-220.5 221.5,-220.5 "/>
<text text-anchor="middle" x="141.5" y="-208.5" font-family="Helvetica,sans-Serif" font-size="10.00"> </text>
<polyline fill="none" stroke="black" points="61.5,-201.5 221.5,-201.5 "/>
<text text-anchor="start" x="69.5" y="-189.5" font-family="Helvetica,sans-Serif" font-size="10.00">+ MotionModel()</text>
<text text-anchor="start" x="69.5" y="-178.5" font-family="Helvetica,sans-Serif" font-size="10.00">+ predict_expected_state()</text>
<text text-anchor="start" x="69.5" y="-167.5" font-family="Helvetica,sans-Serif" font-size="10.00">+ get_motion_to_state</text>
<text text-anchor="start" x="69.5" y="-156.5" font-family="Helvetica,sans-Serif" font-size="10.00">_matrix()</text>
<text text-anchor="start" x="69.5" y="-145.5" font-family="Helvetica,sans-Serif" font-size="10.00">+ get_process_noise_covariance</text>
<text text-anchor="start" x="69.5" y="-134.5" font-family="Helvetica,sans-Serif" font-size="10.00">_matrix()</text>
</a>
</g>
</g>
<!-- Node2 -->
<g id="node2" class="node">
<title>Node2</title>
<g id="a_node2"><a xlink:href="classImuVelocityModel.html" target="_top" xlink:title="Motion estimation that uses the specific values of the x and y axis accelerations,...">
<polygon fill="white" stroke="black" points="0,-0.5 0,-90.5 133,-90.5 133,-0.5 0,-0.5"/>
<text text-anchor="middle" x="66.5" y="-78.5" font-family="Helvetica,sans-Serif" font-size="10.00">ImuVelocityModel</text>
<polyline fill="none" stroke="black" points="0,-71.5 133,-71.5 "/>
<text text-anchor="middle" x="66.5" y="-59.5" font-family="Helvetica,sans-Serif" font-size="10.00"> </text>
<polyline fill="none" stroke="black" points="0,-52.5 133,-52.5 "/>
<text text-anchor="start" x="8" y="-40.5" font-family="Helvetica,sans-Serif" font-size="10.00">+ ImuVelocityModel()</text>
<text text-anchor="start" x="8" y="-29.5" font-family="Helvetica,sans-Serif" font-size="10.00">+ predict_expected_state()</text>
<text text-anchor="start" x="8" y="-18.5" font-family="Helvetica,sans-Serif" font-size="10.00">+ get_motion_to_state</text>
<text text-anchor="start" x="8" y="-7.5" font-family="Helvetica,sans-Serif" font-size="10.00">_matrix()</text>
</a>
</g>
</g>
<!-- Node1&#45;&gt;Node2 -->
<g id="edge1" class="edge">
<title>Node1&#45;&gt;Node2</title>
<path fill="none" stroke="midnightblue" d="M106.06,-118.24C100.89,-108.85 95.66,-99.37 90.77,-90.51"/>
<polygon fill="none" stroke="midnightblue" points="103.1,-120.12 110.99,-127.18 109.23,-116.74 103.1,-120.12"/>
</g>
<!-- Node3 -->
<g id="node3" class="node">
<title>Node3</title>
<g id="a_node3"><a xlink:href="classNormalVelocityModel.html" target="_top" xlink:title="Motion estimation that uses the module of the velocity and the rotational velocity.">
<polygon fill="white" stroke="black" points="151,-0.5 151,-90.5 284,-90.5 284,-0.5 151,-0.5"/>
<text text-anchor="middle" x="217.5" y="-78.5" font-family="Helvetica,sans-Serif" font-size="10.00">NormalVelocityModel</text>
<polyline fill="none" stroke="black" points="151,-71.5 284,-71.5 "/>
<text text-anchor="middle" x="217.5" y="-59.5" font-family="Helvetica,sans-Serif" font-size="10.00"> </text>
<polyline fill="none" stroke="black" points="151,-52.5 284,-52.5 "/>
<text text-anchor="start" x="159" y="-40.5" font-family="Helvetica,sans-Serif" font-size="10.00">+ NormalVelocityModel()</text>
<text text-anchor="start" x="159" y="-29.5" font-family="Helvetica,sans-Serif" font-size="10.00">+ predict_expected_state()</text>
<text text-anchor="start" x="159" y="-18.5" font-family="Helvetica,sans-Serif" font-size="10.00">+ get_motion_to_state</text>
<text text-anchor="start" x="159" y="-7.5" font-family="Helvetica,sans-Serif" font-size="10.00">_matrix()</text>
</a>
</g>
</g>
<!-- Node1&#45;&gt;Node3 -->
<g id="edge2" class="edge">
<title>Node1&#45;&gt;Node3</title>
<path fill="none" stroke="midnightblue" d="M177.41,-118.24C182.66,-108.85 187.95,-99.37 192.9,-90.51"/>
<polygon fill="none" stroke="midnightblue" points="174.24,-116.75 172.41,-127.18 180.35,-120.16 174.24,-116.75"/>
</g>
</g>
</svg>
