<?xml version="1.0" encoding="UTF-8" standalone="no"?>
<!DOCTYPE svg PUBLIC "-//W3C//DTD SVG 1.1//EN"
 "http://www.w3.org/Graphics/SVG/1.1/DTD/svg11.dtd">
<!-- Generated by graphviz version 2.43.0 (0)
 -->
<!-- Title: src/loc_map/include/utils/color.hpp Pages: 1 -->
<!--zoomable 445 -->

<svg id="main" version="1.1" xmlns="http://www.w3.org/2000/svg" xmlns:xlink="http://www.w3.org/1999/xlink" xml:space="preserve" onload="init(evt)">
<style type="text/css"><![CDATA[
.node, .edge {opacity: 0.7;}
.node.selected, .edge.selected {opacity: 1;}
.edge:hover path { stroke: red; }
.edge:hover polygon { stroke: red; fill: red; }
]]></style>

<defs>
  <circle id="rim" cx="0" cy="0" r="7"/>
  <circle id="rim2" cx="0" cy="0" r="3.5"/>
  <g id="zoomPlus">
    <use xlink:href="#rim" fill="#404040"><set attributeName="fill" to="#808080" begin="zoomplus.mouseover" end="zoomplus.mouseout"/></use>
    <path d="M-4,0h8M0,-4v8" fill="none" stroke="white" stroke-width="1.5" pointer-events="none"/>
  </g>
  <g id="zoomMin">
    <use xlink:href="#rim" fill="#404040"><set attributeName="fill" to="#808080" begin="zoomminus.mouseover" end="zoomminus.mouseout"/></use>
    <path d="M-4,0h8" fill="none" stroke="white" stroke-width="1.5" pointer-events="none"/>
  </g>
  <g id="arrowUp" transform="translate(30 24)">
    <use xlink:href="#rim"/>
    <path pointer-events="none" fill="none" stroke="white" stroke-width="1.5" d="M0,-3.0v7 M-2.5,-0.5L0,-3.0L2.5,-0.5"/>
  </g>
  <g id="arrowRight" transform="rotate(90) translate(36 -43)">
    <use xlink:href="#rim"/>
    <path pointer-events="none" fill="none" stroke="white" stroke-width="1.5" d="M0,-3.0v7 M-2.5,-0.5L0,-3.0L2.5,-0.5"/>
  </g>
  <g id="arrowDown" transform="rotate(180) translate(-30 -48)">
    <use xlink:href="#rim"/>
    <path pointer-events="none" fill="none" stroke="white" stroke-width="1.5" d="M0,-3.0v7 M-2.5,-0.5L0,-3.0L2.5,-0.5"/>
  </g>
  <g id="arrowLeft" transform="rotate(270) translate(-36 17)">
    <use xlink:href="#rim"/>
    <path pointer-events="none" fill="none" stroke="white" stroke-width="1.5" d="M0,-3.0v7 M-2.5,-0.5L0,-3.0L2.5,-0.5"/>
  </g>
  <g id="resetDef">
    <use xlink:href="#rim2" fill="#404040"><set attributeName="fill" to="#808080" begin="reset.mouseover" end="reset.mouseout"/></use>
  </g>
</defs>
<script type="application/ecmascript">
var viewWidth = 1117;
var viewHeight = 445;
var sectionId = 'dynsection-1';
</script>
<script type="application/ecmascript" xlink:href="svg.min.js"/>
<svg id="graph" class="graph">
<g id="viewport">
<title>src/loc_map/include/utils/color.hpp</title>
<!-- Node1 -->
<g id="Node000001" class="node">
<title>Node1</title>
<g id="a_Node000001"><a xlink:title=" ">
<polygon fill="#999999" stroke="#666666" points="739,-437 626,-437 626,-407 739,-407 739,-437"/>
<text text-anchor="start" x="634" y="-425" font-family="Helvetica,sans-Serif" font-size="10.00">src/loc_map/include</text>
<text text-anchor="middle" x="682.5" y="-414" font-family="Helvetica,sans-Serif" font-size="10.00">/utils/color.hpp</text>
</a>
</g>
</g>
<!-- Node2 -->
<g id="Node000002" class="node">
<title>Node2</title>
<g id="a_Node000002"><a xlink:href="data__structures_8hpp.html" target="_top" xlink:title=" ">
<polygon fill="white" stroke="#666666" points="685,-371 524,-371 524,-341 685,-341 685,-371"/>
<text text-anchor="start" x="532" y="-359" font-family="Helvetica,sans-Serif" font-size="10.00">src/loc_map/include</text>
<text text-anchor="middle" x="604.5" y="-348" font-family="Helvetica,sans-Serif" font-size="10.00">/loc_map/data_structures.hpp</text>
</a>
</g>
</g>
<!-- Node1&#45;&gt;Node2 -->
<g id="edge1_Node000001_Node000002" class="edge">
<title>Node1&#45;&gt;Node2</title>
<g id="a_edge1_Node000001_Node000002"><a xlink:title=" ">
<path fill="none" stroke="#63b8ff" d="M657.15,-400.2C645.57,-390.7 632.15,-379.69 621.76,-371.16"/>
<polygon fill="#63b8ff" stroke="#63b8ff" points="655.24,-403.16 665.19,-406.8 659.68,-397.75 655.24,-403.16"/>
</a>
</g>
</g>
<!-- Node19 -->
<g id="Node000019" class="node">
<title>Node19</title>
<g id="a_Node000019"><a xlink:href="color_8cpp.html" target="_top" xlink:title=" ">
<polygon fill="white" stroke="#666666" points="819.5,-371 703.5,-371 703.5,-341 819.5,-341 819.5,-371"/>
<text text-anchor="start" x="711.5" y="-359" font-family="Helvetica,sans-Serif" font-size="10.00">src/loc_map/src/utils</text>
<text text-anchor="middle" x="761.5" y="-348" font-family="Helvetica,sans-Serif" font-size="10.00">/color.cpp</text>
</a>
</g>
</g>
<!-- Node1&#45;&gt;Node19 -->
<g id="edge25_Node000001_Node000019" class="edge">
<title>Node1&#45;&gt;Node19</title>
<g id="a_edge25_Node000001_Node000019"><a xlink:title=" ">
<path fill="none" stroke="#63b8ff" d="M707.83,-400.48C719.64,-390.91 733.39,-379.77 744.02,-371.16"/>
<polygon fill="#63b8ff" stroke="#63b8ff" points="705.6,-397.78 700.03,-406.8 710.01,-403.22 705.6,-397.78"/>
</a>
</g>
</g>
<!-- Node3 -->
<g id="Node000003" class="node">
<title>Node3</title>
<g id="a_Node000003"><a xlink:href="adapter_8hpp.html" target="_top" xlink:title=" ">
<polygon fill="white" stroke="#666666" points="125.5,-96 7.5,-96 7.5,-66 125.5,-66 125.5,-96"/>
<text text-anchor="start" x="15.5" y="-84" font-family="Helvetica,sans-Serif" font-size="10.00">src/loc_map/include</text>
<text text-anchor="middle" x="66.5" y="-73" font-family="Helvetica,sans-Serif" font-size="10.00">/adapter/adapter.hpp</text>
</a>
</g>
</g>
<!-- Node2&#45;&gt;Node3 -->
<g id="edge2_Node000002_Node000003" class="edge">
<title>Node2&#45;&gt;Node3</title>
<g id="a_edge2_Node000002_Node000003"><a xlink:title=" ">
<path fill="none" stroke="#63b8ff" d="M513.43,-338.86C478.78,-330.99 439.49,-319.93 405.5,-305 271.03,-245.91 130.73,-135.15 83.29,-96.08"/>
<polygon fill="#63b8ff" stroke="#63b8ff" points="513.02,-342.36 523.54,-341.1 514.53,-335.52 513.02,-342.36"/>
</a>
</g>
</g>
<!-- Node6 -->
<g id="Node000006" class="node">
<title>Node6</title>
<g id="a_Node000006"><a xlink:href="ekf_8hpp.html" target="_top" xlink:title=" ">
<polygon fill="white" stroke="#666666" points="710.5,-228 588.5,-228 588.5,-198 710.5,-198 710.5,-228"/>
<text text-anchor="start" x="596.5" y="-216" font-family="Helvetica,sans-Serif" font-size="10.00">src/loc_map/include</text>
<text text-anchor="middle" x="649.5" y="-205" font-family="Helvetica,sans-Serif" font-size="10.00">/kalman_filter/ekf.hpp</text>
</a>
</g>
</g>
<!-- Node2&#45;&gt;Node6 -->
<g id="edge5_Node000002_Node000006" class="edge">
<title>Node2&#45;&gt;Node6</title>
<g id="a_edge5_Node000002_Node000006"><a xlink:title=" ">
<path fill="none" stroke="#63b8ff" d="M618.34,-331.63C622.74,-323.43 627.29,-314.01 630.5,-305 639.88,-278.7 645.26,-246.39 647.76,-228.2"/>
<polygon fill="#63b8ff" stroke="#63b8ff" points="615.15,-330.16 613.34,-340.6 621.26,-333.57 615.15,-330.16"/>
</a>
</g>
</g>
<!-- Node7 -->
<g id="Node000007" class="node">
<title>Node7</title>
<g id="a_Node000007"><a xlink:href="lm__node_8hpp.html" target="_top" xlink:title=" ">
<polygon fill="white" stroke="#666666" points="478,-162 351,-162 351,-132 478,-132 478,-162"/>
<text text-anchor="start" x="359" y="-150" font-family="Helvetica,sans-Serif" font-size="10.00">src/loc_map/include</text>
<text text-anchor="middle" x="414.5" y="-139" font-family="Helvetica,sans-Serif" font-size="10.00">/loc_map/lm_node.hpp</text>
</a>
</g>
</g>
<!-- Node2&#45;&gt;Node7 -->
<g id="edge23_Node000002_Node000007" class="edge">
<title>Node2&#45;&gt;Node7</title>
<g id="a_edge23_Node000002_Node000007"><a xlink:title=" ">
<path fill="none" stroke="#63b8ff" d="M535.72,-337.83C481.96,-320.24 411.33,-286.91 380.5,-228 368.81,-205.67 386.84,-178.43 400.79,-162.19"/>
<polygon fill="#63b8ff" stroke="#63b8ff" points="534.96,-341.26 545.55,-340.93 537.07,-334.58 534.96,-341.26"/>
</a>
</g>
</g>
<!-- Node12 -->
<g id="Node000012" class="node">
<title>Node12</title>
<g id="a_Node000012"><a xlink:href="ekf_8cpp.html" target="_top" xlink:title=" ">
<polygon fill="white" stroke="#666666" points="862,-162 731,-162 731,-132 862,-132 862,-162"/>
<text text-anchor="start" x="739" y="-150" font-family="Helvetica,sans-Serif" font-size="10.00">src/loc_map/src/kalman</text>
<text text-anchor="middle" x="796.5" y="-139" font-family="Helvetica,sans-Serif" font-size="10.00">_filter/ekf.cpp</text>
</a>
</g>
</g>
<!-- Node2&#45;&gt;Node12 -->
<g id="edge24_Node000002_Node000012" class="edge">
<title>Node2&#45;&gt;Node12</title>
<g id="a_edge24_Node000002_Node000012"><a xlink:title=" ">
<path fill="none" stroke="#63b8ff" d="M624.72,-333.2C664.22,-290.62 750.61,-197.48 783.46,-162.05"/>
<polygon fill="#63b8ff" stroke="#63b8ff" points="621.93,-331.06 617.7,-340.77 627.06,-335.82 621.93,-331.06"/>
</a>
</g>
</g>
<!-- Node14 -->
<g id="Node000014" class="node">
<title>Node14</title>
<g id="a_Node000014"><a xlink:href="motion__models_8hpp.html" target="_top" xlink:title=" ">
<polygon fill="white" stroke="#666666" points="621,-305 500,-305 500,-264 621,-264 621,-305"/>
<text text-anchor="start" x="508" y="-293" font-family="Helvetica,sans-Serif" font-size="10.00">src/loc_map/include</text>
<text text-anchor="start" x="508" y="-282" font-family="Helvetica,sans-Serif" font-size="10.00">/kalman_filter/motion</text>
<text text-anchor="middle" x="560.5" y="-271" font-family="Helvetica,sans-Serif" font-size="10.00">_models.hpp</text>
</a>
</g>
</g>
<!-- Node2&#45;&gt;Node14 -->
<g id="edge15_Node000002_Node000014" class="edge">
<title>Node2&#45;&gt;Node14</title>
<g id="a_edge15_Node000002_Node000014"><a xlink:title=" ">
<path fill="none" stroke="#63b8ff" d="M590.13,-332.31C584.57,-323.52 578.26,-313.55 572.89,-305.07"/>
<polygon fill="#63b8ff" stroke="#63b8ff" points="587.29,-334.36 595.6,-340.94 593.2,-330.61 587.29,-334.36"/>
</a>
</g>
</g>
<!-- Node16 -->
<g id="Node000016" class="node">
<title>Node16</title>
<g id="a_Node000016"><a xlink:href="observation__models_8hpp.html" target="_top" xlink:title=" ">
<polygon fill="white" stroke="#666666" points="915.5,-305 771.5,-305 771.5,-264 915.5,-264 915.5,-305"/>
<text text-anchor="start" x="779.5" y="-293" font-family="Helvetica,sans-Serif" font-size="10.00">src/loc_map/include</text>
<text text-anchor="start" x="779.5" y="-282" font-family="Helvetica,sans-Serif" font-size="10.00">/kalman_filter/observation</text>
<text text-anchor="middle" x="843.5" y="-271" font-family="Helvetica,sans-Serif" font-size="10.00">_models.hpp</text>
</a>
</g>
</g>
<!-- Node2&#45;&gt;Node16 -->
<g id="edge19_Node000002_Node000016" class="edge">
<title>Node2&#45;&gt;Node16</title>
<g id="a_edge19_Node000002_Node000016"><a xlink:title=" ">
<path fill="none" stroke="#63b8ff" d="M662.73,-338.07C696.99,-328.11 740.46,-315.46 776.19,-305.07"/>
<polygon fill="#63b8ff" stroke="#63b8ff" points="661.49,-334.78 652.87,-340.94 663.44,-341.5 661.49,-334.78"/>
</a>
</g>
</g>
<!-- Node4 -->
<g id="Node000004" class="node">
<title>Node4</title>
<g id="a_Node000004"><a xlink:href="adapter_8cpp.html" target="_top" xlink:title=" ">
<polygon fill="white" stroke="#666666" points="133,-30 0,-30 0,0 133,0 133,-30"/>
<text text-anchor="start" x="8" y="-18" font-family="Helvetica,sans-Serif" font-size="10.00">src/loc_map/src/adapter</text>
<text text-anchor="middle" x="66.5" y="-7" font-family="Helvetica,sans-Serif" font-size="10.00">/adapter.cpp</text>
</a>
</g>
</g>
<!-- Node3&#45;&gt;Node4 -->
<g id="edge3_Node000003_Node000004" class="edge">
<title>Node3&#45;&gt;Node4</title>
<g id="a_edge3_Node000003_Node000004"><a xlink:title=" ">
<path fill="none" stroke="#63b8ff" d="M66.5,-55.54C66.5,-46.96 66.5,-37.61 66.5,-30.16"/>
<polygon fill="#63b8ff" stroke="#63b8ff" points="63,-55.8 66.5,-65.8 70,-55.8 63,-55.8"/>
</a>
</g>
</g>
<!-- Node5 -->
<g id="Node000005" class="node">
<title>Node5</title>
<g id="a_Node000005"><a xlink:href="lm__node_8cpp.html" target="_top" xlink:title=" ">
<polygon fill="white" stroke="#666666" points="391.5,-30 281.5,-30 281.5,0 391.5,0 391.5,-30"/>
<text text-anchor="start" x="289.5" y="-18" font-family="Helvetica,sans-Serif" font-size="10.00">src/loc_map/src/loc</text>
<text text-anchor="middle" x="336.5" y="-7" font-family="Helvetica,sans-Serif" font-size="10.00">_map/lm_node.cpp</text>
</a>
</g>
</g>
<!-- Node3&#45;&gt;Node5 -->
<g id="edge4_Node000003_Node000005" class="edge">
<title>Node3&#45;&gt;Node5</title>
<g id="a_edge4_Node000003_Node000005"><a xlink:title=" ">
<path fill="none" stroke="#63b8ff" d="M135.76,-63.58C180.89,-52.88 239,-39.11 281.07,-29.14"/>
<polygon fill="#63b8ff" stroke="#63b8ff" points="134.68,-60.24 125.75,-65.95 136.29,-67.05 134.68,-60.24"/>
</a>
</g>
</g>
<!-- Node6&#45;&gt;Node7 -->
<g id="edge6_Node000006_Node000007" class="edge">
<title>Node6&#45;&gt;Node7</title>
<g id="a_edge6_Node000006_Node000007"><a xlink:title=" ">
<path fill="none" stroke="#63b8ff" d="M588.01,-195.25C550.04,-184.91 501.89,-171.8 465.95,-162.01"/>
<polygon fill="#63b8ff" stroke="#63b8ff" points="587.36,-198.7 597.93,-197.95 589.2,-191.95 587.36,-198.7"/>
</a>
</g>
</g>
<!-- Node6&#45;&gt;Node12 -->
<g id="edge13_Node000006_Node000012" class="edge">
<title>Node6&#45;&gt;Node12</title>
<g id="a_edge13_Node000006_Node000012"><a xlink:title=" ">
<path fill="none" stroke="#63b8ff" d="M691.03,-193.92C714.26,-183.8 742.79,-171.38 764.32,-162.01"/>
<polygon fill="#63b8ff" stroke="#63b8ff" points="689.53,-190.75 681.76,-197.95 692.33,-197.17 689.53,-190.75"/>
</a>
</g>
</g>
<!-- Node13 -->
<g id="Node000013" class="node">
<title>Node13</title>
<g id="a_Node000013"><a xlink:href="slam__test_8cpp.html" target="_top" xlink:title=" ">
<polygon fill="white" stroke="#666666" points="712.5,-162 588.5,-162 588.5,-132 712.5,-132 712.5,-162"/>
<text text-anchor="start" x="596.5" y="-150" font-family="Helvetica,sans-Serif" font-size="10.00">src/loc_map/test/slam</text>
<text text-anchor="middle" x="650.5" y="-139" font-family="Helvetica,sans-Serif" font-size="10.00">_test.cpp</text>
</a>
</g>
</g>
<!-- Node6&#45;&gt;Node13 -->
<g id="edge14_Node000006_Node000013" class="edge">
<title>Node6&#45;&gt;Node13</title>
<g id="a_edge14_Node000006_Node000013"><a xlink:title=" ">
<path fill="none" stroke="#63b8ff" d="M649.88,-187.54C650.02,-178.96 650.16,-169.61 650.28,-162.16"/>
<polygon fill="#63b8ff" stroke="#63b8ff" points="646.38,-187.74 649.72,-197.8 653.38,-187.85 646.38,-187.74"/>
</a>
</g>
</g>
<!-- Node7&#45;&gt;Node3 -->
<g id="edge7_Node000007_Node000003" class="edge">
<title>Node7&#45;&gt;Node3</title>
<g id="a_edge7_Node000007_Node000003"><a xlink:title=" ">
<path fill="none" stroke="#63b8ff" d="M340.83,-133.39C284.3,-123.58 204.38,-109.43 134.5,-96 131.66,-95.45 128.75,-94.89 125.82,-94.31"/>
<polygon fill="#63b8ff" stroke="#63b8ff" points="340.3,-136.85 350.75,-135.11 341.49,-129.95 340.3,-136.85"/>
</a>
</g>
</g>
<!-- Node7&#45;&gt;Node5 -->
<g id="edge9_Node000007_Node000005" class="edge">
<title>Node7&#45;&gt;Node5</title>
<g id="a_edge9_Node000007_Node000005"><a xlink:title=" ">
<path fill="none" stroke="#63b8ff" d="M435.14,-123.9C448.11,-107.24 460.32,-84.22 448.5,-66 435.69,-46.26 413.08,-34.25 391.5,-26.96"/>
<polygon fill="#63b8ff" stroke="#63b8ff" points="432.13,-122.05 428.42,-131.97 437.51,-126.53 432.13,-122.05"/>
</a>
</g>
</g>
<!-- Node8 -->
<g id="Node000008" class="node">
<title>Node8</title>
<g id="a_Node000008"><a xlink:href="loc__map_8cpp.html" target="_top" xlink:title=" ">
<polygon fill="white" stroke="#666666" points="605.5,-96 495.5,-96 495.5,-66 605.5,-66 605.5,-96"/>
<text text-anchor="start" x="503.5" y="-84" font-family="Helvetica,sans-Serif" font-size="10.00">src/loc_map/src/loc</text>
<text text-anchor="middle" x="550.5" y="-73" font-family="Helvetica,sans-Serif" font-size="10.00">_map.cpp</text>
</a>
</g>
</g>
<!-- Node7&#45;&gt;Node8 -->
<g id="edge8_Node000007_Node000008" class="edge">
<title>Node7&#45;&gt;Node8</title>
<g id="a_edge8_Node000007_Node000008"><a xlink:title=" ">
<path fill="none" stroke="#63b8ff" d="M453.5,-127.65C474.89,-117.58 500.99,-105.3 520.72,-96.01"/>
<polygon fill="#63b8ff" stroke="#63b8ff" points="451.9,-124.53 444.35,-131.95 454.88,-130.86 451.9,-124.53"/>
</a>
</g>
</g>
<!-- Node9 -->
<g id="Node000009" class="node">
<title>Node9</title>
<g id="a_Node000009"><a xlink:href="ekf__steps__exec__time_8cpp.html" target="_top" xlink:title=" ">
<polygon fill="white" stroke="#666666" points="267.5,-96 143.5,-96 143.5,-66 267.5,-66 267.5,-96"/>
<text text-anchor="start" x="151.5" y="-84" font-family="Helvetica,sans-Serif" font-size="10.00">src/loc_map/test/ekf</text>
<text text-anchor="middle" x="205.5" y="-73" font-family="Helvetica,sans-Serif" font-size="10.00">_steps_exec_time.cpp</text>
</a>
</g>
</g>
<!-- Node7&#45;&gt;Node9 -->
<g id="edge10_Node000007_Node000009" class="edge">
<title>Node7&#45;&gt;Node9</title>
<g id="a_edge10_Node000007_Node000009"><a xlink:title=" ">
<path fill="none" stroke="#63b8ff" d="M358.95,-128.99C325.32,-118.69 282.95,-105.72 251.26,-96.01"/>
<polygon fill="#63b8ff" stroke="#63b8ff" points="358.05,-132.37 368.63,-131.95 360.1,-125.68 358.05,-132.37"/>
</a>
</g>
</g>
<!-- Node10 -->
<g id="Node000010" class="node">
<title>Node10</title>
<g id="a_Node000010"><a xlink:href="integration__test_8cpp.html" target="_top" xlink:title=" ">
<polygon fill="white" stroke="#666666" points="439,-96 286,-96 286,-66 439,-66 439,-96"/>
<text text-anchor="start" x="294" y="-84" font-family="Helvetica,sans-Serif" font-size="10.00">src/loc_map/test/integration</text>
<text text-anchor="middle" x="362.5" y="-73" font-family="Helvetica,sans-Serif" font-size="10.00">_test.cpp</text>
</a>
</g>
</g>
<!-- Node7&#45;&gt;Node10 -->
<g id="edge11_Node000007_Node000010" class="edge">
<title>Node7&#45;&gt;Node10</title>
<g id="a_edge11_Node000007_Node000010"><a xlink:title=" ">
<path fill="none" stroke="#63b8ff" d="M396.47,-123.81C389.02,-114.64 380.6,-104.28 374.01,-96.16"/>
<polygon fill="#63b8ff" stroke="#63b8ff" points="393.94,-126.24 402.96,-131.8 399.37,-121.83 393.94,-126.24"/>
</a>
</g>
</g>
<!-- Node11 -->
<g id="Node000011" class="node">
<title>Node11</title>
<g id="a_Node000011"><a xlink:href="motion__model__test_8cpp.html" target="_top" xlink:title=" ">
<polygon fill="white" stroke="#666666" points="757.5,-96 623.5,-96 623.5,-66 757.5,-66 757.5,-96"/>
<text text-anchor="start" x="631.5" y="-84" font-family="Helvetica,sans-Serif" font-size="10.00">src/loc_map/test/motion</text>
<text text-anchor="middle" x="690.5" y="-73" font-family="Helvetica,sans-Serif" font-size="10.00">_model_test.cpp</text>
</a>
</g>
</g>
<!-- Node7&#45;&gt;Node11 -->
<g id="edge12_Node000007_Node000011" class="edge">
<title>Node7&#45;&gt;Node11</title>
<g id="a_edge12_Node000007_Node000011"><a xlink:title=" ">
<path fill="none" stroke="#63b8ff" d="M485.02,-129.65C529.86,-119.25 587.32,-105.93 630.07,-96.01"/>
<polygon fill="#63b8ff" stroke="#63b8ff" points="484.02,-126.29 475.07,-131.95 485.6,-133.11 484.02,-126.29"/>
</a>
</g>
</g>
<!-- Node14&#45;&gt;Node6 -->
<g id="edge16_Node000014_Node000006" class="edge">
<title>Node14&#45;&gt;Node6</title>
<g id="a_edge16_Node000014_Node000006"><a xlink:title=" ">
<path fill="none" stroke="#63b8ff" d="M593.92,-257.41C606.68,-247.44 620.74,-236.46 631.52,-228.04"/>
<polygon fill="#63b8ff" stroke="#63b8ff" points="591.49,-254.86 585.77,-263.77 595.8,-260.37 591.49,-254.86"/>
</a>
</g>
</g>
<!-- Node14&#45;&gt;Node11 -->
<g id="edge18_Node000014_Node000011" class="edge">
<title>Node14&#45;&gt;Node11</title>
<g id="a_edge18_Node000014_Node000011"><a xlink:title=" ">
<path fill="none" stroke="#63b8ff" d="M556.23,-253.9C553.13,-220.9 553.28,-167.5 579.5,-132 592.12,-114.91 611.94,-103.54 631.36,-96.02"/>
<polygon fill="#63b8ff" stroke="#63b8ff" points="552.75,-254.3 557.32,-263.85 559.71,-253.53 552.75,-254.3"/>
</a>
</g>
</g>
<!-- Node15 -->
<g id="Node000015" class="node">
<title>Node15</title>
<g id="a_Node000015"><a xlink:href="motion__models_8cpp.html" target="_top" xlink:title=" ">
<polygon fill="white" stroke="#666666" points="532,-228 389,-228 389,-198 532,-198 532,-228"/>
<text text-anchor="start" x="397" y="-216" font-family="Helvetica,sans-Serif" font-size="10.00">src/loc_map/src/kalman</text>
<text text-anchor="middle" x="460.5" y="-205" font-family="Helvetica,sans-Serif" font-size="10.00">_filter/motion_models.cpp</text>
</a>
</g>
</g>
<!-- Node14&#45;&gt;Node15 -->
<g id="edge17_Node000014_Node000015" class="edge">
<title>Node14&#45;&gt;Node15</title>
<g id="a_edge17_Node000014_Node000015"><a xlink:title=" ">
<path fill="none" stroke="#63b8ff" d="M524.03,-258.15C509.45,-248.02 493.22,-236.74 480.81,-228.11"/>
<polygon fill="#63b8ff" stroke="#63b8ff" points="522.17,-261.12 532.38,-263.96 526.16,-255.37 522.17,-261.12"/>
</a>
</g>
</g>
<!-- Node16&#45;&gt;Node6 -->
<g id="edge20_Node000016_Node000006" class="edge">
<title>Node16&#45;&gt;Node6</title>
<g id="a_edge20_Node000016_Node000006"><a xlink:title=" ">
<path fill="none" stroke="#63b8ff" d="M779.38,-260.53C749.37,-249.78 714.6,-237.32 688.59,-228"/>
<polygon fill="#63b8ff" stroke="#63b8ff" points="778.35,-263.88 788.94,-263.96 780.71,-257.29 778.35,-263.88"/>
</a>
</g>
</g>
<!-- Node17 -->
<g id="Node000017" class="node">
<title>Node17</title>
<g id="a_Node000017"><a xlink:href="observation__models_8cpp.html" target="_top" xlink:title=" ">
<polygon fill="white" stroke="#666666" points="933,-228 766,-228 766,-198 933,-198 933,-228"/>
<text text-anchor="start" x="774" y="-216" font-family="Helvetica,sans-Serif" font-size="10.00">src/loc_map/src/kalman</text>
<text text-anchor="middle" x="849.5" y="-205" font-family="Helvetica,sans-Serif" font-size="10.00">_filter/observation_models.cpp</text>
</a>
</g>
</g>
<!-- Node16&#45;&gt;Node17 -->
<g id="edge21_Node000016_Node000017" class="edge">
<title>Node16&#45;&gt;Node17</title>
<g id="a_edge21_Node000016_Node000017"><a xlink:title=" ">
<path fill="none" stroke="#63b8ff" d="M846.08,-253.66C846.84,-244.76 847.65,-235.42 848.29,-228.04"/>
<polygon fill="#63b8ff" stroke="#63b8ff" points="842.58,-253.51 845.2,-263.77 849.55,-254.11 842.58,-253.51"/>
</a>
</g>
</g>
<!-- Node18 -->
<g id="Node000018" class="node">
<title>Node18</title>
<g id="a_Node000018"><a xlink:href="observation__model__test_8cpp.html" target="_top" xlink:title=" ">
<polygon fill="white" stroke="#666666" points="1108.5,-228 950.5,-228 950.5,-198 1108.5,-198 1108.5,-228"/>
<text text-anchor="start" x="958.5" y="-216" font-family="Helvetica,sans-Serif" font-size="10.00">src/loc_map/test/observation</text>
<text text-anchor="middle" x="1029.5" y="-205" font-family="Helvetica,sans-Serif" font-size="10.00">_model_test.cpp</text>
</a>
</g>
</g>
<!-- Node16&#45;&gt;Node18 -->
<g id="edge22_Node000016_Node000018" class="edge">
<title>Node16&#45;&gt;Node18</title>
<g id="a_edge22_Node000016_Node000018"><a xlink:title=" ">
<path fill="none" stroke="#63b8ff" d="M905.35,-260.39C934.03,-249.67 967.19,-237.28 992.02,-228"/>
<polygon fill="#63b8ff" stroke="#63b8ff" points="903.95,-257.18 895.81,-263.96 906.4,-263.73 903.95,-257.18"/>
</a>
</g>
</g>
</g>
</svg>

<g id="navigator" transform="translate(0 0)" fill="#404254">
  <rect fill="#f2f5e9" fill-opacity="0.5" stroke="#606060" stroke-width=".5" x="0" y="0" width="60" height="60"/>
  <use id="zoomplus" xlink:href="#zoomPlus" x="17" y="9" onmousedown="handleZoom(evt,'in')"/>
  <use id="zoomminus" xlink:href="#zoomMin" x="42" y="9" onmousedown="handleZoom(evt,'out')"/>
  <use id="reset" xlink:href="#resetDef" x="30" y="36" onmousedown="handleReset()"/>
   <use id="arrowup" xlink:href="#arrowUp" x="0" y="0" onmousedown="handlePan(0,-1)"/>
  <use id="arrowright" xlink:href="#arrowRight" x="0" y="0" onmousedown="handlePan(1,0)"/>
  <use id="arrowdown" xlink:href="#arrowDown" x="0" y="0" onmousedown="handlePan(0,1)"/>
  <use id="arrowleft" xlink:href="#arrowLeft" x="0" y="0" onmousedown="handlePan(-1,0)"/>
</g>
<svg viewBox="0 0 15 15" width="100%" height="30px" preserveAspectRatio="xMaxYMin meet">
 <g id="arrow_out" transform="scale(0.3 0.3)">
  <a xlink:href="color_8hpp__dep__incl_org.svg" target="_base">
   <rect id="button" ry="5" rx="5" y="6" x="6" height="38" width="38"
        fill="#f2f5e9" fill-opacity="0.5" stroke="#606060" stroke-width="1.0"/>
   <path id="arrow"
     d="M 11.500037,31.436501 C 11.940474,20.09759 22.043105,11.32322 32.158766,21.979434 L 37.068811,17.246167 C 37.068811,17.246167 37.088388,32 37.088388,32 L 22.160133,31.978069 C 22.160133,31.978069 26.997745,27.140456 26.997745,27.140456 C 18.528582,18.264221 13.291696,25.230495 11.500037,31.436501 z"
     style="fill:#404040;"/>
  </a>
 </g>
</svg>

<style type='text/css'>
<![CDATA[
[data-mouse-over-selected='false'] { opacity: 0.7; }
[data-mouse-over-selected='true']  { opacity: 1.0; }
]]>
</style>
<script type="application/ecmascript"><![CDATA[
document.addEventListener('DOMContentLoaded', (event) => {
  highlightEdges();
  highlightAdjacentNodes();
});
]]></script>
</svg>
