<?xml version="1.0" encoding="UTF-8" standalone="no"?>
<!DOCTYPE svg PUBLIC "-//W3C//DTD SVG 1.1//EN"
 "http://www.w3.org/Graphics/SVG/1.1/DTD/svg11.dtd">
<!-- Generated by graphviz version 2.43.0 (0)
 -->
<!-- Title: loc_map/include/utils/color.hpp Pages: 1 -->
<!--zoomable 452 -->
<svg id="main" version="1.1" xmlns="http://www.w3.org/2000/svg" xmlns:xlink="http://www.w3.org/1999/xlink" xml:space="preserve" onload="init(evt)">
<style type="text/css"><![CDATA[
.edge:hover path { stroke: red; }
.edge:hover polygon { stroke: red; fill: red; }
]]></style>
<script type="text/javascript"><![CDATA[
var edges = document.getElementsByTagName('g');
if (edges && edges.length) {
  for (var i=0;i<edges.length;i++) {
    if (edges[i].id.substr(0,4)=='edge') {
      edges[i].setAttribute('class','edge');
    }
  }
}
]]></script>
        <defs>
                <circle id="rim" cx="0" cy="0" r="7"/>
                <circle id="rim2" cx="0" cy="0" r="3.5"/>
                <g id="zoomPlus">
                        <use xlink:href="#rim" fill="#404040">
                                <set attributeName="fill" to="#808080" begin="zoomplus.mouseover" end="zoomplus.mouseout"/>
                        </use>
                        <path d="M-4,0h8M0,-4v8" fill="none" stroke="white" stroke-width="1.5" pointer-events="none"/>
                </g>
                <g id="zoomMin">
                        <use xlink:href="#rim" fill="#404040">
                                <set attributeName="fill" to="#808080" begin="zoomminus.mouseover" end="zoomminus.mouseout"/>
                        </use>
                        <path d="M-4,0h8" fill="none" stroke="white" stroke-width="1.5" pointer-events="none"/>
                </g>
                <g id="dirArrow">
                        <path fill="none" stroke="white" stroke-width="1.5" d="M0,-3.0v7 M-2.5,-0.5L0,-3.0L2.5,-0.5"/>
                </g>
               <g id="resetDef">
                       <use xlink:href="#rim2" fill="#404040">
                               <set attributeName="fill" to="#808080" begin="reset.mouseover" end="reset.mouseout"/>
                       </use>
               </g>
        </defs>

<script type="text/javascript">
var viewWidth = 865;
var viewHeight = 452;
var sectionId = 'dynsection-1';
</script>
<script xlink:href="svgpan.js"/>
<svg id="graph" class="graph">
<g id="viewport">
<title>loc_map/include/utils/color.hpp</title>
<polygon fill="white" stroke="transparent" points="-4,4 -4,-448 860.5,-448 860.5,4 -4,4"/>
<!-- Node1 -->
<g id="node1" class="node">
<title>Node1</title>
<g id="a_node1"><a xlink:title=" ">
<polygon fill="#bfbfbf" stroke="black" points="456.5,-413.5 456.5,-443.5 564.5,-443.5 564.5,-413.5 456.5,-413.5"/>
<text text-anchor="start" x="464.5" y="-431.5" font-family="Helvetica,sans-Serif" font-size="10.00">loc_map/include/utils</text>
<text text-anchor="middle" x="510.5" y="-420.5" font-family="Helvetica,sans-Serif" font-size="10.00">/color.hpp</text>
</a>
</g>
</g>
<!-- Node2 -->
<g id="node2" class="node">
<title>Node2</title>
<g id="a_node2"><a xlink:href="data__structures_8hpp.html" target="_top" xlink:title=" ">
<polygon fill="white" stroke="black" points="370.5,-346.5 370.5,-376.5 500.5,-376.5 500.5,-346.5 370.5,-346.5"/>
<text text-anchor="start" x="378.5" y="-364.5" font-family="Helvetica,sans-Serif" font-size="10.00">loc_map/include/loc</text>
<text text-anchor="middle" x="435.5" y="-353.5" font-family="Helvetica,sans-Serif" font-size="10.00">_map/data_structures.hpp</text>
</a>
</g>
</g>
<!-- Node1&#45;&gt;Node2 -->
<g id="edge1" class="edge">
<title>Node1&#45;&gt;Node2</title>
<path fill="none" stroke="midnightblue" d="M486.38,-406.6C475.06,-396.78 461.86,-385.34 451.74,-376.58"/>
<polygon fill="midnightblue" stroke="midnightblue" points="484.38,-409.49 494.23,-413.4 488.96,-404.2 484.38,-409.49"/>
</g>
<!-- Node18 -->
<g id="node18" class="node">
<title>Node18</title>
<g id="a_node18"><a xlink:href="color_8cpp.html" target="_top" xlink:title=" ">
<polygon fill="white" stroke="black" points="519,-352 519,-371 652,-371 652,-352 519,-352"/>
<text text-anchor="middle" x="585.5" y="-359" font-family="Helvetica,sans-Serif" font-size="10.00">loc_map/src/utils/color.cpp</text>
</a>
</g>
</g>
<!-- Node1&#45;&gt;Node18 -->
<g id="edge24" class="edge">
<title>Node1&#45;&gt;Node18</title>
<path fill="none" stroke="midnightblue" d="M534.53,-406.67C548.38,-394.67 565.05,-380.22 575.47,-371.19"/>
<polygon fill="midnightblue" stroke="midnightblue" points="532.04,-404.2 526.77,-413.4 536.62,-409.49 532.04,-404.2"/>
</g>
<!-- Node3 -->
<g id="node3" class="node">
<title>Node3</title>
<g id="a_node3"><a xlink:href="adapter_8hpp.html" target="_top" xlink:title=" ">
<polygon fill="white" stroke="black" points="28.5,-67.5 28.5,-97.5 150.5,-97.5 150.5,-67.5 28.5,-67.5"/>
<text text-anchor="start" x="36.5" y="-85.5" font-family="Helvetica,sans-Serif" font-size="10.00">loc_map/include/adapter</text>
<text text-anchor="middle" x="89.5" y="-74.5" font-family="Helvetica,sans-Serif" font-size="10.00">/adapter.hpp</text>
</a>
</g>
</g>
<!-- Node2&#45;&gt;Node3 -->
<g id="edge2" class="edge">
<title>Node2&#45;&gt;Node3</title>
<path fill="none" stroke="midnightblue" d="M360.15,-352.49C323.56,-345.7 280.5,-333.16 247.5,-310 165.49,-252.43 112.08,-137.89 95.23,-97.78"/>
<polygon fill="midnightblue" stroke="midnightblue" points="359.83,-355.99 370.28,-354.26 361.03,-349.09 359.83,-355.99"/>
</g>
<!-- Node6 -->
<g id="node6" class="node">
<title>Node6</title>
<g id="a_node6"><a xlink:href="ekf_8hpp.html" target="_top" xlink:title=" ">
<polygon fill="white" stroke="black" points="419.5,-207 419.5,-237 541.5,-237 541.5,-207 419.5,-207"/>
<text text-anchor="start" x="427.5" y="-225" font-family="Helvetica,sans-Serif" font-size="10.00">loc_map/include/kalman</text>
<text text-anchor="middle" x="480.5" y="-214" font-family="Helvetica,sans-Serif" font-size="10.00">_filter/ekf.hpp</text>
</a>
</g>
</g>
<!-- Node2&#45;&gt;Node6 -->
<g id="edge5" class="edge">
<title>Node2&#45;&gt;Node6</title>
<path fill="none" stroke="midnightblue" d="M449.55,-337.58C454.23,-329.15 459.11,-319.37 462.5,-310 471.48,-285.2 476.5,-254.71 478.84,-237.2"/>
<polygon fill="midnightblue" stroke="midnightblue" points="446.41,-336.01 444.44,-346.43 452.47,-339.51 446.41,-336.01"/>
</g>
<!-- Node7 -->
<g id="node7" class="node">
<title>Node7</title>
<g id="a_node7"><a xlink:href="lm__node_8hpp.html" target="_top" xlink:title=" ">
<polygon fill="white" stroke="black" points="219,-134.5 219,-164.5 322,-164.5 322,-134.5 219,-134.5"/>
<text text-anchor="start" x="227" y="-152.5" font-family="Helvetica,sans-Serif" font-size="10.00">loc_map/include/loc</text>
<text text-anchor="middle" x="270.5" y="-141.5" font-family="Helvetica,sans-Serif" font-size="10.00">_map/lm_node.hpp</text>
</a>
</g>
</g>
<!-- Node2&#45;&gt;Node7 -->
<g id="edge22" class="edge">
<title>Node2&#45;&gt;Node7</title>
<path fill="none" stroke="midnightblue" d="M365.08,-343.34C315.2,-326.92 252.54,-296.48 225.5,-243 217.08,-226.34 218.86,-218.44 225.5,-201 230.93,-186.73 242.45,-173.93 252.48,-164.79"/>
<polygon fill="midnightblue" stroke="midnightblue" points="364.29,-346.76 374.88,-346.45 366.4,-340.09 364.29,-346.76"/>
</g>
<!-- Node11 -->
<g id="node11" class="node">
<title>Node11</title>
<g id="a_node11"><a xlink:href="ekf_8cpp.html" target="_top" xlink:title=" ">
<polygon fill="white" stroke="black" points="574.5,-134.5 574.5,-164.5 678.5,-164.5 678.5,-134.5 574.5,-134.5"/>
<text text-anchor="start" x="582.5" y="-152.5" font-family="Helvetica,sans-Serif" font-size="10.00">loc_map/src/kalman</text>
<text text-anchor="middle" x="626.5" y="-141.5" font-family="Helvetica,sans-Serif" font-size="10.00">_filter/ekf.cpp</text>
</a>
</g>
</g>
<!-- Node2&#45;&gt;Node11 -->
<g id="edge23" class="edge">
<title>Node2&#45;&gt;Node11</title>
<path fill="none" stroke="midnightblue" d="M457.48,-339.18C481.06,-316.04 519.33,-277.74 550.5,-243 574.65,-216.08 601.08,-183.02 615.54,-164.61"/>
<polygon fill="midnightblue" stroke="midnightblue" points="454.78,-336.92 450.08,-346.42 459.67,-341.93 454.78,-336.92"/>
</g>
<!-- Node13 -->
<g id="node13" class="node">
<title>Node13</title>
<g id="a_node13"><a xlink:href="motion__models_8hpp.html" target="_top" xlink:title=" ">
<polygon fill="white" stroke="black" points="325.5,-279.5 325.5,-309.5 453.5,-309.5 453.5,-279.5 325.5,-279.5"/>
<text text-anchor="start" x="333.5" y="-297.5" font-family="Helvetica,sans-Serif" font-size="10.00">loc_map/include/kalman</text>
<text text-anchor="middle" x="389.5" y="-286.5" font-family="Helvetica,sans-Serif" font-size="10.00">_filter/motion_models.hpp</text>
</a>
</g>
</g>
<!-- Node2&#45;&gt;Node13 -->
<g id="edge14" class="edge">
<title>Node2&#45;&gt;Node13</title>
<path fill="none" stroke="midnightblue" d="M419.69,-338.16C412.98,-328.68 405.37,-317.92 399.46,-309.58"/>
<polygon fill="midnightblue" stroke="midnightblue" points="416.88,-340.26 425.52,-346.4 422.6,-336.21 416.88,-340.26"/>
</g>
<!-- Node15 -->
<g id="node15" class="node">
<title>Node15</title>
<g id="a_node15"><a xlink:href="observation__models_8hpp.html" target="_top" xlink:title=" ">
<polygon fill="white" stroke="black" points="597,-279.5 597,-309.5 746,-309.5 746,-279.5 597,-279.5"/>
<text text-anchor="start" x="605" y="-297.5" font-family="Helvetica,sans-Serif" font-size="10.00">loc_map/include/kalman</text>
<text text-anchor="middle" x="671.5" y="-286.5" font-family="Helvetica,sans-Serif" font-size="10.00">_filter/observation_models.hpp</text>
</a>
</g>
</g>
<!-- Node2&#45;&gt;Node15 -->
<g id="edge18" class="edge">
<title>Node2&#45;&gt;Node15</title>
<path fill="none" stroke="midnightblue" d="M496.44,-343.71C534.85,-333.14 583.87,-319.63 620.27,-309.61"/>
<polygon fill="midnightblue" stroke="midnightblue" points="495.13,-340.45 486.42,-346.48 496.99,-347.19 495.13,-340.45"/>
</g>
<!-- Node4 -->
<g id="node4" class="node">
<title>Node4</title>
<g id="a_node4"><a xlink:href="adapter_8cpp.html" target="_top" xlink:title=" ">
<polygon fill="white" stroke="black" points="0,-0.5 0,-30.5 105,-30.5 105,-0.5 0,-0.5"/>
<text text-anchor="start" x="8" y="-18.5" font-family="Helvetica,sans-Serif" font-size="10.00">loc_map/src/adapter</text>
<text text-anchor="middle" x="52.5" y="-7.5" font-family="Helvetica,sans-Serif" font-size="10.00">/adapter.cpp</text>
</a>
</g>
</g>
<!-- Node3&#45;&gt;Node4 -->
<g id="edge3" class="edge">
<title>Node3&#45;&gt;Node4</title>
<path fill="none" stroke="midnightblue" d="M76.45,-58.58C71.14,-49.24 65.16,-38.75 60.51,-30.58"/>
<polygon fill="midnightblue" stroke="midnightblue" points="73.48,-60.44 81.47,-67.4 79.57,-56.97 73.48,-60.44"/>
</g>
<!-- Node5 -->
<g id="node5" class="node">
<title>Node5</title>
<g id="a_node5"><a xlink:href="lm__node_8cpp.html" target="_top" xlink:title=" ">
<polygon fill="white" stroke="black" points="123.5,-0.5 123.5,-30.5 233.5,-30.5 233.5,-0.5 123.5,-0.5"/>
<text text-anchor="start" x="131.5" y="-18.5" font-family="Helvetica,sans-Serif" font-size="10.00">loc_map/src/loc_map</text>
<text text-anchor="middle" x="178.5" y="-7.5" font-family="Helvetica,sans-Serif" font-size="10.00">/lm_node.cpp</text>
</a>
</g>
</g>
<!-- Node3&#45;&gt;Node5 -->
<g id="edge4" class="edge">
<title>Node3&#45;&gt;Node5</title>
<path fill="none" stroke="midnightblue" d="M116.95,-61.45C130.64,-51.45 146.87,-39.6 159.23,-30.58"/>
<polygon fill="midnightblue" stroke="midnightblue" points="114.82,-58.67 108.81,-67.4 118.95,-64.32 114.82,-58.67"/>
</g>
<!-- Node6&#45;&gt;Node7 -->
<g id="edge6" class="edge">
<title>Node6&#45;&gt;Node7</title>
<path fill="none" stroke="midnightblue" d="M428.98,-203.7C393.18,-191.68 346.05,-175.86 312.52,-164.61"/>
<polygon fill="midnightblue" stroke="midnightblue" points="428.17,-207.12 438.76,-206.99 430.39,-200.49 428.17,-207.12"/>
</g>
<!-- Node6&#45;&gt;Node11 -->
<g id="edge12" class="edge">
<title>Node6&#45;&gt;Node11</title>
<path fill="none" stroke="midnightblue" d="M518.75,-202.53C543.34,-190.66 574.79,-175.47 597.36,-164.57"/>
<polygon fill="midnightblue" stroke="midnightblue" points="517.18,-199.4 509.69,-206.9 520.22,-205.71 517.18,-199.4"/>
</g>
<!-- Node12 -->
<g id="node12" class="node">
<title>Node12</title>
<g id="a_node12"><a xlink:href="slam__test_8cpp.html" target="_top" xlink:title=" ">
<polygon fill="white" stroke="black" points="419,-140 419,-159 556,-159 556,-140 419,-140"/>
<text text-anchor="middle" x="487.5" y="-147" font-family="Helvetica,sans-Serif" font-size="10.00">loc_map/test/slam_test.cpp</text>
</a>
</g>
</g>
<!-- Node6&#45;&gt;Node12 -->
<g id="edge13" class="edge">
<title>Node6&#45;&gt;Node12</title>
<path fill="none" stroke="midnightblue" d="M482.92,-196.59C484.2,-183.71 485.69,-168.7 486.62,-159.39"/>
<polygon fill="midnightblue" stroke="midnightblue" points="479.42,-196.44 481.92,-206.73 486.39,-197.13 479.42,-196.44"/>
</g>
<!-- Node7&#45;&gt;Node3 -->
<g id="edge7" class="edge">
<title>Node7&#45;&gt;Node3</title>
<path fill="none" stroke="midnightblue" d="M221.64,-130.96C192.49,-120.48 155.96,-107.37 128.7,-97.58"/>
<polygon fill="midnightblue" stroke="midnightblue" points="220.63,-134.31 231.23,-134.4 223,-127.72 220.63,-134.31"/>
</g>
<!-- Node7&#45;&gt;Node5 -->
<g id="edge8" class="edge">
<title>Node7&#45;&gt;Node5</title>
<path fill="none" stroke="midnightblue" d="M231.85,-129.28C219.19,-121.22 206.16,-110.73 197.5,-98 183.53,-77.46 179.74,-47.99 178.77,-30.69"/>
<polygon fill="midnightblue" stroke="midnightblue" points="230.12,-132.32 240.49,-134.46 233.72,-126.32 230.12,-132.32"/>
</g>
<!-- Node8 -->
<g id="node8" class="node">
<title>Node8</title>
<g id="a_node8"><a xlink:href="loc__map_8cpp.html" target="_top" xlink:title=" ">
<polygon fill="white" stroke="black" points="206.5,-73 206.5,-92 334.5,-92 334.5,-73 206.5,-73"/>
<text text-anchor="middle" x="270.5" y="-80" font-family="Helvetica,sans-Serif" font-size="10.00">loc_map/src/loc_map.cpp</text>
</a>
</g>
</g>
<!-- Node7&#45;&gt;Node8 -->
<g id="edge9" class="edge">
<title>Node7&#45;&gt;Node8</title>
<path fill="none" stroke="midnightblue" d="M270.5,-124.25C270.5,-113.02 270.5,-100.38 270.5,-92.19"/>
<polygon fill="midnightblue" stroke="midnightblue" points="267,-124.4 270.5,-134.4 274,-124.4 267,-124.4"/>
</g>
<!-- Node9 -->
<g id="node9" class="node">
<title>Node9</title>
<g id="a_node9"><a xlink:href="integration__test_8cpp.html" target="_top" xlink:title=" ">
<polygon fill="white" stroke="black" points="353,-67.5 353,-97.5 474,-97.5 474,-67.5 353,-67.5"/>
<text text-anchor="start" x="361" y="-85.5" font-family="Helvetica,sans-Serif" font-size="10.00">loc_map/test/integration</text>
<text text-anchor="middle" x="413.5" y="-74.5" font-family="Helvetica,sans-Serif" font-size="10.00">_test.cpp</text>
</a>
</g>
</g>
<!-- Node7&#45;&gt;Node9 -->
<g id="edge10" class="edge">
<title>Node7&#45;&gt;Node9</title>
<path fill="none" stroke="midnightblue" d="M310.91,-130.13C333.63,-119.8 361.56,-107.11 382.53,-97.58"/>
<polygon fill="midnightblue" stroke="midnightblue" points="309.18,-127.07 301.53,-134.4 312.08,-133.44 309.18,-127.07"/>
</g>
<!-- Node10 -->
<g id="node10" class="node">
<title>Node10</title>
<g id="a_node10"><a xlink:href="motion__model__test_8cpp.html" target="_top" xlink:title=" ">
<polygon fill="white" stroke="black" points="492,-67.5 492,-97.5 597,-97.5 597,-67.5 492,-67.5"/>
<text text-anchor="start" x="500" y="-85.5" font-family="Helvetica,sans-Serif" font-size="10.00">loc_map/test/motion</text>
<text text-anchor="middle" x="544.5" y="-74.5" font-family="Helvetica,sans-Serif" font-size="10.00">_model_test.cpp</text>
</a>
</g>
</g>
<!-- Node7&#45;&gt;Node10 -->
<g id="edge11" class="edge">
<title>Node7&#45;&gt;Node10</title>
<path fill="none" stroke="midnightblue" d="M332.07,-133.91C374.61,-123.83 432.49,-110.11 483.5,-98 486.25,-97.35 489.08,-96.68 491.93,-96"/>
<polygon fill="midnightblue" stroke="midnightblue" points="331.07,-130.55 322.15,-136.26 332.69,-137.36 331.07,-130.55"/>
</g>
<!-- Node13&#45;&gt;Node6 -->
<g id="edge15" class="edge">
<title>Node13&#45;&gt;Node6</title>
<path fill="none" stroke="midnightblue" d="M416.24,-272.79C431.11,-261.27 449.22,-247.23 462.42,-237"/>
<polygon fill="midnightblue" stroke="midnightblue" points="413.68,-270.34 407.92,-279.23 417.96,-275.88 413.68,-270.34"/>
</g>
<!-- Node13&#45;&gt;Node10 -->
<g id="edge17" class="edge">
<title>Node13&#45;&gt;Node10</title>
<path fill="none" stroke="midnightblue" d="M385.6,-269.33C381.53,-235.31 379.49,-173.09 410.5,-134 421.12,-120.61 458.99,-107.04 491.77,-97.34"/>
<polygon fill="midnightblue" stroke="midnightblue" points="382.14,-269.88 386.95,-279.32 389.08,-268.94 382.14,-269.88"/>
</g>
<!-- Node14 -->
<g id="node14" class="node">
<title>Node14</title>
<g id="a_node14"><a xlink:href="motion__models_8cpp.html" target="_top" xlink:title=" ">
<polygon fill="white" stroke="black" points="234.5,-207 234.5,-237 362.5,-237 362.5,-207 234.5,-207"/>
<text text-anchor="start" x="242.5" y="-225" font-family="Helvetica,sans-Serif" font-size="10.00">loc_map/src/kalman</text>
<text text-anchor="middle" x="298.5" y="-214" font-family="Helvetica,sans-Serif" font-size="10.00">_filter/motion_models.cpp</text>
</a>
</g>
</g>
<!-- Node13&#45;&gt;Node14 -->
<g id="edge16" class="edge">
<title>Node13&#45;&gt;Node14</title>
<path fill="none" stroke="midnightblue" d="M362.76,-272.79C347.89,-261.27 329.78,-247.23 316.58,-237"/>
<polygon fill="midnightblue" stroke="midnightblue" points="361.04,-275.88 371.08,-279.23 365.32,-270.34 361.04,-275.88"/>
</g>
<!-- Node15&#45;&gt;Node6 -->
<g id="edge19" class="edge">
<title>Node15&#45;&gt;Node6</title>
<path fill="none" stroke="midnightblue" d="M623.57,-275.81C591.11,-263.83 548.8,-248.21 518.63,-237.07"/>
<polygon fill="midnightblue" stroke="midnightblue" points="622.71,-279.22 633.31,-279.4 625.14,-272.66 622.71,-279.22"/>
</g>
<!-- Node16 -->
<g id="node16" class="node">
<title>Node16</title>
<g id="a_node16"><a xlink:href="observation__models_8cpp.html" target="_top" xlink:title=" ">
<polygon fill="white" stroke="black" points="608.5,-201.5 608.5,-242.5 712.5,-242.5 712.5,-201.5 608.5,-201.5"/>
<text text-anchor="start" x="616.5" y="-230.5" font-family="Helvetica,sans-Serif" font-size="10.00">loc_map/src/kalman</text>
<text text-anchor="start" x="616.5" y="-219.5" font-family="Helvetica,sans-Serif" font-size="10.00">_filter/observation</text>
<text text-anchor="middle" x="660.5" y="-208.5" font-family="Helvetica,sans-Serif" font-size="10.00">_models.cpp</text>
</a>
</g>
</g>
<!-- Node15&#45;&gt;Node16 -->
<g id="edge20" class="edge">
<title>Node15&#45;&gt;Node16</title>
<path fill="none" stroke="midnightblue" d="M667.72,-269.27C666.36,-260.56 664.85,-250.85 663.56,-242.59"/>
<polygon fill="midnightblue" stroke="midnightblue" points="664.27,-269.89 669.27,-279.23 671.19,-268.81 664.27,-269.89"/>
</g>
<!-- Node17 -->
<g id="node17" class="node">
<title>Node17</title>
<g id="a_node17"><a xlink:href="observation__model__test_8cpp.html" target="_top" xlink:title=" ">
<polygon fill="white" stroke="black" points="730.5,-207 730.5,-237 856.5,-237 856.5,-207 730.5,-207"/>
<text text-anchor="start" x="738.5" y="-225" font-family="Helvetica,sans-Serif" font-size="10.00">loc_map/test/observation</text>
<text text-anchor="middle" x="793.5" y="-214" font-family="Helvetica,sans-Serif" font-size="10.00">_model_test.cpp</text>
</a>
</g>
</g>
<!-- Node15&#45;&gt;Node17 -->
<g id="edge21" class="edge">
<title>Node15&#45;&gt;Node17</title>
<path fill="none" stroke="midnightblue" d="M704.55,-274.4C724.93,-262.62 750.62,-247.78 769.15,-237.07"/>
<polygon fill="midnightblue" stroke="midnightblue" points="702.8,-271.37 695.9,-279.4 706.3,-277.43 702.8,-271.37"/>
</g>
</g>
</svg>
        <g id="navigator" transform="translate(0 0)" fill="#404254">
                <rect fill="#f2f5e9" fill-opacity="0.5" stroke="#606060" stroke-width=".5" x="0" y="0" width="60" height="60"/>
                <use id="zoomplus" xlink:href="#zoomPlus" x="17" y="9" onmousedown="handleZoom(evt,'in')"/>
                <use id="zoomminus" xlink:href="#zoomMin" x="42" y="9" onmousedown="handleZoom(evt,'out')"/>
                <use id="reset" xlink:href="#resetDef" x="30" y="36" onmousedown="handleReset()"/>
                <g id="arrowUp" xlink:href="#dirArrow" transform="translate(30 24)" onmousedown="handlePan(0,-1)">
                  <use xlink:href="#rim" fill="#404040">
                        <set attributeName="fill" to="#808080" begin="arrowUp.mouseover" end="arrowUp.mouseout"/>
                  </use>
                  <path fill="none" stroke="white" stroke-width="1.5" d="M0,-3.0v7 M-2.5,-0.5L0,-3.0L2.5,-0.5"/>
                </g>
                <g id="arrowRight" xlink:href="#dirArrow" transform="rotate(90) translate(36 -43)" onmousedown="handlePan(1,0)">
                  <use xlink:href="#rim" fill="#404040">
                        <set attributeName="fill" to="#808080" begin="arrowRight.mouseover" end="arrowRight.mouseout"/>
                  </use>
                  <path fill="none" stroke="white" stroke-width="1.5" d="M0,-3.0v7 M-2.5,-0.5L0,-3.0L2.5,-0.5"/>
                </g>
                <g id="arrowDown" xlink:href="#dirArrow" transform="rotate(180) translate(-30 -48)" onmousedown="handlePan(0,1)">
                  <use xlink:href="#rim" fill="#404040">
                        <set attributeName="fill" to="#808080" begin="arrowDown.mouseover" end="arrowDown.mouseout"/>
                  </use>
                  <path fill="none" stroke="white" stroke-width="1.5" d="M0,-3.0v7 M-2.5,-0.5L0,-3.0L2.5,-0.5"/>
                </g>
                <g id="arrowLeft" xlink:href="#dirArrow" transform="rotate(270) translate(-36 17)" onmousedown="handlePan(-1,0)">
                  <use xlink:href="#rim" fill="#404040">
                        <set attributeName="fill" to="#808080" begin="arrowLeft.mouseover" end="arrowLeft.mouseout"/>
                  </use>
                  <path fill="none" stroke="white" stroke-width="1.5" d="M0,-3.0v7 M-2.5,-0.5L0,-3.0L2.5,-0.5"/>
                </g>
        </g>
        <svg viewBox="0 0 15 15" width="100%" height="30px" preserveAspectRatio="xMaxYMin meet">
         <g id="arrow_out" transform="scale(0.3 0.3)">
          <a xlink:href="color_8hpp__dep__incl_org.svg" target="_base">
           <rect id="button" ry="5" rx="5" y="6" x="6" height="38" width="38"
                fill="#f2f5e9" fill-opacity="0.5" stroke="#606060" stroke-width="1.0"/>
           <path id="arrow"
             d="M 11.500037,31.436501 C 11.940474,20.09759 22.043105,11.32322 32.158766,21.979434 L 37.068811,17.246167 C 37.068811,17.246167 37.088388,32 37.088388,32 L 22.160133,31.978069 C 22.160133,31.978069 26.997745,27.140456 26.997745,27.140456 C 18.528582,18.264221 13.291696,25.230495 11.500037,31.436501 z"
             style="fill:#404040;"/>
          </a>
         </g>
        </svg>
</svg>
