<?xml version="1.0" encoding="UTF-8" standalone="no"?>
<!DOCTYPE svg PUBLIC "-//W3C//DTD SVG 1.1//EN"
 "http://www.w3.org/Graphics/SVG/1.1/DTD/svg11.dtd">
<!-- Generated by graphviz version 2.43.0 (0)
 -->
<!-- Title: src/loc_map/src/utils/color.cpp Pages: 1 -->
<svg width="124pt" height="148pt"
 viewBox="0.00 0.00 124.00 148.00" xmlns="http://www.w3.org/2000/svg" xmlns:xlink="http://www.w3.org/1999/xlink">

<svg id="main" version="1.1" xmlns="http://www.w3.org/2000/svg" xmlns:xlink="http://www.w3.org/1999/xlink" xml:space="preserve" onload="init(evt)">
<style type="text/css"><![CDATA[
.node, .edge {opacity: 0.7;}
.node.selected, .edge.selected {opacity: 1;}
.edge:hover path { stroke: red; }
.edge:hover polygon { stroke: red; fill: red; }
]]></style>
<script type="application/ecmascript" xlink:href="svg.min.js"/>
<svg id="graph" class="graph">
<g id="graph0" class="graph" transform="scale(1 1) rotate(0) translate(4 144)">
<title>src/loc_map/src/utils/color.cpp</title>
<!-- Node1 -->
<g id="Node000001" class="node">
<title>Node1</title>
<g id="a_Node000001"><a xlink:title=" ">
<polygon fill="#999999" stroke="#666666" points="116,-140 0,-140 0,-110 116,-110 116,-140"/>
<text text-anchor="start" x="8" y="-128" font-family="Helvetica,sans-Serif" font-size="10.00">src/loc_map/src/utils</text>
<text text-anchor="middle" x="58" y="-117" font-family="Helvetica,sans-Serif" font-size="10.00">/color.cpp</text>
</a>
</g>
</g>
<!-- Node2 -->
<g id="Node000002" class="node">
<title>Node2</title>
<g id="a_Node000002"><a xlink:href="color_8hpp.html" target="_top" xlink:title=" ">
<polygon fill="white" stroke="#666666" points="100.5,-74 15.5,-74 15.5,-55 100.5,-55 100.5,-74"/>
<text text-anchor="middle" x="58" y="-62" font-family="Helvetica,sans-Serif" font-size="10.00">utils/color.hpp</text>
</a>
</g>
</g>
<!-- Node1&#45;&gt;Node2 -->
<g id="edge1_Node000001_Node000002" class="edge">
<title>Node1&#45;&gt;Node2</title>
<g id="a_edge1_Node000001_Node000002"><a xlink:title=" ">
<path fill="none" stroke="#63b8ff" d="M58,-109.84C58,-102.21 58,-92.7 58,-84.45"/>
<polygon fill="#63b8ff" stroke="#63b8ff" points="61.5,-84.27 58,-74.27 54.5,-84.27 61.5,-84.27"/>
</a>
</g>
</g>
<!-- Node3 -->
<g id="Node000003" class="node">
<title>Node3</title>
<g id="a_Node000003"><a xlink:title=" ">
<polygon fill="#e0e0e0" stroke="#999999" points="48,-19 10,-19 10,0 48,0 48,-19"/>
<text text-anchor="middle" x="29" y="-7" font-family="Helvetica,sans-Serif" font-size="10.00">map</text>
</a>
</g>
</g>
<!-- Node2&#45;&gt;Node3 -->
<g id="edge2_Node000002_Node000003" class="edge">
<title>Node2&#45;&gt;Node3</title>
<g id="a_edge2_Node000002_Node000003"><a xlink:title=" ">
<path fill="none" stroke="#63b8ff" d="M53.21,-54.75C49.24,-47.49 43.47,-36.95 38.57,-27.98"/>
<polygon fill="#63b8ff" stroke="#63b8ff" points="41.57,-26.18 33.7,-19.09 35.43,-29.54 41.57,-26.18"/>
</a>
</g>
</g>
<!-- Node4 -->
<g id="Node000004" class="node">
<title>Node4</title>
<g id="a_Node000004"><a xlink:title=" ">
<polygon fill="#e0e0e0" stroke="#999999" points="110,-19 66,-19 66,0 110,0 110,-19"/>
<text text-anchor="middle" x="88" y="-7" font-family="Helvetica,sans-Serif" font-size="10.00">string</text>
</a>
</g>
</g>
<!-- Node2&#45;&gt;Node4 -->
<g id="edge3_Node000002_Node000004" class="edge">
<title>Node2&#45;&gt;Node4</title>
<g id="a_edge3_Node000002_Node000004"><a xlink:title=" ">
<path fill="none" stroke="#63b8ff" d="M62.95,-54.75C67.06,-47.49 73.03,-36.95 78.1,-27.98"/>
<polygon fill="#63b8ff" stroke="#63b8ff" points="81.26,-29.52 83.14,-19.09 75.17,-26.07 81.26,-29.52"/>
</a>
</g>
</g>
</g>
</svg>
</svg>

<style type='text/css'>
<![CDATA[
[data-mouse-over-selected='false'] { opacity: 0.7; }
[data-mouse-over-selected='true']  { opacity: 1.0; }
]]>
</style>
<script type="application/ecmascript"><![CDATA[
document.addEventListener('DOMContentLoaded', (event) => {
  highlightEdges();
  highlightAdjacentNodes();
});
]]></script>
</svg>
