<?xml version="1.0" encoding="UTF-8" standalone="no"?>
<!DOCTYPE svg PUBLIC "-//W3C//DTD SVG 1.1//EN"
 "http://www.w3.org/Graphics/SVG/1.1/DTD/svg11.dtd">
<!-- Generated by graphviz version 2.43.0 (0)
 -->
<!-- Title: loc_map/include/loc_map/data_structures.hpp Pages: 1 -->
<svg width="334pt" height="151pt"
 viewBox="0.00 0.00 334.00 151.00" xmlns="http://www.w3.org/2000/svg" xmlns:xlink="http://www.w3.org/1999/xlink">
<g id="graph0" class="graph" transform="scale(1 1) rotate(0) translate(4 147)">
<title>loc_map/include/loc_map/data_structures.hpp</title>
<polygon fill="white" stroke="transparent" points="-4,4 -4,-147 330,-147 330,4 -4,4"/>
<!-- Node1 -->
<g id="node1" class="node">
<title>Node1</title>
<g id="a_node1"><a xlink:title=" ">
<polygon fill="#bfbfbf" stroke="black" points="76,-112.5 76,-142.5 206,-142.5 206,-112.5 76,-112.5"/>
<text text-anchor="start" x="84" y="-130.5" font-family="Helvetica,sans-Serif" font-size="10.00">loc_map/include/loc</text>
<text text-anchor="middle" x="141" y="-119.5" font-family="Helvetica,sans-Serif" font-size="10.00">_map/data_structures.hpp</text>
</a>
</g>
</g>
<!-- Node2 -->
<g id="node2" class="node">
<title>Node2</title>
<g id="a_node2"><a xlink:title=" ">
<polygon fill="white" stroke="#bfbfbf" points="0,-56.5 0,-75.5 46,-75.5 46,-56.5 0,-56.5"/>
<text text-anchor="middle" x="23" y="-63.5" font-family="Helvetica,sans-Serif" font-size="10.00">chrono</text>
</a>
</g>
</g>
<!-- Node1&#45;&gt;Node2 -->
<g id="edge1" class="edge">
<title>Node1&#45;&gt;Node2</title>
<path fill="none" stroke="midnightblue" d="M113.04,-112.4C93.68,-102.64 68.09,-89.74 49.14,-80.18"/>
<polygon fill="midnightblue" stroke="midnightblue" points="50.67,-77.04 40.17,-75.66 47.52,-83.29 50.67,-77.04"/>
</g>
<!-- Node3 -->
<g id="node3" class="node">
<title>Node3</title>
<g id="a_node3"><a xlink:title=" ">
<polygon fill="white" stroke="#bfbfbf" points="92.5,-0.5 92.5,-19.5 127.5,-19.5 127.5,-0.5 92.5,-0.5"/>
<text text-anchor="middle" x="110" y="-7.5" font-family="Helvetica,sans-Serif" font-size="10.00">map</text>
</a>
</g>
</g>
<!-- Node1&#45;&gt;Node3 -->
<g id="edge2" class="edge">
<title>Node1&#45;&gt;Node3</title>
<path fill="none" stroke="midnightblue" d="M121.8,-112.45C111.12,-103.4 98.83,-90.6 93,-76 86.79,-60.46 92.88,-41.93 99.43,-28.64"/>
<polygon fill="midnightblue" stroke="midnightblue" points="102.63,-30.09 104.34,-19.63 96.48,-26.74 102.63,-30.09"/>
</g>
<!-- Node4 -->
<g id="node4" class="node">
<title>Node4</title>
<g id="a_node4"><a xlink:title=" ">
<polygon fill="white" stroke="#bfbfbf" points="150.5,-0.5 150.5,-19.5 191.5,-19.5 191.5,-0.5 150.5,-0.5"/>
<text text-anchor="middle" x="171" y="-7.5" font-family="Helvetica,sans-Serif" font-size="10.00">string</text>
</a>
</g>
</g>
<!-- Node1&#45;&gt;Node4 -->
<g id="edge3" class="edge">
<title>Node1&#45;&gt;Node4</title>
<path fill="none" stroke="midnightblue" d="M160.2,-112.45C170.88,-103.4 183.17,-90.6 189,-76 195.23,-60.4 188.83,-41.88 181.99,-28.6"/>
<polygon fill="midnightblue" stroke="midnightblue" points="184.87,-26.58 176.88,-19.61 178.78,-30.03 184.87,-26.58"/>
</g>
<!-- Node5 -->
<g id="node5" class="node">
<title>Node5</title>
<g id="a_node5"><a xlink:href="color_8hpp.html" target="_top" xlink:title=" ">
<polygon fill="white" stroke="black" points="102.5,-56.5 102.5,-75.5 179.5,-75.5 179.5,-56.5 102.5,-56.5"/>
<text text-anchor="middle" x="141" y="-63.5" font-family="Helvetica,sans-Serif" font-size="10.00">utils/color.hpp</text>
</a>
</g>
</g>
<!-- Node1&#45;&gt;Node5 -->
<g id="edge4" class="edge">
<title>Node1&#45;&gt;Node5</title>
<path fill="none" stroke="midnightblue" d="M141,-112.4C141,-104.47 141,-94.46 141,-85.86"/>
<polygon fill="midnightblue" stroke="midnightblue" points="144.5,-85.66 141,-75.66 137.5,-85.66 144.5,-85.66"/>
</g>
<!-- Node6 -->
<g id="node6" class="node">
<title>Node6</title>
<g id="a_node6"><a xlink:href="position_8hpp.html" target="_top" xlink:title=" ">
<polygon fill="white" stroke="black" points="236,-56.5 236,-75.5 326,-75.5 326,-56.5 236,-56.5"/>
<text text-anchor="middle" x="281" y="-63.5" font-family="Helvetica,sans-Serif" font-size="10.00">utils/position.hpp</text>
</a>
</g>
</g>
<!-- Node1&#45;&gt;Node6 -->
<g id="edge7" class="edge">
<title>Node1&#45;&gt;Node6</title>
<path fill="none" stroke="midnightblue" d="M174.18,-112.4C197.56,-102.46 228.61,-89.26 251.21,-79.66"/>
<polygon fill="midnightblue" stroke="midnightblue" points="252.79,-82.79 260.63,-75.66 250.06,-76.35 252.79,-82.79"/>
</g>
<!-- Node5&#45;&gt;Node3 -->
<g id="edge5" class="edge">
<title>Node5&#45;&gt;Node3</title>
<path fill="none" stroke="midnightblue" d="M135.88,-56.08C131.59,-48.61 125.34,-37.72 120.06,-28.52"/>
<polygon fill="midnightblue" stroke="midnightblue" points="123.04,-26.68 115.02,-19.75 116.97,-30.17 123.04,-26.68"/>
</g>
<!-- Node5&#45;&gt;Node4 -->
<g id="edge6" class="edge">
<title>Node5&#45;&gt;Node4</title>
<path fill="none" stroke="midnightblue" d="M145.95,-56.08C150.1,-48.61 156.15,-37.72 161.27,-28.52"/>
<polygon fill="midnightblue" stroke="midnightblue" points="164.34,-30.19 166.14,-19.75 158.22,-26.79 164.34,-30.19"/>
</g>
</g>
</svg>
