<?xml version="1.0" encoding="UTF-8" standalone="no"?>
<!DOCTYPE svg PUBLIC "-//W3C//DTD SVG 1.1//EN"
 "http://www.w3.org/Graphics/SVG/1.1/DTD/svg11.dtd">
<!-- Generated by graphviz version 2.43.0 (0)
 -->
<!-- Title: src/loc_map/include/loc_map/data_structures.hpp Pages: 1 -->
<svg width="358pt" height="148pt"
 viewBox="0.00 0.00 357.50 148.00" xmlns="http://www.w3.org/2000/svg" xmlns:xlink="http://www.w3.org/1999/xlink">

<svg id="main" version="1.1" xmlns="http://www.w3.org/2000/svg" xmlns:xlink="http://www.w3.org/1999/xlink" xml:space="preserve" onload="init(evt)">
<style type="text/css"><![CDATA[
.node, .edge {opacity: 0.7;}
.node.selected, .edge.selected {opacity: 1;}
.edge:hover path { stroke: red; }
.edge:hover polygon { stroke: red; fill: red; }
]]></style>
<script type="application/ecmascript" xlink:href="svg.min.js"/>
<svg id="graph" class="graph">
<g id="graph0" class="graph" transform="scale(1 1) rotate(0) translate(4 144)">
<title>src/loc_map/include/loc_map/data_structures.hpp</title>
<!-- Node1 -->
<g id="Node000001" class="node">
<title>Node1</title>
<g id="a_Node000001"><a xlink:title=" ">
<polygon fill="#999999" stroke="#666666" points="229.5,-140 68.5,-140 68.5,-110 229.5,-110 229.5,-140"/>
<text text-anchor="start" x="76.5" y="-128" font-family="Helvetica,sans-Serif" font-size="10.00">src/loc_map/include</text>
<text text-anchor="middle" x="149" y="-117" font-family="Helvetica,sans-Serif" font-size="10.00">/loc_map/data_structures.hpp</text>
</a>
</g>
</g>
<!-- Node2 -->
<g id="Node000002" class="node">
<title>Node2</title>
<g id="a_Node000002"><a xlink:title=" ">
<polygon fill="#e0e0e0" stroke="#999999" points="50,-74 0,-74 0,-55 50,-55 50,-74"/>
<text text-anchor="middle" x="25" y="-62" font-family="Helvetica,sans-Serif" font-size="10.00">chrono</text>
</a>
</g>
</g>
<!-- Node1&#45;&gt;Node2 -->
<g id="edge1_Node000001_Node000002" class="edge">
<title>Node1&#45;&gt;Node2</title>
<g id="a_edge1_Node000001_Node000002"><a xlink:title=" ">
<path fill="none" stroke="#63b8ff" d="M119.3,-109.99C98.98,-100.4 72.24,-87.79 52.42,-78.44"/>
<polygon fill="#63b8ff" stroke="#63b8ff" points="53.85,-75.24 43.31,-74.14 50.86,-81.57 53.85,-75.24"/>
</a>
</g>
</g>
<!-- Node3 -->
<g id="Node000003" class="node">
<title>Node3</title>
<g id="a_Node000003"><a xlink:title=" ">
<polygon fill="#e0e0e0" stroke="#999999" points="135,-19 97,-19 97,0 135,0 135,-19"/>
<text text-anchor="middle" x="116" y="-7" font-family="Helvetica,sans-Serif" font-size="10.00">map</text>
</a>
</g>
</g>
<!-- Node1&#45;&gt;Node3 -->
<g id="edge2_Node000001_Node000003" class="edge">
<title>Node1&#45;&gt;Node3</title>
<g id="a_edge2_Node000001_Node000003"><a xlink:title=" ">
<path fill="none" stroke="#63b8ff" d="M127.44,-109.86C116.08,-101.05 103.23,-88.63 97,-74 90.61,-58.98 97.13,-41.11 104.22,-28.16"/>
<polygon fill="#63b8ff" stroke="#63b8ff" points="107.37,-29.71 109.55,-19.34 101.38,-26.09 107.37,-29.71"/>
</a>
</g>
</g>
<!-- Node4 -->
<g id="Node000004" class="node">
<title>Node4</title>
<g id="a_Node000004"><a xlink:title=" ">
<polygon fill="#e0e0e0" stroke="#999999" points="203,-19 159,-19 159,0 203,0 203,-19"/>
<text text-anchor="middle" x="181" y="-7" font-family="Helvetica,sans-Serif" font-size="10.00">string</text>
</a>
</g>
</g>
<!-- Node1&#45;&gt;Node4 -->
<g id="edge3_Node000001_Node000004" class="edge">
<title>Node1&#45;&gt;Node4</title>
<g id="a_edge3_Node000001_Node000004"><a xlink:title=" ">
<path fill="none" stroke="#63b8ff" d="M170.56,-109.86C181.92,-101.05 194.77,-88.63 201,-74 207.42,-58.92 200.59,-41.05 193.22,-28.12"/>
<polygon fill="#63b8ff" stroke="#63b8ff" points="195.97,-25.92 187.68,-19.32 190.04,-29.65 195.97,-25.92"/>
</a>
</g>
</g>
<!-- Node5 -->
<g id="Node000005" class="node">
<title>Node5</title>
<g id="a_Node000005"><a xlink:href="color_8hpp.html" target="_top" xlink:title=" ">
<polygon fill="white" stroke="#666666" points="191.5,-74 106.5,-74 106.5,-55 191.5,-55 191.5,-74"/>
<text text-anchor="middle" x="149" y="-62" font-family="Helvetica,sans-Serif" font-size="10.00">utils/color.hpp</text>
</a>
</g>
</g>
<!-- Node1&#45;&gt;Node5 -->
<g id="edge4_Node000001_Node000005" class="edge">
<title>Node1&#45;&gt;Node5</title>
<g id="a_edge4_Node000001_Node000005"><a xlink:title=" ">
<path fill="none" stroke="#63b8ff" d="M149,-109.84C149,-102.21 149,-92.7 149,-84.45"/>
<polygon fill="#63b8ff" stroke="#63b8ff" points="152.5,-84.27 149,-74.27 145.5,-84.27 152.5,-84.27"/>
</a>
</g>
</g>
<!-- Node6 -->
<g id="Node000006" class="node">
<title>Node6</title>
<g id="a_Node000006"><a xlink:href="position_8hpp.html" target="_top" xlink:title=" ">
<polygon fill="white" stroke="#666666" points="349.5,-74 248.5,-74 248.5,-55 349.5,-55 349.5,-74"/>
<text text-anchor="middle" x="299" y="-62" font-family="Helvetica,sans-Serif" font-size="10.00">utils/position.hpp</text>
</a>
</g>
</g>
<!-- Node1&#45;&gt;Node6 -->
<g id="edge7_Node000001_Node000006" class="edge">
<title>Node1&#45;&gt;Node6</title>
<g id="a_edge7_Node000001_Node000006"><a xlink:title=" ">
<path fill="none" stroke="#63b8ff" d="M184.93,-109.99C210.07,-100.18 243.33,-87.21 267.45,-77.81"/>
<polygon fill="#63b8ff" stroke="#63b8ff" points="268.8,-81.03 276.85,-74.14 266.26,-74.51 268.8,-81.03"/>
</a>
</g>
</g>
<!-- Node5&#45;&gt;Node3 -->
<g id="edge5_Node000005_Node000003" class="edge">
<title>Node5&#45;&gt;Node3</title>
<g id="a_edge5_Node000005_Node000003"><a xlink:title=" ">
<path fill="none" stroke="#63b8ff" d="M143.55,-54.75C138.99,-47.42 132.33,-36.73 126.71,-27.7"/>
<polygon fill="#63b8ff" stroke="#63b8ff" points="129.6,-25.73 121.35,-19.09 123.66,-29.43 129.6,-25.73"/>
</a>
</g>
</g>
<!-- Node5&#45;&gt;Node4 -->
<g id="edge6_Node000005_Node000004" class="edge">
<title>Node5&#45;&gt;Node4</title>
<g id="a_edge6_Node000005_Node000004"><a xlink:title=" ">
<path fill="none" stroke="#63b8ff" d="M154.28,-54.75C158.71,-47.42 165.16,-36.73 170.62,-27.7"/>
<polygon fill="#63b8ff" stroke="#63b8ff" points="173.64,-29.46 175.81,-19.09 167.65,-25.84 173.64,-29.46"/>
</a>
</g>
</g>
</g>
</svg>
</svg>

<style type='text/css'>
<![CDATA[
[data-mouse-over-selected='false'] { opacity: 0.7; }
[data-mouse-over-selected='true']  { opacity: 1.0; }
]]>
</style>
<script type="application/ecmascript"><![CDATA[
document.addEventListener('DOMContentLoaded', (event) => {
  highlightEdges();
  highlightAdjacentNodes();
});
]]></script>
</svg>
