<?xml version="1.0" encoding="UTF-8" standalone="no"?>
<!DOCTYPE svg PUBLIC "-//W3C//DTD SVG 1.1//EN"
 "http://www.w3.org/Graphics/SVG/1.1/DTD/svg11.dtd">
<!-- Generated by graphviz version 2.43.0 (0)
 -->
<!-- Title: loc_map/include Pages: 1 -->
<svg width="200pt" height="255pt"
 viewBox="0.00 0.00 200.00 255.00" xmlns="http://www.w3.org/2000/svg" xmlns:xlink="http://www.w3.org/1999/xlink">
<g id="graph0" class="graph" transform="scale(1 1) rotate(0) translate(4 251)">
<title>loc_map/include</title>
<polygon fill="white" stroke="transparent" points="-4,4 -4,-251 196,-251 196,4 -4,4"/>
<g id="clust1" class="cluster">
<title>clusterdir_6432ce44100ff1c5311696dd397ca269</title>
<g id="a_clust1"><a xlink:href="dir_6432ce44100ff1c5311696dd397ca269.html" target="_top" xlink:title="loc_map">
<polygon fill="#ddddee" stroke="black" points="8,-8 8,-239 184,-239 184,-8 8,-8"/>
<text text-anchor="middle" x="96" y="-227" font-family="Helvetica,sans-Serif" font-size="10.00">loc_map</text>
</a>
</g>
</g>
<g id="clust2" class="cluster">
<title>clusterdir_e4f975ce127a1bd8d108c82b963d0c1c</title>
<g id="a_clust2"><a xlink:href="dir_e4f975ce127a1bd8d108c82b963d0c1c.html" target="_top">
<polygon fill="#eeeeff" stroke="black" points="16,-16 16,-212 176,-212 176,-16 16,-16"/>
</a>
</g>
</g>
<!-- dir_e4f975ce127a1bd8d108c82b963d0c1c -->
<g id="node1" class="node">
<title>dir_e4f975ce127a1bd8d108c82b963d0c1c</title>
<text text-anchor="middle" x="136" y="-183.5" font-family="Helvetica,sans-Serif" font-size="10.00">include</text>
</g>
<!-- dir_604c4f1ea8403fc64fad23cb008a64f3 -->
<g id="node2" class="node">
<title>dir_604c4f1ea8403fc64fad23cb008a64f3</title>
<g id="a_node2"><a xlink:href="dir_604c4f1ea8403fc64fad23cb008a64f3.html" target="_top" xlink:title="adapter">
<polygon fill="white" stroke="black" points="87,-204 33,-204 33,-168 87,-168 87,-204"/>
<text text-anchor="middle" x="60" y="-183.5" font-family="Helvetica,sans-Serif" font-size="10.00">adapter</text>
</a>
</g>
</g>
<!-- dir_c6f9c0c8dc9202c304c63166eef2d462 -->
<g id="node4" class="node">
<title>dir_c6f9c0c8dc9202c304c63166eef2d462</title>
<g id="a_node4"><a xlink:href="dir_c6f9c0c8dc9202c304c63166eef2d462.html" target="_top" xlink:title="loc_map">
<polygon fill="white" stroke="black" points="87,-132 33,-132 33,-96 87,-96 87,-132"/>
<text text-anchor="middle" x="60" y="-111.5" font-family="Helvetica,sans-Serif" font-size="10.00">loc_map</text>
</a>
</g>
</g>
<!-- dir_604c4f1ea8403fc64fad23cb008a64f3&#45;&gt;dir_c6f9c0c8dc9202c304c63166eef2d462 -->
<g id="edge1" class="edge">
<title>dir_604c4f1ea8403fc64fad23cb008a64f3&#45;&gt;dir_c6f9c0c8dc9202c304c63166eef2d462</title>
<path fill="none" stroke="black" d="M60,-167.7C60,-159.98 60,-150.71 60,-142.11"/>
<polygon fill="black" stroke="black" points="63.5,-142.1 60,-132.1 56.5,-142.1 63.5,-142.1"/>
<g id="a_edge1&#45;headlabel"><a xlink:href="dir_000002_000004.html" target="_top" xlink:title="2">
<text text-anchor="middle" x="66.34" y="-143.2" font-family="Helvetica,sans-Serif" font-size="10.00">2</text>
</a>
</g>
</g>
<!-- dir_f06fb9e712acb7c80894a2d50e28c397 -->
<g id="node3" class="node">
<title>dir_f06fb9e712acb7c80894a2d50e28c397</title>
<g id="a_node3"><a xlink:href="dir_f06fb9e712acb7c80894a2d50e28c397.html" target="_top" xlink:title="kalman_filter">
<polygon fill="white" stroke="black" points="96,-60 24,-60 24,-24 96,-24 96,-60"/>
<text text-anchor="middle" x="60" y="-39.5" font-family="Helvetica,sans-Serif" font-size="10.00">kalman_filter</text>
</a>
</g>
</g>
<!-- dir_f06fb9e712acb7c80894a2d50e28c397&#45;&gt;dir_c6f9c0c8dc9202c304c63166eef2d462 -->
<g id="edge4" class="edge">
<title>dir_f06fb9e712acb7c80894a2d50e28c397&#45;&gt;dir_c6f9c0c8dc9202c304c63166eef2d462</title>
<path fill="none" stroke="black" d="M65.9,-60.1C66.7,-67.79 66.94,-77.05 66.6,-85.67"/>
<polygon fill="black" stroke="black" points="63.11,-85.48 65.92,-95.7 70.09,-85.96 63.11,-85.48"/>
<g id="a_edge4&#45;headlabel"><a xlink:href="dir_000003_000004.html" target="_top" xlink:title="3">
<text text-anchor="middle" x="60.52" y="-79.2" font-family="Helvetica,sans-Serif" font-size="10.00">3</text>
</a>
</g>
</g>
<!-- dir_c6f9c0c8dc9202c304c63166eef2d462&#45;&gt;dir_f06fb9e712acb7c80894a2d50e28c397 -->
<g id="edge2" class="edge">
<title>dir_c6f9c0c8dc9202c304c63166eef2d462&#45;&gt;dir_f06fb9e712acb7c80894a2d50e28c397</title>
<path fill="none" stroke="black" d="M54.08,-95.7C53.29,-87.98 53.06,-78.71 53.4,-70.11"/>
<polygon fill="black" stroke="black" points="56.9,-70.32 54.1,-60.1 49.92,-69.84 56.9,-70.32"/>
<g id="a_edge2&#45;headlabel"><a xlink:href="dir_000004_000003.html" target="_top" xlink:title="1">
<text text-anchor="middle" x="59.48" y="-71.61" font-family="Helvetica,sans-Serif" font-size="10.00">1</text>
</a>
</g>
</g>
<!-- dir_f1cd45667e7389c35cfbb787e54127e1 -->
<g id="node5" class="node">
<title>dir_f1cd45667e7389c35cfbb787e54127e1</title>
<g id="a_node5"><a xlink:href="dir_f1cd45667e7389c35cfbb787e54127e1.html" target="_top" xlink:title="utils">
<polygon fill="white" stroke="black" points="168,-60 114,-60 114,-24 168,-24 168,-60"/>
<text text-anchor="middle" x="141" y="-39.5" font-family="Helvetica,sans-Serif" font-size="10.00">utils</text>
</a>
</g>
</g>
<!-- dir_c6f9c0c8dc9202c304c63166eef2d462&#45;&gt;dir_f1cd45667e7389c35cfbb787e54127e1 -->
<g id="edge3" class="edge">
<title>dir_c6f9c0c8dc9202c304c63166eef2d462&#45;&gt;dir_f1cd45667e7389c35cfbb787e54127e1</title>
<path fill="none" stroke="black" d="M80.02,-95.7C90.13,-86.97 102.54,-76.24 113.52,-66.75"/>
<polygon fill="black" stroke="black" points="115.93,-69.29 121.21,-60.1 111.35,-63.99 115.93,-69.29"/>
<g id="a_edge3&#45;headlabel"><a xlink:href="dir_000004_000005.html" target="_top" xlink:title="2">
<text text-anchor="middle" x="115.07" y="-71.29" font-family="Helvetica,sans-Serif" font-size="10.00">2</text>
</a>
</g>
</g>
</g>
</svg>
