<?xml version="1.0" encoding="UTF-8" standalone="no"?>
<!DOCTYPE svg PUBLIC "-//W3C//DTD SVG 1.1//EN"
 "http://www.w3.org/Graphics/SVG/1.1/DTD/svg11.dtd">
<!-- Generated by graphviz version 2.43.0 (0)
 -->
<!-- Title: loc_map Pages: 1 -->
<svg width="238pt" height="148pt"
 viewBox="0.00 0.00 238.00 148.00" xmlns="http://www.w3.org/2000/svg" xmlns:xlink="http://www.w3.org/1999/xlink">
<g id="graph0" class="graph" transform="scale(1 1) rotate(0) translate(4 144)">
<title>loc_map</title>
<polygon fill="white" stroke="transparent" points="-4,4 -4,-144 234,-144 234,4 -4,4"/>
<g id="clust1" class="cluster">
<title>clusterdir_6432ce44100ff1c5311696dd397ca269</title>
<g id="a_clust1"><a xlink:href="dir_6432ce44100ff1c5311696dd397ca269.html" target="_top">
<polygon fill="#eeeeff" stroke="black" points="8,-8 8,-132 222,-132 222,-8 8,-8"/>
</a>
</g>
</g>
<!-- dir_6432ce44100ff1c5311696dd397ca269 -->
<g id="node1" class="node">
<title>dir_6432ce44100ff1c5311696dd397ca269</title>
<text text-anchor="middle" x="187" y="-103.5" font-family="Helvetica,sans-Serif" font-size="10.00">loc_map</text>
</g>
<!-- dir_e4f975ce127a1bd8d108c82b963d0c1c -->
<g id="node2" class="node">
<title>dir_e4f975ce127a1bd8d108c82b963d0c1c</title>
<g id="a_node2"><a xlink:href="dir_e4f975ce127a1bd8d108c82b963d0c1c.html" target="_top" xlink:title="include">
<polygon fill="white" stroke="red" points="106,-52 52,-52 52,-16 106,-16 106,-52"/>
<text text-anchor="middle" x="79" y="-31.5" font-family="Helvetica,sans-Serif" font-size="10.00">include</text>
</a>
</g>
</g>
<!-- dir_18e387491316d94a9045c2da363033aa -->
<g id="node3" class="node">
<title>dir_18e387491316d94a9045c2da363033aa</title>
<g id="a_node3"><a xlink:href="dir_18e387491316d94a9045c2da363033aa.html" target="_top" xlink:title="src">
<polygon fill="white" stroke="red" points="142,-124 88,-124 88,-88 142,-88 142,-124"/>
<text text-anchor="middle" x="115" y="-103.5" font-family="Helvetica,sans-Serif" font-size="10.00">src</text>
</a>
</g>
</g>
<!-- dir_18e387491316d94a9045c2da363033aa&#45;&gt;dir_e4f975ce127a1bd8d108c82b963d0c1c -->
<g id="edge1" class="edge">
<title>dir_18e387491316d94a9045c2da363033aa&#45;&gt;dir_e4f975ce127a1bd8d108c82b963d0c1c</title>
<path fill="none" stroke="black" d="M106.1,-87.7C102,-79.73 97.05,-70.1 92.51,-61.26"/>
<polygon fill="black" stroke="black" points="95.48,-59.4 87.8,-52.1 89.26,-62.6 95.48,-59.4"/>
<g id="a_edge1&#45;headlabel"><a xlink:href="dir_000006_000001.html" target="_top" xlink:title="14">
<text text-anchor="middle" x="99.65" y="-58.79" font-family="Helvetica,sans-Serif" font-size="10.00">14</text>
</a>
</g>
</g>
<!-- dir_8cd5a6e0721455b8e805896874b08405 -->
<g id="node4" class="node">
<title>dir_8cd5a6e0721455b8e805896874b08405</title>
<g id="a_node4"><a xlink:href="dir_8cd5a6e0721455b8e805896874b08405.html" target="_top" xlink:title="test">
<polygon fill="white" stroke="black" points="70,-124 16,-124 16,-88 70,-88 70,-124"/>
<text text-anchor="middle" x="43" y="-103.5" font-family="Helvetica,sans-Serif" font-size="10.00">test</text>
</a>
</g>
</g>
<!-- dir_8cd5a6e0721455b8e805896874b08405&#45;&gt;dir_e4f975ce127a1bd8d108c82b963d0c1c -->
<g id="edge2" class="edge">
<title>dir_8cd5a6e0721455b8e805896874b08405&#45;&gt;dir_e4f975ce127a1bd8d108c82b963d0c1c</title>
<path fill="none" stroke="black" d="M51.9,-87.7C56,-79.73 60.95,-70.1 65.49,-61.26"/>
<polygon fill="black" stroke="black" points="68.74,-62.6 70.2,-52.1 62.52,-59.4 68.74,-62.6"/>
<g id="a_edge2&#45;headlabel"><a xlink:href="dir_000011_000001.html" target="_top" xlink:title="5">
<text text-anchor="middle" x="69.62" y="-64.59" font-family="Helvetica,sans-Serif" font-size="10.00">5</text>
</a>
</g>
</g>
</g>
</svg>
