<?xml version="1.0" encoding="UTF-8" standalone="no"?>
<!DOCTYPE svg PUBLIC "-//W3C//DTD SVG 1.1//EN"
 "http://www.w3.org/Graphics/SVG/1.1/DTD/svg11.dtd">
<!-- Generated by graphviz version 2.43.0 (0)
 -->
<!-- Title: loc_map/src Pages: 1 -->
<svg width="416pt" height="175pt"
 viewBox="0.00 0.00 416.00 175.00" xmlns="http://www.w3.org/2000/svg" xmlns:xlink="http://www.w3.org/1999/xlink">
<g id="graph0" class="graph" transform="scale(1 1) rotate(0) translate(4 171)">
<title>loc_map/src</title>
<polygon fill="white" stroke="transparent" points="-4,4 -4,-171 412,-171 412,4 -4,4"/>
<g id="clust1" class="cluster">
<title>clusterdir_6432ce44100ff1c5311696dd397ca269</title>
<g id="a_clust1"><a xlink:href="dir_6432ce44100ff1c5311696dd397ca269.html" target="_top" xlink:title="loc_map">
<polygon fill="#ddddee" stroke="black" points="8,-8 8,-159 400,-159 400,-8 8,-8"/>
<text text-anchor="middle" x="204" y="-147" font-family="Helvetica,sans-Serif" font-size="10.00">loc_map</text>
</a>
</g>
</g>
<g id="clust2" class="cluster">
<title>clusterdir_18e387491316d94a9045c2da363033aa</title>
<g id="a_clust2"><a xlink:href="dir_18e387491316d94a9045c2da363033aa.html" target="_top">
<polygon fill="#eeeeff" stroke="black" points="16,-80 16,-132 392,-132 392,-80 16,-80"/>
</a>
</g>
</g>
<!-- dir_e4f975ce127a1bd8d108c82b963d0c1c -->
<g id="node1" class="node">
<title>dir_e4f975ce127a1bd8d108c82b963d0c1c</title>
<g id="a_node1"><a xlink:href="dir_e4f975ce127a1bd8d108c82b963d0c1c.html" target="_top" xlink:title="include">
<polygon fill="white" stroke="red" points="190,-52 136,-52 136,-16 190,-16 190,-52"/>
<text text-anchor="middle" x="163" y="-31.5" font-family="Helvetica,sans-Serif" font-size="10.00">include</text>
</a>
</g>
</g>
<!-- dir_18e387491316d94a9045c2da363033aa -->
<g id="node2" class="node">
<title>dir_18e387491316d94a9045c2da363033aa</title>
<text text-anchor="middle" x="357" y="-103.5" font-family="Helvetica,sans-Serif" font-size="10.00">src</text>
</g>
<!-- dir_314028f7861b424e56487b609d048e6d -->
<g id="node3" class="node">
<title>dir_314028f7861b424e56487b609d048e6d</title>
<g id="a_node3"><a xlink:href="dir_314028f7861b424e56487b609d048e6d.html" target="_top" xlink:title="adapter">
<polygon fill="white" stroke="black" points="312,-124 258,-124 258,-88 312,-88 312,-124"/>
<text text-anchor="middle" x="285" y="-103.5" font-family="Helvetica,sans-Serif" font-size="10.00">adapter</text>
</a>
</g>
</g>
<!-- dir_314028f7861b424e56487b609d048e6d&#45;&gt;dir_e4f975ce127a1bd8d108c82b963d0c1c -->
<g id="edge2" class="edge">
<title>dir_314028f7861b424e56487b609d048e6d&#45;&gt;dir_e4f975ce127a1bd8d108c82b963d0c1c</title>
<path fill="none" stroke="black" d="M261.26,-87.9C257.23,-85.17 253.04,-82.44 249,-80 233.12,-70.39 214.99,-60.71 199.48,-52.82"/>
<polygon fill="black" stroke="black" points="200.71,-49.52 190.21,-48.14 197.56,-55.77 200.71,-49.52"/>
<g id="a_edge2&#45;headlabel"><a xlink:href="dir_000007_000001.html" target="_top" xlink:title="1">
<text text-anchor="middle" x="205.2" y="-46.1" font-family="Helvetica,sans-Serif" font-size="10.00">1</text>
</a>
</g>
</g>
<!-- dir_aa483c286f5deaf89b3a873928231dbf -->
<g id="node4" class="node">
<title>dir_aa483c286f5deaf89b3a873928231dbf</title>
<g id="a_node4"><a xlink:href="dir_aa483c286f5deaf89b3a873928231dbf.html" target="_top" xlink:title="kalman_filter">
<polygon fill="white" stroke="black" points="240,-124 168,-124 168,-88 240,-88 240,-124"/>
<text text-anchor="middle" x="204" y="-103.5" font-family="Helvetica,sans-Serif" font-size="10.00">kalman_filter</text>
</a>
</g>
</g>
<!-- dir_aa483c286f5deaf89b3a873928231dbf&#45;&gt;dir_e4f975ce127a1bd8d108c82b963d0c1c -->
<g id="edge4" class="edge">
<title>dir_aa483c286f5deaf89b3a873928231dbf&#45;&gt;dir_e4f975ce127a1bd8d108c82b963d0c1c</title>
<path fill="none" stroke="black" d="M193.87,-87.7C189.15,-79.64 183.44,-69.89 178.22,-60.98"/>
<polygon fill="black" stroke="black" points="181.09,-58.96 173.02,-52.1 175.05,-62.5 181.09,-58.96"/>
<g id="a_edge4&#45;headlabel"><a xlink:href="dir_000008_000001.html" target="_top" xlink:title="5">
<text text-anchor="middle" x="185.36" y="-58.13" font-family="Helvetica,sans-Serif" font-size="10.00">5</text>
</a>
</g>
</g>
<!-- dir_1f7bef7adcde8b4483db26428220cc34 -->
<g id="node5" class="node">
<title>dir_1f7bef7adcde8b4483db26428220cc34</title>
<g id="a_node5"><a xlink:href="dir_1f7bef7adcde8b4483db26428220cc34.html" target="_top" xlink:title="loc_map">
<polygon fill="white" stroke="black" points="150,-124 96,-124 96,-88 150,-88 150,-124"/>
<text text-anchor="middle" x="123" y="-103.5" font-family="Helvetica,sans-Serif" font-size="10.00">loc_map</text>
</a>
</g>
</g>
<!-- dir_1f7bef7adcde8b4483db26428220cc34&#45;&gt;dir_e4f975ce127a1bd8d108c82b963d0c1c -->
<g id="edge1" class="edge">
<title>dir_1f7bef7adcde8b4483db26428220cc34&#45;&gt;dir_e4f975ce127a1bd8d108c82b963d0c1c</title>
<path fill="none" stroke="black" d="M132.89,-87.7C137.49,-79.64 143.06,-69.89 148.15,-60.98"/>
<polygon fill="black" stroke="black" points="151.3,-62.52 153.23,-52.1 145.23,-59.05 151.3,-62.52"/>
<g id="a_edge1&#45;headlabel"><a xlink:href="dir_000009_000001.html" target="_top" xlink:title="4">
<text text-anchor="middle" x="151.99" y="-64.55" font-family="Helvetica,sans-Serif" font-size="10.00">4</text>
</a>
</g>
</g>
<!-- dir_1e08d11402ca008ceb1850021cc70a79 -->
<g id="node6" class="node">
<title>dir_1e08d11402ca008ceb1850021cc70a79</title>
<g id="a_node6"><a xlink:href="dir_1e08d11402ca008ceb1850021cc70a79.html" target="_top" xlink:title="utils">
<polygon fill="white" stroke="black" points="78,-124 24,-124 24,-88 78,-88 78,-124"/>
<text text-anchor="middle" x="51" y="-103.5" font-family="Helvetica,sans-Serif" font-size="10.00">utils</text>
</a>
</g>
</g>
<!-- dir_1e08d11402ca008ceb1850021cc70a79&#45;&gt;dir_e4f975ce127a1bd8d108c82b963d0c1c -->
<g id="edge3" class="edge">
<title>dir_1e08d11402ca008ceb1850021cc70a79&#45;&gt;dir_e4f975ce127a1bd8d108c82b963d0c1c</title>
<path fill="none" stroke="black" d="M75.24,-87.81C79.14,-85.15 83.16,-82.47 87,-80 99.87,-71.73 114.26,-63.07 127.02,-55.58"/>
<polygon fill="black" stroke="black" points="129.11,-58.42 135.98,-50.36 125.58,-52.37 129.11,-58.42"/>
<g id="a_edge3&#45;headlabel"><a xlink:href="dir_000010_000001.html" target="_top" xlink:title="3">
<text text-anchor="middle" x="127.43" y="-60.18" font-family="Helvetica,sans-Serif" font-size="10.00">3</text>
</a>
</g>
</g>
</g>
</svg>
