<?xml version="1.0" encoding="UTF-8" standalone="no"?>
<!DOCTYPE svg PUBLIC "-//W3C//DTD SVG 1.1//EN"
 "http://www.w3.org/Graphics/SVG/1.1/DTD/svg11.dtd">
<!-- Generated by graphviz version 2.43.0 (0)
 -->
<!-- Title: loc_map/include/loc_map Pages: 1 -->
<svg width="112pt" height="239pt"
 viewBox="0.00 0.00 112.00 239.00" xmlns="http://www.w3.org/2000/svg" xmlns:xlink="http://www.w3.org/1999/xlink">
<g id="graph0" class="graph" transform="scale(1 1) rotate(0) translate(4 235)">
<title>loc_map/include/loc_map</title>
<polygon fill="white" stroke="transparent" points="-4,4 -4,-235 108,-235 108,4 -4,4"/>
<g id="clust1" class="cluster">
<title>clusterdir_e4f975ce127a1bd8d108c82b963d0c1c</title>
<g id="a_clust1"><a xlink:href="dir_e4f975ce127a1bd8d108c82b963d0c1c.html" target="_top" xlink:title="include">
<polygon fill="#ddddee" stroke="black" points="8,-8 8,-223 96,-223 96,-8 8,-8"/>
<text text-anchor="middle" x="52" y="-211" font-family="Helvetica,sans-Serif" font-size="10.00">include</text>
</a>
</g>
</g>
<!-- dir_f06fb9e712acb7c80894a2d50e28c397 -->
<g id="node1" class="node">
<title>dir_f06fb9e712acb7c80894a2d50e28c397</title>
<g id="a_node1"><a xlink:href="dir_f06fb9e712acb7c80894a2d50e28c397.html" target="_top" xlink:title="kalman_filter">
<polygon fill="none" stroke="black" points="88,-196 16,-196 16,-160 88,-160 88,-196"/>
<text text-anchor="middle" x="52" y="-175.5" font-family="Helvetica,sans-Serif" font-size="10.00">kalman_filter</text>
</a>
</g>
</g>
<!-- dir_c6f9c0c8dc9202c304c63166eef2d462 -->
<g id="node3" class="node">
<title>dir_c6f9c0c8dc9202c304c63166eef2d462</title>
<g id="a_node3"><a xlink:href="dir_c6f9c0c8dc9202c304c63166eef2d462.html" target="_top" xlink:title="loc_map">
<polygon fill="#eeeeff" stroke="black" points="79,-124 25,-124 25,-88 79,-88 79,-124"/>
<text text-anchor="middle" x="52" y="-103.5" font-family="Helvetica,sans-Serif" font-size="10.00">loc_map</text>
</a>
</g>
</g>
<!-- dir_f06fb9e712acb7c80894a2d50e28c397&#45;&gt;dir_c6f9c0c8dc9202c304c63166eef2d462 -->
<g id="edge3" class="edge">
<title>dir_f06fb9e712acb7c80894a2d50e28c397&#45;&gt;dir_c6f9c0c8dc9202c304c63166eef2d462</title>
<path fill="none" stroke="black" d="M46.08,-159.7C45.29,-151.98 45.06,-142.71 45.4,-134.11"/>
<polygon fill="black" stroke="black" points="48.9,-134.32 46.1,-124.1 41.92,-133.84 48.9,-134.32"/>
<g id="a_edge3&#45;headlabel"><a xlink:href="dir_000003_000004.html" target="_top" xlink:title="3">
<text text-anchor="middle" x="51.48" y="-135.61" font-family="Helvetica,sans-Serif" font-size="10.00">3</text>
</a>
</g>
</g>
<!-- dir_f1cd45667e7389c35cfbb787e54127e1 -->
<g id="node2" class="node">
<title>dir_f1cd45667e7389c35cfbb787e54127e1</title>
<g id="a_node2"><a xlink:href="dir_f1cd45667e7389c35cfbb787e54127e1.html" target="_top" xlink:title="utils">
<polygon fill="none" stroke="black" points="79,-52 25,-52 25,-16 79,-16 79,-52"/>
<text text-anchor="middle" x="52" y="-31.5" font-family="Helvetica,sans-Serif" font-size="10.00">utils</text>
</a>
</g>
</g>
<!-- dir_c6f9c0c8dc9202c304c63166eef2d462&#45;&gt;dir_f06fb9e712acb7c80894a2d50e28c397 -->
<g id="edge1" class="edge">
<title>dir_c6f9c0c8dc9202c304c63166eef2d462&#45;&gt;dir_f06fb9e712acb7c80894a2d50e28c397</title>
<path fill="none" stroke="black" d="M57.9,-124.1C58.7,-131.79 58.94,-141.05 58.6,-149.67"/>
<polygon fill="black" stroke="black" points="55.11,-149.48 57.92,-159.7 62.09,-149.96 55.11,-149.48"/>
<g id="a_edge1&#45;headlabel"><a xlink:href="dir_000004_000003.html" target="_top" xlink:title="1">
<text text-anchor="middle" x="52.52" y="-143.2" font-family="Helvetica,sans-Serif" font-size="10.00">1</text>
</a>
</g>
</g>
<!-- dir_c6f9c0c8dc9202c304c63166eef2d462&#45;&gt;dir_f1cd45667e7389c35cfbb787e54127e1 -->
<g id="edge2" class="edge">
<title>dir_c6f9c0c8dc9202c304c63166eef2d462&#45;&gt;dir_f1cd45667e7389c35cfbb787e54127e1</title>
<path fill="none" stroke="black" d="M52,-87.7C52,-79.98 52,-70.71 52,-62.11"/>
<polygon fill="black" stroke="black" points="55.5,-62.1 52,-52.1 48.5,-62.1 55.5,-62.1"/>
<g id="a_edge2&#45;headlabel"><a xlink:href="dir_000004_000005.html" target="_top" xlink:title="2">
<text text-anchor="middle" x="58.34" y="-63.2" font-family="Helvetica,sans-Serif" font-size="10.00">2</text>
</a>
</g>
</g>
</g>
</svg>
