<?xml version="1.0" encoding="UTF-8" standalone="no"?>
<!DOCTYPE svg PUBLIC "-//W3C//DTD SVG 1.1//EN"
 "http://www.w3.org/Graphics/SVG/1.1/DTD/svg11.dtd">
<!-- Generated by graphviz version 2.43.0 (0)
 -->
<!-- Title: loc_map/include/adapter Pages: 1 -->
<svg width="94pt" height="167pt"
 viewBox="0.00 0.00 94.00 167.00" xmlns="http://www.w3.org/2000/svg" xmlns:xlink="http://www.w3.org/1999/xlink">
<g id="graph0" class="graph" transform="scale(1 1) rotate(0) translate(4 163)">
<title>loc_map/include/adapter</title>
<polygon fill="white" stroke="transparent" points="-4,4 -4,-163 90,-163 90,4 -4,4"/>
<g id="clust1" class="cluster">
<title>clusterdir_e4f975ce127a1bd8d108c82b963d0c1c</title>
<g id="a_clust1"><a xlink:href="dir_e4f975ce127a1bd8d108c82b963d0c1c.html" target="_top" xlink:title="include">
<polygon fill="#ddddee" stroke="black" points="8,-8 8,-151 78,-151 78,-8 8,-8"/>
<text text-anchor="middle" x="43" y="-139" font-family="Helvetica,sans-Serif" font-size="10.00">include</text>
</a>
</g>
</g>
<!-- dir_c6f9c0c8dc9202c304c63166eef2d462 -->
<g id="node1" class="node">
<title>dir_c6f9c0c8dc9202c304c63166eef2d462</title>
<g id="a_node1"><a xlink:href="dir_c6f9c0c8dc9202c304c63166eef2d462.html" target="_top" xlink:title="loc_map">
<polygon fill="none" stroke="black" points="70,-52 16,-52 16,-16 70,-16 70,-52"/>
<text text-anchor="middle" x="43" y="-31.5" font-family="Helvetica,sans-Serif" font-size="10.00">loc_map</text>
</a>
</g>
</g>
<!-- dir_604c4f1ea8403fc64fad23cb008a64f3 -->
<g id="node2" class="node">
<title>dir_604c4f1ea8403fc64fad23cb008a64f3</title>
<g id="a_node2"><a xlink:href="dir_604c4f1ea8403fc64fad23cb008a64f3.html" target="_top" xlink:title="adapter">
<polygon fill="#eeeeff" stroke="black" points="70,-124 16,-124 16,-88 70,-88 70,-124"/>
<text text-anchor="middle" x="43" y="-103.5" font-family="Helvetica,sans-Serif" font-size="10.00">adapter</text>
</a>
</g>
</g>
<!-- dir_604c4f1ea8403fc64fad23cb008a64f3&#45;&gt;dir_c6f9c0c8dc9202c304c63166eef2d462 -->
<g id="edge1" class="edge">
<title>dir_604c4f1ea8403fc64fad23cb008a64f3&#45;&gt;dir_c6f9c0c8dc9202c304c63166eef2d462</title>
<path fill="none" stroke="black" d="M43,-87.7C43,-79.98 43,-70.71 43,-62.11"/>
<polygon fill="black" stroke="black" points="46.5,-62.1 43,-52.1 39.5,-62.1 46.5,-62.1"/>
<g id="a_edge1&#45;headlabel"><a xlink:href="dir_000002_000004.html" target="_top" xlink:title="2">
<text text-anchor="middle" x="49.34" y="-63.2" font-family="Helvetica,sans-Serif" font-size="10.00">2</text>
</a>
</g>
</g>
</g>
</svg>
