<?xml version="1.0" encoding="UTF-8" standalone="no"?>
<!DOCTYPE svg PUBLIC "-//W3C//DTD SVG 1.1//EN"
 "http://www.w3.org/Graphics/SVG/1.1/DTD/svg11.dtd">
<!-- Generated by graphviz version 2.43.0 (0)
 -->
<!-- Title: src/loc_map/src Pages: 1 -->
<svg width="390pt" height="141pt"
 viewBox="0.00 0.00 390.00 141.00" xmlns="http://www.w3.org/2000/svg" xmlns:xlink="http://www.w3.org/1999/xlink">
<g id="graph0" class="graph" transform="scale(1 1) rotate(0) translate(4 137)">
<title>src/loc_map/src</title>
<g id="clust1" class="cluster">
<title>clusterdir_26369d20db5a751ace0a0d425b94d5ef</title>
<g id="a_clust1"><a xlink:href="dir_26369d20db5a751ace0a0d425b94d5ef.html" target="_top" xlink:title="loc_map">
<polygon fill="#edf0f7" stroke="#7f7f7f" stroke-dasharray="5,2" points="8,-8 8,-125 374,-125 374,-8 8,-8"/>
<text text-anchor="middle" x="191" y="-113" font-family="Helvetica,sans-Serif" font-size="10.00">loc_map</text>
</a>
</g>
</g>
<g id="clust2" class="cluster">
<title>clusterdir_e9c419635c4d7f29fee2090ace292e4d</title>
<g id="a_clust2"><a xlink:href="dir_e9c419635c4d7f29fee2090ace292e4d.html" target="_top">
<polygon fill="#edf0f7" stroke="#404040" stroke-width="2" points="16,-63 16,-98 366,-98 366,-63 16,-63"/>
</a>
</g>
</g>
<!-- dir_1fc1acda3f427a40c2d1195cbc9039bf -->
<g id="node1" class="node">
<title>dir_1fc1acda3f427a40c2d1195cbc9039bf</title>
<g id="a_node1"><a xlink:href="dir_1fc1acda3f427a40c2d1195cbc9039bf.html" target="_top" xlink:title="include">
<polygon fill="#a2b4d6" stroke="red" points="222,-35 170,-35 170,-16 222,-16 222,-35"/>
<text text-anchor="middle" x="196" y="-23" font-family="Helvetica,sans-Serif" font-size="10.00">include</text>
</a>
</g>
</g>
<!-- dir_e9c419635c4d7f29fee2090ace292e4d -->
<g id="node2" class="node">
<title>dir_e9c419635c4d7f29fee2090ace292e4d</title>
<text text-anchor="middle" x="342" y="-78" font-family="Helvetica,sans-Serif" font-size="10.00">src</text>
</g>
<!-- dir_e9c419635c4d7f29fee2090ace292e4d&#45;&gt;dir_1fc1acda3f427a40c2d1195cbc9039bf -->
<g id="edge1" class="edge">
<title>dir_e9c419635c4d7f29fee2090ace292e4d&#45;&gt;dir_1fc1acda3f427a40c2d1195cbc9039bf</title>
<g id="a_edge1"><a xlink:href="dir_000009_000002.html" target="_top">
<path fill="none" stroke="#63b8ff" d="M330.21,-70.7C326.17,-67.97 321.52,-65.12 317,-63 289.7,-50.21 256.86,-40.64 232.28,-34.51"/>
<polygon fill="#63b8ff" stroke="#63b8ff" points="232.84,-31.04 222.3,-32.1 231.19,-37.85 232.84,-31.04"/>
</a>
</g>
<g id="a_edge1&#45;headlabel"><a xlink:href="dir_000009_000002.html" target="_top" xlink:title="14">
<text text-anchor="middle" x="237" y="-26.63" font-family="Helvetica,sans-Serif" font-size="10.00" fill="#63b8ff">14</text>
</a>
</g>
</g>
<!-- dir_254c3f897a660ceeb80c5734d0706e57 -->
<g id="node3" class="node">
<title>dir_254c3f897a660ceeb80c5734d0706e57</title>
<g id="a_node3"><a xlink:href="dir_254c3f897a660ceeb80c5734d0706e57.html" target="_top" xlink:title="adapter">
<polygon fill="#a2b4d6" stroke="#404040" points="308,-90 254,-90 254,-71 308,-71 308,-90"/>
<text text-anchor="middle" x="281" y="-78" font-family="Helvetica,sans-Serif" font-size="10.00">adapter</text>
</a>
</g>
</g>
<!-- dir_254c3f897a660ceeb80c5734d0706e57&#45;&gt;dir_1fc1acda3f427a40c2d1195cbc9039bf -->
<g id="edge2" class="edge">
<title>dir_254c3f897a660ceeb80c5734d0706e57&#45;&gt;dir_1fc1acda3f427a40c2d1195cbc9039bf</title>
<g id="a_edge2"><a xlink:href="dir_000001_000002.html" target="_top">
<path fill="none" stroke="#63b8ff" d="M267.34,-70.98C254.16,-62.77 233.97,-50.18 218.43,-40.49"/>
<polygon fill="#63b8ff" stroke="#63b8ff" points="220.24,-37.49 209.91,-35.17 216.54,-43.43 220.24,-37.49"/>
</a>
</g>
<g id="a_edge2&#45;headlabel"><a xlink:href="dir_000001_000002.html" target="_top" xlink:title="1">
<text text-anchor="middle" x="224.8" y="-34.48" font-family="Helvetica,sans-Serif" font-size="10.00" fill="#63b8ff">1</text>
</a>
</g>
</g>
<!-- dir_c6f2963aab6d0484e663dc4d305ae795 -->
<g id="node4" class="node">
<title>dir_c6f2963aab6d0484e663dc4d305ae795</title>
<g id="a_node4"><a xlink:href="dir_c6f2963aab6d0484e663dc4d305ae795.html" target="_top" xlink:title="kalman_filter">
<polygon fill="#a2b4d6" stroke="#404040" points="236,-90 156,-90 156,-71 236,-71 236,-90"/>
<text text-anchor="middle" x="196" y="-78" font-family="Helvetica,sans-Serif" font-size="10.00">kalman_filter</text>
</a>
</g>
</g>
<!-- dir_c6f2963aab6d0484e663dc4d305ae795&#45;&gt;dir_1fc1acda3f427a40c2d1195cbc9039bf -->
<g id="edge3" class="edge">
<title>dir_c6f2963aab6d0484e663dc4d305ae795&#45;&gt;dir_1fc1acda3f427a40c2d1195cbc9039bf</title>
<g id="a_edge3"><a xlink:href="dir_000004_000002.html" target="_top">
<path fill="none" stroke="#63b8ff" d="M196,-70.75C196,-63.8 196,-53.85 196,-45.13"/>
<polygon fill="#63b8ff" stroke="#63b8ff" points="199.5,-45.09 196,-35.09 192.5,-45.09 199.5,-45.09"/>
</a>
</g>
<g id="a_edge3&#45;headlabel"><a xlink:href="dir_000004_000002.html" target="_top" xlink:title="5">
<text text-anchor="middle" x="202.34" y="-46.18" font-family="Helvetica,sans-Serif" font-size="10.00" fill="#63b8ff">5</text>
</a>
</g>
</g>
<!-- dir_246c214c40a9489b8951c0961572ebe8 -->
<g id="node5" class="node">
<title>dir_246c214c40a9489b8951c0961572ebe8</title>
<g id="a_node5"><a xlink:href="dir_246c214c40a9489b8951c0961572ebe8.html" target="_top" xlink:title="loc_map">
<polygon fill="#a2b4d6" stroke="#404040" points="138,-90 80,-90 80,-71 138,-71 138,-90"/>
<text text-anchor="middle" x="109" y="-78" font-family="Helvetica,sans-Serif" font-size="10.00">loc_map</text>
</a>
</g>
</g>
<!-- dir_246c214c40a9489b8951c0961572ebe8&#45;&gt;dir_1fc1acda3f427a40c2d1195cbc9039bf -->
<g id="edge4" class="edge">
<title>dir_246c214c40a9489b8951c0961572ebe8&#45;&gt;dir_1fc1acda3f427a40c2d1195cbc9039bf</title>
<g id="a_edge4"><a xlink:href="dir_000007_000002.html" target="_top">
<path fill="none" stroke="#63b8ff" d="M122.98,-70.98C136.47,-62.77 157.13,-50.18 173.04,-40.49"/>
<polygon fill="#63b8ff" stroke="#63b8ff" points="175.05,-43.36 181.77,-35.17 171.41,-37.38 175.05,-43.36"/>
</a>
</g>
<g id="a_edge4&#45;headlabel"><a xlink:href="dir_000007_000002.html" target="_top" xlink:title="4">
<text text-anchor="middle" x="173.46" y="-45.16" font-family="Helvetica,sans-Serif" font-size="10.00" fill="#63b8ff">4</text>
</a>
</g>
</g>
<!-- dir_afee708eafb02edac1ba11fdcef982f0 -->
<g id="node6" class="node">
<title>dir_afee708eafb02edac1ba11fdcef982f0</title>
<g id="a_node6"><a xlink:href="dir_afee708eafb02edac1ba11fdcef982f0.html" target="_top" xlink:title="utils">
<polygon fill="#a2b4d6" stroke="#404040" points="62,-90 24,-90 24,-71 62,-71 62,-90"/>
<text text-anchor="middle" x="43" y="-78" font-family="Helvetica,sans-Serif" font-size="10.00">utils</text>
</a>
</g>
</g>
<!-- dir_afee708eafb02edac1ba11fdcef982f0&#45;&gt;dir_1fc1acda3f427a40c2d1195cbc9039bf -->
<g id="edge5" class="edge">
<title>dir_afee708eafb02edac1ba11fdcef982f0&#45;&gt;dir_1fc1acda3f427a40c2d1195cbc9039bf</title>
<g id="a_edge5"><a xlink:href="dir_000012_000002.html" target="_top">
<path fill="none" stroke="#63b8ff" d="M56.03,-70.91C60.63,-68.13 65.93,-65.2 71,-63 100,-50.46 134.58,-40.73 160.02,-34.48"/>
<polygon fill="#63b8ff" stroke="#63b8ff" points="161.06,-37.83 169.97,-32.1 159.43,-31.03 161.06,-37.83"/>
</a>
</g>
<g id="a_edge5&#45;headlabel"><a xlink:href="dir_000012_000002.html" target="_top" xlink:title="3">
<text text-anchor="middle" x="158.22" y="-38.93" font-family="Helvetica,sans-Serif" font-size="10.00" fill="#63b8ff">3</text>
</a>
</g>
</g>
</g>
</svg>
