<?xml version="1.0" encoding="UTF-8" standalone="no"?>
<!DOCTYPE svg PUBLIC "-//W3C//DTD SVG 1.1//EN"
 "http://www.w3.org/Graphics/SVG/1.1/DTD/svg11.dtd">
<!-- Generated by graphviz version 2.43.0 (0)
 -->
<!-- Title: src/loc_map/test/ekf_steps_exec_time.cpp Pages: 1 -->
<svg width="1619pt" height="390pt"
 viewBox="0.00 0.00 1619.00 390.00" xmlns="http://www.w3.org/2000/svg" xmlns:xlink="http://www.w3.org/1999/xlink">
<g id="graph0" class="graph" transform="scale(1 1) rotate(0) translate(4 386)">
<title>src/loc_map/test/ekf_steps_exec_time.cpp</title>
<!-- Node1 -->
<g id="Node000001" class="node">
<title>Node1</title>
<g id="a_Node000001"><a xlink:title=" ">
<polygon fill="#999999" stroke="#666666" points="911,-382 787,-382 787,-352 911,-352 911,-382"/>
<text text-anchor="start" x="795" y="-370" font-family="Helvetica,sans-Serif" font-size="10.00">src/loc_map/test/ekf</text>
<text text-anchor="middle" x="849" y="-359" font-family="Helvetica,sans-Serif" font-size="10.00">_steps_exec_time.cpp</text>
</a>
</g>
</g>
<!-- Node2 -->
<g id="Node000002" class="node">
<title>Node2</title>
<g id="a_Node000002"><a xlink:title=" ">
<polygon fill="#e0e0e0" stroke="#999999" points="671.5,-316 616.5,-316 616.5,-297 671.5,-297 671.5,-316"/>
<text text-anchor="middle" x="644" y="-304" font-family="Helvetica,sans-Serif" font-size="10.00">fstream</text>
</a>
</g>
</g>
<!-- Node1&#45;&gt;Node2 -->
<g id="edge1_Node000001_Node000002" class="edge">
<title>Node1&#45;&gt;Node2</title>
<g id="a_edge1_Node000001_Node000002"><a xlink:title=" ">
<path fill="none" stroke="#63b8ff" d="M799.9,-351.99C763.51,-341.6 714.66,-327.66 681.4,-318.17"/>
<polygon fill="#63b8ff" stroke="#63b8ff" points="682.19,-314.76 671.61,-315.38 680.27,-321.49 682.19,-314.76"/>
</a>
</g>
</g>
<!-- Node3 -->
<g id="Node000003" class="node">
<title>Node3</title>
<g id="a_Node000003"><a xlink:title=" ">
<polygon fill="#e0e0e0" stroke="#999999" points="58,-255.5 0,-255.5 0,-236.5 58,-236.5 58,-255.5"/>
<text text-anchor="middle" x="29" y="-243.5" font-family="Helvetica,sans-Serif" font-size="10.00">memory</text>
</a>
</g>
</g>
<!-- Node1&#45;&gt;Node3 -->
<g id="edge2_Node000001_Node000003" class="edge">
<title>Node1&#45;&gt;Node3</title>
<g id="a_edge2_Node000001_Node000003"><a xlink:title=" ">
<path fill="none" stroke="#63b8ff" d="M809.97,-351.99C783.96,-342.41 749.16,-329.12 719,-316 701.32,-308.31 698.65,-301.89 680,-297 418.14,-228.39 337.98,-311.31 72,-261 68.5,-260.34 64.89,-259.47 61.32,-258.49"/>
<polygon fill="#63b8ff" stroke="#63b8ff" points="62.06,-255.06 51.48,-255.52 60.04,-261.76 62.06,-255.06"/>
</a>
</g>
</g>
<!-- Node4 -->
<g id="Node000004" class="node">
<title>Node4</title>
<g id="a_Node000004"><a xlink:title=" ">
<polygon fill="#e0e0e0" stroke="#999999" points="711,-19 667,-19 667,0 711,0 711,-19"/>
<text text-anchor="middle" x="689" y="-7" font-family="Helvetica,sans-Serif" font-size="10.00">string</text>
</a>
</g>
</g>
<!-- Node1&#45;&gt;Node4 -->
<g id="edge3_Node000001_Node000004" class="edge">
<title>Node1&#45;&gt;Node4</title>
<g id="a_edge3_Node000001_Node000004"><a xlink:title=" ">
<path fill="none" stroke="#63b8ff" d="M911.03,-362.83C1092.73,-352.71 1611,-317.67 1611,-247 1611,-247 1611,-247 1611,-118.5 1611,-27.03 885.85,-12.86 721.74,-10.82"/>
<polygon fill="#63b8ff" stroke="#63b8ff" points="721.37,-7.32 711.33,-10.7 721.29,-14.32 721.37,-7.32"/>
</a>
</g>
</g>
<!-- Node5 -->
<g id="Node000005" class="node">
<title>Node5</title>
<g id="a_Node000005"><a xlink:title=" ">
<polygon fill="#e0e0e0" stroke="#999999" points="948,-316 870,-316 870,-297 948,-297 948,-316"/>
<text text-anchor="middle" x="909" y="-304" font-family="Helvetica,sans-Serif" font-size="10.00">gtest/gtest.h</text>
</a>
</g>
</g>
<!-- Node1&#45;&gt;Node5 -->
<g id="edge4_Node000001_Node000005" class="edge">
<title>Node1&#45;&gt;Node5</title>
<g id="a_edge4_Node000001_Node000005"><a xlink:title=" ">
<path fill="none" stroke="#63b8ff" d="M863.52,-351.84C872.32,-343.26 883.57,-332.3 892.67,-323.42"/>
<polygon fill="#63b8ff" stroke="#63b8ff" points="895.29,-325.75 900.01,-316.27 890.41,-320.74 895.29,-325.75"/>
</a>
</g>
</g>
<!-- Node6 -->
<g id="Node000006" class="node">
<title>Node6</title>
<g id="a_Node000006"><a xlink:href="lm__node_8hpp.html" target="_top" xlink:title=" ">
<polygon fill="white" stroke="#666666" points="852,-316 728,-316 728,-297 852,-297 852,-316"/>
<text text-anchor="middle" x="790" y="-304" font-family="Helvetica,sans-Serif" font-size="10.00">loc_map/lm_node.hpp</text>
</a>
</g>
</g>
<!-- Node1&#45;&gt;Node6 -->
<g id="edge5_Node000001_Node000006" class="edge">
<title>Node1&#45;&gt;Node6</title>
<g id="a_edge5_Node000001_Node000006"><a xlink:title=" ">
<path fill="none" stroke="#63b8ff" d="M834.72,-351.84C826.07,-343.26 815.01,-332.3 806.06,-323.42"/>
<polygon fill="#63b8ff" stroke="#63b8ff" points="808.41,-320.82 798.84,-316.27 803.48,-325.79 808.41,-320.82"/>
</a>
</g>
</g>
<!-- Node24 -->
<g id="Node000024" class="node">
<title>Node24</title>
<g id="a_Node000024"><a xlink:title=" ">
<polygon fill="#e0e0e0" stroke="#999999" points="1582.5,-255.5 1483.5,-255.5 1483.5,-236.5 1582.5,-236.5 1582.5,-255.5"/>
<text text-anchor="middle" x="1533" y="-243.5" font-family="Helvetica,sans-Serif" font-size="10.00">rclcpp/rclcpp.hpp</text>
</a>
</g>
</g>
<!-- Node1&#45;&gt;Node24 -->
<g id="edge36_Node000001_Node000024" class="edge">
<title>Node1&#45;&gt;Node24</title>
<g id="a_edge36_Node000001_Node000024"><a xlink:title=" ">
<path fill="none" stroke="#63b8ff" d="M911.02,-357.08C1023.75,-340.55 1269.59,-302.96 1475,-261 1479.7,-260.04 1484.6,-258.97 1489.47,-257.86"/>
<polygon fill="#63b8ff" stroke="#63b8ff" points="1490.41,-261.23 1499.35,-255.55 1488.82,-254.42 1490.41,-261.23"/>
</a>
</g>
</g>
<!-- Node6&#45;&gt;Node3 -->
<g id="edge8_Node000006_Node000003" class="edge">
<title>Node6&#45;&gt;Node3</title>
<g id="a_edge8_Node000006_Node000003"><a xlink:title=" ">
<path fill="none" stroke="#63b8ff" d="M727.81,-298.26C723.14,-297.8 718.5,-297.38 714,-297 429.22,-273.11 352.88,-313.68 72,-261 68.5,-260.34 64.89,-259.48 61.32,-258.5"/>
<polygon fill="#63b8ff" stroke="#63b8ff" points="62.06,-255.07 51.48,-255.53 60.04,-261.77 62.06,-255.07"/>
</a>
</g>
</g>
<!-- Node6&#45;&gt;Node4 -->
<g id="edge9_Node000006_Node000004" class="edge">
<title>Node6&#45;&gt;Node4</title>
<g id="a_edge9_Node000006_Node000004"><a xlink:title=" ">
<path fill="none" stroke="#63b8ff" d="M790,-296.75C790,-276.42 790,-224.45 790,-181 790,-181 790,-181 790,-118.5 790,-74.76 745.26,-41.41 715.34,-23.99"/>
<polygon fill="#63b8ff" stroke="#63b8ff" points="717.03,-20.92 706.59,-19.1 713.61,-27.03 717.03,-20.92"/>
</a>
</g>
</g>
<!-- Node7 -->
<g id="Node000007" class="node">
<title>Node7</title>
<g id="a_Node000007"><a xlink:title=" ">
<polygon fill="#e0e0e0" stroke="#999999" points="678.5,-255.5 573.5,-255.5 573.5,-236.5 678.5,-236.5 678.5,-255.5"/>
<text text-anchor="middle" x="626" y="-243.5" font-family="Helvetica,sans-Serif" font-size="10.00">gtest/gtest_prod.h</text>
</a>
</g>
</g>
<!-- Node6&#45;&gt;Node7 -->
<g id="edge6_Node000006_Node000007" class="edge">
<title>Node6&#45;&gt;Node7</title>
<g id="a_edge6_Node000006_Node000007"><a xlink:title=" ">
<path fill="none" stroke="#63b8ff" d="M766.15,-296.99C738.1,-286.99 691.33,-270.3 659.6,-258.99"/>
<polygon fill="#63b8ff" stroke="#63b8ff" points="660.47,-255.58 649.88,-255.52 658.12,-262.17 660.47,-255.58"/>
</a>
</g>
</g>
<!-- Node8 -->
<g id="Node000008" class="node">
<title>Node8</title>
<g id="a_Node000008"><a xlink:title=" ">
<polygon fill="#e0e0e0" stroke="#999999" points="761.5,-255.5 696.5,-255.5 696.5,-236.5 761.5,-236.5 761.5,-255.5"/>
<text text-anchor="middle" x="729" y="-243.5" font-family="Helvetica,sans-Serif" font-size="10.00">functional</text>
</a>
</g>
</g>
<!-- Node6&#45;&gt;Node8 -->
<g id="edge7_Node000006_Node000008" class="edge">
<title>Node6&#45;&gt;Node8</title>
<g id="a_edge7_Node000006_Node000008"><a xlink:title=" ">
<path fill="none" stroke="#63b8ff" d="M781,-296.87C771.63,-287.88 756.75,-273.61 745.3,-262.64"/>
<polygon fill="#63b8ff" stroke="#63b8ff" points="747.68,-260.06 738.04,-255.67 742.83,-265.12 747.68,-260.06"/>
</a>
</g>
</g>
<!-- Node9 -->
<g id="Node000009" class="node">
<title>Node9</title>
<g id="a_Node000009"><a xlink:title=" ">
<polygon fill="#e0e0e0" stroke="#999999" points="875.5,-255.5 818.5,-255.5 818.5,-236.5 875.5,-236.5 875.5,-255.5"/>
<text text-anchor="middle" x="847" y="-243.5" font-family="Helvetica,sans-Serif" font-size="10.00">typeinfo</text>
</a>
</g>
</g>
<!-- Node6&#45;&gt;Node9 -->
<g id="edge10_Node000006_Node000009" class="edge">
<title>Node6&#45;&gt;Node9</title>
<g id="a_edge10_Node000006_Node000009"><a xlink:title=" ">
<path fill="none" stroke="#63b8ff" d="M798.41,-296.87C807.08,-287.97 820.8,-273.89 831.46,-262.95"/>
<polygon fill="#63b8ff" stroke="#63b8ff" points="834.08,-265.27 838.55,-255.67 829.07,-260.39 834.08,-265.27"/>
</a>
</g>
</g>
<!-- Node10 -->
<g id="Node000010" class="node">
<title>Node10</title>
<g id="a_Node000010"><a xlink:title=" ">
<polygon fill="#e0e0e0" stroke="#999999" points="1024.5,-261 893.5,-261 893.5,-231 1024.5,-231 1024.5,-261"/>
<text text-anchor="start" x="901.5" y="-249" font-family="Helvetica,sans-Serif" font-size="10.00">custom_interfaces/msg</text>
<text text-anchor="middle" x="959" y="-238" font-family="Helvetica,sans-Serif" font-size="10.00">/cone_array.hpp</text>
</a>
</g>
</g>
<!-- Node6&#45;&gt;Node10 -->
<g id="edge11_Node000006_Node000010" class="edge">
<title>Node6&#45;&gt;Node10</title>
<g id="a_edge11_Node000006_Node000010"><a xlink:title=" ">
<path fill="none" stroke="#63b8ff" d="M814.57,-296.99C839.11,-288.5 877.53,-275.2 908.58,-264.45"/>
<polygon fill="#63b8ff" stroke="#63b8ff" points="910.06,-267.64 918.37,-261.06 907.78,-261.03 910.06,-267.64"/>
</a>
</g>
</g>
<!-- Node11 -->
<g id="Node000011" class="node">
<title>Node11</title>
<g id="a_Node000011"><a xlink:title=" ">
<polygon fill="#e0e0e0" stroke="#999999" points="1173.5,-261 1042.5,-261 1042.5,-231 1173.5,-231 1173.5,-261"/>
<text text-anchor="start" x="1050.5" y="-249" font-family="Helvetica,sans-Serif" font-size="10.00">custom_interfaces/msg</text>
<text text-anchor="middle" x="1108" y="-238" font-family="Helvetica,sans-Serif" font-size="10.00">/point2d.hpp</text>
</a>
</g>
</g>
<!-- Node6&#45;&gt;Node11 -->
<g id="edge12_Node000006_Node000011" class="edge">
<title>Node6&#45;&gt;Node11</title>
<g id="a_edge12_Node000006_Node000011"><a xlink:title=" ">
<path fill="none" stroke="#63b8ff" d="M837.25,-296.98C884.3,-288.47 958.88,-274.93 1032.35,-261.3"/>
<polygon fill="#63b8ff" stroke="#63b8ff" points="1033.04,-264.73 1042.24,-259.46 1031.77,-257.85 1033.04,-264.73"/>
</a>
</g>
</g>
<!-- Node12 -->
<g id="Node000012" class="node">
<title>Node12</title>
<g id="a_Node000012"><a xlink:title=" ">
<polygon fill="#e0e0e0" stroke="#999999" points="1322.5,-261 1191.5,-261 1191.5,-231 1322.5,-231 1322.5,-261"/>
<text text-anchor="start" x="1199.5" y="-249" font-family="Helvetica,sans-Serif" font-size="10.00">custom_interfaces/msg</text>
<text text-anchor="middle" x="1257" y="-238" font-family="Helvetica,sans-Serif" font-size="10.00">/pose.hpp</text>
</a>
</g>
</g>
<!-- Node6&#45;&gt;Node12 -->
<g id="edge13_Node000006_Node000012" class="edge">
<title>Node6&#45;&gt;Node12</title>
<g id="a_edge13_Node000006_Node000012"><a xlink:title=" ">
<path fill="none" stroke="#63b8ff" d="M852.33,-298.01C855.26,-297.67 858.16,-297.33 861,-297 1000.83,-280.81 1038.9,-282.32 1181.29,-261.19"/>
<polygon fill="#63b8ff" stroke="#63b8ff" points="1181.9,-264.64 1191.28,-259.7 1180.87,-257.72 1181.9,-264.64"/>
</a>
</g>
</g>
<!-- Node13 -->
<g id="Node000013" class="node">
<title>Node13</title>
<g id="a_Node000013"><a xlink:title=" ">
<polygon fill="#e0e0e0" stroke="#999999" points="1465.5,-261 1340.5,-261 1340.5,-231 1465.5,-231 1465.5,-261"/>
<text text-anchor="start" x="1348.5" y="-249" font-family="Helvetica,sans-Serif" font-size="10.00">eufs_msgs/msg/wheel</text>
<text text-anchor="middle" x="1403" y="-238" font-family="Helvetica,sans-Serif" font-size="10.00">_speeds_stamped.hpp</text>
</a>
</g>
</g>
<!-- Node6&#45;&gt;Node13 -->
<g id="edge14_Node000006_Node000013" class="edge">
<title>Node6&#45;&gt;Node13</title>
<g id="a_edge14_Node000006_Node000013"><a xlink:title=" ">
<path fill="none" stroke="#63b8ff" d="M852.32,-297.89C855.25,-297.58 858.16,-297.28 861,-297 1066.68,-276.84 1122.25,-288.96 1330.32,-261.13"/>
<polygon fill="#63b8ff" stroke="#63b8ff" points="1330.91,-264.58 1340.35,-259.77 1329.97,-257.64 1330.91,-264.58"/>
</a>
</g>
</g>
<!-- Node14 -->
<g id="Node000014" class="node">
<title>Node14</title>
<g id="a_Node000014"><a xlink:href="ekf_8hpp.html" target="_top" xlink:title=" ">
<polygon fill="white" stroke="#666666" points="233.5,-255.5 114.5,-255.5 114.5,-236.5 233.5,-236.5 233.5,-255.5"/>
<text text-anchor="middle" x="174" y="-243.5" font-family="Helvetica,sans-Serif" font-size="10.00">kalman_filter/ekf.hpp</text>
</a>
</g>
</g>
<!-- Node6&#45;&gt;Node14 -->
<g id="edge15_Node000006_Node000014" class="edge">
<title>Node6&#45;&gt;Node14</title>
<g id="a_edge15_Node000006_Node000014"><a xlink:title=" ">
<path fill="none" stroke="#63b8ff" d="M727.8,-298.36C723.14,-297.88 718.49,-297.42 714,-297 504.54,-277.3 450.34,-290.27 242,-261 235.26,-260.05 228.19,-258.84 221.26,-257.53"/>
<polygon fill="#63b8ff" stroke="#63b8ff" points="221.75,-254.06 211.26,-255.56 220.4,-260.93 221.75,-254.06"/>
</a>
</g>
</g>
<!-- Node18 -->
<g id="Node000018" class="node">
<title>Node18</title>
<g id="a_Node000018"><a xlink:href="data__structures_8hpp.html" target="_top" xlink:title=" ">
<polygon fill="white" stroke="#666666" points="308,-129 150,-129 150,-110 308,-110 308,-129"/>
<text text-anchor="middle" x="229" y="-117" font-family="Helvetica,sans-Serif" font-size="10.00">loc_map/data_structures.hpp</text>
</a>
</g>
</g>
<!-- Node6&#45;&gt;Node18 -->
<g id="edge32_Node000006_Node000018" class="edge">
<title>Node6&#45;&gt;Node18</title>
<g id="a_edge32_Node000006_Node000018"><a xlink:title=" ">
<path fill="none" stroke="#63b8ff" d="M727.81,-298.28C723.14,-297.82 718.5,-297.38 714,-297 646.46,-291.23 151.5,-310.33 105,-261 80.96,-235.5 122.43,-177.77 135,-165 149.6,-150.17 170.12,-139.67 188.26,-132.61"/>
<polygon fill="#63b8ff" stroke="#63b8ff" points="189.57,-135.86 197.76,-129.13 187.16,-129.28 189.57,-135.86"/>
</a>
</g>
</g>
<!-- Node6&#45;&gt;Node24 -->
<g id="edge33_Node000006_Node000024" class="edge">
<title>Node6&#45;&gt;Node24</title>
<g id="a_edge33_Node000006_Node000024"><a xlink:title=" ">
<path fill="none" stroke="#63b8ff" d="M852.32,-297.82C855.25,-297.53 858.16,-297.25 861,-297 1133.28,-272.74 1204.62,-301.23 1475,-261 1480.57,-260.17 1486.39,-259.06 1492.11,-257.83"/>
<polygon fill="#63b8ff" stroke="#63b8ff" points="1493.23,-261.16 1502.2,-255.51 1491.67,-254.34 1493.23,-261.16"/>
</a>
</g>
</g>
<!-- Node25 -->
<g id="Node000025" class="node">
<title>Node25</title>
<g id="a_Node000025"><a xlink:title=" ">
<polygon fill="#e0e0e0" stroke="#999999" points="398.5,-255.5 251.5,-255.5 251.5,-236.5 398.5,-236.5 398.5,-255.5"/>
<text text-anchor="middle" x="325" y="-243.5" font-family="Helvetica,sans-Serif" font-size="10.00">sensor_msgs/msg/imu.hpp</text>
</a>
</g>
</g>
<!-- Node6&#45;&gt;Node25 -->
<g id="edge34_Node000006_Node000025" class="edge">
<title>Node6&#45;&gt;Node25</title>
<g id="a_edge34_Node000006_Node000025"><a xlink:title=" ">
<path fill="none" stroke="#63b8ff" d="M727.88,-298.47C627.55,-287.08 437.94,-265.43 407,-261 398.97,-259.85 390.52,-258.53 382.21,-257.17"/>
<polygon fill="#63b8ff" stroke="#63b8ff" points="382.64,-253.69 372.2,-255.5 381.49,-260.6 382.64,-253.69"/>
</a>
</g>
</g>
<!-- Node26 -->
<g id="Node000026" class="node">
<title>Node26</title>
<g id="a_Node000026"><a xlink:title=" ">
<polygon fill="#e0e0e0" stroke="#999999" points="555.5,-255.5 416.5,-255.5 416.5,-236.5 555.5,-236.5 555.5,-255.5"/>
<text text-anchor="middle" x="486" y="-243.5" font-family="Helvetica,sans-Serif" font-size="10.00">std_msgs/msg/string.hpp</text>
</a>
</g>
</g>
<!-- Node6&#45;&gt;Node26 -->
<g id="edge35_Node000006_Node000026" class="edge">
<title>Node6&#45;&gt;Node26</title>
<g id="a_edge35_Node000006_Node000026"><a xlink:title=" ">
<path fill="none" stroke="#63b8ff" d="M745.8,-296.99C691.31,-286.51 598.76,-268.7 540.09,-257.41"/>
<polygon fill="#63b8ff" stroke="#63b8ff" points="540.74,-253.97 530.26,-255.52 539.42,-260.84 540.74,-253.97"/>
</a>
</g>
</g>
<!-- Node15 -->
<g id="Node000015" class="node">
<title>Node15</title>
<g id="a_Node000015"><a xlink:title=" ">
<polygon fill="#e0e0e0" stroke="#999999" points="409.5,-129 332.5,-129 332.5,-110 409.5,-110 409.5,-129"/>
<text text-anchor="middle" x="371" y="-117" font-family="Helvetica,sans-Serif" font-size="10.00">Eigen/Dense</text>
</a>
</g>
</g>
<!-- Node14&#45;&gt;Node15 -->
<g id="edge16_Node000014_Node000015" class="edge">
<title>Node14&#45;&gt;Node15</title>
<g id="a_edge16_Node000014_Node000015"><a xlink:title=" ">
<path fill="none" stroke="#63b8ff" d="M213.11,-236.48C222.55,-234.56 232.61,-232.61 242,-231 299.92,-221.07 465.38,-239.29 504,-195 532.88,-161.88 468.33,-140.38 419.41,-129.36"/>
<polygon fill="#63b8ff" stroke="#63b8ff" points="420.07,-125.92 409.56,-127.23 418.59,-132.76 420.07,-125.92"/>
</a>
</g>
</g>
<!-- Node16 -->
<g id="Node000016" class="node">
<title>Node16</title>
<g id="a_Node000016"><a xlink:title=" ">
<polygon fill="#e0e0e0" stroke="#999999" points="495.5,-189.5 448.5,-189.5 448.5,-170.5 495.5,-170.5 495.5,-189.5"/>
<text text-anchor="middle" x="472" y="-177.5" font-family="Helvetica,sans-Serif" font-size="10.00">vector</text>
</a>
</g>
</g>
<!-- Node14&#45;&gt;Node16 -->
<g id="edge17_Node000014_Node000016" class="edge">
<title>Node14&#45;&gt;Node16</title>
<g id="a_edge17_Node000014_Node000016"><a xlink:title=" ">
<path fill="none" stroke="#63b8ff" d="M214.6,-236.49C223.62,-234.64 233.13,-232.72 242,-231 329.37,-214.02 353.74,-220.54 439,-195 440.68,-194.5 442.39,-193.93 444.1,-193.33"/>
<polygon fill="#63b8ff" stroke="#63b8ff" points="445.71,-196.46 453.76,-189.58 443.17,-189.94 445.71,-196.46"/>
</a>
</g>
</g>
<!-- Node17 -->
<g id="Node000017" class="node">
<title>Node17</title>
<g id="a_Node000017"><a xlink:href="motion__models_8hpp.html" target="_top" xlink:title=" ">
<polygon fill="white" stroke="#666666" points="430,-195 312,-195 312,-165 430,-165 430,-195"/>
<text text-anchor="start" x="320" y="-183" font-family="Helvetica,sans-Serif" font-size="10.00">kalman_filter/motion</text>
<text text-anchor="middle" x="371" y="-172" font-family="Helvetica,sans-Serif" font-size="10.00">_models.hpp</text>
</a>
</g>
</g>
<!-- Node14&#45;&gt;Node17 -->
<g id="edge18_Node000014_Node000017" class="edge">
<title>Node14&#45;&gt;Node17</title>
<g id="a_edge18_Node000014_Node000017"><a xlink:title=" ">
<path fill="none" stroke="#63b8ff" d="M200.57,-236.37C230.46,-226.66 279.77,-210.64 317.68,-198.32"/>
<polygon fill="#63b8ff" stroke="#63b8ff" points="319.12,-201.53 327.55,-195.12 316.96,-194.88 319.12,-201.53"/>
</a>
</g>
</g>
<!-- Node14&#45;&gt;Node18 -->
<g id="edge31_Node000014_Node000018" class="edge">
<title>Node14&#45;&gt;Node18</title>
<g id="a_edge31_Node000014_Node000018"><a xlink:title=" ">
<path fill="none" stroke="#63b8ff" d="M165.52,-236.13C151.99,-220.85 128.44,-188.92 143,-165 152.19,-149.9 168.34,-139.69 184.19,-132.91"/>
<polygon fill="#63b8ff" stroke="#63b8ff" points="185.9,-136 193.95,-129.12 183.36,-129.48 185.9,-136"/>
</a>
</g>
</g>
<!-- Node23 -->
<g id="Node000023" class="node">
<title>Node23</title>
<g id="a_Node000023"><a xlink:href="observation__models_8hpp.html" target="_top" xlink:title=" ">
<polygon fill="white" stroke="#666666" points="293.5,-195 152.5,-195 152.5,-165 293.5,-165 293.5,-195"/>
<text text-anchor="start" x="160.5" y="-183" font-family="Helvetica,sans-Serif" font-size="10.00">kalman_filter/observation</text>
<text text-anchor="middle" x="223" y="-172" font-family="Helvetica,sans-Serif" font-size="10.00">_models.hpp</text>
</a>
</g>
</g>
<!-- Node14&#45;&gt;Node23 -->
<g id="edge28_Node000014_Node000023" class="edge">
<title>Node14&#45;&gt;Node23</title>
<g id="a_edge28_Node000014_Node000023"><a xlink:title=" ">
<path fill="none" stroke="#63b8ff" d="M180.61,-236.37C187.02,-227.99 197.03,-214.93 205.71,-203.59"/>
<polygon fill="#63b8ff" stroke="#63b8ff" points="208.71,-205.43 212.01,-195.36 203.15,-201.17 208.71,-205.43"/>
</a>
</g>
</g>
<!-- Node17&#45;&gt;Node15 -->
<g id="edge19_Node000017_Node000015" class="edge">
<title>Node17&#45;&gt;Node15</title>
<g id="a_edge19_Node000017_Node000015"><a xlink:title=" ">
<path fill="none" stroke="#63b8ff" d="M371,-164.84C371,-157.21 371,-147.7 371,-139.45"/>
<polygon fill="#63b8ff" stroke="#63b8ff" points="374.5,-139.27 371,-129.27 367.5,-139.27 374.5,-139.27"/>
</a>
</g>
</g>
<!-- Node17&#45;&gt;Node18 -->
<g id="edge20_Node000017_Node000018" class="edge">
<title>Node17&#45;&gt;Node18</title>
<g id="a_edge20_Node000017_Node000018"><a xlink:title=" ">
<path fill="none" stroke="#63b8ff" d="M336.99,-164.99C313.4,-155.27 282.26,-142.44 259.48,-133.06"/>
<polygon fill="#63b8ff" stroke="#63b8ff" points="260.55,-129.71 249.97,-129.14 257.88,-136.18 260.55,-129.71"/>
</a>
</g>
</g>
<!-- Node18&#45;&gt;Node4 -->
<g id="edge23_Node000018_Node000004" class="edge">
<title>Node18&#45;&gt;Node4</title>
<g id="a_edge23_Node000018_Node000004"><a xlink:title=" ">
<path fill="none" stroke="#63b8ff" d="M265.48,-109.94C353.11,-89.36 574.31,-37.43 657.08,-17.99"/>
<polygon fill="#63b8ff" stroke="#63b8ff" points="657.99,-21.38 666.92,-15.68 656.39,-14.56 657.99,-21.38"/>
</a>
</g>
</g>
<!-- Node19 -->
<g id="Node000019" class="node">
<title>Node19</title>
<g id="a_Node000019"><a xlink:title=" ">
<polygon fill="#e0e0e0" stroke="#999999" points="254,-74 204,-74 204,-55 254,-55 254,-74"/>
<text text-anchor="middle" x="229" y="-62" font-family="Helvetica,sans-Serif" font-size="10.00">chrono</text>
</a>
</g>
</g>
<!-- Node18&#45;&gt;Node19 -->
<g id="edge21_Node000018_Node000019" class="edge">
<title>Node18&#45;&gt;Node19</title>
<g id="a_edge21_Node000018_Node000019"><a xlink:title=" ">
<path fill="none" stroke="#63b8ff" d="M229,-109.75C229,-102.8 229,-92.85 229,-84.13"/>
<polygon fill="#63b8ff" stroke="#63b8ff" points="232.5,-84.09 229,-74.09 225.5,-84.09 232.5,-84.09"/>
</a>
</g>
</g>
<!-- Node20 -->
<g id="Node000020" class="node">
<title>Node20</title>
<g id="a_Node000020"><a xlink:title=" ">
<polygon fill="#e0e0e0" stroke="#999999" points="337,-19 299,-19 299,0 337,0 337,-19"/>
<text text-anchor="middle" x="318" y="-7" font-family="Helvetica,sans-Serif" font-size="10.00">map</text>
</a>
</g>
</g>
<!-- Node18&#45;&gt;Node20 -->
<g id="edge22_Node000018_Node000020" class="edge">
<title>Node18&#45;&gt;Node20</title>
<g id="a_edge22_Node000018_Node000020"><a xlink:title=" ">
<path fill="none" stroke="#63b8ff" d="M236.28,-109.66C251.16,-91.61 285.22,-50.28 304.34,-27.08"/>
<polygon fill="#63b8ff" stroke="#63b8ff" points="307.21,-29.1 310.86,-19.16 301.8,-24.65 307.21,-29.1"/>
</a>
</g>
</g>
<!-- Node21 -->
<g id="Node000021" class="node">
<title>Node21</title>
<g id="a_Node000021"><a xlink:href="color_8hpp.html" target="_top" xlink:title=" ">
<polygon fill="white" stroke="#666666" points="395.5,-74 310.5,-74 310.5,-55 395.5,-55 395.5,-74"/>
<text text-anchor="middle" x="353" y="-62" font-family="Helvetica,sans-Serif" font-size="10.00">utils/color.hpp</text>
</a>
</g>
</g>
<!-- Node18&#45;&gt;Node21 -->
<g id="edge24_Node000018_Node000021" class="edge">
<title>Node18&#45;&gt;Node21</title>
<g id="a_edge24_Node000018_Node000021"><a xlink:title=" ">
<path fill="none" stroke="#63b8ff" d="M248.92,-109.98C269.05,-101.38 300.38,-87.99 323.41,-78.15"/>
<polygon fill="#63b8ff" stroke="#63b8ff" points="324.9,-81.32 332.71,-74.17 322.14,-74.88 324.9,-81.32"/>
</a>
</g>
</g>
<!-- Node22 -->
<g id="Node000022" class="node">
<title>Node22</title>
<g id="a_Node000022"><a xlink:href="position_8hpp.html" target="_top" xlink:title=" ">
<polygon fill="white" stroke="#666666" points="185.5,-74 84.5,-74 84.5,-55 185.5,-55 185.5,-74"/>
<text text-anchor="middle" x="135" y="-62" font-family="Helvetica,sans-Serif" font-size="10.00">utils/position.hpp</text>
</a>
</g>
</g>
<!-- Node18&#45;&gt;Node22 -->
<g id="edge27_Node000018_Node000022" class="edge">
<title>Node18&#45;&gt;Node22</title>
<g id="a_edge27_Node000018_Node000022"><a xlink:title=" ">
<path fill="none" stroke="#63b8ff" d="M213.9,-109.98C199.18,-101.69 176.58,-88.94 159.33,-79.22"/>
<polygon fill="#63b8ff" stroke="#63b8ff" points="160.81,-76.03 150.38,-74.17 157.37,-82.13 160.81,-76.03"/>
</a>
</g>
</g>
<!-- Node21&#45;&gt;Node4 -->
<g id="edge26_Node000021_Node000004" class="edge">
<title>Node21&#45;&gt;Node4</title>
<g id="a_edge26_Node000021_Node000004"><a xlink:title=" ">
<path fill="none" stroke="#63b8ff" d="M395.55,-56.79C463.69,-46.04 595.78,-25.2 656.74,-15.59"/>
<polygon fill="#63b8ff" stroke="#63b8ff" points="657.59,-19 666.92,-13.98 656.5,-12.08 657.59,-19"/>
</a>
</g>
</g>
<!-- Node21&#45;&gt;Node20 -->
<g id="edge25_Node000021_Node000020" class="edge">
<title>Node21&#45;&gt;Node20</title>
<g id="a_edge25_Node000021_Node000020"><a xlink:title=" ">
<path fill="none" stroke="#63b8ff" d="M347.22,-54.75C342.38,-47.42 335.32,-36.73 329.36,-27.7"/>
<polygon fill="#63b8ff" stroke="#63b8ff" points="332.1,-25.5 323.67,-19.09 326.26,-29.36 332.1,-25.5"/>
</a>
</g>
</g>
<!-- Node23&#45;&gt;Node15 -->
<g id="edge29_Node000023_Node000015" class="edge">
<title>Node23&#45;&gt;Node15</title>
<g id="a_edge29_Node000023_Node000015"><a xlink:title=" ">
<path fill="none" stroke="#63b8ff" d="M258.45,-164.99C283.14,-155.23 315.78,-142.33 339.55,-132.93"/>
<polygon fill="#63b8ff" stroke="#63b8ff" points="341.13,-136.07 349.14,-129.14 338.56,-129.56 341.13,-136.07"/>
</a>
</g>
</g>
<!-- Node23&#45;&gt;Node18 -->
<g id="edge30_Node000023_Node000018" class="edge">
<title>Node23&#45;&gt;Node18</title>
<g id="a_edge30_Node000023_Node000018"><a xlink:title=" ">
<path fill="none" stroke="#63b8ff" d="M224.45,-164.84C225.23,-157.21 226.21,-147.7 227.06,-139.45"/>
<polygon fill="#63b8ff" stroke="#63b8ff" points="230.56,-139.57 228.1,-129.27 223.6,-138.86 230.56,-139.57"/>
</a>
</g>
</g>
</g>
</svg>
