<?xml version="1.0" encoding="UTF-8" standalone="no"?>
<!DOCTYPE svg PUBLIC "-//W3C//DTD SVG 1.1//EN"
 "http://www.w3.org/Graphics/SVG/1.1/DTD/svg11.dtd">
<!-- Generated by graphviz version 2.43.0 (0)
 -->
<!-- Title: src/loc_map/include/kalman_filter/ekf.hpp Pages: 1 -->
<svg width="441pt" height="269pt"
 viewBox="0.00 0.00 441.26 269.00" xmlns="http://www.w3.org/2000/svg" xmlns:xlink="http://www.w3.org/1999/xlink">
<g id="graph0" class="graph" transform="scale(1 1) rotate(0) translate(4 265)">
<title>src/loc_map/include/kalman_filter/ekf.hpp</title>
<!-- Node1 -->
<g id="Node000001" class="node">
<title>Node1</title>
<g id="a_Node000001"><a xlink:title=" ">
<polygon fill="#999999" stroke="#666666" points="293.76,-261 171.76,-261 171.76,-231 293.76,-231 293.76,-261"/>
<text text-anchor="start" x="179.76" y="-249" font-family="Helvetica,sans-Serif" font-size="10.00">src/loc_map/include</text>
<text text-anchor="middle" x="232.76" y="-238" font-family="Helvetica,sans-Serif" font-size="10.00">/kalman_filter/ekf.hpp</text>
</a>
</g>
</g>
<!-- Node2 -->
<g id="Node000002" class="node">
<title>Node2</title>
<g id="a_Node000002"><a xlink:title=" ">
<polygon fill="#e0e0e0" stroke="#999999" points="123.26,-129 46.26,-129 46.26,-110 123.26,-110 123.26,-129"/>
<text text-anchor="middle" x="84.76" y="-117" font-family="Helvetica,sans-Serif" font-size="10.00">Eigen/Dense</text>
</a>
</g>
</g>
<!-- Node1&#45;&gt;Node2 -->
<g id="edge1_Node000001_Node000002" class="edge">
<title>Node1&#45;&gt;Node2</title>
<g id="a_edge1_Node000001_Node000002"><a xlink:title=" ">
<path fill="none" stroke="#63b8ff" d="M171.7,-240.03C111.7,-233.73 26.23,-220.48 5.76,-195 -2.6,-184.61 -0.97,-176.51 5.76,-165 14.44,-150.14 30.11,-139.86 45.22,-132.95"/>
<polygon fill="#63b8ff" stroke="#63b8ff" points="46.61,-136.17 54.49,-129.08 43.91,-129.71 46.61,-136.17"/>
</a>
</g>
</g>
<!-- Node3 -->
<g id="Node000003" class="node">
<title>Node3</title>
<g id="a_Node000003"><a xlink:title=" ">
<polygon fill="#e0e0e0" stroke="#999999" points="395.26,-189.5 348.26,-189.5 348.26,-170.5 395.26,-170.5 395.26,-189.5"/>
<text text-anchor="middle" x="371.76" y="-177.5" font-family="Helvetica,sans-Serif" font-size="10.00">vector</text>
</a>
</g>
</g>
<!-- Node1&#45;&gt;Node3 -->
<g id="edge2_Node000001_Node000003" class="edge">
<title>Node1&#45;&gt;Node3</title>
<g id="a_edge2_Node000001_Node000003"><a xlink:title=" ">
<path fill="none" stroke="#63b8ff" d="M263.26,-230.95C287.32,-219.88 320.59,-204.56 343.92,-193.82"/>
<polygon fill="#63b8ff" stroke="#63b8ff" points="345.64,-196.88 353.26,-189.52 342.71,-190.52 345.64,-196.88"/>
</a>
</g>
</g>
<!-- Node4 -->
<g id="Node000004" class="node">
<title>Node4</title>
<g id="a_Node000004"><a xlink:href="motion__models_8hpp.html" target="_top" xlink:title=" ">
<polygon fill="white" stroke="#666666" points="291.76,-195 173.76,-195 173.76,-165 291.76,-165 291.76,-195"/>
<text text-anchor="start" x="181.76" y="-183" font-family="Helvetica,sans-Serif" font-size="10.00">kalman_filter/motion</text>
<text text-anchor="middle" x="232.76" y="-172" font-family="Helvetica,sans-Serif" font-size="10.00">_models.hpp</text>
</a>
</g>
</g>
<!-- Node1&#45;&gt;Node4 -->
<g id="edge3_Node000001_Node000004" class="edge">
<title>Node1&#45;&gt;Node4</title>
<g id="a_edge3_Node000001_Node000004"><a xlink:title=" ">
<path fill="none" stroke="#63b8ff" d="M232.76,-230.8C232.76,-223.34 232.76,-213.99 232.76,-205.41"/>
<polygon fill="#63b8ff" stroke="#63b8ff" points="236.26,-205.16 232.76,-195.16 229.26,-205.16 236.26,-205.16"/>
</a>
</g>
</g>
<!-- Node5 -->
<g id="Node000005" class="node">
<title>Node5</title>
<g id="a_Node000005"><a xlink:href="data__structures_8hpp.html" target="_top" xlink:title=" ">
<polygon fill="white" stroke="#666666" points="311.76,-129 153.76,-129 153.76,-110 311.76,-110 311.76,-129"/>
<text text-anchor="middle" x="232.76" y="-117" font-family="Helvetica,sans-Serif" font-size="10.00">loc_map/data_structures.hpp</text>
</a>
</g>
</g>
<!-- Node1&#45;&gt;Node5 -->
<g id="edge16_Node000001_Node000005" class="edge">
<title>Node1&#45;&gt;Node5</title>
<g id="a_edge16_Node000001_Node000005"><a xlink:title=" ">
<path fill="none" stroke="#63b8ff" d="M263.22,-230.94C277.38,-222.66 292.82,-210.69 300.76,-195 306.78,-183.1 307.1,-176.73 300.76,-165 293.18,-150.98 279.05,-140.67 265.63,-133.53"/>
<polygon fill="#63b8ff" stroke="#63b8ff" points="267.06,-130.33 256.54,-129.08 263.98,-136.62 267.06,-130.33"/>
</a>
</g>
</g>
<!-- Node11 -->
<g id="Node000011" class="node">
<title>Node11</title>
<g id="a_Node000011"><a xlink:href="observation__models_8hpp.html" target="_top" xlink:title=" ">
<polygon fill="white" stroke="#666666" points="155.26,-195 14.26,-195 14.26,-165 155.26,-165 155.26,-195"/>
<text text-anchor="start" x="22.26" y="-183" font-family="Helvetica,sans-Serif" font-size="10.00">kalman_filter/observation</text>
<text text-anchor="middle" x="84.76" y="-172" font-family="Helvetica,sans-Serif" font-size="10.00">_models.hpp</text>
</a>
</g>
</g>
<!-- Node1&#45;&gt;Node11 -->
<g id="edge13_Node000001_Node000011" class="edge">
<title>Node1&#45;&gt;Node11</title>
<g id="a_edge13_Node000001_Node000011"><a xlink:title=" ">
<path fill="none" stroke="#63b8ff" d="M200.28,-230.95C178.59,-221.58 149.87,-209.16 126.49,-199.05"/>
<polygon fill="#63b8ff" stroke="#63b8ff" points="127.73,-195.77 117.16,-195.01 124.95,-202.19 127.73,-195.77"/>
</a>
</g>
</g>
<!-- Node4&#45;&gt;Node2 -->
<g id="edge4_Node000004_Node000002" class="edge">
<title>Node4&#45;&gt;Node2</title>
<g id="a_edge4_Node000004_Node000002"><a xlink:title=" ">
<path fill="none" stroke="#63b8ff" d="M197.31,-164.99C172.61,-155.23 139.98,-142.33 116.21,-132.93"/>
<polygon fill="#63b8ff" stroke="#63b8ff" points="117.2,-129.56 106.61,-129.14 114.63,-136.07 117.2,-129.56"/>
</a>
</g>
</g>
<!-- Node4&#45;&gt;Node5 -->
<g id="edge5_Node000004_Node000005" class="edge">
<title>Node4&#45;&gt;Node5</title>
<g id="a_edge5_Node000004_Node000005"><a xlink:title=" ">
<path fill="none" stroke="#63b8ff" d="M232.76,-164.84C232.76,-157.21 232.76,-147.7 232.76,-139.45"/>
<polygon fill="#63b8ff" stroke="#63b8ff" points="236.26,-139.27 232.76,-129.27 229.26,-139.27 236.26,-139.27"/>
</a>
</g>
</g>
<!-- Node6 -->
<g id="Node000006" class="node">
<title>Node6</title>
<g id="a_Node000006"><a xlink:title=" ">
<polygon fill="#e0e0e0" stroke="#999999" points="133.76,-74 83.76,-74 83.76,-55 133.76,-55 133.76,-74"/>
<text text-anchor="middle" x="108.76" y="-62" font-family="Helvetica,sans-Serif" font-size="10.00">chrono</text>
</a>
</g>
</g>
<!-- Node5&#45;&gt;Node6 -->
<g id="edge6_Node000005_Node000006" class="edge">
<title>Node5&#45;&gt;Node6</title>
<g id="a_edge6_Node000005_Node000006"><a xlink:title=" ">
<path fill="none" stroke="#63b8ff" d="M212.83,-109.98C192.71,-101.38 161.38,-87.99 138.35,-78.15"/>
<polygon fill="#63b8ff" stroke="#63b8ff" points="139.61,-74.88 129.04,-74.17 136.86,-81.32 139.61,-74.88"/>
</a>
</g>
</g>
<!-- Node7 -->
<g id="Node000007" class="node">
<title>Node7</title>
<g id="a_Node000007"><a xlink:title=" ">
<polygon fill="#e0e0e0" stroke="#999999" points="218.76,-19 180.76,-19 180.76,0 218.76,0 218.76,-19"/>
<text text-anchor="middle" x="199.76" y="-7" font-family="Helvetica,sans-Serif" font-size="10.00">map</text>
</a>
</g>
</g>
<!-- Node5&#45;&gt;Node7 -->
<g id="edge7_Node000005_Node000007" class="edge">
<title>Node5&#45;&gt;Node7</title>
<g id="a_edge7_Node000005_Node000007"><a xlink:title=" ">
<path fill="none" stroke="#63b8ff" d="M217.03,-109.88C204.88,-102.23 188.95,-89.83 181.76,-74 174.95,-59.04 181.43,-40.91 188.43,-27.86"/>
<polygon fill="#63b8ff" stroke="#63b8ff" points="191.59,-29.39 193.68,-19 185.57,-25.82 191.59,-29.39"/>
</a>
</g>
</g>
<!-- Node8 -->
<g id="Node000008" class="node">
<title>Node8</title>
<g id="a_Node000008"><a xlink:title=" ">
<polygon fill="#e0e0e0" stroke="#999999" points="286.76,-19 242.76,-19 242.76,0 286.76,0 286.76,-19"/>
<text text-anchor="middle" x="264.76" y="-7" font-family="Helvetica,sans-Serif" font-size="10.00">string</text>
</a>
</g>
</g>
<!-- Node5&#45;&gt;Node8 -->
<g id="edge8_Node000005_Node000008" class="edge">
<title>Node5&#45;&gt;Node8</title>
<g id="a_edge8_Node000005_Node000008"><a xlink:title=" ">
<path fill="none" stroke="#63b8ff" d="M248.79,-109.95C261.17,-102.35 277.4,-89.97 284.76,-74 291.68,-58.96 284.6,-40.87 277.01,-27.85"/>
<polygon fill="#63b8ff" stroke="#63b8ff" points="279.93,-25.92 271.59,-19.39 274.03,-29.7 279.93,-25.92"/>
</a>
</g>
</g>
<!-- Node9 -->
<g id="Node000009" class="node">
<title>Node9</title>
<g id="a_Node000009"><a xlink:href="color_8hpp.html" target="_top" xlink:title=" ">
<polygon fill="white" stroke="#666666" points="275.26,-74 190.26,-74 190.26,-55 275.26,-55 275.26,-74"/>
<text text-anchor="middle" x="232.76" y="-62" font-family="Helvetica,sans-Serif" font-size="10.00">utils/color.hpp</text>
</a>
</g>
</g>
<!-- Node5&#45;&gt;Node9 -->
<g id="edge9_Node000005_Node000009" class="edge">
<title>Node5&#45;&gt;Node9</title>
<g id="a_edge9_Node000005_Node000009"><a xlink:title=" ">
<path fill="none" stroke="#63b8ff" d="M232.76,-109.75C232.76,-102.8 232.76,-92.85 232.76,-84.13"/>
<polygon fill="#63b8ff" stroke="#63b8ff" points="236.26,-84.09 232.76,-74.09 229.26,-84.09 236.26,-84.09"/>
</a>
</g>
</g>
<!-- Node10 -->
<g id="Node000010" class="node">
<title>Node10</title>
<g id="a_Node000010"><a xlink:href="position_8hpp.html" target="_top" xlink:title=" ">
<polygon fill="white" stroke="#666666" points="433.26,-74 332.26,-74 332.26,-55 433.26,-55 433.26,-74"/>
<text text-anchor="middle" x="382.76" y="-62" font-family="Helvetica,sans-Serif" font-size="10.00">utils/position.hpp</text>
</a>
</g>
</g>
<!-- Node5&#45;&gt;Node10 -->
<g id="edge12_Node000005_Node000010" class="edge">
<title>Node5&#45;&gt;Node10</title>
<g id="a_edge12_Node000005_Node000010"><a xlink:title=" ">
<path fill="none" stroke="#63b8ff" d="M256.86,-109.98C281.64,-101.23 320.46,-87.51 348.44,-77.62"/>
<polygon fill="#63b8ff" stroke="#63b8ff" points="349.96,-80.8 358.22,-74.17 347.62,-74.2 349.96,-80.8"/>
</a>
</g>
</g>
<!-- Node9&#45;&gt;Node7 -->
<g id="edge10_Node000009_Node000007" class="edge">
<title>Node9&#45;&gt;Node7</title>
<g id="a_edge10_Node000009_Node000007"><a xlink:title=" ">
<path fill="none" stroke="#63b8ff" d="M227.31,-54.75C222.74,-47.42 216.09,-36.73 210.46,-27.7"/>
<polygon fill="#63b8ff" stroke="#63b8ff" points="213.36,-25.73 205.1,-19.09 207.42,-29.43 213.36,-25.73"/>
</a>
</g>
</g>
<!-- Node9&#45;&gt;Node8 -->
<g id="edge11_Node000009_Node000008" class="edge">
<title>Node9&#45;&gt;Node8</title>
<g id="a_edge11_Node000009_Node000008"><a xlink:title=" ">
<path fill="none" stroke="#63b8ff" d="M238.04,-54.75C242.47,-47.42 248.92,-36.73 254.37,-27.7"/>
<polygon fill="#63b8ff" stroke="#63b8ff" points="257.4,-29.46 259.57,-19.09 251.41,-25.84 257.4,-29.46"/>
</a>
</g>
</g>
<!-- Node11&#45;&gt;Node2 -->
<g id="edge14_Node000011_Node000002" class="edge">
<title>Node11&#45;&gt;Node2</title>
<g id="a_edge14_Node000011_Node000002"><a xlink:title=" ">
<path fill="none" stroke="#63b8ff" d="M84.76,-164.84C84.76,-157.21 84.76,-147.7 84.76,-139.45"/>
<polygon fill="#63b8ff" stroke="#63b8ff" points="88.26,-139.27 84.76,-129.27 81.26,-139.27 88.26,-139.27"/>
</a>
</g>
</g>
<!-- Node11&#45;&gt;Node5 -->
<g id="edge15_Node000011_Node000005" class="edge">
<title>Node11&#45;&gt;Node5</title>
<g id="a_edge15_Node000011_Node000005"><a xlink:title=" ">
<path fill="none" stroke="#63b8ff" d="M120.21,-164.99C144.9,-155.23 177.54,-142.33 201.31,-132.93"/>
<polygon fill="#63b8ff" stroke="#63b8ff" points="202.89,-136.07 210.9,-129.14 200.31,-129.56 202.89,-136.07"/>
</a>
</g>
</g>
</g>
</svg>
