<?xml version="1.0" encoding="UTF-8" standalone="no"?>
<!DOCTYPE svg PUBLIC "-//W3C//DTD SVG 1.1//EN"
 "http://www.w3.org/Graphics/SVG/1.1/DTD/svg11.dtd">
<!-- Generated by graphviz version 2.43.0 (0)
 -->
<!-- Title: loc_map/include/kalman_filter/ekf.hpp Pages: 1 -->
<svg width="403pt" height="274pt"
 viewBox="0.00 0.00 402.79 274.00" xmlns="http://www.w3.org/2000/svg" xmlns:xlink="http://www.w3.org/1999/xlink">
<g id="graph0" class="graph" transform="scale(1 1) rotate(0) translate(4 270)">
<title>loc_map/include/kalman_filter/ekf.hpp</title>
<polygon fill="white" stroke="transparent" points="-4,4 -4,-270 398.79,-270 398.79,4 -4,4"/>
<!-- Node1 -->
<g id="node1" class="node">
<title>Node1</title>
<g id="a_node1"><a xlink:title=" ">
<polygon fill="#bfbfbf" stroke="black" points="148.79,-235.5 148.79,-265.5 270.79,-265.5 270.79,-235.5 148.79,-235.5"/>
<text text-anchor="start" x="156.79" y="-253.5" font-family="Helvetica,sans-Serif" font-size="10.00">loc_map/include/kalman</text>
<text text-anchor="middle" x="209.79" y="-242.5" font-family="Helvetica,sans-Serif" font-size="10.00">_filter/ekf.hpp</text>
</a>
</g>
</g>
<!-- Node2 -->
<g id="node2" class="node">
<title>Node2</title>
<g id="a_node2"><a xlink:title=" ">
<polygon fill="white" stroke="#bfbfbf" points="40.29,-112.5 40.29,-131.5 113.29,-131.5 113.29,-112.5 40.29,-112.5"/>
<text text-anchor="middle" x="76.79" y="-119.5" font-family="Helvetica,sans-Serif" font-size="10.00">Eigen/Dense</text>
</a>
</g>
</g>
<!-- Node1&#45;&gt;Node2 -->
<g id="edge1" class="edge">
<title>Node1&#45;&gt;Node2</title>
<path fill="none" stroke="midnightblue" d="M148.75,-242.66C95.25,-235.26 23.33,-221.41 5.79,-199 -2.7,-188.15 -0.85,-180.07 5.79,-168 13.68,-153.66 28.28,-143.25 42.19,-136.08"/>
<polygon fill="midnightblue" stroke="midnightblue" points="44.08,-139.06 51.63,-131.62 41.09,-132.73 44.08,-139.06"/>
</g>
<!-- Node3 -->
<g id="node3" class="node">
<title>Node3</title>
<g id="a_node3"><a xlink:title=" ">
<polygon fill="white" stroke="#bfbfbf" points="317.79,-174 317.79,-193 361.79,-193 361.79,-174 317.79,-174"/>
<text text-anchor="middle" x="339.79" y="-181" font-family="Helvetica,sans-Serif" font-size="10.00">vector</text>
</a>
</g>
</g>
<!-- Node1&#45;&gt;Node3 -->
<g id="edge2" class="edge">
<title>Node1&#45;&gt;Node3</title>
<path fill="none" stroke="midnightblue" d="M238,-235.4C260.51,-224.14 291.79,-208.5 313.72,-197.54"/>
<polygon fill="midnightblue" stroke="midnightblue" points="315.4,-200.61 322.78,-193.01 312.27,-194.35 315.4,-200.61"/>
</g>
<!-- Node4 -->
<g id="node4" class="node">
<title>Node4</title>
<g id="a_node4"><a xlink:href="motion__models_8hpp.html" target="_top" xlink:title=" ">
<polygon fill="white" stroke="black" points="157.79,-168.5 157.79,-198.5 261.79,-198.5 261.79,-168.5 157.79,-168.5"/>
<text text-anchor="start" x="165.79" y="-186.5" font-family="Helvetica,sans-Serif" font-size="10.00">kalman_filter/motion</text>
<text text-anchor="middle" x="209.79" y="-175.5" font-family="Helvetica,sans-Serif" font-size="10.00">_models.hpp</text>
</a>
</g>
</g>
<!-- Node1&#45;&gt;Node4 -->
<g id="edge3" class="edge">
<title>Node1&#45;&gt;Node4</title>
<path fill="none" stroke="midnightblue" d="M209.79,-235.4C209.79,-227.64 209.79,-217.81 209.79,-208.86"/>
<polygon fill="midnightblue" stroke="midnightblue" points="213.29,-208.58 209.79,-198.58 206.29,-208.58 213.29,-208.58"/>
</g>
<!-- Node5 -->
<g id="node5" class="node">
<title>Node5</title>
<g id="a_node5"><a xlink:href="data__structures_8hpp.html" target="_top" xlink:title=" ">
<polygon fill="white" stroke="black" points="138.29,-112.5 138.29,-131.5 281.29,-131.5 281.29,-112.5 138.29,-112.5"/>
<text text-anchor="middle" x="209.79" y="-119.5" font-family="Helvetica,sans-Serif" font-size="10.00">loc_map/data_structures.hpp</text>
</a>
</g>
</g>
<!-- Node1&#45;&gt;Node5 -->
<g id="edge16" class="edge">
<title>Node1&#45;&gt;Node5</title>
<path fill="none" stroke="midnightblue" d="M235.93,-235.37C249,-226.76 263.53,-214.43 270.79,-199 276.65,-186.53 277,-180.3 270.79,-168 263.98,-154.52 251.02,-144.08 238.79,-136.67"/>
<polygon fill="midnightblue" stroke="midnightblue" points="240.13,-133.41 229.7,-131.59 236.72,-139.52 240.13,-133.41"/>
</g>
<!-- Node11 -->
<g id="node11" class="node">
<title>Node11</title>
<g id="a_node11"><a xlink:href="observation__models_8hpp.html" target="_top" xlink:title=" ">
<polygon fill="white" stroke="black" points="14.29,-168.5 14.29,-198.5 139.29,-198.5 139.29,-168.5 14.29,-168.5"/>
<text text-anchor="start" x="22.29" y="-186.5" font-family="Helvetica,sans-Serif" font-size="10.00">kalman_filter/observation</text>
<text text-anchor="middle" x="76.79" y="-175.5" font-family="Helvetica,sans-Serif" font-size="10.00">_models.hpp</text>
</a>
</g>
</g>
<!-- Node1&#45;&gt;Node11 -->
<g id="edge13" class="edge">
<title>Node1&#45;&gt;Node11</title>
<path fill="none" stroke="midnightblue" d="M180.93,-235.4C161.5,-225.9 135.67,-213.28 114.6,-202.98"/>
<polygon fill="midnightblue" stroke="midnightblue" points="116.11,-199.82 105.59,-198.58 113.04,-206.11 116.11,-199.82"/>
</g>
<!-- Node4&#45;&gt;Node2 -->
<g id="edge4" class="edge">
<title>Node4&#45;&gt;Node2</title>
<path fill="none" stroke="midnightblue" d="M178.27,-168.4C156.16,-158.51 126.82,-145.38 105.38,-135.79"/>
<polygon fill="midnightblue" stroke="midnightblue" points="106.7,-132.55 96.14,-131.66 103.84,-138.94 106.7,-132.55"/>
</g>
<!-- Node4&#45;&gt;Node5 -->
<g id="edge5" class="edge">
<title>Node4&#45;&gt;Node5</title>
<path fill="none" stroke="midnightblue" d="M209.79,-168.4C209.79,-160.47 209.79,-150.46 209.79,-141.86"/>
<polygon fill="midnightblue" stroke="midnightblue" points="213.29,-141.66 209.79,-131.66 206.29,-141.66 213.29,-141.66"/>
</g>
<!-- Node6 -->
<g id="node6" class="node">
<title>Node6</title>
<g id="a_node6"><a xlink:title=" ">
<polygon fill="white" stroke="#bfbfbf" points="68.79,-56.5 68.79,-75.5 114.79,-75.5 114.79,-56.5 68.79,-56.5"/>
<text text-anchor="middle" x="91.79" y="-63.5" font-family="Helvetica,sans-Serif" font-size="10.00">chrono</text>
</a>
</g>
</g>
<!-- Node5&#45;&gt;Node6 -->
<g id="edge6" class="edge">
<title>Node5&#45;&gt;Node6</title>
<path fill="none" stroke="midnightblue" d="M191.09,-112.44C171.85,-103.64 141.64,-89.81 119.59,-79.72"/>
<polygon fill="midnightblue" stroke="midnightblue" points="120.95,-76.5 110.4,-75.52 118.04,-82.86 120.95,-76.5"/>
</g>
<!-- Node7 -->
<g id="node7" class="node">
<title>Node7</title>
<g id="a_node7"><a xlink:title=" ">
<polygon fill="white" stroke="#bfbfbf" points="161.29,-0.5 161.29,-19.5 196.29,-19.5 196.29,-0.5 161.29,-0.5"/>
<text text-anchor="middle" x="178.79" y="-7.5" font-family="Helvetica,sans-Serif" font-size="10.00">map</text>
</a>
</g>
</g>
<!-- Node5&#45;&gt;Node7 -->
<g id="edge7" class="edge">
<title>Node5&#45;&gt;Node7</title>
<path fill="none" stroke="midnightblue" d="M195.71,-112.26C184.44,-104.35 169.44,-91.58 162.79,-76 156.24,-60.67 162.06,-42.11 168.43,-28.76"/>
<polygon fill="midnightblue" stroke="midnightblue" points="171.64,-30.17 173.23,-19.7 165.46,-26.9 171.64,-30.17"/>
</g>
<!-- Node8 -->
<g id="node8" class="node">
<title>Node8</title>
<g id="a_node8"><a xlink:title=" ">
<polygon fill="white" stroke="#bfbfbf" points="219.29,-0.5 219.29,-19.5 260.29,-19.5 260.29,-0.5 219.29,-0.5"/>
<text text-anchor="middle" x="239.79" y="-7.5" font-family="Helvetica,sans-Serif" font-size="10.00">string</text>
</a>
</g>
</g>
<!-- Node5&#45;&gt;Node8 -->
<g id="edge8" class="edge">
<title>Node5&#45;&gt;Node8</title>
<path fill="none" stroke="midnightblue" d="M224.16,-112.33C235.67,-104.47 250.98,-91.72 257.79,-76 264.47,-60.59 258.01,-42.04 251.04,-28.71"/>
<polygon fill="midnightblue" stroke="midnightblue" points="253.85,-26.58 245.82,-19.67 247.79,-30.08 253.85,-26.58"/>
</g>
<!-- Node9 -->
<g id="node9" class="node">
<title>Node9</title>
<g id="a_node9"><a xlink:href="color_8hpp.html" target="_top" xlink:title=" ">
<polygon fill="white" stroke="black" points="171.29,-56.5 171.29,-75.5 248.29,-75.5 248.29,-56.5 171.29,-56.5"/>
<text text-anchor="middle" x="209.79" y="-63.5" font-family="Helvetica,sans-Serif" font-size="10.00">utils/color.hpp</text>
</a>
</g>
</g>
<!-- Node5&#45;&gt;Node9 -->
<g id="edge9" class="edge">
<title>Node5&#45;&gt;Node9</title>
<path fill="none" stroke="midnightblue" d="M209.79,-112.08C209.79,-105.01 209.79,-94.86 209.79,-85.99"/>
<polygon fill="midnightblue" stroke="midnightblue" points="213.29,-85.75 209.79,-75.75 206.29,-85.75 213.29,-85.75"/>
</g>
<!-- Node10 -->
<g id="node10" class="node">
<title>Node10</title>
<g id="a_node10"><a xlink:href="position_8hpp.html" target="_top" xlink:title=" ">
<polygon fill="white" stroke="black" points="304.79,-56.5 304.79,-75.5 394.79,-75.5 394.79,-56.5 304.79,-56.5"/>
<text text-anchor="middle" x="349.79" y="-63.5" font-family="Helvetica,sans-Serif" font-size="10.00">utils/position.hpp</text>
</a>
</g>
</g>
<!-- Node5&#45;&gt;Node10 -->
<g id="edge12" class="edge">
<title>Node5&#45;&gt;Node10</title>
<path fill="none" stroke="midnightblue" d="M231.97,-112.44C255.22,-103.48 291.94,-89.31 318.21,-79.18"/>
<polygon fill="midnightblue" stroke="midnightblue" points="319.64,-82.38 327.71,-75.52 317.12,-75.85 319.64,-82.38"/>
</g>
<!-- Node9&#45;&gt;Node7 -->
<g id="edge10" class="edge">
<title>Node9&#45;&gt;Node7</title>
<path fill="none" stroke="midnightblue" d="M204.67,-56.08C200.38,-48.61 194.13,-37.72 188.85,-28.52"/>
<polygon fill="midnightblue" stroke="midnightblue" points="191.83,-26.68 183.81,-19.75 185.76,-30.17 191.83,-26.68"/>
</g>
<!-- Node9&#45;&gt;Node8 -->
<g id="edge11" class="edge">
<title>Node9&#45;&gt;Node8</title>
<path fill="none" stroke="midnightblue" d="M214.74,-56.08C218.89,-48.61 224.94,-37.72 230.06,-28.52"/>
<polygon fill="midnightblue" stroke="midnightblue" points="233.13,-30.19 234.93,-19.75 227.01,-26.79 233.13,-30.19"/>
</g>
<!-- Node11&#45;&gt;Node2 -->
<g id="edge14" class="edge">
<title>Node11&#45;&gt;Node2</title>
<path fill="none" stroke="midnightblue" d="M76.79,-168.4C76.79,-160.47 76.79,-150.46 76.79,-141.86"/>
<polygon fill="midnightblue" stroke="midnightblue" points="80.29,-141.66 76.79,-131.66 73.29,-141.66 80.29,-141.66"/>
</g>
<!-- Node11&#45;&gt;Node5 -->
<g id="edge15" class="edge">
<title>Node11&#45;&gt;Node5</title>
<path fill="none" stroke="midnightblue" d="M108.31,-168.4C130.43,-158.51 159.76,-145.38 181.2,-135.79"/>
<polygon fill="midnightblue" stroke="midnightblue" points="182.74,-138.94 190.44,-131.66 179.88,-132.55 182.74,-138.94"/>
</g>
</g>
</svg>
