<?xml version="1.0" encoding="UTF-8" standalone="no"?>
<!DOCTYPE svg PUBLIC "-//W3C//DTD SVG 1.1//EN"
 "http://www.w3.org/Graphics/SVG/1.1/DTD/svg11.dtd">
<!-- Generated by graphviz version 2.43.0 (0)
 -->
<!-- Title: loc_map/src/kalman_filter/ekf.cpp Pages: 1 -->
<svg width="491pt" height="330pt"
 viewBox="0.00 0.00 490.50 330.00" xmlns="http://www.w3.org/2000/svg" xmlns:xlink="http://www.w3.org/1999/xlink">
<g id="graph0" class="graph" transform="scale(1 1) rotate(0) translate(4 326)">
<title>loc_map/src/kalman_filter/ekf.cpp</title>
<polygon fill="white" stroke="transparent" points="-4,4 -4,-326 486.5,-326 486.5,4 -4,4"/>
<!-- Node1 -->
<g id="node1" class="node">
<title>Node1</title>
<g id="a_node1"><a xlink:title=" ">
<polygon fill="#bfbfbf" stroke="black" points="300.5,-291.5 300.5,-321.5 404.5,-321.5 404.5,-291.5 300.5,-291.5"/>
<text text-anchor="start" x="308.5" y="-309.5" font-family="Helvetica,sans-Serif" font-size="10.00">loc_map/src/kalman</text>
<text text-anchor="middle" x="352.5" y="-298.5" font-family="Helvetica,sans-Serif" font-size="10.00">_filter/ekf.cpp</text>
</a>
</g>
</g>
<!-- Node2 -->
<g id="node2" class="node">
<title>Node2</title>
<g id="a_node2"><a xlink:href="ekf_8hpp.html" target="_top" xlink:title=" ">
<polygon fill="white" stroke="black" points="204,-235.5 204,-254.5 311,-254.5 311,-235.5 204,-235.5"/>
<text text-anchor="middle" x="257.5" y="-242.5" font-family="Helvetica,sans-Serif" font-size="10.00">kalman_filter/ekf.hpp</text>
</a>
</g>
</g>
<!-- Node1&#45;&gt;Node2 -->
<g id="edge1" class="edge">
<title>Node1&#45;&gt;Node2</title>
<path fill="none" stroke="midnightblue" d="M329.99,-291.4C314.9,-281.95 295.11,-269.56 280.03,-260.11"/>
<polygon fill="midnightblue" stroke="midnightblue" points="281.66,-257 271.32,-254.66 277.94,-262.93 281.66,-257"/>
</g>
<!-- Node3 -->
<g id="node3" class="node">
<title>Node3</title>
<g id="a_node3"><a xlink:title=" ">
<polygon fill="white" stroke="#bfbfbf" points="0,-112.5 0,-131.5 73,-131.5 73,-112.5 0,-112.5"/>
<text text-anchor="middle" x="36.5" y="-119.5" font-family="Helvetica,sans-Serif" font-size="10.00">Eigen/Dense</text>
</a>
</g>
</g>
<!-- Node1&#45;&gt;Node3 -->
<g id="edge18" class="edge">
<title>Node1&#45;&gt;Node3</title>
<path fill="none" stroke="midnightblue" d="M300.21,-297.15C212.25,-281.93 40.8,-246.76 5.5,-199 -8.06,-180.65 7.46,-155.53 21,-139.28"/>
<polygon fill="midnightblue" stroke="midnightblue" points="23.72,-141.49 27.73,-131.68 18.48,-136.85 23.72,-141.49"/>
</g>
<!-- Node6 -->
<g id="node6" class="node">
<title>Node6</title>
<g id="a_node6"><a xlink:href="data__structures_8hpp.html" target="_top" xlink:title=" ">
<polygon fill="white" stroke="black" points="214,-112.5 214,-131.5 357,-131.5 357,-112.5 214,-112.5"/>
<text text-anchor="middle" x="285.5" y="-119.5" font-family="Helvetica,sans-Serif" font-size="10.00">loc_map/data_structures.hpp</text>
</a>
</g>
</g>
<!-- Node1&#45;&gt;Node6 -->
<g id="edge20" class="edge">
<title>Node1&#45;&gt;Node6</title>
<path fill="none" stroke="midnightblue" d="M357.95,-291.1C366.97,-264.75 381.88,-207.79 359.5,-168 351.28,-153.38 336.17,-142.95 321.74,-135.85"/>
<polygon fill="midnightblue" stroke="midnightblue" points="322.98,-132.57 312.43,-131.64 320.1,-138.95 322.98,-132.57"/>
</g>
<!-- Node13 -->
<g id="node13" class="node">
<title>Node13</title>
<g id="a_node13"><a xlink:title=" ">
<polygon fill="white" stroke="#bfbfbf" points="428.5,-235.5 428.5,-254.5 482.5,-254.5 482.5,-235.5 428.5,-235.5"/>
<text text-anchor="middle" x="455.5" y="-242.5" font-family="Helvetica,sans-Serif" font-size="10.00">iostream</text>
</a>
</g>
</g>
<!-- Node1&#45;&gt;Node13 -->
<g id="edge19" class="edge">
<title>Node1&#45;&gt;Node13</title>
<path fill="none" stroke="midnightblue" d="M376.91,-291.4C393.42,-281.86 415.12,-269.32 431.54,-259.84"/>
<polygon fill="midnightblue" stroke="midnightblue" points="433.6,-262.69 440.51,-254.66 430.1,-256.63 433.6,-262.69"/>
</g>
<!-- Node2&#45;&gt;Node3 -->
<g id="edge2" class="edge">
<title>Node2&#45;&gt;Node3</title>
<path fill="none" stroke="midnightblue" d="M203.74,-241.76C139.87,-237.83 38.96,-227.22 15.5,-199 1.47,-182.12 13.25,-156.58 24.01,-139.84"/>
<polygon fill="midnightblue" stroke="midnightblue" points="26.93,-141.78 29.72,-131.56 21.16,-137.81 26.93,-141.78"/>
</g>
<!-- Node4 -->
<g id="node4" class="node">
<title>Node4</title>
<g id="a_node4"><a xlink:title=" ">
<polygon fill="white" stroke="#bfbfbf" points="290.5,-174 290.5,-193 334.5,-193 334.5,-174 290.5,-174"/>
<text text-anchor="middle" x="312.5" y="-181" font-family="Helvetica,sans-Serif" font-size="10.00">vector</text>
</a>
</g>
</g>
<!-- Node2&#45;&gt;Node4 -->
<g id="edge3" class="edge">
<title>Node2&#45;&gt;Node4</title>
<path fill="none" stroke="midnightblue" d="M265.38,-235.48C273.79,-226.37 287.32,-211.74 297.73,-200.48"/>
<polygon fill="midnightblue" stroke="midnightblue" points="300.42,-202.73 304.63,-193.01 295.28,-197.98 300.42,-202.73"/>
</g>
<!-- Node5 -->
<g id="node5" class="node">
<title>Node5</title>
<g id="a_node5"><a xlink:href="motion__models_8hpp.html" target="_top" xlink:title=" ">
<polygon fill="white" stroke="black" points="24.5,-168.5 24.5,-198.5 128.5,-198.5 128.5,-168.5 24.5,-168.5"/>
<text text-anchor="start" x="32.5" y="-186.5" font-family="Helvetica,sans-Serif" font-size="10.00">kalman_filter/motion</text>
<text text-anchor="middle" x="76.5" y="-175.5" font-family="Helvetica,sans-Serif" font-size="10.00">_models.hpp</text>
</a>
</g>
</g>
<!-- Node2&#45;&gt;Node5 -->
<g id="edge4" class="edge">
<title>Node2&#45;&gt;Node5</title>
<path fill="none" stroke="midnightblue" d="M231.57,-235.48C204.88,-226.7 162.55,-212.79 128.86,-201.71"/>
<polygon fill="midnightblue" stroke="midnightblue" points="129.75,-198.32 119.16,-198.52 127.56,-204.97 129.75,-198.32"/>
</g>
<!-- Node2&#45;&gt;Node6 -->
<g id="edge17" class="edge">
<title>Node2&#45;&gt;Node6</title>
<path fill="none" stroke="midnightblue" d="M291.68,-235.49C310.49,-228.88 332.24,-217.6 343.5,-199 350.64,-187.21 349.56,-180.37 343.5,-168 336.98,-154.68 324.4,-144.18 312.63,-136.68"/>
<polygon fill="midnightblue" stroke="midnightblue" points="314.28,-133.59 303.89,-131.53 310.73,-139.62 314.28,-133.59"/>
</g>
<!-- Node12 -->
<g id="node12" class="node">
<title>Node12</title>
<g id="a_node12"><a xlink:href="observation__models_8hpp.html" target="_top" xlink:title=" ">
<polygon fill="white" stroke="black" points="147,-168.5 147,-198.5 272,-198.5 272,-168.5 147,-168.5"/>
<text text-anchor="start" x="155" y="-186.5" font-family="Helvetica,sans-Serif" font-size="10.00">kalman_filter/observation</text>
<text text-anchor="middle" x="209.5" y="-175.5" font-family="Helvetica,sans-Serif" font-size="10.00">_models.hpp</text>
</a>
</g>
</g>
<!-- Node2&#45;&gt;Node12 -->
<g id="edge14" class="edge">
<title>Node2&#45;&gt;Node12</title>
<path fill="none" stroke="midnightblue" d="M250.62,-235.48C244.55,-227.94 235.42,-216.63 227.3,-206.57"/>
<polygon fill="midnightblue" stroke="midnightblue" points="229.82,-204.11 220.81,-198.52 224.37,-208.5 229.82,-204.11"/>
</g>
<!-- Node5&#45;&gt;Node3 -->
<g id="edge5" class="edge">
<title>Node5&#45;&gt;Node3</title>
<path fill="none" stroke="midnightblue" d="M67.02,-168.4C61.33,-159.93 54.05,-149.1 48.02,-140.14"/>
<polygon fill="midnightblue" stroke="midnightblue" points="50.8,-138 42.32,-131.66 44.99,-141.91 50.8,-138"/>
</g>
<!-- Node5&#45;&gt;Node6 -->
<g id="edge6" class="edge">
<title>Node5&#45;&gt;Node6</title>
<path fill="none" stroke="midnightblue" d="M125.77,-168.47C162.45,-158.03 211.88,-143.96 245.99,-134.25"/>
<polygon fill="midnightblue" stroke="midnightblue" points="246.96,-137.61 255.62,-131.51 245.04,-130.88 246.96,-137.61"/>
</g>
<!-- Node7 -->
<g id="node7" class="node">
<title>Node7</title>
<g id="a_node7"><a xlink:title=" ">
<polygon fill="white" stroke="#bfbfbf" points="144.5,-56.5 144.5,-75.5 190.5,-75.5 190.5,-56.5 144.5,-56.5"/>
<text text-anchor="middle" x="167.5" y="-63.5" font-family="Helvetica,sans-Serif" font-size="10.00">chrono</text>
</a>
</g>
</g>
<!-- Node6&#45;&gt;Node7 -->
<g id="edge7" class="edge">
<title>Node6&#45;&gt;Node7</title>
<path fill="none" stroke="midnightblue" d="M266.8,-112.44C247.56,-103.64 217.35,-89.81 195.3,-79.72"/>
<polygon fill="midnightblue" stroke="midnightblue" points="196.66,-76.5 186.11,-75.52 193.75,-82.86 196.66,-76.5"/>
</g>
<!-- Node8 -->
<g id="node8" class="node">
<title>Node8</title>
<g id="a_node8"><a xlink:title=" ">
<polygon fill="white" stroke="#bfbfbf" points="237,-0.5 237,-19.5 272,-19.5 272,-0.5 237,-0.5"/>
<text text-anchor="middle" x="254.5" y="-7.5" font-family="Helvetica,sans-Serif" font-size="10.00">map</text>
</a>
</g>
</g>
<!-- Node6&#45;&gt;Node8 -->
<g id="edge8" class="edge">
<title>Node6&#45;&gt;Node8</title>
<path fill="none" stroke="midnightblue" d="M271.42,-112.26C260.15,-104.35 245.15,-91.58 238.5,-76 231.95,-60.67 237.77,-42.11 244.14,-28.76"/>
<polygon fill="midnightblue" stroke="midnightblue" points="247.35,-30.17 248.93,-19.7 241.17,-26.9 247.35,-30.17"/>
</g>
<!-- Node9 -->
<g id="node9" class="node">
<title>Node9</title>
<g id="a_node9"><a xlink:title=" ">
<polygon fill="white" stroke="#bfbfbf" points="295,-0.5 295,-19.5 336,-19.5 336,-0.5 295,-0.5"/>
<text text-anchor="middle" x="315.5" y="-7.5" font-family="Helvetica,sans-Serif" font-size="10.00">string</text>
</a>
</g>
</g>
<!-- Node6&#45;&gt;Node9 -->
<g id="edge9" class="edge">
<title>Node6&#45;&gt;Node9</title>
<path fill="none" stroke="midnightblue" d="M299.87,-112.33C311.38,-104.47 326.69,-91.72 333.5,-76 340.18,-60.59 333.72,-42.04 326.75,-28.71"/>
<polygon fill="midnightblue" stroke="midnightblue" points="329.56,-26.58 321.53,-19.67 323.5,-30.08 329.56,-26.58"/>
</g>
<!-- Node10 -->
<g id="node10" class="node">
<title>Node10</title>
<g id="a_node10"><a xlink:href="color_8hpp.html" target="_top" xlink:title=" ">
<polygon fill="white" stroke="black" points="247,-56.5 247,-75.5 324,-75.5 324,-56.5 247,-56.5"/>
<text text-anchor="middle" x="285.5" y="-63.5" font-family="Helvetica,sans-Serif" font-size="10.00">utils/color.hpp</text>
</a>
</g>
</g>
<!-- Node6&#45;&gt;Node10 -->
<g id="edge10" class="edge">
<title>Node6&#45;&gt;Node10</title>
<path fill="none" stroke="midnightblue" d="M285.5,-112.08C285.5,-105.01 285.5,-94.86 285.5,-85.99"/>
<polygon fill="midnightblue" stroke="midnightblue" points="289,-85.75 285.5,-75.75 282,-85.75 289,-85.75"/>
</g>
<!-- Node11 -->
<g id="node11" class="node">
<title>Node11</title>
<g id="a_node11"><a xlink:href="position_8hpp.html" target="_top" xlink:title=" ">
<polygon fill="white" stroke="black" points="380.5,-56.5 380.5,-75.5 470.5,-75.5 470.5,-56.5 380.5,-56.5"/>
<text text-anchor="middle" x="425.5" y="-63.5" font-family="Helvetica,sans-Serif" font-size="10.00">utils/position.hpp</text>
</a>
</g>
</g>
<!-- Node6&#45;&gt;Node11 -->
<g id="edge13" class="edge">
<title>Node6&#45;&gt;Node11</title>
<path fill="none" stroke="midnightblue" d="M307.68,-112.44C330.93,-103.48 367.65,-89.31 393.92,-79.18"/>
<polygon fill="midnightblue" stroke="midnightblue" points="395.35,-82.38 403.42,-75.52 392.83,-75.85 395.35,-82.38"/>
</g>
<!-- Node10&#45;&gt;Node8 -->
<g id="edge11" class="edge">
<title>Node10&#45;&gt;Node8</title>
<path fill="none" stroke="midnightblue" d="M280.38,-56.08C276.09,-48.61 269.84,-37.72 264.56,-28.52"/>
<polygon fill="midnightblue" stroke="midnightblue" points="267.54,-26.68 259.52,-19.75 261.47,-30.17 267.54,-26.68"/>
</g>
<!-- Node10&#45;&gt;Node9 -->
<g id="edge12" class="edge">
<title>Node10&#45;&gt;Node9</title>
<path fill="none" stroke="midnightblue" d="M290.45,-56.08C294.6,-48.61 300.65,-37.72 305.77,-28.52"/>
<polygon fill="midnightblue" stroke="midnightblue" points="308.84,-30.19 310.64,-19.75 302.72,-26.79 308.84,-30.19"/>
</g>
<!-- Node12&#45;&gt;Node3 -->
<g id="edge15" class="edge">
<title>Node12&#45;&gt;Node3</title>
<path fill="none" stroke="midnightblue" d="M168.5,-168.4C138.87,-158.21 99.27,-144.59 71.2,-134.93"/>
<polygon fill="midnightblue" stroke="midnightblue" points="72.02,-131.51 61.42,-131.57 69.74,-138.13 72.02,-131.51"/>
</g>
<!-- Node12&#45;&gt;Node6 -->
<g id="edge16" class="edge">
<title>Node12&#45;&gt;Node6</title>
<path fill="none" stroke="midnightblue" d="M227.51,-168.4C239.24,-159.22 254.52,-147.26 266.44,-137.92"/>
<polygon fill="midnightblue" stroke="midnightblue" points="268.72,-140.58 274.44,-131.66 264.41,-135.07 268.72,-140.58"/>
</g>
</g>
</svg>
