<?xml version="1.0" encoding="UTF-8" standalone="no"?>
<!DOCTYPE svg PUBLIC "-//W3C//DTD SVG 1.1//EN"
 "http://www.w3.org/Graphics/SVG/1.1/DTD/svg11.dtd">
<!-- Generated by graphviz version 2.43.0 (0)
 -->
<!-- Title: src/loc_map/src/kalman_filter/ekf.cpp Pages: 1 -->
<svg width="647pt" height="324pt"
 viewBox="0.00 0.00 646.84 324.00" xmlns="http://www.w3.org/2000/svg" xmlns:xlink="http://www.w3.org/1999/xlink">
<g id="graph0" class="graph" transform="scale(1 1) rotate(0) translate(4 320)">
<title>src/loc_map/src/kalman_filter/ekf.cpp</title>
<!-- Node1 -->
<g id="Node000001" class="node">
<title>Node1</title>
<g id="a_Node000001"><a xlink:title=" ">
<polygon fill="#999999" stroke="#666666" points="498.84,-316 367.84,-316 367.84,-286 498.84,-286 498.84,-316"/>
<text text-anchor="start" x="375.84" y="-304" font-family="Helvetica,sans-Serif" font-size="10.00">src/loc_map/src/kalman</text>
<text text-anchor="middle" x="433.34" y="-293" font-family="Helvetica,sans-Serif" font-size="10.00">_filter/ekf.cpp</text>
</a>
</g>
</g>
<!-- Node2 -->
<g id="Node000002" class="node">
<title>Node2</title>
<g id="a_Node000002"><a xlink:href="ekf_8hpp.html" target="_top" xlink:title=" ">
<polygon fill="white" stroke="#666666" points="346.84,-250 227.84,-250 227.84,-231 346.84,-231 346.84,-250"/>
<text text-anchor="middle" x="287.34" y="-238" font-family="Helvetica,sans-Serif" font-size="10.00">kalman_filter/ekf.hpp</text>
</a>
</g>
</g>
<!-- Node1&#45;&gt;Node2 -->
<g id="edge1_Node000001_Node000002" class="edge">
<title>Node1&#45;&gt;Node2</title>
<g id="a_edge1_Node000001_Node000002"><a xlink:title=" ">
<path fill="none" stroke="#63b8ff" d="M398.37,-285.99C374.01,-276.23 341.81,-263.33 318.36,-253.93"/>
<polygon fill="#63b8ff" stroke="#63b8ff" points="319.48,-250.61 308.9,-250.14 316.88,-257.11 319.48,-250.61"/>
</a>
</g>
</g>
<!-- Node3 -->
<g id="Node000003" class="node">
<title>Node3</title>
<g id="a_Node000003"><a xlink:title=" ">
<polygon fill="#e0e0e0" stroke="#999999" points="78.84,-129 1.84,-129 1.84,-110 78.84,-110 78.84,-129"/>
<text text-anchor="middle" x="40.34" y="-117" font-family="Helvetica,sans-Serif" font-size="10.00">Eigen/Dense</text>
</a>
</g>
</g>
<!-- Node1&#45;&gt;Node3 -->
<g id="edge18_Node000001_Node000003" class="edge">
<title>Node1&#45;&gt;Node3</title>
<g id="a_edge18_Node000001_Node000003"><a xlink:title=" ">
<path fill="none" stroke="#63b8ff" d="M367.68,-293.69C259.01,-281.74 49.35,-251.76 5.34,-195 -8.53,-177.11 8.16,-152.84 22.9,-136.93"/>
<polygon fill="#63b8ff" stroke="#63b8ff" points="25.74,-139.04 30.26,-129.45 20.75,-134.13 25.74,-139.04"/>
</a>
</g>
</g>
<!-- Node6 -->
<g id="Node000006" class="node">
<title>Node6</title>
<g id="a_Node000006"><a xlink:href="data__structures_8hpp.html" target="_top" xlink:title=" ">
<polygon fill="white" stroke="#666666" points="392.34,-129 234.34,-129 234.34,-110 392.34,-110 392.34,-129"/>
<text text-anchor="middle" x="313.34" y="-117" font-family="Helvetica,sans-Serif" font-size="10.00">loc_map/data_structures.hpp</text>
</a>
</g>
</g>
<!-- Node1&#45;&gt;Node6 -->
<g id="edge20_Node000001_Node000006" class="edge">
<title>Node1&#45;&gt;Node6</title>
<g id="a_edge20_Node000001_Node000006"><a xlink:title=" ">
<path fill="none" stroke="#63b8ff" d="M432.45,-285.78C430.12,-259.28 421.77,-201.68 392.34,-165 380.91,-150.77 363.63,-140.3 348.14,-133.1"/>
<polygon fill="#63b8ff" stroke="#63b8ff" points="349.37,-129.82 338.8,-129.04 346.58,-136.24 349.37,-129.82"/>
</a>
</g>
</g>
<!-- Node13 -->
<g id="Node000013" class="node">
<title>Node13</title>
<g id="a_Node000013"><a xlink:title=" ">
<polygon fill="#e0e0e0" stroke="#999999" points="521.34,-250 461.34,-250 461.34,-231 521.34,-231 521.34,-250"/>
<text text-anchor="middle" x="491.34" y="-238" font-family="Helvetica,sans-Serif" font-size="10.00">iostream</text>
</a>
</g>
</g>
<!-- Node1&#45;&gt;Node13 -->
<g id="edge19_Node000001_Node000013" class="edge">
<title>Node1&#45;&gt;Node13</title>
<g id="a_edge19_Node000001_Node000013"><a xlink:title=" ">
<path fill="none" stroke="#63b8ff" d="M447.38,-285.84C455.88,-277.26 466.75,-266.3 475.55,-257.42"/>
<polygon fill="#63b8ff" stroke="#63b8ff" points="478.09,-259.83 482.64,-250.27 473.12,-254.9 478.09,-259.83"/>
</a>
</g>
</g>
<!-- Node14 -->
<g id="Node000014" class="node">
<title>Node14</title>
<g id="a_Node000014"><a xlink:title=" ">
<polygon fill="#e0e0e0" stroke="#999999" points="638.84,-250 539.84,-250 539.84,-231 638.84,-231 638.84,-250"/>
<text text-anchor="middle" x="589.34" y="-238" font-family="Helvetica,sans-Serif" font-size="10.00">rclcpp/rclcpp.hpp</text>
</a>
</g>
</g>
<!-- Node1&#45;&gt;Node14 -->
<g id="edge21_Node000001_Node000014" class="edge">
<title>Node1&#45;&gt;Node14</title>
<g id="a_edge21_Node000001_Node000014"><a xlink:title=" ">
<path fill="none" stroke="#63b8ff" d="M470.7,-285.99C496.96,-276.14 531.75,-263.1 556.85,-253.68"/>
<polygon fill="#63b8ff" stroke="#63b8ff" points="558.16,-256.93 566.3,-250.14 555.71,-250.37 558.16,-256.93"/>
</a>
</g>
</g>
<!-- Node2&#45;&gt;Node3 -->
<g id="edge2_Node000002_Node000003" class="edge">
<title>Node2&#45;&gt;Node3</title>
<g id="a_edge2_Node000002_Node000003"><a xlink:title=" ">
<path fill="none" stroke="#63b8ff" d="M227.62,-238.41C155.94,-235.69 42.02,-226.4 15.34,-195 1.32,-178.51 14.27,-153.85 26.15,-137.48"/>
<polygon fill="#63b8ff" stroke="#63b8ff" points="29.1,-139.39 32.47,-129.34 23.57,-135.1 29.1,-139.39"/>
</a>
</g>
</g>
<!-- Node4 -->
<g id="Node000004" class="node">
<title>Node4</title>
<g id="a_Node000004"><a xlink:title=" ">
<polygon fill="#e0e0e0" stroke="#999999" points="366.84,-189.5 319.84,-189.5 319.84,-170.5 366.84,-170.5 366.84,-189.5"/>
<text text-anchor="middle" x="343.34" y="-177.5" font-family="Helvetica,sans-Serif" font-size="10.00">vector</text>
</a>
</g>
</g>
<!-- Node2&#45;&gt;Node4 -->
<g id="edge3_Node000002_Node000004" class="edge">
<title>Node2&#45;&gt;Node4</title>
<g id="a_edge3_Node000002_Node000004"><a xlink:title=" ">
<path fill="none" stroke="#63b8ff" d="M295.6,-230.87C304.12,-221.97 317.6,-207.89 328.06,-196.95"/>
<polygon fill="#63b8ff" stroke="#63b8ff" points="330.65,-199.31 335.04,-189.67 325.6,-194.47 330.65,-199.31"/>
</a>
</g>
</g>
<!-- Node5 -->
<g id="Node000005" class="node">
<title>Node5</title>
<g id="a_Node000005"><a xlink:href="motion__models_8hpp.html" target="_top" xlink:title=" ">
<polygon fill="white" stroke="#666666" points="142.34,-195 24.34,-195 24.34,-165 142.34,-165 142.34,-195"/>
<text text-anchor="start" x="32.34" y="-183" font-family="Helvetica,sans-Serif" font-size="10.00">kalman_filter/motion</text>
<text text-anchor="middle" x="83.34" y="-172" font-family="Helvetica,sans-Serif" font-size="10.00">_models.hpp</text>
</a>
</g>
</g>
<!-- Node2&#45;&gt;Node5 -->
<g id="edge4_Node000002_Node000005" class="edge">
<title>Node2&#45;&gt;Node5</title>
<g id="a_edge4_Node000002_Node000005"><a xlink:title=" ">
<path fill="none" stroke="#63b8ff" d="M257.67,-230.99C227.54,-222.35 180.07,-208.74 142.26,-197.9"/>
<polygon fill="#63b8ff" stroke="#63b8ff" points="142.96,-194.46 132.38,-195.06 141.03,-201.19 142.96,-194.46"/>
</a>
</g>
</g>
<!-- Node2&#45;&gt;Node6 -->
<g id="edge17_Node000002_Node000006" class="edge">
<title>Node2&#45;&gt;Node6</title>
<g id="a_edge17_Node000002_Node000006"><a xlink:title=" ">
<path fill="none" stroke="#63b8ff" d="M324.48,-230.9C343.5,-224.41 364.98,-213.37 376.34,-195 383.35,-183.66 382.47,-176.84 376.34,-165 369.3,-151.41 355.99,-141.09 343.41,-133.82"/>
<polygon fill="#63b8ff" stroke="#63b8ff" points="344.96,-130.68 334.49,-129.07 341.67,-136.86 344.96,-130.68"/>
</a>
</g>
</g>
<!-- Node12 -->
<g id="Node000012" class="node">
<title>Node12</title>
<g id="a_Node000012"><a xlink:href="observation__models_8hpp.html" target="_top" xlink:title=" ">
<polygon fill="white" stroke="#666666" points="301.84,-195 160.84,-195 160.84,-165 301.84,-165 301.84,-195"/>
<text text-anchor="start" x="168.84" y="-183" font-family="Helvetica,sans-Serif" font-size="10.00">kalman_filter/observation</text>
<text text-anchor="middle" x="231.34" y="-172" font-family="Helvetica,sans-Serif" font-size="10.00">_models.hpp</text>
</a>
</g>
</g>
<!-- Node2&#45;&gt;Node12 -->
<g id="edge14_Node000002_Node000012" class="edge">
<title>Node2&#45;&gt;Node12</title>
<g id="a_edge14_Node000002_Node000012"><a xlink:title=" ">
<path fill="none" stroke="#63b8ff" d="M279.07,-230.87C271.97,-223.44 261.41,-212.42 252.03,-202.62"/>
<polygon fill="#63b8ff" stroke="#63b8ff" points="254.29,-199.92 244.85,-195.11 249.23,-204.76 254.29,-199.92"/>
</a>
</g>
</g>
<!-- Node5&#45;&gt;Node3 -->
<g id="edge5_Node000005_Node000003" class="edge">
<title>Node5&#45;&gt;Node3</title>
<g id="a_edge5_Node000005_Node000003"><a xlink:title=" ">
<path fill="none" stroke="#63b8ff" d="M72.93,-164.84C66.88,-156.61 59.21,-146.18 52.84,-137.51"/>
<polygon fill="#63b8ff" stroke="#63b8ff" points="55.52,-135.25 46.78,-129.27 49.88,-139.4 55.52,-135.25"/>
</a>
</g>
</g>
<!-- Node5&#45;&gt;Node6 -->
<g id="edge6_Node000005_Node000006" class="edge">
<title>Node5&#45;&gt;Node6</title>
<g id="a_edge6_Node000005_Node000006"><a xlink:title=" ">
<path fill="none" stroke="#63b8ff" d="M138.43,-164.99C178.64,-154.76 232.4,-141.09 269.66,-131.61"/>
<polygon fill="#63b8ff" stroke="#63b8ff" points="270.88,-134.91 279.71,-129.05 269.15,-128.13 270.88,-134.91"/>
</a>
</g>
</g>
<!-- Node7 -->
<g id="Node000007" class="node">
<title>Node7</title>
<g id="a_Node000007"><a xlink:title=" ">
<polygon fill="#e0e0e0" stroke="#999999" points="214.34,-74 164.34,-74 164.34,-55 214.34,-55 214.34,-74"/>
<text text-anchor="middle" x="189.34" y="-62" font-family="Helvetica,sans-Serif" font-size="10.00">chrono</text>
</a>
</g>
</g>
<!-- Node6&#45;&gt;Node7 -->
<g id="edge7_Node000006_Node000007" class="edge">
<title>Node6&#45;&gt;Node7</title>
<g id="a_edge7_Node000006_Node000007"><a xlink:title=" ">
<path fill="none" stroke="#63b8ff" d="M293.41,-109.98C273.29,-101.38 241.96,-87.99 218.93,-78.15"/>
<polygon fill="#63b8ff" stroke="#63b8ff" points="220.19,-74.88 209.62,-74.17 217.44,-81.32 220.19,-74.88"/>
</a>
</g>
</g>
<!-- Node8 -->
<g id="Node000008" class="node">
<title>Node8</title>
<g id="a_Node000008"><a xlink:title=" ">
<polygon fill="#e0e0e0" stroke="#999999" points="299.34,-19 261.34,-19 261.34,0 299.34,0 299.34,-19"/>
<text text-anchor="middle" x="280.34" y="-7" font-family="Helvetica,sans-Serif" font-size="10.00">map</text>
</a>
</g>
</g>
<!-- Node6&#45;&gt;Node8 -->
<g id="edge8_Node000006_Node000008" class="edge">
<title>Node6&#45;&gt;Node8</title>
<g id="a_edge8_Node000006_Node000008"><a xlink:title=" ">
<path fill="none" stroke="#63b8ff" d="M297.61,-109.88C285.45,-102.23 269.53,-89.83 262.34,-74 255.53,-59.04 262.01,-40.91 269.01,-27.86"/>
<polygon fill="#63b8ff" stroke="#63b8ff" points="272.17,-29.39 274.26,-19 266.15,-25.82 272.17,-29.39"/>
</a>
</g>
</g>
<!-- Node9 -->
<g id="Node000009" class="node">
<title>Node9</title>
<g id="a_Node000009"><a xlink:title=" ">
<polygon fill="#e0e0e0" stroke="#999999" points="367.34,-19 323.34,-19 323.34,0 367.34,0 367.34,-19"/>
<text text-anchor="middle" x="345.34" y="-7" font-family="Helvetica,sans-Serif" font-size="10.00">string</text>
</a>
</g>
</g>
<!-- Node6&#45;&gt;Node9 -->
<g id="edge9_Node000006_Node000009" class="edge">
<title>Node6&#45;&gt;Node9</title>
<g id="a_edge9_Node000006_Node000009"><a xlink:title=" ">
<path fill="none" stroke="#63b8ff" d="M329.36,-109.95C341.75,-102.35 357.98,-89.97 365.34,-74 372.26,-58.96 365.17,-40.87 357.59,-27.85"/>
<polygon fill="#63b8ff" stroke="#63b8ff" points="360.51,-25.92 352.17,-19.39 354.61,-29.7 360.51,-25.92"/>
</a>
</g>
</g>
<!-- Node10 -->
<g id="Node000010" class="node">
<title>Node10</title>
<g id="a_Node000010"><a xlink:href="color_8hpp.html" target="_top" xlink:title=" ">
<polygon fill="white" stroke="#666666" points="355.84,-74 270.84,-74 270.84,-55 355.84,-55 355.84,-74"/>
<text text-anchor="middle" x="313.34" y="-62" font-family="Helvetica,sans-Serif" font-size="10.00">utils/color.hpp</text>
</a>
</g>
</g>
<!-- Node6&#45;&gt;Node10 -->
<g id="edge10_Node000006_Node000010" class="edge">
<title>Node6&#45;&gt;Node10</title>
<g id="a_edge10_Node000006_Node000010"><a xlink:title=" ">
<path fill="none" stroke="#63b8ff" d="M313.34,-109.75C313.34,-102.8 313.34,-92.85 313.34,-84.13"/>
<polygon fill="#63b8ff" stroke="#63b8ff" points="316.84,-84.09 313.34,-74.09 309.84,-84.09 316.84,-84.09"/>
</a>
</g>
</g>
<!-- Node11 -->
<g id="Node000011" class="node">
<title>Node11</title>
<g id="a_Node000011"><a xlink:href="position_8hpp.html" target="_top" xlink:title=" ">
<polygon fill="white" stroke="#666666" points="513.84,-74 412.84,-74 412.84,-55 513.84,-55 513.84,-74"/>
<text text-anchor="middle" x="463.34" y="-62" font-family="Helvetica,sans-Serif" font-size="10.00">utils/position.hpp</text>
</a>
</g>
</g>
<!-- Node6&#45;&gt;Node11 -->
<g id="edge13_Node000006_Node000011" class="edge">
<title>Node6&#45;&gt;Node11</title>
<g id="a_edge13_Node000006_Node000011"><a xlink:title=" ">
<path fill="none" stroke="#63b8ff" d="M337.44,-109.98C362.22,-101.23 401.04,-87.51 429.02,-77.62"/>
<polygon fill="#63b8ff" stroke="#63b8ff" points="430.53,-80.8 438.8,-74.17 428.2,-74.2 430.53,-80.8"/>
</a>
</g>
</g>
<!-- Node10&#45;&gt;Node8 -->
<g id="edge11_Node000010_Node000008" class="edge">
<title>Node10&#45;&gt;Node8</title>
<g id="a_edge11_Node000010_Node000008"><a xlink:title=" ">
<path fill="none" stroke="#63b8ff" d="M307.89,-54.75C303.32,-47.42 296.67,-36.73 291.04,-27.7"/>
<polygon fill="#63b8ff" stroke="#63b8ff" points="293.94,-25.73 285.68,-19.09 288,-29.43 293.94,-25.73"/>
</a>
</g>
</g>
<!-- Node10&#45;&gt;Node9 -->
<g id="edge12_Node000010_Node000009" class="edge">
<title>Node10&#45;&gt;Node9</title>
<g id="a_edge12_Node000010_Node000009"><a xlink:title=" ">
<path fill="none" stroke="#63b8ff" d="M318.62,-54.75C323.05,-47.42 329.5,-36.73 334.95,-27.7"/>
<polygon fill="#63b8ff" stroke="#63b8ff" points="337.98,-29.46 340.15,-19.09 331.99,-25.84 337.98,-29.46"/>
</a>
</g>
</g>
<!-- Node12&#45;&gt;Node3 -->
<g id="edge15_Node000012_Node000003" class="edge">
<title>Node12&#45;&gt;Node3</title>
<g id="a_edge15_Node000012_Node000003"><a xlink:title=" ">
<path fill="none" stroke="#63b8ff" d="M185.59,-164.99C152.77,-154.94 109.07,-141.55 78.2,-132.1"/>
<polygon fill="#63b8ff" stroke="#63b8ff" points="78.85,-128.64 68.26,-129.05 76.8,-135.33 78.85,-128.64"/>
</a>
</g>
</g>
<!-- Node12&#45;&gt;Node6 -->
<g id="edge16_Node000012_Node000006" class="edge">
<title>Node12&#45;&gt;Node6</title>
<g id="a_edge16_Node000012_Node000006"><a xlink:title=" ">
<path fill="none" stroke="#63b8ff" d="M251.19,-164.84C263.82,-155.83 280.14,-144.18 292.88,-135.09"/>
<polygon fill="#63b8ff" stroke="#63b8ff" points="294.94,-137.92 301.05,-129.27 290.88,-132.22 294.94,-137.92"/>
</a>
</g>
</g>
</g>
</svg>
