<?xml version="1.0" encoding="UTF-8" standalone="no"?>
<!DOCTYPE svg PUBLIC "-//W3C//DTD SVG 1.1//EN"
 "http://www.w3.org/Graphics/SVG/1.1/DTD/svg11.dtd">
<!-- Generated by graphviz version 2.43.0 (0)
 -->
<!-- Title: normalize_angle Pages: 1 -->
<svg width="339pt" height="88pt"
 viewBox="0.00 0.00 339.00 88.00" xmlns="http://www.w3.org/2000/svg" xmlns:xlink="http://www.w3.org/1999/xlink">
<g id="graph0" class="graph" transform="scale(1 1) rotate(0) translate(4 84)">
<title>normalize_angle</title>
<polygon fill="white" stroke="transparent" points="-4,4 -4,-84 335,-84 335,4 -4,4"/>
<!-- Node1 -->
<g id="node1" class="node">
<title>Node1</title>
<g id="a_node1"><a xlink:title="Function to keep angle between 0 and 2Pi radians.">
<polygon fill="#bfbfbf" stroke="black" points="244,-30 244,-49 331,-49 331,-30 244,-30"/>
<text text-anchor="middle" x="287.5" y="-37" font-family="Helvetica,sans-Serif" font-size="10.00">normalize_angle</text>
</a>
</g>
</g>
<!-- Node2 -->
<g id="node2" class="node">
<title>Node2</title>
<g id="a_node2"><a xlink:href="classImuVelocityModel.html#a83c9e2d4b8e321ab0fcfbef5f52b5447" target="_top" xlink:title="Calculate expected state vector from velocity model using IMU data and linear functions Uses translat...">
<polygon fill="white" stroke="black" points="78,-49.5 78,-79.5 208,-79.5 208,-49.5 78,-49.5"/>
<text text-anchor="start" x="86" y="-67.5" font-family="Helvetica,sans-Serif" font-size="10.00">ImuVelocityModel::predict</text>
<text text-anchor="middle" x="143" y="-56.5" font-family="Helvetica,sans-Serif" font-size="10.00">_expected_state</text>
</a>
</g>
</g>
<!-- Node1&#45;&gt;Node2 -->
<g id="edge1" class="edge">
<title>Node1&#45;&gt;Node2</title>
<path fill="none" stroke="midnightblue" d="M233.76,-48.75C225.39,-50.22 216.66,-51.75 208.07,-53.26"/>
<polygon fill="midnightblue" stroke="midnightblue" points="234.5,-52.18 243.75,-47 233.29,-45.28 234.5,-52.18"/>
</g>
<!-- Node4 -->
<g id="node4" class="node">
<title>Node4</title>
<g id="a_node4"><a xlink:href="classNormalVelocityModel.html#a32beb590c4af5f21172b64b34d5f3ea1" target="_top" xlink:title="Calculate expected state vector from velocity model using normal motion data Uses translation velocit...">
<polygon fill="white" stroke="black" points="81,-0.5 81,-30.5 205,-30.5 205,-0.5 81,-0.5"/>
<text text-anchor="start" x="89" y="-18.5" font-family="Helvetica,sans-Serif" font-size="10.00">NormalVelocityModel</text>
<text text-anchor="middle" x="143" y="-7.5" font-family="Helvetica,sans-Serif" font-size="10.00">::predict_expected_state</text>
</a>
</g>
</g>
<!-- Node1&#45;&gt;Node4 -->
<g id="edge3" class="edge">
<title>Node1&#45;&gt;Node4</title>
<path fill="none" stroke="midnightblue" d="M233.83,-30.63C224.5,-29.06 214.71,-27.41 205.16,-25.8"/>
<polygon fill="midnightblue" stroke="midnightblue" points="233.3,-34.09 243.75,-32.3 234.47,-27.19 233.3,-34.09"/>
</g>
<!-- Node3 -->
<g id="node3" class="node">
<title>Node3</title>
<g id="a_node3"><a xlink:href="motion__model__test_8cpp.html#a6fbede91fc0c55e0beeee30fb29a34bf" target="_top" xlink:title=" ">
<polygon fill="white" stroke="black" points="0,-55 0,-74 42,-74 42,-55 0,-55"/>
<text text-anchor="middle" x="21" y="-62" font-family="Helvetica,sans-Serif" font-size="10.00">TEST</text>
</a>
</g>
</g>
<!-- Node2&#45;&gt;Node3 -->
<g id="edge2" class="edge">
<title>Node2&#45;&gt;Node3</title>
<path fill="none" stroke="midnightblue" d="M67.58,-64.5C58.32,-64.5 49.54,-64.5 42.2,-64.5"/>
<polygon fill="midnightblue" stroke="midnightblue" points="67.78,-68 77.78,-64.5 67.78,-61 67.78,-68"/>
</g>
<!-- Node5 -->
<g id="node5" class="node">
<title>Node5</title>
<g id="a_node5"><a xlink:href="motion__model__test_8cpp.html#abaac5c4600343357227b100565bf0831" target="_top" xlink:title=" ">
<polygon fill="white" stroke="black" points="0,-6 0,-25 42,-25 42,-6 0,-6"/>
<text text-anchor="middle" x="21" y="-13" font-family="Helvetica,sans-Serif" font-size="10.00">TEST</text>
</a>
</g>
</g>
<!-- Node4&#45;&gt;Node5 -->
<g id="edge4" class="edge">
<title>Node4&#45;&gt;Node5</title>
<path fill="none" stroke="midnightblue" d="M70.82,-15.5C60.37,-15.5 50.38,-15.5 42.2,-15.5"/>
<polygon fill="midnightblue" stroke="midnightblue" points="70.95,-19 80.95,-15.5 70.95,-12 70.95,-19"/>
</g>
</g>
</svg>
