<?xml version="1.0" encoding="UTF-8" standalone="no"?>
<!DOCTYPE svg PUBLIC "-//W3C//DTD SVG 1.1//EN"
 "http://www.w3.org/Graphics/SVG/1.1/DTD/svg11.dtd">
<!-- Generated by graphviz version 2.43.0 (0)
 -->
<!-- Title: normalize_angle Pages: 1 -->
<svg width="363pt" height="323pt"
 viewBox="0.00 0.00 363.00 323.00" xmlns="http://www.w3.org/2000/svg" xmlns:xlink="http://www.w3.org/1999/xlink">
<g id="graph0" class="graph" transform="scale(1 1) rotate(0) translate(4 319)">
<title>normalize_angle</title>
<!-- Node1 -->
<g id="Node000001" class="node">
<title>Node1</title>
<g id="a_Node000001"><a xlink:title="Function to keep angle between 0 and 2Pi radians.">
<polygon fill="#999999" stroke="#666666" points="355,-167 257,-167 257,-148 355,-148 355,-167"/>
<text text-anchor="middle" x="306" y="-155" font-family="Helvetica,sans-Serif" font-size="10.00">normalize_angle</text>
</a>
</g>
</g>
<!-- Node2 -->
<g id="Node000002" class="node">
<title>Node2</title>
<g id="a_Node000002"><a xlink:href="classImuVelocityModel.html#a83c9e2d4b8e321ab0fcfbef5f52b5447" target="_top" xlink:title="Calculate expected state vector from velocity model using IMU data and linear functions Uses translat...">
<polygon fill="white" stroke="#666666" points="221,-246.5 77,-246.5 77,-216.5 221,-216.5 221,-246.5"/>
<text text-anchor="start" x="85" y="-234.5" font-family="Helvetica,sans-Serif" font-size="10.00">ImuVelocityModel::predict</text>
<text text-anchor="middle" x="149" y="-223.5" font-family="Helvetica,sans-Serif" font-size="10.00">_expected_state</text>
</a>
</g>
</g>
<!-- Node1&#45;&gt;Node2 -->
<g id="edge1_Node000001_Node000002" class="edge">
<title>Node1&#45;&gt;Node2</title>
<g id="a_edge1_Node000001_Node000002"><a xlink:title=" ">
<path fill="none" stroke="#63b8ff" d="M275.8,-171.44C248.96,-184.25 209.29,-203.2 181.69,-216.37"/>
<polygon fill="#63b8ff" stroke="#63b8ff" points="277.54,-174.49 285.05,-167.02 274.52,-168.17 277.54,-174.49"/>
</a>
</g>
</g>
<!-- Node7 -->
<g id="Node000007" class="node">
<title>Node7</title>
<g id="a_Node000007"><a xlink:href="classNormalVelocityModel.html#a32beb590c4af5f21172b64b34d5f3ea1" target="_top" xlink:title="Calculate expected state vector from velocity model using normal motion data Uses translation velocit...">
<polygon fill="white" stroke="#666666" points="217.5,-117.5 80.5,-117.5 80.5,-87.5 217.5,-87.5 217.5,-117.5"/>
<text text-anchor="start" x="88.5" y="-105.5" font-family="Helvetica,sans-Serif" font-size="10.00">NormalVelocityModel</text>
<text text-anchor="middle" x="149" y="-94.5" font-family="Helvetica,sans-Serif" font-size="10.00">::predict_expected_state</text>
</a>
</g>
</g>
<!-- Node1&#45;&gt;Node7 -->
<g id="edge6_Node000001_Node000007" class="edge">
<title>Node1&#45;&gt;Node7</title>
<g id="a_edge6_Node000001_Node000007"><a xlink:title=" ">
<path fill="none" stroke="#63b8ff" d="M268.37,-144.5C245.6,-136.42 216.24,-126 192.46,-117.57"/>
<polygon fill="#63b8ff" stroke="#63b8ff" points="267.41,-147.87 278,-147.92 269.75,-141.28 267.41,-147.87"/>
</a>
</g>
</g>
<!-- Node3 -->
<g id="Node000003" class="node">
<title>Node3</title>
<g id="a_Node000003"><a xlink:href="motion__model__test_8cpp.html#ae0937a30b47fc882eb19bb57e6ca6bbf" target="_top" xlink:title=" ">
<polygon fill="white" stroke="#666666" points="41,-315 0,-315 0,-296 41,-296 41,-315"/>
<text text-anchor="middle" x="20.5" y="-303" font-family="Helvetica,sans-Serif" font-size="10.00">TEST</text>
</a>
</g>
</g>
<!-- Node2&#45;&gt;Node3 -->
<g id="edge2_Node000002_Node000003" class="edge">
<title>Node2&#45;&gt;Node3</title>
<g id="a_edge2_Node000002_Node000003"><a xlink:title=" ">
<path fill="none" stroke="#63b8ff" d="M113.39,-251.75C88.74,-266.17 56.74,-284.88 37.74,-296"/>
<polygon fill="#63b8ff" stroke="#63b8ff" points="115.23,-254.72 122.1,-246.65 111.7,-248.68 115.23,-254.72"/>
</a>
</g>
</g>
<!-- Node4 -->
<g id="Node000004" class="node">
<title>Node4</title>
<g id="a_Node000004"><a xlink:href="motion__model__test_8cpp.html#a9c31f0345da32c0c5eaa421433ba5ec3" target="_top" xlink:title=" ">
<polygon fill="white" stroke="#666666" points="41,-278 0,-278 0,-259 41,-259 41,-278"/>
<text text-anchor="middle" x="20.5" y="-266" font-family="Helvetica,sans-Serif" font-size="10.00">TEST</text>
</a>
</g>
</g>
<!-- Node2&#45;&gt;Node4 -->
<g id="edge3_Node000002_Node000004" class="edge">
<title>Node2&#45;&gt;Node4</title>
<g id="a_edge3_Node000002_Node000004"><a xlink:title=" ">
<path fill="none" stroke="#63b8ff" d="M86.83,-249.39C70.22,-254.25 53.43,-259.16 41.02,-262.79"/>
<polygon fill="#63b8ff" stroke="#63b8ff" points="87.93,-252.72 96.55,-246.55 85.97,-246 87.93,-252.72"/>
</a>
</g>
</g>
<!-- Node5 -->
<g id="Node000005" class="node">
<title>Node5</title>
<g id="a_Node000005"><a xlink:href="motion__model__test_8cpp.html#a13d66ed5f0bcb51eb59eaeb8da3fe292" target="_top" xlink:title=" ">
<polygon fill="white" stroke="#666666" points="41,-241 0,-241 0,-222 41,-222 41,-241"/>
<text text-anchor="middle" x="20.5" y="-229" font-family="Helvetica,sans-Serif" font-size="10.00">TEST</text>
</a>
</g>
</g>
<!-- Node2&#45;&gt;Node5 -->
<g id="edge4_Node000002_Node000005" class="edge">
<title>Node2&#45;&gt;Node5</title>
<g id="a_edge4_Node000002_Node000005"><a xlink:title=" ">
<path fill="none" stroke="#63b8ff" d="M66.92,-231.5C57.43,-231.5 48.52,-231.5 41.15,-231.5"/>
<polygon fill="#63b8ff" stroke="#63b8ff" points="66.98,-235 76.98,-231.5 66.98,-228 66.98,-235"/>
</a>
</g>
</g>
<!-- Node6 -->
<g id="Node000006" class="node">
<title>Node6</title>
<g id="a_Node000006"><a xlink:href="motion__model__test_8cpp.html#a6fbede91fc0c55e0beeee30fb29a34bf" target="_top" xlink:title=" ">
<polygon fill="white" stroke="#666666" points="41,-204 0,-204 0,-185 41,-185 41,-204"/>
<text text-anchor="middle" x="20.5" y="-192" font-family="Helvetica,sans-Serif" font-size="10.00">TEST</text>
</a>
</g>
</g>
<!-- Node2&#45;&gt;Node6 -->
<g id="edge5_Node000002_Node000006" class="edge">
<title>Node2&#45;&gt;Node6</title>
<g id="a_edge5_Node000002_Node000006"><a xlink:title=" ">
<path fill="none" stroke="#63b8ff" d="M86.83,-213.61C70.22,-208.75 53.43,-203.84 41.02,-200.21"/>
<polygon fill="#63b8ff" stroke="#63b8ff" points="85.97,-217 96.55,-216.45 87.93,-210.28 85.97,-217"/>
</a>
</g>
</g>
<!-- Node8 -->
<g id="Node000008" class="node">
<title>Node8</title>
<g id="a_Node000008"><a xlink:href="motion__model__test_8cpp.html#a89bd5d192ba500ce6cd5d7ff246df691" target="_top" xlink:title=" ">
<polygon fill="white" stroke="#666666" points="41,-167 0,-167 0,-148 41,-148 41,-167"/>
<text text-anchor="middle" x="20.5" y="-155" font-family="Helvetica,sans-Serif" font-size="10.00">TEST</text>
</a>
</g>
</g>
<!-- Node7&#45;&gt;Node8 -->
<g id="edge7_Node000007_Node000008" class="edge">
<title>Node7&#45;&gt;Node8</title>
<g id="a_edge7_Node000007_Node000008"><a xlink:title=" ">
<path fill="none" stroke="#63b8ff" d="M104.15,-121.57C82.66,-130.91 57.86,-141.69 41.07,-148.99"/>
<polygon fill="#63b8ff" stroke="#63b8ff" points="105.66,-124.73 113.43,-117.53 102.87,-118.31 105.66,-124.73"/>
</a>
</g>
</g>
<!-- Node9 -->
<g id="Node000009" class="node">
<title>Node9</title>
<g id="a_Node000009"><a xlink:href="motion__model__test_8cpp.html#a4b4be8c03914d03c683a1fecbcbdf310" target="_top" xlink:title=" ">
<polygon fill="white" stroke="#666666" points="41,-130 0,-130 0,-111 41,-111 41,-130"/>
<text text-anchor="middle" x="20.5" y="-118" font-family="Helvetica,sans-Serif" font-size="10.00">TEST</text>
</a>
</g>
</g>
<!-- Node7&#45;&gt;Node9 -->
<g id="edge8_Node000007_Node000009" class="edge">
<title>Node7&#45;&gt;Node9</title>
<g id="a_edge8_Node000007_Node000009"><a xlink:title=" ">
<path fill="none" stroke="#63b8ff" d="M70.32,-113.55C59.58,-115.08 49.42,-116.53 41.19,-117.7"/>
<polygon fill="#63b8ff" stroke="#63b8ff" points="70.9,-117.01 80.31,-112.13 69.91,-110.08 70.9,-117.01"/>
</a>
</g>
</g>
<!-- Node10 -->
<g id="Node000010" class="node">
<title>Node10</title>
<g id="a_Node000010"><a xlink:href="motion__model__test_8cpp.html#ac536fb8afc350c3ccd4907c25a507b81" target="_top" xlink:title=" ">
<polygon fill="white" stroke="#666666" points="41,-93 0,-93 0,-74 41,-74 41,-93"/>
<text text-anchor="middle" x="20.5" y="-81" font-family="Helvetica,sans-Serif" font-size="10.00">TEST</text>
</a>
</g>
</g>
<!-- Node7&#45;&gt;Node10 -->
<g id="edge9_Node000007_Node000010" class="edge">
<title>Node7&#45;&gt;Node10</title>
<g id="a_edge9_Node000007_Node000010"><a xlink:title=" ">
<path fill="none" stroke="#63b8ff" d="M70.32,-90.83C59.58,-89.22 49.42,-87.69 41.19,-86.46"/>
<polygon fill="#63b8ff" stroke="#63b8ff" points="69.9,-94.31 80.31,-92.33 70.94,-87.39 69.9,-94.31"/>
</a>
</g>
</g>
<!-- Node11 -->
<g id="Node000011" class="node">
<title>Node11</title>
<g id="a_Node000011"><a xlink:href="motion__model__test_8cpp.html#a985258fd91e481fac6ee05ad73bab7fd" target="_top" xlink:title=" ">
<polygon fill="white" stroke="#666666" points="41,-56 0,-56 0,-37 41,-37 41,-56"/>
<text text-anchor="middle" x="20.5" y="-44" font-family="Helvetica,sans-Serif" font-size="10.00">TEST</text>
</a>
</g>
</g>
<!-- Node7&#45;&gt;Node11 -->
<g id="edge10_Node000007_Node000011" class="edge">
<title>Node7&#45;&gt;Node11</title>
<g id="a_edge10_Node000007_Node000011"><a xlink:title=" ">
<path fill="none" stroke="#63b8ff" d="M104.8,-83.38C83.25,-73.83 58.23,-62.76 41.29,-55.26"/>
<polygon fill="#63b8ff" stroke="#63b8ff" points="103.54,-86.65 114.1,-87.49 106.37,-80.24 103.54,-86.65"/>
</a>
</g>
</g>
<!-- Node12 -->
<g id="Node000012" class="node">
<title>Node12</title>
<g id="a_Node000012"><a xlink:href="motion__model__test_8cpp.html#abaac5c4600343357227b100565bf0831" target="_top" xlink:title=" ">
<polygon fill="white" stroke="#666666" points="41,-19 0,-19 0,0 41,0 41,-19"/>
<text text-anchor="middle" x="20.5" y="-7" font-family="Helvetica,sans-Serif" font-size="10.00">TEST</text>
</a>
</g>
</g>
<!-- Node7&#45;&gt;Node12 -->
<g id="edge11_Node000007_Node000012" class="edge">
<title>Node7&#45;&gt;Node12</title>
<g id="a_edge11_Node000007_Node000012"><a xlink:title=" ">
<path fill="none" stroke="#63b8ff" d="M119.24,-81.36C92.75,-61.88 54.62,-33.85 34.73,-19.22"/>
<polygon fill="#63b8ff" stroke="#63b8ff" points="117.26,-84.25 127.39,-87.35 121.41,-78.61 117.26,-84.25"/>
</a>
</g>
</g>
</g>
</svg>
