<?xml version="1.0" encoding="UTF-8" standalone="no"?>
<!DOCTYPE svg PUBLIC "-//W3C//DTD SVG 1.1//EN"
 "http://www.w3.org/Graphics/SVG/1.1/DTD/svg11.dtd">
<!-- Generated by graphviz version 2.43.0 (0)
 -->
<!-- Title: src/loc_map/include/utils/formulas.hpp Pages: 1 -->
<svg width="414pt" height="104pt"
 viewBox="0.00 0.00 413.50 104.00" xmlns="http://www.w3.org/2000/svg" xmlns:xlink="http://www.w3.org/1999/xlink">
<g id="graph0" class="graph" transform="scale(1 1) rotate(0) translate(4 100)">
<title>src/loc_map/include/utils/formulas.hpp</title>
<!-- Node1 -->
<g id="Node000001" class="node">
<title>Node1</title>
<g id="a_Node000001"><a xlink:title=" ">
<polygon fill="#999999" stroke="#666666" points="273,-96 160,-96 160,-66 273,-66 273,-96"/>
<text text-anchor="start" x="168" y="-84" font-family="Helvetica,sans-Serif" font-size="10.00">src/loc_map/include</text>
<text text-anchor="middle" x="216.5" y="-73" font-family="Helvetica,sans-Serif" font-size="10.00">/utils/formulas.hpp</text>
</a>
</g>
</g>
<!-- Node2 -->
<g id="Node000002" class="node">
<title>Node2</title>
<g id="a_Node000002"><a xlink:href="motion__models_8cpp.html" target="_top" xlink:title=" ">
<polygon fill="white" stroke="#666666" points="143,-30 0,-30 0,0 143,0 143,-30"/>
<text text-anchor="start" x="8" y="-18" font-family="Helvetica,sans-Serif" font-size="10.00">src/loc_map/src/kalman</text>
<text text-anchor="middle" x="71.5" y="-7" font-family="Helvetica,sans-Serif" font-size="10.00">_filter/motion_models.cpp</text>
</a>
</g>
</g>
<!-- Node1&#45;&gt;Node2 -->
<g id="edge1_Node000001_Node000002" class="edge">
<title>Node1&#45;&gt;Node2</title>
<g id="a_edge1_Node000001_Node000002"><a xlink:title=" ">
<path fill="none" stroke="#63b8ff" d="M175.23,-61.78C152.37,-51.69 124.38,-39.34 103.25,-30.01"/>
<polygon fill="#63b8ff" stroke="#63b8ff" points="174.12,-65.12 184.68,-65.95 176.94,-58.71 174.12,-65.12"/>
</a>
</g>
</g>
<!-- Node3 -->
<g id="Node000003" class="node">
<title>Node3</title>
<g id="a_Node000003"><a xlink:href="lm__node_8cpp.html" target="_top" xlink:title=" ">
<polygon fill="white" stroke="#666666" points="271.5,-30 161.5,-30 161.5,0 271.5,0 271.5,-30"/>
<text text-anchor="start" x="169.5" y="-18" font-family="Helvetica,sans-Serif" font-size="10.00">src/loc_map/src/loc</text>
<text text-anchor="middle" x="216.5" y="-7" font-family="Helvetica,sans-Serif" font-size="10.00">_map/lm_node.cpp</text>
</a>
</g>
</g>
<!-- Node1&#45;&gt;Node3 -->
<g id="edge2_Node000001_Node000003" class="edge">
<title>Node1&#45;&gt;Node3</title>
<g id="a_edge2_Node000001_Node000003"><a xlink:title=" ">
<path fill="none" stroke="#63b8ff" d="M216.5,-55.54C216.5,-46.96 216.5,-37.61 216.5,-30.16"/>
<polygon fill="#63b8ff" stroke="#63b8ff" points="213,-55.8 216.5,-65.8 220,-55.8 213,-55.8"/>
</a>
</g>
</g>
<!-- Node4 -->
<g id="Node000004" class="node">
<title>Node4</title>
<g id="a_Node000004"><a xlink:href="formulas_8cpp.html" target="_top" xlink:title=" ">
<polygon fill="white" stroke="#666666" points="405.5,-30 289.5,-30 289.5,0 405.5,0 405.5,-30"/>
<text text-anchor="start" x="297.5" y="-18" font-family="Helvetica,sans-Serif" font-size="10.00">src/loc_map/src/utils</text>
<text text-anchor="middle" x="347.5" y="-7" font-family="Helvetica,sans-Serif" font-size="10.00">/formulas.cpp</text>
</a>
</g>
</g>
<!-- Node1&#45;&gt;Node4 -->
<g id="edge3_Node000001_Node000004" class="edge">
<title>Node1&#45;&gt;Node4</title>
<g id="a_edge3_Node000001_Node000004"><a xlink:title=" ">
<path fill="none" stroke="#63b8ff" d="M254.34,-61.51C274.89,-51.47 299.89,-39.26 318.82,-30.01"/>
<polygon fill="#63b8ff" stroke="#63b8ff" points="252.7,-58.42 245.25,-65.95 255.77,-64.71 252.7,-58.42"/>
</a>
</g>
</g>
</g>
</svg>
