<?xml version="1.0" encoding="UTF-8" standalone="no"?>
<!DOCTYPE svg PUBLIC "-//W3C//DTD SVG 1.1//EN"
 "http://www.w3.org/Graphics/SVG/1.1/DTD/svg11.dtd">
<!-- Generated by graphviz version 2.43.0 (0)
 -->
<!-- Title: Graphical Class Hierarchy Pages: 1 -->
<svg width="246pt" height="64pt"
 viewBox="0.00 0.00 246.00 64.00" xmlns="http://www.w3.org/2000/svg" xmlns:xlink="http://www.w3.org/1999/xlink">
<g id="graph0" class="graph" transform="scale(1 1) rotate(0) translate(4 60)">
<title>Graphical Class Hierarchy</title>
<!-- Node0 -->
<g id="Node000000" class="node">
<title>Node0</title>
<g id="a_Node000000"><a xlink:href="classMotionModel.html" target="_top" xlink:title="Abstract Moiton Model class designed to be implemented by the different motion models.">
<polygon fill="white" stroke="#666666" points="80,-37 0,-37 0,-18 80,-18 80,-37"/>
<text text-anchor="middle" x="40" y="-25" font-family="Helvetica,sans-Serif" font-size="10.00">MotionModel</text>
</a>
</g>
</g>
<!-- Node1 -->
<g id="Node000001" class="node">
<title>Node1</title>
<g id="a_Node000001"><a xlink:href="classImuVelocityModel.html" target="_top" xlink:title="Motion estimation that uses the specific values of the x and y axis accelerations,...">
<polygon fill="white" stroke="#666666" points="229,-56 125,-56 125,-37 229,-37 229,-56"/>
<text text-anchor="middle" x="177" y="-44" font-family="Helvetica,sans-Serif" font-size="10.00">ImuVelocityModel</text>
</a>
</g>
</g>
<!-- Node0&#45;&gt;Node1 -->
<g id="edge1_Node000000_Node000001" class="edge">
<title>Node0&#45;&gt;Node1</title>
<g id="a_edge1_Node000000_Node000001"><a xlink:title=" ">
<path fill="none" stroke="#63b8ff" d="M90.19,-34.42C101.51,-36.02 113.57,-37.71 124.97,-39.32"/>
<polygon fill="#63b8ff" stroke="#63b8ff" points="90.44,-30.92 80.05,-33 89.46,-37.86 90.44,-30.92"/>
</a>
</g>
</g>
<!-- Node2 -->
<g id="Node000002" class="node">
<title>Node2</title>
<g id="a_Node000002"><a xlink:href="classNormalVelocityModel.html" target="_top" xlink:title="Motion estimation that uses the module of the velocity and the rotational velocity.">
<polygon fill="white" stroke="#666666" points="238,-19 116,-19 116,0 238,0 238,-19"/>
<text text-anchor="middle" x="177" y="-7" font-family="Helvetica,sans-Serif" font-size="10.00">NormalVelocityModel</text>
</a>
</g>
</g>
<!-- Node0&#45;&gt;Node2 -->
<g id="edge2_Node000000_Node000002" class="edge">
<title>Node0&#45;&gt;Node2</title>
<g id="a_edge2_Node000000_Node000002"><a xlink:title=" ">
<path fill="none" stroke="#63b8ff" d="M90.05,-20.96C98.46,-19.84 107.28,-18.66 115.93,-17.51"/>
<polygon fill="#63b8ff" stroke="#63b8ff" points="89.5,-17.5 80.05,-22.29 90.42,-24.44 89.5,-17.5"/>
</a>
</g>
</g>
</g>
</svg>
