<?xml version="1.0" encoding="UTF-8" standalone="no"?>
<!DOCTYPE svg PUBLIC "-//W3C//DTD SVG 1.1//EN"
 "http://www.w3.org/Graphics/SVG/1.1/DTD/svg11.dtd">
<!-- Generated by graphviz version 2.43.0 (0)
 -->
<!-- Title: Graphical Class Hierarchy Pages: 1 -->
<svg width="246pt" height="64pt"
 viewBox="0.00 0.00 246.00 64.00" xmlns="http://www.w3.org/2000/svg" xmlns:xlink="http://www.w3.org/1999/xlink">
<g id="graph0" class="graph" transform="scale(1 1) rotate(0) translate(4 60)">
<title>Graphical Class Hierarchy</title>
<!-- Node0 -->
<g id="Node000000" class="node">
<title>Node0</title>
<g id="a_Node000000"><a xlink:title=" ">
<polygon fill="#e0e0e0" stroke="#999999" points="76,-37 0,-37 0,-18 76,-18 76,-37"/>
<text text-anchor="middle" x="38" y="-25" font-family="Helvetica,sans-Serif" font-size="10.00">testing::Test</text>
</a>
</g>
</g>
<!-- Node1 -->
<g id="Node000001" class="node">
<title>Node1</title>
<g id="a_Node000001"><a xlink:href="classExecTimeTest.html" target="_top" xlink:title=" ">
<polygon fill="white" stroke="#666666" points="216.5,-56 133.5,-56 133.5,-37 216.5,-37 216.5,-56"/>
<text text-anchor="middle" x="175" y="-44" font-family="Helvetica,sans-Serif" font-size="10.00">ExecTimeTest</text>
</a>
</g>
</g>
<!-- Node0&#45;&gt;Node1 -->
<g id="edge4_Node000000_Node000001" class="edge">
<title>Node0&#45;&gt;Node1</title>
<g id="a_edge4_Node000000_Node000001"><a xlink:title=" ">
<path fill="none" stroke="#63b8ff" d="M86.49,-34.18C101.7,-36.32 118.39,-38.67 133.08,-40.74"/>
<polygon fill="#63b8ff" stroke="#63b8ff" points="86.64,-30.67 76.25,-32.74 85.66,-37.6 86.64,-30.67"/>
</a>
</g>
</g>
<!-- Node2 -->
<g id="Node000002" class="node">
<title>Node2</title>
<g id="a_Node000002"><a xlink:href="classExecTimeTestEKFTests.html" target="_top" xlink:title="Test class for performance measurements of Extended Kalman Filter steps.">
<polygon fill="white" stroke="#666666" points="238,-19 112,-19 112,0 238,0 238,-19"/>
<text text-anchor="middle" x="175" y="-7" font-family="Helvetica,sans-Serif" font-size="10.00">ExecTimeTestEKFTests</text>
</a>
</g>
</g>
<!-- Node0&#45;&gt;Node2 -->
<g id="edge5_Node000000_Node000002" class="edge">
<title>Node0&#45;&gt;Node2</title>
<g id="a_edge5_Node000000_Node000002"><a xlink:title=" ">
<path fill="none" stroke="#63b8ff" d="M86.16,-21.21C94.51,-20.1 103.31,-18.92 112,-17.77"/>
<polygon fill="#63b8ff" stroke="#63b8ff" points="85.7,-17.74 76.25,-22.53 86.62,-24.68 85.7,-17.74"/>
</a>
</g>
</g>
</g>
</svg>
