<?xml version="1.0" encoding="UTF-8" standalone="no"?>
<!DOCTYPE svg PUBLIC "-//W3C//DTD SVG 1.1//EN"
 "http://www.w3.org/Graphics/SVG/1.1/DTD/svg11.dtd">
<!-- Generated by graphviz version 2.43.0 (0)
 -->
<!-- Title: Graphical Class Hierarchy Pages: 1 -->
<svg width="198pt" height="66pt"
 viewBox="0.00 0.00 198.00 66.00" xmlns="http://www.w3.org/2000/svg" xmlns:xlink="http://www.w3.org/1999/xlink">
<g id="graph0" class="graph" transform="scale(1 1) rotate(0) translate(4 62)">
<title>Graphical Class Hierarchy</title>
<polygon fill="white" stroke="transparent" points="-4,4 -4,-62 194,-62 194,4 -4,4"/>
<!-- Node8 -->
<g id="node1" class="node">
<title>Node8</title>
<g id="a_node1"><a xlink:title=" ">
<polygon fill="white" stroke="#bfbfbf" points="0,-19.5 0,-38.5 72,-38.5 72,-19.5 0,-19.5"/>
<text text-anchor="middle" x="36" y="-26.5" font-family="Helvetica,sans-Serif" font-size="10.00">rclcpp::Node</text>
</a>
</g>
</g>
<!-- Node0 -->
<g id="node2" class="node">
<title>Node0</title>
<g id="a_node2"><a xlink:href="classLMNode.html" target="_top" xlink:title="Class representing the main loc_map node responsible for publishing the calculated vehicle localizati...">
<polygon fill="white" stroke="black" points="122.5,-38.5 122.5,-57.5 175.5,-57.5 175.5,-38.5 122.5,-38.5"/>
<text text-anchor="middle" x="149" y="-45.5" font-family="Helvetica,sans-Serif" font-size="10.00">LMNode</text>
</a>
</g>
</g>
<!-- Node8&#45;&gt;Node0 -->
<g id="edge1" class="edge">
<title>Node8&#45;&gt;Node0</title>
<path fill="none" stroke="midnightblue" d="M82.31,-36.76C95.92,-39.09 110.38,-41.56 122.26,-43.59"/>
<polygon fill="midnightblue" stroke="midnightblue" points="82.57,-33.25 72.12,-35.01 81.39,-40.15 82.57,-33.25"/>
</g>
<!-- Node10 -->
<g id="node3" class="node">
<title>Node10</title>
<g id="a_node3"><a xlink:href="classTestSubscriber.html" target="_top" xlink:title="Test Subscriber class.">
<polygon fill="white" stroke="black" points="108,-0.5 108,-19.5 190,-19.5 190,-0.5 108,-0.5"/>
<text text-anchor="middle" x="149" y="-7.5" font-family="Helvetica,sans-Serif" font-size="10.00">TestSubscriber</text>
</a>
</g>
</g>
<!-- Node8&#45;&gt;Node10 -->
<g id="edge2" class="edge">
<title>Node8&#45;&gt;Node10</title>
<path fill="none" stroke="midnightblue" d="M82.2,-21.26C90.64,-19.82 99.41,-18.32 107.69,-16.9"/>
<polygon fill="midnightblue" stroke="midnightblue" points="81.39,-17.85 72.12,-22.99 82.57,-24.75 81.39,-17.85"/>
</g>
</g>
</svg>
