<?xml version="1.0" encoding="UTF-8" standalone="no"?>
<!DOCTYPE svg PUBLIC "-//W3C//DTD SVG 1.1//EN"
 "http://www.w3.org/Graphics/SVG/1.1/DTD/svg11.dtd">
<!-- Generated by graphviz version 2.43.0 (0)
 -->
<!-- Title: loc_map/src/loc_map/lm_node.cpp Pages: 1 -->
<svg width="1559pt" height="464pt"
 viewBox="0.00 0.00 1558.50 464.00" xmlns="http://www.w3.org/2000/svg" xmlns:xlink="http://www.w3.org/1999/xlink">
<g id="graph0" class="graph" transform="scale(1 1) rotate(0) translate(4 460)">
<title>loc_map/src/loc_map/lm_node.cpp</title>
<polygon fill="white" stroke="transparent" points="-4,4 -4,-460 1554.5,-460 1554.5,4 -4,4"/>
<!-- Node1 -->
<g id="node1" class="node">
<title>Node1</title>
<g id="a_node1"><a xlink:title=" ">
<polygon fill="#bfbfbf" stroke="black" points="1206.5,-425.5 1206.5,-455.5 1316.5,-455.5 1316.5,-425.5 1206.5,-425.5"/>
<text text-anchor="start" x="1214.5" y="-443.5" font-family="Helvetica,sans-Serif" font-size="10.00">loc_map/src/loc_map</text>
<text text-anchor="middle" x="1261.5" y="-432.5" font-family="Helvetica,sans-Serif" font-size="10.00">/lm_node.cpp</text>
</a>
</g>
</g>
<!-- Node2 -->
<g id="node2" class="node">
<title>Node2</title>
<g id="a_node2"><a xlink:href="lm__node_8hpp.html" target="_top" xlink:title=" ">
<polygon fill="white" stroke="black" points="490.5,-308 490.5,-327 602.5,-327 602.5,-308 490.5,-308"/>
<text text-anchor="middle" x="546.5" y="-315" font-family="Helvetica,sans-Serif" font-size="10.00">loc_map/lm_node.hpp</text>
</a>
</g>
</g>
<!-- Node1&#45;&gt;Node2 -->
<g id="edge1" class="edge">
<title>Node1&#45;&gt;Node2</title>
<path fill="none" stroke="midnightblue" d="M1206.1,-431.51C1093.65,-415.06 830.71,-375.37 611.5,-333 605.61,-331.86 599.44,-330.59 593.34,-329.28"/>
<polygon fill="midnightblue" stroke="midnightblue" points="593.72,-325.78 583.21,-327.07 592.23,-332.62 593.72,-325.78"/>
</g>
<!-- Node25 -->
<g id="node25" class="node">
<title>Node25</title>
<g id="a_node25"><a xlink:href="adapter_8hpp.html" target="_top" xlink:title=" ">
<polygon fill="white" stroke="black" points="1158.5,-369.5 1158.5,-388.5 1260.5,-388.5 1260.5,-369.5 1158.5,-369.5"/>
<text text-anchor="middle" x="1209.5" y="-376.5" font-family="Helvetica,sans-Serif" font-size="10.00">adapter/adapter.hpp</text>
</a>
</g>
</g>
<!-- Node1&#45;&gt;Node25 -->
<g id="edge32" class="edge">
<title>Node1&#45;&gt;Node25</title>
<path fill="none" stroke="midnightblue" d="M1249.18,-425.4C1241.54,-416.66 1231.71,-405.41 1223.74,-396.3"/>
<polygon fill="midnightblue" stroke="midnightblue" points="1226.28,-393.88 1217.07,-388.66 1221.01,-398.49 1226.28,-393.88"/>
</g>
<!-- Node31 -->
<g id="node31" class="node">
<title>Node31</title>
<g id="a_node31"><a xlink:href="car_8hpp.html" target="_top" xlink:title=" ">
<polygon fill="white" stroke="black" points="1279,-369.5 1279,-388.5 1348,-388.5 1348,-369.5 1279,-369.5"/>
<text text-anchor="middle" x="1313.5" y="-376.5" font-family="Helvetica,sans-Serif" font-size="10.00">utils/car.hpp</text>
</a>
</g>
</g>
<!-- Node1&#45;&gt;Node31 -->
<g id="edge44" class="edge">
<title>Node1&#45;&gt;Node31</title>
<path fill="none" stroke="midnightblue" d="M1273.82,-425.4C1281.46,-416.66 1291.29,-405.41 1299.26,-396.3"/>
<polygon fill="midnightblue" stroke="midnightblue" points="1301.99,-398.49 1305.93,-388.66 1296.72,-393.88 1301.99,-398.49"/>
</g>
<!-- Node32 -->
<g id="node32" class="node">
<title>Node32</title>
<g id="a_node32"><a xlink:href="formulas_8hpp.html" target="_top" xlink:title=" ">
<polygon fill="white" stroke="black" points="1366.5,-369.5 1366.5,-388.5 1460.5,-388.5 1460.5,-369.5 1366.5,-369.5"/>
<text text-anchor="middle" x="1413.5" y="-376.5" font-family="Helvetica,sans-Serif" font-size="10.00">utils/formulas.hpp</text>
</a>
</g>
</g>
<!-- Node1&#45;&gt;Node32 -->
<g id="edge45" class="edge">
<title>Node1&#45;&gt;Node32</title>
<path fill="none" stroke="midnightblue" d="M1297.52,-425.4C1323.14,-415.37 1357.23,-402.03 1381.81,-392.4"/>
<polygon fill="midnightblue" stroke="midnightblue" points="1383.35,-395.56 1391.38,-388.66 1380.79,-389.04 1383.35,-395.56"/>
</g>
<!-- Node3 -->
<g id="node3" class="node">
<title>Node3</title>
<g id="a_node3"><a xlink:title=" ">
<polygon fill="white" stroke="#bfbfbf" points="720,-241 720,-260 815,-260 815,-241 720,-241"/>
<text text-anchor="middle" x="767.5" y="-248" font-family="Helvetica,sans-Serif" font-size="10.00">gtest/gtest_prod.h</text>
</a>
</g>
</g>
<!-- Node2&#45;&gt;Node3 -->
<g id="edge2" class="edge">
<title>Node2&#45;&gt;Node3</title>
<path fill="none" stroke="midnightblue" d="M575.85,-307.87C615.17,-296.3 685.05,-275.75 728.69,-262.91"/>
<polygon fill="midnightblue" stroke="midnightblue" points="729.78,-266.24 738.38,-260.06 727.8,-259.53 729.78,-266.24"/>
</g>
<!-- Node4 -->
<g id="node4" class="node">
<title>Node4</title>
<g id="a_node4"><a xlink:title=" ">
<polygon fill="white" stroke="#bfbfbf" points="833,-241 833,-260 892,-260 892,-241 833,-241"/>
<text text-anchor="middle" x="862.5" y="-248" font-family="Helvetica,sans-Serif" font-size="10.00">functional</text>
</a>
</g>
</g>
<!-- Node2&#45;&gt;Node4 -->
<g id="edge3" class="edge">
<title>Node2&#45;&gt;Node4</title>
<path fill="none" stroke="midnightblue" d="M583.21,-307.97C592.43,-305.92 602.31,-303.8 611.5,-302 705.28,-283.59 731.19,-290.76 823.5,-266 826.31,-265.25 829.21,-264.37 832.09,-263.43"/>
<polygon fill="midnightblue" stroke="midnightblue" points="833.41,-266.67 841.68,-260.06 831.09,-260.07 833.41,-266.67"/>
</g>
<!-- Node5 -->
<g id="node5" class="node">
<title>Node5</title>
<g id="a_node5"><a xlink:title=" ">
<polygon fill="white" stroke="#bfbfbf" points="910.5,-241 910.5,-260 962.5,-260 962.5,-241 910.5,-241"/>
<text text-anchor="middle" x="936.5" y="-248" font-family="Helvetica,sans-Serif" font-size="10.00">memory</text>
</a>
</g>
</g>
<!-- Node2&#45;&gt;Node5 -->
<g id="edge4" class="edge">
<title>Node2&#45;&gt;Node5</title>
<path fill="none" stroke="midnightblue" d="M581.8,-307.98C591.4,-305.84 601.82,-303.68 611.5,-302 739.03,-279.88 775.2,-298.45 900.5,-266 903.01,-265.35 905.58,-264.57 908.14,-263.71"/>
<polygon fill="midnightblue" stroke="midnightblue" points="909.61,-266.89 917.75,-260.12 907.16,-260.33 909.61,-266.89"/>
</g>
<!-- Node6 -->
<g id="node6" class="node">
<title>Node6</title>
<g id="a_node6"><a xlink:title=" ">
<polygon fill="white" stroke="#bfbfbf" points="948,-0.5 948,-19.5 989,-19.5 989,-0.5 948,-0.5"/>
<text text-anchor="middle" x="968.5" y="-7.5" font-family="Helvetica,sans-Serif" font-size="10.00">string</text>
</a>
</g>
</g>
<!-- Node2&#45;&gt;Node6 -->
<g id="edge5" class="edge">
<title>Node2&#45;&gt;Node6</title>
<path fill="none" stroke="midnightblue" d="M580.74,-307.95C590.62,-305.73 601.44,-303.54 611.5,-302 706.07,-287.55 967.76,-328.14 1040.5,-266 1068.86,-241.78 1060.5,-221.8 1060.5,-184.5 1060.5,-184.5 1060.5,-184.5 1060.5,-121 1060.5,-78.5 1019.59,-43.77 992.33,-25.34"/>
<polygon fill="midnightblue" stroke="midnightblue" points="993.99,-22.24 983.69,-19.73 990.17,-28.11 993.99,-22.24"/>
</g>
<!-- Node7 -->
<g id="node7" class="node">
<title>Node7</title>
<g id="a_node7"><a xlink:title=" ">
<polygon fill="white" stroke="#bfbfbf" points="981,-241 981,-260 1032,-260 1032,-241 981,-241"/>
<text text-anchor="middle" x="1006.5" y="-248" font-family="Helvetica,sans-Serif" font-size="10.00">typeinfo</text>
</a>
</g>
</g>
<!-- Node2&#45;&gt;Node7 -->
<g id="edge6" class="edge">
<title>Node2&#45;&gt;Node7</title>
<path fill="none" stroke="midnightblue" d="M581.1,-307.98C590.88,-305.79 601.57,-303.6 611.5,-302 770.26,-276.45 815.55,-305.19 971.5,-266 974.01,-265.37 976.58,-264.59 979.12,-263.72"/>
<polygon fill="midnightblue" stroke="midnightblue" points="980.59,-266.91 988.68,-260.06 978.09,-260.37 980.59,-266.91"/>
</g>
<!-- Node8 -->
<g id="node8" class="node">
<title>Node8</title>
<g id="a_node8"><a xlink:title=" ">
<polygon fill="white" stroke="#bfbfbf" points="125,-235.5 125,-265.5 244,-265.5 244,-235.5 125,-235.5"/>
<text text-anchor="start" x="133" y="-253.5" font-family="Helvetica,sans-Serif" font-size="10.00">custom_interfaces/msg</text>
<text text-anchor="middle" x="184.5" y="-242.5" font-family="Helvetica,sans-Serif" font-size="10.00">/cone_array.hpp</text>
</a>
</g>
</g>
<!-- Node2&#45;&gt;Node8 -->
<g id="edge7" class="edge">
<title>Node2&#45;&gt;Node8</title>
<path fill="none" stroke="midnightblue" d="M493,-307.97C436.13,-298.75 343.3,-283.29 254.18,-266.28"/>
<polygon fill="midnightblue" stroke="midnightblue" points="254.66,-262.81 244.18,-264.37 253.34,-269.69 254.66,-262.81"/>
</g>
<!-- Node9 -->
<g id="node9" class="node">
<title>Node9</title>
<g id="a_node9"><a xlink:title=" ">
<polygon fill="white" stroke="#bfbfbf" points="262,-235.5 262,-265.5 381,-265.5 381,-235.5 262,-235.5"/>
<text text-anchor="start" x="270" y="-253.5" font-family="Helvetica,sans-Serif" font-size="10.00">custom_interfaces/msg</text>
<text text-anchor="middle" x="321.5" y="-242.5" font-family="Helvetica,sans-Serif" font-size="10.00">/point2d.hpp</text>
</a>
</g>
</g>
<!-- Node2&#45;&gt;Node9 -->
<g id="edge8" class="edge">
<title>Node2&#45;&gt;Node9</title>
<path fill="none" stroke="midnightblue" d="M516.62,-307.87C481.84,-297.82 423.56,-280.99 379.74,-268.32"/>
<polygon fill="midnightblue" stroke="midnightblue" points="380.64,-264.94 370.06,-265.53 378.69,-271.67 380.64,-264.94"/>
</g>
<!-- Node10 -->
<g id="node10" class="node">
<title>Node10</title>
<g id="a_node10"><a xlink:title=" ">
<polygon fill="white" stroke="#bfbfbf" points="399,-235.5 399,-265.5 518,-265.5 518,-235.5 399,-235.5"/>
<text text-anchor="start" x="407" y="-253.5" font-family="Helvetica,sans-Serif" font-size="10.00">custom_interfaces/msg</text>
<text text-anchor="middle" x="458.5" y="-242.5" font-family="Helvetica,sans-Serif" font-size="10.00">/pose.hpp</text>
</a>
</g>
</g>
<!-- Node2&#45;&gt;Node10 -->
<g id="edge9" class="edge">
<title>Node2&#45;&gt;Node10</title>
<path fill="none" stroke="midnightblue" d="M534.63,-307.73C522.17,-298.53 502.14,-283.73 485.75,-271.63"/>
<polygon fill="midnightblue" stroke="midnightblue" points="487.7,-268.72 477.57,-265.59 483.54,-274.35 487.7,-268.72"/>
</g>
<!-- Node11 -->
<g id="node11" class="node">
<title>Node11</title>
<g id="a_node11"><a xlink:title=" ">
<polygon fill="white" stroke="#bfbfbf" points="1253,-235.5 1253,-265.5 1368,-265.5 1368,-235.5 1253,-235.5"/>
<text text-anchor="start" x="1261" y="-253.5" font-family="Helvetica,sans-Serif" font-size="10.00">eufs_msgs/msg/wheel</text>
<text text-anchor="middle" x="1310.5" y="-242.5" font-family="Helvetica,sans-Serif" font-size="10.00">_speeds_stamped.hpp</text>
</a>
</g>
</g>
<!-- Node2&#45;&gt;Node11 -->
<g id="edge10" class="edge">
<title>Node2&#45;&gt;Node11</title>
<path fill="none" stroke="midnightblue" d="M580.05,-307.93C590.1,-305.66 601.19,-303.44 611.5,-302 886.19,-263.68 959.25,-300.06 1234.5,-266 1237.22,-265.66 1239.99,-265.29 1242.78,-264.88"/>
<polygon fill="midnightblue" stroke="midnightblue" points="1243.6,-268.3 1252.95,-263.3 1242.53,-261.38 1243.6,-268.3"/>
</g>
<!-- Node12 -->
<g id="node12" class="node">
<title>Node12</title>
<g id="a_node12"><a xlink:href="ekf_8hpp.html" target="_top" xlink:title=" ">
<polygon fill="white" stroke="black" points="0,-241 0,-260 107,-260 107,-241 0,-241"/>
<text text-anchor="middle" x="53.5" y="-248" font-family="Helvetica,sans-Serif" font-size="10.00">kalman_filter/ekf.hpp</text>
</a>
</g>
</g>
<!-- Node2&#45;&gt;Node12 -->
<g id="edge11" class="edge">
<title>Node2&#45;&gt;Node12</title>
<path fill="none" stroke="midnightblue" d="M490.42,-311.97C407.89,-304.84 249.08,-289.37 115.5,-266 109.35,-264.92 102.91,-263.62 96.59,-262.24"/>
<polygon fill="midnightblue" stroke="midnightblue" points="97.35,-258.82 86.82,-260.02 95.8,-265.65 97.35,-258.82"/>
</g>
<!-- Node16 -->
<g id="node16" class="node">
<title>Node16</title>
<g id="a_node16"><a xlink:href="data__structures_8hpp.html" target="_top" xlink:title=" ">
<polygon fill="white" stroke="black" points="475,-112.5 475,-131.5 618,-131.5 618,-112.5 475,-112.5"/>
<text text-anchor="middle" x="546.5" y="-119.5" font-family="Helvetica,sans-Serif" font-size="10.00">loc_map/data_structures.hpp</text>
</a>
</g>
</g>
<!-- Node2&#45;&gt;Node16 -->
<g id="edge28" class="edge">
<title>Node2&#45;&gt;Node16</title>
<path fill="none" stroke="midnightblue" d="M546.5,-307.94C546.5,-278.79 546.5,-182.97 546.5,-141.93"/>
<polygon fill="midnightblue" stroke="midnightblue" points="550,-141.91 546.5,-131.91 543,-141.91 550,-141.91"/>
</g>
<!-- Node22 -->
<g id="node22" class="node">
<title>Node22</title>
<g id="a_node22"><a xlink:title=" ">
<polygon fill="white" stroke="#bfbfbf" points="1391,-241 1391,-260 1482,-260 1482,-241 1391,-241"/>
<text text-anchor="middle" x="1436.5" y="-248" font-family="Helvetica,sans-Serif" font-size="10.00">rclcpp/rclcpp.hpp</text>
</a>
</g>
</g>
<!-- Node2&#45;&gt;Node22 -->
<g id="edge29" class="edge">
<title>Node2&#45;&gt;Node22</title>
<path fill="none" stroke="midnightblue" d="M579.7,-307.94C589.84,-305.63 601.07,-303.4 611.5,-302 949.3,-256.73 1040.21,-314.9 1377.5,-266 1383.8,-265.09 1390.41,-263.8 1396.84,-262.36"/>
<polygon fill="midnightblue" stroke="midnightblue" points="1397.79,-265.73 1406.71,-260.01 1396.17,-258.92 1397.79,-265.73"/>
</g>
<!-- Node23 -->
<g id="node23" class="node">
<title>Node23</title>
<g id="a_node23"><a xlink:title=" ">
<polygon fill="white" stroke="#bfbfbf" points="1091.5,-241 1091.5,-260 1225.5,-260 1225.5,-241 1091.5,-241"/>
<text text-anchor="middle" x="1158.5" y="-248" font-family="Helvetica,sans-Serif" font-size="10.00">sensor_msgs/msg/imu.hpp</text>
</a>
</g>
</g>
<!-- Node2&#45;&gt;Node23 -->
<g id="edge30" class="edge">
<title>Node2&#45;&gt;Node23</title>
<path fill="none" stroke="midnightblue" d="M580.4,-307.98C590.37,-305.74 601.32,-303.52 611.5,-302 815.63,-271.45 869.69,-291.58 1074.5,-266 1083.98,-264.82 1094.02,-263.31 1103.74,-261.71"/>
<polygon fill="midnightblue" stroke="midnightblue" points="1104.44,-265.14 1113.71,-260.03 1103.27,-258.24 1104.44,-265.14"/>
</g>
<!-- Node24 -->
<g id="node24" class="node">
<title>Node24</title>
<g id="a_node24"><a xlink:title=" ">
<polygon fill="white" stroke="#bfbfbf" points="575,-241 575,-260 702,-260 702,-241 575,-241"/>
<text text-anchor="middle" x="638.5" y="-248" font-family="Helvetica,sans-Serif" font-size="10.00">std_msgs/msg/string.hpp</text>
</a>
</g>
</g>
<!-- Node2&#45;&gt;Node24 -->
<g id="edge31" class="edge">
<title>Node2&#45;&gt;Node24</title>
<path fill="none" stroke="midnightblue" d="M558.91,-307.73C574.08,-297.01 599.98,-278.72 618.1,-265.91"/>
<polygon fill="midnightblue" stroke="midnightblue" points="620.14,-268.76 626.29,-260.13 616.1,-263.04 620.14,-268.76"/>
</g>
<!-- Node13 -->
<g id="node13" class="node">
<title>Node13</title>
<g id="a_node13"><a xlink:title=" ">
<polygon fill="white" stroke="#bfbfbf" points="145,-112.5 145,-131.5 218,-131.5 218,-112.5 145,-112.5"/>
<text text-anchor="middle" x="181.5" y="-119.5" font-family="Helvetica,sans-Serif" font-size="10.00">Eigen/Dense</text>
</a>
</g>
</g>
<!-- Node12&#45;&gt;Node13 -->
<g id="edge12" class="edge">
<title>Node12&#45;&gt;Node13</title>
<path fill="none" stroke="midnightblue" d="M49.58,-240.91C42.92,-224.9 31.6,-190.12 47.5,-168 67.26,-140.52 104.62,-129.59 134.88,-125.35"/>
<polygon fill="midnightblue" stroke="midnightblue" points="135.32,-128.82 144.83,-124.16 134.49,-121.87 135.32,-128.82"/>
</g>
<!-- Node14 -->
<g id="node14" class="node">
<title>Node14</title>
<g id="a_node14"><a xlink:title=" ">
<polygon fill="white" stroke="#bfbfbf" points="56.5,-174 56.5,-193 100.5,-193 100.5,-174 56.5,-174"/>
<text text-anchor="middle" x="78.5" y="-181" font-family="Helvetica,sans-Serif" font-size="10.00">vector</text>
</a>
</g>
</g>
<!-- Node12&#45;&gt;Node14 -->
<g id="edge13" class="edge">
<title>Node12&#45;&gt;Node14</title>
<path fill="none" stroke="midnightblue" d="M56.87,-240.73C60.62,-230.99 66.78,-214.98 71.56,-202.53"/>
<polygon fill="midnightblue" stroke="midnightblue" points="74.86,-203.72 75.18,-193.13 68.33,-201.2 74.86,-203.72"/>
</g>
<!-- Node15 -->
<g id="node15" class="node">
<title>Node15</title>
<g id="a_node15"><a xlink:href="motion__models_8hpp.html" target="_top" xlink:title=" ">
<polygon fill="white" stroke="black" points="262.5,-168.5 262.5,-198.5 366.5,-198.5 366.5,-168.5 262.5,-168.5"/>
<text text-anchor="start" x="270.5" y="-186.5" font-family="Helvetica,sans-Serif" font-size="10.00">kalman_filter/motion</text>
<text text-anchor="middle" x="314.5" y="-175.5" font-family="Helvetica,sans-Serif" font-size="10.00">_models.hpp</text>
</a>
</g>
</g>
<!-- Node12&#45;&gt;Node15 -->
<g id="edge14" class="edge">
<title>Node12&#45;&gt;Node15</title>
<path fill="none" stroke="midnightblue" d="M87.89,-240.94C129.68,-230.53 200.96,-212.78 252.44,-199.96"/>
<polygon fill="midnightblue" stroke="midnightblue" points="253.6,-203.27 262.46,-197.46 251.91,-196.48 253.6,-203.27"/>
</g>
<!-- Node12&#45;&gt;Node16 -->
<g id="edge27" class="edge">
<title>Node12&#45;&gt;Node16</title>
<path fill="none" stroke="midnightblue" d="M87.49,-240.96C96.56,-238.84 106.37,-236.7 115.5,-235 230.2,-213.69 263.32,-231 375.5,-199 429.86,-183.49 489.32,-153.96 521.84,-136.62"/>
<polygon fill="midnightblue" stroke="midnightblue" points="523.89,-139.49 531.03,-131.67 520.57,-133.33 523.89,-139.49"/>
</g>
<!-- Node21 -->
<g id="node21" class="node">
<title>Node21</title>
<g id="a_node21"><a xlink:href="observation__models_8hpp.html" target="_top" xlink:title=" ">
<polygon fill="white" stroke="black" points="119,-168.5 119,-198.5 244,-198.5 244,-168.5 119,-168.5"/>
<text text-anchor="start" x="127" y="-186.5" font-family="Helvetica,sans-Serif" font-size="10.00">kalman_filter/observation</text>
<text text-anchor="middle" x="181.5" y="-175.5" font-family="Helvetica,sans-Serif" font-size="10.00">_models.hpp</text>
</a>
</g>
</g>
<!-- Node12&#45;&gt;Node21 -->
<g id="edge24" class="edge">
<title>Node12&#45;&gt;Node21</title>
<path fill="none" stroke="midnightblue" d="M70.5,-240.87C89.31,-231.31 120.2,-215.63 144.63,-203.22"/>
<polygon fill="midnightblue" stroke="midnightblue" points="146.3,-206.3 153.63,-198.65 143.13,-200.06 146.3,-206.3"/>
</g>
<!-- Node15&#45;&gt;Node13 -->
<g id="edge15" class="edge">
<title>Node15&#45;&gt;Node13</title>
<path fill="none" stroke="midnightblue" d="M282.98,-168.4C260.86,-158.51 231.53,-145.38 210.09,-135.79"/>
<polygon fill="midnightblue" stroke="midnightblue" points="211.41,-132.55 200.85,-131.66 208.55,-138.94 211.41,-132.55"/>
</g>
<!-- Node15&#45;&gt;Node16 -->
<g id="edge16" class="edge">
<title>Node15&#45;&gt;Node16</title>
<path fill="none" stroke="midnightblue" d="M366.57,-169.15C407.77,-158.58 464.63,-144 503.33,-134.07"/>
<polygon fill="midnightblue" stroke="midnightblue" points="504.43,-137.4 513.24,-131.53 502.69,-130.62 504.43,-137.4"/>
</g>
<!-- Node16&#45;&gt;Node6 -->
<g id="edge19" class="edge">
<title>Node16&#45;&gt;Node6</title>
<path fill="none" stroke="midnightblue" d="M579.26,-112.46C658.61,-91.78 860.23,-39.22 937.61,-19.05"/>
<polygon fill="midnightblue" stroke="midnightblue" points="938.89,-22.34 947.68,-16.43 937.12,-15.56 938.89,-22.34"/>
</g>
<!-- Node17 -->
<g id="node17" class="node">
<title>Node17</title>
<g id="a_node17"><a xlink:title=" ">
<polygon fill="white" stroke="#bfbfbf" points="523.5,-56.5 523.5,-75.5 569.5,-75.5 569.5,-56.5 523.5,-56.5"/>
<text text-anchor="middle" x="546.5" y="-63.5" font-family="Helvetica,sans-Serif" font-size="10.00">chrono</text>
</a>
</g>
</g>
<!-- Node16&#45;&gt;Node17 -->
<g id="edge17" class="edge">
<title>Node16&#45;&gt;Node17</title>
<path fill="none" stroke="midnightblue" d="M546.5,-112.08C546.5,-105.01 546.5,-94.86 546.5,-85.99"/>
<polygon fill="midnightblue" stroke="midnightblue" points="550,-85.75 546.5,-75.75 543,-85.75 550,-85.75"/>
</g>
<!-- Node18 -->
<g id="node18" class="node">
<title>Node18</title>
<g id="a_node18"><a xlink:title=" ">
<polygon fill="white" stroke="#bfbfbf" points="614,-0.5 614,-19.5 649,-19.5 649,-0.5 614,-0.5"/>
<text text-anchor="middle" x="631.5" y="-7.5" font-family="Helvetica,sans-Serif" font-size="10.00">map</text>
</a>
</g>
</g>
<!-- Node16&#45;&gt;Node18 -->
<g id="edge18" class="edge">
<title>Node16&#45;&gt;Node18</title>
<path fill="none" stroke="midnightblue" d="M553.17,-112.37C567.26,-94.14 600.26,-51.43 618.61,-27.68"/>
<polygon fill="midnightblue" stroke="midnightblue" points="621.52,-29.64 624.86,-19.59 615.98,-25.36 621.52,-29.64"/>
</g>
<!-- Node19 -->
<g id="node19" class="node">
<title>Node19</title>
<g id="a_node19"><a xlink:href="color_8hpp.html" target="_top" xlink:title=" ">
<polygon fill="white" stroke="black" points="626,-56.5 626,-75.5 703,-75.5 703,-56.5 626,-56.5"/>
<text text-anchor="middle" x="664.5" y="-63.5" font-family="Helvetica,sans-Serif" font-size="10.00">utils/color.hpp</text>
</a>
</g>
</g>
<!-- Node16&#45;&gt;Node19 -->
<g id="edge20" class="edge">
<title>Node16&#45;&gt;Node19</title>
<path fill="none" stroke="midnightblue" d="M565.2,-112.44C584.44,-103.64 614.65,-89.81 636.7,-79.72"/>
<polygon fill="midnightblue" stroke="midnightblue" points="638.25,-82.86 645.89,-75.52 635.34,-76.5 638.25,-82.86"/>
</g>
<!-- Node20 -->
<g id="node20" class="node">
<title>Node20</title>
<g id="a_node20"><a xlink:href="position_8hpp.html" target="_top" xlink:title=" ">
<polygon fill="white" stroke="black" points="415.5,-56.5 415.5,-75.5 505.5,-75.5 505.5,-56.5 415.5,-56.5"/>
<text text-anchor="middle" x="460.5" y="-63.5" font-family="Helvetica,sans-Serif" font-size="10.00">utils/position.hpp</text>
</a>
</g>
</g>
<!-- Node16&#45;&gt;Node20 -->
<g id="edge23" class="edge">
<title>Node16&#45;&gt;Node20</title>
<path fill="none" stroke="midnightblue" d="M532.68,-112.32C519.27,-103.9 498.68,-90.97 482.91,-81.07"/>
<polygon fill="midnightblue" stroke="midnightblue" points="484.61,-78.01 474.28,-75.65 480.89,-83.94 484.61,-78.01"/>
</g>
<!-- Node19&#45;&gt;Node6 -->
<g id="edge22" class="edge">
<title>Node19&#45;&gt;Node6</title>
<path fill="none" stroke="midnightblue" d="M703,-58.16C764.09,-47.31 882.01,-26.36 937.8,-16.45"/>
<polygon fill="midnightblue" stroke="midnightblue" points="938.55,-19.87 947.79,-14.68 937.33,-12.98 938.55,-19.87"/>
</g>
<!-- Node19&#45;&gt;Node18 -->
<g id="edge21" class="edge">
<title>Node19&#45;&gt;Node18</title>
<path fill="none" stroke="midnightblue" d="M659.05,-56.08C654.49,-48.61 647.83,-37.72 642.21,-28.52"/>
<polygon fill="midnightblue" stroke="midnightblue" points="645.05,-26.46 636.85,-19.75 639.08,-30.11 645.05,-26.46"/>
</g>
<!-- Node21&#45;&gt;Node13 -->
<g id="edge25" class="edge">
<title>Node21&#45;&gt;Node13</title>
<path fill="none" stroke="midnightblue" d="M181.5,-168.4C181.5,-160.47 181.5,-150.46 181.5,-141.86"/>
<polygon fill="midnightblue" stroke="midnightblue" points="185,-141.66 181.5,-131.66 178,-141.66 185,-141.66"/>
</g>
<!-- Node21&#45;&gt;Node16 -->
<g id="edge26" class="edge">
<title>Node21&#45;&gt;Node16</title>
<path fill="none" stroke="midnightblue" d="M244.3,-169.68C247.41,-169.1 250.49,-168.53 253.5,-168 329.07,-154.6 416.02,-141.54 475.45,-132.97"/>
<polygon fill="midnightblue" stroke="midnightblue" points="476.08,-136.42 485.48,-131.53 475.08,-129.49 476.08,-136.42"/>
</g>
<!-- Node25&#45;&gt;Node2 -->
<g id="edge41" class="edge">
<title>Node25&#45;&gt;Node2</title>
<path fill="none" stroke="midnightblue" d="M1158.43,-376.64C1054.79,-373.34 812.58,-362.83 611.5,-333 604.66,-331.99 597.47,-330.65 590.47,-329.21"/>
<polygon fill="midnightblue" stroke="midnightblue" points="590.91,-325.72 580.4,-327.03 589.43,-332.57 590.91,-325.72"/>
</g>
<!-- Node25&#45;&gt;Node6 -->
<g id="edge33" class="edge">
<title>Node25&#45;&gt;Node6</title>
<path fill="none" stroke="midnightblue" d="M1260.7,-369.96C1333.79,-358.36 1460.29,-337.79 1469.5,-333 1514.8,-309.42 1550.5,-302.57 1550.5,-251.5 1550.5,-251.5 1550.5,-251.5 1550.5,-121 1550.5,-64.35 1119.31,-23.73 999.22,-13.51"/>
<polygon fill="midnightblue" stroke="midnightblue" points="999.47,-10.02 989.21,-12.67 998.89,-16.99 999.47,-10.02"/>
</g>
<!-- Node25&#45;&gt;Node11 -->
<g id="edge35" class="edge">
<title>Node25&#45;&gt;Node11</title>
<path fill="none" stroke="midnightblue" d="M1258.46,-369.44C1310.92,-359.76 1387.87,-343.95 1396.5,-333 1405.03,-322.18 1403.34,-313.96 1396.5,-302 1388.67,-288.32 1375.53,-277.98 1361.85,-270.34"/>
<polygon fill="midnightblue" stroke="midnightblue" points="1363.32,-267.16 1352.83,-265.7 1360.12,-273.39 1363.32,-267.16"/>
</g>
<!-- Node25&#45;&gt;Node16 -->
<g id="edge40" class="edge">
<title>Node25&#45;&gt;Node16</title>
<path fill="none" stroke="midnightblue" d="M1260.7,-369.59C1322.4,-359.16 1419.67,-341.72 1434.5,-333 1477.93,-307.46 1524.97,-272.67 1491.5,-235 1434.49,-170.83 847.24,-137.04 628.24,-126.59"/>
<polygon fill="midnightblue" stroke="midnightblue" points="628.25,-123.09 618.09,-126.11 627.92,-130.08 628.25,-123.09"/>
</g>
<!-- Node25&#45;&gt;Node22 -->
<g id="edge42" class="edge">
<title>Node25&#45;&gt;Node22</title>
<path fill="none" stroke="midnightblue" d="M1260.54,-369.46C1316.96,-359.59 1401.39,-343.38 1412.5,-333 1429.82,-316.83 1434.85,-288.85 1436.2,-270.26"/>
<polygon fill="midnightblue" stroke="midnightblue" points="1439.7,-270.23 1436.64,-260.09 1432.71,-269.93 1439.7,-270.23"/>
</g>
<!-- Node25&#45;&gt;Node23 -->
<g id="edge43" class="edge">
<title>Node25&#45;&gt;Node23</title>
<path fill="none" stroke="midnightblue" d="M1252.33,-369.48C1300.07,-359.56 1371.63,-343.22 1379.5,-333 1387.9,-322.08 1388.09,-312.77 1379.5,-302 1374.21,-295.36 1275.68,-274.74 1211.99,-261.99"/>
<polygon fill="midnightblue" stroke="midnightblue" points="1212.57,-258.54 1202.08,-260.02 1211.2,-265.4 1212.57,-258.54"/>
</g>
<!-- Node26 -->
<g id="node26" class="node">
<title>Node26</title>
<g id="a_node26"><a xlink:title=" ">
<polygon fill="white" stroke="#bfbfbf" points="621,-308 621,-327 772,-327 772,-308 621,-308"/>
<text text-anchor="middle" x="696.5" y="-315" font-family="Helvetica,sans-Serif" font-size="10.00">eufs_msgs/msg/can_state.hpp</text>
</a>
</g>
</g>
<!-- Node25&#45;&gt;Node26 -->
<g id="edge34" class="edge">
<title>Node25&#45;&gt;Node26</title>
<path fill="none" stroke="midnightblue" d="M1158.19,-373.73C1077.58,-366.77 916.43,-351.84 780.5,-333 771.46,-331.75 761.9,-330.26 752.59,-328.71"/>
<polygon fill="midnightblue" stroke="midnightblue" points="753.07,-325.25 742.63,-327.03 751.9,-332.15 753.07,-325.25"/>
</g>
<!-- Node27 -->
<g id="node27" class="node">
<title>Node27</title>
<g id="a_node27"><a xlink:title=" ">
<polygon fill="white" stroke="#bfbfbf" points="790,-302.5 790,-332.5 909,-332.5 909,-302.5 790,-302.5"/>
<text text-anchor="start" x="798" y="-320.5" font-family="Helvetica,sans-Serif" font-size="10.00">eufs_msgs/srv/set_can</text>
<text text-anchor="middle" x="849.5" y="-309.5" font-family="Helvetica,sans-Serif" font-size="10.00">_state.hpp</text>
</a>
</g>
</g>
<!-- Node25&#45;&gt;Node27 -->
<g id="edge36" class="edge">
<title>Node25&#45;&gt;Node27</title>
<path fill="none" stroke="midnightblue" d="M1158.45,-371.03C1102.16,-363.15 1008.69,-349.47 919.21,-333.26"/>
<polygon fill="midnightblue" stroke="midnightblue" points="919.63,-329.78 909.17,-331.42 918.37,-336.66 919.63,-329.78"/>
</g>
<!-- Node28 -->
<g id="node28" class="node">
<title>Node28</title>
<g id="a_node28"><a xlink:title=" ">
<polygon fill="white" stroke="#bfbfbf" points="927,-302.5 927,-332.5 1040,-332.5 1040,-302.5 927,-302.5"/>
<text text-anchor="start" x="935" y="-320.5" font-family="Helvetica,sans-Serif" font-size="10.00">fs_msgs/msg/finished</text>
<text text-anchor="middle" x="983.5" y="-309.5" font-family="Helvetica,sans-Serif" font-size="10.00">_signal.hpp</text>
</a>
</g>
</g>
<!-- Node25&#45;&gt;Node28 -->
<g id="edge37" class="edge">
<title>Node25&#45;&gt;Node28</title>
<path fill="none" stroke="midnightblue" d="M1177.12,-369.48C1143.15,-360.53 1088.9,-346.25 1046.45,-335.07"/>
<polygon fill="midnightblue" stroke="midnightblue" points="1047.33,-331.68 1036.76,-332.52 1045.54,-338.45 1047.33,-331.68"/>
</g>
<!-- Node29 -->
<g id="node29" class="node">
<title>Node29</title>
<g id="a_node29"><a xlink:title=" ">
<polygon fill="white" stroke="#bfbfbf" points="1058,-308 1058,-327 1197,-327 1197,-308 1058,-308"/>
<text text-anchor="middle" x="1127.5" y="-315" font-family="Helvetica,sans-Serif" font-size="10.00">fs_msgs/msg/go_signal.hpp</text>
</a>
</g>
</g>
<!-- Node25&#45;&gt;Node29 -->
<g id="edge38" class="edge">
<title>Node25&#45;&gt;Node29</title>
<path fill="none" stroke="midnightblue" d="M1197.75,-369.48C1184.72,-360.02 1163.46,-344.6 1147.74,-333.19"/>
<polygon fill="midnightblue" stroke="midnightblue" points="1149.38,-330.05 1139.23,-327.01 1145.27,-335.71 1149.38,-330.05"/>
</g>
<!-- Node30 -->
<g id="node30" class="node">
<title>Node30</title>
<g id="a_node30"><a xlink:title=" ">
<polygon fill="white" stroke="#bfbfbf" points="1215,-308 1215,-327 1370,-327 1370,-308 1215,-308"/>
<text text-anchor="middle" x="1292.5" y="-315" font-family="Helvetica,sans-Serif" font-size="10.00">fs_msgs/msg/wheel_states.hpp</text>
</a>
</g>
</g>
<!-- Node25&#45;&gt;Node30 -->
<g id="edge39" class="edge">
<title>Node25&#45;&gt;Node30</title>
<path fill="none" stroke="midnightblue" d="M1221.39,-369.48C1234.7,-359.93 1256.5,-344.31 1272.46,-332.87"/>
<polygon fill="midnightblue" stroke="midnightblue" points="1274.54,-335.68 1280.63,-327.01 1270.46,-329.99 1274.54,-335.68"/>
</g>
</g>
</svg>
