<?xml version="1.0" encoding="UTF-8" standalone="no"?>
<!DOCTYPE svg PUBLIC "-//W3C//DTD SVG 1.1//EN"
 "http://www.w3.org/Graphics/SVG/1.1/DTD/svg11.dtd">
<!-- Generated by graphviz version 2.43.0 (0)
 -->
<!-- Title: loc_map/include/loc_map/lm_node.hpp Pages: 1 -->
<svg width="1558pt" height="341pt"
 viewBox="0.00 0.00 1558.00 341.00" xmlns="http://www.w3.org/2000/svg" xmlns:xlink="http://www.w3.org/1999/xlink">
<g id="graph0" class="graph" transform="scale(1 1) rotate(0) translate(4 337)">
<title>loc_map/include/loc_map/lm_node.hpp</title>
<polygon fill="white" stroke="transparent" points="-4,4 -4,-337 1554,-337 1554,4 -4,4"/>
<!-- Node1 -->
<g id="node1" class="node">
<title>Node1</title>
<g id="a_node1"><a xlink:title=" ">
<polygon fill="#bfbfbf" stroke="black" points="573,-302.5 573,-332.5 676,-332.5 676,-302.5 573,-302.5"/>
<text text-anchor="start" x="581" y="-320.5" font-family="Helvetica,sans-Serif" font-size="10.00">loc_map/include/loc</text>
<text text-anchor="middle" x="624.5" y="-309.5" font-family="Helvetica,sans-Serif" font-size="10.00">_map/lm_node.hpp</text>
</a>
</g>
</g>
<!-- Node2 -->
<g id="node2" class="node">
<title>Node2</title>
<g id="a_node2"><a xlink:title=" ">
<polygon fill="white" stroke="#bfbfbf" points="0,-241 0,-260 95,-260 95,-241 0,-241"/>
<text text-anchor="middle" x="47.5" y="-248" font-family="Helvetica,sans-Serif" font-size="10.00">gtest/gtest_prod.h</text>
</a>
</g>
</g>
<!-- Node1&#45;&gt;Node2 -->
<g id="edge1" class="edge">
<title>Node1&#45;&gt;Node2</title>
<path fill="none" stroke="midnightblue" d="M572.74,-314.17C478.7,-309.35 273.75,-296.1 103.5,-266 98.06,-265.04 92.37,-263.82 86.8,-262.5"/>
<polygon fill="midnightblue" stroke="midnightblue" points="87.5,-259.07 76.95,-260.05 85.81,-265.86 87.5,-259.07"/>
</g>
<!-- Node3 -->
<g id="node3" class="node">
<title>Node3</title>
<g id="a_node3"><a xlink:title=" ">
<polygon fill="white" stroke="#bfbfbf" points="113,-241 113,-260 172,-260 172,-241 113,-241"/>
<text text-anchor="middle" x="142.5" y="-248" font-family="Helvetica,sans-Serif" font-size="10.00">functional</text>
</a>
</g>
</g>
<!-- Node1&#45;&gt;Node3 -->
<g id="edge2" class="edge">
<title>Node1&#45;&gt;Node3</title>
<path fill="none" stroke="midnightblue" d="M572.98,-314.67C489.65,-310.82 320.59,-299.26 181.5,-266 178.51,-265.28 175.43,-264.4 172.38,-263.44"/>
<polygon fill="midnightblue" stroke="midnightblue" points="173.45,-260.1 162.86,-260.13 171.15,-266.72 173.45,-260.1"/>
</g>
<!-- Node4 -->
<g id="node4" class="node">
<title>Node4</title>
<g id="a_node4"><a xlink:title=" ">
<polygon fill="white" stroke="#bfbfbf" points="190.5,-241 190.5,-260 242.5,-260 242.5,-241 190.5,-241"/>
<text text-anchor="middle" x="216.5" y="-248" font-family="Helvetica,sans-Serif" font-size="10.00">memory</text>
</a>
</g>
</g>
<!-- Node1&#45;&gt;Node4 -->
<g id="edge3" class="edge">
<title>Node1&#45;&gt;Node4</title>
<path fill="none" stroke="midnightblue" d="M572.96,-312.88C501.19,-307.07 367.47,-293.4 256.5,-266 253.44,-265.25 250.3,-264.34 247.17,-263.35"/>
<polygon fill="midnightblue" stroke="midnightblue" points="248.01,-259.94 237.42,-260.02 245.75,-266.57 248.01,-259.94"/>
</g>
<!-- Node5 -->
<g id="node5" class="node">
<title>Node5</title>
<g id="a_node5"><a xlink:title=" ">
<polygon fill="white" stroke="#bfbfbf" points="397,-0.5 397,-19.5 438,-19.5 438,-0.5 397,-0.5"/>
<text text-anchor="middle" x="417.5" y="-7.5" font-family="Helvetica,sans-Serif" font-size="10.00">string</text>
</a>
</g>
</g>
<!-- Node1&#45;&gt;Node5 -->
<g id="edge4" class="edge">
<title>Node1&#45;&gt;Node5</title>
<path fill="none" stroke="midnightblue" d="M572.98,-309.03C476.07,-293.78 272.91,-255.62 234.5,-199 198.76,-146.32 186.99,-105.91 226.5,-56 246.15,-31.18 337.95,-18.68 386.77,-13.69"/>
<polygon fill="midnightblue" stroke="midnightblue" points="387.17,-17.17 396.78,-12.72 386.49,-10.2 387.17,-17.17"/>
</g>
<!-- Node6 -->
<g id="node6" class="node">
<title>Node6</title>
<g id="a_node6"><a xlink:title=" ">
<polygon fill="white" stroke="#bfbfbf" points="548,-241 548,-260 599,-260 599,-241 548,-241"/>
<text text-anchor="middle" x="573.5" y="-248" font-family="Helvetica,sans-Serif" font-size="10.00">typeinfo</text>
</a>
</g>
</g>
<!-- Node1&#45;&gt;Node6 -->
<g id="edge5" class="edge">
<title>Node1&#45;&gt;Node6</title>
<path fill="none" stroke="midnightblue" d="M613.43,-302.4C605.56,-292.36 594.95,-278.84 586.65,-268.25"/>
<polygon fill="midnightblue" stroke="midnightblue" points="589.25,-265.9 580.32,-260.19 583.74,-270.22 589.25,-265.9"/>
</g>
<!-- Node7 -->
<g id="node7" class="node">
<title>Node7</title>
<g id="a_node7"><a xlink:title=" ">
<polygon fill="white" stroke="#bfbfbf" points="617,-235.5 617,-265.5 736,-265.5 736,-235.5 617,-235.5"/>
<text text-anchor="start" x="625" y="-253.5" font-family="Helvetica,sans-Serif" font-size="10.00">custom_interfaces/msg</text>
<text text-anchor="middle" x="676.5" y="-242.5" font-family="Helvetica,sans-Serif" font-size="10.00">/cone_array.hpp</text>
</a>
</g>
</g>
<!-- Node1&#45;&gt;Node7 -->
<g id="edge6" class="edge">
<title>Node1&#45;&gt;Node7</title>
<path fill="none" stroke="midnightblue" d="M635.78,-302.4C642.53,-293.96 651.25,-283.07 658.88,-273.52"/>
<polygon fill="midnightblue" stroke="midnightblue" points="661.72,-275.57 665.24,-265.58 656.26,-271.2 661.72,-275.57"/>
</g>
<!-- Node8 -->
<g id="node8" class="node">
<title>Node8</title>
<g id="a_node8"><a xlink:title=" ">
<polygon fill="white" stroke="#bfbfbf" points="754,-235.5 754,-265.5 873,-265.5 873,-235.5 754,-235.5"/>
<text text-anchor="start" x="762" y="-253.5" font-family="Helvetica,sans-Serif" font-size="10.00">custom_interfaces/msg</text>
<text text-anchor="middle" x="813.5" y="-242.5" font-family="Helvetica,sans-Serif" font-size="10.00">/point2d.hpp</text>
</a>
</g>
</g>
<!-- Node1&#45;&gt;Node8 -->
<g id="edge7" class="edge">
<title>Node1&#45;&gt;Node8</title>
<path fill="none" stroke="midnightblue" d="M665.51,-302.4C694.12,-292.56 732.47,-279.37 762.97,-268.88"/>
<polygon fill="midnightblue" stroke="midnightblue" points="764.25,-272.14 772.57,-265.58 761.98,-265.52 764.25,-272.14"/>
</g>
<!-- Node9 -->
<g id="node9" class="node">
<title>Node9</title>
<g id="a_node9"><a xlink:title=" ">
<polygon fill="white" stroke="#bfbfbf" points="891,-235.5 891,-265.5 1010,-265.5 1010,-235.5 891,-235.5"/>
<text text-anchor="start" x="899" y="-253.5" font-family="Helvetica,sans-Serif" font-size="10.00">custom_interfaces/msg</text>
<text text-anchor="middle" x="950.5" y="-242.5" font-family="Helvetica,sans-Serif" font-size="10.00">/pose.hpp</text>
</a>
</g>
</g>
<!-- Node1&#45;&gt;Node9 -->
<g id="edge8" class="edge">
<title>Node1&#45;&gt;Node9</title>
<path fill="none" stroke="midnightblue" d="M676.44,-306.6C726.44,-297.01 804.45,-281.89 881,-266.29"/>
<polygon fill="midnightblue" stroke="midnightblue" points="881.71,-269.72 890.81,-264.29 880.31,-262.86 881.71,-269.72"/>
</g>
<!-- Node10 -->
<g id="node10" class="node">
<title>Node10</title>
<g id="a_node10"><a xlink:title=" ">
<polygon fill="white" stroke="#bfbfbf" points="1028,-235.5 1028,-265.5 1143,-265.5 1143,-235.5 1028,-235.5"/>
<text text-anchor="start" x="1036" y="-253.5" font-family="Helvetica,sans-Serif" font-size="10.00">eufs_msgs/msg/wheel</text>
<text text-anchor="middle" x="1085.5" y="-242.5" font-family="Helvetica,sans-Serif" font-size="10.00">_speeds_stamped.hpp</text>
</a>
</g>
</g>
<!-- Node1&#45;&gt;Node10 -->
<g id="edge9" class="edge">
<title>Node1&#45;&gt;Node10</title>
<path fill="none" stroke="midnightblue" d="M676.17,-311.38C749.9,-303.74 889.73,-288.06 1017.97,-266.18"/>
<polygon fill="midnightblue" stroke="midnightblue" points="1018.71,-269.6 1027.97,-264.46 1017.52,-262.7 1018.71,-269.6"/>
</g>
<!-- Node11 -->
<g id="node11" class="node">
<title>Node11</title>
<g id="a_node11"><a xlink:href="ekf_8hpp.html" target="_top" xlink:title=" ">
<polygon fill="white" stroke="black" points="384,-241 384,-260 491,-260 491,-241 384,-241"/>
<text text-anchor="middle" x="437.5" y="-248" font-family="Helvetica,sans-Serif" font-size="10.00">kalman_filter/ekf.hpp</text>
</a>
</g>
</g>
<!-- Node1&#45;&gt;Node11 -->
<g id="edge10" class="edge">
<title>Node1&#45;&gt;Node11</title>
<path fill="none" stroke="midnightblue" d="M583.92,-302.4C550.39,-290.74 503.3,-274.37 471.67,-263.38"/>
<polygon fill="midnightblue" stroke="midnightblue" points="472.57,-259.98 461.97,-260.01 470.27,-266.6 472.57,-259.98"/>
</g>
<!-- Node15 -->
<g id="node15" class="node">
<title>Node15</title>
<g id="a_node15"><a xlink:href="data__structures_8hpp.html" target="_top" xlink:title=" ">
<polygon fill="white" stroke="black" points="366,-112.5 366,-131.5 509,-131.5 509,-112.5 366,-112.5"/>
<text text-anchor="middle" x="437.5" y="-119.5" font-family="Helvetica,sans-Serif" font-size="10.00">loc_map/data_structures.hpp</text>
</a>
</g>
</g>
<!-- Node1&#45;&gt;Node15 -->
<g id="edge27" class="edge">
<title>Node1&#45;&gt;Node15</title>
<path fill="none" stroke="midnightblue" d="M583.1,-302.4C566.47,-294.46 549.01,-282.71 539.5,-266 532.69,-254.03 533.28,-247.29 539.5,-235 551.7,-210.89 576.3,-223.11 588.5,-199 594.72,-186.71 596.73,-179.05 588.5,-168 572.19,-146.12 545.66,-134.46 519.36,-128.38"/>
<polygon fill="midnightblue" stroke="midnightblue" points="519.81,-124.9 509.31,-126.31 518.4,-131.75 519.81,-124.9"/>
</g>
<!-- Node21 -->
<g id="node21" class="node">
<title>Node21</title>
<g id="a_node21"><a xlink:title=" ">
<polygon fill="white" stroke="#bfbfbf" points="1161,-241 1161,-260 1252,-260 1252,-241 1161,-241"/>
<text text-anchor="middle" x="1206.5" y="-248" font-family="Helvetica,sans-Serif" font-size="10.00">rclcpp/rclcpp.hpp</text>
</a>
</g>
</g>
<!-- Node1&#45;&gt;Node21 -->
<g id="edge28" class="edge">
<title>Node1&#45;&gt;Node21</title>
<path fill="none" stroke="midnightblue" d="M676.23,-314.42C771.24,-309.97 979.65,-297.25 1152.5,-266 1157.62,-265.07 1162.97,-263.9 1168.22,-262.62"/>
<polygon fill="midnightblue" stroke="midnightblue" points="1169.3,-265.96 1178.12,-260.07 1167.56,-259.18 1169.3,-265.96"/>
</g>
<!-- Node22 -->
<g id="node22" class="node">
<title>Node22</title>
<g id="a_node22"><a xlink:title=" ">
<polygon fill="white" stroke="#bfbfbf" points="1270.5,-241 1270.5,-260 1404.5,-260 1404.5,-241 1270.5,-241"/>
<text text-anchor="middle" x="1337.5" y="-248" font-family="Helvetica,sans-Serif" font-size="10.00">sensor_msgs/msg/imu.hpp</text>
</a>
</g>
</g>
<!-- Node1&#45;&gt;Node22 -->
<g id="edge29" class="edge">
<title>Node1&#45;&gt;Node22</title>
<path fill="none" stroke="midnightblue" d="M676.31,-314.32C785.11,-309.31 1045.18,-295.12 1261.5,-266 1269.92,-264.87 1278.82,-263.41 1287.45,-261.85"/>
<polygon fill="midnightblue" stroke="midnightblue" points="1288.21,-265.27 1297.4,-260 1286.93,-258.39 1288.21,-265.27"/>
</g>
<!-- Node23 -->
<g id="node23" class="node">
<title>Node23</title>
<g id="a_node23"><a xlink:title=" ">
<polygon fill="white" stroke="#bfbfbf" points="1423,-241 1423,-260 1550,-260 1550,-241 1423,-241"/>
<text text-anchor="middle" x="1486.5" y="-248" font-family="Helvetica,sans-Serif" font-size="10.00">std_msgs/msg/string.hpp</text>
</a>
</g>
</g>
<!-- Node1&#45;&gt;Node23 -->
<g id="edge30" class="edge">
<title>Node1&#45;&gt;Node23</title>
<path fill="none" stroke="midnightblue" d="M676.43,-315.55C802.98,-312.71 1137.21,-302.12 1413.5,-266 1421.61,-264.94 1430.17,-263.52 1438.46,-261.98"/>
<polygon fill="midnightblue" stroke="midnightblue" points="1439.24,-265.39 1448.39,-260.06 1437.91,-258.52 1439.24,-265.39"/>
</g>
<!-- Node12 -->
<g id="node12" class="node">
<title>Node12</title>
<g id="a_node12"><a xlink:title=" ">
<polygon fill="white" stroke="#bfbfbf" points="268,-112.5 268,-131.5 341,-131.5 341,-112.5 268,-112.5"/>
<text text-anchor="middle" x="304.5" y="-119.5" font-family="Helvetica,sans-Serif" font-size="10.00">Eigen/Dense</text>
</a>
</g>
</g>
<!-- Node11&#45;&gt;Node12 -->
<g id="edge11" class="edge">
<title>Node11&#45;&gt;Node12</title>
<path fill="none" stroke="midnightblue" d="M383.78,-242.89C332.5,-235.34 260.58,-221.1 243.5,-199 235.07,-188.1 237.29,-180.3 243.5,-168 250.31,-154.52 263.27,-144.08 275.5,-136.67"/>
<polygon fill="midnightblue" stroke="midnightblue" points="277.57,-139.52 284.59,-131.59 274.16,-133.41 277.57,-139.52"/>
</g>
<!-- Node13 -->
<g id="node13" class="node">
<title>Node13</title>
<g id="a_node13"><a xlink:title=" ">
<polygon fill="white" stroke="#bfbfbf" points="518.5,-174 518.5,-193 562.5,-193 562.5,-174 518.5,-174"/>
<text text-anchor="middle" x="540.5" y="-181" font-family="Helvetica,sans-Serif" font-size="10.00">vector</text>
</a>
</g>
</g>
<!-- Node11&#45;&gt;Node13 -->
<g id="edge12" class="edge">
<title>Node11&#45;&gt;Node13</title>
<path fill="none" stroke="midnightblue" d="M451.39,-240.73C468.53,-229.92 497.9,-211.38 518.21,-198.57"/>
<polygon fill="midnightblue" stroke="midnightblue" points="520.24,-201.42 526.83,-193.13 516.5,-195.5 520.24,-201.42"/>
</g>
<!-- Node14 -->
<g id="node14" class="node">
<title>Node14</title>
<g id="a_node14"><a xlink:href="motion__models_8hpp.html" target="_top" xlink:title=" ">
<polygon fill="white" stroke="black" points="252.5,-168.5 252.5,-198.5 356.5,-198.5 356.5,-168.5 252.5,-168.5"/>
<text text-anchor="start" x="260.5" y="-186.5" font-family="Helvetica,sans-Serif" font-size="10.00">kalman_filter/motion</text>
<text text-anchor="middle" x="304.5" y="-175.5" font-family="Helvetica,sans-Serif" font-size="10.00">_models.hpp</text>
</a>
</g>
</g>
<!-- Node11&#45;&gt;Node14 -->
<g id="edge13" class="edge">
<title>Node11&#45;&gt;Node14</title>
<path fill="none" stroke="midnightblue" d="M419.84,-240.87C400.14,-231.24 367.7,-215.39 342.23,-202.94"/>
<polygon fill="midnightblue" stroke="midnightblue" points="343.72,-199.77 333.2,-198.53 340.65,-206.06 343.72,-199.77"/>
</g>
<!-- Node11&#45;&gt;Node15 -->
<g id="edge26" class="edge">
<title>Node11&#45;&gt;Node15</title>
<path fill="none" stroke="midnightblue" d="M481.43,-240.91C530.16,-229.33 598.6,-205.69 571.5,-168 558.95,-150.54 539.29,-139.76 518.86,-133.14"/>
<polygon fill="midnightblue" stroke="midnightblue" points="519.7,-129.74 509.12,-130.29 517.74,-136.45 519.7,-129.74"/>
</g>
<!-- Node20 -->
<g id="node20" class="node">
<title>Node20</title>
<g id="a_node20"><a xlink:href="observation__models_8hpp.html" target="_top" xlink:title=" ">
<polygon fill="white" stroke="black" points="375,-168.5 375,-198.5 500,-198.5 500,-168.5 375,-168.5"/>
<text text-anchor="start" x="383" y="-186.5" font-family="Helvetica,sans-Serif" font-size="10.00">kalman_filter/observation</text>
<text text-anchor="middle" x="437.5" y="-175.5" font-family="Helvetica,sans-Serif" font-size="10.00">_models.hpp</text>
</a>
</g>
</g>
<!-- Node11&#45;&gt;Node20 -->
<g id="edge23" class="edge">
<title>Node11&#45;&gt;Node20</title>
<path fill="none" stroke="midnightblue" d="M437.5,-240.73C437.5,-232.54 437.5,-219.92 437.5,-208.71"/>
<polygon fill="midnightblue" stroke="midnightblue" points="441,-208.59 437.5,-198.59 434,-208.59 441,-208.59"/>
</g>
<!-- Node14&#45;&gt;Node12 -->
<g id="edge14" class="edge">
<title>Node14&#45;&gt;Node12</title>
<path fill="none" stroke="midnightblue" d="M304.5,-168.4C304.5,-160.47 304.5,-150.46 304.5,-141.86"/>
<polygon fill="midnightblue" stroke="midnightblue" points="308,-141.66 304.5,-131.66 301,-141.66 308,-141.66"/>
</g>
<!-- Node14&#45;&gt;Node15 -->
<g id="edge15" class="edge">
<title>Node14&#45;&gt;Node15</title>
<path fill="none" stroke="midnightblue" d="M336.02,-168.4C358.14,-158.51 387.47,-145.38 408.91,-135.79"/>
<polygon fill="midnightblue" stroke="midnightblue" points="410.45,-138.94 418.15,-131.66 407.59,-132.55 410.45,-138.94"/>
</g>
<!-- Node15&#45;&gt;Node5 -->
<g id="edge18" class="edge">
<title>Node15&#45;&gt;Node5</title>
<path fill="none" stroke="midnightblue" d="M435.93,-112.37C432.7,-94.62 425.26,-53.67 420.88,-29.6"/>
<polygon fill="midnightblue" stroke="midnightblue" points="424.29,-28.8 419.06,-19.59 417.41,-30.06 424.29,-28.8"/>
</g>
<!-- Node16 -->
<g id="node16" class="node">
<title>Node16</title>
<g id="a_node16"><a xlink:title=" ">
<polygon fill="white" stroke="#bfbfbf" points="235.5,-56.5 235.5,-75.5 281.5,-75.5 281.5,-56.5 235.5,-56.5"/>
<text text-anchor="middle" x="258.5" y="-63.5" font-family="Helvetica,sans-Serif" font-size="10.00">chrono</text>
</a>
</g>
</g>
<!-- Node15&#45;&gt;Node16 -->
<g id="edge16" class="edge">
<title>Node15&#45;&gt;Node16</title>
<path fill="none" stroke="midnightblue" d="M409.14,-112.44C377.15,-102.79 325.22,-87.13 291.46,-76.94"/>
<polygon fill="midnightblue" stroke="midnightblue" points="292.19,-73.51 281.61,-73.97 290.17,-80.21 292.19,-73.51"/>
</g>
<!-- Node17 -->
<g id="node17" class="node">
<title>Node17</title>
<g id="a_node17"><a xlink:title=" ">
<polygon fill="white" stroke="#bfbfbf" points="500,-0.5 500,-19.5 535,-19.5 535,-0.5 500,-0.5"/>
<text text-anchor="middle" x="517.5" y="-7.5" font-family="Helvetica,sans-Serif" font-size="10.00">map</text>
</a>
</g>
</g>
<!-- Node15&#45;&gt;Node17 -->
<g id="edge17" class="edge">
<title>Node15&#45;&gt;Node17</title>
<path fill="none" stroke="midnightblue" d="M478.55,-112.38C498.46,-105.92 520.59,-94.81 532.5,-76 541.57,-61.67 535.35,-42.46 528.37,-28.65"/>
<polygon fill="midnightblue" stroke="midnightblue" points="531.3,-26.71 523.36,-19.69 525.19,-30.13 531.3,-26.71"/>
</g>
<!-- Node18 -->
<g id="node18" class="node">
<title>Node18</title>
<g id="a_node18"><a xlink:href="color_8hpp.html" target="_top" xlink:title=" ">
<polygon fill="white" stroke="black" points="446,-56.5 446,-75.5 523,-75.5 523,-56.5 446,-56.5"/>
<text text-anchor="middle" x="484.5" y="-63.5" font-family="Helvetica,sans-Serif" font-size="10.00">utils/color.hpp</text>
</a>
</g>
</g>
<!-- Node15&#45;&gt;Node18 -->
<g id="edge19" class="edge">
<title>Node15&#45;&gt;Node18</title>
<path fill="none" stroke="midnightblue" d="M445.26,-112.08C452.04,-104.3 462.04,-92.8 470.26,-83.37"/>
<polygon fill="midnightblue" stroke="midnightblue" points="472.96,-85.59 476.88,-75.75 467.68,-81 472.96,-85.59"/>
</g>
<!-- Node19 -->
<g id="node19" class="node">
<title>Node19</title>
<g id="a_node19"><a xlink:href="position_8hpp.html" target="_top" xlink:title=" ">
<polygon fill="white" stroke="black" points="299.5,-56.5 299.5,-75.5 389.5,-75.5 389.5,-56.5 299.5,-56.5"/>
<text text-anchor="middle" x="344.5" y="-63.5" font-family="Helvetica,sans-Serif" font-size="10.00">utils/position.hpp</text>
</a>
</g>
</g>
<!-- Node15&#45;&gt;Node19 -->
<g id="edge22" class="edge">
<title>Node15&#45;&gt;Node19</title>
<path fill="none" stroke="midnightblue" d="M422.56,-112.32C407.91,-103.82 385.37,-90.73 368.26,-80.8"/>
<polygon fill="midnightblue" stroke="midnightblue" points="369.81,-77.65 359.4,-75.65 366.3,-83.7 369.81,-77.65"/>
</g>
<!-- Node18&#45;&gt;Node5 -->
<g id="edge21" class="edge">
<title>Node18&#45;&gt;Node5</title>
<path fill="none" stroke="midnightblue" d="M473.74,-56.32C463.73,-48.26 448.61,-36.08 436.57,-26.37"/>
<polygon fill="midnightblue" stroke="midnightblue" points="438.44,-23.38 428.46,-19.83 434.05,-28.83 438.44,-23.38"/>
</g>
<!-- Node18&#45;&gt;Node17 -->
<g id="edge20" class="edge">
<title>Node18&#45;&gt;Node17</title>
<path fill="none" stroke="midnightblue" d="M489.95,-56.08C494.51,-48.61 501.17,-37.72 506.79,-28.52"/>
<polygon fill="midnightblue" stroke="midnightblue" points="509.92,-30.11 512.15,-19.75 503.95,-26.46 509.92,-30.11"/>
</g>
<!-- Node20&#45;&gt;Node12 -->
<g id="edge24" class="edge">
<title>Node20&#45;&gt;Node12</title>
<path fill="none" stroke="midnightblue" d="M405.98,-168.4C383.86,-158.51 354.53,-145.38 333.09,-135.79"/>
<polygon fill="midnightblue" stroke="midnightblue" points="334.41,-132.55 323.85,-131.66 331.55,-138.94 334.41,-132.55"/>
</g>
<!-- Node20&#45;&gt;Node15 -->
<g id="edge25" class="edge">
<title>Node20&#45;&gt;Node15</title>
<path fill="none" stroke="midnightblue" d="M437.5,-168.4C437.5,-160.47 437.5,-150.46 437.5,-141.86"/>
<polygon fill="midnightblue" stroke="midnightblue" points="441,-141.66 437.5,-131.66 434,-141.66 441,-141.66"/>
</g>
</g>
</svg>
