<?xml version="1.0" encoding="UTF-8" standalone="no"?>
<!DOCTYPE svg PUBLIC "-//W3C//DTD SVG 1.1//EN"
 "http://www.w3.org/Graphics/SVG/1.1/DTD/svg11.dtd">
<!-- Generated by graphviz version 2.43.0 (0)
 -->
<!-- Title: src/loc_map/include/loc_map/lm_node.hpp Pages: 1 -->
<svg width="1684pt" height="335pt"
 viewBox="0.00 0.00 1684.00 335.00" xmlns="http://www.w3.org/2000/svg" xmlns:xlink="http://www.w3.org/1999/xlink">
<g id="graph0" class="graph" transform="scale(1 1) rotate(0) translate(4 331)">
<title>src/loc_map/include/loc_map/lm_node.hpp</title>
<!-- Node1 -->
<g id="Node000001" class="node">
<title>Node1</title>
<g id="a_Node000001"><a xlink:title=" ">
<polygon fill="#999999" stroke="#666666" points="738,-327 611,-327 611,-297 738,-297 738,-327"/>
<text text-anchor="start" x="619" y="-315" font-family="Helvetica,sans-Serif" font-size="10.00">src/loc_map/include</text>
<text text-anchor="middle" x="674.5" y="-304" font-family="Helvetica,sans-Serif" font-size="10.00">/loc_map/lm_node.hpp</text>
</a>
</g>
</g>
<!-- Node2 -->
<g id="Node000002" class="node">
<title>Node2</title>
<g id="a_Node000002"><a xlink:title=" ">
<polygon fill="#e0e0e0" stroke="#999999" points="105,-255.5 0,-255.5 0,-236.5 105,-236.5 105,-255.5"/>
<text text-anchor="middle" x="52.5" y="-243.5" font-family="Helvetica,sans-Serif" font-size="10.00">gtest/gtest_prod.h</text>
</a>
</g>
</g>
<!-- Node1&#45;&gt;Node2 -->
<g id="edge1_Node000001_Node000002" class="edge">
<title>Node1&#45;&gt;Node2</title>
<g id="a_edge1_Node000001_Node000002"><a xlink:title=" ">
<path fill="none" stroke="#63b8ff" d="M610.63,-308.15C506.15,-302.86 292.41,-289.37 113.5,-261 107.73,-260.08 101.68,-258.94 95.74,-257.69"/>
<polygon fill="#63b8ff" stroke="#63b8ff" points="96.42,-254.26 85.9,-255.53 94.92,-261.09 96.42,-254.26"/>
</a>
</g>
</g>
<!-- Node3 -->
<g id="Node000003" class="node">
<title>Node3</title>
<g id="a_Node000003"><a xlink:title=" ">
<polygon fill="#e0e0e0" stroke="#999999" points="188,-255.5 123,-255.5 123,-236.5 188,-236.5 188,-255.5"/>
<text text-anchor="middle" x="155.5" y="-243.5" font-family="Helvetica,sans-Serif" font-size="10.00">functional</text>
</a>
</g>
</g>
<!-- Node1&#45;&gt;Node3 -->
<g id="edge2_Node000001_Node000003" class="edge">
<title>Node1&#45;&gt;Node3</title>
<g id="a_edge2_Node000001_Node000003"><a xlink:title=" ">
<path fill="none" stroke="#63b8ff" d="M610.92,-308.72C518.83,-304.44 343.38,-292.57 197.5,-261 194.44,-260.34 191.3,-259.53 188.17,-258.65"/>
<polygon fill="#63b8ff" stroke="#63b8ff" points="188.94,-255.22 178.36,-255.62 186.88,-261.91 188.94,-255.22"/>
</a>
</g>
</g>
<!-- Node4 -->
<g id="Node000004" class="node">
<title>Node4</title>
<g id="a_Node000004"><a xlink:title=" ">
<polygon fill="#e0e0e0" stroke="#999999" points="264.5,-255.5 206.5,-255.5 206.5,-236.5 264.5,-236.5 264.5,-255.5"/>
<text text-anchor="middle" x="235.5" y="-243.5" font-family="Helvetica,sans-Serif" font-size="10.00">memory</text>
</a>
</g>
</g>
<!-- Node1&#45;&gt;Node4 -->
<g id="edge3_Node000001_Node000004" class="edge">
<title>Node1&#45;&gt;Node4</title>
<g id="a_edge3_Node000001_Node000004"><a xlink:title=" ">
<path fill="none" stroke="#63b8ff" d="M610.76,-306.68C531.98,-300.49 394.14,-286.88 278.5,-261 275.28,-260.28 271.96,-259.42 268.66,-258.48"/>
<polygon fill="#63b8ff" stroke="#63b8ff" points="269.52,-255.09 258.93,-255.52 267.48,-261.78 269.52,-255.09"/>
</a>
</g>
</g>
<!-- Node5 -->
<g id="Node000005" class="node">
<title>Node5</title>
<g id="a_Node000005"><a xlink:title=" ">
<polygon fill="#e0e0e0" stroke="#999999" points="472.5,-19 428.5,-19 428.5,0 472.5,0 472.5,-19"/>
<text text-anchor="middle" x="450.5" y="-7" font-family="Helvetica,sans-Serif" font-size="10.00">string</text>
</a>
</g>
</g>
<!-- Node1&#45;&gt;Node5 -->
<g id="edge4_Node000001_Node000005" class="edge">
<title>Node1&#45;&gt;Node5</title>
<g id="a_edge4_Node000001_Node000005"><a xlink:title=" ">
<path fill="none" stroke="#63b8ff" d="M610.73,-303.55C502.32,-289.37 289.82,-254.49 248.5,-195 212.98,-143.86 204.37,-103.43 243.5,-55 265.11,-28.25 365.71,-16.83 418.29,-12.62"/>
<polygon fill="#63b8ff" stroke="#63b8ff" points="418.73,-16.1 428.43,-11.85 418.2,-9.12 418.73,-16.1"/>
</a>
</g>
</g>
<!-- Node6 -->
<g id="Node000006" class="node">
<title>Node6</title>
<g id="a_Node000006"><a xlink:title=" ">
<polygon fill="#e0e0e0" stroke="#999999" points="647,-255.5 590,-255.5 590,-236.5 647,-236.5 647,-255.5"/>
<text text-anchor="middle" x="618.5" y="-243.5" font-family="Helvetica,sans-Serif" font-size="10.00">typeinfo</text>
</a>
</g>
</g>
<!-- Node1&#45;&gt;Node6 -->
<g id="edge5_Node000001_Node000006" class="edge">
<title>Node1&#45;&gt;Node6</title>
<g id="a_edge5_Node000001_Node000006"><a xlink:title=" ">
<path fill="none" stroke="#63b8ff" d="M662.07,-296.8C653.43,-286.92 641.88,-273.72 632.84,-263.39"/>
<polygon fill="#63b8ff" stroke="#63b8ff" points="635.46,-261.07 626.24,-255.84 630.19,-265.67 635.46,-261.07"/>
</a>
</g>
</g>
<!-- Node7 -->
<g id="Node000007" class="node">
<title>Node7</title>
<g id="a_Node000007"><a xlink:title=" ">
<polygon fill="#e0e0e0" stroke="#999999" points="796,-261 665,-261 665,-231 796,-231 796,-261"/>
<text text-anchor="start" x="673" y="-249" font-family="Helvetica,sans-Serif" font-size="10.00">custom_interfaces/msg</text>
<text text-anchor="middle" x="730.5" y="-238" font-family="Helvetica,sans-Serif" font-size="10.00">/cone_array.hpp</text>
</a>
</g>
</g>
<!-- Node1&#45;&gt;Node7 -->
<g id="edge6_Node000001_Node000007" class="edge">
<title>Node1&#45;&gt;Node7</title>
<g id="a_edge6_Node000001_Node000007"><a xlink:title=" ">
<path fill="none" stroke="#63b8ff" d="M686.93,-296.8C694.11,-288.59 703.29,-278.1 711.37,-268.87"/>
<polygon fill="#63b8ff" stroke="#63b8ff" points="714.16,-270.99 718.11,-261.16 708.89,-266.38 714.16,-270.99"/>
</a>
</g>
</g>
<!-- Node8 -->
<g id="Node000008" class="node">
<title>Node8</title>
<g id="a_Node000008"><a xlink:title=" ">
<polygon fill="#e0e0e0" stroke="#999999" points="945,-261 814,-261 814,-231 945,-231 945,-261"/>
<text text-anchor="start" x="822" y="-249" font-family="Helvetica,sans-Serif" font-size="10.00">custom_interfaces/msg</text>
<text text-anchor="middle" x="879.5" y="-238" font-family="Helvetica,sans-Serif" font-size="10.00">/point2d.hpp</text>
</a>
</g>
</g>
<!-- Node1&#45;&gt;Node8 -->
<g id="edge7_Node000001_Node000008" class="edge">
<title>Node1&#45;&gt;Node8</title>
<g id="a_edge7_Node000001_Node000008"><a xlink:title=" ">
<path fill="none" stroke="#63b8ff" d="M719.49,-296.95C750.46,-287.28 791.8,-274.38 824.7,-264.11"/>
<polygon fill="#63b8ff" stroke="#63b8ff" points="826.11,-267.33 834.62,-261.01 824.03,-260.65 826.11,-267.33"/>
</a>
</g>
</g>
<!-- Node9 -->
<g id="Node000009" class="node">
<title>Node9</title>
<g id="a_Node000009"><a xlink:title=" ">
<polygon fill="#e0e0e0" stroke="#999999" points="1094,-261 963,-261 963,-231 1094,-231 1094,-261"/>
<text text-anchor="start" x="971" y="-249" font-family="Helvetica,sans-Serif" font-size="10.00">custom_interfaces/msg</text>
<text text-anchor="middle" x="1028.5" y="-238" font-family="Helvetica,sans-Serif" font-size="10.00">/pose.hpp</text>
</a>
</g>
</g>
<!-- Node1&#45;&gt;Node9 -->
<g id="edge8_Node000001_Node000009" class="edge">
<title>Node1&#45;&gt;Node9</title>
<g id="a_edge8_Node000001_Node000009"><a xlink:title=" ">
<path fill="none" stroke="#63b8ff" d="M738.2,-299.82C792.64,-290.22 873.36,-275.88 952.58,-261.34"/>
<polygon fill="#63b8ff" stroke="#63b8ff" points="953.54,-264.73 962.74,-259.48 952.27,-257.84 953.54,-264.73"/>
</a>
</g>
</g>
<!-- Node10 -->
<g id="Node000010" class="node">
<title>Node10</title>
<g id="a_Node000010"><a xlink:title=" ">
<polygon fill="#e0e0e0" stroke="#999999" points="1237,-261 1112,-261 1112,-231 1237,-231 1237,-261"/>
<text text-anchor="start" x="1120" y="-249" font-family="Helvetica,sans-Serif" font-size="10.00">eufs_msgs/msg/wheel</text>
<text text-anchor="middle" x="1174.5" y="-238" font-family="Helvetica,sans-Serif" font-size="10.00">_speeds_stamped.hpp</text>
</a>
</g>
</g>
<!-- Node1&#45;&gt;Node10 -->
<g id="edge9_Node000001_Node000010" class="edge">
<title>Node1&#45;&gt;Node10</title>
<g id="a_edge9_Node000001_Node000010"><a xlink:title=" ">
<path fill="none" stroke="#63b8ff" d="M738.31,-305.15C820.25,-297.27 967.03,-281.99 1101.74,-261.21"/>
<polygon fill="#63b8ff" stroke="#63b8ff" points="1102.48,-264.63 1111.83,-259.64 1101.41,-257.72 1102.48,-264.63"/>
</a>
</g>
</g>
<!-- Node11 -->
<g id="Node000011" class="node">
<title>Node11</title>
<g id="a_Node000011"><a xlink:href="ekf_8hpp.html" target="_top" xlink:title=" ">
<polygon fill="white" stroke="#666666" points="533,-255.5 414,-255.5 414,-236.5 533,-236.5 533,-255.5"/>
<text text-anchor="middle" x="473.5" y="-243.5" font-family="Helvetica,sans-Serif" font-size="10.00">kalman_filter/ekf.hpp</text>
</a>
</g>
</g>
<!-- Node1&#45;&gt;Node11 -->
<g id="edge10_Node000001_Node000011" class="edge">
<title>Node1&#45;&gt;Node11</title>
<g id="a_edge10_Node000001_Node000011"><a xlink:title=" ">
<path fill="none" stroke="#63b8ff" d="M630.39,-296.95C594.36,-285.48 544.04,-269.46 510.19,-258.68"/>
<polygon fill="#63b8ff" stroke="#63b8ff" points="510.84,-255.22 500.25,-255.52 508.72,-261.89 510.84,-255.22"/>
</a>
</g>
</g>
<!-- Node15 -->
<g id="Node000015" class="node">
<title>Node15</title>
<g id="a_Node000015"><a xlink:href="data__structures_8hpp.html" target="_top" xlink:title=" ">
<polygon fill="white" stroke="#666666" points="552.5,-129 394.5,-129 394.5,-110 552.5,-110 552.5,-129"/>
<text text-anchor="middle" x="473.5" y="-117" font-family="Helvetica,sans-Serif" font-size="10.00">loc_map/data_structures.hpp</text>
</a>
</g>
</g>
<!-- Node1&#45;&gt;Node15 -->
<g id="edge27_Node000001_Node000015" class="edge">
<title>Node1&#45;&gt;Node15</title>
<g id="a_edge27_Node000001_Node000015"><a xlink:title=" ">
<path fill="none" stroke="#63b8ff" d="M626.4,-296.8C609.13,-289.12 591.47,-277.68 581.5,-261 574.66,-249.56 575.26,-242.78 581.5,-231 594.83,-205.84 621.17,-220.16 634.5,-195 640.74,-183.22 642.58,-175.61 634.5,-165 622.89,-149.75 580.35,-138.38 541.91,-130.96"/>
<polygon fill="#63b8ff" stroke="#63b8ff" points="542.2,-127.45 531.72,-129.06 540.91,-134.33 542.2,-127.45"/>
</a>
</g>
</g>
<!-- Node21 -->
<g id="Node000021" class="node">
<title>Node21</title>
<g id="a_Node000021"><a xlink:title=" ">
<polygon fill="#e0e0e0" stroke="#999999" points="1354,-255.5 1255,-255.5 1255,-236.5 1354,-236.5 1354,-255.5"/>
<text text-anchor="middle" x="1304.5" y="-243.5" font-family="Helvetica,sans-Serif" font-size="10.00">rclcpp/rclcpp.hpp</text>
</a>
</g>
</g>
<!-- Node1&#45;&gt;Node21 -->
<g id="edge28_Node000001_Node000021" class="edge">
<title>Node1&#45;&gt;Node21</title>
<g id="a_edge28_Node000001_Node000021"><a xlink:title=" ">
<path fill="none" stroke="#63b8ff" d="M738.37,-308.54C844.48,-303.75 1063.52,-290.91 1246.5,-261 1251.87,-260.12 1257.47,-259.02 1262.99,-257.81"/>
<polygon fill="#63b8ff" stroke="#63b8ff" points="1263.8,-261.22 1272.77,-255.57 1262.24,-254.39 1263.8,-261.22"/>
</a>
</g>
</g>
<!-- Node22 -->
<g id="Node000022" class="node">
<title>Node22</title>
<g id="a_Node000022"><a xlink:title=" ">
<polygon fill="#e0e0e0" stroke="#999999" points="1519,-255.5 1372,-255.5 1372,-236.5 1519,-236.5 1519,-255.5"/>
<text text-anchor="middle" x="1445.5" y="-243.5" font-family="Helvetica,sans-Serif" font-size="10.00">sensor_msgs/msg/imu.hpp</text>
</a>
</g>
</g>
<!-- Node1&#45;&gt;Node22 -->
<g id="edge29_Node000001_Node000022" class="edge">
<title>Node1&#45;&gt;Node22</title>
<g id="a_edge29_Node000001_Node000022"><a xlink:title=" ">
<path fill="none" stroke="#63b8ff" d="M738.34,-308.43C860.22,-303.07 1134.31,-288.81 1363.5,-261 1372.15,-259.95 1381.27,-258.62 1390.16,-257.2"/>
<polygon fill="#63b8ff" stroke="#63b8ff" points="1390.78,-260.64 1400.07,-255.56 1389.64,-253.74 1390.78,-260.64"/>
</a>
</g>
</g>
<!-- Node23 -->
<g id="Node000023" class="node">
<title>Node23</title>
<g id="a_Node000023"><a xlink:title=" ">
<polygon fill="#e0e0e0" stroke="#999999" points="1676,-255.5 1537,-255.5 1537,-236.5 1676,-236.5 1676,-255.5"/>
<text text-anchor="middle" x="1606.5" y="-243.5" font-family="Helvetica,sans-Serif" font-size="10.00">std_msgs/msg/string.hpp</text>
</a>
</g>
</g>
<!-- Node1&#45;&gt;Node23 -->
<g id="edge30_Node000001_Node000023" class="edge">
<title>Node1&#45;&gt;Node23</title>
<g id="a_edge30_Node000001_Node000023"><a xlink:title=" ">
<path fill="none" stroke="#63b8ff" d="M738.2,-309.86C880.43,-306.75 1234.45,-295.87 1528.5,-261 1536.85,-260.01 1545.65,-258.7 1554.22,-257.27"/>
<polygon fill="#63b8ff" stroke="#63b8ff" points="1554.88,-260.71 1564.13,-255.55 1553.68,-253.81 1554.88,-260.71"/>
</a>
</g>
</g>
<!-- Node12 -->
<g id="Node000012" class="node">
<title>Node12</title>
<g id="a_Node000012"><a xlink:title=" ">
<polygon fill="#e0e0e0" stroke="#999999" points="364,-129 287,-129 287,-110 364,-110 364,-129"/>
<text text-anchor="middle" x="325.5" y="-117" font-family="Helvetica,sans-Serif" font-size="10.00">Eigen/Dense</text>
</a>
</g>
</g>
<!-- Node11&#45;&gt;Node12 -->
<g id="edge11_Node000011_Node000012" class="edge">
<title>Node11&#45;&gt;Node12</title>
<g id="a_edge11_Node000011_Node000012"><a xlink:title=" ">
<path fill="none" stroke="#63b8ff" d="M413.77,-239.41C356.74,-232.69 276.72,-219.18 257.5,-195 249.2,-184.56 251.16,-176.73 257.5,-165 265.08,-150.98 279.2,-140.67 292.63,-133.53"/>
<polygon fill="#63b8ff" stroke="#63b8ff" points="294.27,-136.62 301.72,-129.08 291.2,-130.33 294.27,-136.62"/>
</a>
</g>
</g>
<!-- Node13 -->
<g id="Node000013" class="node">
<title>Node13</title>
<g id="a_Node000013"><a xlink:title=" ">
<polygon fill="#e0e0e0" stroke="#999999" points="609,-189.5 562,-189.5 562,-170.5 609,-170.5 609,-189.5"/>
<text text-anchor="middle" x="585.5" y="-177.5" font-family="Helvetica,sans-Serif" font-size="10.00">vector</text>
</a>
</g>
</g>
<!-- Node11&#45;&gt;Node13 -->
<g id="edge12_Node000011_Node000013" class="edge">
<title>Node11&#45;&gt;Node13</title>
<g id="a_edge12_Node000011_Node000013"><a xlink:title=" ">
<path fill="none" stroke="#63b8ff" d="M488.6,-236.37C507.31,-225.68 539.4,-207.35 561.49,-194.72"/>
<polygon fill="#63b8ff" stroke="#63b8ff" points="563.33,-197.7 570.28,-189.7 559.86,-191.62 563.33,-197.7"/>
</a>
</g>
</g>
<!-- Node14 -->
<g id="Node000014" class="node">
<title>Node14</title>
<g id="a_Node000014"><a xlink:href="motion__models_8hpp.html" target="_top" xlink:title=" ">
<polygon fill="white" stroke="#666666" points="384.5,-195 266.5,-195 266.5,-165 384.5,-165 384.5,-195"/>
<text text-anchor="start" x="274.5" y="-183" font-family="Helvetica,sans-Serif" font-size="10.00">kalman_filter/motion</text>
<text text-anchor="middle" x="325.5" y="-172" font-family="Helvetica,sans-Serif" font-size="10.00">_models.hpp</text>
</a>
</g>
</g>
<!-- Node11&#45;&gt;Node14 -->
<g id="edge13_Node000011_Node000014" class="edge">
<title>Node11&#45;&gt;Node14</title>
<g id="a_edge13_Node000011_Node000014"><a xlink:title=" ">
<path fill="none" stroke="#63b8ff" d="M453.54,-236.37C431.56,-226.87 395.61,-211.32 367.39,-199.11"/>
<polygon fill="#63b8ff" stroke="#63b8ff" points="368.71,-195.87 358.14,-195.12 365.93,-202.3 368.71,-195.87"/>
</a>
</g>
</g>
<!-- Node11&#45;&gt;Node15 -->
<g id="edge26_Node000011_Node000015" class="edge">
<title>Node11&#45;&gt;Node15</title>
<g id="a_edge26_Node000011_Node000015"><a xlink:title=" ">
<path fill="none" stroke="#63b8ff" d="M514.16,-236.5C552.58,-227.54 606.13,-212.35 618.5,-195 626.24,-184.14 626.43,-175.72 618.5,-165 605,-146.74 584.14,-135.73 562.42,-129.16"/>
<polygon fill="#63b8ff" stroke="#63b8ff" points="563.3,-125.78 552.73,-126.53 561.46,-132.53 563.3,-125.78"/>
</a>
</g>
</g>
<!-- Node20 -->
<g id="Node000020" class="node">
<title>Node20</title>
<g id="a_Node000020"><a xlink:href="observation__models_8hpp.html" target="_top" xlink:title=" ">
<polygon fill="white" stroke="#666666" points="544,-195 403,-195 403,-165 544,-165 544,-195"/>
<text text-anchor="start" x="411" y="-183" font-family="Helvetica,sans-Serif" font-size="10.00">kalman_filter/observation</text>
<text text-anchor="middle" x="473.5" y="-172" font-family="Helvetica,sans-Serif" font-size="10.00">_models.hpp</text>
</a>
</g>
</g>
<!-- Node11&#45;&gt;Node20 -->
<g id="edge23_Node000011_Node000020" class="edge">
<title>Node11&#45;&gt;Node20</title>
<g id="a_edge23_Node000011_Node000020"><a xlink:title=" ">
<path fill="none" stroke="#63b8ff" d="M473.5,-236.37C473.5,-228.49 473.5,-216.45 473.5,-205.6"/>
<polygon fill="#63b8ff" stroke="#63b8ff" points="477,-205.36 473.5,-195.36 470,-205.36 477,-205.36"/>
</a>
</g>
</g>
<!-- Node14&#45;&gt;Node12 -->
<g id="edge14_Node000014_Node000012" class="edge">
<title>Node14&#45;&gt;Node12</title>
<g id="a_edge14_Node000014_Node000012"><a xlink:title=" ">
<path fill="none" stroke="#63b8ff" d="M325.5,-164.84C325.5,-157.21 325.5,-147.7 325.5,-139.45"/>
<polygon fill="#63b8ff" stroke="#63b8ff" points="329,-139.27 325.5,-129.27 322,-139.27 329,-139.27"/>
</a>
</g>
</g>
<!-- Node14&#45;&gt;Node15 -->
<g id="edge15_Node000014_Node000015" class="edge">
<title>Node14&#45;&gt;Node15</title>
<g id="a_edge15_Node000014_Node000015"><a xlink:title=" ">
<path fill="none" stroke="#63b8ff" d="M360.95,-164.99C385.64,-155.23 418.28,-142.33 442.05,-132.93"/>
<polygon fill="#63b8ff" stroke="#63b8ff" points="443.63,-136.07 451.64,-129.14 441.06,-129.56 443.63,-136.07"/>
</a>
</g>
</g>
<!-- Node15&#45;&gt;Node5 -->
<g id="edge18_Node000015_Node000005" class="edge">
<title>Node15&#45;&gt;Node5</title>
<g id="a_edge18_Node000015_Node000005"><a xlink:title=" ">
<path fill="none" stroke="#63b8ff" d="M471.62,-109.66C467.88,-92.09 459.43,-52.45 454.43,-28.95"/>
<polygon fill="#63b8ff" stroke="#63b8ff" points="457.85,-28.21 452.34,-19.16 451,-29.67 457.85,-28.21"/>
</a>
</g>
</g>
<!-- Node16 -->
<g id="Node000016" class="node">
<title>Node16</title>
<g id="a_Node000016"><a xlink:title=" ">
<polygon fill="#e0e0e0" stroke="#999999" points="302.5,-74 252.5,-74 252.5,-55 302.5,-55 302.5,-74"/>
<text text-anchor="middle" x="277.5" y="-62" font-family="Helvetica,sans-Serif" font-size="10.00">chrono</text>
</a>
</g>
</g>
<!-- Node15&#45;&gt;Node16 -->
<g id="edge16_Node000015_Node000016" class="edge">
<title>Node15&#45;&gt;Node16</title>
<g id="a_edge16_Node000015_Node000016"><a xlink:title=" ">
<path fill="none" stroke="#63b8ff" d="M442.01,-109.98C406.6,-100.41 349.25,-84.9 312.47,-74.96"/>
<polygon fill="#63b8ff" stroke="#63b8ff" points="313.25,-71.54 302.68,-72.31 311.42,-78.3 313.25,-71.54"/>
</a>
</g>
</g>
<!-- Node17 -->
<g id="Node000017" class="node">
<title>Node17</title>
<g id="a_Node000017"><a xlink:title=" ">
<polygon fill="#e0e0e0" stroke="#999999" points="575.5,-19 537.5,-19 537.5,0 575.5,0 575.5,-19"/>
<text text-anchor="middle" x="556.5" y="-7" font-family="Helvetica,sans-Serif" font-size="10.00">map</text>
</a>
</g>
</g>
<!-- Node15&#45;&gt;Node17 -->
<g id="edge17_Node000015_Node000017" class="edge">
<title>Node15&#45;&gt;Node17</title>
<g id="a_edge17_Node000015_Node000017"><a xlink:title=" ">
<path fill="none" stroke="#63b8ff" d="M518.96,-109.96C539.27,-103.64 561.34,-92.72 573.5,-74 582.5,-60.14 575.88,-41.63 568.42,-28.18"/>
<polygon fill="#63b8ff" stroke="#63b8ff" points="571.27,-26.12 563.06,-19.41 565.29,-29.77 571.27,-26.12"/>
</a>
</g>
</g>
<!-- Node18 -->
<g id="Node000018" class="node">
<title>Node18</title>
<g id="a_Node000018"><a xlink:href="color_8hpp.html" target="_top" xlink:title=" ">
<polygon fill="white" stroke="#666666" points="564,-74 479,-74 479,-55 564,-55 564,-74"/>
<text text-anchor="middle" x="521.5" y="-62" font-family="Helvetica,sans-Serif" font-size="10.00">utils/color.hpp</text>
</a>
</g>
</g>
<!-- Node15&#45;&gt;Node18 -->
<g id="edge19_Node000015_Node000018" class="edge">
<title>Node15&#45;&gt;Node18</title>
<g id="a_edge19_Node000015_Node000018"><a xlink:title=" ">
<path fill="none" stroke="#63b8ff" d="M481.43,-109.75C488.35,-102.11 498.57,-90.82 506.95,-81.56"/>
<polygon fill="#63b8ff" stroke="#63b8ff" points="509.6,-83.85 513.72,-74.09 504.41,-79.15 509.6,-83.85"/>
</a>
</g>
</g>
<!-- Node19 -->
<g id="Node000019" class="node">
<title>Node19</title>
<g id="a_Node000019"><a xlink:href="position_8hpp.html" target="_top" xlink:title=" ">
<polygon fill="white" stroke="#666666" points="422,-74 321,-74 321,-55 422,-55 422,-74"/>
<text text-anchor="middle" x="371.5" y="-62" font-family="Helvetica,sans-Serif" font-size="10.00">utils/position.hpp</text>
</a>
</g>
</g>
<!-- Node15&#45;&gt;Node19 -->
<g id="edge22_Node000015_Node000019" class="edge">
<title>Node15&#45;&gt;Node19</title>
<g id="a_edge22_Node000015_Node000019"><a xlink:title=" ">
<path fill="none" stroke="#63b8ff" d="M457.11,-109.98C440.93,-101.57 415.93,-88.59 397.12,-78.81"/>
<polygon fill="#63b8ff" stroke="#63b8ff" points="398.67,-75.68 388.19,-74.17 395.45,-81.89 398.67,-75.68"/>
</a>
</g>
</g>
<!-- Node18&#45;&gt;Node5 -->
<g id="edge21_Node000018_Node000005" class="edge">
<title>Node18&#45;&gt;Node5</title>
<g id="a_edge21_Node000018_Node000005"><a xlink:title=" ">
<path fill="none" stroke="#63b8ff" d="M510.09,-54.98C499.39,-47 483.16,-34.88 470.34,-25.31"/>
<polygon fill="#63b8ff" stroke="#63b8ff" points="472.22,-22.35 462.11,-19.17 468.03,-27.96 472.22,-22.35"/>
</a>
</g>
</g>
<!-- Node18&#45;&gt;Node17 -->
<g id="edge20_Node000018_Node000017" class="edge">
<title>Node18&#45;&gt;Node17</title>
<g id="a_edge20_Node000018_Node000017"><a xlink:title=" ">
<path fill="none" stroke="#63b8ff" d="M527.28,-54.75C532.12,-47.42 539.18,-36.73 545.14,-27.7"/>
<polygon fill="#63b8ff" stroke="#63b8ff" points="548.24,-29.36 550.83,-19.09 542.4,-25.5 548.24,-29.36"/>
</a>
</g>
</g>
<!-- Node20&#45;&gt;Node12 -->
<g id="edge24_Node000020_Node000012" class="edge">
<title>Node20&#45;&gt;Node12</title>
<g id="a_edge24_Node000020_Node000012"><a xlink:title=" ">
<path fill="none" stroke="#63b8ff" d="M438.05,-164.99C413.36,-155.23 380.72,-142.33 356.95,-132.93"/>
<polygon fill="#63b8ff" stroke="#63b8ff" points="357.94,-129.56 347.36,-129.14 355.37,-136.07 357.94,-129.56"/>
</a>
</g>
</g>
<!-- Node20&#45;&gt;Node15 -->
<g id="edge25_Node000020_Node000015" class="edge">
<title>Node20&#45;&gt;Node15</title>
<g id="a_edge25_Node000020_Node000015"><a xlink:title=" ">
<path fill="none" stroke="#63b8ff" d="M473.5,-164.84C473.5,-157.21 473.5,-147.7 473.5,-139.45"/>
<polygon fill="#63b8ff" stroke="#63b8ff" points="477,-139.27 473.5,-129.27 470,-139.27 477,-139.27"/>
</a>
</g>
</g>
</g>
</svg>
