<?xml version="1.0" encoding="UTF-8" standalone="no"?>
<!DOCTYPE svg PUBLIC "-//W3C//DTD SVG 1.1//EN"
 "http://www.w3.org/Graphics/SVG/1.1/DTD/svg11.dtd">
<!-- Generated by graphviz version 2.43.0 (0)
 -->
<!-- Title: src/loc_map/src/loc_map/lm_node.cpp Pages: 1 -->
<!--zoomable 456 -->

<svg id="main" version="1.1" xmlns="http://www.w3.org/2000/svg" xmlns:xlink="http://www.w3.org/1999/xlink" xml:space="preserve" onload="init(evt)">
<style type="text/css"><![CDATA[
.node, .edge {opacity: 0.7;}
.node.selected, .edge.selected {opacity: 1;}
.edge:hover path { stroke: red; }
.edge:hover polygon { stroke: red; fill: red; }
]]></style>

<defs>
  <circle id="rim" cx="0" cy="0" r="7"/>
  <circle id="rim2" cx="0" cy="0" r="3.5"/>
  <g id="zoomPlus">
    <use xlink:href="#rim" fill="#404040"><set attributeName="fill" to="#808080" begin="zoomplus.mouseover" end="zoomplus.mouseout"/></use>
    <path d="M-4,0h8M0,-4v8" fill="none" stroke="white" stroke-width="1.5" pointer-events="none"/>
  </g>
  <g id="zoomMin">
    <use xlink:href="#rim" fill="#404040"><set attributeName="fill" to="#808080" begin="zoomminus.mouseover" end="zoomminus.mouseout"/></use>
    <path d="M-4,0h8" fill="none" stroke="white" stroke-width="1.5" pointer-events="none"/>
  </g>
  <g id="arrowUp" transform="translate(30 24)">
    <use xlink:href="#rim"/>
    <path pointer-events="none" fill="none" stroke="white" stroke-width="1.5" d="M0,-3.0v7 M-2.5,-0.5L0,-3.0L2.5,-0.5"/>
  </g>
  <g id="arrowRight" transform="rotate(90) translate(36 -43)">
    <use xlink:href="#rim"/>
    <path pointer-events="none" fill="none" stroke="white" stroke-width="1.5" d="M0,-3.0v7 M-2.5,-0.5L0,-3.0L2.5,-0.5"/>
  </g>
  <g id="arrowDown" transform="rotate(180) translate(-30 -48)">
    <use xlink:href="#rim"/>
    <path pointer-events="none" fill="none" stroke="white" stroke-width="1.5" d="M0,-3.0v7 M-2.5,-0.5L0,-3.0L2.5,-0.5"/>
  </g>
  <g id="arrowLeft" transform="rotate(270) translate(-36 17)">
    <use xlink:href="#rim"/>
    <path pointer-events="none" fill="none" stroke="white" stroke-width="1.5" d="M0,-3.0v7 M-2.5,-0.5L0,-3.0L2.5,-0.5"/>
  </g>
  <g id="resetDef">
    <use xlink:href="#rim2" fill="#404040"><set attributeName="fill" to="#808080" begin="reset.mouseover" end="reset.mouseout"/></use>
  </g>
</defs>
<script type="application/ecmascript">
var viewWidth = 1671;
var viewHeight = 456;
var sectionId = 'dynsection-0';
</script>
<script type="application/ecmascript" xlink:href="svg.min.js"/>
<svg id="graph" class="graph">
<g id="viewport">
<title>src/loc_map/src/loc_map/lm_node.cpp</title>
<!-- Node1 -->
<g id="Node000001" class="node">
<title>Node1</title>
<g id="a_Node000001"><a xlink:title=" ">
<polygon fill="#999999" stroke="#666666" points="1419.5,-448 1309.5,-448 1309.5,-418 1419.5,-418 1419.5,-448"/>
<text text-anchor="start" x="1317.5" y="-436" font-family="Helvetica,sans-Serif" font-size="10.00">src/loc_map/src/loc</text>
<text text-anchor="middle" x="1364.5" y="-425" font-family="Helvetica,sans-Serif" font-size="10.00">_map/lm_node.cpp</text>
</a>
</g>
</g>
<!-- Node2 -->
<g id="Node000002" class="node">
<title>Node2</title>
<g id="a_Node000002"><a xlink:href="lm__node_8hpp.html" target="_top" xlink:title=" ">
<polygon fill="white" stroke="#666666" points="656.5,-321.5 532.5,-321.5 532.5,-302.5 656.5,-302.5 656.5,-321.5"/>
<text text-anchor="middle" x="594.5" y="-309.5" font-family="Helvetica,sans-Serif" font-size="10.00">loc_map/lm_node.hpp</text>
</a>
</g>
</g>
<!-- Node1&#45;&gt;Node2 -->
<g id="edge1_Node000001_Node000002" class="edge">
<title>Node1&#45;&gt;Node2</title>
<g id="a_edge1_Node000001_Node000002"><a xlink:title=" ">
<path fill="none" stroke="#63b8ff" d="M1309.09,-424.55C1190.67,-408.44 904.29,-368.46 665.5,-327 659.24,-325.91 652.69,-324.71 646.2,-323.48"/>
<polygon fill="#63b8ff" stroke="#63b8ff" points="646.6,-319.99 636.11,-321.54 645.27,-326.86 646.6,-319.99"/>
</a>
</g>
</g>
<!-- Node25 -->
<g id="Node000025" class="node">
<title>Node25</title>
<g id="a_Node000025"><a xlink:href="adapter_8hpp.html" target="_top" xlink:title=" ">
<polygon fill="white" stroke="#666666" points="1365,-382 1250,-382 1250,-363 1365,-363 1365,-382"/>
<text text-anchor="middle" x="1307.5" y="-370" font-family="Helvetica,sans-Serif" font-size="10.00">adapter/adapter.hpp</text>
</a>
</g>
</g>
<!-- Node1&#45;&gt;Node25 -->
<g id="edge32_Node000001_Node000025" class="edge">
<title>Node1&#45;&gt;Node25</title>
<g id="a_edge32_Node000001_Node000025"><a xlink:title=" ">
<path fill="none" stroke="#63b8ff" d="M1350.7,-417.84C1342.43,-409.35 1331.88,-398.52 1323.27,-389.69"/>
<polygon fill="#63b8ff" stroke="#63b8ff" points="1325.53,-386.99 1316.04,-382.27 1320.51,-391.87 1325.53,-386.99"/>
</a>
</g>
</g>
<!-- Node31 -->
<g id="Node000031" class="node">
<title>Node31</title>
<g id="a_Node000031"><a xlink:href="car_8hpp.html" target="_top" xlink:title=" ">
<polygon fill="white" stroke="#666666" points="1459.5,-382 1383.5,-382 1383.5,-363 1459.5,-363 1459.5,-382"/>
<text text-anchor="middle" x="1421.5" y="-370" font-family="Helvetica,sans-Serif" font-size="10.00">utils/car.hpp</text>
</a>
</g>
</g>
<!-- Node1&#45;&gt;Node31 -->
<g id="edge44_Node000001_Node000031" class="edge">
<title>Node1&#45;&gt;Node31</title>
<g id="a_edge44_Node000001_Node000031"><a xlink:title=" ">
<path fill="none" stroke="#63b8ff" d="M1378.3,-417.84C1386.57,-409.35 1397.12,-398.52 1405.73,-389.69"/>
<polygon fill="#63b8ff" stroke="#63b8ff" points="1408.49,-391.87 1412.96,-382.27 1403.47,-386.99 1408.49,-391.87"/>
</a>
</g>
</g>
<!-- Node32 -->
<g id="Node000032" class="node">
<title>Node32</title>
<g id="a_Node000032"><a xlink:href="formulas_8hpp.html" target="_top" xlink:title=" ">
<polygon fill="white" stroke="#666666" points="1583,-382 1478,-382 1478,-363 1583,-363 1583,-382"/>
<text text-anchor="middle" x="1530.5" y="-370" font-family="Helvetica,sans-Serif" font-size="10.00">utils/formulas.hpp</text>
</a>
</g>
</g>
<!-- Node1&#45;&gt;Node32 -->
<g id="edge45_Node000001_Node000032" class="edge">
<title>Node1&#45;&gt;Node32</title>
<g id="a_edge45_Node000001_Node000032"><a xlink:title=" ">
<path fill="none" stroke="#63b8ff" d="M1404.26,-417.99C1432.33,-408.1 1469.55,-394.98 1496.29,-385.56"/>
<polygon fill="#63b8ff" stroke="#63b8ff" points="1497.72,-388.76 1505.99,-382.14 1495.39,-382.16 1497.72,-388.76"/>
</a>
</g>
</g>
<!-- Node3 -->
<g id="Node000003" class="node">
<title>Node3</title>
<g id="a_Node000003"><a xlink:title=" ">
<polygon fill="#e0e0e0" stroke="#999999" points="885,-255.5 780,-255.5 780,-236.5 885,-236.5 885,-255.5"/>
<text text-anchor="middle" x="832.5" y="-243.5" font-family="Helvetica,sans-Serif" font-size="10.00">gtest/gtest_prod.h</text>
</a>
</g>
</g>
<!-- Node2&#45;&gt;Node3 -->
<g id="edge2_Node000002_Node000003" class="edge">
<title>Node2&#45;&gt;Node3</title>
<g id="a_edge2_Node000002_Node000003"><a xlink:title=" ">
<path fill="none" stroke="#63b8ff" d="M626.6,-302.37C669.03,-290.96 743.89,-270.83 790.7,-258.24"/>
<polygon fill="#63b8ff" stroke="#63b8ff" points="791.78,-261.57 800.53,-255.6 789.97,-254.81 791.78,-261.57"/>
</a>
</g>
</g>
<!-- Node4 -->
<g id="Node000004" class="node">
<title>Node4</title>
<g id="a_Node000004"><a xlink:title=" ">
<polygon fill="#e0e0e0" stroke="#999999" points="968,-255.5 903,-255.5 903,-236.5 968,-236.5 968,-255.5"/>
<text text-anchor="middle" x="935.5" y="-243.5" font-family="Helvetica,sans-Serif" font-size="10.00">functional</text>
</a>
</g>
</g>
<!-- Node2&#45;&gt;Node4 -->
<g id="edge3_Node000002_Node000004" class="edge">
<title>Node2&#45;&gt;Node4</title>
<g id="a_edge3_Node000002_Node000004"><a xlink:title=" ">
<path fill="none" stroke="#63b8ff" d="M636.5,-302.44C646.02,-300.58 656.1,-298.67 665.5,-297 766.51,-279.07 793.83,-285.3 893.5,-261 896.47,-260.28 899.52,-259.44 902.57,-258.54"/>
<polygon fill="#63b8ff" stroke="#63b8ff" points="903.66,-261.87 912.15,-255.54 901.56,-255.19 903.66,-261.87"/>
</a>
</g>
</g>
<!-- Node5 -->
<g id="Node000005" class="node">
<title>Node5</title>
<g id="a_Node000005"><a xlink:title=" ">
<polygon fill="#e0e0e0" stroke="#999999" points="1044.5,-255.5 986.5,-255.5 986.5,-236.5 1044.5,-236.5 1044.5,-255.5"/>
<text text-anchor="middle" x="1015.5" y="-243.5" font-family="Helvetica,sans-Serif" font-size="10.00">memory</text>
</a>
</g>
</g>
<!-- Node2&#45;&gt;Node5 -->
<g id="edge4_Node000002_Node000005" class="edge">
<title>Node2&#45;&gt;Node5</title>
<g id="a_edge4_Node000002_Node000005"><a xlink:title=" ">
<path fill="none" stroke="#63b8ff" d="M634.95,-302.45C644.91,-300.5 655.57,-298.55 665.5,-297 802.98,-275.52 841.02,-292.71 976.5,-261 979.17,-260.38 981.9,-259.63 984.63,-258.81"/>
<polygon fill="#63b8ff" stroke="#63b8ff" points="985.92,-262.07 994.31,-255.6 983.72,-255.42 985.92,-262.07"/>
</a>
</g>
</g>
<!-- Node6 -->
<g id="Node000006" class="node">
<title>Node6</title>
<g id="a_Node000006"><a xlink:title=" ">
<polygon fill="#e0e0e0" stroke="#999999" points="1070.5,-19 1026.5,-19 1026.5,0 1070.5,0 1070.5,-19"/>
<text text-anchor="middle" x="1048.5" y="-7" font-family="Helvetica,sans-Serif" font-size="10.00">string</text>
</a>
</g>
</g>
<!-- Node2&#45;&gt;Node6 -->
<g id="edge5_Node000002_Node000006" class="edge">
<title>Node2&#45;&gt;Node6</title>
<g id="a_edge5_Node000002_Node000006"><a xlink:title=" ">
<path fill="none" stroke="#63b8ff" d="M633.42,-302.47C643.81,-300.43 655.04,-298.43 665.5,-297 716.62,-290 1089.09,-294.31 1128.5,-261 1156.49,-237.34 1148.5,-217.65 1148.5,-181 1148.5,-181 1148.5,-181 1148.5,-118.5 1148.5,-75.15 1104.59,-41.83 1074.96,-24.28"/>
<polygon fill="#63b8ff" stroke="#63b8ff" points="1076.34,-21.04 1065.92,-19.14 1072.89,-27.13 1076.34,-21.04"/>
</a>
</g>
</g>
<!-- Node7 -->
<g id="Node000007" class="node">
<title>Node7</title>
<g id="a_Node000007"><a xlink:title=" ">
<polygon fill="#e0e0e0" stroke="#999999" points="1120,-255.5 1063,-255.5 1063,-236.5 1120,-236.5 1120,-255.5"/>
<text text-anchor="middle" x="1091.5" y="-243.5" font-family="Helvetica,sans-Serif" font-size="10.00">typeinfo</text>
</a>
</g>
</g>
<!-- Node2&#45;&gt;Node7 -->
<g id="edge6_Node000002_Node000007" class="edge">
<title>Node2&#45;&gt;Node7</title>
<g id="a_edge6_Node000002_Node000007"><a xlink:title=" ">
<path fill="none" stroke="#63b8ff" d="M634.18,-302.43C644.35,-300.44 655.3,-298.47 665.5,-297 836.9,-272.22 884.59,-299.26 1053.5,-261 1056.17,-260.39 1058.91,-259.65 1061.63,-258.82"/>
<polygon fill="#63b8ff" stroke="#63b8ff" points="1062.94,-262.08 1071.29,-255.55 1060.69,-255.44 1062.94,-262.08"/>
</a>
</g>
</g>
<!-- Node8 -->
<g id="Node000008" class="node">
<title>Node8</title>
<g id="a_Node000008"><a xlink:title=" ">
<polygon fill="#e0e0e0" stroke="#999999" points="268,-261 137,-261 137,-231 268,-231 268,-261"/>
<text text-anchor="start" x="145" y="-249" font-family="Helvetica,sans-Serif" font-size="10.00">custom_interfaces/msg</text>
<text text-anchor="middle" x="202.5" y="-238" font-family="Helvetica,sans-Serif" font-size="10.00">/cone_array.hpp</text>
</a>
</g>
</g>
<!-- Node2&#45;&gt;Node8 -->
<g id="edge7_Node000002_Node000008" class="edge">
<title>Node2&#45;&gt;Node8</title>
<g id="a_edge7_Node000002_Node000008"><a xlink:title=" ">
<path fill="none" stroke="#63b8ff" d="M536.67,-302.46C475,-293.22 374.19,-277.78 278.13,-261.25"/>
<polygon fill="#63b8ff" stroke="#63b8ff" points="278.7,-257.8 268.25,-259.55 277.51,-264.7 278.7,-257.8"/>
</a>
</g>
</g>
<!-- Node9 -->
<g id="Node000009" class="node">
<title>Node9</title>
<g id="a_Node000009"><a xlink:title=" ">
<polygon fill="#e0e0e0" stroke="#999999" points="417,-261 286,-261 286,-231 417,-231 417,-261"/>
<text text-anchor="start" x="294" y="-249" font-family="Helvetica,sans-Serif" font-size="10.00">custom_interfaces/msg</text>
<text text-anchor="middle" x="351.5" y="-238" font-family="Helvetica,sans-Serif" font-size="10.00">/point2d.hpp</text>
</a>
</g>
</g>
<!-- Node2&#45;&gt;Node9 -->
<g id="edge8_Node000002_Node000009" class="edge">
<title>Node2&#45;&gt;Node9</title>
<g id="a_edge8_Node000002_Node000009"><a xlink:title=" ">
<path fill="none" stroke="#63b8ff" d="M561.98,-302.44C524.43,-292.55 461.78,-276.05 414.57,-263.61"/>
<polygon fill="#63b8ff" stroke="#63b8ff" points="415.31,-260.19 404.75,-261.02 413.53,-266.96 415.31,-260.19"/>
</a>
</g>
</g>
<!-- Node10 -->
<g id="Node000010" class="node">
<title>Node10</title>
<g id="a_Node000010"><a xlink:title=" ">
<polygon fill="#e0e0e0" stroke="#999999" points="566,-261 435,-261 435,-231 566,-231 566,-261"/>
<text text-anchor="start" x="443" y="-249" font-family="Helvetica,sans-Serif" font-size="10.00">custom_interfaces/msg</text>
<text text-anchor="middle" x="500.5" y="-238" font-family="Helvetica,sans-Serif" font-size="10.00">/pose.hpp</text>
</a>
</g>
</g>
<!-- Node2&#45;&gt;Node10 -->
<g id="edge9_Node000002_Node000010" class="edge">
<title>Node2&#45;&gt;Node10</title>
<g id="a_edge9_Node000002_Node000010"><a xlink:title=" ">
<path fill="none" stroke="#63b8ff" d="M581.82,-302.37C568.59,-293.36 547.39,-278.92 529.95,-267.05"/>
<polygon fill="#63b8ff" stroke="#63b8ff" points="531.47,-263.85 521.23,-261.12 527.53,-269.64 531.47,-263.85"/>
</a>
</g>
</g>
<!-- Node11 -->
<g id="Node000011" class="node">
<title>Node11</title>
<g id="a_Node000011"><a xlink:title=" ">
<polygon fill="#e0e0e0" stroke="#999999" points="1475,-261 1350,-261 1350,-231 1475,-231 1475,-261"/>
<text text-anchor="start" x="1358" y="-249" font-family="Helvetica,sans-Serif" font-size="10.00">eufs_msgs/msg/wheel</text>
<text text-anchor="middle" x="1412.5" y="-238" font-family="Helvetica,sans-Serif" font-size="10.00">_speeds_stamped.hpp</text>
</a>
</g>
</g>
<!-- Node2&#45;&gt;Node11 -->
<g id="edge10_Node000002_Node000011" class="edge">
<title>Node2&#45;&gt;Node11</title>
<g id="a_edge10_Node000002_Node000011"><a xlink:title=" ">
<path fill="none" stroke="#63b8ff" d="M632.66,-302.45C643.25,-300.36 654.78,-298.34 665.5,-297 961.41,-260.06 1039.32,-295.74 1335.5,-261 1336.98,-260.83 1338.47,-260.64 1339.97,-260.45"/>
<polygon fill="#63b8ff" stroke="#63b8ff" points="1340.57,-263.9 1349.98,-259.05 1339.6,-256.97 1340.57,-263.9"/>
</a>
</g>
</g>
<!-- Node12 -->
<g id="Node000012" class="node">
<title>Node12</title>
<g id="a_Node000012"><a xlink:href="ekf_8hpp.html" target="_top" xlink:title=" ">
<polygon fill="white" stroke="#666666" points="119,-255.5 0,-255.5 0,-236.5 119,-236.5 119,-255.5"/>
<text text-anchor="middle" x="59.5" y="-243.5" font-family="Helvetica,sans-Serif" font-size="10.00">kalman_filter/ekf.hpp</text>
</a>
</g>
</g>
<!-- Node2&#45;&gt;Node12 -->
<g id="edge11_Node000002_Node000012" class="edge">
<title>Node2&#45;&gt;Node12</title>
<g id="a_edge11_Node000002_Node000012"><a xlink:title=" ">
<path fill="none" stroke="#63b8ff" d="M532.31,-306.26C442.57,-298.99 271.71,-283.51 127.5,-261 121.17,-260.01 114.54,-258.83 108,-257.58"/>
<polygon fill="#63b8ff" stroke="#63b8ff" points="108.35,-254.08 97.86,-255.57 106.99,-260.95 108.35,-254.08"/>
</a>
</g>
</g>
<!-- Node16 -->
<g id="Node000016" class="node">
<title>Node16</title>
<g id="a_Node000016"><a xlink:href="data__structures_8hpp.html" target="_top" xlink:title=" ">
<polygon fill="white" stroke="#666666" points="673.5,-129 515.5,-129 515.5,-110 673.5,-110 673.5,-129"/>
<text text-anchor="middle" x="594.5" y="-117" font-family="Helvetica,sans-Serif" font-size="10.00">loc_map/data_structures.hpp</text>
</a>
</g>
</g>
<!-- Node2&#45;&gt;Node16 -->
<g id="edge28_Node000002_Node000016" class="edge">
<title>Node2&#45;&gt;Node16</title>
<g id="a_edge28_Node000002_Node000016"><a xlink:title=" ">
<path fill="none" stroke="#63b8ff" d="M594.5,-302.32C594.5,-273.37 594.5,-179.7 594.5,-139.32"/>
<polygon fill="#63b8ff" stroke="#63b8ff" points="598,-139.23 594.5,-129.23 591,-139.23 598,-139.23"/>
</a>
</g>
</g>
<!-- Node22 -->
<g id="Node000022" class="node">
<title>Node22</title>
<g id="a_Node000022"><a xlink:title=" ">
<polygon fill="#e0e0e0" stroke="#999999" points="1595,-255.5 1496,-255.5 1496,-236.5 1595,-236.5 1595,-255.5"/>
<text text-anchor="middle" x="1545.5" y="-243.5" font-family="Helvetica,sans-Serif" font-size="10.00">rclcpp/rclcpp.hpp</text>
</a>
</g>
</g>
<!-- Node2&#45;&gt;Node22 -->
<g id="edge29_Node000002_Node000022" class="edge">
<title>Node2&#45;&gt;Node22</title>
<g id="a_edge29_Node000002_Node000022"><a xlink:title=" ">
<path fill="none" stroke="#63b8ff" d="M632.28,-302.45C642.97,-300.33 654.65,-298.3 665.5,-297 1027.26,-253.63 1123.45,-309.95 1484.5,-261 1490.72,-260.16 1497.23,-258.98 1503.6,-257.67"/>
<polygon fill="#63b8ff" stroke="#63b8ff" points="1504.39,-261.08 1513.41,-255.51 1502.89,-254.24 1504.39,-261.08"/>
</a>
</g>
</g>
<!-- Node23 -->
<g id="Node000023" class="node">
<title>Node23</title>
<g id="a_Node000023"><a xlink:title=" ">
<polygon fill="#e0e0e0" stroke="#999999" points="1326,-255.5 1179,-255.5 1179,-236.5 1326,-236.5 1326,-255.5"/>
<text text-anchor="middle" x="1252.5" y="-243.5" font-family="Helvetica,sans-Serif" font-size="10.00">sensor_msgs/msg/imu.hpp</text>
</a>
</g>
</g>
<!-- Node2&#45;&gt;Node23 -->
<g id="edge30_Node000002_Node000023" class="edge">
<title>Node2&#45;&gt;Node23</title>
<g id="a_edge30_Node000002_Node000023"><a xlink:title=" ">
<path fill="none" stroke="#63b8ff" d="M633.42,-302.44C643.8,-300.39 655.04,-298.4 665.5,-297 885,-267.52 942.45,-286.04 1162.5,-261 1172.28,-259.89 1182.63,-258.49 1192.68,-257.01"/>
<polygon fill="#63b8ff" stroke="#63b8ff" points="1193.25,-260.46 1202.61,-255.51 1192.2,-253.54 1193.25,-260.46"/>
</a>
</g>
</g>
<!-- Node24 -->
<g id="Node000024" class="node">
<title>Node24</title>
<g id="a_Node000024"><a xlink:title=" ">
<polygon fill="#e0e0e0" stroke="#999999" points="762,-255.5 623,-255.5 623,-236.5 762,-236.5 762,-255.5"/>
<text text-anchor="middle" x="692.5" y="-243.5" font-family="Helvetica,sans-Serif" font-size="10.00">std_msgs/msg/string.hpp</text>
</a>
</g>
</g>
<!-- Node2&#45;&gt;Node24 -->
<g id="edge31_Node000002_Node000024" class="edge">
<title>Node2&#45;&gt;Node24</title>
<g id="a_edge31_Node000002_Node000024"><a xlink:title=" ">
<path fill="none" stroke="#63b8ff" d="M607.72,-302.37C623.86,-291.82 651.41,-273.84 670.71,-261.23"/>
<polygon fill="#63b8ff" stroke="#63b8ff" points="672.72,-264.1 679.18,-255.7 668.89,-258.24 672.72,-264.1"/>
</a>
</g>
</g>
<!-- Node13 -->
<g id="Node000013" class="node">
<title>Node13</title>
<g id="a_Node000013"><a xlink:title=" ">
<polygon fill="#e0e0e0" stroke="#999999" points="236,-129 159,-129 159,-110 236,-110 236,-129"/>
<text text-anchor="middle" x="197.5" y="-117" font-family="Helvetica,sans-Serif" font-size="10.00">Eigen/Dense</text>
</a>
</g>
</g>
<!-- Node12&#45;&gt;Node13 -->
<g id="edge12_Node000012_Node000013" class="edge">
<title>Node12&#45;&gt;Node13</title>
<g id="a_edge12_Node000012_Node000013"><a xlink:title=" ">
<path fill="none" stroke="#63b8ff" d="M55.31,-236.29C48.36,-220.41 36.67,-186.41 52.5,-165 74.39,-135.38 115.64,-124.85 148.57,-121.38"/>
<polygon fill="#63b8ff" stroke="#63b8ff" points="149.27,-124.83 158.93,-120.49 148.66,-117.86 149.27,-124.83"/>
</a>
</g>
</g>
<!-- Node14 -->
<g id="Node000014" class="node">
<title>Node14</title>
<g id="a_Node000014"><a xlink:title=" ">
<polygon fill="#e0e0e0" stroke="#999999" points="109,-189.5 62,-189.5 62,-170.5 109,-170.5 109,-189.5"/>
<text text-anchor="middle" x="85.5" y="-177.5" font-family="Helvetica,sans-Serif" font-size="10.00">vector</text>
</a>
</g>
</g>
<!-- Node12&#45;&gt;Node14 -->
<g id="edge13_Node000012_Node000014" class="edge">
<title>Node12&#45;&gt;Node14</title>
<g id="a_edge13_Node000012_Node000014"><a xlink:title=" ">
<path fill="none" stroke="#63b8ff" d="M63.01,-236.37C66.82,-226.97 73.04,-211.67 77.97,-199.53"/>
<polygon fill="#63b8ff" stroke="#63b8ff" points="81.36,-200.49 81.88,-189.91 74.88,-197.85 81.36,-200.49"/>
</a>
</g>
</g>
<!-- Node15 -->
<g id="Node000015" class="node">
<title>Node15</title>
<g id="a_Node000015"><a xlink:href="motion__models_8hpp.html" target="_top" xlink:title=" ">
<polygon fill="white" stroke="#666666" points="404.5,-195 286.5,-195 286.5,-165 404.5,-165 404.5,-195"/>
<text text-anchor="start" x="294.5" y="-183" font-family="Helvetica,sans-Serif" font-size="10.00">kalman_filter/motion</text>
<text text-anchor="middle" x="345.5" y="-172" font-family="Helvetica,sans-Serif" font-size="10.00">_models.hpp</text>
</a>
</g>
</g>
<!-- Node12&#45;&gt;Node15 -->
<g id="edge14_Node000012_Node000015" class="edge">
<title>Node12&#45;&gt;Node15</title>
<g id="a_edge14_Node000012_Node000015"><a xlink:title=" ">
<path fill="none" stroke="#63b8ff" d="M97.77,-236.44C143.36,-226.23 220.39,-209 276.47,-196.45"/>
<polygon fill="#63b8ff" stroke="#63b8ff" points="277.34,-199.84 286.34,-194.24 275.81,-193.01 277.34,-199.84"/>
</a>
</g>
</g>
<!-- Node12&#45;&gt;Node16 -->
<g id="edge27_Node000012_Node000016" class="edge">
<title>Node12&#45;&gt;Node16</title>
<g id="a_edge27_Node000012_Node000016"><a xlink:title=" ">
<path fill="none" stroke="#63b8ff" d="M98.24,-236.48C107.78,-234.53 117.99,-232.58 127.5,-231 253.89,-210.07 289.62,-227.67 413.5,-195 470.92,-179.86 534.29,-150.67 568.73,-133.67"/>
<polygon fill="#63b8ff" stroke="#63b8ff" points="570.66,-136.62 578.05,-129.02 567.54,-130.36 570.66,-136.62"/>
</a>
</g>
</g>
<!-- Node21 -->
<g id="Node000021" class="node">
<title>Node21</title>
<g id="a_Node000021"><a xlink:href="observation__models_8hpp.html" target="_top" xlink:title=" ">
<polygon fill="white" stroke="#666666" points="268,-195 127,-195 127,-165 268,-165 268,-195"/>
<text text-anchor="start" x="135" y="-183" font-family="Helvetica,sans-Serif" font-size="10.00">kalman_filter/observation</text>
<text text-anchor="middle" x="197.5" y="-172" font-family="Helvetica,sans-Serif" font-size="10.00">_models.hpp</text>
</a>
</g>
</g>
<!-- Node12&#45;&gt;Node21 -->
<g id="edge24_Node000012_Node000021" class="edge">
<title>Node12&#45;&gt;Node21</title>
<g id="a_edge24_Node000012_Node000021"><a xlink:title=" ">
<path fill="none" stroke="#63b8ff" d="M78.11,-236.37C98.42,-226.95 131.55,-211.59 157.76,-199.43"/>
<polygon fill="#63b8ff" stroke="#63b8ff" points="159.46,-202.5 167.06,-195.12 156.52,-196.15 159.46,-202.5"/>
</a>
</g>
</g>
<!-- Node15&#45;&gt;Node13 -->
<g id="edge15_Node000015_Node000013" class="edge">
<title>Node15&#45;&gt;Node13</title>
<g id="a_edge15_Node000015_Node000013"><a xlink:title=" ">
<path fill="none" stroke="#63b8ff" d="M310.05,-164.99C285.36,-155.23 252.72,-142.33 228.95,-132.93"/>
<polygon fill="#63b8ff" stroke="#63b8ff" points="229.94,-129.56 219.36,-129.14 227.37,-136.07 229.94,-129.56"/>
</a>
</g>
</g>
<!-- Node15&#45;&gt;Node16 -->
<g id="edge16_Node000015_Node000016" class="edge">
<title>Node15&#45;&gt;Node16</title>
<g id="a_edge16_Node000015_Node000016"><a xlink:title=" ">
<path fill="none" stroke="#63b8ff" d="M404.51,-165.14C448.53,-154.8 507.81,-140.87 548.38,-131.34"/>
<polygon fill="#63b8ff" stroke="#63b8ff" points="549.33,-134.71 558.27,-129.01 547.73,-127.89 549.33,-134.71"/>
</a>
</g>
</g>
<!-- Node16&#45;&gt;Node6 -->
<g id="edge19_Node000016_Node000006" class="edge">
<title>Node16&#45;&gt;Node6</title>
<g id="a_edge19_Node000016_Node000006"><a xlink:title=" ">
<path fill="none" stroke="#63b8ff" d="M630.5,-109.94C716.89,-89.39 934.8,-37.55 1016.71,-18.06"/>
<polygon fill="#63b8ff" stroke="#63b8ff" points="1017.54,-21.46 1026.46,-15.74 1015.92,-14.65 1017.54,-21.46"/>
</a>
</g>
</g>
<!-- Node17 -->
<g id="Node000017" class="node">
<title>Node17</title>
<g id="a_Node000017"><a xlink:title=" ">
<polygon fill="#e0e0e0" stroke="#999999" points="619.5,-74 569.5,-74 569.5,-55 619.5,-55 619.5,-74"/>
<text text-anchor="middle" x="594.5" y="-62" font-family="Helvetica,sans-Serif" font-size="10.00">chrono</text>
</a>
</g>
</g>
<!-- Node16&#45;&gt;Node17 -->
<g id="edge17_Node000016_Node000017" class="edge">
<title>Node16&#45;&gt;Node17</title>
<g id="a_edge17_Node000016_Node000017"><a xlink:title=" ">
<path fill="none" stroke="#63b8ff" d="M594.5,-109.75C594.5,-102.8 594.5,-92.85 594.5,-84.13"/>
<polygon fill="#63b8ff" stroke="#63b8ff" points="598,-84.09 594.5,-74.09 591,-84.09 598,-84.09"/>
</a>
</g>
</g>
<!-- Node18 -->
<g id="Node000018" class="node">
<title>Node18</title>
<g id="a_Node000018"><a xlink:title=" ">
<polygon fill="#e0e0e0" stroke="#999999" points="702.5,-19 664.5,-19 664.5,0 702.5,0 702.5,-19"/>
<text text-anchor="middle" x="683.5" y="-7" font-family="Helvetica,sans-Serif" font-size="10.00">map</text>
</a>
</g>
</g>
<!-- Node16&#45;&gt;Node18 -->
<g id="edge18_Node000016_Node000018" class="edge">
<title>Node16&#45;&gt;Node18</title>
<g id="a_edge18_Node000016_Node000018"><a xlink:title=" ">
<path fill="none" stroke="#63b8ff" d="M601.78,-109.66C616.66,-91.61 650.72,-50.28 669.84,-27.08"/>
<polygon fill="#63b8ff" stroke="#63b8ff" points="672.71,-29.1 676.36,-19.16 667.3,-24.65 672.71,-29.1"/>
</a>
</g>
</g>
<!-- Node19 -->
<g id="Node000019" class="node">
<title>Node19</title>
<g id="a_Node000019"><a xlink:href="color_8hpp.html" target="_top" xlink:title=" ">
<polygon fill="white" stroke="#666666" points="761,-74 676,-74 676,-55 761,-55 761,-74"/>
<text text-anchor="middle" x="718.5" y="-62" font-family="Helvetica,sans-Serif" font-size="10.00">utils/color.hpp</text>
</a>
</g>
</g>
<!-- Node16&#45;&gt;Node19 -->
<g id="edge20_Node000016_Node000019" class="edge">
<title>Node16&#45;&gt;Node19</title>
<g id="a_edge20_Node000016_Node000019"><a xlink:title=" ">
<path fill="none" stroke="#63b8ff" d="M614.42,-109.98C634.55,-101.38 665.88,-87.99 688.91,-78.15"/>
<polygon fill="#63b8ff" stroke="#63b8ff" points="690.4,-81.32 698.21,-74.17 687.64,-74.88 690.4,-81.32"/>
</a>
</g>
</g>
<!-- Node20 -->
<g id="Node000020" class="node">
<title>Node20</title>
<g id="a_Node000020"><a xlink:href="position_8hpp.html" target="_top" xlink:title=" ">
<polygon fill="white" stroke="#666666" points="551,-74 450,-74 450,-55 551,-55 551,-74"/>
<text text-anchor="middle" x="500.5" y="-62" font-family="Helvetica,sans-Serif" font-size="10.00">utils/position.hpp</text>
</a>
</g>
</g>
<!-- Node16&#45;&gt;Node20 -->
<g id="edge23_Node000016_Node000020" class="edge">
<title>Node16&#45;&gt;Node20</title>
<g id="a_edge23_Node000016_Node000020"><a xlink:title=" ">
<path fill="none" stroke="#63b8ff" d="M579.4,-109.98C564.68,-101.69 542.08,-88.94 524.83,-79.22"/>
<polygon fill="#63b8ff" stroke="#63b8ff" points="526.31,-76.03 515.88,-74.17 522.87,-82.13 526.31,-76.03"/>
</a>
</g>
</g>
<!-- Node19&#45;&gt;Node6 -->
<g id="edge22_Node000019_Node000006" class="edge">
<title>Node19&#45;&gt;Node6</title>
<g id="a_edge22_Node000019_Node000006"><a xlink:title=" ">
<path fill="none" stroke="#63b8ff" d="M761.3,-56.63C828.26,-45.87 956.3,-25.31 1016.16,-15.69"/>
<polygon fill="#63b8ff" stroke="#63b8ff" points="1016.86,-19.13 1026.17,-14.09 1015.75,-12.22 1016.86,-19.13"/>
</a>
</g>
</g>
<!-- Node19&#45;&gt;Node18 -->
<g id="edge21_Node000019_Node000018" class="edge">
<title>Node19&#45;&gt;Node18</title>
<g id="a_edge21_Node000019_Node000018"><a xlink:title=" ">
<path fill="none" stroke="#63b8ff" d="M712.72,-54.75C707.88,-47.42 700.82,-36.73 694.86,-27.7"/>
<polygon fill="#63b8ff" stroke="#63b8ff" points="697.6,-25.5 689.17,-19.09 691.76,-29.36 697.6,-25.5"/>
</a>
</g>
</g>
<!-- Node21&#45;&gt;Node13 -->
<g id="edge25_Node000021_Node000013" class="edge">
<title>Node21&#45;&gt;Node13</title>
<g id="a_edge25_Node000021_Node000013"><a xlink:title=" ">
<path fill="none" stroke="#63b8ff" d="M197.5,-164.84C197.5,-157.21 197.5,-147.7 197.5,-139.45"/>
<polygon fill="#63b8ff" stroke="#63b8ff" points="201,-139.27 197.5,-129.27 194,-139.27 201,-139.27"/>
</a>
</g>
</g>
<!-- Node21&#45;&gt;Node16 -->
<g id="edge26_Node000021_Node000016" class="edge">
<title>Node21&#45;&gt;Node16</title>
<g id="a_edge26_Node000021_Node000016"><a xlink:title=" ">
<path fill="none" stroke="#63b8ff" d="M268.15,-166.5C271.31,-165.99 274.44,-165.48 277.5,-165 359.96,-152 454.79,-138.93 519.09,-130.36"/>
<polygon fill="#63b8ff" stroke="#63b8ff" points="519.69,-133.81 529.14,-129.02 518.76,-126.87 519.69,-133.81"/>
</a>
</g>
</g>
<!-- Node25&#45;&gt;Node2 -->
<g id="edge41_Node000025_Node000002" class="edge">
<title>Node25&#45;&gt;Node2</title>
<g id="a_edge41_Node000025_Node000002"><a xlink:title=" ">
<path fill="none" stroke="#63b8ff" d="M1249.71,-369.92C1136.93,-366.31 879.81,-355.44 665.5,-327 658.22,-326.03 650.57,-324.78 643.09,-323.42"/>
<polygon fill="#63b8ff" stroke="#63b8ff" points="643.52,-319.94 633.05,-321.51 642.22,-326.82 643.52,-319.94"/>
</a>
</g>
</g>
<!-- Node25&#45;&gt;Node6 -->
<g id="edge33_Node000025_Node000006" class="edge">
<title>Node25&#45;&gt;Node6</title>
<g id="a_edge33_Node000025_Node000006"><a xlink:title=" ">
<path fill="none" stroke="#63b8ff" d="M1365.09,-364.1C1439.98,-354.19 1563.5,-336.72 1582.5,-327 1627.26,-304.1 1662.5,-297.28 1662.5,-247 1662.5,-247 1662.5,-247 1662.5,-118.5 1662.5,-58.88 1207.69,-21.89 1080.94,-12.73"/>
<polygon fill="#63b8ff" stroke="#63b8ff" points="1080.94,-9.22 1070.72,-12 1080.44,-16.21 1080.94,-9.22"/>
</a>
</g>
</g>
<!-- Node25&#45;&gt;Node11 -->
<g id="edge35_Node000025_Node000011" class="edge">
<title>Node25&#45;&gt;Node11</title>
<g id="a_edge35_Node000025_Node000011"><a xlink:title=" ">
<path fill="none" stroke="#63b8ff" d="M1362.14,-362.99C1418.44,-353.66 1499.27,-338.5 1508.5,-327 1528.3,-302.34 1494.41,-279.82 1461.57,-265"/>
<polygon fill="#63b8ff" stroke="#63b8ff" points="1462.94,-261.78 1452.37,-261.03 1460.17,-268.21 1462.94,-261.78"/>
</a>
</g>
</g>
<!-- Node25&#45;&gt;Node16 -->
<g id="edge40_Node000025_Node000016" class="edge">
<title>Node25&#45;&gt;Node16</title>
<g id="a_edge40_Node000025_Node000016"><a xlink:title=" ">
<path fill="none" stroke="#63b8ff" d="M1363.86,-362.99C1429.45,-352.78 1530.81,-335.92 1546.5,-327 1589.84,-302.36 1637.78,-268.12 1604.5,-231 1543.51,-162.98 919.79,-132.68 684.06,-123.6"/>
<polygon fill="#63b8ff" stroke="#63b8ff" points="683.94,-120.1 673.81,-123.21 683.67,-127.09 683.94,-120.1"/>
</a>
</g>
</g>
<!-- Node25&#45;&gt;Node22 -->
<g id="edge42_Node000025_Node000022" class="edge">
<title>Node25&#45;&gt;Node22</title>
<g id="a_edge42_Node000025_Node000022"><a xlink:title=" ">
<path fill="none" stroke="#63b8ff" d="M1364.53,-362.98C1424.85,-353.47 1512.89,-337.99 1524.5,-327 1541.08,-311.3 1545.16,-284.24 1545.88,-265.99"/>
<polygon fill="#63b8ff" stroke="#63b8ff" points="1549.38,-265.98 1545.97,-255.95 1542.38,-265.91 1549.38,-265.98"/>
</a>
</g>
</g>
<!-- Node25&#45;&gt;Node23 -->
<g id="edge43_Node000025_Node000023" class="edge">
<title>Node25&#45;&gt;Node23</title>
<g id="a_edge43_Node000025_Node000023"><a xlink:title=" ">
<path fill="none" stroke="#63b8ff" d="M1356.14,-362.93C1407.75,-353.34 1483.04,-337.75 1491.5,-327 1499.75,-316.52 1499.91,-307.35 1491.5,-297 1485.75,-289.92 1379.79,-269.78 1310.91,-257.32"/>
<polygon fill="#63b8ff" stroke="#63b8ff" points="1311.49,-253.87 1301.03,-255.54 1310.25,-260.76 1311.49,-253.87"/>
</a>
</g>
</g>
<!-- Node26 -->
<g id="Node000026" class="node">
<title>Node26</title>
<g id="a_Node000026"><a xlink:title=" ">
<polygon fill="#e0e0e0" stroke="#999999" points="838.5,-321.5 674.5,-321.5 674.5,-302.5 838.5,-302.5 838.5,-321.5"/>
<text text-anchor="middle" x="756.5" y="-309.5" font-family="Helvetica,sans-Serif" font-size="10.00">eufs_msgs/msg/can_state.hpp</text>
</a>
</g>
</g>
<!-- Node25&#45;&gt;Node26 -->
<g id="edge34_Node000025_Node000026" class="edge">
<title>Node25&#45;&gt;Node26</title>
<g id="a_edge34_Node000025_Node000026"><a xlink:title=" ">
<path fill="none" stroke="#63b8ff" d="M1249.65,-366.95C1162.35,-359.86 991.8,-345.06 847.5,-327 838.08,-325.82 828.14,-324.44 818.42,-323"/>
<polygon fill="#63b8ff" stroke="#63b8ff" points="818.81,-319.52 808.4,-321.5 817.77,-326.45 818.81,-319.52"/>
</a>
</g>
</g>
<!-- Node27 -->
<g id="Node000027" class="node">
<title>Node27</title>
<g id="a_Node000027"><a xlink:title=" ">
<polygon fill="#e0e0e0" stroke="#999999" points="984.5,-327 856.5,-327 856.5,-297 984.5,-297 984.5,-327"/>
<text text-anchor="start" x="864.5" y="-315" font-family="Helvetica,sans-Serif" font-size="10.00">eufs_msgs/srv/set_can</text>
<text text-anchor="middle" x="920.5" y="-304" font-family="Helvetica,sans-Serif" font-size="10.00">_state.hpp</text>
</a>
</g>
</g>
<!-- Node25&#45;&gt;Node27 -->
<g id="edge36_Node000025_Node000027" class="edge">
<title>Node25&#45;&gt;Node27</title>
<g id="a_edge36_Node000025_Node000027"><a xlink:title=" ">
<path fill="none" stroke="#63b8ff" d="M1249.79,-364.18C1188.86,-356.25 1089.76,-342.82 994.64,-327.14"/>
<polygon fill="#63b8ff" stroke="#63b8ff" points="995,-323.65 984.56,-325.47 993.85,-330.56 995,-323.65"/>
</a>
</g>
</g>
<!-- Node28 -->
<g id="Node000028" class="node">
<title>Node28</title>
<g id="a_Node000028"><a xlink:title=" ">
<polygon fill="#e0e0e0" stroke="#999999" points="1124.5,-327 1002.5,-327 1002.5,-297 1124.5,-297 1124.5,-327"/>
<text text-anchor="start" x="1010.5" y="-315" font-family="Helvetica,sans-Serif" font-size="10.00">fs_msgs/msg/finished</text>
<text text-anchor="middle" x="1063.5" y="-304" font-family="Helvetica,sans-Serif" font-size="10.00">_signal.hpp</text>
</a>
</g>
</g>
<!-- Node25&#45;&gt;Node28 -->
<g id="edge37_Node000025_Node000028" class="edge">
<title>Node25&#45;&gt;Node28</title>
<g id="a_edge37_Node000025_Node000028"><a xlink:title=" ">
<path fill="none" stroke="#63b8ff" d="M1272.02,-362.99C1235.45,-354.23 1177.5,-340.33 1131.97,-329.42"/>
<polygon fill="#63b8ff" stroke="#63b8ff" points="1132.7,-325.99 1122.16,-327.06 1131.07,-332.8 1132.7,-325.99"/>
</a>
</g>
</g>
<!-- Node29 -->
<g id="Node000029" class="node">
<title>Node29</title>
<g id="a_Node000029"><a xlink:title=" ">
<polygon fill="#e0e0e0" stroke="#999999" points="1294.5,-321.5 1142.5,-321.5 1142.5,-302.5 1294.5,-302.5 1294.5,-321.5"/>
<text text-anchor="middle" x="1218.5" y="-309.5" font-family="Helvetica,sans-Serif" font-size="10.00">fs_msgs/msg/go_signal.hpp</text>
</a>
</g>
</g>
<!-- Node25&#45;&gt;Node29 -->
<g id="edge38_Node000025_Node000029" class="edge">
<title>Node25&#45;&gt;Node29</title>
<g id="a_edge38_Node000025_Node000029"><a xlink:title=" ">
<path fill="none" stroke="#63b8ff" d="M1294.37,-362.87C1280.17,-353.54 1257.3,-338.51 1240.38,-327.38"/>
<polygon fill="#63b8ff" stroke="#63b8ff" points="1241.97,-324.24 1231.69,-321.67 1238.12,-330.08 1241.97,-324.24"/>
</a>
</g>
</g>
<!-- Node30 -->
<g id="Node000030" class="node">
<title>Node30</title>
<g id="a_Node000030"><a xlink:title=" ">
<polygon fill="#e0e0e0" stroke="#999999" points="1482.5,-321.5 1312.5,-321.5 1312.5,-302.5 1482.5,-302.5 1482.5,-321.5"/>
<text text-anchor="middle" x="1397.5" y="-309.5" font-family="Helvetica,sans-Serif" font-size="10.00">fs_msgs/msg/wheel_states.hpp</text>
</a>
</g>
</g>
<!-- Node25&#45;&gt;Node30 -->
<g id="edge39_Node000025_Node000030" class="edge">
<title>Node25&#45;&gt;Node30</title>
<g id="a_edge39_Node000025_Node000030"><a xlink:title=" ">
<path fill="none" stroke="#63b8ff" d="M1320.78,-362.87C1335.14,-353.54 1358.26,-338.51 1375.37,-327.38"/>
<polygon fill="#63b8ff" stroke="#63b8ff" points="1377.69,-330.05 1384.17,-321.67 1373.87,-324.18 1377.69,-330.05"/>
</a>
</g>
</g>
</g>
</svg>

<g id="navigator" transform="translate(0 0)" fill="#404254">
  <rect fill="#f2f5e9" fill-opacity="0.5" stroke="#606060" stroke-width=".5" x="0" y="0" width="60" height="60"/>
  <use id="zoomplus" xlink:href="#zoomPlus" x="17" y="9" onmousedown="handleZoom(evt,'in')"/>
  <use id="zoomminus" xlink:href="#zoomMin" x="42" y="9" onmousedown="handleZoom(evt,'out')"/>
  <use id="reset" xlink:href="#resetDef" x="30" y="36" onmousedown="handleReset()"/>
   <use id="arrowup" xlink:href="#arrowUp" x="0" y="0" onmousedown="handlePan(0,-1)"/>
  <use id="arrowright" xlink:href="#arrowRight" x="0" y="0" onmousedown="handlePan(1,0)"/>
  <use id="arrowdown" xlink:href="#arrowDown" x="0" y="0" onmousedown="handlePan(0,1)"/>
  <use id="arrowleft" xlink:href="#arrowLeft" x="0" y="0" onmousedown="handlePan(-1,0)"/>
</g>
<svg viewBox="0 0 15 15" width="100%" height="30px" preserveAspectRatio="xMaxYMin meet">
 <g id="arrow_out" transform="scale(0.3 0.3)">
  <a xlink:href="lm__node_8cpp__incl_org.svg" target="_base">
   <rect id="button" ry="5" rx="5" y="6" x="6" height="38" width="38"
        fill="#f2f5e9" fill-opacity="0.5" stroke="#606060" stroke-width="1.0"/>
   <path id="arrow"
     d="M 11.500037,31.436501 C 11.940474,20.09759 22.043105,11.32322 32.158766,21.979434 L 37.068811,17.246167 C 37.068811,17.246167 37.088388,32 37.088388,32 L 22.160133,31.978069 C 22.160133,31.978069 26.997745,27.140456 26.997745,27.140456 C 18.528582,18.264221 13.291696,25.230495 11.500037,31.436501 z"
     style="fill:#404040;"/>
  </a>
 </g>
</svg>

<style type='text/css'>
<![CDATA[
[data-mouse-over-selected='false'] { opacity: 0.7; }
[data-mouse-over-selected='true']  { opacity: 1.0; }
]]>
</style>
<script type="application/ecmascript"><![CDATA[
document.addEventListener('DOMContentLoaded', (event) => {
  highlightEdges();
  highlightAdjacentNodes();
});
]]></script>
</svg>
