<?xml version="1.0" encoding="UTF-8" standalone="no"?>
<!DOCTYPE svg PUBLIC "-//W3C//DTD SVG 1.1//EN"
 "http://www.w3.org/Graphics/SVG/1.1/DTD/svg11.dtd">
<!-- Generated by graphviz version 2.43.0 (0)
 -->
<!-- Title: src/loc_map/src/loc_map.cpp Pages: 1 -->
<svg width="1881pt" height="390pt"
 viewBox="0.00 0.00 1880.50 390.00" xmlns="http://www.w3.org/2000/svg" xmlns:xlink="http://www.w3.org/1999/xlink">
<g id="graph0" class="graph" transform="scale(1 1) rotate(0) translate(4 386)">
<title>src/loc_map/src/loc_map.cpp</title>
<!-- Node1 -->
<g id="Node000001" class="node">
<title>Node1</title>
<g id="a_Node000001"><a xlink:title=" ">
<polygon fill="#999999" stroke="#666666" points="1143,-382 1033,-382 1033,-352 1143,-352 1143,-382"/>
<text text-anchor="start" x="1041" y="-370" font-family="Helvetica,sans-Serif" font-size="10.00">src/loc_map/src/loc</text>
<text text-anchor="middle" x="1088" y="-359" font-family="Helvetica,sans-Serif" font-size="10.00">_map.cpp</text>
</a>
</g>
</g>
<!-- Node2 -->
<g id="Node000002" class="node">
<title>Node2</title>
<g id="a_Node000002"><a xlink:title=" ">
<polygon fill="#e0e0e0" stroke="#999999" points="1008,-316 962,-316 962,-297 1008,-297 1008,-316"/>
<text text-anchor="middle" x="985" y="-304" font-family="Helvetica,sans-Serif" font-size="10.00">cstdio</text>
</a>
</g>
</g>
<!-- Node1&#45;&gt;Node2 -->
<g id="edge1_Node000001_Node000002" class="edge">
<title>Node1&#45;&gt;Node2</title>
<g id="a_edge1_Node000001_Node000002"><a xlink:title=" ">
<path fill="none" stroke="#63b8ff" d="M1063.33,-351.99C1046.91,-342.66 1025.45,-330.47 1009.14,-321.21"/>
<polygon fill="#63b8ff" stroke="#63b8ff" points="1010.63,-318.03 1000.21,-316.14 1007.18,-324.12 1010.63,-318.03"/>
</a>
</g>
</g>
<!-- Node3 -->
<g id="Node000003" class="node">
<title>Node3</title>
<g id="a_Node000003"><a xlink:href="lm__node_8hpp.html" target="_top" xlink:title=" ">
<polygon fill="white" stroke="#666666" points="1150,-316 1026,-316 1026,-297 1150,-297 1150,-316"/>
<text text-anchor="middle" x="1088" y="-304" font-family="Helvetica,sans-Serif" font-size="10.00">loc_map/lm_node.hpp</text>
</a>
</g>
</g>
<!-- Node1&#45;&gt;Node3 -->
<g id="edge2_Node000001_Node000003" class="edge">
<title>Node1&#45;&gt;Node3</title>
<g id="a_edge2_Node000001_Node000003"><a xlink:title=" ">
<path fill="none" stroke="#63b8ff" d="M1088,-351.84C1088,-344.21 1088,-334.7 1088,-326.45"/>
<polygon fill="#63b8ff" stroke="#63b8ff" points="1091.5,-326.27 1088,-316.27 1084.5,-326.27 1091.5,-326.27"/>
</a>
</g>
</g>
<!-- Node23 -->
<g id="Node000023" class="node">
<title>Node23</title>
<g id="a_Node000023"><a xlink:title=" ">
<polygon fill="#e0e0e0" stroke="#999999" points="1872.5,-255.5 1773.5,-255.5 1773.5,-236.5 1872.5,-236.5 1872.5,-255.5"/>
<text text-anchor="middle" x="1823" y="-243.5" font-family="Helvetica,sans-Serif" font-size="10.00">rclcpp/rclcpp.hpp</text>
</a>
</g>
</g>
<!-- Node1&#45;&gt;Node23 -->
<g id="edge33_Node000001_Node000023" class="edge">
<title>Node1&#45;&gt;Node23</title>
<g id="a_edge33_Node000001_Node000023"><a xlink:title=" ">
<path fill="none" stroke="#63b8ff" d="M1143.02,-358.95C1258.56,-343.82 1534.69,-305.94 1764,-261 1768.97,-260.03 1774.16,-258.92 1779.31,-257.77"/>
<polygon fill="#63b8ff" stroke="#63b8ff" points="1780.13,-261.18 1789.09,-255.53 1778.56,-254.35 1780.13,-261.18"/>
</a>
</g>
</g>
<!-- Node4 -->
<g id="Node000004" class="node">
<title>Node4</title>
<g id="a_Node000004"><a xlink:title=" ">
<polygon fill="#e0e0e0" stroke="#999999" points="1595.5,-255.5 1490.5,-255.5 1490.5,-236.5 1595.5,-236.5 1595.5,-255.5"/>
<text text-anchor="middle" x="1543" y="-243.5" font-family="Helvetica,sans-Serif" font-size="10.00">gtest/gtest_prod.h</text>
</a>
</g>
</g>
<!-- Node3&#45;&gt;Node4 -->
<g id="edge3_Node000003_Node000004" class="edge">
<title>Node3&#45;&gt;Node4</title>
<g id="a_edge3_Node000003_Node000004"><a xlink:title=" ">
<path fill="none" stroke="#63b8ff" d="M1150.23,-300.57C1227.97,-293.93 1364.89,-280.62 1481,-261 1486.72,-260.03 1492.7,-258.88 1498.59,-257.64"/>
<polygon fill="#63b8ff" stroke="#63b8ff" points="1499.34,-261.06 1508.37,-255.52 1497.86,-254.22 1499.34,-261.06"/>
</a>
</g>
</g>
<!-- Node5 -->
<g id="Node000005" class="node">
<title>Node5</title>
<g id="a_Node000005"><a xlink:title=" ">
<polygon fill="#e0e0e0" stroke="#999999" points="1678.5,-255.5 1613.5,-255.5 1613.5,-236.5 1678.5,-236.5 1678.5,-255.5"/>
<text text-anchor="middle" x="1646" y="-243.5" font-family="Helvetica,sans-Serif" font-size="10.00">functional</text>
</a>
</g>
</g>
<!-- Node3&#45;&gt;Node5 -->
<g id="edge4_Node000003_Node000005" class="edge">
<title>Node3&#45;&gt;Node5</title>
<g id="a_edge4_Node000003_Node000005"><a xlink:title=" ">
<path fill="none" stroke="#63b8ff" d="M1150.24,-304.84C1247.89,-302.76 1442.64,-294.36 1604,-261 1607.24,-260.33 1610.57,-259.49 1613.88,-258.56"/>
<polygon fill="#63b8ff" stroke="#63b8ff" points="1615.08,-261.85 1623.6,-255.55 1613.01,-255.16 1615.08,-261.85"/>
</a>
</g>
</g>
<!-- Node6 -->
<g id="Node000006" class="node">
<title>Node6</title>
<g id="a_Node000006"><a xlink:title=" ">
<polygon fill="#e0e0e0" stroke="#999999" points="1755,-255.5 1697,-255.5 1697,-236.5 1755,-236.5 1755,-255.5"/>
<text text-anchor="middle" x="1726" y="-243.5" font-family="Helvetica,sans-Serif" font-size="10.00">memory</text>
</a>
</g>
</g>
<!-- Node3&#45;&gt;Node6 -->
<g id="edge5_Node000003_Node000006" class="edge">
<title>Node3&#45;&gt;Node6</title>
<g id="a_edge5_Node000003_Node000006"><a xlink:title=" ">
<path fill="none" stroke="#63b8ff" d="M1150.38,-303.08C1282.52,-297.59 1586.81,-282.94 1688,-261 1690.68,-260.42 1693.42,-259.69 1696.15,-258.87"/>
<polygon fill="#63b8ff" stroke="#63b8ff" points="1697.44,-262.13 1705.8,-255.63 1695.21,-255.5 1697.44,-262.13"/>
</a>
</g>
</g>
<!-- Node7 -->
<g id="Node000007" class="node">
<title>Node7</title>
<g id="a_Node000007"><a xlink:title=" ">
<polygon fill="#e0e0e0" stroke="#999999" points="272,-19 228,-19 228,0 272,0 272,-19"/>
<text text-anchor="middle" x="250" y="-7" font-family="Helvetica,sans-Serif" font-size="10.00">string</text>
</a>
</g>
</g>
<!-- Node3&#45;&gt;Node7 -->
<g id="edge6_Node000003_Node000007" class="edge">
<title>Node3&#45;&gt;Node7</title>
<g id="a_edge6_Node000003_Node000007"><a xlink:title=" ">
<path fill="none" stroke="#63b8ff" d="M1025.69,-297.78C1022.75,-297.5 1019.85,-297.24 1017,-297 681.34,-268.96 591.8,-318.98 260,-261 140.9,-240.19 0,-301.9 0,-181 0,-181 0,-181 0,-118.5 0,-24.7 150.14,-11.42 217.71,-10.2"/>
<polygon fill="#63b8ff" stroke="#63b8ff" points="217.85,-13.69 227.81,-10.09 217.78,-6.7 217.85,-13.69"/>
</a>
</g>
</g>
<!-- Node8 -->
<g id="Node000008" class="node">
<title>Node8</title>
<g id="a_Node000008"><a xlink:title=" ">
<polygon fill="#e0e0e0" stroke="#999999" points="560.5,-255.5 503.5,-255.5 503.5,-236.5 560.5,-236.5 560.5,-255.5"/>
<text text-anchor="middle" x="532" y="-243.5" font-family="Helvetica,sans-Serif" font-size="10.00">typeinfo</text>
</a>
</g>
</g>
<!-- Node3&#45;&gt;Node8 -->
<g id="edge7_Node000003_Node000008" class="edge">
<title>Node3&#45;&gt;Node8</title>
<g id="a_edge7_Node000003_Node000008"><a xlink:title=" ">
<path fill="none" stroke="#63b8ff" d="M1025.68,-297.9C1022.74,-297.59 1019.84,-297.28 1017,-297 818.24,-277.12 763.9,-304.78 569,-261 566.48,-260.43 563.9,-259.73 561.33,-258.95"/>
<polygon fill="#63b8ff" stroke="#63b8ff" points="562.25,-255.56 551.65,-255.61 559.97,-262.18 562.25,-255.56"/>
</a>
</g>
</g>
<!-- Node9 -->
<g id="Node000009" class="node">
<title>Node9</title>
<g id="a_Node000009"><a xlink:title=" ">
<polygon fill="#e0e0e0" stroke="#999999" points="709.5,-261 578.5,-261 578.5,-231 709.5,-231 709.5,-261"/>
<text text-anchor="start" x="586.5" y="-249" font-family="Helvetica,sans-Serif" font-size="10.00">custom_interfaces/msg</text>
<text text-anchor="middle" x="644" y="-238" font-family="Helvetica,sans-Serif" font-size="10.00">/cone_array.hpp</text>
</a>
</g>
</g>
<!-- Node3&#45;&gt;Node9 -->
<g id="edge8_Node000003_Node000009" class="edge">
<title>Node3&#45;&gt;Node9</title>
<g id="a_edge8_Node000003_Node000009"><a xlink:title=" ">
<path fill="none" stroke="#63b8ff" d="M1025.6,-298.02C932.34,-286.84 763.51,-266.59 719.74,-261.01"/>
<polygon fill="#63b8ff" stroke="#63b8ff" points="720.1,-257.53 709.73,-259.67 719.18,-264.46 720.1,-257.53"/>
</a>
</g>
</g>
<!-- Node10 -->
<g id="Node000010" class="node">
<title>Node10</title>
<g id="a_Node000010"><a xlink:title=" ">
<polygon fill="#e0e0e0" stroke="#999999" points="858.5,-261 727.5,-261 727.5,-231 858.5,-231 858.5,-261"/>
<text text-anchor="start" x="735.5" y="-249" font-family="Helvetica,sans-Serif" font-size="10.00">custom_interfaces/msg</text>
<text text-anchor="middle" x="793" y="-238" font-family="Helvetica,sans-Serif" font-size="10.00">/point2d.hpp</text>
</a>
</g>
</g>
<!-- Node3&#45;&gt;Node10 -->
<g id="edge9_Node000003_Node000010" class="edge">
<title>Node3&#45;&gt;Node10</title>
<g id="a_edge9_Node000003_Node000010"><a xlink:title=" ">
<path fill="none" stroke="#63b8ff" d="M1045.1,-296.99C998.9,-287.83 924.48,-273.07 868.45,-261.96"/>
<polygon fill="#63b8ff" stroke="#63b8ff" points="869.06,-258.51 858.57,-260 867.69,-265.38 869.06,-258.51"/>
</a>
</g>
</g>
<!-- Node11 -->
<g id="Node000011" class="node">
<title>Node11</title>
<g id="a_Node000011"><a xlink:title=" ">
<polygon fill="#e0e0e0" stroke="#999999" points="1007.5,-261 876.5,-261 876.5,-231 1007.5,-231 1007.5,-261"/>
<text text-anchor="start" x="884.5" y="-249" font-family="Helvetica,sans-Serif" font-size="10.00">custom_interfaces/msg</text>
<text text-anchor="middle" x="942" y="-238" font-family="Helvetica,sans-Serif" font-size="10.00">/pose.hpp</text>
</a>
</g>
</g>
<!-- Node3&#45;&gt;Node11 -->
<g id="edge10_Node000003_Node000011" class="edge">
<title>Node3&#45;&gt;Node11</title>
<g id="a_edge10_Node000003_Node000011"><a xlink:title=" ">
<path fill="none" stroke="#63b8ff" d="M1066.77,-296.99C1045.85,-288.61 1013.24,-275.55 986.61,-264.87"/>
<polygon fill="#63b8ff" stroke="#63b8ff" points="987.68,-261.53 977.1,-261.06 985.08,-268.03 987.68,-261.53"/>
</a>
</g>
</g>
<!-- Node12 -->
<g id="Node000012" class="node">
<title>Node12</title>
<g id="a_Node000012"><a xlink:title=" ">
<polygon fill="#e0e0e0" stroke="#999999" points="1150.5,-261 1025.5,-261 1025.5,-231 1150.5,-231 1150.5,-261"/>
<text text-anchor="start" x="1033.5" y="-249" font-family="Helvetica,sans-Serif" font-size="10.00">eufs_msgs/msg/wheel</text>
<text text-anchor="middle" x="1088" y="-238" font-family="Helvetica,sans-Serif" font-size="10.00">_speeds_stamped.hpp</text>
</a>
</g>
</g>
<!-- Node3&#45;&gt;Node12 -->
<g id="edge11_Node000003_Node000012" class="edge">
<title>Node3&#45;&gt;Node12</title>
<g id="a_edge11_Node000003_Node000012"><a xlink:title=" ">
<path fill="none" stroke="#63b8ff" d="M1088,-296.87C1088,-290.11 1088,-280.35 1088,-271.26"/>
<polygon fill="#63b8ff" stroke="#63b8ff" points="1091.5,-271.11 1088,-261.11 1084.5,-271.11 1091.5,-271.11"/>
</a>
</g>
</g>
<!-- Node13 -->
<g id="Node000013" class="node">
<title>Node13</title>
<g id="a_Node000013"><a xlink:href="ekf_8hpp.html" target="_top" xlink:title=" ">
<polygon fill="white" stroke="#666666" points="388.5,-255.5 269.5,-255.5 269.5,-236.5 388.5,-236.5 388.5,-255.5"/>
<text text-anchor="middle" x="329" y="-243.5" font-family="Helvetica,sans-Serif" font-size="10.00">kalman_filter/ekf.hpp</text>
</a>
</g>
</g>
<!-- Node3&#45;&gt;Node13 -->
<g id="edge12_Node000003_Node000013" class="edge">
<title>Node3&#45;&gt;Node13</title>
<g id="a_edge12_Node000003_Node000013"><a xlink:title=" ">
<path fill="none" stroke="#63b8ff" d="M1025.68,-297.84C1022.75,-297.55 1019.84,-297.26 1017,-297 770.42,-274.27 707.73,-282.06 461,-261 440.77,-259.27 418.83,-257.08 398.75,-254.94"/>
<polygon fill="#63b8ff" stroke="#63b8ff" points="399.06,-251.45 388.75,-253.86 398.31,-258.41 399.06,-251.45"/>
</a>
</g>
</g>
<!-- Node17 -->
<g id="Node000017" class="node">
<title>Node17</title>
<g id="a_Node000017"><a xlink:href="data__structures_8hpp.html" target="_top" xlink:title=" ">
<polygon fill="white" stroke="#666666" points="352,-129 194,-129 194,-110 352,-110 352,-129"/>
<text text-anchor="middle" x="273" y="-117" font-family="Helvetica,sans-Serif" font-size="10.00">loc_map/data_structures.hpp</text>
</a>
</g>
</g>
<!-- Node3&#45;&gt;Node17 -->
<g id="edge29_Node000003_Node000017" class="edge">
<title>Node3&#45;&gt;Node17</title>
<g id="a_edge29_Node000003_Node000017"><a xlink:title=" ">
<path fill="none" stroke="#63b8ff" d="M1025.68,-297.86C1022.75,-297.56 1019.84,-297.27 1017,-297 959.01,-291.54 543.95,-290.97 494,-261 450.86,-235.11 474.33,-195.09 434,-165 411.64,-148.32 383.34,-137.89 356.74,-131.37"/>
<polygon fill="#63b8ff" stroke="#63b8ff" points="357.16,-127.88 346.64,-129.06 355.6,-134.7 357.16,-127.88"/>
</a>
</g>
</g>
<!-- Node3&#45;&gt;Node23 -->
<g id="edge30_Node000003_Node000023" class="edge">
<title>Node3&#45;&gt;Node23</title>
<g id="a_edge30_Node000003_Node000023"><a xlink:title=" ">
<path fill="none" stroke="#63b8ff" d="M1150.35,-304.87C1270,-302.9 1539.82,-294.73 1764,-261 1769.6,-260.16 1775.44,-259.05 1781.19,-257.83"/>
<polygon fill="#63b8ff" stroke="#63b8ff" points="1782.36,-261.15 1791.35,-255.54 1780.82,-254.33 1782.36,-261.15"/>
</a>
</g>
</g>
<!-- Node24 -->
<g id="Node000024" class="node">
<title>Node24</title>
<g id="a_Node000024"><a xlink:title=" ">
<polygon fill="#e0e0e0" stroke="#999999" points="1315.5,-255.5 1168.5,-255.5 1168.5,-236.5 1315.5,-236.5 1315.5,-255.5"/>
<text text-anchor="middle" x="1242" y="-243.5" font-family="Helvetica,sans-Serif" font-size="10.00">sensor_msgs/msg/imu.hpp</text>
</a>
</g>
</g>
<!-- Node3&#45;&gt;Node24 -->
<g id="edge31_Node000003_Node000024" class="edge">
<title>Node3&#45;&gt;Node24</title>
<g id="a_edge31_Node000003_Node000024"><a xlink:title=" ">
<path fill="none" stroke="#63b8ff" d="M1110.39,-296.99C1136.62,-287.03 1180.28,-270.45 1210.06,-259.13"/>
<polygon fill="#63b8ff" stroke="#63b8ff" points="1211.47,-262.34 1219.58,-255.52 1208.99,-255.8 1211.47,-262.34"/>
</a>
</g>
</g>
<!-- Node25 -->
<g id="Node000025" class="node">
<title>Node25</title>
<g id="a_Node000025"><a xlink:title=" ">
<polygon fill="#e0e0e0" stroke="#999999" points="1472.5,-255.5 1333.5,-255.5 1333.5,-236.5 1472.5,-236.5 1472.5,-255.5"/>
<text text-anchor="middle" x="1403" y="-243.5" font-family="Helvetica,sans-Serif" font-size="10.00">std_msgs/msg/string.hpp</text>
</a>
</g>
</g>
<!-- Node3&#45;&gt;Node25 -->
<g id="edge32_Node000003_Node000025" class="edge">
<title>Node3&#45;&gt;Node25</title>
<g id="a_edge32_Node000003_Node000025"><a xlink:title=" ">
<path fill="none" stroke="#63b8ff" d="M1133.8,-296.99C1190.26,-286.51 1286.16,-268.7 1346.96,-257.41"/>
<polygon fill="#63b8ff" stroke="#63b8ff" points="1347.95,-260.78 1357.14,-255.52 1346.67,-253.9 1347.95,-260.78"/>
</a>
</g>
</g>
<!-- Node14 -->
<g id="Node000014" class="node">
<title>Node14</title>
<g id="a_Node000014"><a xlink:title=" ">
<polygon fill="#e0e0e0" stroke="#999999" points="163.5,-129 86.5,-129 86.5,-110 163.5,-110 163.5,-129"/>
<text text-anchor="middle" x="125" y="-117" font-family="Helvetica,sans-Serif" font-size="10.00">Eigen/Dense</text>
</a>
</g>
</g>
<!-- Node13&#45;&gt;Node14 -->
<g id="edge13_Node000013_Node000014" class="edge">
<title>Node13&#45;&gt;Node14</title>
<g id="a_edge13_Node000013_Node000014"><a xlink:title=" ">
<path fill="none" stroke="#63b8ff" d="M269.21,-242.65C197.46,-238.43 83.47,-226.77 57,-195 48.47,-184.76 50.66,-176.73 57,-165 64.58,-150.98 78.7,-140.67 92.13,-133.53"/>
<polygon fill="#63b8ff" stroke="#63b8ff" points="93.77,-136.62 101.22,-129.08 90.7,-130.33 93.77,-136.62"/>
</a>
</g>
</g>
<!-- Node15 -->
<g id="Node000015" class="node">
<title>Node15</title>
<g id="a_Node000015"><a xlink:title=" ">
<polygon fill="#e0e0e0" stroke="#999999" points="408.5,-189.5 361.5,-189.5 361.5,-170.5 408.5,-170.5 408.5,-189.5"/>
<text text-anchor="middle" x="385" y="-177.5" font-family="Helvetica,sans-Serif" font-size="10.00">vector</text>
</a>
</g>
</g>
<!-- Node13&#45;&gt;Node15 -->
<g id="edge14_Node000013_Node000015" class="edge">
<title>Node13&#45;&gt;Node15</title>
<g id="a_edge14_Node000013_Node000015"><a xlink:title=" ">
<path fill="none" stroke="#63b8ff" d="M336.55,-236.37C345.19,-226.5 359.53,-210.11 370.37,-197.72"/>
<polygon fill="#63b8ff" stroke="#63b8ff" points="373.26,-199.74 377.21,-189.91 367.99,-195.13 373.26,-199.74"/>
</a>
</g>
</g>
<!-- Node16 -->
<g id="Node000016" class="node">
<title>Node16</title>
<g id="a_Node000016"><a xlink:href="motion__models_8hpp.html" target="_top" xlink:title=" ">
<polygon fill="white" stroke="#666666" points="184,-195 66,-195 66,-165 184,-165 184,-195"/>
<text text-anchor="start" x="74" y="-183" font-family="Helvetica,sans-Serif" font-size="10.00">kalman_filter/motion</text>
<text text-anchor="middle" x="125" y="-172" font-family="Helvetica,sans-Serif" font-size="10.00">_models.hpp</text>
</a>
</g>
</g>
<!-- Node13&#45;&gt;Node16 -->
<g id="edge15_Node000013_Node000016" class="edge">
<title>Node13&#45;&gt;Node16</title>
<g id="a_edge15_Node000013_Node000016"><a xlink:title=" ">
<path fill="none" stroke="#63b8ff" d="M301.49,-236.37C270.41,-226.62 219.04,-210.5 179.71,-198.16"/>
<polygon fill="#63b8ff" stroke="#63b8ff" points="180.58,-194.77 169.99,-195.12 178.49,-201.45 180.58,-194.77"/>
</a>
</g>
</g>
<!-- Node13&#45;&gt;Node17 -->
<g id="edge28_Node000013_Node000017" class="edge">
<title>Node13&#45;&gt;Node17</title>
<g id="a_edge28_Node000013_Node000017"><a xlink:title=" ">
<path fill="none" stroke="#63b8ff" d="M359.64,-236.44C379.83,-229.04 404.71,-216.11 417,-195 423.71,-183.48 424.91,-175.73 417,-165 403.73,-147.01 383.29,-136.08 361.93,-129.48"/>
<polygon fill="#63b8ff" stroke="#63b8ff" points="362.65,-126.05 352.08,-126.75 360.78,-132.8 362.65,-126.05"/>
</a>
</g>
</g>
<!-- Node22 -->
<g id="Node000022" class="node">
<title>Node22</title>
<g id="a_Node000022"><a xlink:href="observation__models_8hpp.html" target="_top" xlink:title=" ">
<polygon fill="white" stroke="#666666" points="343.5,-195 202.5,-195 202.5,-165 343.5,-165 343.5,-195"/>
<text text-anchor="start" x="210.5" y="-183" font-family="Helvetica,sans-Serif" font-size="10.00">kalman_filter/observation</text>
<text text-anchor="middle" x="273" y="-172" font-family="Helvetica,sans-Serif" font-size="10.00">_models.hpp</text>
</a>
</g>
</g>
<!-- Node13&#45;&gt;Node22 -->
<g id="edge25_Node000013_Node000022" class="edge">
<title>Node13&#45;&gt;Node22</title>
<g id="a_edge25_Node000013_Node000022"><a xlink:title=" ">
<path fill="none" stroke="#63b8ff" d="M321.45,-236.37C313.98,-227.83 302.23,-214.41 292.18,-202.92"/>
<polygon fill="#63b8ff" stroke="#63b8ff" points="294.78,-200.58 285.57,-195.36 289.52,-205.19 294.78,-200.58"/>
</a>
</g>
</g>
<!-- Node16&#45;&gt;Node14 -->
<g id="edge16_Node000016_Node000014" class="edge">
<title>Node16&#45;&gt;Node14</title>
<g id="a_edge16_Node000016_Node000014"><a xlink:title=" ">
<path fill="none" stroke="#63b8ff" d="M125,-164.84C125,-157.21 125,-147.7 125,-139.45"/>
<polygon fill="#63b8ff" stroke="#63b8ff" points="128.5,-139.27 125,-129.27 121.5,-139.27 128.5,-139.27"/>
</a>
</g>
</g>
<!-- Node16&#45;&gt;Node17 -->
<g id="edge17_Node000016_Node000017" class="edge">
<title>Node16&#45;&gt;Node17</title>
<g id="a_edge17_Node000016_Node000017"><a xlink:title=" ">
<path fill="none" stroke="#63b8ff" d="M160.45,-164.99C185.14,-155.23 217.78,-142.33 241.55,-132.93"/>
<polygon fill="#63b8ff" stroke="#63b8ff" points="243.13,-136.07 251.14,-129.14 240.56,-129.56 243.13,-136.07"/>
</a>
</g>
</g>
<!-- Node17&#45;&gt;Node7 -->
<g id="edge20_Node000017_Node000007" class="edge">
<title>Node17&#45;&gt;Node7</title>
<g id="a_edge20_Node000017_Node000007"><a xlink:title=" ">
<path fill="none" stroke="#63b8ff" d="M271.12,-109.66C267.38,-92.09 258.93,-52.45 253.93,-28.95"/>
<polygon fill="#63b8ff" stroke="#63b8ff" points="257.35,-28.21 251.84,-19.16 250.5,-29.67 257.35,-28.21"/>
</a>
</g>
</g>
<!-- Node18 -->
<g id="Node000018" class="node">
<title>Node18</title>
<g id="a_Node000018"><a xlink:title=" ">
<polygon fill="#e0e0e0" stroke="#999999" points="102,-74 52,-74 52,-55 102,-55 102,-74"/>
<text text-anchor="middle" x="77" y="-62" font-family="Helvetica,sans-Serif" font-size="10.00">chrono</text>
</a>
</g>
</g>
<!-- Node17&#45;&gt;Node18 -->
<g id="edge18_Node000017_Node000018" class="edge">
<title>Node17&#45;&gt;Node18</title>
<g id="a_edge18_Node000017_Node000018"><a xlink:title=" ">
<path fill="none" stroke="#63b8ff" d="M241.51,-109.98C206.1,-100.41 148.75,-84.9 111.97,-74.96"/>
<polygon fill="#63b8ff" stroke="#63b8ff" points="112.75,-71.54 102.18,-72.31 110.92,-78.3 112.75,-71.54"/>
</a>
</g>
</g>
<!-- Node19 -->
<g id="Node000019" class="node">
<title>Node19</title>
<g id="a_Node000019"><a xlink:title=" ">
<polygon fill="#e0e0e0" stroke="#999999" points="375,-19 337,-19 337,0 375,0 375,-19"/>
<text text-anchor="middle" x="356" y="-7" font-family="Helvetica,sans-Serif" font-size="10.00">map</text>
</a>
</g>
</g>
<!-- Node17&#45;&gt;Node19 -->
<g id="edge19_Node000017_Node000019" class="edge">
<title>Node17&#45;&gt;Node19</title>
<g id="a_edge19_Node000017_Node000019"><a xlink:title=" ">
<path fill="none" stroke="#63b8ff" d="M317.76,-109.92C337.95,-103.58 359.92,-92.67 372,-74 380.94,-60.17 374.65,-41.67 367.49,-28.2"/>
<polygon fill="#63b8ff" stroke="#63b8ff" points="370.42,-26.27 362.33,-19.42 364.38,-29.82 370.42,-26.27"/>
</a>
</g>
</g>
<!-- Node20 -->
<g id="Node000020" class="node">
<title>Node20</title>
<g id="a_Node000020"><a xlink:href="color_8hpp.html" target="_top" xlink:title=" ">
<polygon fill="white" stroke="#666666" points="363.5,-74 278.5,-74 278.5,-55 363.5,-55 363.5,-74"/>
<text text-anchor="middle" x="321" y="-62" font-family="Helvetica,sans-Serif" font-size="10.00">utils/color.hpp</text>
</a>
</g>
</g>
<!-- Node17&#45;&gt;Node20 -->
<g id="edge21_Node000017_Node000020" class="edge">
<title>Node17&#45;&gt;Node20</title>
<g id="a_edge21_Node000017_Node000020"><a xlink:title=" ">
<path fill="none" stroke="#63b8ff" d="M280.93,-109.75C287.85,-102.11 298.07,-90.82 306.45,-81.56"/>
<polygon fill="#63b8ff" stroke="#63b8ff" points="309.1,-83.85 313.22,-74.09 303.91,-79.15 309.1,-83.85"/>
</a>
</g>
</g>
<!-- Node21 -->
<g id="Node000021" class="node">
<title>Node21</title>
<g id="a_Node000021"><a xlink:href="position_8hpp.html" target="_top" xlink:title=" ">
<polygon fill="white" stroke="#666666" points="221.5,-74 120.5,-74 120.5,-55 221.5,-55 221.5,-74"/>
<text text-anchor="middle" x="171" y="-62" font-family="Helvetica,sans-Serif" font-size="10.00">utils/position.hpp</text>
</a>
</g>
</g>
<!-- Node17&#45;&gt;Node21 -->
<g id="edge24_Node000017_Node000021" class="edge">
<title>Node17&#45;&gt;Node21</title>
<g id="a_edge24_Node000017_Node000021"><a xlink:title=" ">
<path fill="none" stroke="#63b8ff" d="M256.61,-109.98C240.43,-101.57 215.43,-88.59 196.62,-78.81"/>
<polygon fill="#63b8ff" stroke="#63b8ff" points="198.17,-75.68 187.69,-74.17 194.95,-81.89 198.17,-75.68"/>
</a>
</g>
</g>
<!-- Node20&#45;&gt;Node7 -->
<g id="edge23_Node000020_Node000007" class="edge">
<title>Node20&#45;&gt;Node7</title>
<g id="a_edge23_Node000020_Node000007"><a xlink:title=" ">
<path fill="none" stroke="#63b8ff" d="M309.59,-54.98C298.89,-47 282.66,-34.88 269.84,-25.31"/>
<polygon fill="#63b8ff" stroke="#63b8ff" points="271.72,-22.35 261.61,-19.17 267.53,-27.96 271.72,-22.35"/>
</a>
</g>
</g>
<!-- Node20&#45;&gt;Node19 -->
<g id="edge22_Node000020_Node000019" class="edge">
<title>Node20&#45;&gt;Node19</title>
<g id="a_edge22_Node000020_Node000019"><a xlink:title=" ">
<path fill="none" stroke="#63b8ff" d="M326.78,-54.75C331.62,-47.42 338.68,-36.73 344.64,-27.7"/>
<polygon fill="#63b8ff" stroke="#63b8ff" points="347.74,-29.36 350.33,-19.09 341.9,-25.5 347.74,-29.36"/>
</a>
</g>
</g>
<!-- Node22&#45;&gt;Node14 -->
<g id="edge26_Node000022_Node000014" class="edge">
<title>Node22&#45;&gt;Node14</title>
<g id="a_edge26_Node000022_Node000014"><a xlink:title=" ">
<path fill="none" stroke="#63b8ff" d="M237.55,-164.99C212.86,-155.23 180.22,-142.33 156.45,-132.93"/>
<polygon fill="#63b8ff" stroke="#63b8ff" points="157.44,-129.56 146.86,-129.14 154.87,-136.07 157.44,-129.56"/>
</a>
</g>
</g>
<!-- Node22&#45;&gt;Node17 -->
<g id="edge27_Node000022_Node000017" class="edge">
<title>Node22&#45;&gt;Node17</title>
<g id="a_edge27_Node000022_Node000017"><a xlink:title=" ">
<path fill="none" stroke="#63b8ff" d="M273,-164.84C273,-157.21 273,-147.7 273,-139.45"/>
<polygon fill="#63b8ff" stroke="#63b8ff" points="276.5,-139.27 273,-129.27 269.5,-139.27 276.5,-139.27"/>
</a>
</g>
</g>
</g>
</svg>
