<?xml version="1.0" encoding="UTF-8" standalone="no"?>
<!DOCTYPE svg PUBLIC "-//W3C//DTD SVG 1.1//EN"
 "http://www.w3.org/Graphics/SVG/1.1/DTD/svg11.dtd">
<!-- Generated by graphviz version 2.43.0 (0)
 -->
<!-- Title: loc_map/include/kalman_filter/motion_models.hpp Pages: 1 -->
<svg width="772pt" height="307pt"
 viewBox="0.00 0.00 771.50 307.00" xmlns="http://www.w3.org/2000/svg" xmlns:xlink="http://www.w3.org/1999/xlink">
<g id="graph0" class="graph" transform="scale(1 1) rotate(0) translate(4 303)">
<title>loc_map/include/kalman_filter/motion_models.hpp</title>
<polygon fill="white" stroke="transparent" points="-4,4 -4,-303 767.5,-303 767.5,4 -4,4"/>
<!-- Node1 -->
<g id="node1" class="node">
<title>Node1</title>
<g id="a_node1"><a xlink:title=" ">
<polygon fill="#bfbfbf" stroke="black" points="543.5,-268.5 543.5,-298.5 671.5,-298.5 671.5,-268.5 543.5,-268.5"/>
<text text-anchor="start" x="551.5" y="-286.5" font-family="Helvetica,sans-Serif" font-size="10.00">loc_map/include/kalman</text>
<text text-anchor="middle" x="607.5" y="-275.5" font-family="Helvetica,sans-Serif" font-size="10.00">_filter/motion_models.hpp</text>
</a>
</g>
</g>
<!-- Node2 -->
<g id="node2" class="node">
<title>Node2</title>
<g id="a_node2"><a xlink:href="ekf_8hpp.html" target="_top" xlink:title=" ">
<polygon fill="white" stroke="black" points="380.5,-201.5 380.5,-231.5 502.5,-231.5 502.5,-201.5 380.5,-201.5"/>
<text text-anchor="start" x="388.5" y="-219.5" font-family="Helvetica,sans-Serif" font-size="10.00">loc_map/include/kalman</text>
<text text-anchor="middle" x="441.5" y="-208.5" font-family="Helvetica,sans-Serif" font-size="10.00">_filter/ekf.hpp</text>
</a>
</g>
</g>
<!-- Node1&#45;&gt;Node2 -->
<g id="edge1" class="edge">
<title>Node1&#45;&gt;Node2</title>
<path fill="none" stroke="midnightblue" d="M561.99,-264.68C535.37,-254.26 502.23,-241.28 477.45,-231.58"/>
<polygon fill="midnightblue" stroke="midnightblue" points="560.89,-268.01 571.48,-268.4 563.45,-261.49 560.89,-268.01"/>
</g>
<!-- Node9 -->
<g id="node9" class="node">
<title>Node9</title>
<g id="a_node9"><a xlink:href="motion__model__test_8cpp.html" target="_top" xlink:title=" ">
<polygon fill="white" stroke="black" points="534,-67.5 534,-97.5 639,-97.5 639,-67.5 534,-67.5"/>
<text text-anchor="start" x="542" y="-85.5" font-family="Helvetica,sans-Serif" font-size="10.00">loc_map/test/motion</text>
<text text-anchor="middle" x="586.5" y="-74.5" font-family="Helvetica,sans-Serif" font-size="10.00">_model_test.cpp</text>
</a>
</g>
</g>
<!-- Node1&#45;&gt;Node9 -->
<g id="edge13" class="edge">
<title>Node1&#45;&gt;Node9</title>
<path fill="none" stroke="midnightblue" d="M604.91,-258C600.48,-215.93 591.54,-131.26 588,-97.68"/>
<polygon fill="midnightblue" stroke="midnightblue" points="601.46,-258.61 605.99,-268.19 608.42,-257.88 601.46,-258.61"/>
</g>
<!-- Node12 -->
<g id="node12" class="node">
<title>Node12</title>
<g id="a_node12"><a xlink:href="motion__models_8cpp.html" target="_top" xlink:title=" ">
<polygon fill="white" stroke="black" points="635.5,-201.5 635.5,-231.5 763.5,-231.5 763.5,-201.5 635.5,-201.5"/>
<text text-anchor="start" x="643.5" y="-219.5" font-family="Helvetica,sans-Serif" font-size="10.00">loc_map/src/kalman</text>
<text text-anchor="middle" x="699.5" y="-208.5" font-family="Helvetica,sans-Serif" font-size="10.00">_filter/motion_models.cpp</text>
</a>
</g>
</g>
<!-- Node1&#45;&gt;Node12 -->
<g id="edge12" class="edge">
<title>Node1&#45;&gt;Node12</title>
<path fill="none" stroke="midnightblue" d="M635.88,-262.45C650.03,-252.45 666.81,-240.6 679.58,-231.58"/>
<polygon fill="midnightblue" stroke="midnightblue" points="633.61,-259.77 627.46,-268.4 637.65,-265.48 633.61,-259.77"/>
</g>
<!-- Node3 -->
<g id="node3" class="node">
<title>Node3</title>
<g id="a_node3"><a xlink:href="lm__node_8hpp.html" target="_top" xlink:title=" ">
<polygon fill="white" stroke="black" points="198,-134.5 198,-164.5 301,-164.5 301,-134.5 198,-134.5"/>
<text text-anchor="start" x="206" y="-152.5" font-family="Helvetica,sans-Serif" font-size="10.00">loc_map/include/loc</text>
<text text-anchor="middle" x="249.5" y="-141.5" font-family="Helvetica,sans-Serif" font-size="10.00">_map/lm_node.hpp</text>
</a>
</g>
</g>
<!-- Node2&#45;&gt;Node3 -->
<g id="edge2" class="edge">
<title>Node2&#45;&gt;Node3</title>
<path fill="none" stroke="midnightblue" d="M390.08,-198.09C359.08,-187.6 320.12,-174.41 291.08,-164.58"/>
<polygon fill="midnightblue" stroke="midnightblue" points="389.24,-201.5 399.84,-201.4 391.49,-194.87 389.24,-201.5"/>
</g>
<!-- Node10 -->
<g id="node10" class="node">
<title>Node10</title>
<g id="a_node10"><a xlink:href="ekf_8cpp.html" target="_top" xlink:title=" ">
<polygon fill="white" stroke="black" points="319.5,-134.5 319.5,-164.5 423.5,-164.5 423.5,-134.5 319.5,-134.5"/>
<text text-anchor="start" x="327.5" y="-152.5" font-family="Helvetica,sans-Serif" font-size="10.00">loc_map/src/kalman</text>
<text text-anchor="middle" x="371.5" y="-141.5" font-family="Helvetica,sans-Serif" font-size="10.00">_filter/ekf.cpp</text>
</a>
</g>
</g>
<!-- Node2&#45;&gt;Node10 -->
<g id="edge10" class="edge">
<title>Node2&#45;&gt;Node10</title>
<path fill="none" stroke="midnightblue" d="M418.68,-194.31C408.18,-184.56 396.01,-173.26 386.66,-164.58"/>
<polygon fill="midnightblue" stroke="midnightblue" points="416.6,-197.16 426.31,-201.4 421.36,-192.03 416.6,-197.16"/>
</g>
<!-- Node11 -->
<g id="node11" class="node">
<title>Node11</title>
<g id="a_node11"><a xlink:href="slam__test_8cpp.html" target="_top" xlink:title=" ">
<polygon fill="white" stroke="black" points="442,-140 442,-159 579,-159 579,-140 442,-140"/>
<text text-anchor="middle" x="510.5" y="-147" font-family="Helvetica,sans-Serif" font-size="10.00">loc_map/test/slam_test.cpp</text>
</a>
</g>
</g>
<!-- Node2&#45;&gt;Node11 -->
<g id="edge11" class="edge">
<title>Node2&#45;&gt;Node11</title>
<path fill="none" stroke="midnightblue" d="M463.97,-194.34C476.64,-182.4 491.78,-168.14 501.27,-159.19"/>
<polygon fill="midnightblue" stroke="midnightblue" points="461.35,-191.99 456.47,-201.4 466.15,-197.09 461.35,-191.99"/>
</g>
<!-- Node4 -->
<g id="node4" class="node">
<title>Node4</title>
<g id="a_node4"><a xlink:href="adapter_8hpp.html" target="_top" xlink:title=" ">
<polygon fill="white" stroke="black" points="28.5,-67.5 28.5,-97.5 150.5,-97.5 150.5,-67.5 28.5,-67.5"/>
<text text-anchor="start" x="36.5" y="-85.5" font-family="Helvetica,sans-Serif" font-size="10.00">loc_map/include/adapter</text>
<text text-anchor="middle" x="89.5" y="-74.5" font-family="Helvetica,sans-Serif" font-size="10.00">/adapter.hpp</text>
</a>
</g>
</g>
<!-- Node3&#45;&gt;Node4 -->
<g id="edge3" class="edge">
<title>Node3&#45;&gt;Node4</title>
<path fill="none" stroke="midnightblue" d="M205.3,-130.54C179.7,-120.14 147.93,-107.24 124.15,-97.58"/>
<polygon fill="midnightblue" stroke="midnightblue" points="204.2,-133.87 214.78,-134.4 206.84,-127.39 204.2,-133.87"/>
</g>
<!-- Node6 -->
<g id="node6" class="node">
<title>Node6</title>
<g id="a_node6"><a xlink:href="lm__node_8cpp.html" target="_top" xlink:title=" ">
<polygon fill="white" stroke="black" points="123.5,-0.5 123.5,-30.5 233.5,-30.5 233.5,-0.5 123.5,-0.5"/>
<text text-anchor="start" x="131.5" y="-18.5" font-family="Helvetica,sans-Serif" font-size="10.00">loc_map/src/loc_map</text>
<text text-anchor="middle" x="178.5" y="-7.5" font-family="Helvetica,sans-Serif" font-size="10.00">/lm_node.cpp</text>
</a>
</g>
</g>
<!-- Node3&#45;&gt;Node6 -->
<g id="edge6" class="edge">
<title>Node3&#45;&gt;Node6</title>
<path fill="none" stroke="midnightblue" d="M222.64,-127.88C213.42,-119.53 203.84,-109.21 197.5,-98 185.34,-76.5 180.95,-47.61 179.38,-30.63"/>
<polygon fill="midnightblue" stroke="midnightblue" points="220.35,-130.53 230.22,-134.4 224.92,-125.23 220.35,-130.53"/>
</g>
<!-- Node7 -->
<g id="node7" class="node">
<title>Node7</title>
<g id="a_node7"><a xlink:href="loc__map_8cpp.html" target="_top" xlink:title=" ">
<polygon fill="white" stroke="black" points="206.5,-73 206.5,-92 334.5,-92 334.5,-73 206.5,-73"/>
<text text-anchor="middle" x="270.5" y="-80" font-family="Helvetica,sans-Serif" font-size="10.00">loc_map/src/loc_map.cpp</text>
</a>
</g>
</g>
<!-- Node3&#45;&gt;Node7 -->
<g id="edge7" class="edge">
<title>Node3&#45;&gt;Node7</title>
<path fill="none" stroke="midnightblue" d="M257.22,-124.6C260.88,-113.28 265.02,-100.46 267.69,-92.19"/>
<polygon fill="midnightblue" stroke="midnightblue" points="253.8,-123.8 254.06,-134.4 260.46,-125.96 253.8,-123.8"/>
</g>
<!-- Node8 -->
<g id="node8" class="node">
<title>Node8</title>
<g id="a_node8"><a xlink:href="integration__test_8cpp.html" target="_top" xlink:title=" ">
<polygon fill="white" stroke="black" points="353,-67.5 353,-97.5 474,-97.5 474,-67.5 353,-67.5"/>
<text text-anchor="start" x="361" y="-85.5" font-family="Helvetica,sans-Serif" font-size="10.00">loc_map/test/integration</text>
<text text-anchor="middle" x="413.5" y="-74.5" font-family="Helvetica,sans-Serif" font-size="10.00">_test.cpp</text>
</a>
</g>
</g>
<!-- Node3&#45;&gt;Node8 -->
<g id="edge8" class="edge">
<title>Node3&#45;&gt;Node8</title>
<path fill="none" stroke="midnightblue" d="M294.46,-130.68C320.76,-120.26 353.5,-107.28 377.98,-97.58"/>
<polygon fill="midnightblue" stroke="midnightblue" points="293.09,-127.46 285.09,-134.4 295.67,-133.97 293.09,-127.46"/>
</g>
<!-- Node3&#45;&gt;Node9 -->
<g id="edge9" class="edge">
<title>Node3&#45;&gt;Node9</title>
<path fill="none" stroke="midnightblue" d="M310.99,-133.96C394.79,-116.51 480.41,-101.4 533.94,-92.27"/>
<polygon fill="midnightblue" stroke="midnightblue" points="310.11,-130.57 301.04,-136.05 311.55,-137.42 310.11,-130.57"/>
</g>
<!-- Node5 -->
<g id="node5" class="node">
<title>Node5</title>
<g id="a_node5"><a xlink:href="adapter_8cpp.html" target="_top" xlink:title=" ">
<polygon fill="white" stroke="black" points="0,-0.5 0,-30.5 105,-30.5 105,-0.5 0,-0.5"/>
<text text-anchor="start" x="8" y="-18.5" font-family="Helvetica,sans-Serif" font-size="10.00">loc_map/src/adapter</text>
<text text-anchor="middle" x="52.5" y="-7.5" font-family="Helvetica,sans-Serif" font-size="10.00">/adapter.cpp</text>
</a>
</g>
</g>
<!-- Node4&#45;&gt;Node5 -->
<g id="edge4" class="edge">
<title>Node4&#45;&gt;Node5</title>
<path fill="none" stroke="midnightblue" d="M76.45,-58.58C71.14,-49.24 65.16,-38.75 60.51,-30.58"/>
<polygon fill="midnightblue" stroke="midnightblue" points="73.48,-60.44 81.47,-67.4 79.57,-56.97 73.48,-60.44"/>
</g>
<!-- Node4&#45;&gt;Node6 -->
<g id="edge5" class="edge">
<title>Node4&#45;&gt;Node6</title>
<path fill="none" stroke="midnightblue" d="M116.95,-61.45C130.64,-51.45 146.87,-39.6 159.23,-30.58"/>
<polygon fill="midnightblue" stroke="midnightblue" points="114.82,-58.67 108.81,-67.4 118.95,-64.32 114.82,-58.67"/>
</g>
</g>
</svg>
