<?xml version="1.0" encoding="UTF-8" standalone="no"?>
<!DOCTYPE svg PUBLIC "-//W3C//DTD SVG 1.1//EN"
 "http://www.w3.org/Graphics/SVG/1.1/DTD/svg11.dtd">
<!-- Generated by graphviz version 2.43.0 (0)
 -->
<!-- Title: loc_map/src/kalman_filter/motion_models.cpp Pages: 1 -->
<svg width="356pt" height="274pt"
 viewBox="0.00 0.00 355.50 274.00" xmlns="http://www.w3.org/2000/svg" xmlns:xlink="http://www.w3.org/1999/xlink">
<g id="graph0" class="graph" transform="scale(1 1) rotate(0) translate(4 270)">
<title>loc_map/src/kalman_filter/motion_models.cpp</title>
<polygon fill="white" stroke="transparent" points="-4,4 -4,-270 351.5,-270 351.5,4 -4,4"/>
<!-- Node1 -->
<g id="node1" class="node">
<title>Node1</title>
<g id="a_node1"><a xlink:title=" ">
<polygon fill="#bfbfbf" stroke="black" points="132.5,-235.5 132.5,-265.5 260.5,-265.5 260.5,-235.5 132.5,-235.5"/>
<text text-anchor="start" x="140.5" y="-253.5" font-family="Helvetica,sans-Serif" font-size="10.00">loc_map/src/kalman</text>
<text text-anchor="middle" x="196.5" y="-242.5" font-family="Helvetica,sans-Serif" font-size="10.00">_filter/motion_models.cpp</text>
</a>
</g>
</g>
<!-- Node2 -->
<g id="node2" class="node">
<title>Node2</title>
<g id="a_node2"><a xlink:href="motion__models_8hpp.html" target="_top" xlink:title=" ">
<polygon fill="white" stroke="black" points="47.5,-168.5 47.5,-198.5 151.5,-198.5 151.5,-168.5 47.5,-168.5"/>
<text text-anchor="start" x="55.5" y="-186.5" font-family="Helvetica,sans-Serif" font-size="10.00">kalman_filter/motion</text>
<text text-anchor="middle" x="99.5" y="-175.5" font-family="Helvetica,sans-Serif" font-size="10.00">_models.hpp</text>
</a>
</g>
</g>
<!-- Node1&#45;&gt;Node2 -->
<g id="edge1" class="edge">
<title>Node1&#45;&gt;Node2</title>
<path fill="none" stroke="midnightblue" d="M175.45,-235.4C161.85,-226.28 143.96,-214.29 128.95,-204.24"/>
<polygon fill="midnightblue" stroke="midnightblue" points="130.76,-201.24 120.51,-198.58 126.87,-207.05 130.76,-201.24"/>
</g>
<!-- Node10 -->
<g id="node10" class="node">
<title>Node10</title>
<g id="a_node10"><a xlink:title=" ">
<polygon fill="white" stroke="#bfbfbf" points="169.5,-174 169.5,-193 223.5,-193 223.5,-174 169.5,-174"/>
<text text-anchor="middle" x="196.5" y="-181" font-family="Helvetica,sans-Serif" font-size="10.00">iostream</text>
</a>
</g>
</g>
<!-- Node1&#45;&gt;Node10 -->
<g id="edge11" class="edge">
<title>Node1&#45;&gt;Node10</title>
<path fill="none" stroke="midnightblue" d="M196.5,-235.4C196.5,-226.06 196.5,-213.71 196.5,-203.52"/>
<polygon fill="midnightblue" stroke="midnightblue" points="200,-203.19 196.5,-193.19 193,-203.19 200,-203.19"/>
</g>
<!-- Node11 -->
<g id="node11" class="node">
<title>Node11</title>
<g id="a_node11"><a xlink:href="formulas_8hpp.html" target="_top" xlink:title=" ">
<polygon fill="white" stroke="black" points="241.5,-174 241.5,-193 335.5,-193 335.5,-174 241.5,-174"/>
<text text-anchor="middle" x="288.5" y="-181" font-family="Helvetica,sans-Serif" font-size="10.00">utils/formulas.hpp</text>
</a>
</g>
</g>
<!-- Node1&#45;&gt;Node11 -->
<g id="edge12" class="edge">
<title>Node1&#45;&gt;Node11</title>
<path fill="none" stroke="midnightblue" d="M216.46,-235.4C231.75,-224.6 252.75,-209.76 268.14,-198.89"/>
<polygon fill="midnightblue" stroke="midnightblue" points="270.31,-201.64 276.46,-193.01 266.27,-195.92 270.31,-201.64"/>
</g>
<!-- Node3 -->
<g id="node3" class="node">
<title>Node3</title>
<g id="a_node3"><a xlink:title=" ">
<polygon fill="white" stroke="#bfbfbf" points="0,-112.5 0,-131.5 73,-131.5 73,-112.5 0,-112.5"/>
<text text-anchor="middle" x="36.5" y="-119.5" font-family="Helvetica,sans-Serif" font-size="10.00">Eigen/Dense</text>
</a>
</g>
</g>
<!-- Node2&#45;&gt;Node3 -->
<g id="edge2" class="edge">
<title>Node2&#45;&gt;Node3</title>
<path fill="none" stroke="midnightblue" d="M84.57,-168.4C75.13,-159.49 62.92,-147.95 53.17,-138.74"/>
<polygon fill="midnightblue" stroke="midnightblue" points="55.34,-135.98 45.67,-131.66 50.53,-141.07 55.34,-135.98"/>
</g>
<!-- Node4 -->
<g id="node4" class="node">
<title>Node4</title>
<g id="a_node4"><a xlink:href="data__structures_8hpp.html" target="_top" xlink:title=" ">
<polygon fill="white" stroke="black" points="91,-112.5 91,-131.5 234,-131.5 234,-112.5 91,-112.5"/>
<text text-anchor="middle" x="162.5" y="-119.5" font-family="Helvetica,sans-Serif" font-size="10.00">loc_map/data_structures.hpp</text>
</a>
</g>
</g>
<!-- Node2&#45;&gt;Node4 -->
<g id="edge3" class="edge">
<title>Node2&#45;&gt;Node4</title>
<path fill="none" stroke="midnightblue" d="M114.43,-168.4C123.87,-159.49 136.08,-147.95 145.83,-138.74"/>
<polygon fill="midnightblue" stroke="midnightblue" points="148.47,-141.07 153.33,-131.66 143.66,-135.98 148.47,-141.07"/>
</g>
<!-- Node5 -->
<g id="node5" class="node">
<title>Node5</title>
<g id="a_node5"><a xlink:title=" ">
<polygon fill="white" stroke="#bfbfbf" points="21.5,-56.5 21.5,-75.5 67.5,-75.5 67.5,-56.5 21.5,-56.5"/>
<text text-anchor="middle" x="44.5" y="-63.5" font-family="Helvetica,sans-Serif" font-size="10.00">chrono</text>
</a>
</g>
</g>
<!-- Node4&#45;&gt;Node5 -->
<g id="edge4" class="edge">
<title>Node4&#45;&gt;Node5</title>
<path fill="none" stroke="midnightblue" d="M143.8,-112.44C124.56,-103.64 94.35,-89.81 72.3,-79.72"/>
<polygon fill="midnightblue" stroke="midnightblue" points="73.66,-76.5 63.11,-75.52 70.75,-82.86 73.66,-76.5"/>
</g>
<!-- Node6 -->
<g id="node6" class="node">
<title>Node6</title>
<g id="a_node6"><a xlink:title=" ">
<polygon fill="white" stroke="#bfbfbf" points="114,-0.5 114,-19.5 149,-19.5 149,-0.5 114,-0.5"/>
<text text-anchor="middle" x="131.5" y="-7.5" font-family="Helvetica,sans-Serif" font-size="10.00">map</text>
</a>
</g>
</g>
<!-- Node4&#45;&gt;Node6 -->
<g id="edge5" class="edge">
<title>Node4&#45;&gt;Node6</title>
<path fill="none" stroke="midnightblue" d="M148.13,-112.33C136.62,-104.47 121.31,-91.72 114.5,-76 107.85,-60.65 113.99,-42.09 120.67,-28.74"/>
<polygon fill="midnightblue" stroke="midnightblue" points="123.9,-30.13 125.69,-19.69 117.78,-26.74 123.9,-30.13"/>
</g>
<!-- Node7 -->
<g id="node7" class="node">
<title>Node7</title>
<g id="a_node7"><a xlink:title=" ">
<polygon fill="white" stroke="#bfbfbf" points="172,-0.5 172,-19.5 213,-19.5 213,-0.5 172,-0.5"/>
<text text-anchor="middle" x="192.5" y="-7.5" font-family="Helvetica,sans-Serif" font-size="10.00">string</text>
</a>
</g>
</g>
<!-- Node4&#45;&gt;Node7 -->
<g id="edge6" class="edge">
<title>Node4&#45;&gt;Node7</title>
<path fill="none" stroke="midnightblue" d="M176.87,-112.33C188.38,-104.47 203.69,-91.72 210.5,-76 217.18,-60.59 210.72,-42.04 203.75,-28.71"/>
<polygon fill="midnightblue" stroke="midnightblue" points="206.56,-26.58 198.53,-19.67 200.5,-30.08 206.56,-26.58"/>
</g>
<!-- Node8 -->
<g id="node8" class="node">
<title>Node8</title>
<g id="a_node8"><a xlink:href="color_8hpp.html" target="_top" xlink:title=" ">
<polygon fill="white" stroke="black" points="124,-56.5 124,-75.5 201,-75.5 201,-56.5 124,-56.5"/>
<text text-anchor="middle" x="162.5" y="-63.5" font-family="Helvetica,sans-Serif" font-size="10.00">utils/color.hpp</text>
</a>
</g>
</g>
<!-- Node4&#45;&gt;Node8 -->
<g id="edge7" class="edge">
<title>Node4&#45;&gt;Node8</title>
<path fill="none" stroke="midnightblue" d="M162.5,-112.08C162.5,-105.01 162.5,-94.86 162.5,-85.99"/>
<polygon fill="midnightblue" stroke="midnightblue" points="166,-85.75 162.5,-75.75 159,-85.75 166,-85.75"/>
</g>
<!-- Node9 -->
<g id="node9" class="node">
<title>Node9</title>
<g id="a_node9"><a xlink:href="position_8hpp.html" target="_top" xlink:title=" ">
<polygon fill="white" stroke="black" points="257.5,-56.5 257.5,-75.5 347.5,-75.5 347.5,-56.5 257.5,-56.5"/>
<text text-anchor="middle" x="302.5" y="-63.5" font-family="Helvetica,sans-Serif" font-size="10.00">utils/position.hpp</text>
</a>
</g>
</g>
<!-- Node4&#45;&gt;Node9 -->
<g id="edge10" class="edge">
<title>Node4&#45;&gt;Node9</title>
<path fill="none" stroke="midnightblue" d="M184.68,-112.44C207.93,-103.48 244.65,-89.31 270.92,-79.18"/>
<polygon fill="midnightblue" stroke="midnightblue" points="272.35,-82.38 280.42,-75.52 269.83,-75.85 272.35,-82.38"/>
</g>
<!-- Node8&#45;&gt;Node6 -->
<g id="edge8" class="edge">
<title>Node8&#45;&gt;Node6</title>
<path fill="none" stroke="midnightblue" d="M157.38,-56.08C153.09,-48.61 146.84,-37.72 141.56,-28.52"/>
<polygon fill="midnightblue" stroke="midnightblue" points="144.54,-26.68 136.52,-19.75 138.47,-30.17 144.54,-26.68"/>
</g>
<!-- Node8&#45;&gt;Node7 -->
<g id="edge9" class="edge">
<title>Node8&#45;&gt;Node7</title>
<path fill="none" stroke="midnightblue" d="M167.45,-56.08C171.6,-48.61 177.65,-37.72 182.77,-28.52"/>
<polygon fill="midnightblue" stroke="midnightblue" points="185.84,-30.19 187.64,-19.75 179.72,-26.79 185.84,-30.19"/>
</g>
</g>
</svg>
