<?xml version="1.0" encoding="UTF-8" standalone="no"?>
<!DOCTYPE svg PUBLIC "-//W3C//DTD SVG 1.1//EN"
 "http://www.w3.org/Graphics/SVG/1.1/DTD/svg11.dtd">
<!-- Generated by graphviz version 2.43.0 (0)
 -->
<!-- Title: loc_map/include/kalman_filter/observation_models.hpp Pages: 1 -->
<svg width="728pt" height="318pt"
 viewBox="0.00 0.00 727.50 318.00" xmlns="http://www.w3.org/2000/svg" xmlns:xlink="http://www.w3.org/1999/xlink">
<g id="graph0" class="graph" transform="scale(1 1) rotate(0) translate(4 314)">
<title>loc_map/include/kalman_filter/observation_models.hpp</title>
<polygon fill="white" stroke="transparent" points="-4,4 -4,-314 723.5,-314 723.5,4 -4,4"/>
<!-- Node1 -->
<g id="node1" class="node">
<title>Node1</title>
<g id="a_node1"><a xlink:title=" ">
<polygon fill="#bfbfbf" stroke="black" points="449,-279.5 449,-309.5 598,-309.5 598,-279.5 449,-279.5"/>
<text text-anchor="start" x="457" y="-297.5" font-family="Helvetica,sans-Serif" font-size="10.00">loc_map/include/kalman</text>
<text text-anchor="middle" x="523.5" y="-286.5" font-family="Helvetica,sans-Serif" font-size="10.00">_filter/observation_models.hpp</text>
</a>
</g>
</g>
<!-- Node2 -->
<g id="node2" class="node">
<title>Node2</title>
<g id="a_node2"><a xlink:href="ekf_8hpp.html" target="_top" xlink:title=" ">
<polygon fill="white" stroke="black" points="331.5,-207 331.5,-237 453.5,-237 453.5,-207 331.5,-207"/>
<text text-anchor="start" x="339.5" y="-225" font-family="Helvetica,sans-Serif" font-size="10.00">loc_map/include/kalman</text>
<text text-anchor="middle" x="392.5" y="-214" font-family="Helvetica,sans-Serif" font-size="10.00">_filter/ekf.hpp</text>
</a>
</g>
</g>
<!-- Node1&#45;&gt;Node2 -->
<g id="edge1" class="edge">
<title>Node1&#45;&gt;Node2</title>
<path fill="none" stroke="midnightblue" d="M488.3,-274.56C466.37,-262.76 438.63,-247.83 418.65,-237.07"/>
<polygon fill="midnightblue" stroke="midnightblue" points="486.84,-277.75 497.31,-279.4 490.16,-271.58 486.84,-277.75"/>
</g>
<!-- Node12 -->
<g id="node12" class="node">
<title>Node12</title>
<g id="a_node12"><a xlink:href="observation__models_8cpp.html" target="_top" xlink:title=" ">
<polygon fill="white" stroke="black" points="471.5,-201.5 471.5,-242.5 575.5,-242.5 575.5,-201.5 471.5,-201.5"/>
<text text-anchor="start" x="479.5" y="-230.5" font-family="Helvetica,sans-Serif" font-size="10.00">loc_map/src/kalman</text>
<text text-anchor="start" x="479.5" y="-219.5" font-family="Helvetica,sans-Serif" font-size="10.00">_filter/observation</text>
<text text-anchor="middle" x="523.5" y="-208.5" font-family="Helvetica,sans-Serif" font-size="10.00">_models.cpp</text>
</a>
</g>
</g>
<!-- Node1&#45;&gt;Node12 -->
<g id="edge12" class="edge">
<title>Node1&#45;&gt;Node12</title>
<path fill="none" stroke="midnightblue" d="M523.5,-268.98C523.5,-260.35 523.5,-250.76 523.5,-242.59"/>
<polygon fill="midnightblue" stroke="midnightblue" points="520,-269.23 523.5,-279.23 527,-269.23 520,-269.23"/>
</g>
<!-- Node13 -->
<g id="node13" class="node">
<title>Node13</title>
<g id="a_node13"><a xlink:href="observation__model__test_8cpp.html" target="_top" xlink:title=" ">
<polygon fill="white" stroke="black" points="593.5,-207 593.5,-237 719.5,-237 719.5,-207 593.5,-207"/>
<text text-anchor="start" x="601.5" y="-225" font-family="Helvetica,sans-Serif" font-size="10.00">loc_map/test/observation</text>
<text text-anchor="middle" x="656.5" y="-214" font-family="Helvetica,sans-Serif" font-size="10.00">_model_test.cpp</text>
</a>
</g>
</g>
<!-- Node1&#45;&gt;Node13 -->
<g id="edge13" class="edge">
<title>Node1&#45;&gt;Node13</title>
<path fill="none" stroke="midnightblue" d="M558.94,-274.72C581.25,-262.89 609.58,-247.87 629.95,-237.07"/>
<polygon fill="midnightblue" stroke="midnightblue" points="557.29,-271.63 550.09,-279.4 560.57,-277.81 557.29,-271.63"/>
</g>
<!-- Node3 -->
<g id="node3" class="node">
<title>Node3</title>
<g id="a_node3"><a xlink:href="lm__node_8hpp.html" target="_top" xlink:title=" ">
<polygon fill="white" stroke="black" points="219,-134.5 219,-164.5 322,-164.5 322,-134.5 219,-134.5"/>
<text text-anchor="start" x="227" y="-152.5" font-family="Helvetica,sans-Serif" font-size="10.00">loc_map/include/loc</text>
<text text-anchor="middle" x="270.5" y="-141.5" font-family="Helvetica,sans-Serif" font-size="10.00">_map/lm_node.hpp</text>
</a>
</g>
</g>
<!-- Node2&#45;&gt;Node3 -->
<g id="edge2" class="edge">
<title>Node2&#45;&gt;Node3</title>
<path fill="none" stroke="midnightblue" d="M359.45,-201.9C339.07,-190.12 313.38,-175.28 294.85,-164.57"/>
<polygon fill="midnightblue" stroke="midnightblue" points="357.7,-204.93 368.1,-206.9 361.2,-198.87 357.7,-204.93"/>
</g>
<!-- Node10 -->
<g id="node10" class="node">
<title>Node10</title>
<g id="a_node10"><a xlink:href="ekf_8cpp.html" target="_top" xlink:title=" ">
<polygon fill="white" stroke="black" points="340.5,-134.5 340.5,-164.5 444.5,-164.5 444.5,-134.5 340.5,-134.5"/>
<text text-anchor="start" x="348.5" y="-152.5" font-family="Helvetica,sans-Serif" font-size="10.00">loc_map/src/kalman</text>
<text text-anchor="middle" x="392.5" y="-141.5" font-family="Helvetica,sans-Serif" font-size="10.00">_filter/ekf.cpp</text>
</a>
</g>
</g>
<!-- Node2&#45;&gt;Node10 -->
<g id="edge10" class="edge">
<title>Node2&#45;&gt;Node10</title>
<path fill="none" stroke="midnightblue" d="M392.5,-196.73C392.5,-186.07 392.5,-173.91 392.5,-164.75"/>
<polygon fill="midnightblue" stroke="midnightblue" points="389,-196.73 392.5,-206.73 396,-196.73 389,-196.73"/>
</g>
<!-- Node11 -->
<g id="node11" class="node">
<title>Node11</title>
<g id="a_node11"><a xlink:href="slam__test_8cpp.html" target="_top" xlink:title=" ">
<polygon fill="white" stroke="black" points="463,-140 463,-159 600,-159 600,-140 463,-140"/>
<text text-anchor="middle" x="531.5" y="-147" font-family="Helvetica,sans-Serif" font-size="10.00">loc_map/test/slam_test.cpp</text>
</a>
</g>
</g>
<!-- Node2&#45;&gt;Node11 -->
<g id="edge11" class="edge">
<title>Node2&#45;&gt;Node11</title>
<path fill="none" stroke="midnightblue" d="M429.3,-202.33C456.98,-188.29 493.62,-169.71 514.67,-159.03"/>
<polygon fill="midnightblue" stroke="midnightblue" points="427.63,-199.26 420.29,-206.9 430.8,-205.5 427.63,-199.26"/>
</g>
<!-- Node4 -->
<g id="node4" class="node">
<title>Node4</title>
<g id="a_node4"><a xlink:href="adapter_8hpp.html" target="_top" xlink:title=" ">
<polygon fill="white" stroke="black" points="28.5,-67.5 28.5,-97.5 150.5,-97.5 150.5,-67.5 28.5,-67.5"/>
<text text-anchor="start" x="36.5" y="-85.5" font-family="Helvetica,sans-Serif" font-size="10.00">loc_map/include/adapter</text>
<text text-anchor="middle" x="89.5" y="-74.5" font-family="Helvetica,sans-Serif" font-size="10.00">/adapter.hpp</text>
</a>
</g>
</g>
<!-- Node3&#45;&gt;Node4 -->
<g id="edge3" class="edge">
<title>Node3&#45;&gt;Node4</title>
<path fill="none" stroke="midnightblue" d="M221.64,-130.96C192.49,-120.48 155.96,-107.37 128.7,-97.58"/>
<polygon fill="midnightblue" stroke="midnightblue" points="220.63,-134.31 231.23,-134.4 223,-127.72 220.63,-134.31"/>
</g>
<!-- Node6 -->
<g id="node6" class="node">
<title>Node6</title>
<g id="a_node6"><a xlink:href="lm__node_8cpp.html" target="_top" xlink:title=" ">
<polygon fill="white" stroke="black" points="123.5,-0.5 123.5,-30.5 233.5,-30.5 233.5,-0.5 123.5,-0.5"/>
<text text-anchor="start" x="131.5" y="-18.5" font-family="Helvetica,sans-Serif" font-size="10.00">loc_map/src/loc_map</text>
<text text-anchor="middle" x="178.5" y="-7.5" font-family="Helvetica,sans-Serif" font-size="10.00">/lm_node.cpp</text>
</a>
</g>
</g>
<!-- Node3&#45;&gt;Node6 -->
<g id="edge6" class="edge">
<title>Node3&#45;&gt;Node6</title>
<path fill="none" stroke="midnightblue" d="M231.85,-129.28C219.19,-121.22 206.16,-110.73 197.5,-98 183.53,-77.46 179.74,-47.99 178.77,-30.69"/>
<polygon fill="midnightblue" stroke="midnightblue" points="230.12,-132.32 240.49,-134.46 233.72,-126.32 230.12,-132.32"/>
</g>
<!-- Node7 -->
<g id="node7" class="node">
<title>Node7</title>
<g id="a_node7"><a xlink:href="loc__map_8cpp.html" target="_top" xlink:title=" ">
<polygon fill="white" stroke="black" points="206.5,-73 206.5,-92 334.5,-92 334.5,-73 206.5,-73"/>
<text text-anchor="middle" x="270.5" y="-80" font-family="Helvetica,sans-Serif" font-size="10.00">loc_map/src/loc_map.cpp</text>
</a>
</g>
</g>
<!-- Node3&#45;&gt;Node7 -->
<g id="edge7" class="edge">
<title>Node3&#45;&gt;Node7</title>
<path fill="none" stroke="midnightblue" d="M270.5,-124.25C270.5,-113.02 270.5,-100.38 270.5,-92.19"/>
<polygon fill="midnightblue" stroke="midnightblue" points="267,-124.4 270.5,-134.4 274,-124.4 267,-124.4"/>
</g>
<!-- Node8 -->
<g id="node8" class="node">
<title>Node8</title>
<g id="a_node8"><a xlink:href="integration__test_8cpp.html" target="_top" xlink:title=" ">
<polygon fill="white" stroke="black" points="353,-67.5 353,-97.5 474,-97.5 474,-67.5 353,-67.5"/>
<text text-anchor="start" x="361" y="-85.5" font-family="Helvetica,sans-Serif" font-size="10.00">loc_map/test/integration</text>
<text text-anchor="middle" x="413.5" y="-74.5" font-family="Helvetica,sans-Serif" font-size="10.00">_test.cpp</text>
</a>
</g>
</g>
<!-- Node3&#45;&gt;Node8 -->
<g id="edge8" class="edge">
<title>Node3&#45;&gt;Node8</title>
<path fill="none" stroke="midnightblue" d="M310.91,-130.13C333.63,-119.8 361.56,-107.11 382.53,-97.58"/>
<polygon fill="midnightblue" stroke="midnightblue" points="309.18,-127.07 301.53,-134.4 312.08,-133.44 309.18,-127.07"/>
</g>
<!-- Node9 -->
<g id="node9" class="node">
<title>Node9</title>
<g id="a_node9"><a xlink:href="motion__model__test_8cpp.html" target="_top" xlink:title=" ">
<polygon fill="white" stroke="black" points="492,-67.5 492,-97.5 597,-97.5 597,-67.5 492,-67.5"/>
<text text-anchor="start" x="500" y="-85.5" font-family="Helvetica,sans-Serif" font-size="10.00">loc_map/test/motion</text>
<text text-anchor="middle" x="544.5" y="-74.5" font-family="Helvetica,sans-Serif" font-size="10.00">_model_test.cpp</text>
</a>
</g>
</g>
<!-- Node3&#45;&gt;Node9 -->
<g id="edge9" class="edge">
<title>Node3&#45;&gt;Node9</title>
<path fill="none" stroke="midnightblue" d="M332.1,-133.86C400.67,-117.59 418.99,-113.31 483.5,-98 486.25,-97.35 489.08,-96.68 491.93,-96"/>
<polygon fill="midnightblue" stroke="midnightblue" points="331.01,-130.52 322.08,-136.24 332.62,-137.33 331.01,-130.52"/>
</g>
<!-- Node5 -->
<g id="node5" class="node">
<title>Node5</title>
<g id="a_node5"><a xlink:href="adapter_8cpp.html" target="_top" xlink:title=" ">
<polygon fill="white" stroke="black" points="0,-0.5 0,-30.5 105,-30.5 105,-0.5 0,-0.5"/>
<text text-anchor="start" x="8" y="-18.5" font-family="Helvetica,sans-Serif" font-size="10.00">loc_map/src/adapter</text>
<text text-anchor="middle" x="52.5" y="-7.5" font-family="Helvetica,sans-Serif" font-size="10.00">/adapter.cpp</text>
</a>
</g>
</g>
<!-- Node4&#45;&gt;Node5 -->
<g id="edge4" class="edge">
<title>Node4&#45;&gt;Node5</title>
<path fill="none" stroke="midnightblue" d="M76.45,-58.58C71.14,-49.24 65.16,-38.75 60.51,-30.58"/>
<polygon fill="midnightblue" stroke="midnightblue" points="73.48,-60.44 81.47,-67.4 79.57,-56.97 73.48,-60.44"/>
</g>
<!-- Node4&#45;&gt;Node6 -->
<g id="edge5" class="edge">
<title>Node4&#45;&gt;Node6</title>
<path fill="none" stroke="midnightblue" d="M116.95,-61.45C130.64,-51.45 146.87,-39.6 159.23,-30.58"/>
<polygon fill="midnightblue" stroke="midnightblue" points="114.82,-58.67 108.81,-67.4 118.95,-64.32 114.82,-58.67"/>
</g>
</g>
</svg>
