<?xml version="1.0" encoding="UTF-8" standalone="no"?>
<!DOCTYPE svg PUBLIC "-//W3C//DTD SVG 1.1//EN"
 "http://www.w3.org/Graphics/SVG/1.1/DTD/svg11.dtd">
<!-- Generated by graphviz version 2.43.0 (0)
 -->
<!-- Title: Pose Pages: 1 -->
<svg width="87pt" height="215pt"
 viewBox="0.00 0.00 86.50 215.00" xmlns="http://www.w3.org/2000/svg" xmlns:xlink="http://www.w3.org/1999/xlink">
<g id="graph0" class="graph" transform="scale(1 1) rotate(0) translate(4 211)">
<title>Pose</title>
<polygon fill="white" stroke="transparent" points="-4,4 -4,-211 82.5,-211 82.5,4 -4,4"/>
<!-- Node1 -->
<g id="node1" class="node">
<title>Node1</title>
<g id="a_node1"><a xlink:title="Struct for pose representation.">
<polygon fill="#bfbfbf" stroke="black" points="0,-0.5 0,-79.5 71,-79.5 71,-0.5 0,-0.5"/>
<text text-anchor="middle" x="35.5" y="-67.5" font-family="Helvetica,sans-Serif" font-size="10.00">Pose</text>
<polyline fill="none" stroke="black" points="0,-60.5 71,-60.5 "/>
<text text-anchor="start" x="8" y="-48.5" font-family="Helvetica,sans-Serif" font-size="10.00">+ orientation</text>
<polyline fill="none" stroke="black" points="0,-41.5 71,-41.5 "/>
<text text-anchor="start" x="8" y="-29.5" font-family="Helvetica,sans-Serif" font-size="10.00">+ Pose()</text>
<text text-anchor="start" x="8" y="-18.5" font-family="Helvetica,sans-Serif" font-size="10.00">+ Pose()</text>
<text text-anchor="start" x="8" y="-7.5" font-family="Helvetica,sans-Serif" font-size="10.00">+ Pose()</text>
</a>
</g>
</g>
<!-- Node2 -->
<g id="node2" class="node">
<title>Node2</title>
<g id="a_node2"><a xlink:href="structPosition.html" target="_top" xlink:title="Struct for position.">
<polygon fill="white" stroke="black" points="2,-127.5 2,-206.5 69,-206.5 69,-127.5 2,-127.5"/>
<text text-anchor="middle" x="35.5" y="-194.5" font-family="Helvetica,sans-Serif" font-size="10.00">Position</text>
<polyline fill="none" stroke="black" points="2,-187.5 69,-187.5 "/>
<text text-anchor="start" x="10" y="-175.5" font-family="Helvetica,sans-Serif" font-size="10.00">+ x</text>
<text text-anchor="start" x="10" y="-164.5" font-family="Helvetica,sans-Serif" font-size="10.00">+ y</text>
<polyline fill="none" stroke="black" points="2,-157.5 69,-157.5 "/>
<text text-anchor="start" x="10" y="-145.5" font-family="Helvetica,sans-Serif" font-size="10.00">+ Position()</text>
<text text-anchor="start" x="10" y="-134.5" font-family="Helvetica,sans-Serif" font-size="10.00">+ Position()</text>
</a>
</g>
</g>
<!-- Node2&#45;&gt;Node1 -->
<g id="edge1" class="edge">
<title>Node2&#45;&gt;Node1</title>
<path fill="none" stroke="#404040" d="M35.5,-127.48C35.5,-116.19 35.5,-103.67 35.5,-91.75"/>
<polygon fill="none" stroke="#404040" points="35.5,-91.61 31.5,-85.61 35.5,-79.61 39.5,-85.61 35.5,-91.61"/>
<text text-anchor="middle" x="57" y="-101" font-family="Helvetica,sans-Serif" font-size="10.00"> +position</text>
</g>
</g>
</svg>
