<?xml version="1.0" encoding="UTF-8" standalone="no"?>
<!DOCTYPE svg PUBLIC "-//W3C//DTD SVG 1.1//EN"
 "http://www.w3.org/Graphics/SVG/1.1/DTD/svg11.dtd">
<!-- Generated by graphviz version 2.43.0 (0)
 -->
<!-- Title: VehicleState Pages: 1 -->
<svg width="99pt" height="309pt"
 viewBox="0.00 0.00 98.50 309.00" xmlns="http://www.w3.org/2000/svg" xmlns:xlink="http://www.w3.org/1999/xlink">

<svg id="main" version="1.1" xmlns="http://www.w3.org/2000/svg" xmlns:xlink="http://www.w3.org/1999/xlink" xml:space="preserve" onload="init(evt)">
<style type="text/css"><![CDATA[
.node, .edge {opacity: 0.7;}
.node.selected, .edge.selected {opacity: 1;}
.edge:hover path { stroke: red; }
.edge:hover polygon { stroke: red; fill: red; }
]]></style>
<script type="application/ecmascript" xlink:href="svg.min.js"/>
<svg id="graph" class="graph">
<g id="graph0" class="graph" transform="scale(1 1) rotate(0) translate(4 305)">
<title>VehicleState</title>
<!-- Node1 -->
<g id="Node000001" class="node">
<title>Node1</title>
<g id="a_Node000001"><a xlink:title="Struct for state of the vehicle.">
<polygon fill="#999999" stroke="transparent" points="79,-49 0,-49 0,0 79,0 79,-49"/>
<text text-anchor="start" x="9.5" y="-36.5" font-family="Helvetica,sans-Serif" font-size="10.00">VehicleState</text>
<text text-anchor="start" x="4.5" y="-21.5" font-family="Helvetica,sans-Serif" font-size="10.00">+</text>
<text text-anchor="start" x="17.5" y="-21.5" font-family="Helvetica,sans-Serif" font-size="10.00">last_update</text>
<text text-anchor="start" x="38" y="-6.5" font-family="Helvetica,sans-Serif" font-size="10.00"> </text>
<polygon fill="#666666" stroke="#666666" points="0.5,-31.5 0.5,-31.5 79.5,-31.5 79.5,-31.5 0.5,-31.5"/>
<polygon fill="#666666" stroke="#666666" points="0.5,-16.5 0.5,-16.5 15.5,-16.5 15.5,-16.5 0.5,-16.5"/>
<polygon fill="#666666" stroke="#666666" points="15.5,-16.5 15.5,-16.5 79.5,-16.5 79.5,-16.5 15.5,-16.5"/>
<polygon fill="none" stroke="#666666" points="0,0 0,-49 79,-49 79,0 0,0"/>
</a>
</g>
</g>
<!-- Node2 -->
<g id="Node000002" class="node">
<title>Node2</title>
<g id="a_Node000002"><a xlink:href="structPose.html" target="_top" xlink:title="Struct for pose representation.">
<polygon fill="white" stroke="transparent" points="77,-175 2,-175 2,-96 77,-96 77,-175"/>
<text text-anchor="start" x="28" y="-162.5" font-family="Helvetica,sans-Serif" font-size="10.00">Pose</text>
<text text-anchor="start" x="6.5" y="-147.5" font-family="Helvetica,sans-Serif" font-size="10.00">+</text>
<text text-anchor="start" x="19.5" y="-147.5" font-family="Helvetica,sans-Serif" font-size="10.00">orientation</text>
<text text-anchor="start" x="6.5" y="-132.5" font-family="Helvetica,sans-Serif" font-size="10.00">+</text>
<text text-anchor="start" x="19.5" y="-132.5" font-family="Helvetica,sans-Serif" font-size="10.00">Pose()</text>
<text text-anchor="start" x="6.5" y="-117.5" font-family="Helvetica,sans-Serif" font-size="10.00">+</text>
<text text-anchor="start" x="19.5" y="-117.5" font-family="Helvetica,sans-Serif" font-size="10.00">Pose()</text>
<text text-anchor="start" x="6.5" y="-102.5" font-family="Helvetica,sans-Serif" font-size="10.00">+</text>
<text text-anchor="start" x="19.5" y="-102.5" font-family="Helvetica,sans-Serif" font-size="10.00">Pose()</text>
<polygon fill="#666666" stroke="#666666" points="2.5,-157.5 2.5,-157.5 77.5,-157.5 77.5,-157.5 2.5,-157.5"/>
<polygon fill="#666666" stroke="#666666" points="2.5,-142.5 2.5,-142.5 17.5,-142.5 17.5,-142.5 2.5,-142.5"/>
<polygon fill="#666666" stroke="#666666" points="17.5,-142.5 17.5,-142.5 77.5,-142.5 77.5,-142.5 17.5,-142.5"/>
<polygon fill="none" stroke="#666666" points="2,-96 2,-175 77,-175 77,-96 2,-96"/>
</a>
</g>
</g>
<!-- Node2&#45;&gt;Node1 -->
<g id="edge1_Node000001_Node000002" class="edge">
<title>Node2&#45;&gt;Node1</title>
<g id="a_edge1_Node000001_Node000002"><a xlink:title=" ">
<path fill="none" stroke="#63b8ff" d="M39.5,-95.76C39.5,-84.59 39.5,-72.45 39.5,-61.46"/>
<polygon fill="none" stroke="#63b8ff" points="39.5,-61.2 35.5,-55.2 39.5,-49.2 43.5,-55.2 39.5,-61.2"/>
</a>
</g>
<text text-anchor="middle" x="57" y="-70" font-family="Helvetica,sans-Serif" font-size="10.00" fill="grey"> +pose</text>
</g>
<!-- Node3 -->
<g id="Node000003" class="node">
<title>Node3</title>
<g id="a_Node000003"><a xlink:href="structPosition.html" target="_top" xlink:title="Struct for position.">
<polygon fill="white" stroke="transparent" points="73.5,-301 5.5,-301 5.5,-222 73.5,-222 73.5,-301"/>
<text text-anchor="start" x="19.5" y="-288.5" font-family="Helvetica,sans-Serif" font-size="10.00">Position</text>
<text text-anchor="start" x="9.5" y="-273.5" font-family="Helvetica,sans-Serif" font-size="10.00">+</text>
<text text-anchor="start" x="22.5" y="-273.5" font-family="Helvetica,sans-Serif" font-size="10.00">x</text>
<text text-anchor="start" x="9.5" y="-258.5" font-family="Helvetica,sans-Serif" font-size="10.00">+</text>
<text text-anchor="start" x="22.5" y="-258.5" font-family="Helvetica,sans-Serif" font-size="10.00">y</text>
<text text-anchor="start" x="9.5" y="-243.5" font-family="Helvetica,sans-Serif" font-size="10.00">+</text>
<text text-anchor="start" x="22.5" y="-243.5" font-family="Helvetica,sans-Serif" font-size="10.00">Position()</text>
<text text-anchor="start" x="9.5" y="-228.5" font-family="Helvetica,sans-Serif" font-size="10.00">+</text>
<text text-anchor="start" x="22.5" y="-228.5" font-family="Helvetica,sans-Serif" font-size="10.00">Position()</text>
<polygon fill="#666666" stroke="#666666" points="5.5,-283.5 5.5,-283.5 73.5,-283.5 73.5,-283.5 5.5,-283.5"/>
<polygon fill="#666666" stroke="#666666" points="5.5,-253.5 5.5,-253.5 20.5,-253.5 20.5,-253.5 5.5,-253.5"/>
<polygon fill="#666666" stroke="#666666" points="20.5,-253.5 20.5,-253.5 73.5,-253.5 73.5,-253.5 20.5,-253.5"/>
<polygon fill="none" stroke="#666666" points="5.5,-222 5.5,-301 73.5,-301 73.5,-222 5.5,-222"/>
</a>
</g>
</g>
<!-- Node3&#45;&gt;Node2 -->
<g id="edge2_Node000002_Node000003" class="edge">
<title>Node3&#45;&gt;Node2</title>
<g id="a_edge2_Node000002_Node000003"><a xlink:title=" ">
<path fill="none" stroke="#63b8ff" d="M39.5,-221.95C39.5,-210.98 39.5,-198.87 39.5,-187.3"/>
<polygon fill="none" stroke="#63b8ff" points="39.5,-187.03 35.5,-181.03 39.5,-175.03 43.5,-181.03 39.5,-187.03"/>
</a>
</g>
<text text-anchor="middle" x="65" y="-196" font-family="Helvetica,sans-Serif" font-size="10.00" fill="grey"> +position</text>
</g>
</g>
</svg>
</svg>

<style type='text/css'>
<![CDATA[
[data-mouse-over-selected='false'] { opacity: 0.7; }
[data-mouse-over-selected='true']  { opacity: 1.0; }
]]>
</style>
<script type="application/ecmascript"><![CDATA[
document.addEventListener('DOMContentLoaded', (event) => {
  highlightEdges();
  highlightAdjacentNodes();
});
]]></script>
</svg>
