<?xml version="1.0" encoding="UTF-8" standalone="no"?>
<!DOCTYPE svg PUBLIC "-//W3C//DTD SVG 1.1//EN"
 "http://www.w3.org/Graphics/SVG/1.1/DTD/svg11.dtd">
<!-- Generated by graphviz version 2.43.0 (0)
 -->
<!-- Title: VehicleState Pages: 1 -->
<svg width="89pt" height="320pt"
 viewBox="0.00 0.00 89.00 320.00" xmlns="http://www.w3.org/2000/svg" xmlns:xlink="http://www.w3.org/1999/xlink">
<g id="graph0" class="graph" transform="scale(1 1) rotate(0) translate(4 316)">
<title>VehicleState</title>
<polygon fill="white" stroke="transparent" points="-4,4 -4,-316 85,-316 85,4 -4,4"/>
<!-- Node1 -->
<g id="node1" class="node">
<title>Node1</title>
<g id="a_node1"><a xlink:title="Struct for state of the vehicle.">
<polygon fill="#bfbfbf" stroke="black" points="0,-0.5 0,-57.5 76,-57.5 76,-0.5 0,-0.5"/>
<text text-anchor="middle" x="38" y="-45.5" font-family="Helvetica,sans-Serif" font-size="10.00">VehicleState</text>
<polyline fill="none" stroke="black" points="0,-38.5 76,-38.5 "/>
<text text-anchor="start" x="8" y="-26.5" font-family="Helvetica,sans-Serif" font-size="10.00">+ last_update</text>
<polyline fill="none" stroke="black" points="0,-19.5 76,-19.5 "/>
<text text-anchor="middle" x="38" y="-7.5" font-family="Helvetica,sans-Serif" font-size="10.00"> </text>
</a>
</g>
</g>
<!-- Node2 -->
<g id="node2" class="node">
<title>Node2</title>
<g id="a_node2"><a xlink:href="structPose.html" target="_top" xlink:title="Struct for pose representation.">
<polygon fill="white" stroke="black" points="2.5,-105.5 2.5,-184.5 73.5,-184.5 73.5,-105.5 2.5,-105.5"/>
<text text-anchor="middle" x="38" y="-172.5" font-family="Helvetica,sans-Serif" font-size="10.00">Pose</text>
<polyline fill="none" stroke="black" points="2.5,-165.5 73.5,-165.5 "/>
<text text-anchor="start" x="10.5" y="-153.5" font-family="Helvetica,sans-Serif" font-size="10.00">+ orientation</text>
<polyline fill="none" stroke="black" points="2.5,-146.5 73.5,-146.5 "/>
<text text-anchor="start" x="10.5" y="-134.5" font-family="Helvetica,sans-Serif" font-size="10.00">+ Pose()</text>
<text text-anchor="start" x="10.5" y="-123.5" font-family="Helvetica,sans-Serif" font-size="10.00">+ Pose()</text>
<text text-anchor="start" x="10.5" y="-112.5" font-family="Helvetica,sans-Serif" font-size="10.00">+ Pose()</text>
</a>
</g>
</g>
<!-- Node2&#45;&gt;Node1 -->
<g id="edge1" class="edge">
<title>Node2&#45;&gt;Node1</title>
<path fill="none" stroke="#404040" d="M38,-105.4C38,-93.93 38,-81.33 38,-69.78"/>
<polygon fill="none" stroke="#404040" points="38,-69.75 34,-63.75 38,-57.75 42,-63.75 38,-69.75"/>
<text text-anchor="middle" x="53.5" y="-79" font-family="Helvetica,sans-Serif" font-size="10.00"> +pose</text>
</g>
<!-- Node3 -->
<g id="node3" class="node">
<title>Node3</title>
<g id="a_node3"><a xlink:href="structPosition.html" target="_top" xlink:title="Struct for position.">
<polygon fill="white" stroke="black" points="4.5,-232.5 4.5,-311.5 71.5,-311.5 71.5,-232.5 4.5,-232.5"/>
<text text-anchor="middle" x="38" y="-299.5" font-family="Helvetica,sans-Serif" font-size="10.00">Position</text>
<polyline fill="none" stroke="black" points="4.5,-292.5 71.5,-292.5 "/>
<text text-anchor="start" x="12.5" y="-280.5" font-family="Helvetica,sans-Serif" font-size="10.00">+ x</text>
<text text-anchor="start" x="12.5" y="-269.5" font-family="Helvetica,sans-Serif" font-size="10.00">+ y</text>
<polyline fill="none" stroke="black" points="4.5,-262.5 71.5,-262.5 "/>
<text text-anchor="start" x="12.5" y="-250.5" font-family="Helvetica,sans-Serif" font-size="10.00">+ Position()</text>
<text text-anchor="start" x="12.5" y="-239.5" font-family="Helvetica,sans-Serif" font-size="10.00">+ Position()</text>
</a>
</g>
</g>
<!-- Node3&#45;&gt;Node2 -->
<g id="edge2" class="edge">
<title>Node3&#45;&gt;Node2</title>
<path fill="none" stroke="#404040" d="M38,-232.48C38,-221.19 38,-208.67 38,-196.75"/>
<polygon fill="none" stroke="#404040" points="38,-196.61 34,-190.61 38,-184.61 42,-190.61 38,-196.61"/>
<text text-anchor="middle" x="59.5" y="-206" font-family="Helvetica,sans-Serif" font-size="10.00"> +position</text>
</g>
</g>
</svg>
