<?xml version="1.0" encoding="UTF-8" standalone="no"?>
<!DOCTYPE svg PUBLIC "-//W3C//DTD SVG 1.1//EN"
 "http://www.w3.org/Graphics/SVG/1.1/DTD/svg11.dtd">
<!-- Generated by graphviz version 2.43.0 (0)
 -->
<!-- Title: ObservationData Pages: 1 -->
<svg width="120pt" height="213pt"
 viewBox="0.00 0.00 120.00 213.00" xmlns="http://www.w3.org/2000/svg" xmlns:xlink="http://www.w3.org/1999/xlink">

<svg id="main" version="1.1" xmlns="http://www.w3.org/2000/svg" xmlns:xlink="http://www.w3.org/1999/xlink" xml:space="preserve" onload="init(evt)">
<style type="text/css"><![CDATA[
.node, .edge {opacity: 0.7;}
.node.selected, .edge.selected {opacity: 1;}
.edge:hover path { stroke: red; }
.edge:hover polygon { stroke: red; fill: red; }
]]></style>
<script type="application/ecmascript" xlink:href="svg.min.js"/>
<svg id="graph" class="graph">
<g id="graph0" class="graph" transform="scale(1 1) rotate(0) translate(4 209)">
<title>ObservationData</title>
<!-- Node1 -->
<g id="Node000001" class="node">
<title>Node1</title>
<g id="a_Node000001"><a xlink:title="Struct containing observation data.">
<polygon fill="#999999" stroke="transparent" points="112,-79 0,-79 0,0 112,0 112,-79"/>
<text text-anchor="start" x="14.5" y="-66.5" font-family="Helvetica,sans-Serif" font-size="10.00">ObservationData</text>
<text text-anchor="start" x="4" y="-51.5" font-family="Helvetica,sans-Serif" font-size="10.00">+</text>
<text text-anchor="start" x="17" y="-51.5" font-family="Helvetica,sans-Serif" font-size="10.00">color</text>
<text text-anchor="start" x="4" y="-36.5" font-family="Helvetica,sans-Serif" font-size="10.00">+</text>
<text text-anchor="start" x="17" y="-36.5" font-family="Helvetica,sans-Serif" font-size="10.00">ObservationData()</text>
<text text-anchor="start" x="4" y="-21.5" font-family="Helvetica,sans-Serif" font-size="10.00">+</text>
<text text-anchor="start" x="17" y="-21.5" font-family="Helvetica,sans-Serif" font-size="10.00">ObservationData()</text>
<text text-anchor="start" x="4" y="-6.5" font-family="Helvetica,sans-Serif" font-size="10.00">+</text>
<text text-anchor="start" x="17" y="-6.5" font-family="Helvetica,sans-Serif" font-size="10.00">ObservationData()</text>
<polygon fill="#666666" stroke="#666666" points="0,-61.5 0,-61.5 112,-61.5 112,-61.5 0,-61.5"/>
<polygon fill="#666666" stroke="#666666" points="0,-46.5 0,-46.5 15,-46.5 15,-46.5 0,-46.5"/>
<polygon fill="#666666" stroke="#666666" points="15,-46.5 15,-46.5 112,-46.5 112,-46.5 15,-46.5"/>
<polygon fill="none" stroke="#666666" points="0,0 0,-79 112,-79 112,0 0,0"/>
</a>
</g>
</g>
<!-- Node2 -->
<g id="Node000002" class="node">
<title>Node2</title>
<g id="a_Node000002"><a xlink:href="structPosition.html" target="_top" xlink:title="Struct for position.">
<polygon fill="white" stroke="transparent" points="90,-205 22,-205 22,-126 90,-126 90,-205"/>
<text text-anchor="start" x="36" y="-192.5" font-family="Helvetica,sans-Serif" font-size="10.00">Position</text>
<text text-anchor="start" x="26" y="-177.5" font-family="Helvetica,sans-Serif" font-size="10.00">+</text>
<text text-anchor="start" x="39" y="-177.5" font-family="Helvetica,sans-Serif" font-size="10.00">x</text>
<text text-anchor="start" x="26" y="-162.5" font-family="Helvetica,sans-Serif" font-size="10.00">+</text>
<text text-anchor="start" x="39" y="-162.5" font-family="Helvetica,sans-Serif" font-size="10.00">y</text>
<text text-anchor="start" x="26" y="-147.5" font-family="Helvetica,sans-Serif" font-size="10.00">+</text>
<text text-anchor="start" x="39" y="-147.5" font-family="Helvetica,sans-Serif" font-size="10.00">Position()</text>
<text text-anchor="start" x="26" y="-132.5" font-family="Helvetica,sans-Serif" font-size="10.00">+</text>
<text text-anchor="start" x="39" y="-132.5" font-family="Helvetica,sans-Serif" font-size="10.00">Position()</text>
<polygon fill="#666666" stroke="#666666" points="22,-187.5 22,-187.5 90,-187.5 90,-187.5 22,-187.5"/>
<polygon fill="#666666" stroke="#666666" points="22,-157.5 22,-157.5 37,-157.5 37,-157.5 22,-157.5"/>
<polygon fill="#666666" stroke="#666666" points="37,-157.5 37,-157.5 90,-157.5 90,-157.5 37,-157.5"/>
<polygon fill="none" stroke="#666666" points="22,-126 22,-205 90,-205 90,-126 22,-126"/>
</a>
</g>
</g>
<!-- Node2&#45;&gt;Node1 -->
<g id="edge1_Node000001_Node000002" class="edge">
<title>Node2&#45;&gt;Node1</title>
<g id="a_edge1_Node000001_Node000002"><a xlink:title=" ">
<path fill="none" stroke="#63b8ff" d="M56,-125.95C56,-114.98 56,-102.87 56,-91.3"/>
<polygon fill="none" stroke="#63b8ff" points="56,-91.03 52,-85.03 56,-79.03 60,-85.03 56,-91.03"/>
</a>
</g>
<text text-anchor="middle" x="81.5" y="-100" font-family="Helvetica,sans-Serif" font-size="10.00" fill="grey"> +position</text>
</g>
</g>
</svg>
</svg>

<style type='text/css'>
<![CDATA[
[data-mouse-over-selected='false'] { opacity: 0.7; }
[data-mouse-over-selected='true']  { opacity: 1.0; }
]]>
</style>
<script type="application/ecmascript"><![CDATA[
document.addEventListener('DOMContentLoaded', (event) => {
  highlightEdges();
  highlightAdjacentNodes();
});
]]></script>
</svg>
