<?xml version="1.0" encoding="UTF-8" standalone="no"?>
<!DOCTYPE svg PUBLIC "-//W3C//DTD SVG 1.1//EN"
 "http://www.w3.org/Graphics/SVG/1.1/DTD/svg11.dtd">
<!-- Generated by graphviz version 9.0.0 (20230911.1827)
 -->
<!-- Title: src/ros_can/FS&#45;AI&#45;API/FS&#45;AI_API/can.c Pages: 1 -->
<svg width="406pt" height="94pt"
 viewBox="0.00 0.00 406.12 93.75" xmlns="http://www.w3.org/2000/svg" xmlns:xlink="http://www.w3.org/1999/xlink">
<g id="graph0" class="graph" transform="scale(1 1) rotate(0) translate(4 89.75)">
<title>src/ros_can/FS&#45;AI&#45;API/FS&#45;AI_API/can.c</title>
<!-- Node1 -->
<g id="Node000001" class="node">
<title>Node1</title>
<g id="a_Node000001"><a xlink:title=" ">
<polygon fill="#999999" stroke="#666666" points="243.75,-85.75 128.75,-85.75 128.75,-55.25 243.75,-55.25 243.75,-85.75"/>
<text text-anchor="start" x="136.75" y="-72.25" font-family="Helvetica,sans-Serif" font-size="10.00">src/ros_can/FS&#45;AI&#45;API</text>
<text text-anchor="middle" x="186.25" y="-61" font-family="Helvetica,sans-Serif" font-size="10.00">/FS&#45;AI_API/can.c</text>
</a>
</g>
</g>
<!-- Node2 -->
<g id="Node000002" class="node">
<title>Node2</title>
<g id="a_Node000002"><a xlink:title=" ">
<polygon fill="#e0e0e0" stroke="#999999" points="44.5,-19.25 0,-19.25 0,0 44.5,0 44.5,-19.25"/>
<text text-anchor="middle" x="22.25" y="-5.75" font-family="Helvetica,sans-Serif" font-size="10.00">stdio.h</text>
</a>
</g>
</g>
<!-- Node1&#45;&gt;Node2 -->
<g id="edge1_Node000001_Node000002" class="edge">
<title>Node1&#45;&gt;Node2</title>
<g id="a_edge1_Node000001_Node000002"><a xlink:title=" ">
<path fill="none" stroke="#63b8ff" d="M145.29,-54.8C117.52,-44.83 81.29,-31.82 55.35,-22.51"/>
<polygon fill="#63b8ff" stroke="#63b8ff" points="56.59,-19.23 46,-19.15 54.22,-25.82 56.59,-19.23"/>
</a>
</g>
</g>
<!-- Node3 -->
<g id="Node000003" class="node">
<title>Node3</title>
<g id="a_Node000003"><a xlink:title=" ">
<polygon fill="#e0e0e0" stroke="#999999" points="112.12,-19.25 62.38,-19.25 62.38,0 112.12,0 112.12,-19.25"/>
<text text-anchor="middle" x="87.25" y="-5.75" font-family="Helvetica,sans-Serif" font-size="10.00">unistd.h</text>
</a>
</g>
</g>
<!-- Node1&#45;&gt;Node3 -->
<g id="edge2_Node000001_Node000003" class="edge">
<title>Node1&#45;&gt;Node3</title>
<g id="a_edge2_Node000001_Node000003"><a xlink:title=" ">
<path fill="none" stroke="#63b8ff" d="M161.52,-54.8C146.45,-45.83 127.24,-34.41 112.13,-25.42"/>
<polygon fill="#63b8ff" stroke="#63b8ff" points="114.12,-22.53 103.73,-20.43 110.54,-28.55 114.12,-22.53"/>
</a>
</g>
</g>
<!-- Node4 -->
<g id="Node000004" class="node">
<title>Node4</title>
<g id="a_Node000004"><a xlink:title=" ">
<polygon fill="#e0e0e0" stroke="#999999" points="178,-19.25 130.5,-19.25 130.5,0 178,0 178,-19.25"/>
<text text-anchor="middle" x="154.25" y="-5.75" font-family="Helvetica,sans-Serif" font-size="10.00">string.h</text>
</a>
</g>
</g>
<!-- Node1&#45;&gt;Node4 -->
<g id="edge3_Node000001_Node000004" class="edge">
<title>Node1&#45;&gt;Node4</title>
<g id="a_edge3_Node000001_Node000004"><a xlink:title=" ">
<path fill="none" stroke="#63b8ff" d="M178.34,-54.95C174.22,-47.36 169.12,-37.99 164.68,-29.82"/>
<polygon fill="#63b8ff" stroke="#63b8ff" points="167.76,-28.15 159.91,-21.03 161.61,-31.49 167.76,-28.15"/>
</a>
</g>
</g>
<!-- Node5 -->
<g id="Node000005" class="node">
<title>Node5</title>
<g id="a_Node000005"><a xlink:title=" ">
<polygon fill="#e0e0e0" stroke="#999999" points="240.88,-19.25 195.62,-19.25 195.62,0 240.88,0 240.88,-19.25"/>
<text text-anchor="middle" x="218.25" y="-5.75" font-family="Helvetica,sans-Serif" font-size="10.00">net/if.h</text>
</a>
</g>
</g>
<!-- Node1&#45;&gt;Node5 -->
<g id="edge4_Node000001_Node000005" class="edge">
<title>Node1&#45;&gt;Node5</title>
<g id="a_edge4_Node000001_Node000005"><a xlink:title=" ">
<path fill="none" stroke="#63b8ff" d="M194.16,-54.95C198.28,-47.36 203.38,-37.99 207.82,-29.82"/>
<polygon fill="#63b8ff" stroke="#63b8ff" points="210.89,-31.49 212.59,-21.03 204.74,-28.15 210.89,-31.49"/>
</a>
</g>
</g>
<!-- Node6 -->
<g id="Node000006" class="node">
<title>Node6</title>
<g id="a_Node000006"><a xlink:title=" ">
<polygon fill="#e0e0e0" stroke="#999999" points="318,-19.25 258.5,-19.25 258.5,0 318,0 318,-19.25"/>
<text text-anchor="middle" x="288.25" y="-5.75" font-family="Helvetica,sans-Serif" font-size="10.00">sys/ioctl.h</text>
</a>
</g>
</g>
<!-- Node1&#45;&gt;Node6 -->
<g id="edge5_Node000001_Node000006" class="edge">
<title>Node1&#45;&gt;Node6</title>
<g id="a_edge5_Node000001_Node000006"><a xlink:title=" ">
<path fill="none" stroke="#63b8ff" d="M211.73,-54.8C227.41,-45.74 247.43,-34.19 263.06,-25.16"/>
<polygon fill="#63b8ff" stroke="#63b8ff" points="264.39,-28.44 271.3,-20.41 260.89,-22.38 264.39,-28.44"/>
</a>
</g>
</g>
<!-- Node7 -->
<g id="Node000007" class="node">
<title>Node7</title>
<g id="a_Node000007"><a xlink:title=" ">
<polygon fill="#e0e0e0" stroke="#999999" points="398.12,-19.25 336.38,-19.25 336.38,0 398.12,0 398.12,-19.25"/>
<text text-anchor="middle" x="367.25" y="-5.75" font-family="Helvetica,sans-Serif" font-size="10.00">linux/can.h</text>
</a>
</g>
</g>
<!-- Node1&#45;&gt;Node7 -->
<g id="edge6_Node000001_Node000007" class="edge">
<title>Node1&#45;&gt;Node7</title>
<g id="a_edge6_Node000001_Node000007"><a xlink:title=" ">
<path fill="none" stroke="#63b8ff" d="M231.46,-54.8C261.31,-45.08 300.03,-32.49 328.48,-23.23"/>
<polygon fill="#63b8ff" stroke="#63b8ff" points="329.36,-26.63 337.79,-20.21 327.19,-19.97 329.36,-26.63"/>
</a>
</g>
</g>
</g>
</svg>
