<?xml version="1.0" encoding="UTF-8" standalone="no"?>
<!DOCTYPE svg PUBLIC "-//W3C//DTD SVG 1.1//EN"
 "http://www.w3.org/Graphics/SVG/1.1/DTD/svg11.dtd">
<!-- Generated by graphviz version 9.0.0 (20230911.1827)
 -->
<!-- Title: can_send Pages: 1 -->
<svg width="531pt" height="64pt"
 viewBox="0.00 0.00 531.00 64.25" xmlns="http://www.w3.org/2000/svg" xmlns:xlink="http://www.w3.org/1999/xlink">
<g id="graph0" class="graph" transform="scale(1 1) rotate(0) translate(4 60.25)">
<title>can_send</title>
<!-- Node1 -->
<g id="Node000001" class="node">
<title>Node1</title>
<g id="a_Node000001"><a xlink:title=" ">
<polygon fill="#999999" stroke="#666666" points="523,-37.25 465,-37.25 465,-18 523,-18 523,-37.25"/>
<text text-anchor="middle" x="494" y="-23.75" font-family="Helvetica,sans-Serif" font-size="10.00">can_send</text>
</a>
</g>
</g>
<!-- Node2 -->
<g id="Node000002" class="node">
<title>Node2</title>
<g id="a_Node000002"><a xlink:href="fs-ai__api_8c.html#a3052452b396a8990299189017d4616d0" target="_top" xlink:title=" ">
<polygon fill="white" stroke="#666666" points="429,-37.25 297.5,-37.25 297.5,-18 429,-18 429,-37.25"/>
<text text-anchor="middle" x="363.25" y="-23.75" font-family="Helvetica,sans-Serif" font-size="10.00">fs_ai_api_ai2vcu_set_data</text>
</a>
</g>
</g>
<!-- Node1&#45;&gt;Node2 -->
<g id="edge1_Node000001_Node000002" class="edge">
<title>Node1&#45;&gt;Node2</title>
<g id="a_edge1_Node000001_Node000002"><a xlink:title=" ">
<path fill="none" stroke="#63b8ff" d="M453.31,-27.62C445.7,-27.62 437.54,-27.62 429.37,-27.62"/>
<polygon fill="#63b8ff" stroke="#63b8ff" points="453.23,-31.13 463.23,-27.63 453.23,-24.13 453.23,-31.13"/>
</a>
</g>
</g>
<!-- Node3 -->
<g id="Node000003" class="node">
<title>Node3</title>
<g id="a_Node000003"><a xlink:href="classCanInterface.html#aad227e189cb38ff62ddc81a988330b42" target="_top" xlink:title=" ">
<polygon fill="white" stroke="#666666" points="261.5,-56.25 167.5,-56.25 167.5,-37 261.5,-37 261.5,-56.25"/>
<text text-anchor="middle" x="214.5" y="-42.75" font-family="Helvetica,sans-Serif" font-size="10.00">CanInterface::loop</text>
</a>
</g>
</g>
<!-- Node2&#45;&gt;Node3 -->
<g id="edge2_Node000002_Node000003" class="edge">
<title>Node2&#45;&gt;Node3</title>
<g id="a_edge2_Node000002_Node000003"><a xlink:title=" ">
<path fill="none" stroke="#63b8ff" d="M285.79,-37.52C277.54,-38.59 269.34,-39.65 261.61,-40.65"/>
<polygon fill="#63b8ff" stroke="#63b8ff" points="286.06,-41.02 295.53,-36.26 285.16,-34.08 286.06,-41.02"/>
</a>
</g>
</g>
<!-- Node5 -->
<g id="Node000005" class="node">
<title>Node5</title>
<g id="a_Node000005"><a xlink:href="fs-ai__api__tester_8c.html#a3c04138a5bfe5d72780bb7e82a18e627" target="_top" xlink:title=" ">
<polygon fill="white" stroke="#666666" points="233,-19.25 196,-19.25 196,0 233,0 233,-19.25"/>
<text text-anchor="middle" x="214.5" y="-5.75" font-family="Helvetica,sans-Serif" font-size="10.00">main</text>
</a>
</g>
</g>
<!-- Node2&#45;&gt;Node5 -->
<g id="edge4_Node000002_Node000005" class="edge">
<title>Node2&#45;&gt;Node5</title>
<g id="a_edge4_Node000002_Node000005"><a xlink:title=" ">
<path fill="none" stroke="#63b8ff" d="M285.8,-18.25C266.16,-15.84 246.82,-13.47 233.41,-11.82"/>
<polygon fill="#63b8ff" stroke="#63b8ff" points="285.17,-21.7 295.53,-19.44 286.03,-14.75 285.17,-21.7"/>
</a>
</g>
</g>
<!-- Node4 -->
<g id="Node000004" class="node">
<title>Node4</title>
<g id="a_Node000004"><a xlink:href="classCanInterface.html#a30b4be0d42ccab7b5a4b321f1dff2353" target="_top" xlink:title=" ">
<polygon fill="white" stroke="#666666" points="131.5,-56.25 0,-56.25 0,-37 131.5,-37 131.5,-56.25"/>
<text text-anchor="middle" x="65.75" y="-42.75" font-family="Helvetica,sans-Serif" font-size="10.00">CanInterface::CanInterface</text>
</a>
</g>
</g>
<!-- Node3&#45;&gt;Node4 -->
<g id="edge3_Node000003_Node000004" class="edge">
<title>Node3&#45;&gt;Node4</title>
<g id="a_edge3_Node000003_Node000004"><a xlink:title=" ">
<path fill="none" stroke="#63b8ff" d="M155.81,-46.62C147.97,-46.62 139.88,-46.62 131.92,-46.62"/>
<polygon fill="#63b8ff" stroke="#63b8ff" points="155.55,-50.13 165.55,-46.63 155.55,-43.13 155.55,-50.13"/>
</a>
</g>
</g>
</g>
</svg>
