<?xml version="1.0" encoding="UTF-8" standalone="no"?>
<!DOCTYPE svg PUBLIC "-//W3C//DTD SVG 1.1//EN"
 "http://www.w3.org/Graphics/SVG/1.1/DTD/svg11.dtd">
<!-- Generated by graphviz version 9.0.0 (20230911.1827)
 -->
<!-- Title: CanInterface Pages: 1 -->
<svg width="87pt" height="157pt"
 viewBox="0.00 0.00 87.00 157.00" xmlns="http://www.w3.org/2000/svg" xmlns:xlink="http://www.w3.org/1999/xlink">
<g id="graph0" class="graph" transform="scale(1 1) rotate(0) translate(4 153)">
<title>CanInterface</title>
<!-- Node1 -->
<g id="Node000001" class="node">
<title>Node1</title>
<g id="a_Node000001"><a xlink:title="Interface to communicate with the ADS&#45;DV autonomous car through CAN.">
<polygon fill="#999999" stroke="none" points="79,-64 0,-64 0,0 79,0 79,-64"/>
<text text-anchor="start" x="11.75" y="-50.5" font-family="Helvetica,sans-Serif" font-size="10.00">CanInterface</text>
<text text-anchor="start" x="4" y="-35.5" font-family="Helvetica,sans-Serif" font-size="10.00">+</text>
<text text-anchor="start" x="14" y="-35.5" font-family="Helvetica,sans-Serif" font-size="10.00">loop_rate</text>
<text text-anchor="start" x="4" y="-20.5" font-family="Helvetica,sans-Serif" font-size="10.00">+</text>
<text text-anchor="start" x="14" y="-20.5" font-family="Helvetica,sans-Serif" font-size="10.00">CanInterface()</text>
<text text-anchor="start" x="4" y="-5.5" font-family="Helvetica,sans-Serif" font-size="10.00">+</text>
<text text-anchor="start" x="14" y="-5.5" font-family="Helvetica,sans-Serif" font-size="10.00">loop()</text>
<polygon fill="#666666" stroke="#666666" points="0,-47 0,-47 79,-47 79,-47 0,-47"/>
<polygon fill="#666666" stroke="#666666" points="0,-32 0,-32 12,-32 12,-32 0,-32"/>
<polygon fill="#666666" stroke="#666666" points="12,-32 12,-32 79,-32 79,-32 12,-32"/>
<polygon fill="none" stroke="#666666" points="0,0 0,-64 79,-64 79,0 0,0"/>
</a>
</g>
</g>
<!-- Node2 -->
<g id="Node000002" class="node">
<title>Node2</title>
<g id="a_Node000002"><a xlink:title=" ">
<polygon fill="white" stroke="none" points="71.5,-149 7.5,-149 7.5,-100 71.5,-100 71.5,-149"/>
<text text-anchor="start" x="12.5" y="-135.5" font-family="Helvetica,sans-Serif" font-size="10.00">rclcpp::Node</text>
<text text-anchor="start" x="38" y="-120.5" font-family="Helvetica,sans-Serif" font-size="10.00"> </text>
<text text-anchor="start" x="38" y="-105.5" font-family="Helvetica,sans-Serif" font-size="10.00"> </text>
<polygon fill="#666666" stroke="#666666" points="7.5,-132 7.5,-132 71.5,-132 71.5,-132 7.5,-132"/>
<polygon fill="#666666" stroke="#666666" points="7.5,-117 7.5,-117 71.5,-117 71.5,-117 7.5,-117"/>
<polygon fill="none" stroke="#666666" points="7.5,-100 7.5,-149 71.5,-149 71.5,-100 7.5,-100"/>
</a>
</g>
</g>
<!-- Node2&#45;&gt;Node1 -->
<g id="edge1_Node000001_Node000002" class="edge">
<title>Node2&#45;&gt;Node1</title>
<g id="a_edge1_Node000001_Node000002"><a xlink:title=" ">
<path fill="none" stroke="#63b8ff" d="M39.5,-88.93C39.5,-80.64 39.5,-71.84 39.5,-63.74"/>
<polygon fill="none" stroke="#63b8ff" points="36,-88.68 39.5,-98.68 43,-88.68 36,-88.68"/>
</a>
</g>
</g>
</g>
</svg>
