<?xml version="1.0" encoding="UTF-8" standalone="no"?>
<!DOCTYPE svg PUBLIC "-//W3C//DTD SVG 1.1//EN"
 "http://www.w3.org/Graphics/SVG/1.1/DTD/svg11.dtd">
<!-- Generated by graphviz version 9.0.0 (20230911.1827)
 -->
<!-- Title: LocalPathPlanner::processNewArray Pages: 1 -->
<!--zoomable 527 -->

<svg id="main" version="1.1" xmlns="http://www.w3.org/2000/svg" xmlns:xlink="http://www.w3.org/1999/xlink" xml:space="preserve" onload="init(evt)">
<style type="text/css"><![CDATA[
.node, .edge {opacity: 0.7;}
.node.selected, .edge.selected {opacity: 1;}
.edge:hover path { stroke: red; }
.edge:hover polygon { stroke: red; fill: red; }
]]></style>

<defs>
  <circle id="rim" cx="0" cy="0" r="7"/>
  <circle id="rim2" cx="0" cy="0" r="3.5"/>
  <g id="zoomPlus">
    <use xlink:href="#rim" fill="#404040"><set attributeName="fill" to="#808080" begin="zoomplus.mouseover" end="zoomplus.mouseout"/></use>
    <path d="M-4,0h8M0,-4v8" fill="none" stroke="white" stroke-width="1.5" pointer-events="none"/>
  </g>
  <g id="zoomMin">
    <use xlink:href="#rim" fill="#404040"><set attributeName="fill" to="#808080" begin="zoomminus.mouseover" end="zoomminus.mouseout"/></use>
    <path d="M-4,0h8" fill="none" stroke="white" stroke-width="1.5" pointer-events="none"/>
  </g>
  <g id="arrowUp" transform="translate(30 24)">
    <use xlink:href="#rim"/>
    <path pointer-events="none" fill="none" stroke="white" stroke-width="1.5" d="M0,-3.0v7 M-2.5,-0.5L0,-3.0L2.5,-0.5"/>
  </g>
  <g id="arrowRight" transform="rotate(90) translate(36 -43)">
    <use xlink:href="#rim"/>
    <path pointer-events="none" fill="none" stroke="white" stroke-width="1.5" d="M0,-3.0v7 M-2.5,-0.5L0,-3.0L2.5,-0.5"/>
  </g>
  <g id="arrowDown" transform="rotate(180) translate(-30 -48)">
    <use xlink:href="#rim"/>
    <path pointer-events="none" fill="none" stroke="white" stroke-width="1.5" d="M0,-3.0v7 M-2.5,-0.5L0,-3.0L2.5,-0.5"/>
  </g>
  <g id="arrowLeft" transform="rotate(270) translate(-36 17)">
    <use xlink:href="#rim"/>
    <path pointer-events="none" fill="none" stroke="white" stroke-width="1.5" d="M0,-3.0v7 M-2.5,-0.5L0,-3.0L2.5,-0.5"/>
  </g>
  <g id="resetDef">
    <use xlink:href="#rim2" fill="#404040"><set attributeName="fill" to="#808080" begin="reset.mouseover" end="reset.mouseout"/></use>
  </g>
</defs>
<script type="application/ecmascript">
var viewWidth = 416;
var viewHeight = 527;
var sectionId = 'dynsection-1';
</script>
<script type="application/ecmascript" xlink:href="svg.min.js"/>
<svg id="graph" class="graph">
<g id="viewport">
<title>LocalPathPlanner::processNewArray</title>
<!-- Node1 -->
<g id="Node000001" class="node">
<title>Node1</title>
<g id="a_Node000001"><a xlink:title="Process an array of cones to generate a local path.">
<polygon fill="#999999" stroke="#666666" points="132.25,-267.88 0,-267.88 0,-237.38 132.25,-237.38 132.25,-267.88"/>
<text text-anchor="start" x="8" y="-254.38" font-family="Helvetica,sans-Serif" font-size="10.00">LocalPathPlanner::process</text>
<text text-anchor="middle" x="66.12" y="-243.12" font-family="Helvetica,sans-Serif" font-size="10.00">NewArray</text>
</a>
</g>
</g>
<!-- Node2 -->
<g id="Node000002" class="node">
<title>Node2</title>
<g id="a_Node000002"><a xlink:href="classTrack.html#a4619df9e7622b8349af59007c602011e" target="_top" xlink:title="Find a cone by its ID.">
<polygon fill="white" stroke="#666666" points="273.5,-519.25 190.75,-519.25 190.75,-500 273.5,-500 273.5,-519.25"/>
<text text-anchor="middle" x="232.12" y="-505.75" font-family="Helvetica,sans-Serif" font-size="10.00">Track::findCone</text>
</a>
</g>
</g>
<!-- Node1&#45;&gt;Node2 -->
<g id="edge1_Node000001_Node000002" class="edge">
<title>Node1&#45;&gt;Node2</title>
<g id="a_edge1_Node000001_Node000002"><a xlink:title=" ">
<path fill="none" stroke="#63b8ff" d="M69.62,-268.33C77,-309.68 102.43,-422.7 168.25,-485.62 171.86,-489.08 176.02,-492.05 180.45,-494.6"/>
<polygon fill="#63b8ff" stroke="#63b8ff" points="178.58,-497.58 189.09,-498.87 181.68,-491.3 178.58,-497.58"/>
</a>
</g>
</g>
<!-- Node3 -->
<g id="Node000003" class="node">
<title>Node3</title>
<g id="a_Node000003"><a xlink:href="structPosition.html#a1332b03da4c176ced8aa49f925a8c33e" target="_top" xlink:title=" ">
<polygon fill="white" stroke="#666666" points="291.5,-443.25 172.75,-443.25 172.75,-424 291.5,-424 291.5,-443.25"/>
<text text-anchor="middle" x="232.12" y="-429.75" font-family="Helvetica,sans-Serif" font-size="10.00">Position::getDistanceTo</text>
</a>
</g>
</g>
<!-- Node1&#45;&gt;Node3 -->
<g id="edge2_Node000001_Node000003" class="edge">
<title>Node1&#45;&gt;Node3</title>
<g id="a_edge2_Node000001_Node000003"><a xlink:title=" ">
<path fill="none" stroke="#63b8ff" d="M72.5,-268.15C84.46,-300.4 116.38,-374.94 168.25,-414.62 170.02,-415.98 171.88,-417.23 173.81,-418.4"/>
<polygon fill="#63b8ff" stroke="#63b8ff" points="172.1,-421.45 182.6,-422.84 175.25,-415.21 172.1,-421.45"/>
</a>
</g>
</g>
<!-- Node4 -->
<g id="Node000004" class="node">
<title>Node4</title>
<g id="a_Node000004"><a xlink:href="structPosition.html#a252efaf275c7276a6f35338d198de7ee" target="_top" xlink:title=" ">
<polygon fill="white" stroke="#666666" points="408,-443.25 332,-443.25 332,-424 408,-424 408,-443.25"/>
<text text-anchor="middle" x="370" y="-429.75" font-family="Helvetica,sans-Serif" font-size="10.00">Position::getX</text>
</a>
</g>
</g>
<!-- Node1&#45;&gt;Node4 -->
<g id="edge11_Node000001_Node000004" class="edge">
<title>Node1&#45;&gt;Node4</title>
<g id="a_edge11_Node000001_Node000004"><a xlink:title=" ">
<path fill="none" stroke="#63b8ff" d="M69.48,-268.3C76.33,-307.73 100.31,-410.84 168.25,-452.62 220.26,-484.61 294.59,-464.19 336.68,-447.93"/>
<polygon fill="#63b8ff" stroke="#63b8ff" points="337.78,-451.26 345.74,-444.28 335.16,-444.77 337.78,-451.26"/>
</a>
</g>
</g>
<!-- Node5 -->
<g id="Node000005" class="node">
<title>Node5</title>
<g id="a_Node000005"><a xlink:href="structPosition.html#a53ad8ec2f8383db4d615b3fc4e888f77" target="_top" xlink:title=" ">
<polygon fill="white" stroke="#666666" points="408,-400.25 332,-400.25 332,-381 408,-381 408,-400.25"/>
<text text-anchor="middle" x="370" y="-386.75" font-family="Helvetica,sans-Serif" font-size="10.00">Position::getY</text>
</a>
</g>
</g>
<!-- Node1&#45;&gt;Node5 -->
<g id="edge13_Node000001_Node000005" class="edge">
<title>Node1&#45;&gt;Node5</title>
<g id="a_edge13_Node000001_Node000005"><a xlink:title=" ">
<path fill="none" stroke="#63b8ff" d="M94.19,-268.36C114.32,-279.82 142.64,-295.41 168.25,-307.62 224.06,-334.25 290.73,-360.82 331.46,-376.48"/>
<polygon fill="#63b8ff" stroke="#63b8ff" points="329.97,-379.66 340.56,-379.96 332.47,-373.12 329.97,-379.66"/>
</a>
</g>
</g>
<!-- Node6 -->
<g id="Node000006" class="node">
<title>Node6</title>
<g id="a_Node000006"><a xlink:href="classCone.html#ad6448719967d79b51a6e9586d28897d8" target="_top" xlink:title=" ">
<polygon fill="white" stroke="#666666" points="402.38,-300.25 337.62,-300.25 337.62,-281 402.38,-281 402.38,-300.25"/>
<text text-anchor="middle" x="370" y="-286.75" font-family="Helvetica,sans-Serif" font-size="10.00">Cone::getId</text>
</a>
</g>
</g>
<!-- Node1&#45;&gt;Node6 -->
<g id="edge5_Node000001_Node000006" class="edge">
<title>Node1&#45;&gt;Node6</title>
<g id="a_edge5_Node000001_Node000006"><a xlink:title=" ">
<path fill="none" stroke="#63b8ff" d="M99.52,-268.21C118.95,-276.68 144.45,-286.3 168.25,-290.62 221.93,-300.38 285.03,-298.2 325.95,-295.04"/>
<polygon fill="#63b8ff" stroke="#63b8ff" points="326.21,-298.53 335.88,-294.21 325.63,-291.56 326.21,-298.53"/>
</a>
</g>
</g>
<!-- Node7 -->
<g id="Node000007" class="node">
<title>Node7</title>
<g id="a_Node000007"><a xlink:href="classTrack.html#aeb46e6fbc74096c298262b84cd81b77f" target="_top" xlink:title="Get the left cone at a specified index.">
<polygon fill="white" stroke="#666666" points="286.25,-167.25 178,-167.25 178,-148 286.25,-148 286.25,-167.25"/>
<text text-anchor="middle" x="232.12" y="-153.75" font-family="Helvetica,sans-Serif" font-size="10.00">Track::getLeftConeAt</text>
</a>
</g>
</g>
<!-- Node1&#45;&gt;Node7 -->
<g id="edge6_Node000001_Node000007" class="edge">
<title>Node1&#45;&gt;Node7</title>
<g id="a_edge6_Node000001_Node000007"><a xlink:title=" ">
<path fill="none" stroke="#63b8ff" d="M86.33,-236.95C106.02,-221.44 137.94,-197.73 168.25,-181.62 174.9,-178.09 182.18,-174.82 189.36,-171.9"/>
<polygon fill="#63b8ff" stroke="#63b8ff" points="190.6,-175.17 198.66,-168.29 188.07,-168.64 190.6,-175.17"/>
</a>
</g>
</g>
<!-- Node8 -->
<g id="Node000008" class="node">
<title>Node8</title>
<g id="a_Node000008"><a xlink:href="classTrack.html#a394133c01100ca42facbb28150db9e7d" target="_top" xlink:title="Get the number of left cones.">
<polygon fill="white" stroke="#666666" points="293.38,-130.25 170.88,-130.25 170.88,-111 293.38,-111 293.38,-130.25"/>
<text text-anchor="middle" x="232.12" y="-116.75" font-family="Helvetica,sans-Serif" font-size="10.00">Track::getLeftConesSize</text>
</a>
</g>
</g>
<!-- Node1&#45;&gt;Node8 -->
<g id="edge7_Node000001_Node000008" class="edge">
<title>Node1&#45;&gt;Node8</title>
<g id="a_edge7_Node000001_Node000008"><a xlink:title=" ">
<path fill="none" stroke="#63b8ff" d="M76.59,-237.2C92.47,-212.63 126.83,-164.71 168.25,-138.62 170.12,-137.45 172.08,-136.34 174.09,-135.31"/>
<polygon fill="#63b8ff" stroke="#63b8ff" points="175.38,-138.56 183.11,-131.32 172.55,-132.16 175.38,-138.56"/>
</a>
</g>
</g>
<!-- Node9 -->
<g id="Node000009" class="node">
<title>Node9</title>
<g id="a_Node000009"><a xlink:href="classTrack.html#a95fe146ead9aae192047e1f0a2c6c3c8" target="_top" xlink:title="Get the right cone at a specified index.">
<polygon fill="white" stroke="#666666" points="288.88,-93.25 175.38,-93.25 175.38,-74 288.88,-74 288.88,-93.25"/>
<text text-anchor="middle" x="232.12" y="-79.75" font-family="Helvetica,sans-Serif" font-size="10.00">Track::getRightConeAt</text>
</a>
</g>
</g>
<!-- Node1&#45;&gt;Node9 -->
<g id="edge8_Node000001_Node000009" class="edge">
<title>Node1&#45;&gt;Node9</title>
<g id="a_edge8_Node000001_Node000009"><a xlink:title=" ">
<path fill="none" stroke="#63b8ff" d="M73.14,-237.16C85.88,-206.51 118.53,-137.86 168.25,-101.62 169.6,-100.64 171,-99.71 172.44,-98.84"/>
<polygon fill="#63b8ff" stroke="#63b8ff" points="173.78,-102.08 181.1,-94.43 170.6,-95.84 173.78,-102.08"/>
</a>
</g>
</g>
<!-- Node10 -->
<g id="Node000010" class="node">
<title>Node10</title>
<g id="a_Node000010"><a xlink:href="classTrack.html#a509060ab3a7c34a9fc435b507e4bd49d" target="_top" xlink:title="Get the number of right cones.">
<polygon fill="white" stroke="#666666" points="296,-56.25 168.25,-56.25 168.25,-37 296,-37 296,-56.25"/>
<text text-anchor="middle" x="232.12" y="-42.75" font-family="Helvetica,sans-Serif" font-size="10.00">Track::getRightConesSize</text>
</a>
</g>
</g>
<!-- Node1&#45;&gt;Node10 -->
<g id="edge9_Node000001_Node000010" class="edge">
<title>Node1&#45;&gt;Node10</title>
<g id="a_edge9_Node000001_Node000010"><a xlink:title=" ">
<path fill="none" stroke="#63b8ff" d="M71.02,-237.06C80.84,-201.04 110.09,-111.47 168.25,-64.62 169.37,-63.72 170.53,-62.87 171.73,-62.05"/>
<polygon fill="#63b8ff" stroke="#63b8ff" points="173.14,-65.27 180.18,-57.36 169.74,-59.15 173.14,-65.27"/>
</a>
</g>
</g>
<!-- Node11 -->
<g id="Node000011" class="node">
<title>Node11</title>
<g id="a_Node000011"><a xlink:href="classCone.html#a51a49cc249e79d06f6a983250fe809b3" target="_top" xlink:title=" ">
<polygon fill="white" stroke="#666666" points="401.62,-253.25 338.38,-253.25 338.38,-234 401.62,-234 401.62,-253.25"/>
<text text-anchor="middle" x="370" y="-239.75" font-family="Helvetica,sans-Serif" font-size="10.00">Cone::getX</text>
</a>
</g>
</g>
<!-- Node1&#45;&gt;Node11 -->
<g id="edge10_Node000001_Node000011" class="edge">
<title>Node1&#45;&gt;Node11</title>
<g id="a_edge10_Node000001_Node000011"><a xlink:title=" ">
<path fill="none" stroke="#63b8ff" d="M132.63,-250.67C191.54,-248.92 276.36,-246.39 326.75,-244.88"/>
<polygon fill="#63b8ff" stroke="#63b8ff" points="326.77,-248.39 336.66,-244.59 326.56,-241.39 326.77,-248.39"/>
</a>
</g>
</g>
<!-- Node12 -->
<g id="Node000012" class="node">
<title>Node12</title>
<g id="a_Node000012"><a xlink:href="classCone.html#a952987a9de5d20d7930b3e93c04fd278" target="_top" xlink:title=" ">
<polygon fill="white" stroke="#666666" points="401.62,-216.25 338.38,-216.25 338.38,-197 401.62,-197 401.62,-216.25"/>
<text text-anchor="middle" x="370" y="-202.75" font-family="Helvetica,sans-Serif" font-size="10.00">Cone::getY</text>
</a>
</g>
</g>
<!-- Node1&#45;&gt;Node12 -->
<g id="edge12_Node000001_Node000012" class="edge">
<title>Node1&#45;&gt;Node12</title>
<g id="a_edge12_Node000001_Node000012"><a xlink:title=" ">
<path fill="none" stroke="#63b8ff" d="M132.63,-242.64C191.67,-233.65 276.71,-220.69 327.07,-213.01"/>
<polygon fill="#63b8ff" stroke="#63b8ff" points="327.32,-216.52 336.68,-211.55 326.27,-209.6 327.32,-216.52"/>
</a>
</g>
</g>
<!-- Node13 -->
<g id="Node000013" class="node">
<title>Node13</title>
<g id="a_Node000013"><a xlink:href="classTrack.html#ab4e7e111378109011379f2a7aa984145" target="_top" xlink:title="Reset the track by clearing cone lists.">
<polygon fill="white" stroke="#666666" points="265.62,-19.25 198.62,-19.25 198.62,0 265.62,0 265.62,-19.25"/>
<text text-anchor="middle" x="232.12" y="-5.75" font-family="Helvetica,sans-Serif" font-size="10.00">Track::reset</text>
</a>
</g>
</g>
<!-- Node1&#45;&gt;Node13 -->
<g id="edge14_Node000001_Node000013" class="edge">
<title>Node1&#45;&gt;Node13</title>
<g id="a_edge14_Node000001_Node000013"><a xlink:title=" ">
<path fill="none" stroke="#63b8ff" d="M69.51,-237.13C76.6,-196.41 101.39,-85.51 168.25,-27.62 173.71,-22.89 180.35,-19.4 187.23,-16.83"/>
<polygon fill="#63b8ff" stroke="#63b8ff" points="188.14,-20.21 196.68,-13.93 186.09,-13.52 188.14,-20.21"/>
</a>
</g>
</g>
<!-- Node14 -->
<g id="Node000014" class="node">
<title>Node14</title>
<g id="a_Node000014"><a xlink:href="classTrack.html#a0da16ce65cc4d3f67a79073e0d632f6f" target="_top" xlink:title="Change the position of a cone based on the id of the parameter cone or creates a new cone in case the...">
<polygon fill="white" stroke="#666666" points="272.75,-281.25 191.5,-281.25 191.5,-262 272.75,-262 272.75,-281.25"/>
<text text-anchor="middle" x="232.12" y="-267.75" font-family="Helvetica,sans-Serif" font-size="10.00">Track::setCone</text>
</a>
</g>
</g>
<!-- Node1&#45;&gt;Node14 -->
<g id="edge15_Node000001_Node000014" class="edge">
<title>Node1&#45;&gt;Node14</title>
<g id="a_edge15_Node000001_Node000014"><a xlink:title=" ">
<path fill="none" stroke="#63b8ff" d="M132.41,-260.19C148.22,-262.02 164.88,-263.95 179.93,-265.69"/>
<polygon fill="#63b8ff" stroke="#63b8ff" points="179.24,-269.14 189.58,-266.81 180.05,-262.18 179.24,-269.14"/>
</a>
</g>
</g>
<!-- Node15 -->
<g id="Node000015" class="node">
<title>Node15</title>
<g id="a_Node000015"><a xlink:href="classLocalPathPlanner.html#a0101a6887af84133c6f72fdf6809e6de" target="_top" xlink:title="Determine if two positions align in a certain direction.">
<polygon fill="white" stroke="#666666" points="294.5,-405.88 169.75,-405.88 169.75,-375.38 294.5,-375.38 294.5,-405.88"/>
<text text-anchor="start" x="177.75" y="-392.38" font-family="Helvetica,sans-Serif" font-size="10.00">LocalPathPlanner::vector</text>
<text text-anchor="middle" x="232.12" y="-381.12" font-family="Helvetica,sans-Serif" font-size="10.00">_direction</text>
</a>
</g>
</g>
<!-- Node1&#45;&gt;Node15 -->
<g id="edge19_Node000001_Node000015" class="edge">
<title>Node1&#45;&gt;Node15</title>
<g id="a_edge19_Node000001_Node000015"><a xlink:title=" ">
<path fill="none" stroke="#63b8ff" d="M78.34,-268.15C95.54,-291.06 130.43,-334.19 168.25,-361.62 172.24,-364.52 176.57,-367.24 181.03,-369.75"/>
<polygon fill="#63b8ff" stroke="#63b8ff" points="179.08,-372.68 189.56,-374.23 182.33,-366.48 179.08,-372.68"/>
</a>
</g>
</g>
<!-- Node3&#45;&gt;Node4 -->
<g id="edge3_Node000003_Node000004" class="edge">
<title>Node3&#45;&gt;Node4</title>
<g id="a_edge3_Node000003_Node000004"><a xlink:title=" ">
<path fill="none" stroke="#63b8ff" d="M291.93,-433.62C301.41,-433.62 311.13,-433.62 320.34,-433.62"/>
<polygon fill="#63b8ff" stroke="#63b8ff" points="320.16,-437.13 330.16,-433.63 320.16,-430.13 320.16,-437.13"/>
</a>
</g>
</g>
<!-- Node3&#45;&gt;Node5 -->
<g id="edge4_Node000003_Node000005" class="edge">
<title>Node3&#45;&gt;Node5</title>
<g id="a_edge4_Node000003_Node000005"><a xlink:title=" ">
<path fill="none" stroke="#63b8ff" d="M267.11,-423.52C276.48,-420.69 286.65,-417.58 296,-414.62 306.37,-411.35 317.54,-407.73 327.95,-404.32"/>
<polygon fill="#63b8ff" stroke="#63b8ff" points="329.03,-407.64 337.43,-401.19 326.83,-401 329.03,-407.64"/>
</a>
</g>
</g>
<!-- Node14&#45;&gt;Node6 -->
<g id="edge16_Node000014_Node000006" class="edge">
<title>Node14&#45;&gt;Node6</title>
<g id="a_edge16_Node000014_Node000006"><a xlink:title=" ">
<path fill="none" stroke="#63b8ff" d="M273.16,-277.22C289.82,-279.55 309.2,-282.26 326.15,-284.63"/>
<polygon fill="#63b8ff" stroke="#63b8ff" points="325.55,-288.08 335.93,-286 326.51,-281.15 325.55,-288.08"/>
</a>
</g>
</g>
<!-- Node14&#45;&gt;Node11 -->
<g id="edge17_Node000014_Node000011" class="edge">
<title>Node14&#45;&gt;Node11</title>
<g id="a_edge17_Node000014_Node000011"><a xlink:title=" ">
<path fill="none" stroke="#63b8ff" d="M273.16,-263.38C290.24,-259.86 310.17,-255.75 327.42,-252.19"/>
<polygon fill="#63b8ff" stroke="#63b8ff" points="327.74,-255.7 336.82,-250.26 326.32,-248.85 327.74,-255.7"/>
</a>
</g>
</g>
<!-- Node14&#45;&gt;Node12 -->
<g id="edge18_Node000014_Node000012" class="edge">
<title>Node14&#45;&gt;Node12</title>
<g id="a_edge18_Node000014_Node000012"><a xlink:title=" ">
<path fill="none" stroke="#63b8ff" d="M254.06,-261.61C276.46,-250.89 312.25,-233.77 337.94,-221.48"/>
<polygon fill="#63b8ff" stroke="#63b8ff" points="339.39,-224.67 346.9,-217.2 336.37,-218.35 339.39,-224.67"/>
</a>
</g>
</g>
<!-- Node15&#45;&gt;Node4 -->
<g id="edge20_Node000015_Node000004" class="edge">
<title>Node15&#45;&gt;Node4</title>
<g id="a_edge20_Node000015_Node000004"><a xlink:title=" ">
<path fill="none" stroke="#63b8ff" d="M282.56,-406.27C296.93,-410.82 312.5,-415.74 326.41,-420.15"/>
<polygon fill="#63b8ff" stroke="#63b8ff" points="325.12,-423.41 335.71,-423.09 327.23,-416.74 325.12,-423.41"/>
</a>
</g>
</g>
<!-- Node15&#45;&gt;Node5 -->
<g id="edge21_Node000015_Node000005" class="edge">
<title>Node15&#45;&gt;Node5</title>
<g id="a_edge21_Node000015_Node000005"><a xlink:title=" ">
<path fill="none" stroke="#63b8ff" d="M294.7,-390.62C303.29,-390.62 312.02,-390.62 320.33,-390.62"/>
<polygon fill="#63b8ff" stroke="#63b8ff" points="320.22,-394.13 330.22,-390.63 320.22,-387.13 320.22,-394.13"/>
</a>
</g>
</g>
</g>
</svg>

<g id="navigator" transform="translate(0 0)" fill="#404254">
  <rect fill="#f2f5e9" fill-opacity="0.5" stroke="#606060" stroke-width=".5" x="0" y="0" width="60" height="60"/>
  <use id="zoomplus" xlink:href="#zoomPlus" x="17" y="9" onmousedown="handleZoom(evt,'in')"/>
  <use id="zoomminus" xlink:href="#zoomMin" x="42" y="9" onmousedown="handleZoom(evt,'out')"/>
  <use id="reset" xlink:href="#resetDef" x="30" y="36" onmousedown="handleReset()"/>
   <use id="arrowup" xlink:href="#arrowUp" x="0" y="0" onmousedown="handlePan(0,-1)"/>
  <use id="arrowright" xlink:href="#arrowRight" x="0" y="0" onmousedown="handlePan(1,0)"/>
  <use id="arrowdown" xlink:href="#arrowDown" x="0" y="0" onmousedown="handlePan(0,1)"/>
  <use id="arrowleft" xlink:href="#arrowLeft" x="0" y="0" onmousedown="handlePan(-1,0)"/>
</g>
<svg viewBox="0 0 15 15" width="100%" height="30px" preserveAspectRatio="xMaxYMin meet">
 <g id="arrow_out" transform="scale(0.3 0.3)">
  <a xlink:href="classLocalPathPlanner_ae64befc2d63ed4eb841f7d94e464625b_cgraph_org.svg" target="_base">
   <rect id="button" ry="5" rx="5" y="6" x="6" height="38" width="38"
        fill="#f2f5e9" fill-opacity="0.5" stroke="#606060" stroke-width="1.0"/>
   <path id="arrow"
     d="M 11.500037,31.436501 C 11.940474,20.09759 22.043105,11.32322 32.158766,21.979434 L 37.068811,17.246167 C 37.068811,17.246167 37.088388,32 37.088388,32 L 22.160133,31.978069 C 22.160133,31.978069 26.997745,27.140456 26.997745,27.140456 C 18.528582,18.264221 13.291696,25.230495 11.500037,31.436501 z"
     style="fill:#404040;"/>
  </a>
 </g>
</svg>

<style type='text/css'>
<![CDATA[
[data-mouse-over-selected='false'] { opacity: 0.7; }
[data-mouse-over-selected='true']  { opacity: 1.0; }
]]>
</style>
<script type="application/ecmascript"><![CDATA[
document.addEventListener('DOMContentLoaded', (event) => {
  highlightEdges();
  highlightAdjacentNodes();
});
]]></script>
</svg>
