<?xml version="1.0" encoding="UTF-8" standalone="no"?>
<!DOCTYPE svg PUBLIC "-//W3C//DTD SVG 1.1//EN"
 "http://www.w3.org/Graphics/SVG/1.1/DTD/svg11.dtd">
<!-- Generated by graphviz version 9.0.0 (20230911.1827)
 -->
<!-- Title: Cone::getX Pages: 1 -->
<!--zoomable 281 -->

<svg id="main" version="1.1" xmlns="http://www.w3.org/2000/svg" xmlns:xlink="http://www.w3.org/1999/xlink" xml:space="preserve" onload="init(evt)">
<style type="text/css"><![CDATA[
.node, .edge {opacity: 0.7;}
.node.selected, .edge.selected {opacity: 1;}
.edge:hover path { stroke: red; }
.edge:hover polygon { stroke: red; fill: red; }
]]></style>

<defs>
  <circle id="rim" cx="0" cy="0" r="7"/>
  <circle id="rim2" cx="0" cy="0" r="3.5"/>
  <g id="zoomPlus">
    <use xlink:href="#rim" fill="#404040"><set attributeName="fill" to="#808080" begin="zoomplus.mouseover" end="zoomplus.mouseout"/></use>
    <path d="M-4,0h8M0,-4v8" fill="none" stroke="white" stroke-width="1.5" pointer-events="none"/>
  </g>
  <g id="zoomMin">
    <use xlink:href="#rim" fill="#404040"><set attributeName="fill" to="#808080" begin="zoomminus.mouseover" end="zoomminus.mouseout"/></use>
    <path d="M-4,0h8" fill="none" stroke="white" stroke-width="1.5" pointer-events="none"/>
  </g>
  <g id="arrowUp" transform="translate(30 24)">
    <use xlink:href="#rim"/>
    <path pointer-events="none" fill="none" stroke="white" stroke-width="1.5" d="M0,-3.0v7 M-2.5,-0.5L0,-3.0L2.5,-0.5"/>
  </g>
  <g id="arrowRight" transform="rotate(90) translate(36 -43)">
    <use xlink:href="#rim"/>
    <path pointer-events="none" fill="none" stroke="white" stroke-width="1.5" d="M0,-3.0v7 M-2.5,-0.5L0,-3.0L2.5,-0.5"/>
  </g>
  <g id="arrowDown" transform="rotate(180) translate(-30 -48)">
    <use xlink:href="#rim"/>
    <path pointer-events="none" fill="none" stroke="white" stroke-width="1.5" d="M0,-3.0v7 M-2.5,-0.5L0,-3.0L2.5,-0.5"/>
  </g>
  <g id="arrowLeft" transform="rotate(270) translate(-36 17)">
    <use xlink:href="#rim"/>
    <path pointer-events="none" fill="none" stroke="white" stroke-width="1.5" d="M0,-3.0v7 M-2.5,-0.5L0,-3.0L2.5,-0.5"/>
  </g>
  <g id="resetDef">
    <use xlink:href="#rim2" fill="#404040"><set attributeName="fill" to="#808080" begin="reset.mouseover" end="reset.mouseout"/></use>
  </g>
</defs>
<script type="application/ecmascript">
var viewWidth = 745;
var viewHeight = 281;
var sectionId = 'dynsection-4';
</script>
<script type="application/ecmascript" xlink:href="svg.min.js"/>
<svg id="graph" class="graph">
<g id="viewport">
<title>Cone::getX</title>
<!-- Node1 -->
<g id="Node000001" class="node">
<title>Node1</title>
<g id="a_Node000001"><a xlink:title=" ">
<polygon fill="#999999" stroke="#666666" points="737.25,-143.25 674,-143.25 674,-124 737.25,-124 737.25,-143.25"/>
<text text-anchor="middle" x="705.62" y="-129.75" font-family="Helvetica,sans-Serif" font-size="10.00">Cone::getX</text>
</a>
</g>
</g>
<!-- Node2 -->
<g id="Node000002" class="node">
<title>Node2</title>
<g id="a_Node000002"><a xlink:href="classTrack.html#a621e3153e10358d3be704ac51bcc400d" target="_top" xlink:title="Delete outliers from the track.">
<polygon fill="white" stroke="#666666" points="474.25,-199.25 369,-199.25 369,-180 474.25,-180 474.25,-199.25"/>
<text text-anchor="middle" x="421.62" y="-185.75" font-family="Helvetica,sans-Serif" font-size="10.00">Track::deleteOutliers</text>
</a>
</g>
</g>
<!-- Node1&#45;&gt;Node2 -->
<g id="edge1_Node000001_Node000002" class="edge">
<title>Node1&#45;&gt;Node2</title>
<g id="a_edge1_Node000001_Node000002"><a xlink:title=" ">
<path fill="none" stroke="#63b8ff" d="M693.69,-153.48C682.41,-171.67 662.98,-197.4 638,-208.62 574.48,-237.16 489.93,-214.37 448.18,-199.65"/>
<polygon fill="#63b8ff" stroke="#63b8ff" points="696.69,-155.28 698.73,-144.88 690.65,-151.74 696.69,-155.28"/>
</a>
</g>
</g>
<!-- Node10 -->
<g id="Node000010" class="node">
<title>Node10</title>
<g id="a_Node000010"><a xlink:href="classCone.html#a1fd598dec938e232ee09e16abe1b6a0d" target="_top" xlink:title=" ">
<polygon fill="white" stroke="#666666" points="633.88,-162.25 527.88,-162.25 527.88,-143 633.88,-143 633.88,-162.25"/>
<text text-anchor="middle" x="580.88" y="-148.75" font-family="Helvetica,sans-Serif" font-size="10.00">Cone::getDistanceTo</text>
</a>
</g>
</g>
<!-- Node1&#45;&gt;Node10 -->
<g id="edge9_Node000001_Node000010" class="edge">
<title>Node1&#45;&gt;Node10</title>
<g id="a_edge9_Node000001_Node000010"><a xlink:title=" ">
<path fill="none" stroke="#63b8ff" d="M662.55,-140.14C653.47,-141.54 643.76,-143.05 634.33,-144.51"/>
<polygon fill="#63b8ff" stroke="#63b8ff" points="662.81,-143.64 672.15,-138.65 661.74,-136.72 662.81,-143.64"/>
</a>
</g>
</g>
<!-- Node11 -->
<g id="Node000011" class="node">
<title>Node11</title>
<g id="a_Node000011"><a xlink:href="classGlobalPathPlanner.html#a647ee276296802fe82b67e6ef3374d51" target="_top" xlink:title=" ">
<polygon fill="white" stroke="#666666" points="472.38,-141.88 370.88,-141.88 370.88,-111.38 472.38,-111.38 472.38,-141.88"/>
<text text-anchor="start" x="378.88" y="-128.38" font-family="Helvetica,sans-Serif" font-size="10.00">GlobalPathPlanner::</text>
<text text-anchor="middle" x="421.62" y="-117.12" font-family="Helvetica,sans-Serif" font-size="10.00">middlePath</text>
</a>
</g>
</g>
<!-- Node1&#45;&gt;Node11 -->
<g id="edge12_Node000001_Node000011" class="edge">
<title>Node1&#45;&gt;Node11</title>
<g id="a_edge12_Node000001_Node000011"><a xlink:title=" ">
<path fill="none" stroke="#63b8ff" d="M662.44,-132.58C611.69,-131.32 526.61,-129.21 472.62,-127.87"/>
<polygon fill="#63b8ff" stroke="#63b8ff" points="662.04,-136.07 672.13,-132.82 662.22,-129.07 662.04,-136.07"/>
</a>
</g>
</g>
<!-- Node12 -->
<g id="Node000012" class="node">
<title>Node12</title>
<g id="a_Node000012"><a xlink:href="classLocalPathPlanner.html#ae64befc2d63ed4eb841f7d94e464625b" target="_top" xlink:title="Process an array of cones to generate a local path.">
<polygon fill="white" stroke="#666666" points="487.75,-79.88 355.5,-79.88 355.5,-49.38 487.75,-49.38 487.75,-79.88"/>
<text text-anchor="start" x="363.5" y="-66.38" font-family="Helvetica,sans-Serif" font-size="10.00">LocalPathPlanner::process</text>
<text text-anchor="middle" x="421.62" y="-55.12" font-family="Helvetica,sans-Serif" font-size="10.00">NewArray</text>
</a>
</g>
</g>
<!-- Node1&#45;&gt;Node12 -->
<g id="edge13_Node000001_Node000012" class="edge">
<title>Node1&#45;&gt;Node12</title>
<g id="a_edge13_Node000001_Node000012"><a xlink:title=" ">
<path fill="none" stroke="#63b8ff" d="M662.48,-123.31C616.01,-111.94 540.72,-93.52 486.89,-80.35"/>
<polygon fill="#63b8ff" stroke="#63b8ff" points="661.62,-126.71 672.17,-125.68 663.29,-119.91 661.62,-126.71"/>
</a>
</g>
</g>
<!-- Node18 -->
<g id="Node000018" class="node">
<title>Node18</title>
<g id="a_Node000018"><a xlink:href="classTrack.html#a0da16ce65cc4d3f67a79073e0d632f6f" target="_top" xlink:title="Change the position of a cone based on the id of the parameter cone or creates a new cone in case the...">
<polygon fill="white" stroke="#666666" points="621.5,-48.25 540.25,-48.25 540.25,-29 621.5,-29 621.5,-48.25"/>
<text text-anchor="middle" x="580.88" y="-34.75" font-family="Helvetica,sans-Serif" font-size="10.00">Track::setCone</text>
</a>
</g>
</g>
<!-- Node1&#45;&gt;Node18 -->
<g id="edge19_Node000001_Node000018" class="edge">
<title>Node1&#45;&gt;Node18</title>
<g id="a_edge19_Node000001_Node000018"><a xlink:title=" ">
<path fill="none" stroke="#63b8ff" d="M690.68,-114.89C678.26,-99.25 658.87,-77.23 638,-62.62 630.01,-57.03 620.52,-52.36 611.63,-48.67"/>
<polygon fill="#63b8ff" stroke="#63b8ff" points="687.66,-116.7 696.54,-122.48 693.2,-112.43 687.66,-116.7"/>
</a>
</g>
</g>
<!-- Node19 -->
<g id="Node000019" class="node">
<title>Node19</title>
<g id="a_Node000019"><a xlink:href="classTrack.html#aceda92bc02f39cd9127b31bc04ef7feb" target="_top" xlink:title="Check if the direction of two cones is consistent.">
<polygon fill="white" stroke="#666666" points="638,-199.25 523.75,-199.25 523.75,-180 638,-180 638,-199.25"/>
<text text-anchor="middle" x="580.88" y="-185.75" font-family="Helvetica,sans-Serif" font-size="10.00">Track::vector_direction</text>
</a>
</g>
</g>
<!-- Node1&#45;&gt;Node19 -->
<g id="edge21_Node000001_Node000019" class="edge">
<title>Node1&#45;&gt;Node19</title>
<g id="a_edge21_Node000001_Node000019"><a xlink:title=" ">
<path fill="none" stroke="#63b8ff" d="M679.7,-149.49C667.45,-156.85 652.28,-165.34 638,-171.62 631.35,-174.55 624.07,-177.24 617.02,-179.59"/>
<polygon fill="#63b8ff" stroke="#63b8ff" points="681.24,-152.65 687.93,-144.43 677.58,-146.68 681.24,-152.65"/>
</a>
</g>
</g>
<!-- Node3 -->
<g id="Node000003" class="node">
<title>Node3</title>
<g id="a_Node000003"><a xlink:href="classTrack.html#a23bfa04cf9977718fa8b482a6371c9b2" target="_top" xlink:title="Validate the cones in the track by deleting outliers.">
<polygon fill="white" stroke="#666666" points="317.25,-199.25 210.5,-199.25 210.5,-180 317.25,-180 317.25,-199.25"/>
<text text-anchor="middle" x="263.88" y="-185.75" font-family="Helvetica,sans-Serif" font-size="10.00">Track::validateCones</text>
</a>
</g>
</g>
<!-- Node2&#45;&gt;Node3 -->
<g id="edge2_Node000002_Node000003" class="edge">
<title>Node2&#45;&gt;Node3</title>
<g id="a_edge2_Node000002_Node000003"><a xlink:title=" ">
<path fill="none" stroke="#63b8ff" d="M357.35,-189.62C344.14,-189.62 330.35,-189.62 317.57,-189.62"/>
<polygon fill="#63b8ff" stroke="#63b8ff" points="357.25,-193.13 367.25,-189.63 357.25,-186.13 357.25,-193.13"/>
</a>
</g>
</g>
<!-- Node4 -->
<g id="Node000004" class="node">
<title>Node4</title>
<g id="a_Node000004"><a xlink:href="tests_8cpp.html#a079261152f3ac81df46a49a1b3fb0f2d" target="_top" xlink:title=" ">
<polygon fill="white" stroke="#666666" points="172.25,-218.25 76.75,-218.25 76.75,-199 172.25,-199 172.25,-218.25"/>
<text text-anchor="middle" x="124.5" y="-204.75" font-family="Helvetica,sans-Serif" font-size="10.00">outlierCalculations</text>
</a>
</g>
</g>
<!-- Node3&#45;&gt;Node4 -->
<g id="edge3_Node000003_Node000004" class="edge">
<title>Node3&#45;&gt;Node4</title>
<g id="a_edge3_Node000003_Node000004"><a xlink:title=" ">
<path fill="none" stroke="#63b8ff" d="M198.95,-198.47C190.03,-199.7 181,-200.95 172.46,-202.13"/>
<polygon fill="#63b8ff" stroke="#63b8ff" points="199.23,-201.96 208.66,-197.12 198.27,-195.03 199.23,-201.96"/>
</a>
</g>
</g>
<!-- Node9 -->
<g id="Node000009" class="node">
<title>Node9</title>
<g id="a_Node000009"><a xlink:href="tests_8cpp.html#ac9d004c8db77da8d75a6229a398bfcba" target="_top" xlink:title=" ">
<polygon fill="white" stroke="#666666" points="144.88,-181.25 104.12,-181.25 104.12,-162 144.88,-162 144.88,-181.25"/>
<text text-anchor="middle" x="124.5" y="-167.75" font-family="Helvetica,sans-Serif" font-size="10.00">TEST</text>
</a>
</g>
</g>
<!-- Node3&#45;&gt;Node9 -->
<g id="edge8_Node000003_Node000009" class="edge">
<title>Node3&#45;&gt;Node9</title>
<g id="a_edge8_Node000003_Node000009"><a xlink:title=" ">
<path fill="none" stroke="#63b8ff" d="M198.83,-181.23C179.42,-178.69 159.51,-176.08 145.35,-174.23"/>
<polygon fill="#63b8ff" stroke="#63b8ff" points="198.28,-184.69 208.65,-182.52 199.19,-177.75 198.28,-184.69"/>
</a>
</g>
</g>
<!-- Node5 -->
<g id="Node000005" class="node">
<title>Node5</title>
<g id="a_Node000005"><a xlink:href="tests_8cpp.html#aa39b06d40b7290dacc01a79720a31e09" target="_top" xlink:title=" ">
<polygon fill="white" stroke="#666666" points="40.75,-273.25 0,-273.25 0,-254 40.75,-254 40.75,-273.25"/>
<text text-anchor="middle" x="20.38" y="-259.75" font-family="Helvetica,sans-Serif" font-size="10.00">TEST</text>
</a>
</g>
</g>
<!-- Node4&#45;&gt;Node5 -->
<g id="edge4_Node000004_Node000005" class="edge">
<title>Node4&#45;&gt;Node5</title>
<g id="a_edge4_Node000004_Node000005"><a xlink:title=" ">
<path fill="none" stroke="#63b8ff" d="M95.01,-223.97C77.42,-233.44 55.36,-245.32 39.99,-253.6"/>
<polygon fill="#63b8ff" stroke="#63b8ff" points="96.29,-227.25 103.44,-219.43 92.97,-221.09 96.29,-227.25"/>
</a>
</g>
</g>
<!-- Node6 -->
<g id="Node000006" class="node">
<title>Node6</title>
<g id="a_Node000006"><a xlink:href="tests_8cpp.html#a5436909e02106ab864f366dc30568a7d" target="_top" xlink:title=" ">
<polygon fill="white" stroke="#666666" points="40.75,-236.25 0,-236.25 0,-217 40.75,-217 40.75,-236.25"/>
<text text-anchor="middle" x="20.38" y="-222.75" font-family="Helvetica,sans-Serif" font-size="10.00">TEST</text>
</a>
</g>
</g>
<!-- Node4&#45;&gt;Node6 -->
<g id="edge5_Node000004_Node000006" class="edge">
<title>Node4&#45;&gt;Node6</title>
<g id="a_edge5_Node000004_Node000006"><a xlink:title=" ">
<path fill="none" stroke="#63b8ff" d="M65.24,-218.89C56.55,-220.43 48.14,-221.91 41.06,-223.16"/>
<polygon fill="#63b8ff" stroke="#63b8ff" points="65.59,-222.39 74.83,-217.2 64.38,-215.49 65.59,-222.39"/>
</a>
</g>
</g>
<!-- Node7 -->
<g id="Node000007" class="node">
<title>Node7</title>
<g id="a_Node000007"><a xlink:href="tests_8cpp.html#a6c463cf30fcc67ae6b2ff38e382cecd0" target="_top" xlink:title=" ">
<polygon fill="white" stroke="#666666" points="40.75,-199.25 0,-199.25 0,-180 40.75,-180 40.75,-199.25"/>
<text text-anchor="middle" x="20.38" y="-185.75" font-family="Helvetica,sans-Serif" font-size="10.00">TEST</text>
</a>
</g>
</g>
<!-- Node4&#45;&gt;Node7 -->
<g id="edge6_Node000004_Node000007" class="edge">
<title>Node4&#45;&gt;Node7</title>
<g id="a_edge6_Node000004_Node000007"><a xlink:title=" ">
<path fill="none" stroke="#63b8ff" d="M65.24,-197.79C56.55,-196.17 48.14,-194.61 41.06,-193.29"/>
<polygon fill="#63b8ff" stroke="#63b8ff" points="64.36,-201.18 74.84,-199.57 65.64,-194.3 64.36,-201.18"/>
</a>
</g>
</g>
<!-- Node8 -->
<g id="Node000008" class="node">
<title>Node8</title>
<g id="a_Node000008"><a xlink:href="tests_8cpp.html#a08dff1d6d2b732a0cd35660ad29e426e" target="_top" xlink:title=" ">
<polygon fill="white" stroke="#666666" points="40.75,-162.25 0,-162.25 0,-143 40.75,-143 40.75,-162.25"/>
<text text-anchor="middle" x="20.38" y="-148.75" font-family="Helvetica,sans-Serif" font-size="10.00">TEST</text>
</a>
</g>
</g>
<!-- Node4&#45;&gt;Node8 -->
<g id="edge7_Node000004_Node000008" class="edge">
<title>Node4&#45;&gt;Node8</title>
<g id="a_edge7_Node000004_Node000008"><a xlink:title=" ">
<path fill="none" stroke="#63b8ff" d="M84.02,-194.19C81.53,-193.05 79.09,-191.86 76.75,-190.62 61.27,-182.48 44.92,-170.83 34.03,-162.59"/>
<polygon fill="#63b8ff" stroke="#63b8ff" points="82.39,-197.3 92.96,-198.02 85.14,-190.87 82.39,-197.3"/>
</a>
</g>
</g>
<!-- Node10&#45;&gt;Node2 -->
<g id="edge10_Node000010_Node000002" class="edge">
<title>Node10&#45;&gt;Node2</title>
<g id="a_edge10_Node000010_Node000002"><a xlink:title=" ">
<path fill="none" stroke="#63b8ff" d="M525.91,-165.32C506.19,-169.96 484.17,-175.14 465.54,-179.53"/>
<polygon fill="#63b8ff" stroke="#63b8ff" points="526.5,-168.78 535.43,-163.08 524.9,-161.97 526.5,-168.78"/>
</a>
</g>
</g>
<!-- Node10&#45;&gt;Node11 -->
<g id="edge11_Node000010_Node000011" class="edge">
<title>Node10&#45;&gt;Node11</title>
<g id="a_edge11_Node000010_Node000011"><a xlink:title=" ">
<path fill="none" stroke="#63b8ff" d="M516.52,-142.15C501.91,-139.73 486.57,-137.2 472.63,-134.89"/>
<polygon fill="#63b8ff" stroke="#63b8ff" points="515.58,-145.54 526.02,-143.72 516.72,-138.64 515.58,-145.54"/>
</a>
</g>
</g>
<!-- Node13 -->
<g id="Node000013" class="node">
<title>Node13</title>
<g id="a_Node000013"><a xlink:href="tests_8cpp.html#aef57f8f537bed02c0940fcd1dde6144a" target="_top" xlink:title=" ">
<polygon fill="white" stroke="#666666" points="319.5,-74.25 208.25,-74.25 208.25,-55 319.5,-55 319.5,-74.25"/>
<text text-anchor="middle" x="263.88" y="-60.75" font-family="Helvetica,sans-Serif" font-size="10.00">processTriangulations</text>
</a>
</g>
</g>
<!-- Node12&#45;&gt;Node13 -->
<g id="edge14_Node000012_Node000013" class="edge">
<title>Node12&#45;&gt;Node13</title>
<g id="a_edge14_Node000012_Node000013"><a xlink:title=" ">
<path fill="none" stroke="#63b8ff" d="M343.6,-64.62C335.48,-64.62 327.36,-64.62 319.57,-64.62"/>
<polygon fill="#63b8ff" stroke="#63b8ff" points="343.51,-68.13 353.51,-64.63 343.51,-61.13 343.51,-68.13"/>
</a>
</g>
</g>
<!-- Node14 -->
<g id="Node000014" class="node">
<title>Node14</title>
<g id="a_Node000014"><a xlink:href="tests_8cpp.html#afdc65423b0a5a3ca636f3aacfb1dba56" target="_top" xlink:title=" ">
<polygon fill="white" stroke="#666666" points="144.88,-130.25 104.12,-130.25 104.12,-111 144.88,-111 144.88,-130.25"/>
<text text-anchor="middle" x="124.5" y="-116.75" font-family="Helvetica,sans-Serif" font-size="10.00">TEST</text>
</a>
</g>
</g>
<!-- Node13&#45;&gt;Node14 -->
<g id="edge15_Node000013_Node000014" class="edge">
<title>Node13&#45;&gt;Node14</title>
<g id="a_edge15_Node000013_Node000014"><a xlink:title=" ">
<path fill="none" stroke="#63b8ff" d="M228.95,-79.13C211.97,-86.32 191.08,-95.05 172.25,-102.62 163.37,-106.19 153.49,-110.02 145.11,-113.22"/>
<polygon fill="#63b8ff" stroke="#63b8ff" points="230.25,-82.38 238.09,-75.25 227.52,-75.94 230.25,-82.38"/>
</a>
</g>
</g>
<!-- Node15 -->
<g id="Node000015" class="node">
<title>Node15</title>
<g id="a_Node000015"><a xlink:href="tests_8cpp.html#aa4387a361b1943b82c6e9ef915917c12" target="_top" xlink:title=" ">
<polygon fill="white" stroke="#666666" points="144.88,-93.25 104.12,-93.25 104.12,-74 144.88,-74 144.88,-93.25"/>
<text text-anchor="middle" x="124.5" y="-79.75" font-family="Helvetica,sans-Serif" font-size="10.00">TEST</text>
</a>
</g>
</g>
<!-- Node13&#45;&gt;Node15 -->
<g id="edge16_Node000013_Node000015" class="edge">
<title>Node13&#45;&gt;Node15</title>
<g id="a_edge16_Node000013_Node000015"><a xlink:title=" ">
<path fill="none" stroke="#63b8ff" d="M196.54,-73.8C177.83,-76.39 158.9,-79.01 145.28,-80.89"/>
<polygon fill="#63b8ff" stroke="#63b8ff" points="196.87,-77.29 206.29,-72.45 195.91,-70.35 196.87,-77.29"/>
</a>
</g>
</g>
<!-- Node16 -->
<g id="Node000016" class="node">
<title>Node16</title>
<g id="a_Node000016"><a xlink:href="tests_8cpp.html#a978f4baa8d39fb740ed92fd44ba50933" target="_top" xlink:title=" ">
<polygon fill="white" stroke="#666666" points="144.88,-56.25 104.12,-56.25 104.12,-37 144.88,-37 144.88,-56.25"/>
<text text-anchor="middle" x="124.5" y="-42.75" font-family="Helvetica,sans-Serif" font-size="10.00">TEST</text>
</a>
</g>
</g>
<!-- Node13&#45;&gt;Node16 -->
<g id="edge17_Node000013_Node000016" class="edge">
<title>Node13&#45;&gt;Node16</title>
<g id="a_edge17_Node000013_Node000016"><a xlink:title=" ">
<path fill="none" stroke="#63b8ff" d="M196.54,-55.93C177.83,-53.48 158.9,-51 145.28,-49.22"/>
<polygon fill="#63b8ff" stroke="#63b8ff" points="195.92,-59.38 206.29,-57.21 196.83,-52.44 195.92,-59.38"/>
</a>
</g>
</g>
<!-- Node17 -->
<g id="Node000017" class="node">
<title>Node17</title>
<g id="a_Node000017"><a xlink:href="tests_8cpp.html#aaff9fd771beea10b1e522702042da27c" target="_top" xlink:title=" ">
<polygon fill="white" stroke="#666666" points="144.88,-19.25 104.12,-19.25 104.12,0 144.88,0 144.88,-19.25"/>
<text text-anchor="middle" x="124.5" y="-5.75" font-family="Helvetica,sans-Serif" font-size="10.00">TEST</text>
</a>
</g>
</g>
<!-- Node13&#45;&gt;Node17 -->
<g id="edge18_Node000013_Node000017" class="edge">
<title>Node13&#45;&gt;Node17</title>
<g id="a_edge18_Node000013_Node000017"><a xlink:title=" ">
<path fill="none" stroke="#63b8ff" d="M228.21,-50.28C211.36,-43.36 190.78,-34.97 172.25,-27.62 163.36,-24.1 153.47,-20.28 145.1,-17.07"/>
<polygon fill="#63b8ff" stroke="#63b8ff" points="226.72,-53.45 237.3,-54.02 229.38,-46.98 226.72,-53.45"/>
</a>
</g>
</g>
<!-- Node18&#45;&gt;Node12 -->
<g id="edge20_Node000018_Node000012" class="edge">
<title>Node18&#45;&gt;Node12</title>
<g id="a_edge20_Node000018_Node000012"><a xlink:title=" ">
<path fill="none" stroke="#63b8ff" d="M528.71,-47.08C515.72,-49.23 501.58,-51.57 487.99,-53.82"/>
<polygon fill="#63b8ff" stroke="#63b8ff" points="529,-50.58 538.29,-45.5 527.86,-43.68 529,-50.58"/>
</a>
</g>
</g>
<!-- Node19&#45;&gt;Node2 -->
<g id="edge22_Node000019_Node000002" class="edge">
<title>Node19&#45;&gt;Node2</title>
<g id="a_edge22_Node000019_Node000002"><a xlink:title=" ">
<path fill="none" stroke="#63b8ff" d="M512.15,-189.62C499.58,-189.62 486.64,-189.62 474.63,-189.62"/>
<polygon fill="#63b8ff" stroke="#63b8ff" points="512.03,-193.13 522.03,-189.63 512.03,-186.13 512.03,-193.13"/>
</a>
</g>
</g>
</g>
</svg>

<g id="navigator" transform="translate(0 0)" fill="#404254">
  <rect fill="#f2f5e9" fill-opacity="0.5" stroke="#606060" stroke-width=".5" x="0" y="0" width="60" height="60"/>
  <use id="zoomplus" xlink:href="#zoomPlus" x="17" y="9" onmousedown="handleZoom(evt,'in')"/>
  <use id="zoomminus" xlink:href="#zoomMin" x="42" y="9" onmousedown="handleZoom(evt,'out')"/>
  <use id="reset" xlink:href="#resetDef" x="30" y="36" onmousedown="handleReset()"/>
   <use id="arrowup" xlink:href="#arrowUp" x="0" y="0" onmousedown="handlePan(0,-1)"/>
  <use id="arrowright" xlink:href="#arrowRight" x="0" y="0" onmousedown="handlePan(1,0)"/>
  <use id="arrowdown" xlink:href="#arrowDown" x="0" y="0" onmousedown="handlePan(0,1)"/>
  <use id="arrowleft" xlink:href="#arrowLeft" x="0" y="0" onmousedown="handlePan(-1,0)"/>
</g>
<svg viewBox="0 0 15 15" width="100%" height="30px" preserveAspectRatio="xMaxYMin meet">
 <g id="arrow_out" transform="scale(0.3 0.3)">
  <a xlink:href="classCone_a51a49cc249e79d06f6a983250fe809b3_icgraph_org.svg" target="_base">
   <rect id="button" ry="5" rx="5" y="6" x="6" height="38" width="38"
        fill="#f2f5e9" fill-opacity="0.5" stroke="#606060" stroke-width="1.0"/>
   <path id="arrow"
     d="M 11.500037,31.436501 C 11.940474,20.09759 22.043105,11.32322 32.158766,21.979434 L 37.068811,17.246167 C 37.068811,17.246167 37.088388,32 37.088388,32 L 22.160133,31.978069 C 22.160133,31.978069 26.997745,27.140456 26.997745,27.140456 C 18.528582,18.264221 13.291696,25.230495 11.500037,31.436501 z"
     style="fill:#404040;"/>
  </a>
 </g>
</svg>

<style type='text/css'>
<![CDATA[
[data-mouse-over-selected='false'] { opacity: 0.7; }
[data-mouse-over-selected='true']  { opacity: 1.0; }
]]>
</style>
<script type="application/ecmascript"><![CDATA[
document.addEventListener('DOMContentLoaded', (event) => {
  highlightEdges();
  highlightAdjacentNodes();
});
]]></script>
</svg>
