<?xml version="1.0" encoding="UTF-8" standalone="no"?>
<!DOCTYPE svg PUBLIC "-//W3C//DTD SVG 1.1//EN"
 "http://www.w3.org/Graphics/SVG/1.1/DTD/svg11.dtd">
<!-- Generated by graphviz version 9.0.0 (20230911.1827)
 -->
<!-- Title: Cone::getId Pages: 1 -->
<!--zoomable 138 -->

<svg id="main" version="1.1" xmlns="http://www.w3.org/2000/svg" xmlns:xlink="http://www.w3.org/1999/xlink" xml:space="preserve" onload="init(evt)">
<style type="text/css"><![CDATA[
.node, .edge {opacity: 0.7;}
.node.selected, .edge.selected {opacity: 1;}
.edge:hover path { stroke: red; }
.edge:hover polygon { stroke: red; fill: red; }
]]></style>

<defs>
  <circle id="rim" cx="0" cy="0" r="7"/>
  <circle id="rim2" cx="0" cy="0" r="3.5"/>
  <g id="zoomPlus">
    <use xlink:href="#rim" fill="#404040"><set attributeName="fill" to="#808080" begin="zoomplus.mouseover" end="zoomplus.mouseout"/></use>
    <path d="M-4,0h8M0,-4v8" fill="none" stroke="white" stroke-width="1.5" pointer-events="none"/>
  </g>
  <g id="zoomMin">
    <use xlink:href="#rim" fill="#404040"><set attributeName="fill" to="#808080" begin="zoomminus.mouseover" end="zoomminus.mouseout"/></use>
    <path d="M-4,0h8" fill="none" stroke="white" stroke-width="1.5" pointer-events="none"/>
  </g>
  <g id="arrowUp" transform="translate(30 24)">
    <use xlink:href="#rim"/>
    <path pointer-events="none" fill="none" stroke="white" stroke-width="1.5" d="M0,-3.0v7 M-2.5,-0.5L0,-3.0L2.5,-0.5"/>
  </g>
  <g id="arrowRight" transform="rotate(90) translate(36 -43)">
    <use xlink:href="#rim"/>
    <path pointer-events="none" fill="none" stroke="white" stroke-width="1.5" d="M0,-3.0v7 M-2.5,-0.5L0,-3.0L2.5,-0.5"/>
  </g>
  <g id="arrowDown" transform="rotate(180) translate(-30 -48)">
    <use xlink:href="#rim"/>
    <path pointer-events="none" fill="none" stroke="white" stroke-width="1.5" d="M0,-3.0v7 M-2.5,-0.5L0,-3.0L2.5,-0.5"/>
  </g>
  <g id="arrowLeft" transform="rotate(270) translate(-36 17)">
    <use xlink:href="#rim"/>
    <path pointer-events="none" fill="none" stroke="white" stroke-width="1.5" d="M0,-3.0v7 M-2.5,-0.5L0,-3.0L2.5,-0.5"/>
  </g>
  <g id="resetDef">
    <use xlink:href="#rim2" fill="#404040"><set attributeName="fill" to="#808080" begin="reset.mouseover" end="reset.mouseout"/></use>
  </g>
</defs>
<script type="application/ecmascript">
var viewWidth = 582;
var viewHeight = 138;
var sectionId = 'dynsection-3';
</script>
<script type="application/ecmascript" xlink:href="svg.min.js"/>
<svg id="graph" class="graph">
<g id="viewport">
<title>Cone::getId</title>
<!-- Node1 -->
<g id="Node000001" class="node">
<title>Node1</title>
<g id="a_Node000001"><a xlink:title=" ">
<polygon fill="#999999" stroke="#666666" points="574.25,-74.25 509.5,-74.25 509.5,-55 574.25,-55 574.25,-74.25"/>
<text text-anchor="middle" x="541.88" y="-60.75" font-family="Helvetica,sans-Serif" font-size="10.00">Cone::getId</text>
</a>
</g>
</g>
<!-- Node2 -->
<g id="Node000002" class="node">
<title>Node2</title>
<g id="a_Node000002"><a xlink:href="classLocalPathPlanner.html#ae64befc2d63ed4eb841f7d94e464625b" target="_top" xlink:title="Process an array of cones to generate a local path.">
<polygon fill="white" stroke="#666666" points="356.25,-79.88 224,-79.88 224,-49.38 356.25,-49.38 356.25,-79.88"/>
<text text-anchor="start" x="232" y="-66.38" font-family="Helvetica,sans-Serif" font-size="10.00">LocalPathPlanner::process</text>
<text text-anchor="middle" x="290.12" y="-55.12" font-family="Helvetica,sans-Serif" font-size="10.00">NewArray</text>
</a>
</g>
</g>
<!-- Node1&#45;&gt;Node2 -->
<g id="edge1_Node000001_Node000002" class="edge">
<title>Node1&#45;&gt;Node2</title>
<g id="a_edge1_Node000001_Node000002"><a xlink:title=" ">
<path fill="none" stroke="#63b8ff" d="M497.82,-64.62C458.96,-64.62 401.2,-64.62 356.61,-64.62"/>
<polygon fill="#63b8ff" stroke="#63b8ff" points="497.73,-68.13 507.73,-64.63 497.73,-61.13 497.73,-68.13"/>
</a>
</g>
</g>
<!-- Node8 -->
<g id="Node000008" class="node">
<title>Node8</title>
<g id="a_Node000008"><a xlink:href="classTrack.html#a0da16ce65cc4d3f67a79073e0d632f6f" target="_top" xlink:title="Change the position of a cone based on the id of the parameter cone or creates a new cone in case the...">
<polygon fill="white" stroke="#666666" points="473.5,-55.25 392.25,-55.25 392.25,-36 473.5,-36 473.5,-55.25"/>
<text text-anchor="middle" x="432.88" y="-41.75" font-family="Helvetica,sans-Serif" font-size="10.00">Track::setCone</text>
</a>
</g>
</g>
<!-- Node1&#45;&gt;Node8 -->
<g id="edge7_Node000001_Node000008" class="edge">
<title>Node1&#45;&gt;Node8</title>
<g id="a_edge7_Node000001_Node000008"><a xlink:title=" ">
<path fill="none" stroke="#63b8ff" d="M497.75,-56.97C489.81,-55.56 481.56,-54.09 473.73,-52.7"/>
<polygon fill="#63b8ff" stroke="#63b8ff" points="497.11,-60.41 507.57,-58.71 498.34,-53.52 497.11,-60.41"/>
</a>
</g>
</g>
<!-- Node3 -->
<g id="Node000003" class="node">
<title>Node3</title>
<g id="a_Node000003"><a xlink:href="tests_8cpp.html#aef57f8f537bed02c0940fcd1dde6144a" target="_top" xlink:title=" ">
<polygon fill="white" stroke="#666666" points="188,-74.25 76.75,-74.25 76.75,-55 188,-55 188,-74.25"/>
<text text-anchor="middle" x="132.38" y="-60.75" font-family="Helvetica,sans-Serif" font-size="10.00">processTriangulations</text>
</a>
</g>
</g>
<!-- Node2&#45;&gt;Node3 -->
<g id="edge2_Node000002_Node000003" class="edge">
<title>Node2&#45;&gt;Node3</title>
<g id="a_edge2_Node000002_Node000003"><a xlink:title=" ">
<path fill="none" stroke="#63b8ff" d="M212.1,-64.62C203.98,-64.62 195.86,-64.62 188.07,-64.62"/>
<polygon fill="#63b8ff" stroke="#63b8ff" points="212.01,-68.13 222.01,-64.63 212.01,-61.13 212.01,-68.13"/>
</a>
</g>
</g>
<!-- Node4 -->
<g id="Node000004" class="node">
<title>Node4</title>
<g id="a_Node000004"><a xlink:href="tests_8cpp.html#afdc65423b0a5a3ca636f3aacfb1dba56" target="_top" xlink:title=" ">
<polygon fill="white" stroke="#666666" points="40.75,-130.25 0,-130.25 0,-111 40.75,-111 40.75,-130.25"/>
<text text-anchor="middle" x="20.38" y="-116.75" font-family="Helvetica,sans-Serif" font-size="10.00">TEST</text>
</a>
</g>
</g>
<!-- Node3&#45;&gt;Node4 -->
<g id="edge3_Node000003_Node000004" class="edge">
<title>Node3&#45;&gt;Node4</title>
<g id="a_edge3_Node000003_Node000004"><a xlink:title=" ">
<path fill="none" stroke="#63b8ff" d="M101.68,-79.74C82.51,-89.5 58.09,-101.93 41.24,-110.51"/>
<polygon fill="#63b8ff" stroke="#63b8ff" points="103.04,-82.98 110.36,-75.32 99.86,-76.74 103.04,-82.98"/>
</a>
</g>
</g>
<!-- Node5 -->
<g id="Node000005" class="node">
<title>Node5</title>
<g id="a_Node000005"><a xlink:href="tests_8cpp.html#aa4387a361b1943b82c6e9ef915917c12" target="_top" xlink:title=" ">
<polygon fill="white" stroke="#666666" points="40.75,-93.25 0,-93.25 0,-74 40.75,-74 40.75,-93.25"/>
<text text-anchor="middle" x="20.38" y="-79.75" font-family="Helvetica,sans-Serif" font-size="10.00">TEST</text>
</a>
</g>
</g>
<!-- Node3&#45;&gt;Node5 -->
<g id="edge4_Node000003_Node000005" class="edge">
<title>Node3&#45;&gt;Node5</title>
<g id="a_edge4_Node000003_Node000005"><a xlink:title=" ">
<path fill="none" stroke="#63b8ff" d="M65.16,-76.06C56.41,-77.57 48.06,-79.02 41.04,-80.23"/>
<polygon fill="#63b8ff" stroke="#63b8ff" points="65.63,-79.53 74.88,-74.38 64.43,-72.64 65.63,-79.53"/>
</a>
</g>
</g>
<!-- Node6 -->
<g id="Node000006" class="node">
<title>Node6</title>
<g id="a_Node000006"><a xlink:href="tests_8cpp.html#a978f4baa8d39fb740ed92fd44ba50933" target="_top" xlink:title=" ">
<polygon fill="white" stroke="#666666" points="40.75,-56.25 0,-56.25 0,-37 40.75,-37 40.75,-56.25"/>
<text text-anchor="middle" x="20.38" y="-42.75" font-family="Helvetica,sans-Serif" font-size="10.00">TEST</text>
</a>
</g>
</g>
<!-- Node3&#45;&gt;Node6 -->
<g id="edge5_Node000003_Node000006" class="edge">
<title>Node3&#45;&gt;Node6</title>
<g id="a_edge5_Node000003_Node000006"><a xlink:title=" ">
<path fill="none" stroke="#63b8ff" d="M65.16,-53.79C56.41,-52.36 48.06,-50.99 41.04,-49.84"/>
<polygon fill="#63b8ff" stroke="#63b8ff" points="64.45,-57.22 74.88,-55.38 65.58,-50.31 64.45,-57.22"/>
</a>
</g>
</g>
<!-- Node7 -->
<g id="Node000007" class="node">
<title>Node7</title>
<g id="a_Node000007"><a xlink:href="tests_8cpp.html#aaff9fd771beea10b1e522702042da27c" target="_top" xlink:title=" ">
<polygon fill="white" stroke="#666666" points="40.75,-19.25 0,-19.25 0,0 40.75,0 40.75,-19.25"/>
<text text-anchor="middle" x="20.38" y="-5.75" font-family="Helvetica,sans-Serif" font-size="10.00">TEST</text>
</a>
</g>
</g>
<!-- Node3&#45;&gt;Node7 -->
<g id="edge6_Node000003_Node000007" class="edge">
<title>Node3&#45;&gt;Node7</title>
<g id="a_edge6_Node000003_Node000007"><a xlink:title=" ">
<path fill="none" stroke="#63b8ff" d="M101.16,-49.52C81.99,-39.93 57.76,-27.82 41.05,-19.46"/>
<polygon fill="#63b8ff" stroke="#63b8ff" points="99.34,-52.52 109.85,-53.86 102.47,-46.26 99.34,-52.52"/>
</a>
</g>
</g>
<!-- Node8&#45;&gt;Node2 -->
<g id="edge8_Node000008_Node000002" class="edge">
<title>Node8&#45;&gt;Node2</title>
<g id="a_edge8_Node000008_Node000002"><a xlink:title=" ">
<path fill="none" stroke="#63b8ff" d="M380.77,-52.52C372.96,-53.58 364.81,-54.68 356.75,-55.77"/>
<polygon fill="#63b8ff" stroke="#63b8ff" points="380.98,-56.03 390.42,-51.22 380.04,-49.09 380.98,-56.03"/>
</a>
</g>
</g>
</g>
</svg>

<g id="navigator" transform="translate(0 0)" fill="#404254">
  <rect fill="#f2f5e9" fill-opacity="0.5" stroke="#606060" stroke-width=".5" x="0" y="0" width="60" height="60"/>
  <use id="zoomplus" xlink:href="#zoomPlus" x="17" y="9" onmousedown="handleZoom(evt,'in')"/>
  <use id="zoomminus" xlink:href="#zoomMin" x="42" y="9" onmousedown="handleZoom(evt,'out')"/>
  <use id="reset" xlink:href="#resetDef" x="30" y="36" onmousedown="handleReset()"/>
   <use id="arrowup" xlink:href="#arrowUp" x="0" y="0" onmousedown="handlePan(0,-1)"/>
  <use id="arrowright" xlink:href="#arrowRight" x="0" y="0" onmousedown="handlePan(1,0)"/>
  <use id="arrowdown" xlink:href="#arrowDown" x="0" y="0" onmousedown="handlePan(0,1)"/>
  <use id="arrowleft" xlink:href="#arrowLeft" x="0" y="0" onmousedown="handlePan(-1,0)"/>
</g>
<svg viewBox="0 0 15 15" width="100%" height="30px" preserveAspectRatio="xMaxYMin meet">
 <g id="arrow_out" transform="scale(0.3 0.3)">
  <a xlink:href="classCone_ad6448719967d79b51a6e9586d28897d8_icgraph_org.svg" target="_base">
   <rect id="button" ry="5" rx="5" y="6" x="6" height="38" width="38"
        fill="#f2f5e9" fill-opacity="0.5" stroke="#606060" stroke-width="1.0"/>
   <path id="arrow"
     d="M 11.500037,31.436501 C 11.940474,20.09759 22.043105,11.32322 32.158766,21.979434 L 37.068811,17.246167 C 37.068811,17.246167 37.088388,32 37.088388,32 L 22.160133,31.978069 C 22.160133,31.978069 26.997745,27.140456 26.997745,27.140456 C 18.528582,18.264221 13.291696,25.230495 11.500037,31.436501 z"
     style="fill:#404040;"/>
  </a>
 </g>
</svg>

<style type='text/css'>
<![CDATA[
[data-mouse-over-selected='false'] { opacity: 0.7; }
[data-mouse-over-selected='true']  { opacity: 1.0; }
]]>
</style>
<script type="application/ecmascript"><![CDATA[
document.addEventListener('DOMContentLoaded', (event) => {
  highlightEdges();
  highlightAdjacentNodes();
});
]]></script>
</svg>
