<?xml version="1.0" encoding="UTF-8" standalone="no"?>
<!DOCTYPE svg PUBLIC "-//W3C//DTD SVG 1.1//EN"
 "http://www.w3.org/Graphics/SVG/1.1/DTD/svg11.dtd">
<!-- Generated by graphviz version 9.0.0 (20230911.1827)
 -->
<!-- Title: plots.plots.Pose Pages: 1 -->
<svg width="99pt" height="262pt"
 viewBox="0.00 0.00 99.00 262.00" xmlns="http://www.w3.org/2000/svg" xmlns:xlink="http://www.w3.org/1999/xlink">

<svg id="main" version="1.1" xmlns="http://www.w3.org/2000/svg" xmlns:xlink="http://www.w3.org/1999/xlink" xml:space="preserve" onload="init(evt)">
<style type="text/css"><![CDATA[
.node, .edge {opacity: 0.7;}
.node.selected, .edge.selected {opacity: 1;}
.edge:hover path { stroke: red; }
.edge:hover polygon { stroke: red; fill: red; }
]]></style>
<script type="application/ecmascript" xlink:href="svg.min.js"/>
<svg id="graph" class="graph">
<g id="graph0" class="graph" transform="scale(1 1) rotate(0) translate(4 258)">
<title>plots.plots.Pose</title>
<!-- Node1 -->
<g id="Node000001" class="node">
<title>Node1</title>
<g id="a_Node000001"><a xlink:title=" ">
<polygon fill="#999999" stroke="none" points="85,-79 6,-79 6,0 85,0 85,-79"/>
<text text-anchor="start" x="11" y="-65.5" font-family="Helvetica,sans-Serif" font-size="10.00">plots.plots.Pose</text>
<text text-anchor="start" x="12.88" y="-50.5" font-family="Helvetica,sans-Serif" font-size="10.00">#</text>
<text text-anchor="start" x="25" y="-50.5" font-family="Helvetica,sans-Serif" font-size="10.00">_orientation</text>
<text text-anchor="start" x="12.5" y="-35.5" font-family="Helvetica,sans-Serif" font-size="10.00">+</text>
<text text-anchor="start" x="25" y="-35.5" font-family="Helvetica,sans-Serif" font-size="10.00">__init__()</text>
<text text-anchor="start" x="12.5" y="-20.5" font-family="Helvetica,sans-Serif" font-size="10.00">+</text>
<text text-anchor="start" x="25" y="-20.5" font-family="Helvetica,sans-Serif" font-size="10.00">orientation()</text>
<text text-anchor="start" x="12.5" y="-5.5" font-family="Helvetica,sans-Serif" font-size="10.00">+</text>
<text text-anchor="start" x="25" y="-5.5" font-family="Helvetica,sans-Serif" font-size="10.00">orientation()</text>
<polygon fill="#666666" stroke="#666666" points="6,-62 6,-62 85,-62 85,-62 6,-62"/>
<polygon fill="#666666" stroke="#666666" points="6,-47 6,-47 23,-47 23,-47 6,-47"/>
<polygon fill="#666666" stroke="#666666" points="23,-47 23,-47 85,-47 85,-47 23,-47"/>
<polygon fill="none" stroke="#666666" points="6,0 6,-79 85,-79 85,0 6,0"/>
</a>
</g>
</g>
<!-- Node2 -->
<g id="Node000002" class="node">
<title>Node2</title>
<g id="a_Node000002"><a xlink:href="classplots_1_1plots_1_1Position.html" target="_top" xlink:title=" ">
<polygon fill="white" stroke="none" points="91,-254 0,-254 0,-115 91,-115 91,-254"/>
<text text-anchor="start" x="4.62" y="-240.5" font-family="Helvetica,sans-Serif" font-size="10.00">plots.plots.Position</text>
<text text-anchor="start" x="11.88" y="-225.5" font-family="Helvetica,sans-Serif" font-size="10.00">#</text>
<text text-anchor="start" x="29" y="-225.5" font-family="Helvetica,sans-Serif" font-size="10.00">_x</text>
<text text-anchor="start" x="11.88" y="-210.5" font-family="Helvetica,sans-Serif" font-size="10.00">#</text>
<text text-anchor="start" x="29" y="-210.5" font-family="Helvetica,sans-Serif" font-size="10.00">_y</text>
<text text-anchor="start" x="11.5" y="-195.5" font-family="Helvetica,sans-Serif" font-size="10.00">+</text>
<text text-anchor="start" x="29" y="-195.5" font-family="Helvetica,sans-Serif" font-size="10.00">__init__()</text>
<text text-anchor="start" x="11.5" y="-180.5" font-family="Helvetica,sans-Serif" font-size="10.00">+</text>
<text text-anchor="start" x="29" y="-180.5" font-family="Helvetica,sans-Serif" font-size="10.00">x()</text>
<text text-anchor="start" x="11.5" y="-165.5" font-family="Helvetica,sans-Serif" font-size="10.00">+</text>
<text text-anchor="start" x="29" y="-165.5" font-family="Helvetica,sans-Serif" font-size="10.00">x()</text>
<text text-anchor="start" x="11.5" y="-150.5" font-family="Helvetica,sans-Serif" font-size="10.00">+</text>
<text text-anchor="start" x="29" y="-150.5" font-family="Helvetica,sans-Serif" font-size="10.00">y()</text>
<text text-anchor="start" x="11.5" y="-135.5" font-family="Helvetica,sans-Serif" font-size="10.00">+</text>
<text text-anchor="start" x="29" y="-135.5" font-family="Helvetica,sans-Serif" font-size="10.00">y()</text>
<text text-anchor="start" x="11.5" y="-120.5" font-family="Helvetica,sans-Serif" font-size="10.00">+</text>
<text text-anchor="start" x="29" y="-120.5" font-family="Helvetica,sans-Serif" font-size="10.00">distance()</text>
<polygon fill="#666666" stroke="#666666" points="0,-237 0,-237 91,-237 91,-237 0,-237"/>
<polygon fill="#666666" stroke="#666666" points="0,-207 0,-207 27,-207 27,-207 0,-207"/>
<polygon fill="#666666" stroke="#666666" points="27,-207 27,-207 91,-207 91,-207 27,-207"/>
<polygon fill="none" stroke="#666666" points="0,-115 0,-254 91,-254 91,-115 0,-115"/>
</a>
</g>
</g>
<!-- Node2&#45;&gt;Node1 -->
<g id="edge1_Node000001_Node000002" class="edge">
<title>Node2&#45;&gt;Node1</title>
<g id="a_edge1_Node000001_Node000002"><a xlink:title=" ">
<path fill="none" stroke="#63b8ff" d="M45.5,-103.91C45.5,-95.25 45.5,-86.75 45.5,-78.93"/>
<polygon fill="none" stroke="#63b8ff" points="42,-103.84 45.5,-113.84 49,-103.84 42,-103.84"/>
</a>
</g>
</g>
</g>
</svg>
</svg>

<style type='text/css'>
<![CDATA[
[data-mouse-over-selected='false'] { opacity: 0.7; }
[data-mouse-over-selected='true']  { opacity: 1.0; }
]]>
</style>
<script type="application/ecmascript"><![CDATA[
document.addEventListener('DOMContentLoaded', (event) => {
  highlightEdges();
  highlightAdjacentNodes();
});
]]></script>
</svg>
