<?xml version="1.0" encoding="UTF-8" standalone="no"?>
<!DOCTYPE svg PUBLIC "-//W3C//DTD SVG 1.1//EN"
 "http://www.w3.org/Graphics/SVG/1.1/DTD/svg11.dtd">
<!-- Generated by graphviz version 9.0.0 (20230911.1827)
 -->
<!-- Title: ExecTimeTest Pages: 1 -->
<svg width="1004pt" height="867pt"
 viewBox="0.00 0.00 1003.75 867.00" xmlns="http://www.w3.org/2000/svg" xmlns:xlink="http://www.w3.org/1999/xlink">
<g id="graph0" class="graph" transform="scale(1 1) rotate(0) translate(4 863)">
<title>ExecTimeTest</title>
<!-- Node1 -->
<g id="Node000001" class="node">
<title>Node1</title>
<g id="a_Node000001"><a xlink:title=" ">
<polygon fill="#999999" stroke="none" points="528,-259 403,-259 403,0 528,0 528,-259"/>
<text text-anchor="start" x="434.38" y="-245.5" font-family="Helvetica,sans-Serif" font-size="10.00">ExecTimeTest</text>
<text text-anchor="start" x="406.88" y="-230.5" font-family="Helvetica,sans-Serif" font-size="10.00">#</text>
<text text-anchor="start" x="416" y="-230.5" font-family="Helvetica,sans-Serif" font-size="10.00">Q_test</text>
<text text-anchor="start" x="406.88" y="-215.5" font-family="Helvetica,sans-Serif" font-size="10.00">#</text>
<text text-anchor="start" x="416" y="-215.5" font-family="Helvetica,sans-Serif" font-size="10.00">R_test</text>
<text text-anchor="start" x="406.88" y="-200.5" font-family="Helvetica,sans-Serif" font-size="10.00">#</text>
<text text-anchor="start" x="416" y="-200.5" font-family="Helvetica,sans-Serif" font-size="10.00">use_odometry_test</text>
<text text-anchor="start" x="406.88" y="-185.5" font-family="Helvetica,sans-Serif" font-size="10.00">#</text>
<text text-anchor="start" x="416" y="-185.5" font-family="Helvetica,sans-Serif" font-size="10.00">helper</text>
<text text-anchor="start" x="406.88" y="-170.5" font-family="Helvetica,sans-Serif" font-size="10.00">#</text>
<text text-anchor="start" x="416" y="-170.5" font-family="Helvetica,sans-Serif" font-size="10.00">receiver_publisher_mock</text>
<text text-anchor="start" x="406.88" y="-155.5" font-family="Helvetica,sans-Serif" font-size="10.00">#</text>
<text text-anchor="start" x="416" y="-155.5" font-family="Helvetica,sans-Serif" font-size="10.00">lm_node_test</text>
<text text-anchor="start" x="406.88" y="-140.5" font-family="Helvetica,sans-Serif" font-size="10.00">#</text>
<text text-anchor="start" x="416" y="-140.5" font-family="Helvetica,sans-Serif" font-size="10.00">cone_array_msg</text>
<text text-anchor="start" x="406.88" y="-125.5" font-family="Helvetica,sans-Serif" font-size="10.00">#</text>
<text text-anchor="start" x="416" y="-125.5" font-family="Helvetica,sans-Serif" font-size="10.00">cones_publisher</text>
<text text-anchor="start" x="406.88" y="-110.5" font-family="Helvetica,sans-Serif" font-size="10.00">#</text>
<text text-anchor="start" x="416" y="-110.5" font-family="Helvetica,sans-Serif" font-size="10.00">map_sub</text>
<text text-anchor="start" x="406.88" y="-95.5" font-family="Helvetica,sans-Serif" font-size="10.00">#</text>
<text text-anchor="start" x="416" y="-95.5" font-family="Helvetica,sans-Serif" font-size="10.00">localization_sub</text>
<text text-anchor="start" x="416" y="-80.5" font-family="Helvetica,sans-Serif" font-size="10.00">and 6 more...</text>
<text text-anchor="start" x="406.88" y="-65.5" font-family="Helvetica,sans-Serif" font-size="10.00">#</text>
<text text-anchor="start" x="416" y="-65.5" font-family="Helvetica,sans-Serif" font-size="10.00">print_to_file()</text>
<text text-anchor="start" x="406.88" y="-50.5" font-family="Helvetica,sans-Serif" font-size="10.00">#</text>
<text text-anchor="start" x="416" y="-50.5" font-family="Helvetica,sans-Serif" font-size="10.00">fill_X()</text>
<text text-anchor="start" x="406.88" y="-35.5" font-family="Helvetica,sans-Serif" font-size="10.00">#</text>
<text text-anchor="start" x="416" y="-35.5" font-family="Helvetica,sans-Serif" font-size="10.00">fill_cone_array()</text>
<text text-anchor="start" x="406.88" y="-20.5" font-family="Helvetica,sans-Serif" font-size="10.00">#</text>
<text text-anchor="start" x="416" y="-20.5" font-family="Helvetica,sans-Serif" font-size="10.00">SetUp()</text>
<text text-anchor="start" x="406.88" y="-5.5" font-family="Helvetica,sans-Serif" font-size="10.00">#</text>
<text text-anchor="start" x="416" y="-5.5" font-family="Helvetica,sans-Serif" font-size="10.00">TearDown()</text>
<polygon fill="#666666" stroke="#666666" points="403,-242 403,-242 528,-242 528,-242 403,-242"/>
<polygon fill="#666666" stroke="#666666" points="403,-77 403,-77 414,-77 414,-77 403,-77"/>
<polygon fill="#666666" stroke="#666666" points="414,-77 414,-77 528,-77 528,-77 414,-77"/>
<polygon fill="none" stroke="#666666" points="403,0 403,-259 528,-259 528,0 403,0"/>
</a>
</g>
</g>
<!-- Node2 -->
<g id="Node000002" class="node">
<title>Node2</title>
<g id="a_Node000002"><a xlink:title=" ">
<polygon fill="white" stroke="none" points="63,-449 0,-449 0,-400 63,-400 63,-449"/>
<text text-anchor="start" x="4.88" y="-435.5" font-family="Helvetica,sans-Serif" font-size="10.00">testing::Test</text>
<text text-anchor="start" x="30" y="-420.5" font-family="Helvetica,sans-Serif" font-size="10.00"> </text>
<text text-anchor="start" x="30" y="-405.5" font-family="Helvetica,sans-Serif" font-size="10.00"> </text>
<polygon fill="#666666" stroke="#666666" points="0,-432 0,-432 63,-432 63,-432 0,-432"/>
<polygon fill="#666666" stroke="#666666" points="0,-417 0,-417 63,-417 63,-417 0,-417"/>
<polygon fill="none" stroke="#666666" points="0,-400 0,-449 63,-449 63,-400 0,-400"/>
</a>
</g>
</g>
<!-- Node2&#45;&gt;Node1 -->
<g id="edge1_Node000001_Node000002" class="edge">
<title>Node2&#45;&gt;Node1</title>
<g id="a_edge1_Node000001_Node000002"><a xlink:title=" ">
<path fill="none" stroke="#63b8ff" d="M38.72,-389.17C44.78,-366.85 55.29,-338.15 72.5,-317.5 158.96,-213.74 316.29,-163.71 403.36,-142.96"/>
<polygon fill="none" stroke="#63b8ff" points="35.37,-388.17 36.32,-398.72 42.15,-389.88 35.37,-388.17"/>
</a>
</g>
</g>
<!-- Node3 -->
<g id="Node000003" class="node">
<title>Node3</title>
<g id="a_Node000003"><a xlink:href="structVehicleState.html" target="_top" xlink:title="Struct for state of the vehicle.">
<polygon fill="white" stroke="none" points="149.5,-449 81.5,-449 81.5,-400 149.5,-400 149.5,-449"/>
<text text-anchor="start" x="87.75" y="-435.5" font-family="Helvetica,sans-Serif" font-size="10.00">VehicleState</text>
<text text-anchor="start" x="85.5" y="-420.5" font-family="Helvetica,sans-Serif" font-size="10.00">+</text>
<text text-anchor="start" x="95.5" y="-420.5" font-family="Helvetica,sans-Serif" font-size="10.00">last_update</text>
<text text-anchor="start" x="114" y="-405.5" font-family="Helvetica,sans-Serif" font-size="10.00"> </text>
<polygon fill="#666666" stroke="#666666" points="81.5,-432 81.5,-432 149.5,-432 149.5,-432 81.5,-432"/>
<polygon fill="#666666" stroke="#666666" points="81.5,-417 81.5,-417 93.5,-417 93.5,-417 81.5,-417"/>
<polygon fill="#666666" stroke="#666666" points="93.5,-417 93.5,-417 149.5,-417 149.5,-417 93.5,-417"/>
<polygon fill="none" stroke="#666666" points="81.5,-400 81.5,-449 149.5,-449 149.5,-400 81.5,-400"/>
</a>
</g>
</g>
<!-- Node3&#45;&gt;Node1 -->
<g id="edge2_Node000001_Node000003" class="edge">
<title>Node3&#45;&gt;Node1</title>
<g id="a_edge2_Node000001_Node000003"><a xlink:title=" ">
<path fill="none" stroke="#63b8ff" d="M116.02,-400.21C117.91,-368.78 125.6,-312.65 155.5,-277 216.04,-204.83 320.19,-165.9 390.9,-146.7"/>
<polygon fill="none" stroke="#63b8ff" points="390.78,-146.73 395.57,-141.34 402.39,-143.68 397.6,-149.07 390.78,-146.73"/>
</a>
</g>
<text text-anchor="middle" x="199" y="-284.38" font-family="Helvetica,sans-Serif" font-size="10.00" fill="grey"> #vehicle_state_test</text>
</g>
<!-- Node4 -->
<g id="Node000004" class="node">
<title>Node4</title>
<g id="a_Node000004"><a xlink:href="structPose.html" target="_top" xlink:title="Struct for pose representation.">
<polygon fill="white" stroke="none" points="147,-657.75 84,-657.75 84,-578.75 147,-578.75 147,-657.75"/>
<text text-anchor="start" x="104.25" y="-644.25" font-family="Helvetica,sans-Serif" font-size="10.00">Pose</text>
<text text-anchor="start" x="88" y="-629.25" font-family="Helvetica,sans-Serif" font-size="10.00">+</text>
<text text-anchor="start" x="98" y="-629.25" font-family="Helvetica,sans-Serif" font-size="10.00">orientation</text>
<text text-anchor="start" x="88" y="-614.25" font-family="Helvetica,sans-Serif" font-size="10.00">+</text>
<text text-anchor="start" x="98" y="-614.25" font-family="Helvetica,sans-Serif" font-size="10.00">Pose()</text>
<text text-anchor="start" x="88" y="-599.25" font-family="Helvetica,sans-Serif" font-size="10.00">+</text>
<text text-anchor="start" x="98" y="-599.25" font-family="Helvetica,sans-Serif" font-size="10.00">Pose()</text>
<text text-anchor="start" x="88" y="-584.25" font-family="Helvetica,sans-Serif" font-size="10.00">+</text>
<text text-anchor="start" x="98" y="-584.25" font-family="Helvetica,sans-Serif" font-size="10.00">Pose()</text>
<polygon fill="#666666" stroke="#666666" points="84,-640.75 84,-640.75 147,-640.75 147,-640.75 84,-640.75"/>
<polygon fill="#666666" stroke="#666666" points="84,-625.75 84,-625.75 96,-625.75 96,-625.75 84,-625.75"/>
<polygon fill="#666666" stroke="#666666" points="96,-625.75 96,-625.75 147,-625.75 147,-625.75 96,-625.75"/>
<polygon fill="none" stroke="#666666" points="84,-578.75 84,-657.75 147,-657.75 147,-578.75 84,-578.75"/>
</a>
</g>
</g>
<!-- Node4&#45;&gt;Node3 -->
<g id="edge3_Node000003_Node000004" class="edge">
<title>Node4&#45;&gt;Node3</title>
<g id="a_edge3_Node000003_Node000004"><a xlink:title=" ">
<path fill="none" stroke="#63b8ff" d="M115.5,-578.91C115.5,-544.81 115.5,-495.3 115.5,-461.82"/>
<polygon fill="none" stroke="#63b8ff" points="115.5,-461.88 111.5,-455.88 115.5,-449.88 119.5,-455.88 115.5,-461.88"/>
</a>
</g>
<text text-anchor="middle" x="130.12" y="-551.25" font-family="Helvetica,sans-Serif" font-size="10.00" fill="grey"> +pose</text>
</g>
<!-- Node5 -->
<g id="Node000005" class="node">
<title>Node5</title>
<g id="a_Node000005"><a xlink:href="structPosition.html" target="_top" xlink:title="Struct for position.">
<polygon fill="white" stroke="none" points="159,-859 72,-859 72,-705 159,-705 159,-859"/>
<text text-anchor="start" x="97.88" y="-845.5" font-family="Helvetica,sans-Serif" font-size="10.00">Position</text>
<text text-anchor="start" x="76" y="-830.5" font-family="Helvetica,sans-Serif" font-size="10.00">+</text>
<text text-anchor="start" x="86" y="-830.5" font-family="Helvetica,sans-Serif" font-size="10.00">x</text>
<text text-anchor="start" x="76" y="-815.5" font-family="Helvetica,sans-Serif" font-size="10.00">+</text>
<text text-anchor="start" x="86" y="-815.5" font-family="Helvetica,sans-Serif" font-size="10.00">y</text>
<text text-anchor="start" x="76" y="-800.5" font-family="Helvetica,sans-Serif" font-size="10.00">+</text>
<text text-anchor="start" x="86" y="-800.5" font-family="Helvetica,sans-Serif" font-size="10.00">Position()</text>
<text text-anchor="start" x="76" y="-785.5" font-family="Helvetica,sans-Serif" font-size="10.00">+</text>
<text text-anchor="start" x="86" y="-785.5" font-family="Helvetica,sans-Serif" font-size="10.00">Position()</text>
<text text-anchor="start" x="76" y="-770.5" font-family="Helvetica,sans-Serif" font-size="10.00">+</text>
<text text-anchor="start" x="86" y="-770.5" font-family="Helvetica,sans-Serif" font-size="10.00">Position()</text>
<text text-anchor="start" x="76" y="-755.5" font-family="Helvetica,sans-Serif" font-size="10.00">+</text>
<text text-anchor="start" x="86" y="-755.5" font-family="Helvetica,sans-Serif" font-size="10.00">getX()</text>
<text text-anchor="start" x="76" y="-740.5" font-family="Helvetica,sans-Serif" font-size="10.00">+</text>
<text text-anchor="start" x="86" y="-740.5" font-family="Helvetica,sans-Serif" font-size="10.00">getY()</text>
<text text-anchor="start" x="76" y="-725.5" font-family="Helvetica,sans-Serif" font-size="10.00">+</text>
<text text-anchor="start" x="86" y="-725.5" font-family="Helvetica,sans-Serif" font-size="10.00">getDistanceTo()</text>
<text text-anchor="start" x="76" y="-710.5" font-family="Helvetica,sans-Serif" font-size="10.00">+</text>
<text text-anchor="start" x="86" y="-710.5" font-family="Helvetica,sans-Serif" font-size="10.00">operator==()</text>
<polygon fill="#666666" stroke="#666666" points="72,-842 72,-842 159,-842 159,-842 72,-842"/>
<polygon fill="#666666" stroke="#666666" points="72,-812 72,-812 84,-812 84,-812 72,-812"/>
<polygon fill="#666666" stroke="#666666" points="84,-812 84,-812 159,-812 159,-812 84,-812"/>
<polygon fill="none" stroke="#666666" points="72,-705 72,-859 159,-859 159,-705 72,-705"/>
</a>
</g>
</g>
<!-- Node5&#45;&gt;Node4 -->
<g id="edge4_Node000004_Node000005" class="edge">
<title>Node5&#45;&gt;Node4</title>
<g id="a_edge4_Node000004_Node000005"><a xlink:title=" ">
<path fill="none" stroke="#63b8ff" d="M115.5,-705.33C115.5,-693.53 115.5,-681.57 115.5,-670.48"/>
<polygon fill="none" stroke="#63b8ff" points="115.5,-670.34 111.5,-664.34 115.5,-658.34 119.5,-664.34 115.5,-670.34"/>
</a>
</g>
<text text-anchor="middle" x="136.5" y="-677.5" font-family="Helvetica,sans-Serif" font-size="10.00" fill="grey"> +position</text>
</g>
<!-- Node6 -->
<g id="Node000006" class="node">
<title>Node6</title>
<g id="a_Node000006"><a xlink:href="structMotionUpdate.html" target="_top" xlink:title="Struct for data retrieved by the IMU.">
<polygon fill="white" stroke="none" points="285.5,-486.5 167.5,-486.5 167.5,-362.5 285.5,-362.5 285.5,-486.5"/>
<text text-anchor="start" x="196.12" y="-473" font-family="Helvetica,sans-Serif" font-size="10.00">MotionUpdate</text>
<text text-anchor="start" x="171.5" y="-458" font-family="Helvetica,sans-Serif" font-size="10.00">+</text>
<text text-anchor="start" x="181.5" y="-458" font-family="Helvetica,sans-Serif" font-size="10.00">translational_velocity</text>
<text text-anchor="start" x="171.5" y="-443" font-family="Helvetica,sans-Serif" font-size="10.00">+</text>
<text text-anchor="start" x="181.5" y="-443" font-family="Helvetica,sans-Serif" font-size="10.00">translational_velocity_x</text>
<text text-anchor="start" x="171.5" y="-428" font-family="Helvetica,sans-Serif" font-size="10.00">+</text>
<text text-anchor="start" x="181.5" y="-428" font-family="Helvetica,sans-Serif" font-size="10.00">translational_velocity_y</text>
<text text-anchor="start" x="171.5" y="-413" font-family="Helvetica,sans-Serif" font-size="10.00">+</text>
<text text-anchor="start" x="181.5" y="-413" font-family="Helvetica,sans-Serif" font-size="10.00">rotational_velocity</text>
<text text-anchor="start" x="171.5" y="-398" font-family="Helvetica,sans-Serif" font-size="10.00">+</text>
<text text-anchor="start" x="181.5" y="-398" font-family="Helvetica,sans-Serif" font-size="10.00">steering_angle</text>
<text text-anchor="start" x="171.5" y="-383" font-family="Helvetica,sans-Serif" font-size="10.00">+</text>
<text text-anchor="start" x="181.5" y="-383" font-family="Helvetica,sans-Serif" font-size="10.00">last_update</text>
<text text-anchor="start" x="225" y="-368" font-family="Helvetica,sans-Serif" font-size="10.00"> </text>
<polygon fill="#666666" stroke="#666666" points="167.5,-469.5 167.5,-469.5 285.5,-469.5 285.5,-469.5 167.5,-469.5"/>
<polygon fill="#666666" stroke="#666666" points="167.5,-379.5 167.5,-379.5 179.5,-379.5 179.5,-379.5 167.5,-379.5"/>
<polygon fill="#666666" stroke="#666666" points="179.5,-379.5 179.5,-379.5 285.5,-379.5 285.5,-379.5 179.5,-379.5"/>
<polygon fill="none" stroke="#666666" points="167.5,-362.5 167.5,-486.5 285.5,-486.5 285.5,-362.5 167.5,-362.5"/>
</a>
</g>
</g>
<!-- Node6&#45;&gt;Node1 -->
<g id="edge5_Node000001_Node000006" class="edge">
<title>Node6&#45;&gt;Node1</title>
<g id="a_edge5_Node000001_Node000006"><a xlink:title=" ">
<path fill="none" stroke="#63b8ff" d="M229.78,-362.57C233.69,-334.62 241.82,-302.18 258.5,-277 291.22,-227.6 346.75,-189.64 392.07,-164.76"/>
<polygon fill="none" stroke="#63b8ff" points="391.98,-164.81 395.38,-158.45 402.55,-159.14 399.15,-165.5 391.98,-164.81"/>
</a>
</g>
<text text-anchor="middle" x="305" y="-284.38" font-family="Helvetica,sans-Serif" font-size="10.00" fill="grey"> #motion_update_test</text>
</g>
<!-- Node7 -->
<g id="Node000007" class="node">
<title>Node7</title>
<g id="a_Node000007"><a xlink:href="structConeMap.html" target="_top" xlink:title="Struct for cone map.">
<polygon fill="white" stroke="none" points="371.5,-456.5 303.5,-456.5 303.5,-392.5 371.5,-392.5 371.5,-456.5"/>
<text text-anchor="start" x="316.88" y="-443" font-family="Helvetica,sans-Serif" font-size="10.00">ConeMap</text>
<text text-anchor="start" x="307.5" y="-428" font-family="Helvetica,sans-Serif" font-size="10.00">+</text>
<text text-anchor="start" x="317.5" y="-428" font-family="Helvetica,sans-Serif" font-size="10.00">map</text>
<text text-anchor="start" x="307.5" y="-413" font-family="Helvetica,sans-Serif" font-size="10.00">+</text>
<text text-anchor="start" x="317.5" y="-413" font-family="Helvetica,sans-Serif" font-size="10.00">last_update</text>
<text text-anchor="start" x="336" y="-398" font-family="Helvetica,sans-Serif" font-size="10.00"> </text>
<polygon fill="#666666" stroke="#666666" points="303.5,-439.5 303.5,-439.5 371.5,-439.5 371.5,-439.5 303.5,-439.5"/>
<polygon fill="#666666" stroke="#666666" points="303.5,-409.5 303.5,-409.5 315.5,-409.5 315.5,-409.5 303.5,-409.5"/>
<polygon fill="#666666" stroke="#666666" points="315.5,-409.5 315.5,-409.5 371.5,-409.5 371.5,-409.5 315.5,-409.5"/>
<polygon fill="none" stroke="#666666" points="303.5,-392.5 303.5,-456.5 371.5,-456.5 371.5,-392.5 303.5,-392.5"/>
</a>
</g>
</g>
<!-- Node7&#45;&gt;Node1 -->
<g id="edge6_Node000001_Node000007" class="edge">
<title>Node7&#45;&gt;Node1</title>
<g id="a_edge6_Node000001_Node000007"><a xlink:title=" ">
<path fill="none" stroke="#63b8ff" d="M339.04,-392.69C341.44,-362.27 347.58,-314.95 363.25,-277 371.7,-256.54 383.39,-236.09 395.86,-217.25"/>
<polygon fill="none" stroke="#63b8ff" points="395.8,-217.33 395.87,-210.12 402.55,-207.4 402.48,-214.61 395.8,-217.33"/>
</a>
</g>
<text text-anchor="middle" x="411.62" y="-290" font-family="Helvetica,sans-Serif" font-size="10.00" fill="grey"> #perception_map_test</text>
<text text-anchor="middle" x="411.62" y="-278.75" font-family="Helvetica,sans-Serif" font-size="10.00" fill="grey">#track_map_test</text>
</g>
<!-- Node8 -->
<g id="Node000008" class="node">
<title>Node8</title>
<g id="a_Node000008"><a xlink:href="classMotionModel.html" target="_top" xlink:title="Abstract Moiton Model class designed to be implemented by the different motion models.">
<polygon fill="white" stroke="none" points="541.5,-482.5 389.5,-482.5 389.5,-366.5 541.5,-366.5 541.5,-482.5"/>
<text text-anchor="start" x="437.75" y="-469" font-family="Helvetica,sans-Serif" font-size="10.00">MotionModel</text>
<text text-anchor="start" x="464" y="-454" font-family="Helvetica,sans-Serif" font-size="10.00"> </text>
<text text-anchor="start" x="393.5" y="-439" font-family="Helvetica,sans-Serif" font-size="10.00">+</text>
<text text-anchor="start" x="403.5" y="-439" font-family="Helvetica,sans-Serif" font-size="10.00">MotionModel()</text>
<text text-anchor="start" x="393.5" y="-424" font-family="Helvetica,sans-Serif" font-size="10.00">+</text>
<text text-anchor="start" x="403.5" y="-424" font-family="Helvetica,sans-Serif" font-size="10.00">predict_expected_state()</text>
<text text-anchor="start" x="393.5" y="-409" font-family="Helvetica,sans-Serif" font-size="10.00">+</text>
<text text-anchor="start" x="403.5" y="-409" font-family="Helvetica,sans-Serif" font-size="10.00">get_motion_to_state</text>
<text text-anchor="start" x="403.5" y="-397.75" font-family="Helvetica,sans-Serif" font-size="10.00">_matrix()</text>
<text text-anchor="start" x="393.5" y="-383" font-family="Helvetica,sans-Serif" font-size="10.00">+</text>
<text text-anchor="start" x="403.5" y="-383" font-family="Helvetica,sans-Serif" font-size="10.00">get_process_noise_covariance</text>
<text text-anchor="start" x="403.5" y="-371.75" font-family="Helvetica,sans-Serif" font-size="10.00">_matrix()</text>
<polygon fill="#666666" stroke="#666666" points="389.5,-465.5 389.5,-465.5 541.5,-465.5 541.5,-465.5 389.5,-465.5"/>
<polygon fill="#666666" stroke="#666666" points="389.5,-450.5 389.5,-450.5 541.5,-450.5 541.5,-450.5 389.5,-450.5"/>
<polygon fill="none" stroke="#666666" points="389.5,-366.5 389.5,-482.5 541.5,-482.5 541.5,-366.5 389.5,-366.5"/>
</a>
</g>
</g>
<!-- Node8&#45;&gt;Node1 -->
<g id="edge7_Node000001_Node000008" class="edge">
<title>Node8&#45;&gt;Node1</title>
<g id="a_edge7_Node000001_Node000008"><a xlink:title=" ">
<path fill="none" stroke="#63b8ff" d="M465.5,-366.66C465.5,-339.36 465.5,-305.31 465.5,-271.64"/>
<polygon fill="none" stroke="#63b8ff" points="465.5,-271.67 461.5,-265.67 465.5,-259.67 469.5,-265.67 465.5,-271.67"/>
</a>
</g>
<text text-anchor="middle" x="510.5" y="-284.38" font-family="Helvetica,sans-Serif" font-size="10.00" fill="grey"> #motion_model_test</text>
</g>
<!-- Node9 -->
<g id="Node000009" class="node">
<title>Node9</title>
<g id="a_Node000009"><a xlink:href="classObservationModel.html" target="_top" xlink:title="Observation Model class compiled of functions for observation model.">
<polygon fill="white" stroke="none" points="687,-495.5 560,-495.5 560,-353.5 687,-353.5 687,-495.5"/>
<text text-anchor="start" x="584.12" y="-482" font-family="Helvetica,sans-Serif" font-size="10.00">ObservationModel</text>
<text text-anchor="start" x="622" y="-467" font-family="Helvetica,sans-Serif" font-size="10.00"> </text>
<text text-anchor="start" x="564" y="-452" font-family="Helvetica,sans-Serif" font-size="10.00">+</text>
<text text-anchor="start" x="574" y="-452" font-family="Helvetica,sans-Serif" font-size="10.00">ObservationModel()</text>
<text text-anchor="start" x="564" y="-437" font-family="Helvetica,sans-Serif" font-size="10.00">+</text>
<text text-anchor="start" x="574" y="-437" font-family="Helvetica,sans-Serif" font-size="10.00">observation_model()</text>
<text text-anchor="start" x="564" y="-422" font-family="Helvetica,sans-Serif" font-size="10.00">+</text>
<text text-anchor="start" x="574" y="-422" font-family="Helvetica,sans-Serif" font-size="10.00">inverse_observation</text>
<text text-anchor="start" x="574" y="-410.75" font-family="Helvetica,sans-Serif" font-size="10.00">_model()</text>
<text text-anchor="start" x="564" y="-396" font-family="Helvetica,sans-Serif" font-size="10.00">+</text>
<text text-anchor="start" x="574" y="-396" font-family="Helvetica,sans-Serif" font-size="10.00">get_state_to_observation</text>
<text text-anchor="start" x="574" y="-384.75" font-family="Helvetica,sans-Serif" font-size="10.00">_matrix()</text>
<text text-anchor="start" x="564" y="-370" font-family="Helvetica,sans-Serif" font-size="10.00">+</text>
<text text-anchor="start" x="574" y="-370" font-family="Helvetica,sans-Serif" font-size="10.00">get_observation_noise</text>
<text text-anchor="start" x="574" y="-358.75" font-family="Helvetica,sans-Serif" font-size="10.00">_covariance_matrix()</text>
<polygon fill="#666666" stroke="#666666" points="560,-478.5 560,-478.5 687,-478.5 687,-478.5 560,-478.5"/>
<polygon fill="#666666" stroke="#666666" points="560,-463.5 560,-463.5 687,-463.5 687,-463.5 560,-463.5"/>
<polygon fill="none" stroke="#666666" points="560,-353.5 560,-495.5 687,-495.5 687,-353.5 560,-353.5"/>
</a>
</g>
</g>
<!-- Node9&#45;&gt;Node1 -->
<g id="edge8_Node000001_Node000009" class="edge">
<title>Node9&#45;&gt;Node1</title>
<g id="a_edge8_Node000001_Node000009"><a xlink:title=" ">
<path fill="none" stroke="#63b8ff" d="M595.75,-353.86C585.22,-329.18 572.59,-301.47 559.5,-277 551.89,-262.77 543.37,-248.11 534.64,-233.81"/>
<polygon fill="none" stroke="#63b8ff" points="534.72,-233.93 528.16,-230.93 528.41,-223.72 534.97,-226.73 534.72,-233.93"/>
</a>
</g>
<text text-anchor="middle" x="624" y="-284.38" font-family="Helvetica,sans-Serif" font-size="10.00" fill="grey"> #observation_model_test</text>
</g>
<!-- Node10 -->
<g id="Node000010" class="node">
<title>Node10</title>
<g id="a_Node000010"><a xlink:href="classExtendedKalmanFilter.html" target="_top" xlink:title="Extended Kalman Filter class.">
<polygon fill="white" stroke="none" points="823.5,-531.5 705.5,-531.5 705.5,-317.5 823.5,-317.5 823.5,-531.5"/>
<text text-anchor="start" x="717.25" y="-518" font-family="Helvetica,sans-Serif" font-size="10.00">ExtendedKalmanFilter</text>
<text text-anchor="start" x="763" y="-503" font-family="Helvetica,sans-Serif" font-size="10.00"> </text>
<text text-anchor="start" x="709.5" y="-488" font-family="Helvetica,sans-Serif" font-size="10.00">+</text>
<text text-anchor="start" x="719.5" y="-488" font-family="Helvetica,sans-Serif" font-size="10.00">ExtendedKalmanFilter()</text>
<text text-anchor="start" x="709.5" y="-473" font-family="Helvetica,sans-Serif" font-size="10.00">+</text>
<text text-anchor="start" x="719.5" y="-473" font-family="Helvetica,sans-Serif" font-size="10.00">ExtendedKalmanFilter()</text>
<text text-anchor="start" x="709.5" y="-458" font-family="Helvetica,sans-Serif" font-size="10.00">+</text>
<text text-anchor="start" x="719.5" y="-458" font-family="Helvetica,sans-Serif" font-size="10.00">update()</text>
<text text-anchor="start" x="709.5" y="-443" font-family="Helvetica,sans-Serif" font-size="10.00">+</text>
<text text-anchor="start" x="719.5" y="-443" font-family="Helvetica,sans-Serif" font-size="10.00">prediction_step()</text>
<text text-anchor="start" x="709.5" y="-428" font-family="Helvetica,sans-Serif" font-size="10.00">+</text>
<text text-anchor="start" x="719.5" y="-428" font-family="Helvetica,sans-Serif" font-size="10.00">correction_step()</text>
<text text-anchor="start" x="709.5" y="-413" font-family="Helvetica,sans-Serif" font-size="10.00">+</text>
<text text-anchor="start" x="719.5" y="-413" font-family="Helvetica,sans-Serif" font-size="10.00">set_X_y()</text>
<text text-anchor="start" x="709.5" y="-398" font-family="Helvetica,sans-Serif" font-size="10.00">+</text>
<text text-anchor="start" x="719.5" y="-398" font-family="Helvetica,sans-Serif" font-size="10.00">set_P()</text>
<text text-anchor="start" x="709.5" y="-383" font-family="Helvetica,sans-Serif" font-size="10.00">+</text>
<text text-anchor="start" x="719.5" y="-383" font-family="Helvetica,sans-Serif" font-size="10.00">init_X_size()</text>
<text text-anchor="start" x="709.5" y="-368" font-family="Helvetica,sans-Serif" font-size="10.00">+</text>
<text text-anchor="start" x="719.5" y="-368" font-family="Helvetica,sans-Serif" font-size="10.00">push_to_colors()</text>
<text text-anchor="start" x="709.5" y="-353" font-family="Helvetica,sans-Serif" font-size="10.00">+</text>
<text text-anchor="start" x="719.5" y="-353" font-family="Helvetica,sans-Serif" font-size="10.00">get_state()</text>
<text text-anchor="start" x="709.5" y="-338" font-family="Helvetica,sans-Serif" font-size="10.00">+</text>
<text text-anchor="start" x="719.5" y="-338" font-family="Helvetica,sans-Serif" font-size="10.00">get_covariance()</text>
<text text-anchor="start" x="709.5" y="-323" font-family="Helvetica,sans-Serif" font-size="10.00">+</text>
<text text-anchor="start" x="719.5" y="-323" font-family="Helvetica,sans-Serif" font-size="10.00">get_last_update()</text>
<polygon fill="#666666" stroke="#666666" points="705.5,-514.5 705.5,-514.5 823.5,-514.5 823.5,-514.5 705.5,-514.5"/>
<polygon fill="#666666" stroke="#666666" points="705.5,-499.5 705.5,-499.5 823.5,-499.5 823.5,-499.5 705.5,-499.5"/>
<polygon fill="none" stroke="#666666" points="705.5,-317.5 705.5,-531.5 823.5,-531.5 823.5,-317.5 705.5,-317.5"/>
</a>
</g>
</g>
<!-- Node10&#45;&gt;Node1 -->
<g id="edge9_Node000001_Node000010" class="edge">
<title>Node10&#45;&gt;Node1</title>
<g id="a_edge9_Node000001_Node000010"><a xlink:title=" ">
<path fill="none" stroke="#63b8ff" d="M714.05,-317.69C704.92,-303.25 694.7,-289.21 683.5,-277 642.31,-232.07 584.69,-194.12 539.04,-168.11"/>
<polygon fill="none" stroke="#63b8ff" points="538.96,-168.07 531.77,-168.62 528.5,-162.2 535.69,-161.64 538.96,-168.07"/>
</a>
</g>
<text text-anchor="middle" x="721.88" y="-284.38" font-family="Helvetica,sans-Serif" font-size="10.00" fill="grey"> #ekf_test</text>
</g>
<!-- Node11 -->
<g id="Node000011" class="node">
<title>Node11</title>
<g id="a_Node000011"><a xlink:title=" ">
<polygon fill="white" stroke="none" points="873.5,-449 841.5,-449 841.5,-400 873.5,-400 873.5,-449"/>
<text text-anchor="start" x="846.25" y="-435.5" font-family="Helvetica,sans-Serif" font-size="10.00">Pose</text>
<text text-anchor="start" x="856" y="-420.5" font-family="Helvetica,sans-Serif" font-size="10.00"> </text>
<text text-anchor="start" x="856" y="-405.5" font-family="Helvetica,sans-Serif" font-size="10.00"> </text>
<polygon fill="#666666" stroke="#666666" points="841.5,-432 841.5,-432 873.5,-432 873.5,-432 841.5,-432"/>
<polygon fill="#666666" stroke="#666666" points="841.5,-417 841.5,-417 873.5,-417 873.5,-417 841.5,-417"/>
<polygon fill="none" stroke="#666666" points="841.5,-400 841.5,-449 873.5,-449 873.5,-400 841.5,-400"/>
</a>
</g>
</g>
<!-- Node11&#45;&gt;Node1 -->
<g id="edge10_Node000001_Node000011" class="edge">
<title>Node11&#45;&gt;Node1</title>
<g id="a_edge10_Node000001_Node000011"><a xlink:title=" ">
<path fill="none" stroke="#63b8ff" d="M857.49,-400.43C856.34,-377.2 851.3,-341.44 832.5,-317.5 758.58,-223.34 624.4,-172.36 540.38,-148.36"/>
<polygon fill="none" stroke="#63b8ff" points="540.28,-148.33 533.43,-150.57 528.72,-145.11 535.57,-142.87 540.28,-148.33"/>
</a>
</g>
<text text-anchor="middle" x="845.75" y="-284.38" font-family="Helvetica,sans-Serif" font-size="10.00" fill="grey"> #received_pose</text>
</g>
<!-- Node12 -->
<g id="Node000012" class="node">
<title>Node12</title>
<g id="a_Node000012"><a xlink:title=" ">
<polygon fill="white" stroke="none" points="965,-449 910,-449 910,-400 965,-400 965,-449"/>
<text text-anchor="start" x="915" y="-435.5" font-family="Helvetica,sans-Serif" font-size="10.00">ConeArray</text>
<text text-anchor="start" x="936" y="-420.5" font-family="Helvetica,sans-Serif" font-size="10.00"> </text>
<text text-anchor="start" x="936" y="-405.5" font-family="Helvetica,sans-Serif" font-size="10.00"> </text>
<polygon fill="#666666" stroke="#666666" points="910,-432 910,-432 965,-432 965,-432 910,-432"/>
<polygon fill="#666666" stroke="#666666" points="910,-417 910,-417 965,-417 965,-417 910,-417"/>
<polygon fill="none" stroke="#666666" points="910,-400 910,-449 965,-449 965,-400 910,-400"/>
</a>
</g>
</g>
<!-- Node12&#45;&gt;Node1 -->
<g id="edge11_Node000001_Node000012" class="edge">
<title>Node12&#45;&gt;Node1</title>
<g id="a_edge11_Node000001_Node000012"><a xlink:title=" ">
<path fill="none" stroke="#63b8ff" d="M935.41,-400.15C931.33,-368.15 919.47,-310.78 885.5,-277 791.11,-183.12 633.38,-149.24 540.43,-137.13"/>
<polygon fill="none" stroke="#63b8ff" points="540.56,-137.15 534.11,-140.38 528.65,-135.67 535.1,-132.44 540.56,-137.15"/>
</a>
</g>
<text text-anchor="middle" x="948.12" y="-284.38" font-family="Helvetica,sans-Serif" font-size="10.00" fill="grey"> #received_track_map</text>
</g>
</g>
</svg>
