<?xml version="1.0" encoding="UTF-8" standalone="no"?>
<!DOCTYPE svg PUBLIC "-//W3C//DTD SVG 1.1//EN"
 "http://www.w3.org/Graphics/SVG/1.1/DTD/svg11.dtd">
<!-- Generated by graphviz version 9.0.0 (20230911.1827)
 -->
<!-- Title: path_planning_mock.path_mock_publisher.PathMockPublisher Pages: 1 -->
<svg width="178pt" height="243pt"
 viewBox="0.00 0.00 178.00 243.00" xmlns="http://www.w3.org/2000/svg" xmlns:xlink="http://www.w3.org/1999/xlink">
<g id="graph0" class="graph" transform="scale(1 1) rotate(0) translate(4 239)">
<title>path_planning_mock.path_mock_publisher.PathMockPublisher</title>
<!-- Node1 -->
<g id="Node000001" class="node">
<title>Node1</title>
<g id="a_Node000001"><a xlink:title="Class for publishing path mock.">
<polygon fill="#999999" stroke="none" points="170,-150 0,-150 0,0 170,0 170,-150"/>
<text text-anchor="start" x="4.75" y="-136.5" font-family="Helvetica,sans-Serif" font-size="10.00">path_planning_mock.path</text>
<text text-anchor="start" x="4.75" y="-125.25" font-family="Helvetica,sans-Serif" font-size="10.00">_mock_publisher.PathMockPublisher</text>
<text text-anchor="start" x="24.5" y="-110.5" font-family="Helvetica,sans-Serif" font-size="10.00">+</text>
<text text-anchor="start" x="55" y="-110.5" font-family="Helvetica,sans-Serif" font-size="10.00">track_path</text>
<text text-anchor="start" x="24.5" y="-95.5" font-family="Helvetica,sans-Serif" font-size="10.00">+</text>
<text text-anchor="start" x="55" y="-95.5" font-family="Helvetica,sans-Serif" font-size="10.00">publisher_</text>
<text text-anchor="start" x="24.5" y="-80.5" font-family="Helvetica,sans-Serif" font-size="10.00">+</text>
<text text-anchor="start" x="55" y="-80.5" font-family="Helvetica,sans-Serif" font-size="10.00">timer</text>
<text text-anchor="start" x="24.5" y="-65.5" font-family="Helvetica,sans-Serif" font-size="10.00">+</text>
<text text-anchor="start" x="55" y="-65.5" font-family="Helvetica,sans-Serif" font-size="10.00">path</text>
<text text-anchor="start" x="24.5" y="-50.5" font-family="Helvetica,sans-Serif" font-size="10.00">+</text>
<text text-anchor="start" x="55" y="-50.5" font-family="Helvetica,sans-Serif" font-size="10.00">__init__()</text>
<text text-anchor="start" x="24.5" y="-35.5" font-family="Helvetica,sans-Serif" font-size="10.00">+</text>
<text text-anchor="start" x="55" y="-35.5" font-family="Helvetica,sans-Serif" font-size="10.00">create_path()</text>
<text text-anchor="start" x="24.5" y="-20.5" font-family="Helvetica,sans-Serif" font-size="10.00">+</text>
<text text-anchor="start" x="55" y="-20.5" font-family="Helvetica,sans-Serif" font-size="10.00">create_path2()</text>
<text text-anchor="start" x="24.5" y="-5.5" font-family="Helvetica,sans-Serif" font-size="10.00">+</text>
<text text-anchor="start" x="55" y="-5.5" font-family="Helvetica,sans-Serif" font-size="10.00">timer_callback()</text>
<polygon fill="#666666" stroke="#666666" points="0,-122 0,-122 170,-122 170,-122 0,-122"/>
<polygon fill="#666666" stroke="#666666" points="0,-62 0,-62 53,-62 53,-62 0,-62"/>
<polygon fill="#666666" stroke="#666666" points="53,-62 53,-62 170,-62 170,-62 53,-62"/>
<polygon fill="none" stroke="#666666" points="0,0 0,-150 170,-150 170,0 0,0"/>
</a>
</g>
</g>
<!-- Node2 -->
<g id="Node000002" class="node">
<title>Node2</title>
<g id="a_Node000002"><a xlink:title=" ">
<polygon fill="white" stroke="none" points="101.5,-235 68.5,-235 68.5,-186 101.5,-186 101.5,-235"/>
<text text-anchor="start" x="73.38" y="-221.5" font-family="Helvetica,sans-Serif" font-size="10.00">Node</text>
<text text-anchor="start" x="83.5" y="-206.5" font-family="Helvetica,sans-Serif" font-size="10.00"> </text>
<text text-anchor="start" x="83.5" y="-191.5" font-family="Helvetica,sans-Serif" font-size="10.00"> </text>
<polygon fill="#666666" stroke="#666666" points="68.5,-218 68.5,-218 101.5,-218 101.5,-218 68.5,-218"/>
<polygon fill="#666666" stroke="#666666" points="68.5,-203 68.5,-203 101.5,-203 101.5,-203 68.5,-203"/>
<polygon fill="none" stroke="#666666" points="68.5,-186 68.5,-235 101.5,-235 101.5,-186 68.5,-186"/>
</a>
</g>
</g>
<!-- Node2&#45;&gt;Node1 -->
<g id="edge1_Node000001_Node000002" class="edge">
<title>Node2&#45;&gt;Node1</title>
<g id="a_edge1_Node000001_Node000002"><a xlink:title=" ">
<path fill="none" stroke="#63b8ff" d="M85,-174.74C85,-166.97 85,-158.44 85,-149.75"/>
<polygon fill="none" stroke="#63b8ff" points="81.5,-174.73 85,-184.73 88.5,-174.73 81.5,-174.73"/>
</a>
</g>
</g>
</g>
</svg>
