<?xml version="1.0" encoding="UTF-8" standalone="no"?>
<!DOCTYPE svg PUBLIC "-//W3C//DTD SVG 1.1//EN"
 "http://www.w3.org/Graphics/SVG/1.1/DTD/svg11.dtd">
<!-- Generated by graphviz version 9.0.0 (20230911.1827)
 -->
<!-- Title: ExecTimeTest::fill_X Pages: 1 -->
<svg width="258pt" height="88pt"
 viewBox="0.00 0.00 258.25 87.50" xmlns="http://www.w3.org/2000/svg" xmlns:xlink="http://www.w3.org/1999/xlink">
<g id="graph0" class="graph" transform="scale(1 1) rotate(0) translate(4 83.5)">
<title>ExecTimeTest::fill_X</title>
<!-- Node1 -->
<g id="Node000001" class="node">
<title>Node1</title>
<g id="a_Node000001"><a xlink:title=" ">
<polygon fill="#999999" stroke="#666666" points="103.75,-48.88 0,-48.88 0,-29.62 103.75,-29.62 103.75,-48.88"/>
<text text-anchor="middle" x="51.88" y="-35.38" font-family="Helvetica,sans-Serif" font-size="10.00">ExecTimeTest::fill_X</text>
</a>
</g>
</g>
<!-- Node2 -->
<g id="Node000002" class="node">
<title>Node2</title>
<g id="a_Node000002"><a xlink:href="classExtendedKalmanFilter.html#a20242ba22cd157af7bcdc1faf3eccf0c" target="_top" xlink:title="pushes back to colors vector">
<polygon fill="white" stroke="#666666" points="250.25,-79.5 139.75,-79.5 139.75,-49 250.25,-49 250.25,-79.5"/>
<text text-anchor="start" x="147.75" y="-66" font-family="Helvetica,sans-Serif" font-size="10.00">ExtendedKalmanFilter</text>
<text text-anchor="middle" x="195" y="-54.75" font-family="Helvetica,sans-Serif" font-size="10.00">::push_to_colors</text>
</a>
</g>
</g>
<!-- Node1&#45;&gt;Node2 -->
<g id="edge1_Node000001_Node000002" class="edge">
<title>Node1&#45;&gt;Node2</title>
<g id="a_edge1_Node000001_Node000002"><a xlink:title=" ">
<path fill="none" stroke="#63b8ff" d="M104.22,-48.35C112.04,-49.73 120.21,-51.18 128.28,-52.61"/>
<polygon fill="#63b8ff" stroke="#63b8ff" points="127.65,-56.05 138.11,-54.35 128.87,-49.16 127.65,-56.05"/>
</a>
</g>
</g>
<!-- Node3 -->
<g id="Node000003" class="node">
<title>Node3</title>
<g id="a_Node000003"><a xlink:href="classExtendedKalmanFilter.html#ada3c7923554c8e0f35bb81ef5bb47f35" target="_top" xlink:title="set X at y">
<polygon fill="white" stroke="#666666" points="250.25,-30.5 139.75,-30.5 139.75,0 250.25,0 250.25,-30.5"/>
<text text-anchor="start" x="147.75" y="-17" font-family="Helvetica,sans-Serif" font-size="10.00">ExtendedKalmanFilter</text>
<text text-anchor="middle" x="195" y="-5.75" font-family="Helvetica,sans-Serif" font-size="10.00">::set_X_y</text>
</a>
</g>
</g>
<!-- Node1&#45;&gt;Node3 -->
<g id="edge2_Node000001_Node000003" class="edge">
<title>Node1&#45;&gt;Node3</title>
<g id="a_edge2_Node000001_Node000003"><a xlink:title=" ">
<path fill="none" stroke="#63b8ff" d="M104.22,-30.52C112.04,-29.19 120.21,-27.8 128.28,-26.43"/>
<polygon fill="#63b8ff" stroke="#63b8ff" points="128.84,-29.88 138.11,-24.76 127.66,-22.98 128.84,-29.88"/>
</a>
</g>
</g>
</g>
</svg>
