<?xml version="1.0" encoding="UTF-8" standalone="no"?>
<!DOCTYPE svg PUBLIC "-//W3C//DTD SVG 1.1//EN"
 "http://www.w3.org/Graphics/SVG/1.1/DTD/svg11.dtd">
<!-- Generated by graphviz version 9.0.0 (20230911.1827)
 -->
<!-- Title: Track::deleteOutliers Pages: 1 -->
<svg width="363pt" height="157pt"
 viewBox="0.00 0.00 362.75 156.71" xmlns="http://www.w3.org/2000/svg" xmlns:xlink="http://www.w3.org/1999/xlink">

<svg id="main" version="1.1" xmlns="http://www.w3.org/2000/svg" xmlns:xlink="http://www.w3.org/1999/xlink" xml:space="preserve" onload="init(evt)">
<style type="text/css"><![CDATA[
.node, .edge {opacity: 0.7;}
.node.selected, .edge.selected {opacity: 1;}
.edge:hover path { stroke: red; }
.edge:hover polygon { stroke: red; fill: red; }
]]></style>
<script type="application/ecmascript" xlink:href="svg.min.js"/>
<svg id="graph" class="graph">
<g id="graph0" class="graph" transform="scale(1 1) rotate(0) translate(4 152.71)">
<title>Track::deleteOutliers</title>
<!-- Node1 -->
<g id="Node000001" class="node">
<title>Node1</title>
<g id="a_Node000001"><a xlink:title="Delete outliers from the track.">
<polygon fill="#999999" stroke="#666666" points="105.25,-95.25 0,-95.25 0,-76 105.25,-76 105.25,-95.25"/>
<text text-anchor="middle" x="52.62" y="-81.75" font-family="Helvetica,sans-Serif" font-size="10.00">Track::deleteOutliers</text>
</a>
</g>
</g>
<!-- Node2 -->
<g id="Node000002" class="node">
<title>Node2</title>
<g id="a_Node000002"><a xlink:href="classCone.html#a1fd598dec938e232ee09e16abe1b6a0d" target="_top" xlink:title=" ">
<polygon fill="white" stroke="#666666" points="251.38,-95.25 145.38,-95.25 145.38,-76 251.38,-76 251.38,-95.25"/>
<text text-anchor="middle" x="198.38" y="-81.75" font-family="Helvetica,sans-Serif" font-size="10.00">Cone::getDistanceTo</text>
</a>
</g>
</g>
<!-- Node1&#45;&gt;Node2 -->
<g id="edge1_Node000001_Node000002" class="edge">
<title>Node1&#45;&gt;Node2</title>
<g id="a_edge1_Node000001_Node000002"><a xlink:title=" ">
<path fill="none" stroke="#63b8ff" d="M105.52,-85.62C114.67,-85.62 124.29,-85.62 133.71,-85.62"/>
<polygon fill="#63b8ff" stroke="#63b8ff" points="133.56,-89.13 143.56,-85.63 133.56,-82.13 133.56,-89.13"/>
</a>
</g>
</g>
<!-- Node3 -->
<g id="Node000003" class="node">
<title>Node3</title>
<g id="a_Node000003"><a xlink:href="classCone.html#a51a49cc249e79d06f6a983250fe809b3" target="_top" xlink:title=" ">
<polygon fill="white" stroke="#666666" points="354.75,-132.25 291.5,-132.25 291.5,-113 354.75,-113 354.75,-132.25"/>
<text text-anchor="middle" x="323.12" y="-118.75" font-family="Helvetica,sans-Serif" font-size="10.00">Cone::getX</text>
</a>
</g>
</g>
<!-- Node1&#45;&gt;Node3 -->
<g id="edge4_Node000001_Node000003" class="edge">
<title>Node1&#45;&gt;Node3</title>
<g id="a_edge4_Node000001_Node000003"><a xlink:title=" ">
<path fill="none" stroke="#63b8ff" d="M64.48,-95.54C80.09,-109.06 110.4,-132.61 141.25,-141.62 187.94,-155.27 243.94,-145.61 281.14,-135.75"/>
<polygon fill="#63b8ff" stroke="#63b8ff" points="281.89,-139.18 290.59,-133.12 280.02,-132.43 281.89,-139.18"/>
</a>
</g>
</g>
<!-- Node4 -->
<g id="Node000004" class="node">
<title>Node4</title>
<g id="a_Node000004"><a xlink:href="classCone.html#a952987a9de5d20d7930b3e93c04fd278" target="_top" xlink:title=" ">
<polygon fill="white" stroke="#666666" points="354.75,-95.25 291.5,-95.25 291.5,-76 354.75,-76 354.75,-95.25"/>
<text text-anchor="middle" x="323.12" y="-81.75" font-family="Helvetica,sans-Serif" font-size="10.00">Cone::getY</text>
</a>
</g>
</g>
<!-- Node1&#45;&gt;Node4 -->
<g id="edge5_Node000001_Node000004" class="edge">
<title>Node1&#45;&gt;Node4</title>
<g id="a_edge5_Node000001_Node000004"><a xlink:title=" ">
<path fill="none" stroke="#63b8ff" d="M91.72,-75.51C107,-71.94 124.84,-68.38 141.25,-66.62 191.74,-61.21 205.21,-59.59 255.5,-66.62 264.38,-67.87 273.73,-70 282.54,-72.39"/>
<polygon fill="#63b8ff" stroke="#63b8ff" points="281.28,-75.67 291.86,-75.1 283.23,-68.95 281.28,-75.67"/>
</a>
</g>
</g>
<!-- Node5 -->
<g id="Node000005" class="node">
<title>Node5</title>
<g id="a_Node000005"><a xlink:href="files_8cpp.html#a257b6927df658c26c8eded5bf6d569d2" target="_top" xlink:title=" ">
<polygon fill="white" stroke="#666666" points="236,-19.25 160.75,-19.25 160.75,0 236,0 236,-19.25"/>
<text text-anchor="middle" x="198.38" y="-5.75" font-family="Helvetica,sans-Serif" font-size="10.00">openWriteFile</text>
</a>
</g>
</g>
<!-- Node1&#45;&gt;Node5 -->
<g id="edge6_Node000001_Node000005" class="edge">
<title>Node1&#45;&gt;Node5</title>
<g id="a_edge6_Node000001_Node000005"><a xlink:title=" ">
<path fill="none" stroke="#63b8ff" d="M69.1,-75.59C86.35,-64.62 115.22,-46.84 141.25,-33.62 147.7,-30.35 154.7,-27.12 161.5,-24.13"/>
<polygon fill="#63b8ff" stroke="#63b8ff" points="162.69,-27.43 170.51,-20.28 159.94,-20.99 162.69,-27.43"/>
</a>
</g>
</g>
<!-- Node6 -->
<g id="Node000006" class="node">
<title>Node6</title>
<g id="a_Node000006"><a xlink:href="classTrack.html#aceda92bc02f39cd9127b31bc04ef7feb" target="_top" xlink:title="Check if the direction of two cones is consistent.">
<polygon fill="white" stroke="#666666" points="255.5,-132.25 141.25,-132.25 141.25,-113 255.5,-113 255.5,-132.25"/>
<text text-anchor="middle" x="198.38" y="-118.75" font-family="Helvetica,sans-Serif" font-size="10.00">Track::vector_direction</text>
</a>
</g>
</g>
<!-- Node1&#45;&gt;Node6 -->
<g id="edge7_Node000001_Node000006" class="edge">
<title>Node1&#45;&gt;Node6</title>
<g id="a_edge7_Node000001_Node000006"><a xlink:title=" ">
<path fill="none" stroke="#63b8ff" d="M92.91,-95.74C109.62,-100.04 129.33,-105.11 147.09,-109.68"/>
<polygon fill="#63b8ff" stroke="#63b8ff" points="146.12,-113.05 156.68,-112.15 147.86,-106.27 146.12,-113.05"/>
</a>
</g>
</g>
<!-- Node2&#45;&gt;Node3 -->
<g id="edge2_Node000002_Node000003" class="edge">
<title>Node2&#45;&gt;Node3</title>
<g id="a_edge2_Node000002_Node000003"><a xlink:title=" ">
<path fill="none" stroke="#63b8ff" d="M232.92,-95.74C247.54,-100.14 264.84,-105.36 280.29,-110.01"/>
<polygon fill="#63b8ff" stroke="#63b8ff" points="279.12,-113.32 289.7,-112.85 281.14,-106.61 279.12,-113.32"/>
</a>
</g>
</g>
<!-- Node2&#45;&gt;Node4 -->
<g id="edge3_Node000002_Node000004" class="edge">
<title>Node2&#45;&gt;Node4</title>
<g id="a_edge3_Node000002_Node000004"><a xlink:title=" ">
<path fill="none" stroke="#63b8ff" d="M251.79,-85.62C261.12,-85.62 270.74,-85.62 279.75,-85.62"/>
<polygon fill="#63b8ff" stroke="#63b8ff" points="279.66,-89.13 289.66,-85.63 279.65,-82.13 279.66,-89.13"/>
</a>
</g>
</g>
<!-- Node6&#45;&gt;Node3 -->
<g id="edge8_Node000006_Node000003" class="edge">
<title>Node6&#45;&gt;Node3</title>
<g id="a_edge8_Node000006_Node000003"><a xlink:title=" ">
<path fill="none" stroke="#63b8ff" d="M255.72,-122.62C263.84,-122.62 272.08,-122.62 279.86,-122.62"/>
<polygon fill="#63b8ff" stroke="#63b8ff" points="279.73,-126.13 289.73,-122.63 279.73,-119.13 279.73,-126.13"/>
</a>
</g>
</g>
<!-- Node6&#45;&gt;Node4 -->
<g id="edge9_Node000006_Node000004" class="edge">
<title>Node6&#45;&gt;Node4</title>
<g id="a_edge9_Node000006_Node000004"><a xlink:title=" ">
<path fill="none" stroke="#63b8ff" d="M232.92,-112.51C247.54,-108.11 264.84,-102.89 280.29,-98.24"/>
<polygon fill="#63b8ff" stroke="#63b8ff" points="281.14,-101.64 289.7,-95.4 279.12,-94.93 281.14,-101.64"/>
</a>
</g>
</g>
</g>
</svg>
</svg>

<style type='text/css'>
<![CDATA[
[data-mouse-over-selected='false'] { opacity: 0.7; }
[data-mouse-over-selected='true']  { opacity: 1.0; }
]]>
</style>
<script type="application/ecmascript"><![CDATA[
document.addEventListener('DOMContentLoaded', (event) => {
  highlightEdges();
  highlightAdjacentNodes();
});
]]></script>
</svg>
