<?xml version="1.0" encoding="UTF-8" standalone="no"?>
<!DOCTYPE svg PUBLIC "-//W3C//DTD SVG 1.1//EN"
 "http://www.w3.org/Graphics/SVG/1.1/DTD/svg11.dtd">
<!-- Generated by graphviz version 9.0.0 (20230911.1827)
 -->
<!-- Title: ObservationModel::observation_model Pages: 1 -->
<svg width="381pt" height="113pt"
 viewBox="0.00 0.00 380.75 112.88" xmlns="http://www.w3.org/2000/svg" xmlns:xlink="http://www.w3.org/1999/xlink">
<g id="graph0" class="graph" transform="scale(1 1) rotate(0) translate(4 108.88)">
<title>ObservationModel::observation_model</title>
<!-- Node1 -->
<g id="Node000001" class="node">
<title>Node1</title>
<g id="a_Node000001"><a xlink:title="Calculate expected observation from the state vector.">
<polygon fill="#999999" stroke="#666666" points="372.75,-61.88 223.25,-61.88 223.25,-31.38 372.75,-31.38 372.75,-61.88"/>
<text text-anchor="start" x="231.25" y="-48.38" font-family="Helvetica,sans-Serif" font-size="10.00">ObservationModel::observation</text>
<text text-anchor="middle" x="298" y="-37.12" font-family="Helvetica,sans-Serif" font-size="10.00">_model</text>
</a>
</g>
</g>
<!-- Node2 -->
<g id="Node000002" class="node">
<title>Node2</title>
<g id="a_Node000002"><a xlink:href="classExtendedKalmanFilter.html#a230559bb9193f7acf494ae9e889fb6f8" target="_top" xlink:title="Correction step:">
<polygon fill="white" stroke="#666666" points="187.25,-104.88 76.75,-104.88 76.75,-74.38 187.25,-74.38 187.25,-104.88"/>
<text text-anchor="start" x="84.75" y="-91.38" font-family="Helvetica,sans-Serif" font-size="10.00">ExtendedKalmanFilter</text>
<text text-anchor="middle" x="132" y="-80.12" font-family="Helvetica,sans-Serif" font-size="10.00">::correction_step</text>
</a>
</g>
</g>
<!-- Node1&#45;&gt;Node2 -->
<g id="edge1_Node000001_Node000002" class="edge">
<title>Node1&#45;&gt;Node2</title>
<g id="a_edge1_Node000001_Node000002"><a xlink:title=" ">
<path fill="none" stroke="#63b8ff" d="M226.54,-65.1C213.55,-68.51 200.16,-72.01 187.72,-75.28"/>
<polygon fill="#63b8ff" stroke="#63b8ff" points="227.08,-68.58 235.86,-62.65 225.3,-61.81 227.08,-68.58"/>
</a>
</g>
</g>
<!-- Node4 -->
<g id="Node000004" class="node">
<title>Node4</title>
<g id="a_Node000004"><a xlink:href="observation__model__test_8cpp.html#ace83b03e85ae2ce2ae7e32c548597d3f" target="_top" xlink:title="Test the observation model in a scenario where the vehicle is always aligned with the x axis.">
<polygon fill="white" stroke="#666666" points="152.38,-56.25 111.62,-56.25 111.62,-37 152.38,-37 152.38,-56.25"/>
<text text-anchor="middle" x="132" y="-42.75" font-family="Helvetica,sans-Serif" font-size="10.00">TEST</text>
</a>
</g>
</g>
<!-- Node1&#45;&gt;Node4 -->
<g id="edge3_Node000001_Node000004" class="edge">
<title>Node1&#45;&gt;Node4</title>
<g id="a_edge3_Node000001_Node000004"><a xlink:title=" ">
<path fill="none" stroke="#63b8ff" d="M211.91,-46.62C189.72,-46.62 167.83,-46.62 152.75,-46.62"/>
<polygon fill="#63b8ff" stroke="#63b8ff" points="211.64,-50.13 221.64,-46.63 211.64,-43.13 211.64,-50.13"/>
</a>
</g>
</g>
<!-- Node5 -->
<g id="Node000005" class="node">
<title>Node5</title>
<g id="a_Node000005"><a xlink:href="observation__model__test_8cpp.html#afcf4ad927c46c840a8747b5425c6cc64" target="_top" xlink:title="Test different cases for known values individually.">
<polygon fill="white" stroke="#666666" points="152.38,-19.25 111.62,-19.25 111.62,0 152.38,0 152.38,-19.25"/>
<text text-anchor="middle" x="132" y="-5.75" font-family="Helvetica,sans-Serif" font-size="10.00">TEST</text>
</a>
</g>
</g>
<!-- Node1&#45;&gt;Node5 -->
<g id="edge4_Node000001_Node000005" class="edge">
<title>Node1&#45;&gt;Node5</title>
<g id="a_edge4_Node000001_Node000005"><a xlink:title=" ">
<path fill="none" stroke="#63b8ff" d="M216.28,-28.41C192.67,-23.09 168.93,-17.73 152.87,-14.11"/>
<polygon fill="#63b8ff" stroke="#63b8ff" points="215.45,-31.81 225.97,-30.6 216.99,-24.99 215.45,-31.81"/>
</a>
</g>
</g>
<!-- Node3 -->
<g id="Node000003" class="node">
<title>Node3</title>
<g id="a_Node000003"><a xlink:href="slam__test_8cpp.html#aa751639fa208fe991a3ba5969c0daa28" target="_top" xlink:title="Test the EKF SLAM algorithm in a linear movement.">
<polygon fill="white" stroke="#666666" points="40.75,-99.25 0,-99.25 0,-80 40.75,-80 40.75,-99.25"/>
<text text-anchor="middle" x="20.38" y="-85.75" font-family="Helvetica,sans-Serif" font-size="10.00">TEST</text>
</a>
</g>
</g>
<!-- Node2&#45;&gt;Node3 -->
<g id="edge2_Node000002_Node000003" class="edge">
<title>Node2&#45;&gt;Node3</title>
<g id="a_edge2_Node000002_Node000003"><a xlink:title=" ">
<path fill="none" stroke="#63b8ff" d="M65.28,-89.62C56.52,-89.62 48.15,-89.62 41.11,-89.62"/>
<polygon fill="#63b8ff" stroke="#63b8ff" points="65,-93.13 75,-89.63 65,-86.13 65,-93.13"/>
</a>
</g>
</g>
</g>
</svg>
