<?xml version="1.0" encoding="UTF-8" standalone="no"?>
<!DOCTYPE svg PUBLIC "-//W3C//DTD SVG 1.1//EN"
 "http://www.w3.org/Graphics/SVG/1.1/DTD/svg11.dtd">
<!-- Generated by graphviz version 9.0.0 (20230911.1827)
 -->
<!-- Title: Publisher Pages: 1 -->
<svg width="72pt" height="142pt"
 viewBox="0.00 0.00 72.00 142.00" xmlns="http://www.w3.org/2000/svg" xmlns:xlink="http://www.w3.org/1999/xlink">
<g id="graph0" class="graph" transform="scale(1 1) rotate(0) translate(4 138)">
<title>Publisher</title>
<!-- Node1 -->
<g id="Node000001" class="node">
<title>Node1</title>
<g id="a_Node000001"><a xlink:title=" ">
<polygon fill="#999999" stroke="none" points="64,-49 0,-49 0,0 64,0 64,-49"/>
<text text-anchor="start" x="11.75" y="-35.5" font-family="Helvetica,sans-Serif" font-size="10.00">Publisher</text>
<text text-anchor="start" x="30.5" y="-20.5" font-family="Helvetica,sans-Serif" font-size="10.00"> </text>
<text text-anchor="start" x="4" y="-5.5" font-family="Helvetica,sans-Serif" font-size="10.00">+</text>
<text text-anchor="start" x="14" y="-5.5" font-family="Helvetica,sans-Serif" font-size="10.00">Publisher()</text>
<polygon fill="#666666" stroke="#666666" points="0,-32 0,-32 64,-32 64,-32 0,-32"/>
<polygon fill="#666666" stroke="#666666" points="0,-17 0,-17 64,-17 64,-17 0,-17"/>
<polygon fill="none" stroke="#666666" points="0,0 0,-49 64,-49 64,0 0,0"/>
</a>
</g>
</g>
<!-- Node2 -->
<g id="Node000002" class="node">
<title>Node2</title>
<g id="a_Node000002"><a xlink:title=" ">
<polygon fill="white" stroke="none" points="64,-134 0,-134 0,-85 64,-85 64,-134"/>
<text text-anchor="start" x="5" y="-120.5" font-family="Helvetica,sans-Serif" font-size="10.00">rclcpp::Node</text>
<text text-anchor="start" x="30.5" y="-105.5" font-family="Helvetica,sans-Serif" font-size="10.00"> </text>
<text text-anchor="start" x="30.5" y="-90.5" font-family="Helvetica,sans-Serif" font-size="10.00"> </text>
<polygon fill="#666666" stroke="#666666" points="0,-117 0,-117 64,-117 64,-117 0,-117"/>
<polygon fill="#666666" stroke="#666666" points="0,-102 0,-102 64,-102 64,-102 0,-102"/>
<polygon fill="none" stroke="#666666" points="0,-85 0,-134 64,-134 64,-85 0,-85"/>
</a>
</g>
</g>
<!-- Node2&#45;&gt;Node1 -->
<g id="edge1_Node000001_Node000002" class="edge">
<title>Node2&#45;&gt;Node1</title>
<g id="a_edge1_Node000001_Node000002"><a xlink:title=" ">
<path fill="none" stroke="#63b8ff" d="M32,-74.14C32,-65.6 32,-56.65 32,-48.78"/>
<polygon fill="none" stroke="#63b8ff" points="28.5,-73.87 32,-83.87 35.5,-73.87 28.5,-73.87"/>
</a>
</g>
</g>
</g>
</svg>
