<?xml version="1.0" encoding="UTF-8" standalone="no"?>
<!DOCTYPE svg PUBLIC "-//W3C//DTD SVG 1.1//EN"
 "http://www.w3.org/Graphics/SVG/1.1/DTD/svg11.dtd">
<!-- Generated by graphviz version 9.0.0 (20230911.1827)
 -->
<!-- Title: Cone::getDistanceTo Pages: 1 -->
<svg width="606pt" height="151pt"
 viewBox="0.00 0.00 606.25 150.88" xmlns="http://www.w3.org/2000/svg" xmlns:xlink="http://www.w3.org/1999/xlink">
<g id="graph0" class="graph" transform="scale(1 1) rotate(0) translate(4 146.88)">
<title>Cone::getDistanceTo</title>
<!-- Node1 -->
<g id="Node000001" class="node">
<title>Node1</title>
<g id="a_Node000001"><a xlink:title=" ">
<polygon fill="#999999" stroke="#666666" points="598.25,-45.88 492.25,-45.88 492.25,-26.62 598.25,-26.62 598.25,-45.88"/>
<text text-anchor="middle" x="545.25" y="-32.38" font-family="Helvetica,sans-Serif" font-size="10.00">Cone::getDistanceTo</text>
</a>
</g>
</g>
<!-- Node2 -->
<g id="Node000002" class="node">
<title>Node2</title>
<g id="a_Node000002"><a xlink:href="classTrack.html#a621e3153e10358d3be704ac51bcc400d" target="_top" xlink:title="Delete outliers from the track.">
<polygon fill="white" stroke="#666666" points="456.25,-67.88 351,-67.88 351,-48.62 456.25,-48.62 456.25,-67.88"/>
<text text-anchor="middle" x="403.62" y="-54.38" font-family="Helvetica,sans-Serif" font-size="10.00">Track::deleteOutliers</text>
</a>
</g>
</g>
<!-- Node1&#45;&gt;Node2 -->
<g id="edge1_Node000001_Node000002" class="edge">
<title>Node1&#45;&gt;Node2</title>
<g id="a_edge1_Node000001_Node000002"><a xlink:title=" ">
<path fill="none" stroke="#63b8ff" d="M480.54,-46.29C472.45,-47.56 464.25,-48.86 456.38,-50.1"/>
<polygon fill="#63b8ff" stroke="#63b8ff" points="481.03,-49.75 490.37,-44.74 479.94,-42.84 481.03,-49.75"/>
</a>
</g>
</g>
<!-- Node10 -->
<g id="Node000010" class="node">
<title>Node10</title>
<g id="a_Node000010"><a xlink:href="classGlobalPathPlanner.html#a647ee276296802fe82b67e6ef3374d51" target="_top" xlink:title=" ">
<polygon fill="white" stroke="#666666" points="454.38,-30.5 352.88,-30.5 352.88,0 454.38,0 454.38,-30.5"/>
<text text-anchor="start" x="360.88" y="-17" font-family="Helvetica,sans-Serif" font-size="10.00">GlobalPathPlanner::</text>
<text text-anchor="middle" x="403.62" y="-5.75" font-family="Helvetica,sans-Serif" font-size="10.00">middlePath</text>
</a>
</g>
</g>
<!-- Node1&#45;&gt;Node10 -->
<g id="edge9_Node000001_Node000010" class="edge">
<title>Node1&#45;&gt;Node10</title>
<g id="a_edge9_Node000001_Node000010"><a xlink:title=" ">
<path fill="none" stroke="#63b8ff" d="M480.52,-26.66C471.8,-25.35 462.96,-24.02 454.53,-22.76"/>
<polygon fill="#63b8ff" stroke="#63b8ff" points="479.96,-30.12 490.36,-28.15 481,-23.2 479.96,-30.12"/>
</a>
</g>
</g>
<!-- Node3 -->
<g id="Node000003" class="node">
<title>Node3</title>
<g id="a_Node000003"><a xlink:href="classTrack.html#a23bfa04cf9977718fa8b482a6371c9b2" target="_top" xlink:title="Validate the cones in the track by deleting outliers.">
<polygon fill="white" stroke="#666666" points="315,-67.88 208.25,-67.88 208.25,-48.62 315,-48.62 315,-67.88"/>
<text text-anchor="middle" x="261.62" y="-54.38" font-family="Helvetica,sans-Serif" font-size="10.00">Track::validateCones</text>
</a>
</g>
</g>
<!-- Node2&#45;&gt;Node3 -->
<g id="edge2_Node000002_Node000003" class="edge">
<title>Node2&#45;&gt;Node3</title>
<g id="a_edge2_Node000002_Node000003"><a xlink:title=" ">
<path fill="none" stroke="#63b8ff" d="M339.49,-58.25C331.33,-58.25 323.04,-58.25 315.08,-58.25"/>
<polygon fill="#63b8ff" stroke="#63b8ff" points="339.38,-61.75 349.38,-58.25 339.38,-54.75 339.38,-61.75"/>
</a>
</g>
</g>
<!-- Node4 -->
<g id="Node000004" class="node">
<title>Node4</title>
<g id="a_Node000004"><a xlink:href="tests_8cpp.html#a079261152f3ac81df46a49a1b3fb0f2d" target="_top" xlink:title=" ">
<polygon fill="white" stroke="#666666" points="172.25,-86.88 76.75,-86.88 76.75,-67.62 172.25,-67.62 172.25,-86.88"/>
<text text-anchor="middle" x="124.5" y="-73.38" font-family="Helvetica,sans-Serif" font-size="10.00">outlierCalculations</text>
</a>
</g>
</g>
<!-- Node3&#45;&gt;Node4 -->
<g id="edge3_Node000003_Node000004" class="edge">
<title>Node3&#45;&gt;Node4</title>
<g id="a_edge3_Node000003_Node000004"><a xlink:title=" ">
<path fill="none" stroke="#63b8ff" d="M196.6,-67.25C188.47,-68.4 180.28,-69.55 172.48,-70.64"/>
<polygon fill="#63b8ff" stroke="#63b8ff" points="197.08,-70.72 206.5,-65.86 196.11,-63.79 197.08,-70.72"/>
</a>
</g>
</g>
<!-- Node9 -->
<g id="Node000009" class="node">
<title>Node9</title>
<g id="a_Node000009"><a xlink:href="tests_8cpp.html#ac9d004c8db77da8d75a6229a398bfcba" target="_top" xlink:title=" ">
<polygon fill="white" stroke="#666666" points="144.88,-49.88 104.12,-49.88 104.12,-30.62 144.88,-30.62 144.88,-49.88"/>
<text text-anchor="middle" x="124.5" y="-36.38" font-family="Helvetica,sans-Serif" font-size="10.00">TEST</text>
</a>
</g>
</g>
<!-- Node3&#45;&gt;Node9 -->
<g id="edge8_Node000003_Node000009" class="edge">
<title>Node3&#45;&gt;Node9</title>
<g id="a_edge8_Node000003_Node000009"><a xlink:title=" ">
<path fill="none" stroke="#63b8ff" d="M196.73,-49.74C177.96,-47.24 158.82,-44.69 145.11,-42.86"/>
<polygon fill="#63b8ff" stroke="#63b8ff" points="196.12,-53.19 206.49,-51.04 197.04,-46.25 196.12,-53.19"/>
</a>
</g>
</g>
<!-- Node5 -->
<g id="Node000005" class="node">
<title>Node5</title>
<g id="a_Node000005"><a xlink:href="tests_8cpp.html#aa39b06d40b7290dacc01a79720a31e09" target="_top" xlink:title=" ">
<polygon fill="white" stroke="#666666" points="40.75,-142.88 0,-142.88 0,-123.62 40.75,-123.62 40.75,-142.88"/>
<text text-anchor="middle" x="20.38" y="-129.38" font-family="Helvetica,sans-Serif" font-size="10.00">TEST</text>
</a>
</g>
</g>
<!-- Node4&#45;&gt;Node5 -->
<g id="edge4_Node000004_Node000005" class="edge">
<title>Node4&#45;&gt;Node5</title>
<g id="a_edge4_Node000004_Node000005"><a xlink:title=" ">
<path fill="none" stroke="#63b8ff" d="M95.43,-92.64C77.71,-102.36 55.32,-114.64 39.82,-123.14"/>
<polygon fill="#63b8ff" stroke="#63b8ff" points="96.83,-95.87 103.91,-87.99 93.46,-89.73 96.83,-95.87"/>
</a>
</g>
</g>
<!-- Node6 -->
<g id="Node000006" class="node">
<title>Node6</title>
<g id="a_Node000006"><a xlink:href="tests_8cpp.html#a5436909e02106ab864f366dc30568a7d" target="_top" xlink:title=" ">
<polygon fill="white" stroke="#666666" points="40.75,-105.88 0,-105.88 0,-86.62 40.75,-86.62 40.75,-105.88"/>
<text text-anchor="middle" x="20.38" y="-92.38" font-family="Helvetica,sans-Serif" font-size="10.00">TEST</text>
</a>
</g>
</g>
<!-- Node4&#45;&gt;Node6 -->
<g id="edge5_Node000004_Node000006" class="edge">
<title>Node4&#45;&gt;Node6</title>
<g id="a_edge5_Node000004_Node000006"><a xlink:title=" ">
<path fill="none" stroke="#63b8ff" d="M65.24,-88.09C56.55,-89.71 48.14,-91.27 41.06,-92.59"/>
<polygon fill="#63b8ff" stroke="#63b8ff" points="65.64,-91.57 74.84,-86.3 64.36,-84.69 65.64,-91.57"/>
</a>
</g>
</g>
<!-- Node7 -->
<g id="Node000007" class="node">
<title>Node7</title>
<g id="a_Node000007"><a xlink:href="tests_8cpp.html#a6c463cf30fcc67ae6b2ff38e382cecd0" target="_top" xlink:title=" ">
<polygon fill="white" stroke="#666666" points="40.75,-68.88 0,-68.88 0,-49.62 40.75,-49.62 40.75,-68.88"/>
<text text-anchor="middle" x="20.38" y="-55.38" font-family="Helvetica,sans-Serif" font-size="10.00">TEST</text>
</a>
</g>
</g>
<!-- Node4&#45;&gt;Node7 -->
<g id="edge6_Node000004_Node000007" class="edge">
<title>Node4&#45;&gt;Node7</title>
<g id="a_edge6_Node000004_Node000007"><a xlink:title=" ">
<path fill="none" stroke="#63b8ff" d="M65.24,-66.98C56.55,-65.45 48.14,-63.97 41.06,-62.72"/>
<polygon fill="#63b8ff" stroke="#63b8ff" points="64.38,-70.38 74.83,-68.67 65.59,-63.49 64.38,-70.38"/>
</a>
</g>
</g>
<!-- Node8 -->
<g id="Node000008" class="node">
<title>Node8</title>
<g id="a_Node000008"><a xlink:href="tests_8cpp.html#a08dff1d6d2b732a0cd35660ad29e426e" target="_top" xlink:title=" ">
<polygon fill="white" stroke="#666666" points="40.75,-31.88 0,-31.88 0,-12.62 40.75,-12.62 40.75,-31.88"/>
<text text-anchor="middle" x="20.38" y="-18.38" font-family="Helvetica,sans-Serif" font-size="10.00">TEST</text>
</a>
</g>
</g>
<!-- Node4&#45;&gt;Node8 -->
<g id="edge7_Node000004_Node000008" class="edge">
<title>Node4&#45;&gt;Node8</title>
<g id="a_edge7_Node000004_Node000008"><a xlink:title=" ">
<path fill="none" stroke="#63b8ff" d="M84.03,-62.78C81.54,-61.65 79.1,-60.47 76.75,-59.25 61.56,-51.37 45.42,-40.24 34.51,-32.24"/>
<polygon fill="#63b8ff" stroke="#63b8ff" points="82.42,-65.9 92.99,-66.59 85.16,-59.46 82.42,-65.9"/>
</a>
</g>
</g>
</g>
</svg>
