<?xml version="1.0" encoding="UTF-8" standalone="no"?>
<!DOCTYPE svg PUBLIC "-//W3C//DTD SVG 1.1//EN"
 "http://www.w3.org/Graphics/SVG/1.1/DTD/svg11.dtd">
<!-- Generated by graphviz version 9.0.0 (20230911.1827)
 -->
<!-- Title: GlobalPathPlanner::middlePath Pages: 1 -->
<svg width="373pt" height="239pt"
 viewBox="0.00 0.00 372.50 239.14" xmlns="http://www.w3.org/2000/svg" xmlns:xlink="http://www.w3.org/1999/xlink">

<svg id="main" version="1.1" xmlns="http://www.w3.org/2000/svg" xmlns:xlink="http://www.w3.org/1999/xlink" xml:space="preserve" onload="init(evt)">
<style type="text/css"><![CDATA[
.node, .edge {opacity: 0.7;}
.node.selected, .edge.selected {opacity: 1;}
.edge:hover path { stroke: red; }
.edge:hover polygon { stroke: red; fill: red; }
]]></style>
<script type="application/ecmascript" xlink:href="svg.min.js"/>
<svg id="graph" class="graph">
<g id="graph0" class="graph" transform="scale(1 1) rotate(0) translate(4 235.14)">
<title>GlobalPathPlanner::middlePath</title>
<!-- Node1 -->
<g id="Node000001" class="node">
<title>Node1</title>
<g id="a_Node000001"><a xlink:title=" ">
<polygon fill="#999999" stroke="#666666" points="101.5,-135.88 0,-135.88 0,-105.38 101.5,-105.38 101.5,-135.88"/>
<text text-anchor="start" x="8" y="-122.38" font-family="Helvetica,sans-Serif" font-size="10.00">GlobalPathPlanner::</text>
<text text-anchor="middle" x="50.75" y="-111.12" font-family="Helvetica,sans-Serif" font-size="10.00">middlePath</text>
</a>
</g>
</g>
<!-- Node2 -->
<g id="Node000002" class="node">
<title>Node2</title>
<g id="a_Node000002"><a xlink:href="classCone.html#a1fd598dec938e232ee09e16abe1b6a0d" target="_top" xlink:title=" ">
<polygon fill="white" stroke="#666666" points="254.38,-206.25 148.38,-206.25 148.38,-187 254.38,-187 254.38,-206.25"/>
<text text-anchor="middle" x="201.38" y="-192.75" font-family="Helvetica,sans-Serif" font-size="10.00">Cone::getDistanceTo</text>
</a>
</g>
</g>
<!-- Node1&#45;&gt;Node2 -->
<g id="edge1_Node000001_Node000002" class="edge">
<title>Node1&#45;&gt;Node2</title>
<g id="a_edge1_Node000001_Node000002"><a xlink:title=" ">
<path fill="none" stroke="#63b8ff" d="M74.77,-136.15C91.67,-147.16 115.45,-161.84 137.5,-172.62 144.71,-176.15 152.57,-179.51 160.22,-182.54"/>
<polygon fill="#63b8ff" stroke="#63b8ff" points="158.79,-185.74 169.38,-186.05 161.29,-179.2 158.79,-185.74"/>
</a>
</g>
</g>
<!-- Node3 -->
<g id="Node000003" class="node">
<title>Node3</title>
<g id="a_Node000003"><a xlink:href="classCone.html#a51a49cc249e79d06f6a983250fe809b3" target="_top" xlink:title=" ">
<polygon fill="white" stroke="#666666" points="364.5,-224.25 301.25,-224.25 301.25,-205 364.5,-205 364.5,-224.25"/>
<text text-anchor="middle" x="332.88" y="-210.75" font-family="Helvetica,sans-Serif" font-size="10.00">Cone::getX</text>
</a>
</g>
</g>
<!-- Node1&#45;&gt;Node3 -->
<g id="edge8_Node000001_Node000003" class="edge">
<title>Node1&#45;&gt;Node3</title>
<g id="a_edge8_Node000001_Node000003"><a xlink:title=" ">
<path fill="none" stroke="#63b8ff" d="M60.06,-136.1C73.1,-158.56 100.75,-199.29 137.5,-215.62 186.3,-237.32 249.04,-231.81 289.84,-224.44"/>
<polygon fill="#63b8ff" stroke="#63b8ff" points="290.36,-227.9 299.51,-222.57 289.03,-221.03 290.36,-227.9"/>
</a>
</g>
</g>
<!-- Node4 -->
<g id="Node000004" class="node">
<title>Node4</title>
<g id="a_Node000004"><a xlink:href="classCone.html#a952987a9de5d20d7930b3e93c04fd278" target="_top" xlink:title=" ">
<polygon fill="white" stroke="#666666" points="364.5,-187.25 301.25,-187.25 301.25,-168 364.5,-168 364.5,-187.25"/>
<text text-anchor="middle" x="332.88" y="-173.75" font-family="Helvetica,sans-Serif" font-size="10.00">Cone::getY</text>
</a>
</g>
</g>
<!-- Node1&#45;&gt;Node4 -->
<g id="edge9_Node000001_Node000004" class="edge">
<title>Node1&#45;&gt;Node4</title>
<g id="a_edge9_Node000001_Node000004"><a xlink:title=" ">
<path fill="none" stroke="#63b8ff" d="M101.58,-131.89C113.35,-134.49 125.86,-137.2 137.5,-139.62 189.78,-150.52 250.16,-162.18 289.58,-169.67"/>
<polygon fill="#63b8ff" stroke="#63b8ff" points="288.89,-173.1 299.37,-171.53 290.19,-166.23 288.89,-173.1"/>
</a>
</g>
</g>
<!-- Node5 -->
<g id="Node000005" class="node">
<title>Node5</title>
<g id="a_Node000005"><a xlink:href="classTrack.html#aeb46e6fbc74096c298262b84cd81b77f" target="_top" xlink:title="Get the left cone at a specified index.">
<polygon fill="white" stroke="#666666" points="255.5,-130.25 147.25,-130.25 147.25,-111 255.5,-111 255.5,-130.25"/>
<text text-anchor="middle" x="201.38" y="-116.75" font-family="Helvetica,sans-Serif" font-size="10.00">Track::getLeftConeAt</text>
</a>
</g>
</g>
<!-- Node1&#45;&gt;Node5 -->
<g id="edge4_Node000001_Node000005" class="edge">
<title>Node1&#45;&gt;Node5</title>
<g id="a_edge4_Node000001_Node000005"><a xlink:title=" ">
<path fill="none" stroke="#63b8ff" d="M101.65,-120.62C112.53,-120.62 124.2,-120.62 135.56,-120.62"/>
<polygon fill="#63b8ff" stroke="#63b8ff" points="135.27,-124.13 145.27,-120.63 135.27,-117.13 135.27,-124.13"/>
</a>
</g>
</g>
<!-- Node6 -->
<g id="Node000006" class="node">
<title>Node6</title>
<g id="a_Node000006"><a xlink:href="classTrack.html#a394133c01100ca42facbb28150db9e7d" target="_top" xlink:title="Get the number of left cones.">
<polygon fill="white" stroke="#666666" points="262.62,-93.25 140.12,-93.25 140.12,-74 262.62,-74 262.62,-93.25"/>
<text text-anchor="middle" x="201.38" y="-79.75" font-family="Helvetica,sans-Serif" font-size="10.00">Track::getLeftConesSize</text>
</a>
</g>
</g>
<!-- Node1&#45;&gt;Node6 -->
<g id="edge5_Node000001_Node000006" class="edge">
<title>Node1&#45;&gt;Node6</title>
<g id="a_edge5_Node000001_Node000006"><a xlink:title=" ">
<path fill="none" stroke="#63b8ff" d="M101.65,-108.2C116.85,-104.42 133.59,-100.25 148.89,-96.44"/>
<polygon fill="#63b8ff" stroke="#63b8ff" points="149.41,-99.92 158.27,-94.11 147.72,-93.13 149.41,-99.92"/>
</a>
</g>
</g>
<!-- Node7 -->
<g id="Node000007" class="node">
<title>Node7</title>
<g id="a_Node000007"><a xlink:href="classTrack.html#a95fe146ead9aae192047e1f0a2c6c3c8" target="_top" xlink:title="Get the right cone at a specified index.">
<polygon fill="white" stroke="#666666" points="258.12,-56.25 144.62,-56.25 144.62,-37 258.12,-37 258.12,-56.25"/>
<text text-anchor="middle" x="201.38" y="-42.75" font-family="Helvetica,sans-Serif" font-size="10.00">Track::getRightConeAt</text>
</a>
</g>
</g>
<!-- Node1&#45;&gt;Node7 -->
<g id="edge6_Node000001_Node000007" class="edge">
<title>Node1&#45;&gt;Node7</title>
<g id="a_edge6_Node000001_Node000007"><a xlink:title=" ">
<path fill="none" stroke="#63b8ff" d="M71.88,-104.97C88.65,-92.57 113.57,-75.56 137.5,-64.62 140.8,-63.11 144.27,-61.7 147.79,-60.38"/>
<polygon fill="#63b8ff" stroke="#63b8ff" points="148.72,-63.76 157.05,-57.21 146.45,-57.14 148.72,-63.76"/>
</a>
</g>
</g>
<!-- Node8 -->
<g id="Node000008" class="node">
<title>Node8</title>
<g id="a_Node000008"><a xlink:href="classTrack.html#a509060ab3a7c34a9fc435b507e4bd49d" target="_top" xlink:title="Get the number of right cones.">
<polygon fill="white" stroke="#666666" points="265.25,-19.25 137.5,-19.25 137.5,0 265.25,0 265.25,-19.25"/>
<text text-anchor="middle" x="201.38" y="-5.75" font-family="Helvetica,sans-Serif" font-size="10.00">Track::getRightConesSize</text>
</a>
</g>
</g>
<!-- Node1&#45;&gt;Node8 -->
<g id="edge7_Node000001_Node000008" class="edge">
<title>Node1&#45;&gt;Node8</title>
<g id="a_edge7_Node000001_Node000008"><a xlink:title=" ">
<path fill="none" stroke="#63b8ff" d="M62,-105C76.4,-84.26 104.6,-47.91 137.5,-27.62 139.5,-26.39 141.59,-25.24 143.74,-24.16"/>
<polygon fill="#63b8ff" stroke="#63b8ff" points="144.95,-27.45 152.74,-20.27 142.18,-21.03 144.95,-27.45"/>
</a>
</g>
</g>
<!-- Node2&#45;&gt;Node3 -->
<g id="edge2_Node000002_Node000003" class="edge">
<title>Node2&#45;&gt;Node3</title>
<g id="a_edge2_Node000002_Node000003"><a xlink:title=" ">
<path fill="none" stroke="#63b8ff" d="M254.67,-203.89C266.34,-205.52 278.58,-207.22 289.77,-208.77"/>
<polygon fill="#63b8ff" stroke="#63b8ff" points="289.11,-212.22 299.5,-210.13 290.08,-205.28 289.11,-212.22"/>
</a>
</g>
</g>
<!-- Node2&#45;&gt;Node4 -->
<g id="edge3_Node000002_Node000004" class="edge">
<title>Node2&#45;&gt;Node4</title>
<g id="a_edge3_Node000002_Node000004"><a xlink:title=" ">
<path fill="none" stroke="#63b8ff" d="M254.67,-188.95C266.34,-187.24 278.58,-185.44 289.77,-183.8"/>
<polygon fill="#63b8ff" stroke="#63b8ff" points="290.12,-187.29 299.5,-182.37 289.1,-180.36 290.12,-187.29"/>
</a>
</g>
</g>
</g>
</svg>
</svg>

<style type='text/css'>
<![CDATA[
[data-mouse-over-selected='false'] { opacity: 0.7; }
[data-mouse-over-selected='true']  { opacity: 1.0; }
]]>
</style>
<script type="application/ecmascript"><![CDATA[
document.addEventListener('DOMContentLoaded', (event) => {
  highlightEdges();
  highlightAdjacentNodes();
});
]]></script>
</svg>
