<?xml version="1.0" encoding="UTF-8" standalone="no"?>
<!DOCTYPE svg PUBLIC "-//W3C//DTD SVG 1.1//EN"
 "http://www.w3.org/Graphics/SVG/1.1/DTD/svg11.dtd">
<!-- Generated by graphviz version 9.0.0 (20230911.1827)
 -->
<!-- Title: MotionModel Pages: 1 -->
<svg width="274pt" height="250pt"
 viewBox="0.00 0.00 274.00 250.00" xmlns="http://www.w3.org/2000/svg" xmlns:xlink="http://www.w3.org/1999/xlink">
<g id="graph0" class="graph" transform="scale(1 1) rotate(0) translate(4 246)">
<title>MotionModel</title>
<!-- Node1 -->
<g id="Node000001" class="node">
<title>Node1</title>
<g id="a_Node000001"><a xlink:title="Abstract Moiton Model class designed to be implemented by the different motion models.">
<polygon fill="#999999" stroke="none" points="209,-242 57,-242 57,-126 209,-126 209,-242"/>
<text text-anchor="start" x="105.25" y="-228.5" font-family="Helvetica,sans-Serif" font-size="10.00">MotionModel</text>
<text text-anchor="start" x="131.5" y="-213.5" font-family="Helvetica,sans-Serif" font-size="10.00"> </text>
<text text-anchor="start" x="61" y="-198.5" font-family="Helvetica,sans-Serif" font-size="10.00">+</text>
<text text-anchor="start" x="71" y="-198.5" font-family="Helvetica,sans-Serif" font-size="10.00">MotionModel()</text>
<text text-anchor="start" x="61" y="-183.5" font-family="Helvetica,sans-Serif" font-size="10.00">+</text>
<text text-anchor="start" x="71" y="-183.5" font-family="Helvetica,sans-Serif" font-size="10.00">predict_expected_state()</text>
<text text-anchor="start" x="61" y="-168.5" font-family="Helvetica,sans-Serif" font-size="10.00">+</text>
<text text-anchor="start" x="71" y="-168.5" font-family="Helvetica,sans-Serif" font-size="10.00">get_motion_to_state</text>
<text text-anchor="start" x="71" y="-157.25" font-family="Helvetica,sans-Serif" font-size="10.00">_matrix()</text>
<text text-anchor="start" x="61" y="-142.5" font-family="Helvetica,sans-Serif" font-size="10.00">+</text>
<text text-anchor="start" x="71" y="-142.5" font-family="Helvetica,sans-Serif" font-size="10.00">get_process_noise_covariance</text>
<text text-anchor="start" x="71" y="-131.25" font-family="Helvetica,sans-Serif" font-size="10.00">_matrix()</text>
<polygon fill="#666666" stroke="#666666" points="57,-225 57,-225 209,-225 209,-225 57,-225"/>
<polygon fill="#666666" stroke="#666666" points="57,-210 57,-210 209,-210 209,-210 57,-210"/>
<polygon fill="none" stroke="#666666" points="57,-126 57,-242 209,-242 209,-126 57,-126"/>
</a>
</g>
</g>
<!-- Node2 -->
<g id="Node000002" class="node">
<title>Node2</title>
<g id="a_Node000002"><a xlink:href="classImuVelocityModel.html" target="_top" xlink:title="Motion estimation that uses the specific values of the x and y axis accelerations,...">
<polygon fill="white" stroke="none" points="124,-90 0,-90 0,0 124,0 124,-90"/>
<text text-anchor="start" x="23.38" y="-76.5" font-family="Helvetica,sans-Serif" font-size="10.00">ImuVelocityModel</text>
<text text-anchor="start" x="60.5" y="-61.5" font-family="Helvetica,sans-Serif" font-size="10.00"> </text>
<text text-anchor="start" x="4" y="-46.5" font-family="Helvetica,sans-Serif" font-size="10.00">+</text>
<text text-anchor="start" x="14" y="-46.5" font-family="Helvetica,sans-Serif" font-size="10.00">ImuVelocityModel()</text>
<text text-anchor="start" x="4" y="-31.5" font-family="Helvetica,sans-Serif" font-size="10.00">+</text>
<text text-anchor="start" x="14" y="-31.5" font-family="Helvetica,sans-Serif" font-size="10.00">predict_expected_state()</text>
<text text-anchor="start" x="4" y="-16.5" font-family="Helvetica,sans-Serif" font-size="10.00">+</text>
<text text-anchor="start" x="14" y="-16.5" font-family="Helvetica,sans-Serif" font-size="10.00">get_motion_to_state</text>
<text text-anchor="start" x="14" y="-5.25" font-family="Helvetica,sans-Serif" font-size="10.00">_matrix()</text>
<polygon fill="#666666" stroke="#666666" points="0,-73 0,-73 124,-73 124,-73 0,-73"/>
<polygon fill="#666666" stroke="#666666" points="0,-58 0,-58 124,-58 124,-58 0,-58"/>
<polygon fill="none" stroke="#666666" points="0,0 0,-90 124,-90 124,0 0,0"/>
</a>
</g>
</g>
<!-- Node1&#45;&gt;Node2 -->
<g id="edge1_Node000001_Node000002" class="edge">
<title>Node1&#45;&gt;Node2</title>
<g id="a_edge1_Node000001_Node000002"><a xlink:title=" ">
<path fill="none" stroke="#63b8ff" d="M98.34,-116.12C93.74,-107.25 89.13,-98.34 84.8,-89.99"/>
<polygon fill="none" stroke="#63b8ff" points="95.1,-117.48 102.81,-124.75 101.32,-114.26 95.1,-117.48"/>
</a>
</g>
</g>
<!-- Node3 -->
<g id="Node000003" class="node">
<title>Node3</title>
<g id="a_Node000003"><a xlink:href="classNormalVelocityModel.html" target="_top" xlink:title="Motion estimation that uses the module of the velocity and the rotational velocity.">
<polygon fill="white" stroke="none" points="266,-90 142,-90 142,0 266,0 266,-90"/>
<text text-anchor="start" x="157.88" y="-76.5" font-family="Helvetica,sans-Serif" font-size="10.00">NormalVelocityModel</text>
<text text-anchor="start" x="202.5" y="-61.5" font-family="Helvetica,sans-Serif" font-size="10.00"> </text>
<text text-anchor="start" x="146" y="-46.5" font-family="Helvetica,sans-Serif" font-size="10.00">+</text>
<text text-anchor="start" x="156" y="-46.5" font-family="Helvetica,sans-Serif" font-size="10.00">NormalVelocityModel()</text>
<text text-anchor="start" x="146" y="-31.5" font-family="Helvetica,sans-Serif" font-size="10.00">+</text>
<text text-anchor="start" x="156" y="-31.5" font-family="Helvetica,sans-Serif" font-size="10.00">predict_expected_state()</text>
<text text-anchor="start" x="146" y="-16.5" font-family="Helvetica,sans-Serif" font-size="10.00">+</text>
<text text-anchor="start" x="156" y="-16.5" font-family="Helvetica,sans-Serif" font-size="10.00">get_motion_to_state</text>
<text text-anchor="start" x="156" y="-5.25" font-family="Helvetica,sans-Serif" font-size="10.00">_matrix()</text>
<polygon fill="#666666" stroke="#666666" points="142,-73 142,-73 266,-73 266,-73 142,-73"/>
<polygon fill="#666666" stroke="#666666" points="142,-58 142,-58 266,-58 266,-58 142,-58"/>
<polygon fill="none" stroke="#666666" points="142,0 142,-90 266,-90 266,0 142,0"/>
</a>
</g>
</g>
<!-- Node1&#45;&gt;Node3 -->
<g id="edge2_Node000001_Node000003" class="edge">
<title>Node1&#45;&gt;Node3</title>
<g id="a_edge2_Node000001_Node000003"><a xlink:title=" ">
<path fill="none" stroke="#63b8ff" d="M167.66,-116.12C172.26,-107.25 176.87,-98.34 181.2,-89.99"/>
<polygon fill="none" stroke="#63b8ff" points="164.68,-114.26 163.19,-124.75 170.9,-117.48 164.68,-114.26"/>
</a>
</g>
</g>
</g>
</svg>
