<?xml version="1.0" encoding="UTF-8" standalone="no"?>
<!DOCTYPE svg PUBLIC "-//W3C//DTD SVG 1.1//EN"
 "http://www.w3.org/Graphics/SVG/1.1/DTD/svg11.dtd">
<!-- Generated by graphviz version 9.0.0 (20230911.1827)
 -->
<!-- Title: Track::fillTrack Pages: 1 -->
<svg width="207pt" height="64pt"
 viewBox="0.00 0.00 206.50 64.25" xmlns="http://www.w3.org/2000/svg" xmlns:xlink="http://www.w3.org/1999/xlink">
<g id="graph0" class="graph" transform="scale(1 1) rotate(0) translate(4 60.25)">
<title>Track::fillTrack</title>
<!-- Node1 -->
<g id="Node000001" class="node">
<title>Node1</title>
<g id="a_Node000001"><a xlink:title="Fill the track data from a file.">
<polygon fill="#999999" stroke="#666666" points="79,-37.25 0,-37.25 0,-18 79,-18 79,-37.25"/>
<text text-anchor="middle" x="39.5" y="-23.75" font-family="Helvetica,sans-Serif" font-size="10.00">Track::fillTrack</text>
</a>
</g>
</g>
<!-- Node2 -->
<g id="Node000002" class="node">
<title>Node2</title>
<g id="a_Node000002"><a xlink:href="classTrack.html#adc534b0f22848fc22d7001bd7e1789dd" target="_top" xlink:title="Add a cone to the track if the color is appropriate.">
<polygon fill="white" stroke="#666666" points="198.5,-56.25 115,-56.25 115,-37 198.5,-37 198.5,-56.25"/>
<text text-anchor="middle" x="156.75" y="-42.75" font-family="Helvetica,sans-Serif" font-size="10.00">Track::addCone</text>
</a>
</g>
</g>
<!-- Node1&#45;&gt;Node2 -->
<g id="edge1_Node000001_Node000002" class="edge">
<title>Node1&#45;&gt;Node2</title>
<g id="a_edge1_Node000001_Node000002"><a xlink:title=" ">
<path fill="none" stroke="#63b8ff" d="M79.2,-34C86.93,-35.28 95.18,-36.64 103.28,-37.98"/>
<polygon fill="#63b8ff" stroke="#63b8ff" points="102.66,-41.42 113.09,-39.59 103.8,-34.51 102.66,-41.42"/>
</a>
</g>
</g>
<!-- Node3 -->
<g id="Node000003" class="node">
<title>Node3</title>
<g id="a_Node000003"><a xlink:href="files_8cpp.html#a440bc5364e11c37c13f14f7a0d1c7208" target="_top" xlink:title=" ">
<polygon fill="white" stroke="#666666" points="194.38,-19.25 119.12,-19.25 119.12,0 194.38,0 194.38,-19.25"/>
<text text-anchor="middle" x="156.75" y="-5.75" font-family="Helvetica,sans-Serif" font-size="10.00">openReadFile</text>
</a>
</g>
</g>
<!-- Node1&#45;&gt;Node3 -->
<g id="edge2_Node000001_Node000003" class="edge">
<title>Node1&#45;&gt;Node3</title>
<g id="a_edge2_Node000001_Node000003"><a xlink:title=" ">
<path fill="none" stroke="#63b8ff" d="M79.2,-21.58C88.31,-20.16 98.13,-18.62 107.6,-17.14"/>
<polygon fill="#63b8ff" stroke="#63b8ff" points="108.07,-20.61 117.41,-15.61 106.99,-13.7 108.07,-20.61"/>
</a>
</g>
</g>
</g>
</svg>
