<?xml version="1.0" encoding="UTF-8" standalone="no"?>
<!DOCTYPE svg PUBLIC "-//W3C//DTD SVG 1.1//EN"
 "http://www.w3.org/Graphics/SVG/1.1/DTD/svg11.dtd">
<!-- Generated by graphviz version 9.0.0 (20230911.1827)
 -->
<!-- Title: Track::validateCones Pages: 1 -->
<svg width="506pt" height="157pt"
 viewBox="0.00 0.00 505.50 156.71" xmlns="http://www.w3.org/2000/svg" xmlns:xlink="http://www.w3.org/1999/xlink">
<g id="graph0" class="graph" transform="scale(1 1) rotate(0) translate(4 152.71)">
<title>Track::validateCones</title>
<!-- Node1 -->
<g id="Node000001" class="node">
<title>Node1</title>
<g id="a_Node000001"><a xlink:title="Validate the cones in the track by deleting outliers.">
<polygon fill="#999999" stroke="#666666" points="106.75,-95.25 0,-95.25 0,-76 106.75,-76 106.75,-95.25"/>
<text text-anchor="middle" x="53.38" y="-81.75" font-family="Helvetica,sans-Serif" font-size="10.00">Track::validateCones</text>
</a>
</g>
</g>
<!-- Node2 -->
<g id="Node000002" class="node">
<title>Node2</title>
<g id="a_Node000002"><a xlink:href="classTrack.html#a621e3153e10358d3be704ac51bcc400d" target="_top" xlink:title="Delete outliers from the track.">
<polygon fill="white" stroke="#666666" points="248,-95.25 142.75,-95.25 142.75,-76 248,-76 248,-95.25"/>
<text text-anchor="middle" x="195.38" y="-81.75" font-family="Helvetica,sans-Serif" font-size="10.00">Track::deleteOutliers</text>
</a>
</g>
</g>
<!-- Node1&#45;&gt;Node2 -->
<g id="edge1_Node000001_Node000002" class="edge">
<title>Node1&#45;&gt;Node2</title>
<g id="a_edge1_Node000001_Node000002"><a xlink:title=" ">
<path fill="none" stroke="#63b8ff" d="M106.9,-85.62C114.81,-85.62 123.04,-85.62 131.15,-85.62"/>
<polygon fill="#63b8ff" stroke="#63b8ff" points="130.97,-89.13 140.97,-85.63 130.97,-82.13 130.97,-89.13"/>
</a>
</g>
</g>
<!-- Node3 -->
<g id="Node000003" class="node">
<title>Node3</title>
<g id="a_Node000003"><a xlink:href="classCone.html#a1fd598dec938e232ee09e16abe1b6a0d" target="_top" xlink:title=" ">
<polygon fill="white" stroke="#666666" points="394.12,-95.25 288.12,-95.25 288.12,-76 394.12,-76 394.12,-95.25"/>
<text text-anchor="middle" x="341.12" y="-81.75" font-family="Helvetica,sans-Serif" font-size="10.00">Cone::getDistanceTo</text>
</a>
</g>
</g>
<!-- Node2&#45;&gt;Node3 -->
<g id="edge2_Node000002_Node000003" class="edge">
<title>Node2&#45;&gt;Node3</title>
<g id="a_edge2_Node000002_Node000003"><a xlink:title=" ">
<path fill="none" stroke="#63b8ff" d="M248.27,-85.62C257.42,-85.62 267.04,-85.62 276.46,-85.62"/>
<polygon fill="#63b8ff" stroke="#63b8ff" points="276.31,-89.13 286.31,-85.63 276.31,-82.13 276.31,-89.13"/>
</a>
</g>
</g>
<!-- Node4 -->
<g id="Node000004" class="node">
<title>Node4</title>
<g id="a_Node000004"><a xlink:href="classCone.html#a51a49cc249e79d06f6a983250fe809b3" target="_top" xlink:title=" ">
<polygon fill="white" stroke="#666666" points="497.5,-132.25 434.25,-132.25 434.25,-113 497.5,-113 497.5,-132.25"/>
<text text-anchor="middle" x="465.88" y="-118.75" font-family="Helvetica,sans-Serif" font-size="10.00">Cone::getX</text>
</a>
</g>
</g>
<!-- Node2&#45;&gt;Node4 -->
<g id="edge5_Node000002_Node000004" class="edge">
<title>Node2&#45;&gt;Node4</title>
<g id="a_edge5_Node000002_Node000004"><a xlink:title=" ">
<path fill="none" stroke="#63b8ff" d="M207.23,-95.54C222.84,-109.06 253.15,-132.61 284,-141.62 330.69,-155.27 386.69,-145.61 423.89,-135.75"/>
<polygon fill="#63b8ff" stroke="#63b8ff" points="424.64,-139.18 433.34,-133.12 422.77,-132.43 424.64,-139.18"/>
</a>
</g>
</g>
<!-- Node5 -->
<g id="Node000005" class="node">
<title>Node5</title>
<g id="a_Node000005"><a xlink:href="classCone.html#a952987a9de5d20d7930b3e93c04fd278" target="_top" xlink:title=" ">
<polygon fill="white" stroke="#666666" points="497.5,-95.25 434.25,-95.25 434.25,-76 497.5,-76 497.5,-95.25"/>
<text text-anchor="middle" x="465.88" y="-81.75" font-family="Helvetica,sans-Serif" font-size="10.00">Cone::getY</text>
</a>
</g>
</g>
<!-- Node2&#45;&gt;Node5 -->
<g id="edge6_Node000002_Node000005" class="edge">
<title>Node2&#45;&gt;Node5</title>
<g id="a_edge6_Node000002_Node000005"><a xlink:title=" ">
<path fill="none" stroke="#63b8ff" d="M234.47,-75.51C249.75,-71.94 267.59,-68.38 284,-66.62 334.49,-61.21 347.96,-59.59 398.25,-66.62 407.13,-67.87 416.48,-70 425.29,-72.39"/>
<polygon fill="#63b8ff" stroke="#63b8ff" points="424.03,-75.67 434.61,-75.1 425.98,-68.95 424.03,-75.67"/>
</a>
</g>
</g>
<!-- Node6 -->
<g id="Node000006" class="node">
<title>Node6</title>
<g id="a_Node000006"><a xlink:href="files_8cpp.html#a257b6927df658c26c8eded5bf6d569d2" target="_top" xlink:title=" ">
<polygon fill="white" stroke="#666666" points="378.75,-19.25 303.5,-19.25 303.5,0 378.75,0 378.75,-19.25"/>
<text text-anchor="middle" x="341.12" y="-5.75" font-family="Helvetica,sans-Serif" font-size="10.00">openWriteFile</text>
</a>
</g>
</g>
<!-- Node2&#45;&gt;Node6 -->
<g id="edge7_Node000002_Node000006" class="edge">
<title>Node2&#45;&gt;Node6</title>
<g id="a_edge7_Node000002_Node000006"><a xlink:title=" ">
<path fill="none" stroke="#63b8ff" d="M211.85,-75.59C229.1,-64.62 257.97,-46.84 284,-33.62 290.45,-30.35 297.45,-27.12 304.25,-24.13"/>
<polygon fill="#63b8ff" stroke="#63b8ff" points="305.44,-27.43 313.26,-20.28 302.69,-20.99 305.44,-27.43"/>
</a>
</g>
</g>
<!-- Node7 -->
<g id="Node000007" class="node">
<title>Node7</title>
<g id="a_Node000007"><a xlink:href="classTrack.html#aceda92bc02f39cd9127b31bc04ef7feb" target="_top" xlink:title="Check if the direction of two cones is consistent.">
<polygon fill="white" stroke="#666666" points="398.25,-132.25 284,-132.25 284,-113 398.25,-113 398.25,-132.25"/>
<text text-anchor="middle" x="341.12" y="-118.75" font-family="Helvetica,sans-Serif" font-size="10.00">Track::vector_direction</text>
</a>
</g>
</g>
<!-- Node2&#45;&gt;Node7 -->
<g id="edge8_Node000002_Node000007" class="edge">
<title>Node2&#45;&gt;Node7</title>
<g id="a_edge8_Node000002_Node000007"><a xlink:title=" ">
<path fill="none" stroke="#63b8ff" d="M235.66,-95.74C252.37,-100.04 272.08,-105.11 289.84,-109.68"/>
<polygon fill="#63b8ff" stroke="#63b8ff" points="288.87,-113.05 299.43,-112.15 290.61,-106.27 288.87,-113.05"/>
</a>
</g>
</g>
<!-- Node3&#45;&gt;Node4 -->
<g id="edge3_Node000003_Node000004" class="edge">
<title>Node3&#45;&gt;Node4</title>
<g id="a_edge3_Node000003_Node000004"><a xlink:title=" ">
<path fill="none" stroke="#63b8ff" d="M375.67,-95.74C390.29,-100.14 407.59,-105.36 423.04,-110.01"/>
<polygon fill="#63b8ff" stroke="#63b8ff" points="421.87,-113.32 432.45,-112.85 423.89,-106.61 421.87,-113.32"/>
</a>
</g>
</g>
<!-- Node3&#45;&gt;Node5 -->
<g id="edge4_Node000003_Node000005" class="edge">
<title>Node3&#45;&gt;Node5</title>
<g id="a_edge4_Node000003_Node000005"><a xlink:title=" ">
<path fill="none" stroke="#63b8ff" d="M394.54,-85.62C403.87,-85.62 413.49,-85.62 422.5,-85.62"/>
<polygon fill="#63b8ff" stroke="#63b8ff" points="422.41,-89.13 432.41,-85.63 422.4,-82.13 422.41,-89.13"/>
</a>
</g>
</g>
<!-- Node7&#45;&gt;Node4 -->
<g id="edge9_Node000007_Node000004" class="edge">
<title>Node7&#45;&gt;Node4</title>
<g id="a_edge9_Node000007_Node000004"><a xlink:title=" ">
<path fill="none" stroke="#63b8ff" d="M398.47,-122.62C406.59,-122.62 414.83,-122.62 422.61,-122.62"/>
<polygon fill="#63b8ff" stroke="#63b8ff" points="422.48,-126.13 432.48,-122.63 422.48,-119.13 422.48,-126.13"/>
</a>
</g>
</g>
<!-- Node7&#45;&gt;Node5 -->
<g id="edge10_Node000007_Node000005" class="edge">
<title>Node7&#45;&gt;Node5</title>
<g id="a_edge10_Node000007_Node000005"><a xlink:title=" ">
<path fill="none" stroke="#63b8ff" d="M375.67,-112.51C390.29,-108.11 407.59,-102.89 423.04,-98.24"/>
<polygon fill="#63b8ff" stroke="#63b8ff" points="423.89,-101.64 432.45,-95.4 421.87,-94.93 423.89,-101.64"/>
</a>
</g>
</g>
</g>
</svg>
