<?xml version="1.0" encoding="UTF-8" standalone="no"?>
<!DOCTYPE svg PUBLIC "-//W3C//DTD SVG 1.1//EN"
 "http://www.w3.org/Graphics/SVG/1.1/DTD/svg11.dtd">
<!-- Generated by graphviz version 9.0.0 (20230911.1827)
 -->
<!-- Title: plots.plots.Position.distance Pages: 1 -->
<svg width="285pt" height="138pt"
 viewBox="0.00 0.00 285.25 138.25" xmlns="http://www.w3.org/2000/svg" xmlns:xlink="http://www.w3.org/1999/xlink">
<g id="graph0" class="graph" transform="scale(1 1) rotate(0) translate(4 134.25)">
<title>plots.plots.Position.distance</title>
<!-- Node1 -->
<g id="Node000001" class="node">
<title>Node1</title>
<g id="a_Node000001"><a xlink:title=" ">
<polygon fill="#999999" stroke="#666666" points="136.75,-74.25 0,-74.25 0,-55 136.75,-55 136.75,-74.25"/>
<text text-anchor="middle" x="68.38" y="-60.75" font-family="Helvetica,sans-Serif" font-size="10.00">plots.plots.Position.distance</text>
</a>
</g>
</g>
<!-- Node2 -->
<g id="Node000002" class="node">
<title>Node2</title>
<g id="a_Node000002"><a xlink:href="classplots_1_1plots_1_1Position.html#a4bafbddc83d0669eb7efa84eecd8d7f5" target="_top" xlink:title=" ">
<polygon fill="white" stroke="#666666" points="277.25,-130.25 172.75,-130.25 172.75,-111 277.25,-111 277.25,-130.25"/>
<text text-anchor="middle" x="225" y="-116.75" font-family="Helvetica,sans-Serif" font-size="10.00">plots.plots.Position.x</text>
</a>
</g>
</g>
<!-- Node1&#45;&gt;Node2 -->
<g id="edge1_Node000001_Node000002" class="edge">
<title>Node1&#45;&gt;Node2</title>
<g id="a_edge1_Node000001_Node000002"><a xlink:title=" ">
<path fill="none" stroke="#63b8ff" d="M96.54,-74.73C117.37,-82.45 146.84,-93.31 172.75,-102.62 176.46,-103.96 180.32,-105.33 184.18,-106.7"/>
<polygon fill="#63b8ff" stroke="#63b8ff" points="182.95,-109.98 193.55,-110.01 185.28,-103.38 182.95,-109.98"/>
</a>
</g>
</g>
<!-- Node3 -->
<g id="Node000003" class="node">
<title>Node3</title>
<g id="a_Node000003"><a xlink:href="classplots_1_1plots_1_1Position.html#a066356bbe5fae7067f4e6f84f8c1248c" target="_top" xlink:title=" ">
<polygon fill="white" stroke="#666666" points="277.25,-93.25 172.75,-93.25 172.75,-74 277.25,-74 277.25,-93.25"/>
<text text-anchor="middle" x="225" y="-79.75" font-family="Helvetica,sans-Serif" font-size="10.00">plots.plots.Position.x</text>
</a>
</g>
</g>
<!-- Node1&#45;&gt;Node3 -->
<g id="edge2_Node000001_Node000003" class="edge">
<title>Node1&#45;&gt;Node3</title>
<g id="a_edge2_Node000001_Node000003"><a xlink:title=" ">
<path fill="none" stroke="#63b8ff" d="M137.2,-72.96C145.16,-73.94 153.25,-74.93 161.14,-75.9"/>
<polygon fill="#63b8ff" stroke="#63b8ff" points="160.65,-79.37 171,-77.11 161.51,-72.42 160.65,-79.37"/>
</a>
</g>
</g>
<!-- Node4 -->
<g id="Node000004" class="node">
<title>Node4</title>
<g id="a_Node000004"><a xlink:href="classplots_1_1plots_1_1Position.html#a655cdf6a4d5f54d0b5ccccfe496ed62b" target="_top" xlink:title=" ">
<polygon fill="white" stroke="#666666" points="277.25,-56.25 172.75,-56.25 172.75,-37 277.25,-37 277.25,-56.25"/>
<text text-anchor="middle" x="225" y="-42.75" font-family="Helvetica,sans-Serif" font-size="10.00">plots.plots.Position.y</text>
</a>
</g>
</g>
<!-- Node1&#45;&gt;Node4 -->
<g id="edge3_Node000001_Node000004" class="edge">
<title>Node1&#45;&gt;Node4</title>
<g id="a_edge3_Node000001_Node000004"><a xlink:title=" ">
<path fill="none" stroke="#63b8ff" d="M137.2,-56.73C145.16,-55.8 153.25,-54.86 161.14,-53.94"/>
<polygon fill="#63b8ff" stroke="#63b8ff" points="161.48,-57.43 171,-52.79 160.67,-50.47 161.48,-57.43"/>
</a>
</g>
</g>
<!-- Node5 -->
<g id="Node000005" class="node">
<title>Node5</title>
<g id="a_Node000005"><a xlink:href="classplots_1_1plots_1_1Position.html#a9cf1f886c65a6815dc958724024fd1b9" target="_top" xlink:title=" ">
<polygon fill="white" stroke="#666666" points="277.25,-19.25 172.75,-19.25 172.75,0 277.25,0 277.25,-19.25"/>
<text text-anchor="middle" x="225" y="-5.75" font-family="Helvetica,sans-Serif" font-size="10.00">plots.plots.Position.y</text>
</a>
</g>
</g>
<!-- Node1&#45;&gt;Node5 -->
<g id="edge4_Node000001_Node000005" class="edge">
<title>Node1&#45;&gt;Node5</title>
<g id="a_edge4_Node000001_Node000005"><a xlink:title=" ">
<path fill="none" stroke="#63b8ff" d="M97.44,-54.53C118.22,-47.07 147.24,-36.67 172.75,-27.62 176.62,-26.25 180.66,-24.83 184.7,-23.4"/>
<polygon fill="#63b8ff" stroke="#63b8ff" points="185.56,-26.81 193.83,-20.19 183.23,-20.21 185.56,-26.81"/>
</a>
</g>
</g>
</g>
</svg>
