<?xml version="1.0" encoding="UTF-8" standalone="no"?>
<!DOCTYPE svg PUBLIC "-//W3C//DTD SVG 1.1//EN"
 "http://www.w3.org/Graphics/SVG/1.1/DTD/svg11.dtd">
<!-- Generated by graphviz version 9.0.0 (20230911.1827)
 -->
<!-- Title: Publisher::Publisher Pages: 1 -->
<svg width="344pt" height="64pt"
 viewBox="0.00 0.00 344.00 64.25" xmlns="http://www.w3.org/2000/svg" xmlns:xlink="http://www.w3.org/1999/xlink">
<g id="graph0" class="graph" transform="scale(1 1) rotate(0) translate(4 60.25)">
<title>Publisher::Publisher</title>
<!-- Node1 -->
<g id="Node000001" class="node">
<title>Node1</title>
<g id="a_Node000001"><a xlink:title=" ">
<polygon fill="#999999" stroke="#666666" points="101.5,-37.25 0,-37.25 0,-18 101.5,-18 101.5,-37.25"/>
<text text-anchor="middle" x="50.75" y="-23.75" font-family="Helvetica,sans-Serif" font-size="10.00">Publisher::Publisher</text>
</a>
</g>
</g>
<!-- Node2 -->
<g id="Node000002" class="node">
<title>Node2</title>
<g id="a_Node000002"><a xlink:href="classTrack.html#af563702e457e6b2da5e127a7981b9453" target="_top" xlink:title="Fill the track data from a file.">
<polygon fill="white" stroke="#666666" points="216.5,-37.25 137.5,-37.25 137.5,-18 216.5,-18 216.5,-37.25"/>
<text text-anchor="middle" x="177" y="-23.75" font-family="Helvetica,sans-Serif" font-size="10.00">Track::fillTrack</text>
</a>
</g>
</g>
<!-- Node1&#45;&gt;Node2 -->
<g id="edge1_Node000001_Node000002" class="edge">
<title>Node1&#45;&gt;Node2</title>
<g id="a_edge1_Node000001_Node000002"><a xlink:title=" ">
<path fill="none" stroke="#63b8ff" d="M101.93,-27.62C109.8,-27.62 117.94,-27.62 125.82,-27.62"/>
<polygon fill="#63b8ff" stroke="#63b8ff" points="125.59,-31.13 135.59,-27.63 125.59,-24.13 125.59,-31.13"/>
</a>
</g>
</g>
<!-- Node3 -->
<g id="Node000003" class="node">
<title>Node3</title>
<g id="a_Node000003"><a xlink:href="classTrack.html#adc534b0f22848fc22d7001bd7e1789dd" target="_top" xlink:title="Add a cone to the track if the color is appropriate.">
<polygon fill="white" stroke="#666666" points="336,-56.25 252.5,-56.25 252.5,-37 336,-37 336,-56.25"/>
<text text-anchor="middle" x="294.25" y="-42.75" font-family="Helvetica,sans-Serif" font-size="10.00">Track::addCone</text>
</a>
</g>
</g>
<!-- Node2&#45;&gt;Node3 -->
<g id="edge2_Node000002_Node000003" class="edge">
<title>Node2&#45;&gt;Node3</title>
<g id="a_edge2_Node000002_Node000003"><a xlink:title=" ">
<path fill="none" stroke="#63b8ff" d="M216.7,-34C224.43,-35.28 232.68,-36.64 240.78,-37.98"/>
<polygon fill="#63b8ff" stroke="#63b8ff" points="240.16,-41.42 250.59,-39.59 241.3,-34.51 240.16,-41.42"/>
</a>
</g>
</g>
<!-- Node4 -->
<g id="Node000004" class="node">
<title>Node4</title>
<g id="a_Node000004"><a xlink:href="files_8cpp.html#a440bc5364e11c37c13f14f7a0d1c7208" target="_top" xlink:title=" ">
<polygon fill="white" stroke="#666666" points="331.88,-19.25 256.62,-19.25 256.62,0 331.88,0 331.88,-19.25"/>
<text text-anchor="middle" x="294.25" y="-5.75" font-family="Helvetica,sans-Serif" font-size="10.00">openReadFile</text>
</a>
</g>
</g>
<!-- Node2&#45;&gt;Node4 -->
<g id="edge3_Node000002_Node000004" class="edge">
<title>Node2&#45;&gt;Node4</title>
<g id="a_edge3_Node000002_Node000004"><a xlink:title=" ">
<path fill="none" stroke="#63b8ff" d="M216.7,-21.58C225.81,-20.16 235.63,-18.62 245.1,-17.14"/>
<polygon fill="#63b8ff" stroke="#63b8ff" points="245.57,-20.61 254.91,-15.61 244.49,-13.7 245.57,-20.61"/>
</a>
</g>
</g>
</g>
</svg>
