<?xml version="1.0" encoding="UTF-8" standalone="no"?>
<!DOCTYPE svg PUBLIC "-//W3C//DTD SVG 1.1//EN"
 "http://www.w3.org/Graphics/SVG/1.1/DTD/svg11.dtd">
<!-- Generated by graphviz version 9.0.0 (20230911.1827)
 -->
<!-- Title: ExecTimeTestEKFTests Pages: 1 -->
<svg width="128pt" height="322pt"
 viewBox="0.00 0.00 128.00 322.00" xmlns="http://www.w3.org/2000/svg" xmlns:xlink="http://www.w3.org/1999/xlink">
<g id="graph0" class="graph" transform="scale(1 1) rotate(0) translate(4 318)">
<title>ExecTimeTestEKFTests</title>
<!-- Node1 -->
<g id="Node000001" class="node">
<title>Node1</title>
<g id="a_Node000001"><a xlink:title="Test class for performance measurements of Extended Kalman Filter steps.">
<polygon fill="#999999" stroke="none" points="120,-229 0,-229 0,0 120,0 120,-229"/>
<text text-anchor="start" x="7.12" y="-215.5" font-family="Helvetica,sans-Serif" font-size="10.00">ExecTimeTestEKFTests</text>
<text text-anchor="start" x="3.88" y="-200.5" font-family="Helvetica,sans-Serif" font-size="10.00">#</text>
<text text-anchor="start" x="13" y="-200.5" font-family="Helvetica,sans-Serif" font-size="10.00">ekf_test</text>
<text text-anchor="start" x="3.88" y="-185.5" font-family="Helvetica,sans-Serif" font-size="10.00">#</text>
<text text-anchor="start" x="13" y="-185.5" font-family="Helvetica,sans-Serif" font-size="10.00">motion_update_test</text>
<text text-anchor="start" x="3.88" y="-170.5" font-family="Helvetica,sans-Serif" font-size="10.00">#</text>
<text text-anchor="start" x="13" y="-170.5" font-family="Helvetica,sans-Serif" font-size="10.00">start_time</text>
<text text-anchor="start" x="3.88" y="-155.5" font-family="Helvetica,sans-Serif" font-size="10.00">#</text>
<text text-anchor="start" x="13" y="-155.5" font-family="Helvetica,sans-Serif" font-size="10.00">duration</text>
<text text-anchor="start" x="3.88" y="-140.5" font-family="Helvetica,sans-Serif" font-size="10.00">#</text>
<text text-anchor="start" x="13" y="-140.5" font-family="Helvetica,sans-Serif" font-size="10.00">end_time</text>
<text text-anchor="start" x="3.88" y="-125.5" font-family="Helvetica,sans-Serif" font-size="10.00">#</text>
<text text-anchor="start" x="13" y="-125.5" font-family="Helvetica,sans-Serif" font-size="10.00">workload</text>
<text text-anchor="start" x="3.88" y="-110.5" font-family="Helvetica,sans-Serif" font-size="10.00">#</text>
<text text-anchor="start" x="13" y="-110.5" font-family="Helvetica,sans-Serif" font-size="10.00">Q_test</text>
<text text-anchor="start" x="3.88" y="-95.5" font-family="Helvetica,sans-Serif" font-size="10.00">#</text>
<text text-anchor="start" x="13" y="-95.5" font-family="Helvetica,sans-Serif" font-size="10.00">R_test</text>
<text text-anchor="start" x="3.88" y="-80.5" font-family="Helvetica,sans-Serif" font-size="10.00">#</text>
<text text-anchor="start" x="13" y="-80.5" font-family="Helvetica,sans-Serif" font-size="10.00">motion_model_test</text>
<text text-anchor="start" x="3.88" y="-65.5" font-family="Helvetica,sans-Serif" font-size="10.00">#</text>
<text text-anchor="start" x="13" y="-65.5" font-family="Helvetica,sans-Serif" font-size="10.00">observation_model_test</text>
<text text-anchor="start" x="3.88" y="-50.5" font-family="Helvetica,sans-Serif" font-size="10.00">#</text>
<text text-anchor="start" x="13" y="-50.5" font-family="Helvetica,sans-Serif" font-size="10.00">print_to_file()</text>
<text text-anchor="start" x="3.88" y="-35.5" font-family="Helvetica,sans-Serif" font-size="10.00">#</text>
<text text-anchor="start" x="13" y="-35.5" font-family="Helvetica,sans-Serif" font-size="10.00">fill_X()</text>
<text text-anchor="start" x="3.88" y="-20.5" font-family="Helvetica,sans-Serif" font-size="10.00">#</text>
<text text-anchor="start" x="13" y="-20.5" font-family="Helvetica,sans-Serif" font-size="10.00">SetUp()</text>
<text text-anchor="start" x="3.88" y="-5.5" font-family="Helvetica,sans-Serif" font-size="10.00">#</text>
<text text-anchor="start" x="13" y="-5.5" font-family="Helvetica,sans-Serif" font-size="10.00">TearDown()</text>
<polygon fill="#666666" stroke="#666666" points="0,-212 0,-212 120,-212 120,-212 0,-212"/>
<polygon fill="#666666" stroke="#666666" points="0,-62 0,-62 11,-62 11,-62 0,-62"/>
<polygon fill="#666666" stroke="#666666" points="11,-62 11,-62 120,-62 120,-62 11,-62"/>
<polygon fill="none" stroke="#666666" points="0,0 0,-229 120,-229 120,0 0,0"/>
</a>
</g>
</g>
<!-- Node2 -->
<g id="Node000002" class="node">
<title>Node2</title>
<g id="a_Node000002"><a xlink:title=" ">
<polygon fill="white" stroke="none" points="91.5,-314 28.5,-314 28.5,-265 91.5,-265 91.5,-314"/>
<text text-anchor="start" x="33.38" y="-300.5" font-family="Helvetica,sans-Serif" font-size="10.00">testing::Test</text>
<text text-anchor="start" x="58.5" y="-285.5" font-family="Helvetica,sans-Serif" font-size="10.00"> </text>
<text text-anchor="start" x="58.5" y="-270.5" font-family="Helvetica,sans-Serif" font-size="10.00"> </text>
<polygon fill="#666666" stroke="#666666" points="28.5,-297 28.5,-297 91.5,-297 91.5,-297 28.5,-297"/>
<polygon fill="#666666" stroke="#666666" points="28.5,-282 28.5,-282 91.5,-282 91.5,-282 28.5,-282"/>
<polygon fill="none" stroke="#666666" points="28.5,-265 28.5,-314 91.5,-314 91.5,-265 28.5,-265"/>
</a>
</g>
</g>
<!-- Node2&#45;&gt;Node1 -->
<g id="edge1_Node000001_Node000002" class="edge">
<title>Node2&#45;&gt;Node1</title>
<g id="a_edge1_Node000001_Node000002"><a xlink:title=" ">
<path fill="none" stroke="#63b8ff" d="M60,-253.87C60,-246.18 60,-237.63 60,-228.65"/>
<polygon fill="none" stroke="#63b8ff" points="56.5,-253.65 60,-263.65 63.5,-253.65 56.5,-253.65"/>
</a>
</g>
</g>
</g>
</svg>
