<?xml version="1.0" encoding="UTF-8" standalone="no"?>
<!DOCTYPE svg PUBLIC "-//W3C//DTD SVG 1.1//EN"
 "http://www.w3.org/Graphics/SVG/1.1/DTD/svg11.dtd">
<!-- Generated by graphviz version 9.0.0 (20230911.1827)
 -->
<!-- Title: LongitudinalControl Pages: 1 -->
<svg width="115pt" height="142pt"
 viewBox="0.00 0.00 115.00 142.00" xmlns="http://www.w3.org/2000/svg" xmlns:xlink="http://www.w3.org/1999/xlink">
<g id="graph0" class="graph" transform="scale(1 1) rotate(0) translate(4 138)">
<title>LongitudinalControl</title>
<!-- Node1 -->
<g id="Node000001" class="node">
<title>Node1</title>
<g id="a_Node000001"><a xlink:title="Class responsible for the longitudinal control of the car.">
<polygon fill="#999999" stroke="none" points="107,-49 0,-49 0,0 107,0 107,-49"/>
<text text-anchor="start" x="11.88" y="-35.5" font-family="Helvetica,sans-Serif" font-size="10.00">LongitudinalControl</text>
<text text-anchor="start" x="52" y="-20.5" font-family="Helvetica,sans-Serif" font-size="10.00"> </text>
<text text-anchor="start" x="4" y="-5.5" font-family="Helvetica,sans-Serif" font-size="10.00">+</text>
<text text-anchor="start" x="14" y="-5.5" font-family="Helvetica,sans-Serif" font-size="10.00">LongitudinalControl()</text>
<polygon fill="#666666" stroke="#666666" points="0,-32 0,-32 107,-32 107,-32 0,-32"/>
<polygon fill="#666666" stroke="#666666" points="0,-17 0,-17 107,-17 107,-17 0,-17"/>
<polygon fill="none" stroke="#666666" points="0,0 0,-49 107,-49 107,0 0,0"/>
</a>
</g>
</g>
<!-- Node2 -->
<g id="Node000002" class="node">
<title>Node2</title>
<g id="a_Node000002"><a xlink:title=" ">
<polygon fill="white" stroke="none" points="85.5,-134 21.5,-134 21.5,-85 85.5,-85 85.5,-134"/>
<text text-anchor="start" x="26.5" y="-120.5" font-family="Helvetica,sans-Serif" font-size="10.00">rclcpp::Node</text>
<text text-anchor="start" x="52" y="-105.5" font-family="Helvetica,sans-Serif" font-size="10.00"> </text>
<text text-anchor="start" x="52" y="-90.5" font-family="Helvetica,sans-Serif" font-size="10.00"> </text>
<polygon fill="#666666" stroke="#666666" points="21.5,-117 21.5,-117 85.5,-117 85.5,-117 21.5,-117"/>
<polygon fill="#666666" stroke="#666666" points="21.5,-102 21.5,-102 85.5,-102 85.5,-102 21.5,-102"/>
<polygon fill="none" stroke="#666666" points="21.5,-85 21.5,-134 85.5,-134 85.5,-85 21.5,-85"/>
</a>
</g>
</g>
<!-- Node2&#45;&gt;Node1 -->
<g id="edge1_Node000001_Node000002" class="edge">
<title>Node2&#45;&gt;Node1</title>
<g id="a_edge1_Node000001_Node000002"><a xlink:title=" ">
<path fill="none" stroke="#63b8ff" d="M53.5,-74.14C53.5,-65.6 53.5,-56.65 53.5,-48.78"/>
<polygon fill="none" stroke="#63b8ff" points="50,-73.87 53.5,-83.87 57,-73.87 50,-73.87"/>
</a>
</g>
</g>
</g>
</svg>
