<?xml version="1.0" encoding="UTF-8" standalone="no"?>
<!DOCTYPE svg PUBLIC "-//W3C//DTD SVG 1.1//EN"
 "http://www.w3.org/Graphics/SVG/1.1/DTD/svg11.dtd">
<!-- Generated by graphviz version 9.0.0 (20230911.1827)
 -->
<!-- Title: Cone::getDistanceTo Pages: 1 -->
<svg width="213pt" height="64pt"
 viewBox="0.00 0.00 213.25 64.25" xmlns="http://www.w3.org/2000/svg" xmlns:xlink="http://www.w3.org/1999/xlink">
<g id="graph0" class="graph" transform="scale(1 1) rotate(0) translate(4 60.25)">
<title>Cone::getDistanceTo</title>
<!-- Node1 -->
<g id="Node000001" class="node">
<title>Node1</title>
<g id="a_Node000001"><a xlink:title=" ">
<polygon fill="#999999" stroke="#666666" points="106,-37.25 0,-37.25 0,-18 106,-18 106,-37.25"/>
<text text-anchor="middle" x="53" y="-23.75" font-family="Helvetica,sans-Serif" font-size="10.00">Cone::getDistanceTo</text>
</a>
</g>
</g>
<!-- Node2 -->
<g id="Node000002" class="node">
<title>Node2</title>
<g id="a_Node000002"><a xlink:href="classCone.html#a51a49cc249e79d06f6a983250fe809b3" target="_top" xlink:title=" ">
<polygon fill="white" stroke="#666666" points="205.25,-56.25 142,-56.25 142,-37 205.25,-37 205.25,-56.25"/>
<text text-anchor="middle" x="173.62" y="-42.75" font-family="Helvetica,sans-Serif" font-size="10.00">Cone::getX</text>
</a>
</g>
</g>
<!-- Node1&#45;&gt;Node2 -->
<g id="edge1_Node000001_Node000002" class="edge">
<title>Node1&#45;&gt;Node2</title>
<g id="a_edge1_Node000001_Node000002"><a xlink:title=" ">
<path fill="none" stroke="#63b8ff" d="M106.38,-36.01C114.37,-37.29 122.54,-38.6 130.28,-39.84"/>
<polygon fill="#63b8ff" stroke="#63b8ff" points="129.71,-43.3 140.14,-41.42 130.82,-36.38 129.71,-43.3"/>
</a>
</g>
</g>
<!-- Node3 -->
<g id="Node000003" class="node">
<title>Node3</title>
<g id="a_Node000003"><a xlink:href="classCone.html#a952987a9de5d20d7930b3e93c04fd278" target="_top" xlink:title=" ">
<polygon fill="white" stroke="#666666" points="205.25,-19.25 142,-19.25 142,0 205.25,0 205.25,-19.25"/>
<text text-anchor="middle" x="173.62" y="-5.75" font-family="Helvetica,sans-Serif" font-size="10.00">Cone::getY</text>
</a>
</g>
</g>
<!-- Node1&#45;&gt;Node3 -->
<g id="edge2_Node000001_Node000003" class="edge">
<title>Node1&#45;&gt;Node3</title>
<g id="a_edge2_Node000001_Node000003"><a xlink:title=" ">
<path fill="none" stroke="#63b8ff" d="M106.38,-19.68C114.37,-18.46 122.54,-17.23 130.28,-16.05"/>
<polygon fill="#63b8ff" stroke="#63b8ff" points="130.78,-19.51 140.14,-14.55 129.73,-12.59 130.78,-19.51"/>
</a>
</g>
</g>
</g>
</svg>
