<?xml version="1.0" encoding="UTF-8" standalone="no"?>
<!DOCTYPE svg PUBLIC "-//W3C//DTD SVG 1.1//EN"
 "http://www.w3.org/Graphics/SVG/1.1/DTD/svg11.dtd">
<!-- Generated by graphviz version 9.0.0 (20230911.1827)
 -->
<!-- Title: ExtendedKalmanFilter::prediction_step Pages: 1 -->
<svg width="284pt" height="137pt"
 viewBox="0.00 0.00 283.75 136.50" xmlns="http://www.w3.org/2000/svg" xmlns:xlink="http://www.w3.org/1999/xlink">
<g id="graph0" class="graph" transform="scale(1 1) rotate(0) translate(4 132.5)">
<title>ExtendedKalmanFilter::prediction_step</title>
<!-- Node1 -->
<g id="Node000001" class="node">
<title>Node1</title>
<g id="a_Node000001"><a xlink:title="Prediction step:">
<polygon fill="#999999" stroke="#666666" points="110.5,-79.5 0,-79.5 0,-49 110.5,-49 110.5,-79.5"/>
<text text-anchor="start" x="8" y="-66" font-family="Helvetica,sans-Serif" font-size="10.00">ExtendedKalmanFilter</text>
<text text-anchor="middle" x="55.25" y="-54.75" font-family="Helvetica,sans-Serif" font-size="10.00">::prediction_step</text>
</a>
</g>
</g>
<!-- Node2 -->
<g id="Node000002" class="node">
<title>Node2</title>
<g id="a_Node000002"><a xlink:href="classMotionModel.html#aad4c79b92acd351e94e7b847b61f965b" target="_top" xlink:title="Calculate state covariance matrix from motion estimation.">
<polygon fill="white" stroke="#666666" points="273.12,-128.5 149.12,-128.5 149.12,-98 273.12,-98 273.12,-128.5"/>
<text text-anchor="start" x="157.12" y="-115" font-family="Helvetica,sans-Serif" font-size="10.00">MotionModel::get_motion</text>
<text text-anchor="middle" x="211.12" y="-103.75" font-family="Helvetica,sans-Serif" font-size="10.00">_to_state_matrix</text>
</a>
</g>
</g>
<!-- Node1&#45;&gt;Node2 -->
<g id="edge1_Node000001_Node000002" class="edge">
<title>Node1&#45;&gt;Node2</title>
<g id="a_edge1_Node000001_Node000002"><a xlink:title=" ">
<path fill="none" stroke="#63b8ff" d="M105.36,-79.89C119.59,-84.42 135.28,-89.42 150.09,-94.13"/>
<polygon fill="#63b8ff" stroke="#63b8ff" points="148.66,-97.35 159.25,-97.05 150.78,-90.68 148.66,-97.35"/>
</a>
</g>
</g>
<!-- Node3 -->
<g id="Node000003" class="node">
<title>Node3</title>
<g id="a_Node000003"><a xlink:href="classMotionModel.html#a76de9b7caf93cd717bf388aff40ab589" target="_top" xlink:title="Get the process noise covariance matrix object.">
<polygon fill="white" stroke="#666666" points="275.75,-79.5 146.5,-79.5 146.5,-49 275.75,-49 275.75,-79.5"/>
<text text-anchor="start" x="154.5" y="-66" font-family="Helvetica,sans-Serif" font-size="10.00">MotionModel::get_process</text>
<text text-anchor="middle" x="211.12" y="-54.75" font-family="Helvetica,sans-Serif" font-size="10.00">_noise_covariance_matrix</text>
</a>
</g>
</g>
<!-- Node1&#45;&gt;Node3 -->
<g id="edge2_Node000001_Node000003" class="edge">
<title>Node1&#45;&gt;Node3</title>
<g id="a_edge2_Node000001_Node000003"><a xlink:title=" ">
<path fill="none" stroke="#63b8ff" d="M110.93,-64.25C118.68,-64.25 126.76,-64.25 134.82,-64.25"/>
<polygon fill="#63b8ff" stroke="#63b8ff" points="134.64,-67.75 144.64,-64.25 134.64,-60.75 134.64,-67.75"/>
</a>
</g>
</g>
<!-- Node4 -->
<g id="Node000004" class="node">
<title>Node4</title>
<g id="a_Node000004"><a xlink:href="classMotionModel.html#a24a7f8fab182b07ba116911cdd33893f" target="_top" xlink:title="Calculate expected state vector from motion estimation.">
<polygon fill="white" stroke="#666666" points="263.75,-30.5 158.5,-30.5 158.5,0 263.75,0 263.75,-30.5"/>
<text text-anchor="start" x="166.5" y="-17" font-family="Helvetica,sans-Serif" font-size="10.00">MotionModel::predict</text>
<text text-anchor="middle" x="211.12" y="-5.75" font-family="Helvetica,sans-Serif" font-size="10.00">_expected_state</text>
</a>
</g>
</g>
<!-- Node1&#45;&gt;Node4 -->
<g id="edge3_Node000001_Node000004" class="edge">
<title>Node1&#45;&gt;Node4</title>
<g id="a_edge3_Node000001_Node000004"><a xlink:title=" ">
<path fill="none" stroke="#63b8ff" d="M105.36,-48.61C119.59,-44.08 135.28,-39.08 150.09,-34.37"/>
<polygon fill="#63b8ff" stroke="#63b8ff" points="150.78,-37.82 159.25,-31.45 148.66,-31.15 150.78,-37.82"/>
</a>
</g>
</g>
</g>
</svg>
