<?xml version="1.0" encoding="UTF-8" standalone="no"?>
<!DOCTYPE svg PUBLIC "-//W3C//DTD SVG 1.1//EN"
 "http://www.w3.org/Graphics/SVG/1.1/DTD/svg11.dtd">
<!-- Generated by graphviz version 9.0.0 (20230911.1827)
 -->
<!-- Title: IntegrationTest Pages: 1 -->
<svg width="96pt" height="247pt"
 viewBox="0.00 0.00 96.00 247.00" xmlns="http://www.w3.org/2000/svg" xmlns:xlink="http://www.w3.org/1999/xlink">

<svg id="main" version="1.1" xmlns="http://www.w3.org/2000/svg" xmlns:xlink="http://www.w3.org/1999/xlink" xml:space="preserve" onload="init(evt)">
<style type="text/css"><![CDATA[
.node, .edge {opacity: 0.7;}
.node.selected, .edge.selected {opacity: 1;}
.edge:hover path { stroke: red; }
.edge:hover polygon { stroke: red; fill: red; }
]]></style>
<script type="application/ecmascript" xlink:href="svg.min.js"/>
<svg id="graph" class="graph">
<g id="graph0" class="graph" transform="scale(1 1) rotate(0) translate(4 243)">
<title>IntegrationTest</title>
<!-- Node1 -->
<g id="Node000001" class="node">
<title>Node1</title>
<g id="a_Node000001"><a xlink:title=" ">
<polygon fill="#999999" stroke="none" points="88,-154 0,-154 0,0 88,0 88,-154"/>
<text text-anchor="start" x="11.38" y="-140.5" font-family="Helvetica,sans-Serif" font-size="10.00">IntegrationTest</text>
<text text-anchor="start" x="3.88" y="-125.5" font-family="Helvetica,sans-Serif" font-size="10.00">#</text>
<text text-anchor="start" x="13" y="-125.5" font-family="Helvetica,sans-Serif" font-size="10.00">locmap_sender</text>
<text text-anchor="start" x="3.88" y="-110.5" font-family="Helvetica,sans-Serif" font-size="10.00">#</text>
<text text-anchor="start" x="13" y="-110.5" font-family="Helvetica,sans-Serif" font-size="10.00">control_receiver</text>
<text text-anchor="start" x="3.88" y="-95.5" font-family="Helvetica,sans-Serif" font-size="10.00">#</text>
<text text-anchor="start" x="13" y="-95.5" font-family="Helvetica,sans-Serif" font-size="10.00">planning_test</text>
<text text-anchor="start" x="3.88" y="-80.5" font-family="Helvetica,sans-Serif" font-size="10.00">#</text>
<text text-anchor="start" x="13" y="-80.5" font-family="Helvetica,sans-Serif" font-size="10.00">cone_array_msg</text>
<text text-anchor="start" x="3.88" y="-65.5" font-family="Helvetica,sans-Serif" font-size="10.00">#</text>
<text text-anchor="start" x="13" y="-65.5" font-family="Helvetica,sans-Serif" font-size="10.00">received_path</text>
<text text-anchor="start" x="3.88" y="-50.5" font-family="Helvetica,sans-Serif" font-size="10.00">#</text>
<text text-anchor="start" x="13" y="-50.5" font-family="Helvetica,sans-Serif" font-size="10.00">map_publisher</text>
<text text-anchor="start" x="3.88" y="-35.5" font-family="Helvetica,sans-Serif" font-size="10.00">#</text>
<text text-anchor="start" x="13" y="-35.5" font-family="Helvetica,sans-Serif" font-size="10.00">control_sub</text>
<text text-anchor="start" x="3.88" y="-20.5" font-family="Helvetica,sans-Serif" font-size="10.00">#</text>
<text text-anchor="start" x="13" y="-20.5" font-family="Helvetica,sans-Serif" font-size="10.00">SetUp()</text>
<text text-anchor="start" x="3.88" y="-5.5" font-family="Helvetica,sans-Serif" font-size="10.00">#</text>
<text text-anchor="start" x="13" y="-5.5" font-family="Helvetica,sans-Serif" font-size="10.00">TearDown()</text>
<polygon fill="#666666" stroke="#666666" points="0,-137 0,-137 88,-137 88,-137 0,-137"/>
<polygon fill="#666666" stroke="#666666" points="0,-32 0,-32 11,-32 11,-32 0,-32"/>
<polygon fill="#666666" stroke="#666666" points="11,-32 11,-32 88,-32 88,-32 11,-32"/>
<polygon fill="none" stroke="#666666" points="0,0 0,-154 88,-154 88,0 0,0"/>
</a>
</g>
</g>
<!-- Node2 -->
<g id="Node000002" class="node">
<title>Node2</title>
<g id="a_Node000002"><a xlink:title=" ">
<polygon fill="white" stroke="none" points="75.5,-239 12.5,-239 12.5,-190 75.5,-190 75.5,-239"/>
<text text-anchor="start" x="17.38" y="-225.5" font-family="Helvetica,sans-Serif" font-size="10.00">testing::Test</text>
<text text-anchor="start" x="42.5" y="-210.5" font-family="Helvetica,sans-Serif" font-size="10.00"> </text>
<text text-anchor="start" x="42.5" y="-195.5" font-family="Helvetica,sans-Serif" font-size="10.00"> </text>
<polygon fill="#666666" stroke="#666666" points="12.5,-222 12.5,-222 75.5,-222 75.5,-222 12.5,-222"/>
<polygon fill="#666666" stroke="#666666" points="12.5,-207 12.5,-207 75.5,-207 75.5,-207 12.5,-207"/>
<polygon fill="none" stroke="#666666" points="12.5,-190 12.5,-239 75.5,-239 75.5,-190 12.5,-190"/>
</a>
</g>
</g>
<!-- Node2&#45;&gt;Node1 -->
<g id="edge1_Node000001_Node000002" class="edge">
<title>Node2&#45;&gt;Node1</title>
<g id="a_edge1_Node000001_Node000002"><a xlink:title=" ">
<path fill="none" stroke="#63b8ff" d="M44,-178.72C44,-170.96 44,-162.43 44,-153.72"/>
<polygon fill="none" stroke="#63b8ff" points="40.5,-178.69 44,-188.69 47.5,-178.69 40.5,-178.69"/>
</a>
</g>
</g>
</g>
</svg>
</svg>

<style type='text/css'>
<![CDATA[
[data-mouse-over-selected='false'] { opacity: 0.7; }
[data-mouse-over-selected='true']  { opacity: 1.0; }
]]>
</style>
<script type="application/ecmascript"><![CDATA[
document.addEventListener('DOMContentLoaded', (event) => {
  highlightEdges();
  highlightAdjacentNodes();
});
]]></script>
</svg>
