<?xml version="1.0" encoding="UTF-8" standalone="no"?>
<!DOCTYPE svg PUBLIC "-//W3C//DTD SVG 1.1//EN"
 "http://www.w3.org/Graphics/SVG/1.1/DTD/svg11.dtd">
<!-- Generated by graphviz version 9.0.0 (20230911.1827)
 -->
<!-- Title: ExecTimeTestEKFTests Pages: 1 -->
<!--zoomable 438 -->

<svg id="main" version="1.1" xmlns="http://www.w3.org/2000/svg" xmlns:xlink="http://www.w3.org/1999/xlink" xml:space="preserve" onload="init(evt)">
<style type="text/css"><![CDATA[
.node, .edge {opacity: 0.7;}
.node.selected, .edge.selected {opacity: 1;}
.edge:hover path { stroke: red; }
.edge:hover polygon { stroke: red; fill: red; }
]]></style>

<defs>
  <circle id="rim" cx="0" cy="0" r="7"/>
  <circle id="rim2" cx="0" cy="0" r="3.5"/>
  <g id="zoomPlus">
    <use xlink:href="#rim" fill="#404040"><set attributeName="fill" to="#808080" begin="zoomplus.mouseover" end="zoomplus.mouseout"/></use>
    <path d="M-4,0h8M0,-4v8" fill="none" stroke="white" stroke-width="1.5" pointer-events="none"/>
  </g>
  <g id="zoomMin">
    <use xlink:href="#rim" fill="#404040"><set attributeName="fill" to="#808080" begin="zoomminus.mouseover" end="zoomminus.mouseout"/></use>
    <path d="M-4,0h8" fill="none" stroke="white" stroke-width="1.5" pointer-events="none"/>
  </g>
  <g id="arrowUp" transform="translate(30 24)">
    <use xlink:href="#rim"/>
    <path pointer-events="none" fill="none" stroke="white" stroke-width="1.5" d="M0,-3.0v7 M-2.5,-0.5L0,-3.0L2.5,-0.5"/>
  </g>
  <g id="arrowRight" transform="rotate(90) translate(36 -43)">
    <use xlink:href="#rim"/>
    <path pointer-events="none" fill="none" stroke="white" stroke-width="1.5" d="M0,-3.0v7 M-2.5,-0.5L0,-3.0L2.5,-0.5"/>
  </g>
  <g id="arrowDown" transform="rotate(180) translate(-30 -48)">
    <use xlink:href="#rim"/>
    <path pointer-events="none" fill="none" stroke="white" stroke-width="1.5" d="M0,-3.0v7 M-2.5,-0.5L0,-3.0L2.5,-0.5"/>
  </g>
  <g id="arrowLeft" transform="rotate(270) translate(-36 17)">
    <use xlink:href="#rim"/>
    <path pointer-events="none" fill="none" stroke="white" stroke-width="1.5" d="M0,-3.0v7 M-2.5,-0.5L0,-3.0L2.5,-0.5"/>
  </g>
  <g id="resetDef">
    <use xlink:href="#rim2" fill="#404040"><set attributeName="fill" to="#808080" begin="reset.mouseover" end="reset.mouseout"/></use>
  </g>
</defs>
<script type="application/ecmascript">
var viewWidth = 659;
var viewHeight = 438;
var sectionId = 'dynsection-1';
</script>
<script type="application/ecmascript" xlink:href="svg.min.js"/>
<svg id="graph" class="graph">
<g id="viewport">
<title>ExecTimeTestEKFTests</title>
<!-- Node1 -->
<g id="Node000001" class="node">
<title>Node1</title>
<g id="a_Node000001"><a xlink:title="Test class for performance measurements of Extended Kalman Filter steps.">
<polygon fill="#999999" stroke="none" points="334,-169 219,-169 219,0 334,0 334,-169"/>
<text text-anchor="start" x="223.62" y="-155.5" font-family="Helvetica,sans-Serif" font-size="10.00">ExecTimeTestEKFTests</text>
<text text-anchor="start" x="233.38" y="-140.5" font-family="Helvetica,sans-Serif" font-size="10.00">#</text>
<text text-anchor="start" x="253" y="-140.5" font-family="Helvetica,sans-Serif" font-size="10.00">start_time</text>
<text text-anchor="start" x="233.38" y="-125.5" font-family="Helvetica,sans-Serif" font-size="10.00">#</text>
<text text-anchor="start" x="253" y="-125.5" font-family="Helvetica,sans-Serif" font-size="10.00">duration</text>
<text text-anchor="start" x="233.38" y="-110.5" font-family="Helvetica,sans-Serif" font-size="10.00">#</text>
<text text-anchor="start" x="253" y="-110.5" font-family="Helvetica,sans-Serif" font-size="10.00">end_time</text>
<text text-anchor="start" x="233.38" y="-95.5" font-family="Helvetica,sans-Serif" font-size="10.00">#</text>
<text text-anchor="start" x="253" y="-95.5" font-family="Helvetica,sans-Serif" font-size="10.00">workload</text>
<text text-anchor="start" x="233.38" y="-80.5" font-family="Helvetica,sans-Serif" font-size="10.00">#</text>
<text text-anchor="start" x="253" y="-80.5" font-family="Helvetica,sans-Serif" font-size="10.00">Q_test</text>
<text text-anchor="start" x="233.38" y="-65.5" font-family="Helvetica,sans-Serif" font-size="10.00">#</text>
<text text-anchor="start" x="253" y="-65.5" font-family="Helvetica,sans-Serif" font-size="10.00">R_test</text>
<text text-anchor="start" x="233.38" y="-50.5" font-family="Helvetica,sans-Serif" font-size="10.00">#</text>
<text text-anchor="start" x="253" y="-50.5" font-family="Helvetica,sans-Serif" font-size="10.00">print_to_file()</text>
<text text-anchor="start" x="233.38" y="-35.5" font-family="Helvetica,sans-Serif" font-size="10.00">#</text>
<text text-anchor="start" x="253" y="-35.5" font-family="Helvetica,sans-Serif" font-size="10.00">fill_X()</text>
<text text-anchor="start" x="233.38" y="-20.5" font-family="Helvetica,sans-Serif" font-size="10.00">#</text>
<text text-anchor="start" x="253" y="-20.5" font-family="Helvetica,sans-Serif" font-size="10.00">SetUp()</text>
<text text-anchor="start" x="233.38" y="-5.5" font-family="Helvetica,sans-Serif" font-size="10.00">#</text>
<text text-anchor="start" x="253" y="-5.5" font-family="Helvetica,sans-Serif" font-size="10.00">TearDown()</text>
<polygon fill="#666666" stroke="#666666" points="219,-152 219,-152 334,-152 334,-152 219,-152"/>
<polygon fill="#666666" stroke="#666666" points="219,-62 219,-62 251,-62 251,-62 219,-62"/>
<polygon fill="#666666" stroke="#666666" points="251,-62 251,-62 334,-62 334,-62 251,-62"/>
<polygon fill="none" stroke="#666666" points="219,0 219,-169 334,-169 334,0 219,0"/>
</a>
</g>
</g>
<!-- Node2 -->
<g id="Node000002" class="node">
<title>Node2</title>
<g id="a_Node000002"><a xlink:title=" ">
<polygon fill="white" stroke="none" points="63,-347.75 0,-347.75 0,-298.75 63,-298.75 63,-347.75"/>
<text text-anchor="start" x="4.88" y="-334.25" font-family="Helvetica,sans-Serif" font-size="10.00">testing::Test</text>
<text text-anchor="start" x="30" y="-319.25" font-family="Helvetica,sans-Serif" font-size="10.00"> </text>
<text text-anchor="start" x="30" y="-304.25" font-family="Helvetica,sans-Serif" font-size="10.00"> </text>
<polygon fill="#666666" stroke="#666666" points="0,-330.75 0,-330.75 63,-330.75 63,-330.75 0,-330.75"/>
<polygon fill="#666666" stroke="#666666" points="0,-315.75 0,-315.75 63,-315.75 63,-315.75 0,-315.75"/>
<polygon fill="none" stroke="#666666" points="0,-298.75 0,-347.75 63,-347.75 63,-298.75 0,-298.75"/>
</a>
</g>
</g>
<!-- Node2&#45;&gt;Node1 -->
<g id="edge1_Node000001_Node000002" class="edge">
<title>Node2&#45;&gt;Node1</title>
<g id="a_edge1_Node000001_Node000002"><a xlink:title=" ">
<path fill="none" stroke="#63b8ff" d="M38.86,-288.03C44.97,-265.75 55.49,-237.07 72.5,-216.25 111.89,-168.03 173.92,-131.87 219.24,-109.93"/>
<polygon fill="none" stroke="#63b8ff" points="35.51,-287 36.42,-297.56 42.29,-288.74 35.51,-287"/>
</a>
</g>
</g>
<!-- Node3 -->
<g id="Node000003" class="node">
<title>Node3</title>
<g id="a_Node000003"><a xlink:href="classExtendedKalmanFilter.html" target="_top" xlink:title="Extended Kalman Filter class.">
<polygon fill="white" stroke="none" points="199.5,-430.25 81.5,-430.25 81.5,-216.25 199.5,-216.25 199.5,-430.25"/>
<text text-anchor="start" x="93.25" y="-416.75" font-family="Helvetica,sans-Serif" font-size="10.00">ExtendedKalmanFilter</text>
<text text-anchor="start" x="139" y="-401.75" font-family="Helvetica,sans-Serif" font-size="10.00"> </text>
<text text-anchor="start" x="85.5" y="-386.75" font-family="Helvetica,sans-Serif" font-size="10.00">+</text>
<text text-anchor="start" x="95.5" y="-386.75" font-family="Helvetica,sans-Serif" font-size="10.00">ExtendedKalmanFilter()</text>
<text text-anchor="start" x="85.5" y="-371.75" font-family="Helvetica,sans-Serif" font-size="10.00">+</text>
<text text-anchor="start" x="95.5" y="-371.75" font-family="Helvetica,sans-Serif" font-size="10.00">ExtendedKalmanFilter()</text>
<text text-anchor="start" x="85.5" y="-356.75" font-family="Helvetica,sans-Serif" font-size="10.00">+</text>
<text text-anchor="start" x="95.5" y="-356.75" font-family="Helvetica,sans-Serif" font-size="10.00">update()</text>
<text text-anchor="start" x="85.5" y="-341.75" font-family="Helvetica,sans-Serif" font-size="10.00">+</text>
<text text-anchor="start" x="95.5" y="-341.75" font-family="Helvetica,sans-Serif" font-size="10.00">prediction_step()</text>
<text text-anchor="start" x="85.5" y="-326.75" font-family="Helvetica,sans-Serif" font-size="10.00">+</text>
<text text-anchor="start" x="95.5" y="-326.75" font-family="Helvetica,sans-Serif" font-size="10.00">correction_step()</text>
<text text-anchor="start" x="85.5" y="-311.75" font-family="Helvetica,sans-Serif" font-size="10.00">+</text>
<text text-anchor="start" x="95.5" y="-311.75" font-family="Helvetica,sans-Serif" font-size="10.00">set_X_y()</text>
<text text-anchor="start" x="85.5" y="-296.75" font-family="Helvetica,sans-Serif" font-size="10.00">+</text>
<text text-anchor="start" x="95.5" y="-296.75" font-family="Helvetica,sans-Serif" font-size="10.00">set_P()</text>
<text text-anchor="start" x="85.5" y="-281.75" font-family="Helvetica,sans-Serif" font-size="10.00">+</text>
<text text-anchor="start" x="95.5" y="-281.75" font-family="Helvetica,sans-Serif" font-size="10.00">init_X_size()</text>
<text text-anchor="start" x="85.5" y="-266.75" font-family="Helvetica,sans-Serif" font-size="10.00">+</text>
<text text-anchor="start" x="95.5" y="-266.75" font-family="Helvetica,sans-Serif" font-size="10.00">push_to_colors()</text>
<text text-anchor="start" x="85.5" y="-251.75" font-family="Helvetica,sans-Serif" font-size="10.00">+</text>
<text text-anchor="start" x="95.5" y="-251.75" font-family="Helvetica,sans-Serif" font-size="10.00">get_state()</text>
<text text-anchor="start" x="85.5" y="-236.75" font-family="Helvetica,sans-Serif" font-size="10.00">+</text>
<text text-anchor="start" x="95.5" y="-236.75" font-family="Helvetica,sans-Serif" font-size="10.00">get_covariance()</text>
<text text-anchor="start" x="85.5" y="-221.75" font-family="Helvetica,sans-Serif" font-size="10.00">+</text>
<text text-anchor="start" x="95.5" y="-221.75" font-family="Helvetica,sans-Serif" font-size="10.00">get_last_update()</text>
<polygon fill="#666666" stroke="#666666" points="81.5,-413.25 81.5,-413.25 199.5,-413.25 199.5,-413.25 81.5,-413.25"/>
<polygon fill="#666666" stroke="#666666" points="81.5,-398.25 81.5,-398.25 199.5,-398.25 199.5,-398.25 81.5,-398.25"/>
<polygon fill="none" stroke="#666666" points="81.5,-216.25 81.5,-430.25 199.5,-430.25 199.5,-216.25 81.5,-216.25"/>
</a>
</g>
</g>
<!-- Node3&#45;&gt;Node1 -->
<g id="edge2_Node000001_Node000003" class="edge">
<title>Node3&#45;&gt;Node1</title>
<g id="a_edge2_Node000001_Node000003"><a xlink:title=" ">
<path fill="none" stroke="#63b8ff" d="M199.36,-219.78C206.91,-206.64 214.62,-193.23 222.09,-180.21"/>
<polygon fill="none" stroke="#63b8ff" points="222.17,-180.08 221.69,-172.89 228.14,-169.68 228.62,-176.87 222.17,-180.08"/>
</a>
</g>
<text text-anchor="middle" x="238.88" y="-188.75" font-family="Helvetica,sans-Serif" font-size="10.00" fill="grey"> #ekf_test</text>
</g>
<!-- Node4 -->
<g id="Node000004" class="node">
<title>Node4</title>
<g id="a_Node000004"><a xlink:href="structMotionUpdate.html" target="_top" xlink:title="Struct for data retrieved by the IMU.">
<polygon fill="white" stroke="none" points="335.5,-385.25 217.5,-385.25 217.5,-261.25 335.5,-261.25 335.5,-385.25"/>
<text text-anchor="start" x="246.12" y="-371.75" font-family="Helvetica,sans-Serif" font-size="10.00">MotionUpdate</text>
<text text-anchor="start" x="221.5" y="-356.75" font-family="Helvetica,sans-Serif" font-size="10.00">+</text>
<text text-anchor="start" x="231.5" y="-356.75" font-family="Helvetica,sans-Serif" font-size="10.00">translational_velocity</text>
<text text-anchor="start" x="221.5" y="-341.75" font-family="Helvetica,sans-Serif" font-size="10.00">+</text>
<text text-anchor="start" x="231.5" y="-341.75" font-family="Helvetica,sans-Serif" font-size="10.00">translational_velocity_x</text>
<text text-anchor="start" x="221.5" y="-326.75" font-family="Helvetica,sans-Serif" font-size="10.00">+</text>
<text text-anchor="start" x="231.5" y="-326.75" font-family="Helvetica,sans-Serif" font-size="10.00">translational_velocity_y</text>
<text text-anchor="start" x="221.5" y="-311.75" font-family="Helvetica,sans-Serif" font-size="10.00">+</text>
<text text-anchor="start" x="231.5" y="-311.75" font-family="Helvetica,sans-Serif" font-size="10.00">rotational_velocity</text>
<text text-anchor="start" x="221.5" y="-296.75" font-family="Helvetica,sans-Serif" font-size="10.00">+</text>
<text text-anchor="start" x="231.5" y="-296.75" font-family="Helvetica,sans-Serif" font-size="10.00">steering_angle</text>
<text text-anchor="start" x="221.5" y="-281.75" font-family="Helvetica,sans-Serif" font-size="10.00">+</text>
<text text-anchor="start" x="231.5" y="-281.75" font-family="Helvetica,sans-Serif" font-size="10.00">last_update</text>
<text text-anchor="start" x="275" y="-266.75" font-family="Helvetica,sans-Serif" font-size="10.00"> </text>
<polygon fill="#666666" stroke="#666666" points="217.5,-368.25 217.5,-368.25 335.5,-368.25 335.5,-368.25 217.5,-368.25"/>
<polygon fill="#666666" stroke="#666666" points="217.5,-278.25 217.5,-278.25 229.5,-278.25 229.5,-278.25 217.5,-278.25"/>
<polygon fill="#666666" stroke="#666666" points="229.5,-278.25 229.5,-278.25 335.5,-278.25 335.5,-278.25 229.5,-278.25"/>
<polygon fill="none" stroke="#666666" points="217.5,-261.25 217.5,-385.25 335.5,-385.25 335.5,-261.25 217.5,-261.25"/>
</a>
</g>
</g>
<!-- Node4&#45;&gt;Node1 -->
<g id="edge3_Node000001_Node000004" class="edge">
<title>Node4&#45;&gt;Node1</title>
<g id="a_edge3_Node000001_Node000004"><a xlink:title=" ">
<path fill="none" stroke="#63b8ff" d="M276.5,-261.28C276.5,-236.92 276.5,-208.27 276.5,-181.26"/>
<polygon fill="none" stroke="#63b8ff" points="276.5,-181.47 272.5,-175.47 276.5,-169.47 280.5,-175.47 276.5,-181.47"/>
</a>
</g>
<text text-anchor="middle" x="323" y="-188.75" font-family="Helvetica,sans-Serif" font-size="10.00" fill="grey"> #motion_update_test</text>
</g>
<!-- Node5 -->
<g id="Node000005" class="node">
<title>Node5</title>
<g id="a_Node000005"><a xlink:href="classMotionModel.html" target="_top" xlink:title="Abstract Moiton Model class designed to be implemented by the different motion models.">
<polygon fill="white" stroke="none" points="505.5,-381.25 353.5,-381.25 353.5,-265.25 505.5,-265.25 505.5,-381.25"/>
<text text-anchor="start" x="401.75" y="-367.75" font-family="Helvetica,sans-Serif" font-size="10.00">MotionModel</text>
<text text-anchor="start" x="428" y="-352.75" font-family="Helvetica,sans-Serif" font-size="10.00"> </text>
<text text-anchor="start" x="357.5" y="-337.75" font-family="Helvetica,sans-Serif" font-size="10.00">+</text>
<text text-anchor="start" x="367.5" y="-337.75" font-family="Helvetica,sans-Serif" font-size="10.00">MotionModel()</text>
<text text-anchor="start" x="357.5" y="-322.75" font-family="Helvetica,sans-Serif" font-size="10.00">+</text>
<text text-anchor="start" x="367.5" y="-322.75" font-family="Helvetica,sans-Serif" font-size="10.00">predict_expected_state()</text>
<text text-anchor="start" x="357.5" y="-307.75" font-family="Helvetica,sans-Serif" font-size="10.00">+</text>
<text text-anchor="start" x="367.5" y="-307.75" font-family="Helvetica,sans-Serif" font-size="10.00">get_motion_to_state</text>
<text text-anchor="start" x="367.5" y="-296.5" font-family="Helvetica,sans-Serif" font-size="10.00">_matrix()</text>
<text text-anchor="start" x="357.5" y="-281.75" font-family="Helvetica,sans-Serif" font-size="10.00">+</text>
<text text-anchor="start" x="367.5" y="-281.75" font-family="Helvetica,sans-Serif" font-size="10.00">get_process_noise_covariance</text>
<text text-anchor="start" x="367.5" y="-270.5" font-family="Helvetica,sans-Serif" font-size="10.00">_matrix()</text>
<polygon fill="#666666" stroke="#666666" points="353.5,-364.25 353.5,-364.25 505.5,-364.25 505.5,-364.25 353.5,-364.25"/>
<polygon fill="#666666" stroke="#666666" points="353.5,-349.25 353.5,-349.25 505.5,-349.25 505.5,-349.25 353.5,-349.25"/>
<polygon fill="none" stroke="#666666" points="353.5,-265.25 353.5,-381.25 505.5,-381.25 505.5,-265.25 353.5,-265.25"/>
</a>
</g>
</g>
<!-- Node5&#45;&gt;Node1 -->
<g id="edge4_Node000001_Node000005" class="edge">
<title>Node5&#45;&gt;Node1</title>
<g id="a_edge4_Node000001_Node000005"><a xlink:title=" ">
<path fill="none" stroke="#63b8ff" d="M411.28,-265.31C401.93,-240.23 389.18,-211.06 373.5,-187 364.59,-173.33 353.71,-159.87 342.49,-147.45"/>
<polygon fill="none" stroke="#63b8ff" points="342.65,-147.62 335.64,-145.94 334.5,-138.82 341.51,-140.5 342.65,-147.62"/>
</a>
</g>
<text text-anchor="middle" x="424.5" y="-188.75" font-family="Helvetica,sans-Serif" font-size="10.00" fill="grey"> #motion_model_test</text>
</g>
<!-- Node6 -->
<g id="Node000006" class="node">
<title>Node6</title>
<g id="a_Node000006"><a xlink:href="classObservationModel.html" target="_top" xlink:title="Observation Model class compiled of functions for observation model.">
<polygon fill="white" stroke="none" points="651,-394.25 524,-394.25 524,-252.25 651,-252.25 651,-394.25"/>
<text text-anchor="start" x="548.12" y="-380.75" font-family="Helvetica,sans-Serif" font-size="10.00">ObservationModel</text>
<text text-anchor="start" x="586" y="-365.75" font-family="Helvetica,sans-Serif" font-size="10.00"> </text>
<text text-anchor="start" x="528" y="-350.75" font-family="Helvetica,sans-Serif" font-size="10.00">+</text>
<text text-anchor="start" x="538" y="-350.75" font-family="Helvetica,sans-Serif" font-size="10.00">ObservationModel()</text>
<text text-anchor="start" x="528" y="-335.75" font-family="Helvetica,sans-Serif" font-size="10.00">+</text>
<text text-anchor="start" x="538" y="-335.75" font-family="Helvetica,sans-Serif" font-size="10.00">observation_model()</text>
<text text-anchor="start" x="528" y="-320.75" font-family="Helvetica,sans-Serif" font-size="10.00">+</text>
<text text-anchor="start" x="538" y="-320.75" font-family="Helvetica,sans-Serif" font-size="10.00">inverse_observation</text>
<text text-anchor="start" x="538" y="-309.5" font-family="Helvetica,sans-Serif" font-size="10.00">_model()</text>
<text text-anchor="start" x="528" y="-294.75" font-family="Helvetica,sans-Serif" font-size="10.00">+</text>
<text text-anchor="start" x="538" y="-294.75" font-family="Helvetica,sans-Serif" font-size="10.00">get_state_to_observation</text>
<text text-anchor="start" x="538" y="-283.5" font-family="Helvetica,sans-Serif" font-size="10.00">_matrix()</text>
<text text-anchor="start" x="528" y="-268.75" font-family="Helvetica,sans-Serif" font-size="10.00">+</text>
<text text-anchor="start" x="538" y="-268.75" font-family="Helvetica,sans-Serif" font-size="10.00">get_observation_noise</text>
<text text-anchor="start" x="538" y="-257.5" font-family="Helvetica,sans-Serif" font-size="10.00">_covariance_matrix()</text>
<polygon fill="#666666" stroke="#666666" points="524,-377.25 524,-377.25 651,-377.25 651,-377.25 524,-377.25"/>
<polygon fill="#666666" stroke="#666666" points="524,-362.25 524,-362.25 651,-362.25 651,-362.25 524,-362.25"/>
<polygon fill="none" stroke="#666666" points="524,-252.25 524,-394.25 651,-394.25 651,-252.25 524,-252.25"/>
</a>
</g>
</g>
<!-- Node6&#45;&gt;Node1 -->
<g id="edge5_Node000001_Node000006" class="edge">
<title>Node6&#45;&gt;Node1</title>
<g id="a_edge5_Node000001_Node000006"><a xlink:title=" ">
<path fill="none" stroke="#63b8ff" d="M544.66,-252.52C535.45,-239.82 525.23,-227.16 514.5,-216.25 466.91,-167.86 397.58,-132.55 346.01,-110.91"/>
<polygon fill="none" stroke="#63b8ff" points="345.91,-110.86 338.84,-112.29 334.81,-106.31 341.88,-104.89 345.91,-110.86"/>
</a>
</g>
<text text-anchor="middle" x="548" y="-188.75" font-family="Helvetica,sans-Serif" font-size="10.00" fill="grey"> #observation_model_test</text>
</g>
</g>
</svg>

<g id="navigator" transform="translate(0 0)" fill="#404254">
  <rect fill="#f2f5e9" fill-opacity="0.5" stroke="#606060" stroke-width=".5" x="0" y="0" width="60" height="60"/>
  <use id="zoomplus" xlink:href="#zoomPlus" x="17" y="9" onmousedown="handleZoom(evt,'in')"/>
  <use id="zoomminus" xlink:href="#zoomMin" x="42" y="9" onmousedown="handleZoom(evt,'out')"/>
  <use id="reset" xlink:href="#resetDef" x="30" y="36" onmousedown="handleReset()"/>
   <use id="arrowup" xlink:href="#arrowUp" x="0" y="0" onmousedown="handlePan(0,-1)"/>
  <use id="arrowright" xlink:href="#arrowRight" x="0" y="0" onmousedown="handlePan(1,0)"/>
  <use id="arrowdown" xlink:href="#arrowDown" x="0" y="0" onmousedown="handlePan(0,1)"/>
  <use id="arrowleft" xlink:href="#arrowLeft" x="0" y="0" onmousedown="handlePan(-1,0)"/>
</g>
<svg viewBox="0 0 15 15" width="100%" height="30px" preserveAspectRatio="xMaxYMin meet">
 <g id="arrow_out" transform="scale(0.3 0.3)">
  <a xlink:href="classExecTimeTestEKFTests__coll__graph_org.svg" target="_base">
   <rect id="button" ry="5" rx="5" y="6" x="6" height="38" width="38"
        fill="#f2f5e9" fill-opacity="0.5" stroke="#606060" stroke-width="1.0"/>
   <path id="arrow"
     d="M 11.500037,31.436501 C 11.940474,20.09759 22.043105,11.32322 32.158766,21.979434 L 37.068811,17.246167 C 37.068811,17.246167 37.088388,32 37.088388,32 L 22.160133,31.978069 C 22.160133,31.978069 26.997745,27.140456 26.997745,27.140456 C 18.528582,18.264221 13.291696,25.230495 11.500037,31.436501 z"
     style="fill:#404040;"/>
  </a>
 </g>
</svg>

<style type='text/css'>
<![CDATA[
[data-mouse-over-selected='false'] { opacity: 0.7; }
[data-mouse-over-selected='true']  { opacity: 1.0; }
]]>
</style>
<script type="application/ecmascript"><![CDATA[
document.addEventListener('DOMContentLoaded', (event) => {
  highlightEdges();
  highlightAdjacentNodes();
});
]]></script>
</svg>
