<?xml version="1.0" encoding="UTF-8" standalone="no"?>
<!DOCTYPE svg PUBLIC "-//W3C//DTD SVG 1.1//EN"
 "http://www.w3.org/Graphics/SVG/1.1/DTD/svg11.dtd">
<!-- Generated by graphviz version 9.0.0 (20230911.1827)
 -->
<!-- Title: ObservationModel::get_state_to_observation_matrix Pages: 1 -->
<svg width="344pt" height="50pt"
 viewBox="0.00 0.00 344.00 49.75" xmlns="http://www.w3.org/2000/svg" xmlns:xlink="http://www.w3.org/1999/xlink">
<g id="graph0" class="graph" transform="scale(1 1) rotate(0) translate(4 45.75)">
<title>ObservationModel::get_state_to_observation_matrix</title>
<!-- Node1 -->
<g id="Node000001" class="node">
<title>Node1</title>
<g id="a_Node000001"><a xlink:title="Get the state to observation matrix of the observation model (H)">
<polygon fill="#999999" stroke="#666666" points="336,-41.75 223.25,-41.75 223.25,0 336,0 336,-41.75"/>
<text text-anchor="start" x="231.25" y="-28.25" font-family="Helvetica,sans-Serif" font-size="10.00">ObservationModel::get</text>
<text text-anchor="start" x="231.25" y="-17" font-family="Helvetica,sans-Serif" font-size="10.00">_state_to_observation</text>
<text text-anchor="middle" x="279.62" y="-5.75" font-family="Helvetica,sans-Serif" font-size="10.00">_matrix</text>
</a>
</g>
</g>
<!-- Node2 -->
<g id="Node000002" class="node">
<title>Node2</title>
<g id="a_Node000002"><a xlink:href="classExtendedKalmanFilter.html#a230559bb9193f7acf494ae9e889fb6f8" target="_top" xlink:title="Correction step:">
<polygon fill="white" stroke="#666666" points="187.25,-36.12 76.75,-36.12 76.75,-5.62 187.25,-5.62 187.25,-36.12"/>
<text text-anchor="start" x="84.75" y="-22.62" font-family="Helvetica,sans-Serif" font-size="10.00">ExtendedKalmanFilter</text>
<text text-anchor="middle" x="132" y="-11.38" font-family="Helvetica,sans-Serif" font-size="10.00">::correction_step</text>
</a>
</g>
</g>
<!-- Node1&#45;&gt;Node2 -->
<g id="edge1_Node000001_Node000002" class="edge">
<title>Node1&#45;&gt;Node2</title>
<g id="a_edge1_Node000001_Node000002"><a xlink:title=" ">
<path fill="none" stroke="#63b8ff" d="M211.73,-20.88C203.56,-20.88 195.3,-20.88 187.35,-20.88"/>
<polygon fill="#63b8ff" stroke="#63b8ff" points="211.64,-24.38 221.64,-20.88 211.64,-17.38 211.64,-24.38"/>
</a>
</g>
</g>
<!-- Node3 -->
<g id="Node000003" class="node">
<title>Node3</title>
<g id="a_Node000003"><a xlink:href="slam__test_8cpp.html#aa751639fa208fe991a3ba5969c0daa28" target="_top" xlink:title="Test the EKF SLAM algorithm in a linear movement.">
<polygon fill="white" stroke="#666666" points="40.75,-30.5 0,-30.5 0,-11.25 40.75,-11.25 40.75,-30.5"/>
<text text-anchor="middle" x="20.38" y="-17" font-family="Helvetica,sans-Serif" font-size="10.00">TEST</text>
</a>
</g>
</g>
<!-- Node2&#45;&gt;Node3 -->
<g id="edge2_Node000002_Node000003" class="edge">
<title>Node2&#45;&gt;Node3</title>
<g id="a_edge2_Node000002_Node000003"><a xlink:title=" ">
<path fill="none" stroke="#63b8ff" d="M65.28,-20.88C56.52,-20.88 48.15,-20.88 41.11,-20.88"/>
<polygon fill="#63b8ff" stroke="#63b8ff" points="65,-24.38 75,-20.88 65,-17.38 65,-24.38"/>
</a>
</g>
</g>
</g>
</svg>
