<?xml version="1.0" encoding="UTF-8" standalone="no"?>
<!DOCTYPE svg PUBLIC "-//W3C//DTD SVG 1.1//EN"
 "http://www.w3.org/Graphics/SVG/1.1/DTD/svg11.dtd">
<!-- Generated by graphviz version 9.0.0 (20230911.1827)
 -->
<!-- Title: Track::fillTrack Pages: 1 -->
<svg width="311pt" height="286pt"
 viewBox="0.00 0.00 311.00 286.25" xmlns="http://www.w3.org/2000/svg" xmlns:xlink="http://www.w3.org/1999/xlink">
<g id="graph0" class="graph" transform="scale(1 1) rotate(0) translate(4 282.25)">
<title>Track::fillTrack</title>
<!-- Node1 -->
<g id="Node000001" class="node">
<title>Node1</title>
<g id="a_Node000001"><a xlink:title="Fill the track data from a file.">
<polygon fill="#999999" stroke="#666666" points="303,-74.25 224,-74.25 224,-55 303,-55 303,-74.25"/>
<text text-anchor="middle" x="263.5" y="-60.75" font-family="Helvetica,sans-Serif" font-size="10.00">Track::fillTrack</text>
</a>
</g>
</g>
<!-- Node2 -->
<g id="Node000002" class="node">
<title>Node2</title>
<g id="a_Node000002"><a xlink:href="tests_8cpp.html#a079261152f3ac81df46a49a1b3fb0f2d" target="_top" xlink:title=" ">
<polygon fill="white" stroke="#666666" points="180.12,-204.25 84.62,-204.25 84.62,-185 180.12,-185 180.12,-204.25"/>
<text text-anchor="middle" x="132.38" y="-190.75" font-family="Helvetica,sans-Serif" font-size="10.00">outlierCalculations</text>
</a>
</g>
</g>
<!-- Node1&#45;&gt;Node2 -->
<g id="edge1_Node000001_Node000002" class="edge">
<title>Node1&#45;&gt;Node2</title>
<g id="a_edge1_Node000001_Node000002"><a xlink:title=" ">
<path fill="none" stroke="#63b8ff" d="M244.78,-82.47C217.19,-110.24 164.89,-162.89 143.19,-184.74"/>
<polygon fill="#63b8ff" stroke="#63b8ff" points="247.16,-85.03 251.73,-75.47 242.2,-80.1 247.16,-85.03"/>
</a>
</g>
</g>
<!-- Node7 -->
<g id="Node000007" class="node">
<title>Node7</title>
<g id="a_Node000007"><a xlink:href="tests_8cpp.html#aef57f8f537bed02c0940fcd1dde6144a" target="_top" xlink:title=" ">
<polygon fill="white" stroke="#666666" points="188,-93.25 76.75,-93.25 76.75,-74 188,-74 188,-93.25"/>
<text text-anchor="middle" x="132.38" y="-79.75" font-family="Helvetica,sans-Serif" font-size="10.00">processTriangulations</text>
</a>
</g>
</g>
<!-- Node1&#45;&gt;Node7 -->
<g id="edge6_Node000001_Node000007" class="edge">
<title>Node1&#45;&gt;Node7</title>
<g id="a_edge6_Node000001_Node000007"><a xlink:title=" ">
<path fill="none" stroke="#63b8ff" d="M212.45,-71.99C204.54,-73.15 196.33,-74.36 188.32,-75.54"/>
<polygon fill="#63b8ff" stroke="#63b8ff" points="212.88,-75.46 222.26,-70.55 211.86,-68.54 212.88,-75.46"/>
</a>
</g>
</g>
<!-- Node12 -->
<g id="Node000012" class="node">
<title>Node12</title>
<g id="a_Node000012"><a xlink:href="classPublisher.html#a5538d94fb8d594575be67e6edd7166df" target="_top" xlink:title=" ">
<polygon fill="white" stroke="#666666" points="183.12,-56.25 81.62,-56.25 81.62,-37 183.12,-37 183.12,-56.25"/>
<text text-anchor="middle" x="132.38" y="-42.75" font-family="Helvetica,sans-Serif" font-size="10.00">Publisher::Publisher</text>
</a>
</g>
</g>
<!-- Node1&#45;&gt;Node12 -->
<g id="edge11_Node000001_Node000012" class="edge">
<title>Node1&#45;&gt;Node12</title>
<g id="a_edge11_Node000001_Node000012"><a xlink:title=" ">
<path fill="none" stroke="#63b8ff" d="M212.47,-57.65C202.99,-56.33 193.07,-54.95 183.58,-53.62"/>
<polygon fill="#63b8ff" stroke="#63b8ff" points="211.87,-61.1 222.26,-59.02 212.84,-54.17 211.87,-61.1"/>
</a>
</g>
</g>
<!-- Node13 -->
<g id="Node000013" class="node">
<title>Node13</title>
<g id="a_Node000013"><a xlink:href="tests_8cpp.html#ac9d004c8db77da8d75a6229a398bfcba" target="_top" xlink:title=" ">
<polygon fill="white" stroke="#666666" points="152.75,-19.25 112,-19.25 112,0 152.75,0 152.75,-19.25"/>
<text text-anchor="middle" x="132.38" y="-5.75" font-family="Helvetica,sans-Serif" font-size="10.00">TEST</text>
</a>
</g>
</g>
<!-- Node1&#45;&gt;Node13 -->
<g id="edge12_Node000001_Node000013" class="edge">
<title>Node1&#45;&gt;Node13</title>
<g id="a_edge12_Node000001_Node000013"><a xlink:title=" ">
<path fill="none" stroke="#63b8ff" d="M234.33,-49.45C220.58,-42.34 203.65,-34.05 188,-27.62 176.64,-22.96 163.58,-18.62 153.09,-15.37"/>
<polygon fill="#63b8ff" stroke="#63b8ff" points="232.34,-52.36 242.82,-53.9 235.59,-46.16 232.34,-52.36"/>
</a>
</g>
</g>
<!-- Node3 -->
<g id="Node000003" class="node">
<title>Node3</title>
<g id="a_Node000003"><a xlink:href="tests_8cpp.html#aa39b06d40b7290dacc01a79720a31e09" target="_top" xlink:title=" ">
<polygon fill="white" stroke="#666666" points="40.75,-278.25 0,-278.25 0,-259 40.75,-259 40.75,-278.25"/>
<text text-anchor="middle" x="20.38" y="-264.75" font-family="Helvetica,sans-Serif" font-size="10.00">TEST</text>
</a>
</g>
</g>
<!-- Node2&#45;&gt;Node3 -->
<g id="edge2_Node000002_Node000003" class="edge">
<title>Node2&#45;&gt;Node3</title>
<g id="a_edge2_Node000002_Node000003"><a xlink:title=" ">
<path fill="none" stroke="#63b8ff" d="M107.05,-210.99C85.43,-225.53 54.5,-246.34 36.33,-258.57"/>
<polygon fill="#63b8ff" stroke="#63b8ff" points="108.94,-213.94 115.28,-205.45 105.03,-208.13 108.94,-213.94"/>
</a>
</g>
</g>
<!-- Node4 -->
<g id="Node000004" class="node">
<title>Node4</title>
<g id="a_Node000004"><a xlink:href="tests_8cpp.html#a5436909e02106ab864f366dc30568a7d" target="_top" xlink:title=" ">
<polygon fill="white" stroke="#666666" points="40.75,-241.25 0,-241.25 0,-222 40.75,-222 40.75,-241.25"/>
<text text-anchor="middle" x="20.38" y="-227.75" font-family="Helvetica,sans-Serif" font-size="10.00">TEST</text>
</a>
</g>
</g>
<!-- Node2&#45;&gt;Node4 -->
<g id="edge3_Node000002_Node000004" class="edge">
<title>Node2&#45;&gt;Node4</title>
<g id="a_edge3_Node000002_Node000004"><a xlink:title=" ">
<path fill="none" stroke="#63b8ff" d="M90.54,-208.36C73.6,-214.06 54.74,-220.4 40.99,-225.03"/>
<polygon fill="#63b8ff" stroke="#63b8ff" points="91.52,-211.72 99.88,-205.22 89.29,-205.09 91.52,-211.72"/>
</a>
</g>
</g>
<!-- Node5 -->
<g id="Node000005" class="node">
<title>Node5</title>
<g id="a_Node000005"><a xlink:href="tests_8cpp.html#a6c463cf30fcc67ae6b2ff38e382cecd0" target="_top" xlink:title=" ">
<polygon fill="white" stroke="#666666" points="40.75,-204.25 0,-204.25 0,-185 40.75,-185 40.75,-204.25"/>
<text text-anchor="middle" x="20.38" y="-190.75" font-family="Helvetica,sans-Serif" font-size="10.00">TEST</text>
</a>
</g>
</g>
<!-- Node2&#45;&gt;Node5 -->
<g id="edge4_Node000002_Node000005" class="edge">
<title>Node2&#45;&gt;Node5</title>
<g id="a_edge4_Node000002_Node000005"><a xlink:title=" ">
<path fill="none" stroke="#63b8ff" d="M72.94,-194.62C61.46,-194.62 50.18,-194.62 41.12,-194.62"/>
<polygon fill="#63b8ff" stroke="#63b8ff" points="72.89,-198.13 82.89,-194.63 72.89,-191.13 72.89,-198.13"/>
</a>
</g>
</g>
<!-- Node6 -->
<g id="Node000006" class="node">
<title>Node6</title>
<g id="a_Node000006"><a xlink:href="tests_8cpp.html#a08dff1d6d2b732a0cd35660ad29e426e" target="_top" xlink:title=" ">
<polygon fill="white" stroke="#666666" points="40.75,-167.25 0,-167.25 0,-148 40.75,-148 40.75,-167.25"/>
<text text-anchor="middle" x="20.38" y="-153.75" font-family="Helvetica,sans-Serif" font-size="10.00">TEST</text>
</a>
</g>
</g>
<!-- Node2&#45;&gt;Node6 -->
<g id="edge5_Node000002_Node000006" class="edge">
<title>Node2&#45;&gt;Node6</title>
<g id="a_edge5_Node000002_Node000006"><a xlink:title=" ">
<path fill="none" stroke="#63b8ff" d="M90.54,-180.89C73.6,-175.19 54.74,-168.85 40.99,-164.22"/>
<polygon fill="#63b8ff" stroke="#63b8ff" points="89.29,-184.16 99.88,-184.03 91.52,-177.53 89.29,-184.16"/>
</a>
</g>
</g>
<!-- Node8 -->
<g id="Node000008" class="node">
<title>Node8</title>
<g id="a_Node000008"><a xlink:href="tests_8cpp.html#afdc65423b0a5a3ca636f3aacfb1dba56" target="_top" xlink:title=" ">
<polygon fill="white" stroke="#666666" points="40.75,-130.25 0,-130.25 0,-111 40.75,-111 40.75,-130.25"/>
<text text-anchor="middle" x="20.38" y="-116.75" font-family="Helvetica,sans-Serif" font-size="10.00">TEST</text>
</a>
</g>
</g>
<!-- Node7&#45;&gt;Node8 -->
<g id="edge7_Node000007_Node000008" class="edge">
<title>Node7&#45;&gt;Node8</title>
<g id="a_edge7_Node000007_Node000008"><a xlink:title=" ">
<path fill="none" stroke="#63b8ff" d="M90.54,-97.36C73.6,-103.06 54.74,-109.4 40.99,-114.03"/>
<polygon fill="#63b8ff" stroke="#63b8ff" points="91.52,-100.72 99.88,-94.22 89.29,-94.09 91.52,-100.72"/>
</a>
</g>
</g>
<!-- Node9 -->
<g id="Node000009" class="node">
<title>Node9</title>
<g id="a_Node000009"><a xlink:href="tests_8cpp.html#aa4387a361b1943b82c6e9ef915917c12" target="_top" xlink:title=" ">
<polygon fill="white" stroke="#666666" points="40.75,-93.25 0,-93.25 0,-74 40.75,-74 40.75,-93.25"/>
<text text-anchor="middle" x="20.38" y="-79.75" font-family="Helvetica,sans-Serif" font-size="10.00">TEST</text>
</a>
</g>
</g>
<!-- Node7&#45;&gt;Node9 -->
<g id="edge8_Node000007_Node000009" class="edge">
<title>Node7&#45;&gt;Node9</title>
<g id="a_edge8_Node000007_Node000009"><a xlink:title=" ">
<path fill="none" stroke="#63b8ff" d="M64.86,-83.62C56.22,-83.62 47.98,-83.62 41.04,-83.62"/>
<polygon fill="#63b8ff" stroke="#63b8ff" points="64.86,-87.13 74.86,-83.63 64.86,-80.13 64.86,-87.13"/>
</a>
</g>
</g>
<!-- Node10 -->
<g id="Node000010" class="node">
<title>Node10</title>
<g id="a_Node000010"><a xlink:href="tests_8cpp.html#a978f4baa8d39fb740ed92fd44ba50933" target="_top" xlink:title=" ">
<polygon fill="white" stroke="#666666" points="40.75,-56.25 0,-56.25 0,-37 40.75,-37 40.75,-56.25"/>
<text text-anchor="middle" x="20.38" y="-42.75" font-family="Helvetica,sans-Serif" font-size="10.00">TEST</text>
</a>
</g>
</g>
<!-- Node7&#45;&gt;Node10 -->
<g id="edge9_Node000007_Node000010" class="edge">
<title>Node7&#45;&gt;Node10</title>
<g id="a_edge9_Node000007_Node000010"><a xlink:title=" ">
<path fill="none" stroke="#63b8ff" d="M89.69,-69.95C85.32,-68.5 80.94,-67.03 76.75,-65.62 64.9,-61.64 51.65,-57.1 41.09,-53.45"/>
<polygon fill="#63b8ff" stroke="#63b8ff" points="88.41,-73.21 99.01,-73.03 90.61,-66.57 88.41,-73.21"/>
</a>
</g>
</g>
<!-- Node11 -->
<g id="Node000011" class="node">
<title>Node11</title>
<g id="a_Node000011"><a xlink:href="tests_8cpp.html#aaff9fd771beea10b1e522702042da27c" target="_top" xlink:title=" ">
<polygon fill="white" stroke="#666666" points="40.75,-19.25 0,-19.25 0,0 40.75,0 40.75,-19.25"/>
<text text-anchor="middle" x="20.38" y="-5.75" font-family="Helvetica,sans-Serif" font-size="10.00">TEST</text>
</a>
</g>
</g>
<!-- Node7&#45;&gt;Node11 -->
<g id="edge10_Node000007_Node000011" class="edge">
<title>Node7&#45;&gt;Node11</title>
<g id="a_edge10_Node000007_Node000011"><a xlink:title=" ">
<path fill="none" stroke="#63b8ff" d="M82.47,-68.92C80.5,-67.88 78.58,-66.79 76.75,-65.62 57.11,-53.16 57.28,-44 40.75,-27.62 38.01,-24.91 34.98,-22.04 32.15,-19.41"/>
<polygon fill="#63b8ff" stroke="#63b8ff" points="80.74,-71.97 91.29,-72.92 83.63,-65.6 80.74,-71.97"/>
</a>
</g>
</g>
</g>
</svg>
