<?xml version="1.0" encoding="UTF-8" standalone="no"?>
<!DOCTYPE svg PUBLIC "-//W3C//DTD SVG 1.1//EN"
 "http://www.w3.org/Graphics/SVG/1.1/DTD/svg11.dtd">
<!-- Generated by graphviz version 9.0.0 (20230911.1827)
 -->
<!-- Title: ImuVelocityModel Pages: 1 -->
<svg width="160pt" height="250pt"
 viewBox="0.00 0.00 160.00 250.00" xmlns="http://www.w3.org/2000/svg" xmlns:xlink="http://www.w3.org/1999/xlink">

<svg id="main" version="1.1" xmlns="http://www.w3.org/2000/svg" xmlns:xlink="http://www.w3.org/1999/xlink" xml:space="preserve" onload="init(evt)">
<style type="text/css"><![CDATA[
.node, .edge {opacity: 0.7;}
.node.selected, .edge.selected {opacity: 1;}
.edge:hover path { stroke: red; }
.edge:hover polygon { stroke: red; fill: red; }
]]></style>
<script type="application/ecmascript" xlink:href="svg.min.js"/>
<svg id="graph" class="graph">
<g id="graph0" class="graph" transform="scale(1 1) rotate(0) translate(4 246)">
<title>ImuVelocityModel</title>
<!-- Node1 -->
<g id="Node000001" class="node">
<title>Node1</title>
<g id="a_Node000001"><a xlink:title="Motion estimation that uses the specific values of the x and y axis accelerations,...">
<polygon fill="#999999" stroke="none" points="138,-90 14,-90 14,0 138,0 138,-90"/>
<text text-anchor="start" x="37.38" y="-76.5" font-family="Helvetica,sans-Serif" font-size="10.00">ImuVelocityModel</text>
<text text-anchor="start" x="74.5" y="-61.5" font-family="Helvetica,sans-Serif" font-size="10.00"> </text>
<text text-anchor="start" x="18" y="-46.5" font-family="Helvetica,sans-Serif" font-size="10.00">+</text>
<text text-anchor="start" x="28" y="-46.5" font-family="Helvetica,sans-Serif" font-size="10.00">ImuVelocityModel()</text>
<text text-anchor="start" x="18" y="-31.5" font-family="Helvetica,sans-Serif" font-size="10.00">+</text>
<text text-anchor="start" x="28" y="-31.5" font-family="Helvetica,sans-Serif" font-size="10.00">predict_expected_state()</text>
<text text-anchor="start" x="18" y="-16.5" font-family="Helvetica,sans-Serif" font-size="10.00">+</text>
<text text-anchor="start" x="28" y="-16.5" font-family="Helvetica,sans-Serif" font-size="10.00">get_motion_to_state</text>
<text text-anchor="start" x="28" y="-5.25" font-family="Helvetica,sans-Serif" font-size="10.00">_matrix()</text>
<polygon fill="#666666" stroke="#666666" points="14,-73 14,-73 138,-73 138,-73 14,-73"/>
<polygon fill="#666666" stroke="#666666" points="14,-58 14,-58 138,-58 138,-58 14,-58"/>
<polygon fill="none" stroke="#666666" points="14,0 14,-90 138,-90 138,0 14,0"/>
</a>
</g>
</g>
<!-- Node2 -->
<g id="Node000002" class="node">
<title>Node2</title>
<g id="a_Node000002"><a xlink:href="classMotionModel.html" target="_top" xlink:title="Abstract Moiton Model class designed to be implemented by the different motion models.">
<polygon fill="white" stroke="none" points="152,-242 0,-242 0,-126 152,-126 152,-242"/>
<text text-anchor="start" x="48.25" y="-228.5" font-family="Helvetica,sans-Serif" font-size="10.00">MotionModel</text>
<text text-anchor="start" x="74.5" y="-213.5" font-family="Helvetica,sans-Serif" font-size="10.00"> </text>
<text text-anchor="start" x="4" y="-198.5" font-family="Helvetica,sans-Serif" font-size="10.00">+</text>
<text text-anchor="start" x="14" y="-198.5" font-family="Helvetica,sans-Serif" font-size="10.00">MotionModel()</text>
<text text-anchor="start" x="4" y="-183.5" font-family="Helvetica,sans-Serif" font-size="10.00">+</text>
<text text-anchor="start" x="14" y="-183.5" font-family="Helvetica,sans-Serif" font-size="10.00">predict_expected_state()</text>
<text text-anchor="start" x="4" y="-168.5" font-family="Helvetica,sans-Serif" font-size="10.00">+</text>
<text text-anchor="start" x="14" y="-168.5" font-family="Helvetica,sans-Serif" font-size="10.00">get_motion_to_state</text>
<text text-anchor="start" x="14" y="-157.25" font-family="Helvetica,sans-Serif" font-size="10.00">_matrix()</text>
<text text-anchor="start" x="4" y="-142.5" font-family="Helvetica,sans-Serif" font-size="10.00">+</text>
<text text-anchor="start" x="14" y="-142.5" font-family="Helvetica,sans-Serif" font-size="10.00">get_process_noise_covariance</text>
<text text-anchor="start" x="14" y="-131.25" font-family="Helvetica,sans-Serif" font-size="10.00">_matrix()</text>
<polygon fill="#666666" stroke="#666666" points="0,-225 0,-225 152,-225 152,-225 0,-225"/>
<polygon fill="#666666" stroke="#666666" points="0,-210 0,-210 152,-210 152,-210 0,-210"/>
<polygon fill="none" stroke="#666666" points="0,-126 0,-242 152,-242 152,-126 0,-126"/>
</a>
</g>
</g>
<!-- Node2&#45;&gt;Node1 -->
<g id="edge1_Node000001_Node000002" class="edge">
<title>Node2&#45;&gt;Node1</title>
<g id="a_edge1_Node000001_Node000002"><a xlink:title=" ">
<path fill="none" stroke="#63b8ff" d="M76,-114.69C76,-106.29 76,-97.89 76,-89.99"/>
<polygon fill="none" stroke="#63b8ff" points="72.5,-114.58 76,-124.58 79.5,-114.58 72.5,-114.58"/>
</a>
</g>
</g>
</g>
</svg>
</svg>

<style type='text/css'>
<![CDATA[
[data-mouse-over-selected='false'] { opacity: 0.7; }
[data-mouse-over-selected='true']  { opacity: 1.0; }
]]>
</style>
<script type="application/ecmascript"><![CDATA[
document.addEventListener('DOMContentLoaded', (event) => {
  highlightEdges();
  highlightAdjacentNodes();
});
]]></script>
</svg>
