<?xml version="1.0" encoding="UTF-8" standalone="no"?>
<!DOCTYPE svg PUBLIC "-//W3C//DTD SVG 1.1//EN"
 "http://www.w3.org/Graphics/SVG/1.1/DTD/svg11.dtd">
<!-- Generated by graphviz version 9.0.0 (20230911.1827)
 -->
<!-- Title: ImuVelocityModel::get_motion_to_state_matrix Pages: 1 -->
<svg width="207pt" height="138pt"
 viewBox="0.00 0.00 207.25 138.25" xmlns="http://www.w3.org/2000/svg" xmlns:xlink="http://www.w3.org/1999/xlink">
<g id="graph0" class="graph" transform="scale(1 1) rotate(0) translate(4 134.25)">
<title>ImuVelocityModel::get_motion_to_state_matrix</title>
<!-- Node1 -->
<g id="Node000001" class="node">
<title>Node1</title>
<g id="a_Node000001"><a xlink:title="Calculate state covariance matrix from velocity model using IMU data and linear functions Uses transl...">
<polygon fill="#999999" stroke="#666666" points="199.25,-79.88 76.75,-79.88 76.75,-49.38 199.25,-49.38 199.25,-79.88"/>
<text text-anchor="start" x="84.75" y="-66.38" font-family="Helvetica,sans-Serif" font-size="10.00">ImuVelocityModel::get</text>
<text text-anchor="middle" x="138" y="-55.12" font-family="Helvetica,sans-Serif" font-size="10.00">_motion_to_state_matrix</text>
</a>
</g>
</g>
<!-- Node2 -->
<g id="Node000002" class="node">
<title>Node2</title>
<g id="a_Node000002"><a xlink:href="motion__model__test_8cpp.html#ae0937a30b47fc882eb19bb57e6ca6bbf" target="_top" xlink:title=" ">
<polygon fill="white" stroke="#666666" points="40.75,-130.25 0,-130.25 0,-111 40.75,-111 40.75,-130.25"/>
<text text-anchor="middle" x="20.38" y="-116.75" font-family="Helvetica,sans-Serif" font-size="10.00">TEST</text>
</a>
</g>
</g>
<!-- Node1&#45;&gt;Node2 -->
<g id="edge1_Node000001_Node000002" class="edge">
<title>Node1&#45;&gt;Node2</title>
<g id="a_edge1_Node000001_Node000002"><a xlink:title=" ">
<path fill="none" stroke="#63b8ff" d="M94.32,-85.3C76.03,-94.15 55.57,-104.06 40.98,-111.13"/>
<polygon fill="#63b8ff" stroke="#63b8ff" points="95.65,-88.54 103.12,-81.03 92.6,-82.24 95.65,-88.54"/>
</a>
</g>
</g>
<!-- Node3 -->
<g id="Node000003" class="node">
<title>Node3</title>
<g id="a_Node000003"><a xlink:href="motion__model__test_8cpp.html#a9c31f0345da32c0c5eaa421433ba5ec3" target="_top" xlink:title=" ">
<polygon fill="white" stroke="#666666" points="40.75,-93.25 0,-93.25 0,-74 40.75,-74 40.75,-93.25"/>
<text text-anchor="middle" x="20.38" y="-79.75" font-family="Helvetica,sans-Serif" font-size="10.00">TEST</text>
</a>
</g>
</g>
<!-- Node1&#45;&gt;Node3 -->
<g id="edge2_Node000001_Node000003" class="edge">
<title>Node1&#45;&gt;Node3</title>
<g id="a_edge2_Node000001_Node000003"><a xlink:title=" ">
<path fill="none" stroke="#63b8ff" d="M65.2,-76.42C56.44,-77.86 48.14,-79.23 41.16,-80.37"/>
<polygon fill="#63b8ff" stroke="#63b8ff" points="65.68,-79.89 74.98,-74.82 64.55,-72.98 65.68,-79.89"/>
</a>
</g>
</g>
<!-- Node4 -->
<g id="Node000004" class="node">
<title>Node4</title>
<g id="a_Node000004"><a xlink:href="motion__model__test_8cpp.html#a13d66ed5f0bcb51eb59eaeb8da3fe292" target="_top" xlink:title=" ">
<polygon fill="white" stroke="#666666" points="40.75,-56.25 0,-56.25 0,-37 40.75,-37 40.75,-56.25"/>
<text text-anchor="middle" x="20.38" y="-42.75" font-family="Helvetica,sans-Serif" font-size="10.00">TEST</text>
</a>
</g>
</g>
<!-- Node1&#45;&gt;Node4 -->
<g id="edge3_Node000001_Node000004" class="edge">
<title>Node1&#45;&gt;Node4</title>
<g id="a_edge3_Node000001_Node000004"><a xlink:title=" ">
<path fill="none" stroke="#63b8ff" d="M65.2,-53.45C56.44,-52.08 48.14,-50.79 41.16,-49.71"/>
<polygon fill="#63b8ff" stroke="#63b8ff" points="64.56,-56.89 74.98,-54.97 65.64,-49.97 64.56,-56.89"/>
</a>
</g>
</g>
<!-- Node5 -->
<g id="Node000005" class="node">
<title>Node5</title>
<g id="a_Node000005"><a xlink:href="motion__model__test_8cpp.html#a6fbede91fc0c55e0beeee30fb29a34bf" target="_top" xlink:title=" ">
<polygon fill="white" stroke="#666666" points="40.75,-19.25 0,-19.25 0,0 40.75,0 40.75,-19.25"/>
<text text-anchor="middle" x="20.38" y="-5.75" font-family="Helvetica,sans-Serif" font-size="10.00">TEST</text>
</a>
</g>
</g>
<!-- Node1&#45;&gt;Node5 -->
<g id="edge4_Node000001_Node000005" class="edge">
<title>Node1&#45;&gt;Node5</title>
<g id="a_edge4_Node000001_Node000005"><a xlink:title=" ">
<path fill="none" stroke="#63b8ff" d="M93.83,-44.09C75.77,-35.5 55.66,-25.93 41.22,-19.06"/>
<polygon fill="#63b8ff" stroke="#63b8ff" points="92.28,-47.23 102.81,-48.36 95.28,-40.9 92.28,-47.23"/>
</a>
</g>
</g>
</g>
</svg>
