<?xml version="1.0" encoding="UTF-8" standalone="no"?>
<!DOCTYPE svg PUBLIC "-//W3C//DTD SVG 1.1//EN"
 "http://www.w3.org/Graphics/SVG/1.1/DTD/svg11.dtd">
<!-- Generated by graphviz version 9.0.0 (20230911.1827)
 -->
<!-- Title: ExecTimeTest Pages: 1 -->
<svg width="128pt" height="352pt"
 viewBox="0.00 0.00 128.00 352.00" xmlns="http://www.w3.org/2000/svg" xmlns:xlink="http://www.w3.org/1999/xlink">
<g id="graph0" class="graph" transform="scale(1 1) rotate(0) translate(4 348)">
<title>ExecTimeTest</title>
<!-- Node1 -->
<g id="Node000001" class="node">
<title>Node1</title>
<g id="a_Node000001"><a xlink:title=" ">
<polygon fill="#999999" stroke="none" points="120,-259 0,-259 0,0 120,0 120,-259"/>
<text text-anchor="start" x="28.88" y="-245.5" font-family="Helvetica,sans-Serif" font-size="10.00">ExecTimeTest</text>
<text text-anchor="start" x="3.88" y="-230.5" font-family="Helvetica,sans-Serif" font-size="10.00">#</text>
<text text-anchor="start" x="13" y="-230.5" font-family="Helvetica,sans-Serif" font-size="10.00">vehicle_state_test</text>
<text text-anchor="start" x="3.88" y="-215.5" font-family="Helvetica,sans-Serif" font-size="10.00">#</text>
<text text-anchor="start" x="13" y="-215.5" font-family="Helvetica,sans-Serif" font-size="10.00">motion_update_test</text>
<text text-anchor="start" x="3.88" y="-200.5" font-family="Helvetica,sans-Serif" font-size="10.00">#</text>
<text text-anchor="start" x="13" y="-200.5" font-family="Helvetica,sans-Serif" font-size="10.00">track_map_test</text>
<text text-anchor="start" x="3.88" y="-185.5" font-family="Helvetica,sans-Serif" font-size="10.00">#</text>
<text text-anchor="start" x="13" y="-185.5" font-family="Helvetica,sans-Serif" font-size="10.00">perception_map_test</text>
<text text-anchor="start" x="3.88" y="-170.5" font-family="Helvetica,sans-Serif" font-size="10.00">#</text>
<text text-anchor="start" x="13" y="-170.5" font-family="Helvetica,sans-Serif" font-size="10.00">Q_test</text>
<text text-anchor="start" x="3.88" y="-155.5" font-family="Helvetica,sans-Serif" font-size="10.00">#</text>
<text text-anchor="start" x="13" y="-155.5" font-family="Helvetica,sans-Serif" font-size="10.00">R_test</text>
<text text-anchor="start" x="3.88" y="-140.5" font-family="Helvetica,sans-Serif" font-size="10.00">#</text>
<text text-anchor="start" x="13" y="-140.5" font-family="Helvetica,sans-Serif" font-size="10.00">motion_model_test</text>
<text text-anchor="start" x="3.88" y="-125.5" font-family="Helvetica,sans-Serif" font-size="10.00">#</text>
<text text-anchor="start" x="13" y="-125.5" font-family="Helvetica,sans-Serif" font-size="10.00">observation_model_test</text>
<text text-anchor="start" x="3.88" y="-110.5" font-family="Helvetica,sans-Serif" font-size="10.00">#</text>
<text text-anchor="start" x="13" y="-110.5" font-family="Helvetica,sans-Serif" font-size="10.00">ekf_test</text>
<text text-anchor="start" x="3.88" y="-95.5" font-family="Helvetica,sans-Serif" font-size="10.00">#</text>
<text text-anchor="start" x="13" y="-95.5" font-family="Helvetica,sans-Serif" font-size="10.00">use_odometry_test</text>
<text text-anchor="start" x="13" y="-80.5" font-family="Helvetica,sans-Serif" font-size="10.00">and 15 more...</text>
<text text-anchor="start" x="3.88" y="-65.5" font-family="Helvetica,sans-Serif" font-size="10.00">#</text>
<text text-anchor="start" x="13" y="-65.5" font-family="Helvetica,sans-Serif" font-size="10.00">print_to_file()</text>
<text text-anchor="start" x="3.88" y="-50.5" font-family="Helvetica,sans-Serif" font-size="10.00">#</text>
<text text-anchor="start" x="13" y="-50.5" font-family="Helvetica,sans-Serif" font-size="10.00">fill_X()</text>
<text text-anchor="start" x="3.88" y="-35.5" font-family="Helvetica,sans-Serif" font-size="10.00">#</text>
<text text-anchor="start" x="13" y="-35.5" font-family="Helvetica,sans-Serif" font-size="10.00">fill_cone_array()</text>
<text text-anchor="start" x="3.88" y="-20.5" font-family="Helvetica,sans-Serif" font-size="10.00">#</text>
<text text-anchor="start" x="13" y="-20.5" font-family="Helvetica,sans-Serif" font-size="10.00">SetUp()</text>
<text text-anchor="start" x="3.88" y="-5.5" font-family="Helvetica,sans-Serif" font-size="10.00">#</text>
<text text-anchor="start" x="13" y="-5.5" font-family="Helvetica,sans-Serif" font-size="10.00">TearDown()</text>
<polygon fill="#666666" stroke="#666666" points="0,-242 0,-242 120,-242 120,-242 0,-242"/>
<polygon fill="#666666" stroke="#666666" points="0,-77 0,-77 11,-77 11,-77 0,-77"/>
<polygon fill="#666666" stroke="#666666" points="11,-77 11,-77 120,-77 120,-77 11,-77"/>
<polygon fill="none" stroke="#666666" points="0,0 0,-259 120,-259 120,0 0,0"/>
</a>
</g>
</g>
<!-- Node2 -->
<g id="Node000002" class="node">
<title>Node2</title>
<g id="a_Node000002"><a xlink:title=" ">
<polygon fill="white" stroke="none" points="91.5,-344 28.5,-344 28.5,-295 91.5,-295 91.5,-344"/>
<text text-anchor="start" x="33.38" y="-330.5" font-family="Helvetica,sans-Serif" font-size="10.00">testing::Test</text>
<text text-anchor="start" x="58.5" y="-315.5" font-family="Helvetica,sans-Serif" font-size="10.00"> </text>
<text text-anchor="start" x="58.5" y="-300.5" font-family="Helvetica,sans-Serif" font-size="10.00"> </text>
<polygon fill="#666666" stroke="#666666" points="28.5,-327 28.5,-327 91.5,-327 91.5,-327 28.5,-327"/>
<polygon fill="#666666" stroke="#666666" points="28.5,-312 28.5,-312 91.5,-312 91.5,-312 28.5,-312"/>
<polygon fill="none" stroke="#666666" points="28.5,-295 28.5,-344 91.5,-344 91.5,-295 28.5,-295"/>
</a>
</g>
</g>
<!-- Node2&#45;&gt;Node1 -->
<g id="edge1_Node000001_Node000002" class="edge">
<title>Node2&#45;&gt;Node1</title>
<g id="a_edge1_Node000001_Node000002"><a xlink:title=" ">
<path fill="none" stroke="#63b8ff" d="M60,-283.6C60,-276.05 60,-267.64 60,-258.76"/>
<polygon fill="none" stroke="#63b8ff" points="56.5,-283.56 60,-293.56 63.5,-283.56 56.5,-283.56"/>
</a>
</g>
</g>
</g>
</svg>
