<?xml version="1.0" encoding="UTF-8" standalone="no"?>
<!DOCTYPE svg PUBLIC "-//W3C//DTD SVG 1.1//EN"
 "http://www.w3.org/Graphics/SVG/1.1/DTD/svg11.dtd">
<!-- Generated by graphviz version 9.0.0 (20230911.1827)
 -->
<!-- Title: IntegrationTest Pages: 1 -->
<svg width="271pt" height="228pt"
 viewBox="0.00 0.00 270.75 228.25" xmlns="http://www.w3.org/2000/svg" xmlns:xlink="http://www.w3.org/1999/xlink">
<g id="graph0" class="graph" transform="scale(1 1) rotate(0) translate(4 224.25)">
<title>IntegrationTest</title>
<!-- Node1 -->
<g id="Node000001" class="node">
<title>Node1</title>
<g id="a_Node000001"><a xlink:title=" ">
<polygon fill="#999999" stroke="none" points="151.5,-124 65.5,-124 65.5,0 151.5,0 151.5,-124"/>
<text text-anchor="start" x="75.88" y="-110.5" font-family="Helvetica,sans-Serif" font-size="10.00">IntegrationTest</text>
<text text-anchor="start" x="69.38" y="-95.5" font-family="Helvetica,sans-Serif" font-size="10.00">#</text>
<text text-anchor="start" x="78.5" y="-95.5" font-family="Helvetica,sans-Serif" font-size="10.00">locmap_sender</text>
<text text-anchor="start" x="69.38" y="-80.5" font-family="Helvetica,sans-Serif" font-size="10.00">#</text>
<text text-anchor="start" x="78.5" y="-80.5" font-family="Helvetica,sans-Serif" font-size="10.00">control_receiver</text>
<text text-anchor="start" x="69.38" y="-65.5" font-family="Helvetica,sans-Serif" font-size="10.00">#</text>
<text text-anchor="start" x="78.5" y="-65.5" font-family="Helvetica,sans-Serif" font-size="10.00">planning_test</text>
<text text-anchor="start" x="69.38" y="-50.5" font-family="Helvetica,sans-Serif" font-size="10.00">#</text>
<text text-anchor="start" x="78.5" y="-50.5" font-family="Helvetica,sans-Serif" font-size="10.00">map_publisher</text>
<text text-anchor="start" x="69.38" y="-35.5" font-family="Helvetica,sans-Serif" font-size="10.00">#</text>
<text text-anchor="start" x="78.5" y="-35.5" font-family="Helvetica,sans-Serif" font-size="10.00">control_sub</text>
<text text-anchor="start" x="69.38" y="-20.5" font-family="Helvetica,sans-Serif" font-size="10.00">#</text>
<text text-anchor="start" x="78.5" y="-20.5" font-family="Helvetica,sans-Serif" font-size="10.00">SetUp()</text>
<text text-anchor="start" x="69.38" y="-5.5" font-family="Helvetica,sans-Serif" font-size="10.00">#</text>
<text text-anchor="start" x="78.5" y="-5.5" font-family="Helvetica,sans-Serif" font-size="10.00">TearDown()</text>
<polygon fill="#666666" stroke="#666666" points="65.5,-107 65.5,-107 151.5,-107 151.5,-107 65.5,-107"/>
<polygon fill="#666666" stroke="#666666" points="65.5,-32 65.5,-32 76.5,-32 76.5,-32 65.5,-32"/>
<polygon fill="#666666" stroke="#666666" points="76.5,-32 76.5,-32 151.5,-32 151.5,-32 76.5,-32"/>
<polygon fill="none" stroke="#666666" points="65.5,0 65.5,-124 151.5,-124 151.5,0 65.5,0"/>
</a>
</g>
</g>
<!-- Node2 -->
<g id="Node000002" class="node">
<title>Node2</title>
<g id="a_Node000002"><a xlink:title=" ">
<polygon fill="white" stroke="none" points="63,-220.25 0,-220.25 0,-171.25 63,-171.25 63,-220.25"/>
<text text-anchor="start" x="4.88" y="-206.75" font-family="Helvetica,sans-Serif" font-size="10.00">testing::Test</text>
<text text-anchor="start" x="30" y="-191.75" font-family="Helvetica,sans-Serif" font-size="10.00"> </text>
<text text-anchor="start" x="30" y="-176.75" font-family="Helvetica,sans-Serif" font-size="10.00"> </text>
<polygon fill="#666666" stroke="#666666" points="0,-203.25 0,-203.25 63,-203.25 63,-203.25 0,-203.25"/>
<polygon fill="#666666" stroke="#666666" points="0,-188.25 0,-188.25 63,-188.25 63,-188.25 0,-188.25"/>
<polygon fill="none" stroke="#666666" points="0,-171.25 0,-220.25 63,-220.25 63,-171.25 0,-171.25"/>
</a>
</g>
</g>
<!-- Node2&#45;&gt;Node1 -->
<g id="edge1_Node000001_Node000002" class="edge">
<title>Node2&#45;&gt;Node1</title>
<g id="a_edge1_Node000001_Node000002"><a xlink:title=" ">
<path fill="none" stroke="#63b8ff" d="M50.71,-161.89C57.44,-150.36 65.25,-137.01 72.89,-123.92"/>
<polygon fill="none" stroke="#63b8ff" points="47.88,-159.79 45.85,-170.19 53.92,-163.32 47.88,-159.79"/>
</a>
</g>
</g>
<!-- Node3 -->
<g id="Node000003" class="node">
<title>Node3</title>
<g id="a_Node000003"><a xlink:title=" ">
<polygon fill="white" stroke="none" points="136,-220.25 81,-220.25 81,-171.25 136,-171.25 136,-220.25"/>
<text text-anchor="start" x="86" y="-206.75" font-family="Helvetica,sans-Serif" font-size="10.00">ConeArray</text>
<text text-anchor="start" x="107" y="-191.75" font-family="Helvetica,sans-Serif" font-size="10.00"> </text>
<text text-anchor="start" x="107" y="-176.75" font-family="Helvetica,sans-Serif" font-size="10.00"> </text>
<polygon fill="#666666" stroke="#666666" points="81,-203.25 81,-203.25 136,-203.25 136,-203.25 81,-203.25"/>
<polygon fill="#666666" stroke="#666666" points="81,-188.25 81,-188.25 136,-188.25 136,-188.25 81,-188.25"/>
<polygon fill="none" stroke="#666666" points="81,-171.25 81,-220.25 136,-220.25 136,-171.25 81,-171.25"/>
</a>
</g>
</g>
<!-- Node3&#45;&gt;Node1 -->
<g id="edge2_Node000001_Node000003" class="edge">
<title>Node3&#45;&gt;Node1</title>
<g id="a_edge2_Node000001_Node000003"><a xlink:title=" ">
<path fill="none" stroke="#63b8ff" d="M108.5,-171.5C108.5,-161.53 108.5,-149.27 108.5,-136.63"/>
<polygon fill="none" stroke="#63b8ff" points="108.5,-136.83 104.5,-130.83 108.5,-124.83 112.5,-130.83 108.5,-136.83"/>
</a>
</g>
<text text-anchor="middle" x="147.88" y="-143.75" font-family="Helvetica,sans-Serif" font-size="10.00" fill="grey"> #cone_array_msg</text>
</g>
<!-- Node4 -->
<g id="Node000004" class="node">
<title>Node4</title>
<g id="a_Node000004"><a xlink:title=" ">
<polygon fill="white" stroke="none" points="238,-220.25 183,-220.25 183,-171.25 238,-171.25 238,-220.25"/>
<text text-anchor="start" x="188" y="-206.75" font-family="Helvetica,sans-Serif" font-size="10.00">PointArray</text>
<text text-anchor="start" x="209" y="-191.75" font-family="Helvetica,sans-Serif" font-size="10.00"> </text>
<text text-anchor="start" x="209" y="-176.75" font-family="Helvetica,sans-Serif" font-size="10.00"> </text>
<polygon fill="#666666" stroke="#666666" points="183,-203.25 183,-203.25 238,-203.25 238,-203.25 183,-203.25"/>
<polygon fill="#666666" stroke="#666666" points="183,-188.25 183,-188.25 238,-188.25 238,-188.25 183,-188.25"/>
<polygon fill="none" stroke="#666666" points="183,-171.25 183,-220.25 238,-220.25 238,-171.25 183,-171.25"/>
</a>
</g>
</g>
<!-- Node4&#45;&gt;Node1 -->
<g id="edge3_Node000001_Node000004" class="edge">
<title>Node4&#45;&gt;Node1</title>
<g id="a_edge3_Node000001_Node000004"><a xlink:title=" ">
<path fill="none" stroke="#63b8ff" d="M203.05,-171.42C199.43,-161.86 194.55,-150.97 188.5,-142 180.48,-130.11 170.47,-118.54 160.28,-108.08"/>
<polygon fill="none" stroke="#63b8ff" points="160.48,-108.28 153.41,-106.9 151.96,-99.83 159.04,-101.21 160.48,-108.28"/>
</a>
</g>
<text text-anchor="middle" x="228.62" y="-143.75" font-family="Helvetica,sans-Serif" font-size="10.00" fill="grey"> #received_path</text>
</g>
</g>
</svg>
