<?xml version="1.0" encoding="UTF-8" standalone="no"?>
<!DOCTYPE svg PUBLIC "-//W3C//DTD SVG 1.1//EN"
 "http://www.w3.org/Graphics/SVG/1.1/DTD/svg11.dtd">
<!-- Generated by graphviz version 9.0.0 (20230911.1827)
 -->
<!-- Title: CanInterface::loop Pages: 1 -->
<svg width="364pt" height="138pt"
 viewBox="0.00 0.00 363.50 138.25" xmlns="http://www.w3.org/2000/svg" xmlns:xlink="http://www.w3.org/1999/xlink">

<svg id="main" version="1.1" xmlns="http://www.w3.org/2000/svg" xmlns:xlink="http://www.w3.org/1999/xlink" xml:space="preserve" onload="init(evt)">
<style type="text/css"><![CDATA[
.node, .edge {opacity: 0.7;}
.node.selected, .edge.selected {opacity: 1;}
.edge:hover path { stroke: red; }
.edge:hover polygon { stroke: red; fill: red; }
]]></style>
<script type="application/ecmascript" xlink:href="svg.min.js"/>
<svg id="graph" class="graph">
<g id="graph0" class="graph" transform="scale(1 1) rotate(0) translate(4 134.25)">
<title>CanInterface::loop</title>
<!-- Node1 -->
<g id="Node000001" class="node">
<title>Node1</title>
<g id="a_Node000001"><a xlink:title=" ">
<polygon fill="#999999" stroke="#666666" points="94,-74.25 0,-74.25 0,-55 94,-55 94,-74.25"/>
<text text-anchor="middle" x="47" y="-60.75" font-family="Helvetica,sans-Serif" font-size="10.00">CanInterface::loop</text>
</a>
</g>
</g>
<!-- Node2 -->
<g id="Node000002" class="node">
<title>Node2</title>
<g id="a_Node000002"><a xlink:href="fs-ai__api_8c.html#a3052452b396a8990299189017d4616d0" target="_top" xlink:title=" ">
<polygon fill="white" stroke="#666666" points="261.5,-130.25 130,-130.25 130,-111 261.5,-111 261.5,-130.25"/>
<text text-anchor="middle" x="195.75" y="-116.75" font-family="Helvetica,sans-Serif" font-size="10.00">fs_ai_api_ai2vcu_set_data</text>
</a>
</g>
</g>
<!-- Node1&#45;&gt;Node2 -->
<g id="edge1_Node000001_Node000002" class="edge">
<title>Node1&#45;&gt;Node2</title>
<g id="a_edge1_Node000001_Node000002"><a xlink:title=" ">
<path fill="none" stroke="#63b8ff" d="M67.17,-74.59C83.56,-82.85 107.91,-94.5 130,-102.62 134.43,-104.26 139.09,-105.82 143.78,-107.3"/>
<polygon fill="#63b8ff" stroke="#63b8ff" points="142.67,-110.62 153.25,-110.15 144.69,-103.92 142.67,-110.62"/>
</a>
</g>
</g>
<!-- Node4 -->
<g id="Node000004" class="node">
<title>Node4</title>
<g id="a_Node000004"><a xlink:href="fs-ai__api_8c.html#a3e7e5ffd8940fe04e07d1019d3e42a3f" target="_top" xlink:title=" ">
<polygon fill="white" stroke="#666666" points="255.12,-93.25 136.38,-93.25 136.38,-74 255.12,-74 255.12,-93.25"/>
<text text-anchor="middle" x="195.75" y="-79.75" font-family="Helvetica,sans-Serif" font-size="10.00">fs_ai_api_gps_get_data</text>
</a>
</g>
</g>
<!-- Node1&#45;&gt;Node4 -->
<g id="edge3_Node000001_Node000004" class="edge">
<title>Node1&#45;&gt;Node4</title>
<g id="a_edge3_Node000001_Node000004"><a xlink:title=" ">
<path fill="none" stroke="#63b8ff" d="M94.43,-70.64C104.11,-71.89 114.52,-73.24 124.84,-74.57"/>
<polygon fill="#63b8ff" stroke="#63b8ff" points="124.09,-78.01 134.46,-75.82 124.99,-71.06 124.09,-78.01"/>
</a>
</g>
</g>
<!-- Node5 -->
<g id="Node000005" class="node">
<title>Node5</title>
<g id="a_Node000005"><a xlink:href="fs-ai__api_8c.html#a0fc3b6fcd18b44e6bc78f2153ee70289" target="_top" xlink:title=" ">
<polygon fill="white" stroke="#666666" points="255.12,-56.25 136.38,-56.25 136.38,-37 255.12,-37 255.12,-56.25"/>
<text text-anchor="middle" x="195.75" y="-42.75" font-family="Helvetica,sans-Serif" font-size="10.00">fs_ai_api_imu_get_data</text>
</a>
</g>
</g>
<!-- Node1&#45;&gt;Node5 -->
<g id="edge4_Node000001_Node000005" class="edge">
<title>Node1&#45;&gt;Node5</title>
<g id="a_edge4_Node000001_Node000005"><a xlink:title=" ">
<path fill="none" stroke="#63b8ff" d="M94.43,-58.93C104.11,-57.74 114.52,-56.47 124.84,-55.2"/>
<polygon fill="#63b8ff" stroke="#63b8ff" points="124.96,-58.71 134.46,-54.02 124.11,-51.76 124.96,-58.71"/>
</a>
</g>
</g>
<!-- Node6 -->
<g id="Node000006" class="node">
<title>Node6</title>
<g id="a_Node000006"><a xlink:href="fs-ai__api_8c.html#a51d163f74a40ea6e3ac5d068e84ce0b2" target="_top" xlink:title=" ">
<polygon fill="white" stroke="#666666" points="261.5,-19.25 130,-19.25 130,0 261.5,0 261.5,-19.25"/>
<text text-anchor="middle" x="195.75" y="-5.75" font-family="Helvetica,sans-Serif" font-size="10.00">fs_ai_api_vcu2ai_get_data</text>
</a>
</g>
</g>
<!-- Node1&#45;&gt;Node6 -->
<g id="edge5_Node000001_Node000006" class="edge">
<title>Node1&#45;&gt;Node6</title>
<g id="a_edge5_Node000001_Node000006"><a xlink:title=" ">
<path fill="none" stroke="#63b8ff" d="M67.86,-54.63C84.26,-46.63 108.27,-35.5 130,-27.62 134.44,-26.02 139.1,-24.47 143.79,-22.99"/>
<polygon fill="#63b8ff" stroke="#63b8ff" points="144.7,-26.38 153.28,-20.15 142.69,-19.67 144.7,-26.38"/>
</a>
</g>
</g>
<!-- Node3 -->
<g id="Node000003" class="node">
<title>Node3</title>
<g id="a_Node000003"><a xlink:href="can_8c.html#a9115860092012f045bcac21f58ad8d7a" target="_top" xlink:title=" ">
<polygon fill="white" stroke="#666666" points="355.5,-130.25 297.5,-130.25 297.5,-111 355.5,-111 355.5,-130.25"/>
<text text-anchor="middle" x="326.5" y="-116.75" font-family="Helvetica,sans-Serif" font-size="10.00">can_send</text>
</a>
</g>
</g>
<!-- Node2&#45;&gt;Node3 -->
<g id="edge2_Node000002_Node000003" class="edge">
<title>Node2&#45;&gt;Node3</title>
<g id="a_edge2_Node000002_Node000003"><a xlink:title=" ">
<path fill="none" stroke="#63b8ff" d="M261.88,-120.62C270.07,-120.62 278.24,-120.62 285.86,-120.62"/>
<polygon fill="#63b8ff" stroke="#63b8ff" points="285.8,-124.13 295.8,-120.63 285.8,-117.13 285.8,-124.13"/>
</a>
</g>
</g>
</g>
</svg>
</svg>

<style type='text/css'>
<![CDATA[
[data-mouse-over-selected='false'] { opacity: 0.7; }
[data-mouse-over-selected='true']  { opacity: 1.0; }
]]>
</style>
<script type="application/ecmascript"><![CDATA[
document.addEventListener('DOMContentLoaded', (event) => {
  highlightEdges();
  highlightAdjacentNodes();
});
]]></script>
</svg>
