<?xml version="1.0" encoding="UTF-8" standalone="no"?>
<!DOCTYPE svg PUBLIC "-//W3C//DTD SVG 1.1//EN"
 "http://www.w3.org/Graphics/SVG/1.1/DTD/svg11.dtd">
<!-- Generated by graphviz version 9.0.0 (20230911.1827)
 -->
<!-- Title: plots.plots.Plots Pages: 1 -->
<svg width="142pt" height="554pt"
 viewBox="0.00 0.00 142.00 554.00" xmlns="http://www.w3.org/2000/svg" xmlns:xlink="http://www.w3.org/1999/xlink">
<g id="graph0" class="graph" transform="scale(1 1) rotate(0) translate(4 550)">
<title>plots.plots.Plots</title>
<!-- Node1 -->
<g id="Node000001" class="node">
<title>Node1</title>
<g id="a_Node000001"><a xlink:title=" ">
<polygon fill="#999999" stroke="none" points="134,-461 0,-461 0,0 134,0 134,-461"/>
<text text-anchor="start" x="32.5" y="-447.5" font-family="Helvetica,sans-Serif" font-size="10.00">plots.plots.Plots</text>
<text text-anchor="start" x="4" y="-432.5" font-family="Helvetica,sans-Serif" font-size="10.00">+</text>
<text text-anchor="start" x="14" y="-432.5" font-family="Helvetica,sans-Serif" font-size="10.00">perception_color</text>
<text text-anchor="start" x="4" y="-417.5" font-family="Helvetica,sans-Serif" font-size="10.00">+</text>
<text text-anchor="start" x="14" y="-417.5" font-family="Helvetica,sans-Serif" font-size="10.00">path_color</text>
<text text-anchor="start" x="4" y="-402.5" font-family="Helvetica,sans-Serif" font-size="10.00">+</text>
<text text-anchor="start" x="14" y="-402.5" font-family="Helvetica,sans-Serif" font-size="10.00">x_bounds</text>
<text text-anchor="start" x="4" y="-387.5" font-family="Helvetica,sans-Serif" font-size="10.00">+</text>
<text text-anchor="start" x="14" y="-387.5" font-family="Helvetica,sans-Serif" font-size="10.00">y_bounds</text>
<text text-anchor="start" x="4" y="-372.5" font-family="Helvetica,sans-Serif" font-size="10.00">+</text>
<text text-anchor="start" x="14" y="-372.5" font-family="Helvetica,sans-Serif" font-size="10.00">start_time</text>
<text text-anchor="start" x="4" y="-357.5" font-family="Helvetica,sans-Serif" font-size="10.00">+</text>
<text text-anchor="start" x="14" y="-357.5" font-family="Helvetica,sans-Serif" font-size="10.00">perception_subscription</text>
<text text-anchor="start" x="4" y="-342.5" font-family="Helvetica,sans-Serif" font-size="10.00">+</text>
<text text-anchor="start" x="14" y="-342.5" font-family="Helvetica,sans-Serif" font-size="10.00">plot_perception_callback</text>
<text text-anchor="start" x="4" y="-327.5" font-family="Helvetica,sans-Serif" font-size="10.00">+</text>
<text text-anchor="start" x="14" y="-327.5" font-family="Helvetica,sans-Serif" font-size="10.00">map_subscription</text>
<text text-anchor="start" x="4" y="-312.5" font-family="Helvetica,sans-Serif" font-size="10.00">+</text>
<text text-anchor="start" x="14" y="-312.5" font-family="Helvetica,sans-Serif" font-size="10.00">plot_map_callback</text>
<text text-anchor="start" x="4" y="-297.5" font-family="Helvetica,sans-Serif" font-size="10.00">+</text>
<text text-anchor="start" x="14" y="-297.5" font-family="Helvetica,sans-Serif" font-size="10.00">path_subscription</text>
<text text-anchor="start" x="14" y="-282.5" font-family="Helvetica,sans-Serif" font-size="10.00">and 22 more...</text>
<text text-anchor="start" x="4" y="-267.5" font-family="Helvetica,sans-Serif" font-size="10.00">+</text>
<text text-anchor="start" x="14" y="-267.5" font-family="Helvetica,sans-Serif" font-size="10.00">map_color_dict</text>
<text text-anchor="start" x="4" y="-252.5" font-family="Helvetica,sans-Serif" font-size="10.00">+</text>
<text text-anchor="start" x="14" y="-252.5" font-family="Helvetica,sans-Serif" font-size="10.00">true_map_color_dict</text>
<text text-anchor="start" x="4" y="-237.5" font-family="Helvetica,sans-Serif" font-size="10.00">+</text>
<text text-anchor="start" x="14" y="-237.5" font-family="Helvetica,sans-Serif" font-size="10.00">__init__()</text>
<text text-anchor="start" x="4" y="-222.5" font-family="Helvetica,sans-Serif" font-size="10.00">+</text>
<text text-anchor="start" x="14" y="-222.5" font-family="Helvetica,sans-Serif" font-size="10.00">true_perception_points</text>
<text text-anchor="start" x="14" y="-211.25" font-family="Helvetica,sans-Serif" font-size="10.00">_callback()</text>
<text text-anchor="start" x="4" y="-196.5" font-family="Helvetica,sans-Serif" font-size="10.00">+</text>
<text text-anchor="start" x="14" y="-196.5" font-family="Helvetica,sans-Serif" font-size="10.00">plot_perception_callback()</text>
<text text-anchor="start" x="4" y="-181.5" font-family="Helvetica,sans-Serif" font-size="10.00">+</text>
<text text-anchor="start" x="14" y="-181.5" font-family="Helvetica,sans-Serif" font-size="10.00">plot_map_callback()</text>
<text text-anchor="start" x="4" y="-166.5" font-family="Helvetica,sans-Serif" font-size="10.00">+</text>
<text text-anchor="start" x="14" y="-166.5" font-family="Helvetica,sans-Serif" font-size="10.00">plot_localization_callback()</text>
<text text-anchor="start" x="4" y="-151.5" font-family="Helvetica,sans-Serif" font-size="10.00">+</text>
<text text-anchor="start" x="14" y="-151.5" font-family="Helvetica,sans-Serif" font-size="10.00">plot_true_map_callback()</text>
<text text-anchor="start" x="4" y="-136.5" font-family="Helvetica,sans-Serif" font-size="10.00">+</text>
<text text-anchor="start" x="14" y="-136.5" font-family="Helvetica,sans-Serif" font-size="10.00">adjust_bounds()</text>
<text text-anchor="start" x="4" y="-121.5" font-family="Helvetica,sans-Serif" font-size="10.00">+</text>
<text text-anchor="start" x="14" y="-121.5" font-family="Helvetica,sans-Serif" font-size="10.00">plot_true_localization</text>
<text text-anchor="start" x="14" y="-110.25" font-family="Helvetica,sans-Serif" font-size="10.00">_callback()</text>
<text text-anchor="start" x="4" y="-95.5" font-family="Helvetica,sans-Serif" font-size="10.00">+</text>
<text text-anchor="start" x="14" y="-95.5" font-family="Helvetica,sans-Serif" font-size="10.00">plot_path_callback()</text>
<text text-anchor="start" x="4" y="-80.5" font-family="Helvetica,sans-Serif" font-size="10.00">+</text>
<text text-anchor="start" x="14" y="-80.5" font-family="Helvetica,sans-Serif" font-size="10.00">generate_statistics()</text>
<text text-anchor="start" x="4" y="-65.5" font-family="Helvetica,sans-Serif" font-size="10.00">+</text>
<text text-anchor="start" x="14" y="-65.5" font-family="Helvetica,sans-Serif" font-size="10.00">timer_callback()</text>
<text text-anchor="start" x="4" y="-50.5" font-family="Helvetica,sans-Serif" font-size="10.00">+</text>
<text text-anchor="start" x="14" y="-50.5" font-family="Helvetica,sans-Serif" font-size="10.00">on_close()</text>
<text text-anchor="start" x="4" y="-35.5" font-family="Helvetica,sans-Serif" font-size="10.00">+</text>
<text text-anchor="start" x="14" y="-35.5" font-family="Helvetica,sans-Serif" font-size="10.00">print_statistics()</text>
<text text-anchor="start" x="4" y="-20.5" font-family="Helvetica,sans-Serif" font-size="10.00">+</text>
<text text-anchor="start" x="14" y="-20.5" font-family="Helvetica,sans-Serif" font-size="10.00">final_plots()</text>
<text text-anchor="start" x="4" y="-5.5" font-family="Helvetica,sans-Serif" font-size="10.00">+</text>
<text text-anchor="start" x="14" y="-5.5" font-family="Helvetica,sans-Serif" font-size="10.00">plot_points()</text>
<polygon fill="#666666" stroke="#666666" points="0,-444 0,-444 134,-444 134,-444 0,-444"/>
<polygon fill="#666666" stroke="#666666" points="0,-249 0,-249 12,-249 12,-249 0,-249"/>
<polygon fill="#666666" stroke="#666666" points="12,-249 12,-249 134,-249 134,-249 12,-249"/>
<polygon fill="none" stroke="#666666" points="0,0 0,-461 134,-461 134,0 0,0"/>
</a>
</g>
</g>
<!-- Node2 -->
<g id="Node000002" class="node">
<title>Node2</title>
<g id="a_Node000002"><a xlink:title=" ">
<polygon fill="white" stroke="none" points="83.5,-546 50.5,-546 50.5,-497 83.5,-497 83.5,-546"/>
<text text-anchor="start" x="55.38" y="-532.5" font-family="Helvetica,sans-Serif" font-size="10.00">Node</text>
<text text-anchor="start" x="65.5" y="-517.5" font-family="Helvetica,sans-Serif" font-size="10.00"> </text>
<text text-anchor="start" x="65.5" y="-502.5" font-family="Helvetica,sans-Serif" font-size="10.00"> </text>
<polygon fill="#666666" stroke="#666666" points="50.5,-529 50.5,-529 83.5,-529 83.5,-529 50.5,-529"/>
<polygon fill="#666666" stroke="#666666" points="50.5,-514 50.5,-514 83.5,-514 83.5,-514 50.5,-514"/>
<polygon fill="none" stroke="#666666" points="50.5,-497 50.5,-546 83.5,-546 83.5,-497 50.5,-497"/>
</a>
</g>
</g>
<!-- Node2&#45;&gt;Node1 -->
<g id="edge1_Node000001_Node000002" class="edge">
<title>Node2&#45;&gt;Node1</title>
<g id="a_edge1_Node000001_Node000002"><a xlink:title=" ">
<path fill="none" stroke="#63b8ff" d="M67,-486.01C67,-478.5 67,-470.01 67,-460.81"/>
<polygon fill="none" stroke="#63b8ff" points="63.5,-485.82 67,-495.82 70.5,-485.82 63.5,-485.82"/>
</a>
</g>
</g>
</g>
</svg>
