<?xml version="1.0" encoding="UTF-8" standalone="no"?>
<!DOCTYPE svg PUBLIC "-//W3C//DTD SVG 1.1//EN"
 "http://www.w3.org/Graphics/SVG/1.1/DTD/svg11.dtd">
<!-- Generated by graphviz version 9.0.0 (20230911.1827)
 -->
<!-- Title: NormalVelocityModel::get_motion_to_state_matrix Pages: 1 -->
<svg width="194pt" height="138pt"
 viewBox="0.00 0.00 193.75 138.25" xmlns="http://www.w3.org/2000/svg" xmlns:xlink="http://www.w3.org/1999/xlink">
<g id="graph0" class="graph" transform="scale(1 1) rotate(0) translate(4 134.25)">
<title>NormalVelocityModel::get_motion_to_state_matrix</title>
<!-- Node1 -->
<g id="Node000001" class="node">
<title>Node1</title>
<g id="a_Node000001"><a xlink:title="Calculate state covariance matrix from velocity model using normal motion data Uses translation veloc...">
<polygon fill="#999999" stroke="#666666" points="185.75,-85.5 76.75,-85.5 76.75,-43.75 185.75,-43.75 185.75,-85.5"/>
<text text-anchor="start" x="84.75" y="-72" font-family="Helvetica,sans-Serif" font-size="10.00">NormalVelocityModel</text>
<text text-anchor="start" x="84.75" y="-60.75" font-family="Helvetica,sans-Serif" font-size="10.00">::get_motion_to_state</text>
<text text-anchor="middle" x="131.25" y="-49.5" font-family="Helvetica,sans-Serif" font-size="10.00">_matrix</text>
</a>
</g>
</g>
<!-- Node2 -->
<g id="Node000002" class="node">
<title>Node2</title>
<g id="a_Node000002"><a xlink:href="motion__model__test_8cpp.html#a4b4be8c03914d03c683a1fecbcbdf310" target="_top" xlink:title=" ">
<polygon fill="white" stroke="#666666" points="40.75,-130.25 0,-130.25 0,-111 40.75,-111 40.75,-130.25"/>
<text text-anchor="middle" x="20.38" y="-116.75" font-family="Helvetica,sans-Serif" font-size="10.00">TEST</text>
</a>
</g>
</g>
<!-- Node1&#45;&gt;Node2 -->
<g id="edge1_Node000001_Node000002" class="edge">
<title>Node1&#45;&gt;Node2</title>
<g id="a_edge1_Node000001_Node000002"><a xlink:title=" ">
<path fill="none" stroke="#63b8ff" d="M78.59,-91.2C65.14,-98.11 51.46,-105.15 40.85,-110.61"/>
<polygon fill="#63b8ff" stroke="#63b8ff" points="80.14,-94.33 87.43,-86.65 76.94,-88.11 80.14,-94.33"/>
</a>
</g>
</g>
<!-- Node3 -->
<g id="Node000003" class="node">
<title>Node3</title>
<g id="a_Node000003"><a xlink:href="motion__model__test_8cpp.html#ac536fb8afc350c3ccd4907c25a507b81" target="_top" xlink:title=" ">
<polygon fill="white" stroke="#666666" points="40.75,-93.25 0,-93.25 0,-74 40.75,-74 40.75,-93.25"/>
<text text-anchor="middle" x="20.38" y="-79.75" font-family="Helvetica,sans-Serif" font-size="10.00">TEST</text>
</a>
</g>
</g>
<!-- Node1&#45;&gt;Node3 -->
<g id="edge2_Node000001_Node000003" class="edge">
<title>Node1&#45;&gt;Node3</title>
<g id="a_edge2_Node000001_Node000003"><a xlink:title=" ">
<path fill="none" stroke="#63b8ff" d="M65.25,-75.97C56.51,-77.49 48.15,-78.95 41.11,-80.18"/>
<polygon fill="#63b8ff" stroke="#63b8ff" points="65.71,-79.44 74.96,-74.27 64.51,-72.55 65.71,-79.44"/>
</a>
</g>
</g>
<!-- Node4 -->
<g id="Node000004" class="node">
<title>Node4</title>
<g id="a_Node000004"><a xlink:href="motion__model__test_8cpp.html#a985258fd91e481fac6ee05ad73bab7fd" target="_top" xlink:title=" ">
<polygon fill="white" stroke="#666666" points="40.75,-56.25 0,-56.25 0,-37 40.75,-37 40.75,-56.25"/>
<text text-anchor="middle" x="20.38" y="-42.75" font-family="Helvetica,sans-Serif" font-size="10.00">TEST</text>
</a>
</g>
</g>
<!-- Node1&#45;&gt;Node4 -->
<g id="edge3_Node000001_Node000004" class="edge">
<title>Node1&#45;&gt;Node4</title>
<g id="a_edge3_Node000001_Node000004"><a xlink:title=" ">
<path fill="none" stroke="#63b8ff" d="M65.25,-53.88C56.51,-52.43 48.15,-51.05 41.11,-49.89"/>
<polygon fill="#63b8ff" stroke="#63b8ff" points="64.52,-57.31 74.96,-55.48 65.66,-50.4 64.52,-57.31"/>
</a>
</g>
</g>
<!-- Node5 -->
<g id="Node000005" class="node">
<title>Node5</title>
<g id="a_Node000005"><a xlink:href="motion__model__test_8cpp.html#abaac5c4600343357227b100565bf0831" target="_top" xlink:title=" ">
<polygon fill="white" stroke="#666666" points="40.75,-19.25 0,-19.25 0,0 40.75,0 40.75,-19.25"/>
<text text-anchor="middle" x="20.38" y="-5.75" font-family="Helvetica,sans-Serif" font-size="10.00">TEST</text>
</a>
</g>
</g>
<!-- Node1&#45;&gt;Node5 -->
<g id="edge4_Node000001_Node000005" class="edge">
<title>Node1&#45;&gt;Node5</title>
<g id="a_edge4_Node000001_Node000005"><a xlink:title=" ">
<path fill="none" stroke="#63b8ff" d="M78.17,-38.32C65,-31.66 51.65,-24.92 41.2,-19.64"/>
<polygon fill="#63b8ff" stroke="#63b8ff" points="76.3,-41.29 86.81,-42.68 79.46,-35.05 76.3,-41.29"/>
</a>
</g>
</g>
</g>
</svg>
