<?xml version="1.0" encoding="UTF-8" standalone="no"?>
<!DOCTYPE svg PUBLIC "-//W3C//DTD SVG 1.1//EN"
 "http://www.w3.org/Graphics/SVG/1.1/DTD/svg11.dtd">
<!-- Generated by graphviz version 9.0.0 (20230911.1827)
 -->
<!-- Title: plots.plots.Position Pages: 1 -->
<svg width="184pt" height="262pt"
 viewBox="0.00 0.00 184.00 262.00" xmlns="http://www.w3.org/2000/svg" xmlns:xlink="http://www.w3.org/1999/xlink">
<g id="graph0" class="graph" transform="scale(1 1) rotate(0) translate(4 258)">
<title>plots.plots.Position</title>
<!-- Node1 -->
<g id="Node000001" class="node">
<title>Node1</title>
<g id="a_Node000001"><a xlink:title=" ">
<polygon fill="#999999" stroke="none" points="133,-254 42,-254 42,-115 133,-115 133,-254"/>
<text text-anchor="start" x="46.62" y="-240.5" font-family="Helvetica,sans-Serif" font-size="10.00">plots.plots.Position</text>
<text text-anchor="start" x="53.88" y="-225.5" font-family="Helvetica,sans-Serif" font-size="10.00">#</text>
<text text-anchor="start" x="71" y="-225.5" font-family="Helvetica,sans-Serif" font-size="10.00">_x</text>
<text text-anchor="start" x="53.88" y="-210.5" font-family="Helvetica,sans-Serif" font-size="10.00">#</text>
<text text-anchor="start" x="71" y="-210.5" font-family="Helvetica,sans-Serif" font-size="10.00">_y</text>
<text text-anchor="start" x="53.5" y="-195.5" font-family="Helvetica,sans-Serif" font-size="10.00">+</text>
<text text-anchor="start" x="71" y="-195.5" font-family="Helvetica,sans-Serif" font-size="10.00">__init__()</text>
<text text-anchor="start" x="53.5" y="-180.5" font-family="Helvetica,sans-Serif" font-size="10.00">+</text>
<text text-anchor="start" x="71" y="-180.5" font-family="Helvetica,sans-Serif" font-size="10.00">x()</text>
<text text-anchor="start" x="53.5" y="-165.5" font-family="Helvetica,sans-Serif" font-size="10.00">+</text>
<text text-anchor="start" x="71" y="-165.5" font-family="Helvetica,sans-Serif" font-size="10.00">x()</text>
<text text-anchor="start" x="53.5" y="-150.5" font-family="Helvetica,sans-Serif" font-size="10.00">+</text>
<text text-anchor="start" x="71" y="-150.5" font-family="Helvetica,sans-Serif" font-size="10.00">y()</text>
<text text-anchor="start" x="53.5" y="-135.5" font-family="Helvetica,sans-Serif" font-size="10.00">+</text>
<text text-anchor="start" x="71" y="-135.5" font-family="Helvetica,sans-Serif" font-size="10.00">y()</text>
<text text-anchor="start" x="53.5" y="-120.5" font-family="Helvetica,sans-Serif" font-size="10.00">+</text>
<text text-anchor="start" x="71" y="-120.5" font-family="Helvetica,sans-Serif" font-size="10.00">distance()</text>
<polygon fill="#666666" stroke="#666666" points="42,-237 42,-237 133,-237 133,-237 42,-237"/>
<polygon fill="#666666" stroke="#666666" points="42,-207 42,-207 69,-207 69,-207 42,-207"/>
<polygon fill="#666666" stroke="#666666" points="69,-207 69,-207 133,-207 133,-207 69,-207"/>
<polygon fill="none" stroke="#666666" points="42,-115 42,-254 133,-254 133,-115 42,-115"/>
</a>
</g>
</g>
<!-- Node2 -->
<g id="Node000002" class="node">
<title>Node2</title>
<g id="a_Node000002"><a xlink:href="classplots_1_1plots_1_1Cone.html" target="_top" xlink:title=" ">
<polygon fill="white" stroke="none" points="79,-79 0,-79 0,0 79,0 79,-79"/>
<text text-anchor="start" x="5" y="-65.5" font-family="Helvetica,sans-Serif" font-size="10.00">plots.plots.Cone</text>
<text text-anchor="start" x="9.88" y="-50.5" font-family="Helvetica,sans-Serif" font-size="10.00">#</text>
<text text-anchor="start" x="25" y="-50.5" font-family="Helvetica,sans-Serif" font-size="10.00">_color</text>
<text text-anchor="start" x="9.5" y="-35.5" font-family="Helvetica,sans-Serif" font-size="10.00">+</text>
<text text-anchor="start" x="25" y="-35.5" font-family="Helvetica,sans-Serif" font-size="10.00">__init__()</text>
<text text-anchor="start" x="9.5" y="-20.5" font-family="Helvetica,sans-Serif" font-size="10.00">+</text>
<text text-anchor="start" x="25" y="-20.5" font-family="Helvetica,sans-Serif" font-size="10.00">color()</text>
<text text-anchor="start" x="9.5" y="-5.5" font-family="Helvetica,sans-Serif" font-size="10.00">+</text>
<text text-anchor="start" x="25" y="-5.5" font-family="Helvetica,sans-Serif" font-size="10.00">color()</text>
<polygon fill="#666666" stroke="#666666" points="0,-62 0,-62 79,-62 79,-62 0,-62"/>
<polygon fill="#666666" stroke="#666666" points="0,-47 0,-47 23,-47 23,-47 0,-47"/>
<polygon fill="#666666" stroke="#666666" points="23,-47 23,-47 79,-47 79,-47 23,-47"/>
<polygon fill="none" stroke="#666666" points="0,0 0,-79 79,-79 79,0 0,0"/>
</a>
</g>
</g>
<!-- Node1&#45;&gt;Node2 -->
<g id="edge1_Node000001_Node000002" class="edge">
<title>Node1&#45;&gt;Node2</title>
<g id="a_edge1_Node000001_Node000002"><a xlink:title=" ">
<path fill="none" stroke="#63b8ff" d="M60.98,-104.5C58.01,-95.64 55.08,-86.93 52.4,-78.93"/>
<polygon fill="none" stroke="#63b8ff" points="57.64,-105.55 64.14,-113.92 64.28,-103.32 57.64,-105.55"/>
</a>
</g>
</g>
<!-- Node3 -->
<g id="Node000003" class="node">
<title>Node3</title>
<g id="a_Node000003"><a xlink:href="classplots_1_1plots_1_1Pose.html" target="_top" xlink:title=" ">
<polygon fill="white" stroke="none" points="176,-79 97,-79 97,0 176,0 176,-79"/>
<text text-anchor="start" x="102" y="-65.5" font-family="Helvetica,sans-Serif" font-size="10.00">plots.plots.Pose</text>
<text text-anchor="start" x="103.88" y="-50.5" font-family="Helvetica,sans-Serif" font-size="10.00">#</text>
<text text-anchor="start" x="116" y="-50.5" font-family="Helvetica,sans-Serif" font-size="10.00">_orientation</text>
<text text-anchor="start" x="103.5" y="-35.5" font-family="Helvetica,sans-Serif" font-size="10.00">+</text>
<text text-anchor="start" x="116" y="-35.5" font-family="Helvetica,sans-Serif" font-size="10.00">__init__()</text>
<text text-anchor="start" x="103.5" y="-20.5" font-family="Helvetica,sans-Serif" font-size="10.00">+</text>
<text text-anchor="start" x="116" y="-20.5" font-family="Helvetica,sans-Serif" font-size="10.00">orientation()</text>
<text text-anchor="start" x="103.5" y="-5.5" font-family="Helvetica,sans-Serif" font-size="10.00">+</text>
<text text-anchor="start" x="116" y="-5.5" font-family="Helvetica,sans-Serif" font-size="10.00">orientation()</text>
<polygon fill="#666666" stroke="#666666" points="97,-62 97,-62 176,-62 176,-62 97,-62"/>
<polygon fill="#666666" stroke="#666666" points="97,-47 97,-47 114,-47 114,-47 97,-47"/>
<polygon fill="#666666" stroke="#666666" points="114,-47 114,-47 176,-47 176,-47 114,-47"/>
<polygon fill="none" stroke="#666666" points="97,0 97,-79 176,-79 176,0 97,0"/>
</a>
</g>
</g>
<!-- Node1&#45;&gt;Node3 -->
<g id="edge2_Node000001_Node000003" class="edge">
<title>Node1&#45;&gt;Node3</title>
<g id="a_edge2_Node000001_Node000003"><a xlink:title=" ">
<path fill="none" stroke="#63b8ff" d="M114.57,-104.5C117.61,-95.64 120.59,-86.93 123.33,-78.93"/>
<polygon fill="none" stroke="#63b8ff" points="111.27,-103.32 111.34,-113.92 117.9,-105.59 111.27,-103.32"/>
</a>
</g>
</g>
</g>
</svg>
