<?xml version="1.0" encoding="UTF-8" standalone="no"?>
<!DOCTYPE svg PUBLIC "-//W3C//DTD SVG 1.1//EN"
 "http://www.w3.org/Graphics/SVG/1.1/DTD/svg11.dtd">
<!-- Generated by graphviz version 9.0.0 (20230911.1827)
 -->
<!-- Title: CanInterface::CanInterface Pages: 1 -->
<!--zoomable 224 -->

<svg id="main" version="1.1" xmlns="http://www.w3.org/2000/svg" xmlns:xlink="http://www.w3.org/1999/xlink" xml:space="preserve" onload="init(evt)">
<style type="text/css"><![CDATA[
.node, .edge {opacity: 0.7;}
.node.selected, .edge.selected {opacity: 1;}
.edge:hover path { stroke: red; }
.edge:hover polygon { stroke: red; fill: red; }
]]></style>

<defs>
  <circle id="rim" cx="0" cy="0" r="7"/>
  <circle id="rim2" cx="0" cy="0" r="3.5"/>
  <g id="zoomPlus">
    <use xlink:href="#rim" fill="#404040"><set attributeName="fill" to="#808080" begin="zoomplus.mouseover" end="zoomplus.mouseout"/></use>
    <path d="M-4,0h8M0,-4v8" fill="none" stroke="white" stroke-width="1.5" pointer-events="none"/>
  </g>
  <g id="zoomMin">
    <use xlink:href="#rim" fill="#404040"><set attributeName="fill" to="#808080" begin="zoomminus.mouseover" end="zoomminus.mouseout"/></use>
    <path d="M-4,0h8" fill="none" stroke="white" stroke-width="1.5" pointer-events="none"/>
  </g>
  <g id="arrowUp" transform="translate(30 24)">
    <use xlink:href="#rim"/>
    <path pointer-events="none" fill="none" stroke="white" stroke-width="1.5" d="M0,-3.0v7 M-2.5,-0.5L0,-3.0L2.5,-0.5"/>
  </g>
  <g id="arrowRight" transform="rotate(90) translate(36 -43)">
    <use xlink:href="#rim"/>
    <path pointer-events="none" fill="none" stroke="white" stroke-width="1.5" d="M0,-3.0v7 M-2.5,-0.5L0,-3.0L2.5,-0.5"/>
  </g>
  <g id="arrowDown" transform="rotate(180) translate(-30 -48)">
    <use xlink:href="#rim"/>
    <path pointer-events="none" fill="none" stroke="white" stroke-width="1.5" d="M0,-3.0v7 M-2.5,-0.5L0,-3.0L2.5,-0.5"/>
  </g>
  <g id="arrowLeft" transform="rotate(270) translate(-36 17)">
    <use xlink:href="#rim"/>
    <path pointer-events="none" fill="none" stroke="white" stroke-width="1.5" d="M0,-3.0v7 M-2.5,-0.5L0,-3.0L2.5,-0.5"/>
  </g>
  <g id="resetDef">
    <use xlink:href="#rim2" fill="#404040"><set attributeName="fill" to="#808080" begin="reset.mouseover" end="reset.mouseout"/></use>
  </g>
</defs>
<script type="application/ecmascript">
var viewWidth = 531;
var viewHeight = 224;
var sectionId = 'dynsection-2';
</script>
<script type="application/ecmascript" xlink:href="svg.min.js"/>
<svg id="graph" class="graph">
<g id="viewport">
<title>CanInterface::CanInterface</title>
<!-- Node1 -->
<g id="Node000001" class="node">
<title>Node1</title>
<g id="a_Node000001"><a xlink:title=" ">
<polygon fill="#999999" stroke="#666666" points="131.5,-133.25 0,-133.25 0,-114 131.5,-114 131.5,-133.25"/>
<text text-anchor="middle" x="65.75" y="-119.75" font-family="Helvetica,sans-Serif" font-size="10.00">CanInterface::CanInterface</text>
</a>
</g>
</g>
<!-- Node2 -->
<g id="Node000002" class="node">
<title>Node2</title>
<g id="a_Node000002"><a xlink:href="fs-ai__api_8c.html#ac748ae1e560c8449d597afeed5abeb74" target="_top" xlink:title=" ">
<polygon fill="white" stroke="#666666" points="251,-173.25 178,-173.25 178,-154 251,-154 251,-173.25"/>
<text text-anchor="middle" x="214.5" y="-159.75" font-family="Helvetica,sans-Serif" font-size="10.00">fs_ai_api_init</text>
</a>
</g>
</g>
<!-- Node1&#45;&gt;Node2 -->
<g id="edge1_Node000001_Node000002" class="edge">
<title>Node1&#45;&gt;Node2</title>
<g id="a_edge1_Node000001_Node000002"><a xlink:title=" ">
<path fill="none" stroke="#63b8ff" d="M103.78,-133.72C122.91,-138.93 146.45,-145.35 166.81,-150.9"/>
<polygon fill="#63b8ff" stroke="#63b8ff" points="165.72,-154.23 176.29,-153.48 167.56,-147.48 165.72,-154.23"/>
</a>
</g>
</g>
<!-- Node5 -->
<g id="Node000005" class="node">
<title>Node5</title>
<g id="a_Node000005"><a xlink:href="classCanInterface.html#aad227e189cb38ff62ddc81a988330b42" target="_top" xlink:title=" ">
<polygon fill="white" stroke="#666666" points="261.5,-93.25 167.5,-93.25 167.5,-74 261.5,-74 261.5,-93.25"/>
<text text-anchor="middle" x="214.5" y="-79.75" font-family="Helvetica,sans-Serif" font-size="10.00">CanInterface::loop</text>
</a>
</g>
</g>
<!-- Node1&#45;&gt;Node5 -->
<g id="edge4_Node000001_Node000005" class="edge">
<title>Node1&#45;&gt;Node5</title>
<g id="a_edge4_Node000001_Node000005"><a xlink:title=" ">
<path fill="none" stroke="#63b8ff" d="M103.78,-113.53C122.46,-108.44 145.35,-102.2 165.38,-96.74"/>
<polygon fill="#63b8ff" stroke="#63b8ff" points="166.29,-100.12 175.02,-94.11 164.45,-93.37 166.29,-100.12"/>
</a>
</g>
</g>
<!-- Node3 -->
<g id="Node000003" class="node">
<title>Node3</title>
<g id="a_Node000003"><a xlink:href="can_8c.html#aac1918f7b4492f0b299f27dd576d6d78" target="_top" xlink:title=" ">
<polygon fill="white" stroke="#666666" points="388.12,-216.25 338.38,-216.25 338.38,-197 388.12,-197 388.12,-216.25"/>
<text text-anchor="middle" x="363.25" y="-202.75" font-family="Helvetica,sans-Serif" font-size="10.00">can_init</text>
</a>
</g>
</g>
<!-- Node2&#45;&gt;Node3 -->
<g id="edge2_Node000002_Node000003" class="edge">
<title>Node2&#45;&gt;Node3</title>
<g id="a_edge2_Node000002_Node000003"><a xlink:title=" ">
<path fill="none" stroke="#63b8ff" d="M249.91,-173.71C273.2,-180.53 303.88,-189.52 327.3,-196.38"/>
<polygon fill="#63b8ff" stroke="#63b8ff" points="326.11,-199.68 336.69,-199.13 328.08,-192.96 326.11,-199.68"/>
</a>
</g>
</g>
<!-- Node4 -->
<g id="Node000004" class="node">
<title>Node4</title>
<g id="a_Node000004"><a xlink:href="fs-ai__api_8c.html#a27b94650142bddb0c9d8e94d03240d61" target="_top" xlink:title=" ">
<polygon fill="white" stroke="#666666" points="414.38,-178.88 312.12,-178.88 312.12,-148.38 414.38,-148.38 414.38,-178.88"/>
<text text-anchor="start" x="320.12" y="-165.38" font-family="Helvetica,sans-Serif" font-size="10.00">fs_ai_api_clear_can</text>
<text text-anchor="middle" x="363.25" y="-154.12" font-family="Helvetica,sans-Serif" font-size="10.00">_stats</text>
</a>
</g>
</g>
<!-- Node2&#45;&gt;Node4 -->
<g id="edge3_Node000002_Node000004" class="edge">
<title>Node2&#45;&gt;Node4</title>
<g id="a_edge3_Node000002_Node000004"><a xlink:title=" ">
<path fill="none" stroke="#63b8ff" d="M251.4,-163.62C266.15,-163.62 283.67,-163.62 300.37,-163.62"/>
<polygon fill="#63b8ff" stroke="#63b8ff" points="300.25,-167.13 310.25,-163.63 300.25,-160.13 300.25,-167.13"/>
</a>
</g>
</g>
<!-- Node6 -->
<g id="Node000006" class="node">
<title>Node6</title>
<g id="a_Node000006"><a xlink:href="fs-ai__api_8c.html#a3052452b396a8990299189017d4616d0" target="_top" xlink:title=" ">
<polygon fill="white" stroke="#666666" points="429,-130.25 297.5,-130.25 297.5,-111 429,-111 429,-130.25"/>
<text text-anchor="middle" x="363.25" y="-116.75" font-family="Helvetica,sans-Serif" font-size="10.00">fs_ai_api_ai2vcu_set_data</text>
</a>
</g>
</g>
<!-- Node5&#45;&gt;Node6 -->
<g id="edge5_Node000005_Node000006" class="edge">
<title>Node5&#45;&gt;Node6</title>
<g id="a_edge5_Node000005_Node000006"><a xlink:title=" ">
<path fill="none" stroke="#63b8ff" d="M255.6,-93.74C272.75,-98.06 292.97,-103.16 311.17,-107.75"/>
<polygon fill="#63b8ff" stroke="#63b8ff" points="310.18,-111.11 320.73,-110.16 311.89,-104.32 310.18,-111.11"/>
</a>
</g>
</g>
<!-- Node8 -->
<g id="Node000008" class="node">
<title>Node8</title>
<g id="a_Node000008"><a xlink:href="fs-ai__api_8c.html#a3e7e5ffd8940fe04e07d1019d3e42a3f" target="_top" xlink:title=" ">
<polygon fill="white" stroke="#666666" points="422.62,-93.25 303.88,-93.25 303.88,-74 422.62,-74 422.62,-93.25"/>
<text text-anchor="middle" x="363.25" y="-79.75" font-family="Helvetica,sans-Serif" font-size="10.00">fs_ai_api_gps_get_data</text>
</a>
</g>
</g>
<!-- Node5&#45;&gt;Node8 -->
<g id="edge7_Node000005_Node000008" class="edge">
<title>Node5&#45;&gt;Node8</title>
<g id="a_edge7_Node000005_Node000008"><a xlink:title=" ">
<path fill="none" stroke="#63b8ff" d="M261.93,-83.62C271.51,-83.62 281.8,-83.62 292.01,-83.62"/>
<polygon fill="#63b8ff" stroke="#63b8ff" points="291.95,-87.13 301.95,-83.63 291.95,-80.13 291.95,-87.13"/>
</a>
</g>
</g>
<!-- Node9 -->
<g id="Node000009" class="node">
<title>Node9</title>
<g id="a_Node000009"><a xlink:href="fs-ai__api_8c.html#a0fc3b6fcd18b44e6bc78f2153ee70289" target="_top" xlink:title=" ">
<polygon fill="white" stroke="#666666" points="422.62,-56.25 303.88,-56.25 303.88,-37 422.62,-37 422.62,-56.25"/>
<text text-anchor="middle" x="363.25" y="-42.75" font-family="Helvetica,sans-Serif" font-size="10.00">fs_ai_api_imu_get_data</text>
</a>
</g>
</g>
<!-- Node5&#45;&gt;Node9 -->
<g id="edge8_Node000005_Node000009" class="edge">
<title>Node5&#45;&gt;Node9</title>
<g id="a_edge8_Node000005_Node000009"><a xlink:title=" ">
<path fill="none" stroke="#63b8ff" d="M255.6,-73.51C272.75,-69.19 292.97,-64.09 311.17,-59.5"/>
<polygon fill="#63b8ff" stroke="#63b8ff" points="311.89,-62.93 320.73,-57.09 310.18,-56.14 311.89,-62.93"/>
</a>
</g>
</g>
<!-- Node10 -->
<g id="Node000010" class="node">
<title>Node10</title>
<g id="a_Node000010"><a xlink:href="fs-ai__api_8c.html#a51d163f74a40ea6e3ac5d068e84ce0b2" target="_top" xlink:title=" ">
<polygon fill="white" stroke="#666666" points="429,-19.25 297.5,-19.25 297.5,0 429,0 429,-19.25"/>
<text text-anchor="middle" x="363.25" y="-5.75" font-family="Helvetica,sans-Serif" font-size="10.00">fs_ai_api_vcu2ai_get_data</text>
</a>
</g>
</g>
<!-- Node5&#45;&gt;Node10 -->
<g id="edge9_Node000005_Node000010" class="edge">
<title>Node5&#45;&gt;Node10</title>
<g id="a_edge9_Node000005_Node000010"><a xlink:title=" ">
<path fill="none" stroke="#63b8ff" d="M227.51,-73.53C242.84,-61.11 270.61,-40.12 297.5,-27.62 300.78,-26.1 304.21,-24.68 307.72,-23.36"/>
<polygon fill="#63b8ff" stroke="#63b8ff" points="308.6,-26.76 316.92,-20.21 306.33,-20.14 308.6,-26.76"/>
</a>
</g>
</g>
<!-- Node7 -->
<g id="Node000007" class="node">
<title>Node7</title>
<g id="a_Node000007"><a xlink:href="can_8c.html#a9115860092012f045bcac21f58ad8d7a" target="_top" xlink:title=" ">
<polygon fill="white" stroke="#666666" points="523,-130.25 465,-130.25 465,-111 523,-111 523,-130.25"/>
<text text-anchor="middle" x="494" y="-116.75" font-family="Helvetica,sans-Serif" font-size="10.00">can_send</text>
</a>
</g>
</g>
<!-- Node6&#45;&gt;Node7 -->
<g id="edge6_Node000006_Node000007" class="edge">
<title>Node6&#45;&gt;Node7</title>
<g id="a_edge6_Node000006_Node000007"><a xlink:title=" ">
<path fill="none" stroke="#63b8ff" d="M429.38,-120.62C437.57,-120.62 445.74,-120.62 453.36,-120.62"/>
<polygon fill="#63b8ff" stroke="#63b8ff" points="453.3,-124.13 463.3,-120.63 453.3,-117.13 453.3,-124.13"/>
</a>
</g>
</g>
</g>
</svg>

<g id="navigator" transform="translate(0 0)" fill="#404254">
  <rect fill="#f2f5e9" fill-opacity="0.5" stroke="#606060" stroke-width=".5" x="0" y="0" width="60" height="60"/>
  <use id="zoomplus" xlink:href="#zoomPlus" x="17" y="9" onmousedown="handleZoom(evt,'in')"/>
  <use id="zoomminus" xlink:href="#zoomMin" x="42" y="9" onmousedown="handleZoom(evt,'out')"/>
  <use id="reset" xlink:href="#resetDef" x="30" y="36" onmousedown="handleReset()"/>
   <use id="arrowup" xlink:href="#arrowUp" x="0" y="0" onmousedown="handlePan(0,-1)"/>
  <use id="arrowright" xlink:href="#arrowRight" x="0" y="0" onmousedown="handlePan(1,0)"/>
  <use id="arrowdown" xlink:href="#arrowDown" x="0" y="0" onmousedown="handlePan(0,1)"/>
  <use id="arrowleft" xlink:href="#arrowLeft" x="0" y="0" onmousedown="handlePan(-1,0)"/>
</g>
<svg viewBox="0 0 15 15" width="100%" height="30px" preserveAspectRatio="xMaxYMin meet">
 <g id="arrow_out" transform="scale(0.3 0.3)">
  <a xlink:href="classCanInterface_a30b4be0d42ccab7b5a4b321f1dff2353_cgraph_org.svg" target="_base">
   <rect id="button" ry="5" rx="5" y="6" x="6" height="38" width="38"
        fill="#f2f5e9" fill-opacity="0.5" stroke="#606060" stroke-width="1.0"/>
   <path id="arrow"
     d="M 11.500037,31.436501 C 11.940474,20.09759 22.043105,11.32322 32.158766,21.979434 L 37.068811,17.246167 C 37.068811,17.246167 37.088388,32 37.088388,32 L 22.160133,31.978069 C 22.160133,31.978069 26.997745,27.140456 26.997745,27.140456 C 18.528582,18.264221 13.291696,25.230495 11.500037,31.436501 z"
     style="fill:#404040;"/>
  </a>
 </g>
</svg>

<style type='text/css'>
<![CDATA[
[data-mouse-over-selected='false'] { opacity: 0.7; }
[data-mouse-over-selected='true']  { opacity: 1.0; }
]]>
</style>
<script type="application/ecmascript"><![CDATA[
document.addEventListener('DOMContentLoaded', (event) => {
  highlightEdges();
  highlightAdjacentNodes();
});
]]></script>
</svg>
