<?xml version="1.0" encoding="UTF-8" standalone="no"?>
<!DOCTYPE svg PUBLIC "-//W3C//DTD SVG 1.1//EN"
 "http://www.w3.org/Graphics/SVG/1.1/DTD/svg11.dtd">
<!-- Generated by graphviz version 9.0.0 (20230911.1827)
 -->
<!-- Title: src/planning/planning/include/utils/cone.hpp Pages: 1 -->
<svg width="849pt" height="327pt"
 viewBox="0.00 0.00 849.00 327.00" xmlns="http://www.w3.org/2000/svg" xmlns:xlink="http://www.w3.org/1999/xlink">
<g id="graph0" class="graph" transform="scale(1 1) rotate(0) translate(4 323)">
<title>src/planning/planning/include/utils/cone.hpp</title>
<!-- Node1 -->
<g id="Node000001" class="node">
<title>Node1</title>
<g id="a_Node000001"><a xlink:title=" ">
<polygon fill="#999999" stroke="#666666" points="690.12,-319 577.38,-319 577.38,-288.5 690.12,-288.5 690.12,-319"/>
<text text-anchor="start" x="585.38" y="-305.5" font-family="Helvetica,sans-Serif" font-size="10.00">src/planning/planning</text>
<text text-anchor="middle" x="633.75" y="-294.25" font-family="Helvetica,sans-Serif" font-size="10.00">/include/utils/cone.hpp</text>
</a>
</g>
</g>
<!-- Node2 -->
<g id="Node000002" class="node">
<title>Node2</title>
<g id="a_Node000002"><a xlink:href="track_8hpp.html" target="_top" xlink:title=" ">
<polygon fill="white" stroke="#666666" points="630.5,-252.5 499,-252.5 499,-222 630.5,-222 630.5,-252.5"/>
<text text-anchor="start" x="507" y="-239" font-family="Helvetica,sans-Serif" font-size="10.00">src/planning/planning</text>
<text text-anchor="middle" x="564.75" y="-227.75" font-family="Helvetica,sans-Serif" font-size="10.00">/include/planning/track.hpp</text>
</a>
</g>
</g>
<!-- Node1&#45;&gt;Node2 -->
<g id="edge1_Node000001_Node000002" class="edge">
<title>Node1&#45;&gt;Node2</title>
<g id="a_edge1_Node000001_Node000002"><a xlink:title=" ">
<path fill="none" stroke="#63b8ff" d="M609.91,-280.46C600.12,-271.32 589.07,-260.98 580.35,-252.83"/>
<polygon fill="#63b8ff" stroke="#63b8ff" points="607.29,-282.81 616.99,-287.08 612.07,-277.69 607.29,-282.81"/>
</a>
</g>
</g>
<!-- Node16 -->
<g id="Node000016" class="node">
<title>Node16</title>
<g id="a_Node000016"><a xlink:href="cone_8cpp.html" target="_top" xlink:title=" ">
<polygon fill="white" stroke="#666666" points="756.5,-252.5 649,-252.5 649,-222 756.5,-222 756.5,-252.5"/>
<text text-anchor="start" x="657" y="-239" font-family="Helvetica,sans-Serif" font-size="10.00">src/planning/planning</text>
<text text-anchor="middle" x="702.75" y="-227.75" font-family="Helvetica,sans-Serif" font-size="10.00">/src/utils/cone.cpp</text>
</a>
</g>
</g>
<!-- Node1&#45;&gt;Node16 -->
<g id="edge24_Node000001_Node000016" class="edge">
<title>Node1&#45;&gt;Node16</title>
<g id="a_edge24_Node000001_Node000016"><a xlink:title=" ">
<path fill="none" stroke="#63b8ff" d="M657.59,-280.46C667.38,-271.32 678.43,-260.98 687.15,-252.83"/>
<polygon fill="#63b8ff" stroke="#63b8ff" points="655.43,-277.69 650.51,-287.08 660.21,-282.81 655.43,-277.69"/>
</a>
</g>
</g>
<!-- Node3 -->
<g id="Node000003" class="node">
<title>Node3</title>
<g id="a_Node000003"><a xlink:href="global__path__planner_8hpp.html" target="_top" xlink:title=" ">
<polygon fill="white" stroke="#666666" points="361.38,-186 244.12,-186 244.12,-144.25 361.38,-144.25 361.38,-186"/>
<text text-anchor="start" x="252.12" y="-172.5" font-family="Helvetica,sans-Serif" font-size="10.00">src/planning/planning</text>
<text text-anchor="start" x="252.12" y="-161.25" font-family="Helvetica,sans-Serif" font-size="10.00">/include/planning/global</text>
<text text-anchor="middle" x="302.75" y="-150" font-family="Helvetica,sans-Serif" font-size="10.00">_path_planner.hpp</text>
</a>
</g>
</g>
<!-- Node2&#45;&gt;Node3 -->
<g id="edge2_Node000002_Node000003" class="edge">
<title>Node2&#45;&gt;Node3</title>
<g id="a_edge2_Node000002_Node000003"><a xlink:title=" ">
<path fill="none" stroke="#63b8ff" d="M495.36,-218.83C458.31,-209.39 411.96,-197.36 370.75,-186 367.79,-185.18 364.75,-184.34 361.69,-183.47"/>
<polygon fill="#63b8ff" stroke="#63b8ff" points="494.03,-222.1 504.58,-221.17 495.75,-215.32 494.03,-222.1"/>
</a>
</g>
</g>
<!-- Node11 -->
<g id="Node000011" class="node">
<title>Node11</title>
<g id="a_Node000011"><a xlink:href="local__path__planner_8hpp.html" target="_top" xlink:title=" ">
<polygon fill="white" stroke="#666666" points="491.75,-186 379.75,-186 379.75,-144.25 491.75,-144.25 491.75,-186"/>
<text text-anchor="start" x="387.75" y="-172.5" font-family="Helvetica,sans-Serif" font-size="10.00">src/planning/planning</text>
<text text-anchor="start" x="387.75" y="-161.25" font-family="Helvetica,sans-Serif" font-size="10.00">/include/planning/local</text>
<text text-anchor="middle" x="435.75" y="-150" font-family="Helvetica,sans-Serif" font-size="10.00">_path_planner.hpp</text>
</a>
</g>
</g>
<!-- Node2&#45;&gt;Node11 -->
<g id="edge11_Node000002_Node000011" class="edge">
<title>Node2&#45;&gt;Node11</title>
<g id="a_edge11_Node000002_Node000011"><a xlink:title=" ">
<path fill="none" stroke="#63b8ff" d="M528,-216.27C510.78,-206.91 490.31,-195.78 473.03,-186.39"/>
<polygon fill="#63b8ff" stroke="#63b8ff" points="525.92,-219.13 536.38,-220.83 529.26,-212.98 525.92,-219.13"/>
</a>
</g>
</g>
<!-- Node13 -->
<g id="Node000013" class="node">
<title>Node13</title>
<g id="a_Node000013"><a xlink:href="files_8hpp.html" target="_top" xlink:title=" ">
<polygon fill="white" stroke="#666666" points="619.25,-180.38 510.25,-180.38 510.25,-149.88 619.25,-149.88 619.25,-180.38"/>
<text text-anchor="start" x="518.25" y="-166.88" font-family="Helvetica,sans-Serif" font-size="10.00">src/planning/planning</text>
<text text-anchor="middle" x="564.75" y="-155.62" font-family="Helvetica,sans-Serif" font-size="10.00">/include/utils/files.hpp</text>
</a>
</g>
</g>
<!-- Node2&#45;&gt;Node13 -->
<g id="edge16_Node000002_Node000013" class="edge">
<title>Node2&#45;&gt;Node13</title>
<g id="a_edge16_Node000002_Node000013"><a xlink:title=" ">
<path fill="none" stroke="#63b8ff" d="M558.21,-210.27C557.74,-200.26 558.06,-189.19 559.16,-180.64"/>
<polygon fill="#63b8ff" stroke="#63b8ff" points="554.72,-210.54 559.03,-220.21 561.69,-209.96 554.72,-210.54"/>
</a>
</g>
</g>
<!-- Node15 -->
<g id="Node000015" class="node">
<title>Node15</title>
<g id="a_Node000015"><a xlink:href="track_8cpp.html" target="_top" xlink:title=" ">
<polygon fill="white" stroke="#666666" points="751.88,-180.38 637.62,-180.38 637.62,-149.88 751.88,-149.88 751.88,-180.38"/>
<text text-anchor="start" x="645.62" y="-166.88" font-family="Helvetica,sans-Serif" font-size="10.00">src/planning/planning</text>
<text text-anchor="middle" x="694.75" y="-155.62" font-family="Helvetica,sans-Serif" font-size="10.00">/src/planning/track.cpp</text>
</a>
</g>
</g>
<!-- Node2&#45;&gt;Node15 -->
<g id="edge23_Node000002_Node000015" class="edge">
<title>Node2&#45;&gt;Node15</title>
<g id="a_edge23_Node000002_Node000015"><a xlink:title=" ">
<path fill="none" stroke="#63b8ff" d="M602.13,-216.09C623.01,-204.82 648.56,-191.04 667.53,-180.81"/>
<polygon fill="#63b8ff" stroke="#63b8ff" points="600.47,-213 593.33,-220.83 603.8,-219.16 600.47,-213"/>
</a>
</g>
</g>
<!-- Node4 -->
<g id="Node000004" class="node">
<title>Node4</title>
<g id="a_Node000004"><a xlink:href="planning_8hpp.html" target="_top" xlink:title=" ">
<polygon fill="white" stroke="#666666" points="647.62,-102.62 501.88,-102.62 501.88,-72.12 647.62,-72.12 647.62,-102.62"/>
<text text-anchor="start" x="509.88" y="-89.12" font-family="Helvetica,sans-Serif" font-size="10.00">src/planning/planning</text>
<text text-anchor="middle" x="574.75" y="-77.88" font-family="Helvetica,sans-Serif" font-size="10.00">/include/planning/planning.hpp</text>
</a>
</g>
</g>
<!-- Node3&#45;&gt;Node4 -->
<g id="edge3_Node000003_Node000004" class="edge">
<title>Node3&#45;&gt;Node4</title>
<g id="a_edge3_Node000003_Node000004"><a xlink:title=" ">
<path fill="none" stroke="#63b8ff" d="M372.5,-143.77C428.21,-128.06 481.5,-113.52 520.13,-103.06"/>
<polygon fill="#63b8ff" stroke="#63b8ff" points="371.83,-140.33 363.16,-146.42 373.74,-147.06 371.83,-140.33"/>
</a>
</g>
</g>
<!-- Node7 -->
<g id="Node000007" class="node">
<title>Node7</title>
<g id="a_Node000007"><a xlink:href="planning_8cpp.html" target="_top" xlink:title=" ">
<polygon fill="white" stroke="#666666" points="430,-30.5 301.5,-30.5 301.5,0 430,0 430,-30.5"/>
<text text-anchor="start" x="309.5" y="-17" font-family="Helvetica,sans-Serif" font-size="10.00">src/planning/planning</text>
<text text-anchor="middle" x="365.75" y="-5.75" font-family="Helvetica,sans-Serif" font-size="10.00">/src/planning/planning.cpp</text>
</a>
</g>
</g>
<!-- Node3&#45;&gt;Node7 -->
<g id="edge9_Node000003_Node000007" class="edge">
<title>Node3&#45;&gt;Node7</title>
<g id="a_edge9_Node000003_Node000007"><a xlink:title=" ">
<path fill="none" stroke="#63b8ff" d="M232.71,-155.3C203.58,-147.78 172.48,-133.89 154.75,-108.25 144.2,-92.99 143.25,-81.06 154.75,-66.5 172.78,-43.67 245.9,-30.1 301.05,-22.92"/>
<polygon fill="#63b8ff" stroke="#63b8ff" points="231.74,-158.66 242.27,-157.53 233.33,-151.85 231.74,-158.66"/>
</a>
</g>
</g>
<!-- Node9 -->
<g id="Node000009" class="node">
<title>Node9</title>
<g id="a_Node000009"><a xlink:href="global__path__planner_8cpp.html" target="_top" xlink:title=" ">
<polygon fill="white" stroke="#666666" points="107.5,-108.25 0,-108.25 0,-66.5 107.5,-66.5 107.5,-108.25"/>
<text text-anchor="start" x="8" y="-94.75" font-family="Helvetica,sans-Serif" font-size="10.00">src/planning/planning</text>
<text text-anchor="start" x="8" y="-83.5" font-family="Helvetica,sans-Serif" font-size="10.00">/src/planning/global</text>
<text text-anchor="middle" x="53.75" y="-72.25" font-family="Helvetica,sans-Serif" font-size="10.00">_path_planner.cpp</text>
</a>
</g>
</g>
<!-- Node3&#45;&gt;Node9 -->
<g id="edge8_Node000003_Node000009" class="edge">
<title>Node3&#45;&gt;Node9</title>
<g id="a_edge8_Node000003_Node000009"><a xlink:title=" ">
<path fill="none" stroke="#63b8ff" d="M232.82,-142.85C193.17,-130.79 144.32,-115.93 107.66,-104.78"/>
<polygon fill="#63b8ff" stroke="#63b8ff" points="231.71,-146.17 242.29,-145.73 233.74,-139.47 231.71,-146.17"/>
</a>
</g>
</g>
<!-- Node10 -->
<g id="Node000010" class="node">
<title>Node10</title>
<g id="a_Node000010"><a xlink:href="tests_8cpp.html" target="_top" xlink:title=" ">
<polygon fill="white" stroke="#666666" points="407.5,-102.62 300,-102.62 300,-72.12 407.5,-72.12 407.5,-102.62"/>
<text text-anchor="start" x="308" y="-89.12" font-family="Helvetica,sans-Serif" font-size="10.00">src/planning/planning</text>
<text text-anchor="middle" x="353.75" y="-77.88" font-family="Helvetica,sans-Serif" font-size="10.00">/test/tests.cpp</text>
</a>
</g>
</g>
<!-- Node3&#45;&gt;Node10 -->
<g id="edge10_Node000003_Node000010" class="edge">
<title>Node3&#45;&gt;Node10</title>
<g id="a_edge10_Node000003_Node000010"><a xlink:title=" ">
<path fill="none" stroke="#63b8ff" d="M322.65,-134.56C330.02,-123.62 338.04,-111.71 344.09,-102.73"/>
<polygon fill="#63b8ff" stroke="#63b8ff" points="319.94,-132.32 317.26,-142.57 325.75,-136.23 319.94,-132.32"/>
</a>
</g>
</g>
<!-- Node5 -->
<g id="Node000005" class="node">
<title>Node5</title>
<g id="a_Node000005"><a xlink:href="planning_2planning_2src_2adapter_2adapter_8cpp.html" target="_top" xlink:title=" ">
<polygon fill="white" stroke="#666666" points="569.25,-30.5 448.25,-30.5 448.25,0 569.25,0 569.25,-30.5"/>
<text text-anchor="start" x="456.25" y="-17" font-family="Helvetica,sans-Serif" font-size="10.00">src/planning/planning</text>
<text text-anchor="middle" x="508.75" y="-5.75" font-family="Helvetica,sans-Serif" font-size="10.00">/src/adapter/adapter.cpp</text>
</a>
</g>
</g>
<!-- Node4&#45;&gt;Node5 -->
<g id="edge4_Node000004_Node000005" class="edge">
<title>Node4&#45;&gt;Node5</title>
<g id="a_edge4_Node000004_Node000005"><a xlink:title=" ">
<path fill="none" stroke="#63b8ff" d="M553.37,-63.66C543.2,-52.85 531.34,-40.25 522.41,-30.76"/>
<polygon fill="#63b8ff" stroke="#63b8ff" points="550.64,-65.86 560.04,-70.74 555.73,-61.06 550.64,-65.86"/>
</a>
</g>
</g>
<!-- Node6 -->
<g id="Node000006" class="node">
<title>Node6</title>
<g id="a_Node000006"><a xlink:href="planning_2planning_2src_2main_8cpp.html" target="_top" xlink:title=" ">
<polygon fill="white" stroke="#666666" points="694.5,-30.5 587,-30.5 587,0 694.5,0 694.5,-30.5"/>
<text text-anchor="start" x="595" y="-17" font-family="Helvetica,sans-Serif" font-size="10.00">src/planning/planning</text>
<text text-anchor="middle" x="640.75" y="-5.75" font-family="Helvetica,sans-Serif" font-size="10.00">/src/main.cpp</text>
</a>
</g>
</g>
<!-- Node4&#45;&gt;Node6 -->
<g id="edge5_Node000004_Node000006" class="edge">
<title>Node4&#45;&gt;Node6</title>
<g id="a_edge5_Node000004_Node000006"><a xlink:title=" ">
<path fill="none" stroke="#63b8ff" d="M596.13,-63.66C606.3,-52.85 618.16,-40.25 627.09,-30.76"/>
<polygon fill="#63b8ff" stroke="#63b8ff" points="593.77,-61.06 589.46,-70.74 598.86,-65.86 593.77,-61.06"/>
</a>
</g>
</g>
<!-- Node4&#45;&gt;Node7 -->
<g id="edge6_Node000004_Node000007" class="edge">
<title>Node4&#45;&gt;Node7</title>
<g id="a_edge6_Node000004_Node000007"><a xlink:title=" ">
<path fill="none" stroke="#63b8ff" d="M520.1,-68.04C485.62,-56.47 441.68,-41.73 409.51,-30.93"/>
<polygon fill="#63b8ff" stroke="#63b8ff" points="518.91,-71.33 529.5,-71.19 521.13,-64.69 518.91,-71.33"/>
</a>
</g>
</g>
<!-- Node8 -->
<g id="Node000008" class="node">
<title>Node8</title>
<g id="a_Node000008"><a xlink:href="integration__tests_8cpp.html" target="_top" xlink:title=" ">
<polygon fill="white" stroke="#666666" points="841,-30.5 712.5,-30.5 712.5,0 841,0 841,-30.5"/>
<text text-anchor="start" x="720.5" y="-17" font-family="Helvetica,sans-Serif" font-size="10.00">src/planning/planning</text>
<text text-anchor="middle" x="776.75" y="-5.75" font-family="Helvetica,sans-Serif" font-size="10.00">/test/integration_tests.cpp</text>
</a>
</g>
</g>
<!-- Node4&#45;&gt;Node8 -->
<g id="edge7_Node000004_Node000008" class="edge">
<title>Node4&#45;&gt;Node8</title>
<g id="a_edge7_Node000004_Node000008"><a xlink:title=" ">
<path fill="none" stroke="#63b8ff" d="M627.57,-68.04C660.9,-56.47 703.36,-41.73 734.46,-30.93"/>
<polygon fill="#63b8ff" stroke="#63b8ff" points="626.82,-64.59 618.53,-71.18 629.12,-71.2 626.82,-64.59"/>
</a>
</g>
</g>
<!-- Node11&#45;&gt;Node4 -->
<g id="edge12_Node000011_Node000004" class="edge">
<title>Node11&#45;&gt;Node4</title>
<g id="a_edge12_Node000011_Node000004"><a xlink:title=" ">
<path fill="none" stroke="#63b8ff" d="M483.02,-138.37C504.69,-126.55 529.59,-112.98 547.98,-102.96"/>
<polygon fill="#63b8ff" stroke="#63b8ff" points="481.43,-135.24 474.33,-143.1 484.78,-141.39 481.43,-135.24"/>
</a>
</g>
</g>
<!-- Node11&#45;&gt;Node7 -->
<g id="edge14_Node000011_Node000007" class="edge">
<title>Node11&#45;&gt;Node7</title>
<g id="a_edge14_Node000011_Node000007"><a xlink:title=" ">
<path fill="none" stroke="#63b8ff" d="M434.37,-132.61C432.38,-112.66 427.69,-86.88 416.75,-66.5 409.23,-52.48 396.48,-39.92 385.61,-30.86"/>
<polygon fill="#63b8ff" stroke="#63b8ff" points="430.86,-132.69 435.15,-142.38 437.84,-132.13 430.86,-132.69"/>
</a>
</g>
</g>
<!-- Node11&#45;&gt;Node10 -->
<g id="edge15_Node000011_Node000010" class="edge">
<title>Node11&#45;&gt;Node10</title>
<g id="a_edge15_Node000011_Node000010"><a xlink:title=" ">
<path fill="none" stroke="#63b8ff" d="M405.59,-136.26C393.36,-124.97 379.75,-112.39 369.54,-102.96"/>
<polygon fill="#63b8ff" stroke="#63b8ff" points="402.94,-138.58 412.66,-142.8 407.69,-133.44 402.94,-138.58"/>
</a>
</g>
</g>
<!-- Node12 -->
<g id="Node000012" class="node">
<title>Node12</title>
<g id="a_Node000012"><a xlink:href="local__path__planner_8cpp.html" target="_top" xlink:title=" ">
<polygon fill="white" stroke="#666666" points="282.12,-108.25 163.38,-108.25 163.38,-66.5 282.12,-66.5 282.12,-108.25"/>
<text text-anchor="start" x="171.38" y="-94.75" font-family="Helvetica,sans-Serif" font-size="10.00">src/planning/planning</text>
<text text-anchor="start" x="171.38" y="-83.5" font-family="Helvetica,sans-Serif" font-size="10.00">/src/planning/local_path</text>
<text text-anchor="middle" x="222.75" y="-72.25" font-family="Helvetica,sans-Serif" font-size="10.00">_planner.cpp</text>
</a>
</g>
</g>
<!-- Node11&#45;&gt;Node12 -->
<g id="edge13_Node000011_Node000012" class="edge">
<title>Node11&#45;&gt;Node12</title>
<g id="a_edge13_Node000011_Node000012"><a xlink:title=" ">
<path fill="none" stroke="#63b8ff" d="M368.78,-140.31C340.16,-130.13 307.1,-118.37 279.68,-108.62"/>
<polygon fill="#63b8ff" stroke="#63b8ff" points="367.49,-143.56 378.08,-143.62 369.83,-136.97 367.49,-143.56"/>
</a>
</g>
</g>
<!-- Node13&#45;&gt;Node2 -->
<g id="edge18_Node000013_Node000002" class="edge">
<title>Node13&#45;&gt;Node2</title>
<g id="a_edge18_Node000013_Node000002"><a xlink:title=" ">
<path fill="none" stroke="#63b8ff" d="M571.29,-192.08C571.76,-202.09 571.44,-213.16 570.34,-221.72"/>
<polygon fill="#63b8ff" stroke="#63b8ff" points="574.78,-191.82 570.47,-182.14 567.81,-192.4 574.78,-191.82"/>
</a>
</g>
</g>
<!-- Node13&#45;&gt;Node4 -->
<g id="edge17_Node000013_Node000004" class="edge">
<title>Node13&#45;&gt;Node4</title>
<g id="a_edge17_Node000013_Node000004"><a xlink:title=" ">
<path fill="none" stroke="#63b8ff" d="M568.14,-138.47C569.7,-126.62 571.5,-112.99 572.83,-102.94"/>
<polygon fill="#63b8ff" stroke="#63b8ff" points="564.72,-137.65 566.88,-148.02 571.65,-138.56 564.72,-137.65"/>
</a>
</g>
</g>
<!-- Node13&#45;&gt;Node7 -->
<g id="edge19_Node000013_Node000007" class="edge">
<title>Node13&#45;&gt;Node7</title>
<g id="a_edge19_Node000013_Node000007"><a xlink:title=" ">
<path fill="none" stroke="#63b8ff" d="M537.43,-142.84C511.66,-122.87 471.85,-92.29 436.75,-66.5 420.08,-54.25 400.92,-40.72 386.71,-30.79"/>
<polygon fill="#63b8ff" stroke="#63b8ff" points="535.01,-145.39 545.06,-148.76 539.3,-139.86 535.01,-145.39"/>
</a>
</g>
</g>
<!-- Node13&#45;&gt;Node8 -->
<g id="edge21_Node000013_Node000008" class="edge">
<title>Node13&#45;&gt;Node8</title>
<g id="a_edge21_Node000013_Node000008"><a xlink:title=" ">
<path fill="none" stroke="#63b8ff" d="M603.23,-144.04C620.38,-134.29 640.35,-121.76 656.75,-108.25 676.12,-92.3 675.42,-82.49 694.75,-66.5 711.35,-52.77 732.04,-40.12 748.48,-30.94"/>
<polygon fill="#63b8ff" stroke="#63b8ff" points="601.87,-140.8 594.84,-148.72 605.28,-146.91 601.87,-140.8"/>
</a>
</g>
</g>
<!-- Node13&#45;&gt;Node10 -->
<g id="edge22_Node000013_Node000010" class="edge">
<title>Node13&#45;&gt;Node10</title>
<g id="a_edge22_Node000013_Node000010"><a xlink:title=" ">
<path fill="none" stroke="#63b8ff" d="M513.37,-145.68C476.85,-132.57 428.46,-115.2 394.57,-103.03"/>
<polygon fill="#63b8ff" stroke="#63b8ff" points="511.8,-148.83 522.39,-148.92 514.16,-142.25 511.8,-148.83"/>
</a>
</g>
</g>
<!-- Node14 -->
<g id="Node000014" class="node">
<title>Node14</title>
<g id="a_Node000014"><a xlink:href="files_8cpp.html" target="_top" xlink:title=" ">
<polygon fill="white" stroke="#666666" points="811.5,-102.62 704,-102.62 704,-72.12 811.5,-72.12 811.5,-102.62"/>
<text text-anchor="start" x="712" y="-89.12" font-family="Helvetica,sans-Serif" font-size="10.00">src/planning/planning</text>
<text text-anchor="middle" x="757.75" y="-77.88" font-family="Helvetica,sans-Serif" font-size="10.00">/src/utils/files.cpp</text>
</a>
</g>
</g>
<!-- Node13&#45;&gt;Node14 -->
<g id="edge20_Node000013_Node000014" class="edge">
<title>Node13&#45;&gt;Node14</title>
<g id="a_edge20_Node000013_Node000014"><a xlink:title=" ">
<path fill="none" stroke="#63b8ff" d="M612.37,-145.43C645.67,-132.36 689.52,-115.15 720.32,-103.06"/>
<polygon fill="#63b8ff" stroke="#63b8ff" points="611.4,-142.06 603.37,-148.97 613.96,-148.57 611.4,-142.06"/>
</a>
</g>
</g>
</g>
</svg>
