<?xml version="1.0" encoding="UTF-8" standalone="no"?>
<!DOCTYPE svg PUBLIC "-//W3C//DTD SVG 1.1//EN"
 "http://www.w3.org/Graphics/SVG/1.1/DTD/svg11.dtd">
<!-- Generated by graphviz version 9.0.0 (20230911.1827)
 -->
<!-- Title: src/planning/planning/src/utils/cone.cpp Pages: 1 -->
<svg width="171pt" height="160pt"
 viewBox="0.00 0.00 171.00 160.25" xmlns="http://www.w3.org/2000/svg" xmlns:xlink="http://www.w3.org/1999/xlink">
<g id="graph0" class="graph" transform="scale(1 1) rotate(0) translate(4 156.25)">
<title>src/planning/planning/src/utils/cone.cpp</title>
<!-- Node1 -->
<g id="Node000001" class="node">
<title>Node1</title>
<g id="a_Node000001"><a xlink:title=" ">
<polygon fill="#999999" stroke="#666666" points="135.25,-152.25 27.75,-152.25 27.75,-121.75 135.25,-121.75 135.25,-152.25"/>
<text text-anchor="start" x="35.75" y="-138.75" font-family="Helvetica,sans-Serif" font-size="10.00">src/planning/planning</text>
<text text-anchor="middle" x="81.5" y="-127.5" font-family="Helvetica,sans-Serif" font-size="10.00">/src/utils/cone.cpp</text>
</a>
</g>
</g>
<!-- Node2 -->
<g id="Node000002" class="node">
<title>Node2</title>
<g id="a_Node000002"><a xlink:href="cone_8hpp.html" target="_top" xlink:title=" ">
<polygon fill="white" stroke="#666666" points="122.88,-85.75 40.12,-85.75 40.12,-55.25 122.88,-55.25 122.88,-85.75"/>
<text text-anchor="start" x="48.12" y="-72.25" font-family="Helvetica,sans-Serif" font-size="10.00">../../include/utils</text>
<text text-anchor="middle" x="81.5" y="-61" font-family="Helvetica,sans-Serif" font-size="10.00">/cone.hpp</text>
</a>
</g>
</g>
<!-- Node1&#45;&gt;Node2 -->
<g id="edge1_Node000001_Node000002" class="edge">
<title>Node1&#45;&gt;Node2</title>
<g id="a_edge1_Node000001_Node000002"><a xlink:title=" ">
<path fill="none" stroke="#63b8ff" d="M81.5,-121.36C81.5,-114.27 81.5,-105.54 81.5,-97.38"/>
<polygon fill="#63b8ff" stroke="#63b8ff" points="85,-97.59 81.5,-87.59 78,-97.59 85,-97.59"/>
</a>
</g>
</g>
<!-- Node3 -->
<g id="Node000003" class="node">
<title>Node3</title>
<g id="a_Node000003"><a xlink:title=" ">
<polygon fill="#e0e0e0" stroke="#999999" points="43,-19.25 0,-19.25 0,0 43,0 43,-19.25"/>
<text text-anchor="middle" x="21.5" y="-5.75" font-family="Helvetica,sans-Serif" font-size="10.00">cmath</text>
</a>
</g>
</g>
<!-- Node2&#45;&gt;Node3 -->
<g id="edge2_Node000002_Node000003" class="edge">
<title>Node2&#45;&gt;Node3</title>
<g id="a_edge2_Node000002_Node000003"><a xlink:title=" ">
<path fill="none" stroke="#63b8ff" d="M66.67,-54.95C58.24,-46.67 47.63,-36.27 38.82,-27.62"/>
<polygon fill="#63b8ff" stroke="#63b8ff" points="41.42,-25.27 31.83,-20.76 36.52,-30.26 41.42,-25.27"/>
</a>
</g>
</g>
<!-- Node4 -->
<g id="Node000004" class="node">
<title>Node4</title>
<g id="a_Node000004"><a xlink:title=" ">
<polygon fill="#e0e0e0" stroke="#999999" points="101.5,-19.25 61.5,-19.25 61.5,0 101.5,0 101.5,-19.25"/>
<text text-anchor="middle" x="81.5" y="-5.75" font-family="Helvetica,sans-Serif" font-size="10.00">string</text>
</a>
</g>
</g>
<!-- Node2&#45;&gt;Node4 -->
<g id="edge3_Node000002_Node000004" class="edge">
<title>Node2&#45;&gt;Node4</title>
<g id="a_edge3_Node000002_Node000004"><a xlink:title=" ">
<path fill="none" stroke="#63b8ff" d="M81.5,-54.95C81.5,-47.71 81.5,-38.84 81.5,-30.94"/>
<polygon fill="#63b8ff" stroke="#63b8ff" points="85,-31.21 81.5,-21.21 78,-31.21 85,-31.21"/>
</a>
</g>
</g>
<!-- Node5 -->
<g id="Node000005" class="node">
<title>Node5</title>
<g id="a_Node000005"><a xlink:title=" ">
<polygon fill="#e0e0e0" stroke="#999999" points="163,-19.25 120,-19.25 120,0 163,0 163,-19.25"/>
<text text-anchor="middle" x="141.5" y="-5.75" font-family="Helvetica,sans-Serif" font-size="10.00">vector</text>
</a>
</g>
</g>
<!-- Node2&#45;&gt;Node5 -->
<g id="edge4_Node000002_Node000005" class="edge">
<title>Node2&#45;&gt;Node5</title>
<g id="a_edge4_Node000002_Node000005"><a xlink:title=" ">
<path fill="none" stroke="#63b8ff" d="M96.33,-54.95C104.76,-46.67 115.37,-36.27 124.18,-27.62"/>
<polygon fill="#63b8ff" stroke="#63b8ff" points="126.48,-30.26 131.17,-20.76 121.58,-25.27 126.48,-30.26"/>
</a>
</g>
</g>
</g>
</svg>
