<?xml version="1.0" encoding="UTF-8" standalone="no"?>
<!DOCTYPE svg PUBLIC "-//W3C//DTD SVG 1.1//EN"
 "http://www.w3.org/Graphics/SVG/1.1/DTD/svg11.dtd">
<!-- Generated by graphviz version 9.0.0 (20230911.1827)
 -->
<!-- Title: src/loc_map/include/loc_map/data_structures.hpp Pages: 1 -->
<svg width="364pt" height="94pt"
 viewBox="0.00 0.00 364.00 93.75" xmlns="http://www.w3.org/2000/svg" xmlns:xlink="http://www.w3.org/1999/xlink">
<g id="graph0" class="graph" transform="scale(1 1) rotate(0) translate(4 89.75)">
<title>src/loc_map/include/loc_map/data_structures.hpp</title>
<!-- Node1 -->
<g id="Node000001" class="node">
<title>Node1</title>
<g id="a_Node000001"><a xlink:title=" ">
<polygon fill="#999999" stroke="#666666" points="207.75,-85.75 63.5,-85.75 63.5,-55.25 207.75,-55.25 207.75,-85.75"/>
<text text-anchor="start" x="71.5" y="-72.25" font-family="Helvetica,sans-Serif" font-size="10.00">src/loc_map/include</text>
<text text-anchor="middle" x="135.62" y="-61" font-family="Helvetica,sans-Serif" font-size="10.00">/loc_map/data_structures.hpp</text>
</a>
</g>
</g>
<!-- Node2 -->
<g id="Node000002" class="node">
<title>Node2</title>
<g id="a_Node000002"><a xlink:title=" ">
<polygon fill="#e0e0e0" stroke="#999999" points="45.25,-19.25 0,-19.25 0,0 45.25,0 45.25,-19.25"/>
<text text-anchor="middle" x="22.62" y="-5.75" font-family="Helvetica,sans-Serif" font-size="10.00">chrono</text>
</a>
</g>
</g>
<!-- Node1&#45;&gt;Node2 -->
<g id="edge1_Node000001_Node000002" class="edge">
<title>Node1&#45;&gt;Node2</title>
<g id="a_edge1_Node000001_Node000002"><a xlink:title=" ">
<path fill="none" stroke="#63b8ff" d="M107.4,-54.8C89.86,-45.66 67.42,-33.97 50.04,-24.91"/>
<polygon fill="#63b8ff" stroke="#63b8ff" points="51.78,-21.87 41.3,-20.35 48.55,-28.08 51.78,-21.87"/>
</a>
</g>
</g>
<!-- Node3 -->
<g id="Node000003" class="node">
<title>Node3</title>
<g id="a_Node000003"><a xlink:title=" ">
<polygon fill="#e0e0e0" stroke="#999999" points="98,-19.25 63.25,-19.25 63.25,0 98,0 98,-19.25"/>
<text text-anchor="middle" x="80.62" y="-5.75" font-family="Helvetica,sans-Serif" font-size="10.00">map</text>
</a>
</g>
</g>
<!-- Node1&#45;&gt;Node3 -->
<g id="edge2_Node000001_Node000003" class="edge">
<title>Node1&#45;&gt;Node3</title>
<g id="a_edge2_Node000001_Node000003"><a xlink:title=" ">
<path fill="none" stroke="#63b8ff" d="M122.03,-54.95C114.38,-46.76 104.78,-36.48 96.75,-27.89"/>
<polygon fill="#63b8ff" stroke="#63b8ff" points="99.52,-25.73 90.14,-20.81 94.41,-30.5 99.52,-25.73"/>
</a>
</g>
</g>
<!-- Node4 -->
<g id="Node000004" class="node">
<title>Node4</title>
<g id="a_Node000004"><a xlink:title=" ">
<polygon fill="#e0e0e0" stroke="#999999" points="155.62,-19.25 115.62,-19.25 115.62,0 155.62,0 155.62,-19.25"/>
<text text-anchor="middle" x="135.62" y="-5.75" font-family="Helvetica,sans-Serif" font-size="10.00">string</text>
</a>
</g>
</g>
<!-- Node1&#45;&gt;Node4 -->
<g id="edge3_Node000001_Node000004" class="edge">
<title>Node1&#45;&gt;Node4</title>
<g id="a_edge3_Node000001_Node000004"><a xlink:title=" ">
<path fill="none" stroke="#63b8ff" d="M135.62,-54.95C135.62,-47.71 135.62,-38.84 135.62,-30.94"/>
<polygon fill="#63b8ff" stroke="#63b8ff" points="139.13,-31.21 135.63,-21.21 132.13,-31.21 139.13,-31.21"/>
</a>
</g>
</g>
<!-- Node5 -->
<g id="Node000005" class="node">
<title>Node5</title>
<g id="a_Node000005"><a xlink:title=" ">
<polygon fill="#e0e0e0" stroke="#999999" points="249.62,-19.25 173.62,-19.25 173.62,0 249.62,0 249.62,-19.25"/>
<text text-anchor="middle" x="211.62" y="-5.75" font-family="Helvetica,sans-Serif" font-size="10.00">utils/color.hpp</text>
</a>
</g>
</g>
<!-- Node1&#45;&gt;Node5 -->
<g id="edge4_Node000001_Node000005" class="edge">
<title>Node1&#45;&gt;Node5</title>
<g id="a_edge4_Node000001_Node000005"><a xlink:title=" ">
<path fill="none" stroke="#63b8ff" d="M154.41,-54.95C165.54,-46.33 179.65,-35.4 191.07,-26.55"/>
<polygon fill="#63b8ff" stroke="#63b8ff" points="192.95,-29.52 198.71,-20.63 188.66,-23.99 192.95,-29.52"/>
</a>
</g>
</g>
<!-- Node6 -->
<g id="Node000006" class="node">
<title>Node6</title>
<g id="a_Node000006"><a xlink:title=" ">
<polygon fill="#e0e0e0" stroke="#999999" points="356,-19.25 267.25,-19.25 267.25,0 356,0 356,-19.25"/>
<text text-anchor="middle" x="311.62" y="-5.75" font-family="Helvetica,sans-Serif" font-size="10.00">utils/position.hpp</text>
</a>
</g>
</g>
<!-- Node1&#45;&gt;Node6 -->
<g id="edge5_Node000001_Node000006" class="edge">
<title>Node1&#45;&gt;Node6</title>
<g id="a_edge5_Node000001_Node000006"><a xlink:title=" ">
<path fill="none" stroke="#63b8ff" d="M179.58,-54.8C208.49,-45.13 245.93,-32.6 273.56,-23.36"/>
<polygon fill="#63b8ff" stroke="#63b8ff" points="274.57,-26.71 282.94,-20.22 272.35,-20.07 274.57,-26.71"/>
</a>
</g>
</g>
</g>
</svg>
