<?xml version="1.0" encoding="UTF-8" standalone="no"?>
<!DOCTYPE svg PUBLIC "-//W3C//DTD SVG 1.1//EN"
 "http://www.w3.org/Graphics/SVG/1.1/DTD/svg11.dtd">
<!-- Generated by graphviz version 9.0.0 (20230911.1827)
 -->
<!-- Title: src Pages: 1 -->
<!--zoomable 59 -->

<svg id="main" version="1.1" xmlns="http://www.w3.org/2000/svg" xmlns:xlink="http://www.w3.org/1999/xlink" xml:space="preserve" onload="init(evt)">
<style type="text/css"><![CDATA[
.node, .edge {opacity: 0.7;}
.node.selected, .edge.selected {opacity: 1;}
.edge:hover path { stroke: red; }
.edge:hover polygon { stroke: red; fill: red; }
]]></style>

<defs>
  <circle id="rim" cx="0" cy="0" r="7"/>
  <circle id="rim2" cx="0" cy="0" r="3.5"/>
  <g id="zoomPlus">
    <use xlink:href="#rim" fill="#404040"><set attributeName="fill" to="#808080" begin="zoomplus.mouseover" end="zoomplus.mouseout"/></use>
    <path d="M-4,0h8M0,-4v8" fill="none" stroke="white" stroke-width="1.5" pointer-events="none"/>
  </g>
  <g id="zoomMin">
    <use xlink:href="#rim" fill="#404040"><set attributeName="fill" to="#808080" begin="zoomminus.mouseover" end="zoomminus.mouseout"/></use>
    <path d="M-4,0h8" fill="none" stroke="white" stroke-width="1.5" pointer-events="none"/>
  </g>
  <g id="arrowUp" transform="translate(30 24)">
    <use xlink:href="#rim"/>
    <path pointer-events="none" fill="none" stroke="white" stroke-width="1.5" d="M0,-3.0v7 M-2.5,-0.5L0,-3.0L2.5,-0.5"/>
  </g>
  <g id="arrowRight" transform="rotate(90) translate(36 -43)">
    <use xlink:href="#rim"/>
    <path pointer-events="none" fill="none" stroke="white" stroke-width="1.5" d="M0,-3.0v7 M-2.5,-0.5L0,-3.0L2.5,-0.5"/>
  </g>
  <g id="arrowDown" transform="rotate(180) translate(-30 -48)">
    <use xlink:href="#rim"/>
    <path pointer-events="none" fill="none" stroke="white" stroke-width="1.5" d="M0,-3.0v7 M-2.5,-0.5L0,-3.0L2.5,-0.5"/>
  </g>
  <g id="arrowLeft" transform="rotate(270) translate(-36 17)">
    <use xlink:href="#rim"/>
    <path pointer-events="none" fill="none" stroke="white" stroke-width="1.5" d="M0,-3.0v7 M-2.5,-0.5L0,-3.0L2.5,-0.5"/>
  </g>
  <g id="resetDef">
    <use xlink:href="#rim2" fill="#404040"><set attributeName="fill" to="#808080" begin="reset.mouseover" end="reset.mouseout"/></use>
  </g>
</defs>
<script type="application/ecmascript">
var viewWidth = 646;
var viewHeight = 59;
var sectionId = 'dynsection-0';
</script>
<script type="application/ecmascript" xlink:href="svg.min.js"/>
<svg id="graph" class="graph">
<g id="viewport">
<title>src</title>
<g id="clust1" class="cluster">
<title>clusterdir_68267d1309a1af8e8297ef4c3efbcdba</title>
<g id="a_clust1"><a xlink:href="dir_68267d1309a1af8e8297ef4c3efbcdba.html" target="_top">
<polygon fill="#edf0f7" stroke="#404040" stroke-width="2" points="8,-8 8,-43.25 630,-43.25 630,-8 8,-8"/>
</a>
</g>
</g>
<!-- dir_68267d1309a1af8e8297ef4c3efbcdba -->
<g id="node1" class="node">
<title>dir_68267d1309a1af8e8297ef4c3efbcdba</title>
<text text-anchor="middle" x="607" y="-21.75" font-family="Helvetica,sans-Serif" font-size="10.00">src</text>
</g>
<!-- dir_502294da55662525e2d6521608bb358d -->
<g id="node2" class="node">
<title>dir_502294da55662525e2d6521608bb358d</title>
<g id="a_node2"><a xlink:href="dir_502294da55662525e2d6521608bb358d.html" target="_top" xlink:title="eufs_msgs">
<polygon fill="#a2b4d6" stroke="#404040" points="574,-35.25 510,-35.25 510,-16 574,-16 574,-35.25"/>
<text text-anchor="middle" x="542" y="-21.75" font-family="Helvetica,sans-Serif" font-size="10.00">eufs_msgs</text>
</a>
</g>
</g>
<!-- dir_d48a6269b511907fa1a01c3687301c1a -->
<g id="node3" class="node">
<title>dir_d48a6269b511907fa1a01c3687301c1a</title>
<g id="a_node3"><a xlink:href="dir_d48a6269b511907fa1a01c3687301c1a.html" target="_top" xlink:title="launch">
<polygon fill="#a2b4d6" stroke="#404040" points="492.25,-35.25 447.75,-35.25 447.75,-16 492.25,-16 492.25,-35.25"/>
<text text-anchor="middle" x="470" y="-21.75" font-family="Helvetica,sans-Serif" font-size="10.00">launch</text>
</a>
</g>
</g>
<!-- dir_26369d20db5a751ace0a0d425b94d5ef -->
<g id="node4" class="node">
<title>dir_26369d20db5a751ace0a0d425b94d5ef</title>
<g id="a_node4"><a xlink:href="dir_26369d20db5a751ace0a0d425b94d5ef.html" target="_top" xlink:title="loc_map">
<polygon fill="#a2b4d6" stroke="#404040" points="429.38,-35.25 376.62,-35.25 376.62,-16 429.38,-16 429.38,-35.25"/>
<text text-anchor="middle" x="403" y="-21.75" font-family="Helvetica,sans-Serif" font-size="10.00">loc_map</text>
</a>
</g>
</g>
<!-- dir_88127d26a19abc5b6c226ed786071d17 -->
<g id="node5" class="node">
<title>dir_88127d26a19abc5b6c226ed786071d17</title>
<g id="a_node5"><a xlink:href="dir_88127d26a19abc5b6c226ed786071d17.html" target="_top" xlink:title="long_control">
<polygon fill="#a2b4d6" stroke="#404040" points="358.25,-35.25 289.75,-35.25 289.75,-16 358.25,-16 358.25,-35.25"/>
<text text-anchor="middle" x="324" y="-21.75" font-family="Helvetica,sans-Serif" font-size="10.00">long_control</text>
</a>
</g>
</g>
<!-- dir_346c2aea098094a6f11a0f66feef12e0 -->
<g id="node6" class="node">
<title>dir_346c2aea098094a6f11a0f66feef12e0</title>
<g id="a_node6"><a xlink:href="dir_346c2aea098094a6f11a0f66feef12e0.html" target="_top" xlink:title="perception">
<polygon fill="#a2b4d6" stroke="#404040" points="271.5,-35.25 210.5,-35.25 210.5,-16 271.5,-16 271.5,-35.25"/>
<text text-anchor="middle" x="241" y="-21.75" font-family="Helvetica,sans-Serif" font-size="10.00">perception</text>
</a>
</g>
</g>
<!-- dir_46b0e589fccff8619305fc89ea463298 -->
<g id="node7" class="node">
<title>dir_46b0e589fccff8619305fc89ea463298</title>
<g id="a_node7"><a xlink:href="dir_46b0e589fccff8619305fc89ea463298.html" target="_top" xlink:title="planning">
<polygon fill="#a2b4d6" stroke="#404040" points="192,-35.25 140,-35.25 140,-16 192,-16 192,-35.25"/>
<text text-anchor="middle" x="166" y="-21.75" font-family="Helvetica,sans-Serif" font-size="10.00">planning</text>
</a>
</g>
</g>
<!-- dir_ef4dae35c7e00efe791f1e9a4c0d9001 -->
<g id="node8" class="node">
<title>dir_ef4dae35c7e00efe791f1e9a4c0d9001</title>
<g id="a_node8"><a xlink:href="dir_ef4dae35c7e00efe791f1e9a4c0d9001.html" target="_top" xlink:title="plots">
<polygon fill="#a2b4d6" stroke="#404040" points="121.5,-35.25 84.5,-35.25 84.5,-16 121.5,-16 121.5,-35.25"/>
<text text-anchor="middle" x="103" y="-21.75" font-family="Helvetica,sans-Serif" font-size="10.00">plots</text>
</a>
</g>
</g>
<!-- dir_a8f06869367e35f79f1fe1bcf45892c1 -->
<g id="node9" class="node">
<title>dir_a8f06869367e35f79f1fe1bcf45892c1</title>
<g id="a_node9"><a xlink:href="dir_a8f06869367e35f79f1fe1bcf45892c1.html" target="_top" xlink:title="ros_can">
<polygon fill="#a2b4d6" stroke="#404040" points="66.25,-35.25 15.75,-35.25 15.75,-16 66.25,-16 66.25,-35.25"/>
<text text-anchor="middle" x="41" y="-21.75" font-family="Helvetica,sans-Serif" font-size="10.00">ros_can</text>
</a>
</g>
</g>
</g>
</svg>

<g id="navigator" transform="translate(0 0)" fill="#404254">
  <rect fill="#f2f5e9" fill-opacity="0.5" stroke="#606060" stroke-width=".5" x="0" y="0" width="60" height="60"/>
  <use id="zoomplus" xlink:href="#zoomPlus" x="17" y="9" onmousedown="handleZoom(evt,'in')"/>
  <use id="zoomminus" xlink:href="#zoomMin" x="42" y="9" onmousedown="handleZoom(evt,'out')"/>
  <use id="reset" xlink:href="#resetDef" x="30" y="36" onmousedown="handleReset()"/>
   <use id="arrowup" xlink:href="#arrowUp" x="0" y="0" onmousedown="handlePan(0,-1)"/>
  <use id="arrowright" xlink:href="#arrowRight" x="0" y="0" onmousedown="handlePan(1,0)"/>
  <use id="arrowdown" xlink:href="#arrowDown" x="0" y="0" onmousedown="handlePan(0,1)"/>
  <use id="arrowleft" xlink:href="#arrowLeft" x="0" y="0" onmousedown="handlePan(-1,0)"/>
</g>
<svg viewBox="0 0 15 15" width="100%" height="30px" preserveAspectRatio="xMaxYMin meet">
 <g id="arrow_out" transform="scale(0.3 0.3)">
  <a xlink:href="dir_68267d1309a1af8e8297ef4c3efbcdba_dep_org.svg" target="_base">
   <rect id="button" ry="5" rx="5" y="6" x="6" height="38" width="38"
        fill="#f2f5e9" fill-opacity="0.5" stroke="#606060" stroke-width="1.0"/>
   <path id="arrow"
     d="M 11.500037,31.436501 C 11.940474,20.09759 22.043105,11.32322 32.158766,21.979434 L 37.068811,17.246167 C 37.068811,17.246167 37.088388,32 37.088388,32 L 22.160133,31.978069 C 22.160133,31.978069 26.997745,27.140456 26.997745,27.140456 C 18.528582,18.264221 13.291696,25.230495 11.500037,31.436501 z"
     style="fill:#404040;"/>
  </a>
 </g>
</svg>

<style type='text/css'>
<![CDATA[
[data-mouse-over-selected='false'] { opacity: 0.7; }
[data-mouse-over-selected='true']  { opacity: 1.0; }
]]>
</style>
<script type="application/ecmascript"><![CDATA[
document.addEventListener('DOMContentLoaded', (event) => {
  highlightEdges();
  highlightAdjacentNodes();
});
]]></script>
</svg>
