<?xml version="1.0" encoding="UTF-8" standalone="no"?>
<!DOCTYPE svg PUBLIC "-//W3C//DTD SVG 1.1//EN"
 "http://www.w3.org/Graphics/SVG/1.1/DTD/svg11.dtd">
<!-- Generated by graphviz version 9.0.0 (20230911.1827)
 -->
<!-- Title: src/loc_map/src Pages: 1 -->
<svg width="364pt" height="142pt"
 viewBox="0.00 0.00 364.00 141.75" xmlns="http://www.w3.org/2000/svg" xmlns:xlink="http://www.w3.org/1999/xlink">
<g id="graph0" class="graph" transform="scale(1 1) rotate(0) translate(4 137.75)">
<title>src/loc_map/src</title>
<g id="clust1" class="cluster">
<title>clusterdir_26369d20db5a751ace0a0d425b94d5ef</title>
<g id="a_clust1"><a xlink:href="dir_26369d20db5a751ace0a0d425b94d5ef.html" target="_top" xlink:title="loc_map">
<polygon fill="#edf0f7" stroke="#7f7f7f" stroke-dasharray="5,2" points="8,-8 8,-125.75 348,-125.75 348,-8 8,-8"/>
<text text-anchor="middle" x="178" y="-112.25" font-family="Helvetica,sans-Serif" font-size="10.00">loc_map</text>
</a>
</g>
</g>
<g id="clust2" class="cluster">
<title>clusterdir_e9c419635c4d7f29fee2090ace292e4d</title>
<g id="a_clust2"><a xlink:href="dir_e9c419635c4d7f29fee2090ace292e4d.html" target="_top">
<polygon fill="#edf0f7" stroke="#404040" stroke-width="2" points="16,-63.25 16,-98.5 340,-98.5 340,-63.25 16,-63.25"/>
</a>
</g>
</g>
<!-- dir_1fc1acda3f427a40c2d1195cbc9039bf -->
<g id="node1" class="node">
<title>dir_1fc1acda3f427a40c2d1195cbc9039bf</title>
<g id="a_node1"><a xlink:href="dir_1fc1acda3f427a40c2d1195cbc9039bf.html" target="_top" xlink:title="include">
<polygon fill="#a2b4d6" stroke="red" points="165.38,-35.25 118.62,-35.25 118.62,-16 165.38,-16 165.38,-35.25"/>
<text text-anchor="middle" x="142" y="-21.75" font-family="Helvetica,sans-Serif" font-size="10.00">include</text>
</a>
</g>
</g>
<!-- dir_e9c419635c4d7f29fee2090ace292e4d -->
<g id="node2" class="node">
<title>dir_e9c419635c4d7f29fee2090ace292e4d</title>
<text text-anchor="middle" x="317" y="-77" font-family="Helvetica,sans-Serif" font-size="10.00">src</text>
</g>
<!-- dir_e9c419635c4d7f29fee2090ace292e4d&#45;&gt;dir_1fc1acda3f427a40c2d1195cbc9039bf -->
<g id="edge1" class="edge">
<title>dir_e9c419635c4d7f29fee2090ace292e4d&#45;&gt;dir_1fc1acda3f427a40c2d1195cbc9039bf</title>
<g id="a_edge1"><a xlink:href="dir_000040_000011.html" target="_top">
<path fill="none" stroke="#63b8ff" d="M306.75,-71.53C302.67,-68.56 297.81,-65.41 293,-63.25 255.14,-46.26 208.25,-36.46 176.86,-31.35"/>
<polygon fill="#63b8ff" stroke="#63b8ff" points="177.55,-27.91 167.13,-29.84 176.48,-34.83 177.55,-27.91"/>
</a>
</g>
<g id="a_edge1&#45;headlabel"><a xlink:href="dir_000040_000011.html" target="_top" xlink:title="10">
<text text-anchor="middle" x="180.04" y="-21.55" font-family="Helvetica,sans-Serif" font-size="10.00" fill="#63b8ff">10</text>
</a>
</g>
</g>
<!-- dir_254c3f897a660ceeb80c5734d0706e57 -->
<g id="node3" class="node">
<title>dir_254c3f897a660ceeb80c5734d0706e57</title>
<g id="a_node3"><a xlink:href="dir_254c3f897a660ceeb80c5734d0706e57.html" target="_top" xlink:title="adapter">
<polygon fill="#a2b4d6" stroke="#404040" points="284.12,-90.5 235.88,-90.5 235.88,-71.25 284.12,-71.25 284.12,-90.5"/>
<text text-anchor="middle" x="260" y="-77" font-family="Helvetica,sans-Serif" font-size="10.00">adapter</text>
</a>
</g>
</g>
<!-- dir_c6f2963aab6d0484e663dc4d305ae795 -->
<g id="node4" class="node">
<title>dir_c6f2963aab6d0484e663dc4d305ae795</title>
<g id="a_node4"><a xlink:href="dir_c6f2963aab6d0484e663dc4d305ae795.html" target="_top" xlink:title="kalman_filter">
<polygon fill="#a2b4d6" stroke="#404040" points="217.38,-90.5 146.62,-90.5 146.62,-71.25 217.38,-71.25 217.38,-90.5"/>
<text text-anchor="middle" x="182" y="-77" font-family="Helvetica,sans-Serif" font-size="10.00">kalman_filter</text>
</a>
</g>
</g>
<!-- dir_c6f2963aab6d0484e663dc4d305ae795&#45;&gt;dir_1fc1acda3f427a40c2d1195cbc9039bf -->
<g id="edge2" class="edge">
<title>dir_c6f2963aab6d0484e663dc4d305ae795&#45;&gt;dir_1fc1acda3f427a40c2d1195cbc9039bf</title>
<g id="a_edge2"><a xlink:href="dir_000017_000011.html" target="_top">
<path fill="none" stroke="#63b8ff" d="M175.39,-71.08C170.04,-63.96 162.32,-53.68 155.65,-44.8"/>
<polygon fill="#63b8ff" stroke="#63b8ff" points="158.46,-42.71 149.66,-36.82 152.87,-46.92 158.46,-42.71"/>
</a>
</g>
<g id="a_edge2&#45;headlabel"><a xlink:href="dir_000017_000011.html" target="_top" xlink:title="5">
<text text-anchor="middle" x="161.98" y="-38.8" font-family="Helvetica,sans-Serif" font-size="10.00" fill="#63b8ff">5</text>
</a>
</g>
</g>
<!-- dir_246c214c40a9489b8951c0961572ebe8 -->
<g id="node5" class="node">
<title>dir_246c214c40a9489b8951c0961572ebe8</title>
<g id="a_node5"><a xlink:href="dir_246c214c40a9489b8951c0961572ebe8.html" target="_top" xlink:title="loc_map">
<polygon fill="#a2b4d6" stroke="#404040" points="128.38,-90.5 75.62,-90.5 75.62,-71.25 128.38,-71.25 128.38,-90.5"/>
<text text-anchor="middle" x="102" y="-77" font-family="Helvetica,sans-Serif" font-size="10.00">loc_map</text>
</a>
</g>
</g>
<!-- dir_246c214c40a9489b8951c0961572ebe8&#45;&gt;dir_1fc1acda3f427a40c2d1195cbc9039bf -->
<g id="edge3" class="edge">
<title>dir_246c214c40a9489b8951c0961572ebe8&#45;&gt;dir_1fc1acda3f427a40c2d1195cbc9039bf</title>
<g id="a_edge3"><a xlink:href="dir_000022_000011.html" target="_top">
<path fill="none" stroke="#63b8ff" d="M108.61,-71.08C113.96,-63.96 121.68,-53.68 128.35,-44.8"/>
<polygon fill="#63b8ff" stroke="#63b8ff" points="131.13,-46.92 134.34,-36.82 125.54,-42.71 131.13,-46.92"/>
</a>
</g>
<g id="a_edge3&#45;headlabel"><a xlink:href="dir_000022_000011.html" target="_top" xlink:title="3">
<text text-anchor="middle" x="132.15" y="-46.41" font-family="Helvetica,sans-Serif" font-size="10.00" fill="#63b8ff">3</text>
</a>
</g>
</g>
<!-- dir_afee708eafb02edac1ba11fdcef982f0 -->
<g id="node6" class="node">
<title>dir_afee708eafb02edac1ba11fdcef982f0</title>
<g id="a_node6"><a xlink:href="dir_afee708eafb02edac1ba11fdcef982f0.html" target="_top" xlink:title="utils">
<polygon fill="#a2b4d6" stroke="#404040" points="58,-90.5 24,-90.5 24,-71.25 58,-71.25 58,-90.5"/>
<text text-anchor="middle" x="41" y="-77" font-family="Helvetica,sans-Serif" font-size="10.00">utils</text>
</a>
</g>
</g>
<!-- dir_afee708eafb02edac1ba11fdcef982f0&#45;&gt;dir_1fc1acda3f427a40c2d1195cbc9039bf -->
<g id="edge4" class="edge">
<title>dir_afee708eafb02edac1ba11fdcef982f0&#45;&gt;dir_1fc1acda3f427a40c2d1195cbc9039bf</title>
<g id="a_edge4"><a xlink:href="dir_000051_000011.html" target="_top">
<path fill="none" stroke="#63b8ff" d="M54.58,-70.78C58.53,-68.24 62.89,-65.56 67,-63.25 81.36,-55.19 97.74,-47.07 111.53,-40.53"/>
<polygon fill="#63b8ff" stroke="#63b8ff" points="113,-43.71 120.57,-36.3 110.03,-37.37 113,-43.71"/>
</a>
</g>
<g id="a_edge4&#45;headlabel"><a xlink:href="dir_000051_000011.html" target="_top" xlink:title="1">
<text text-anchor="middle" x="112.32" y="-43.29" font-family="Helvetica,sans-Serif" font-size="10.00" fill="#63b8ff">1</text>
</a>
</g>
</g>
</g>
</svg>
