<?xml version="1.0" encoding="UTF-8" standalone="no"?>
<!DOCTYPE svg PUBLIC "-//W3C//DTD SVG 1.1//EN"
 "http://www.w3.org/Graphics/SVG/1.1/DTD/svg11.dtd">
<!-- Generated by graphviz version 9.0.0 (20230911.1827)
 -->
<!-- Title: src/planning/planning/src Pages: 1 -->
<svg width="374pt" height="142pt"
 viewBox="0.00 0.00 374.00 141.75" xmlns="http://www.w3.org/2000/svg" xmlns:xlink="http://www.w3.org/1999/xlink">
<g id="graph0" class="graph" transform="scale(1 1) rotate(0) translate(4 137.75)">
<title>src/planning/planning/src</title>
<g id="clust1" class="cluster">
<title>clusterdir_ea581a7c20c42fb120be606ae70c23cf</title>
<g id="a_clust1"><a xlink:href="dir_ea581a7c20c42fb120be606ae70c23cf.html" target="_top" xlink:title="planning">
<polygon fill="#edf0f7" stroke="#7f7f7f" stroke-dasharray="5,2" points="8,-8 8,-125.75 358,-125.75 358,-8 8,-8"/>
<text text-anchor="middle" x="183" y="-112.25" font-family="Helvetica,sans-Serif" font-size="10.00">planning</text>
</a>
</g>
</g>
<g id="clust2" class="cluster">
<title>clusterdir_976d7328e1b7e976cadda67defa51d6e</title>
<g id="a_clust2"><a xlink:href="dir_976d7328e1b7e976cadda67defa51d6e.html" target="_top">
<polygon fill="#edf0f7" stroke="#404040" stroke-width="2" points="16,-63.25 16,-98.5 350,-98.5 350,-63.25 16,-63.25"/>
</a>
</g>
</g>
<!-- dir_f489571871df2b16215e5440737a40fb -->
<g id="node1" class="node">
<title>dir_f489571871df2b16215e5440737a40fb</title>
<g id="a_node1"><a xlink:href="dir_f489571871df2b16215e5440737a40fb.html" target="_top" xlink:title="include">
<polygon fill="#a2b4d6" stroke="red" points="209.38,-35.25 162.62,-35.25 162.62,-16 209.38,-16 209.38,-35.25"/>
<text text-anchor="middle" x="186" y="-21.75" font-family="Helvetica,sans-Serif" font-size="10.00">include</text>
</a>
</g>
</g>
<!-- dir_976d7328e1b7e976cadda67defa51d6e -->
<g id="node2" class="node">
<title>dir_976d7328e1b7e976cadda67defa51d6e</title>
<text text-anchor="middle" x="327" y="-77" font-family="Helvetica,sans-Serif" font-size="10.00">src</text>
</g>
<!-- dir_976d7328e1b7e976cadda67defa51d6e&#45;&gt;dir_f489571871df2b16215e5440737a40fb -->
<g id="edge1" class="edge">
<title>dir_976d7328e1b7e976cadda67defa51d6e&#45;&gt;dir_f489571871df2b16215e5440737a40fb</title>
<g id="a_edge1"><a xlink:href="dir_000043_000014.html" target="_top">
<path fill="none" stroke="#63b8ff" d="M316.2,-71.36C312.21,-68.5 307.55,-65.48 303,-63.25 276.54,-50.32 244.51,-40.67 220.65,-34.53"/>
<polygon fill="#63b8ff" stroke="#63b8ff" points="221.68,-31.18 211.13,-32.16 219.99,-37.97 221.68,-31.18"/>
</a>
</g>
<g id="a_edge1&#45;headlabel"><a xlink:href="dir_000043_000014.html" target="_top" xlink:title="12">
<text text-anchor="middle" x="224.38" y="-25.05" font-family="Helvetica,sans-Serif" font-size="10.00" fill="#63b8ff">12</text>
</a>
</g>
</g>
<!-- dir_100c00a85ad4a2d590fa7e521f016520 -->
<g id="node3" class="node">
<title>dir_100c00a85ad4a2d590fa7e521f016520</title>
<g id="a_node3"><a xlink:href="dir_100c00a85ad4a2d590fa7e521f016520.html" target="_top" xlink:title="adapter">
<polygon fill="#a2b4d6" stroke="#404040" points="294.12,-90.5 245.88,-90.5 245.88,-71.25 294.12,-71.25 294.12,-90.5"/>
<text text-anchor="middle" x="270" y="-77" font-family="Helvetica,sans-Serif" font-size="10.00">adapter</text>
</a>
</g>
</g>
<!-- dir_100c00a85ad4a2d590fa7e521f016520&#45;&gt;dir_f489571871df2b16215e5440737a40fb -->
<g id="edge2" class="edge">
<title>dir_100c00a85ad4a2d590fa7e521f016520&#45;&gt;dir_f489571871df2b16215e5440737a40fb</title>
<g id="a_edge2"><a xlink:href="dir_000003_000014.html" target="_top">
<path fill="none" stroke="#63b8ff" d="M255.75,-70.84C243.2,-62.89 224.67,-51.14 209.86,-41.75"/>
<polygon fill="#63b8ff" stroke="#63b8ff" points="211.92,-38.91 201.6,-36.51 208.17,-44.82 211.92,-38.91"/>
</a>
</g>
<g id="a_edge2&#45;headlabel"><a xlink:href="dir_000003_000014.html" target="_top" xlink:title="1">
<text text-anchor="middle" x="215.2" y="-33.75" font-family="Helvetica,sans-Serif" font-size="10.00" fill="#63b8ff">1</text>
</a>
</g>
</g>
<!-- dir_04a4625ad2e69dcc2a00d4a464018aa7 -->
<g id="node4" class="node">
<title>dir_04a4625ad2e69dcc2a00d4a464018aa7</title>
<g id="a_node4"><a xlink:href="dir_04a4625ad2e69dcc2a00d4a464018aa7.html" target="_top" xlink:title="communication">
<polygon fill="#a2b4d6" stroke="#404040" points="228,-90.5 146,-90.5 146,-71.25 228,-71.25 228,-90.5"/>
<text text-anchor="middle" x="187" y="-77" font-family="Helvetica,sans-Serif" font-size="10.00">communication</text>
</a>
</g>
</g>
<!-- dir_ea508a7b371c866a420f21e0de25bac2 -->
<g id="node5" class="node">
<title>dir_ea508a7b371c866a420f21e0de25bac2</title>
<g id="a_node5"><a xlink:href="dir_ea508a7b371c866a420f21e0de25bac2.html" target="_top" xlink:title="planning">
<polygon fill="#a2b4d6" stroke="#404040" points="128,-90.5 76,-90.5 76,-71.25 128,-71.25 128,-90.5"/>
<text text-anchor="middle" x="102" y="-77" font-family="Helvetica,sans-Serif" font-size="10.00">planning</text>
</a>
</g>
</g>
<!-- dir_ea508a7b371c866a420f21e0de25bac2&#45;&gt;dir_f489571871df2b16215e5440737a40fb -->
<g id="edge3" class="edge">
<title>dir_ea508a7b371c866a420f21e0de25bac2&#45;&gt;dir_f489571871df2b16215e5440737a40fb</title>
<g id="a_edge3"><a xlink:href="dir_000034_000014.html" target="_top">
<path fill="none" stroke="#63b8ff" d="M116.25,-70.84C128.8,-62.89 147.33,-51.14 162.14,-41.75"/>
<polygon fill="#63b8ff" stroke="#63b8ff" points="163.83,-44.82 170.4,-36.51 160.08,-38.91 163.83,-44.82"/>
</a>
</g>
<g id="a_edge3&#45;headlabel"><a xlink:href="dir_000034_000014.html" target="_top" xlink:title="7">
<text text-anchor="middle" x="163.59" y="-44.46" font-family="Helvetica,sans-Serif" font-size="10.00" fill="#63b8ff">7</text>
</a>
</g>
</g>
<!-- dir_839a85dd450180b3e687caa1c80fbf2c -->
<g id="node6" class="node">
<title>dir_839a85dd450180b3e687caa1c80fbf2c</title>
<g id="a_node6"><a xlink:href="dir_839a85dd450180b3e687caa1c80fbf2c.html" target="_top" xlink:title="utils">
<polygon fill="#a2b4d6" stroke="#404040" points="58,-90.5 24,-90.5 24,-71.25 58,-71.25 58,-90.5"/>
<text text-anchor="middle" x="41" y="-77" font-family="Helvetica,sans-Serif" font-size="10.00">utils</text>
</a>
</g>
</g>
<!-- dir_839a85dd450180b3e687caa1c80fbf2c&#45;&gt;dir_f489571871df2b16215e5440737a40fb -->
<g id="edge4" class="edge">
<title>dir_839a85dd450180b3e687caa1c80fbf2c&#45;&gt;dir_f489571871df2b16215e5440737a40fb</title>
<g id="a_edge4"><a xlink:href="dir_000053_000014.html" target="_top">
<path fill="none" stroke="#63b8ff" d="M53.57,-70.87C57.71,-68.17 62.43,-65.37 67,-63.25 94.31,-50.6 127.11,-40.88 151.35,-34.64"/>
<polygon fill="#63b8ff" stroke="#63b8ff" points="152.18,-38.04 161.03,-32.23 150.48,-31.25 152.18,-38.04"/>
</a>
</g>
<g id="a_edge4&#45;headlabel"><a xlink:href="dir_000053_000014.html" target="_top" xlink:title="3">
<text text-anchor="middle" x="150.84" y="-37.42" font-family="Helvetica,sans-Serif" font-size="10.00" fill="#63b8ff">3</text>
</a>
</g>
</g>
</g>
</svg>
