<?xml version="1.0" encoding="UTF-8" standalone="no"?>
<!DOCTYPE svg PUBLIC "-//W3C//DTD SVG 1.1//EN"
 "http://www.w3.org/Graphics/SVG/1.1/DTD/svg11.dtd">
<!-- Generated by graphviz version 9.0.0 (20230911.1827)
 -->
<!-- Title: src/loc_map/src/kalman_filter/ekf.cpp Pages: 1 -->
<svg width="596pt" height="271pt"
 viewBox="0.00 0.00 596.25 270.75" xmlns="http://www.w3.org/2000/svg" xmlns:xlink="http://www.w3.org/1999/xlink">
<g id="graph0" class="graph" transform="scale(1 1) rotate(0) translate(4 266.75)">
<title>src/loc_map/src/kalman_filter/ekf.cpp</title>
<!-- Node1 -->
<g id="Node000001" class="node">
<title>Node1</title>
<g id="a_Node000001"><a xlink:title=" ">
<polygon fill="#999999" stroke="#666666" points="458.63,-262.75 338.38,-262.75 338.38,-232.25 458.63,-232.25 458.63,-262.75"/>
<text text-anchor="start" x="346.38" y="-249.25" font-family="Helvetica,sans-Serif" font-size="10.00">src/loc_map/src/kalman</text>
<text text-anchor="middle" x="398.5" y="-238" font-family="Helvetica,sans-Serif" font-size="10.00">_filter/ekf.cpp</text>
</a>
</g>
</g>
<!-- Node2 -->
<g id="Node000002" class="node">
<title>Node2</title>
<g id="a_Node000002"><a xlink:href="ekf_8hpp.html" target="_top" xlink:title=" ">
<polygon fill="white" stroke="#666666" points="312.13,-196.25 206.88,-196.25 206.88,-177 312.13,-177 312.13,-196.25"/>
<text text-anchor="middle" x="259.5" y="-182.75" font-family="Helvetica,sans-Serif" font-size="10.00">kalman_filter/ekf.hpp</text>
</a>
</g>
</g>
<!-- Node1&#45;&gt;Node2 -->
<g id="edge1_Node000001_Node000002" class="edge">
<title>Node1&#45;&gt;Node2</title>
<g id="a_edge1_Node000001_Node000002"><a xlink:title=" ">
<path fill="none" stroke="#63b8ff" d="M363.79,-231.8C341.5,-222.35 312.78,-210.19 291.13,-201.02"/>
<polygon fill="#63b8ff" stroke="#63b8ff" points="292.79,-197.92 282.21,-197.24 290.06,-204.37 292.79,-197.92"/>
</a>
</g>
</g>
<!-- Node3 -->
<g id="Node000003" class="node">
<title>Node3</title>
<g id="a_Node000003"><a xlink:title=" ">
<polygon fill="#e0e0e0" stroke="#999999" points="71.88,-74.5 1.13,-74.5 1.13,-55.25 71.88,-55.25 71.88,-74.5"/>
<text text-anchor="middle" x="36.5" y="-61" font-family="Helvetica,sans-Serif" font-size="10.00">Eigen/Dense</text>
</a>
</g>
</g>
<!-- Node1&#45;&gt;Node3 -->
<g id="edge16_Node000001_Node000003" class="edge">
<title>Node1&#45;&gt;Node3</title>
<g id="a_edge16_Node000001_Node000003"><a xlink:title=" ">
<path fill="none" stroke="#63b8ff" d="M338.1,-239.3C238.15,-226 45.39,-193.98 5.5,-141 -7.69,-123.47 6.58,-99.52 19.82,-83.42"/>
<polygon fill="#63b8ff" stroke="#63b8ff" points="22.29,-85.9 26.28,-76.09 17.04,-81.28 22.29,-85.9"/>
</a>
</g>
</g>
<!-- Node6 -->
<g id="Node000006" class="node">
<title>Node6</title>
<g id="a_Node000006"><a xlink:href="data__structures_8hpp.html" target="_top" xlink:title=" ">
<polygon fill="white" stroke="#666666" points="355.13,-74.5 213.88,-74.5 213.88,-55.25 355.13,-55.25 355.13,-74.5"/>
<text text-anchor="middle" x="284.5" y="-61" font-family="Helvetica,sans-Serif" font-size="10.00">loc_map/data_structures.hpp</text>
</a>
</g>
</g>
<!-- Node1&#45;&gt;Node6 -->
<g id="edge18_Node000001_Node000006" class="edge">
<title>Node1&#45;&gt;Node6</title>
<g id="a_edge18_Node000001_Node000006"><a xlink:title=" ">
<path fill="none" stroke="#63b8ff" d="M397.48,-231.86C394.94,-205.14 386.29,-147.78 357.5,-110.5 347.38,-97.38 332.21,-87.22 318.32,-79.94"/>
<polygon fill="#63b8ff" stroke="#63b8ff" points="319.94,-76.83 309.42,-75.58 316.87,-83.12 319.94,-76.83"/>
</a>
</g>
</g>
<!-- Node13 -->
<g id="Node000013" class="node">
<title>Node13</title>
<g id="a_Node000013"><a xlink:title=" ">
<polygon fill="#e0e0e0" stroke="#999999" points="480.25,-196.25 426.75,-196.25 426.75,-177 480.25,-177 480.25,-196.25"/>
<text text-anchor="middle" x="453.5" y="-182.75" font-family="Helvetica,sans-Serif" font-size="10.00">iostream</text>
</a>
</g>
</g>
<!-- Node1&#45;&gt;Node13 -->
<g id="edge17_Node000001_Node000013" class="edge">
<title>Node1&#45;&gt;Node13</title>
<g id="a_edge17_Node000001_Node000013"><a xlink:title=" ">
<path fill="none" stroke="#63b8ff" d="M412.1,-231.95C419.75,-223.76 429.34,-213.48 437.37,-204.89"/>
<polygon fill="#63b8ff" stroke="#63b8ff" points="439.72,-207.5 443.99,-197.81 434.61,-202.73 439.72,-207.5"/>
</a>
</g>
</g>
<!-- Node14 -->
<g id="Node000014" class="node">
<title>Node14</title>
<g id="a_Node000014"><a xlink:title=" ">
<polygon fill="#e0e0e0" stroke="#999999" points="588.25,-196.25 498.75,-196.25 498.75,-177 588.25,-177 588.25,-196.25"/>
<text text-anchor="middle" x="543.5" y="-182.75" font-family="Helvetica,sans-Serif" font-size="10.00">rclcpp/rclcpp.hpp</text>
</a>
</g>
</g>
<!-- Node1&#45;&gt;Node14 -->
<g id="edge19_Node000001_Node000014" class="edge">
<title>Node1&#45;&gt;Node14</title>
<g id="a_edge19_Node000001_Node000014"><a xlink:title=" ">
<path fill="none" stroke="#63b8ff" d="M434.72,-231.8C458.07,-222.31 488.2,-210.08 510.82,-200.89"/>
<polygon fill="#63b8ff" stroke="#63b8ff" points="511.91,-204.23 519.86,-197.22 509.28,-197.74 511.91,-204.23"/>
</a>
</g>
</g>
<!-- Node2&#45;&gt;Node3 -->
<g id="edge2_Node000002_Node000003" class="edge">
<title>Node2&#45;&gt;Node3</title>
<g id="a_edge2_Node000002_Node000003"><a xlink:title=" ">
<path fill="none" stroke="#63b8ff" d="M206.43,-183.6C142.1,-179.9 39.32,-169.57 15.5,-141 2,-124.81 12.69,-100.52 23.14,-83.98"/>
<polygon fill="#63b8ff" stroke="#63b8ff" points="25.79,-86.3 28.54,-76.07 20.01,-82.35 25.79,-86.3"/>
</a>
</g>
</g>
<!-- Node4 -->
<g id="Node000004" class="node">
<title>Node4</title>
<g id="a_Node000004"><a xlink:title=" ">
<polygon fill="#e0e0e0" stroke="#999999" points="332,-135.38 289,-135.38 289,-116.12 332,-116.12 332,-135.38"/>
<text text-anchor="middle" x="310.5" y="-121.88" font-family="Helvetica,sans-Serif" font-size="10.00">vector</text>
</a>
</g>
</g>
<!-- Node2&#45;&gt;Node4 -->
<g id="edge3_Node000002_Node000004" class="edge">
<title>Node2&#45;&gt;Node4</title>
<g id="a_edge3_Node000002_Node000004"><a xlink:title=" ">
<path fill="none" stroke="#63b8ff" d="M267.25,-176.68C274.66,-168.12 286.05,-154.98 295.28,-144.32"/>
<polygon fill="#63b8ff" stroke="#63b8ff" points="297.79,-146.77 301.69,-136.92 292.5,-142.19 297.79,-146.77"/>
</a>
</g>
</g>
<!-- Node5 -->
<g id="Node000005" class="node">
<title>Node5</title>
<g id="a_Node000005"><a xlink:href="motion__models_8hpp.html" target="_top" xlink:title=" ">
<polygon fill="white" stroke="#666666" points="128,-141 25,-141 25,-110.5 128,-110.5 128,-141"/>
<text text-anchor="start" x="33" y="-127.5" font-family="Helvetica,sans-Serif" font-size="10.00">kalman_filter/motion</text>
<text text-anchor="middle" x="76.5" y="-116.25" font-family="Helvetica,sans-Serif" font-size="10.00">_models.hpp</text>
</a>
</g>
</g>
<!-- Node2&#45;&gt;Node5 -->
<g id="edge4_Node000002_Node000005" class="edge">
<title>Node2&#45;&gt;Node5</title>
<g id="a_edge4_Node000002_Node000005"><a xlink:title=" ">
<path fill="none" stroke="#63b8ff" d="M231.31,-176.55C205.19,-168.15 165.56,-155.4 132.94,-144.91"/>
<polygon fill="#63b8ff" stroke="#63b8ff" points="134.21,-141.64 123.62,-141.91 132.07,-148.3 134.21,-141.64"/>
</a>
</g>
</g>
<!-- Node2&#45;&gt;Node6 -->
<g id="edge15_Node000002_Node000006" class="edge">
<title>Node2&#45;&gt;Node6</title>
<g id="a_edge15_Node000002_Node000006"><a xlink:title=" ">
<path fill="none" stroke="#63b8ff" d="M292.97,-176.53C310.72,-169.82 330.99,-158.69 341.5,-141 348.43,-129.35 347.44,-122.69 341.5,-110.5 335.52,-98.22 324.34,-88.32 313.45,-80.99"/>
<polygon fill="#63b8ff" stroke="#63b8ff" points="315.34,-78.04 304.99,-75.79 311.67,-84.01 315.34,-78.04"/>
</a>
</g>
</g>
<!-- Node12 -->
<g id="Node000012" class="node">
<title>Node12</title>
<g id="a_Node000012"><a xlink:href="observation__models_8hpp.html" target="_top" xlink:title=" ">
<polygon fill="white" stroke="#666666" points="270.5,-141 146.5,-141 146.5,-110.5 270.5,-110.5 270.5,-141"/>
<text text-anchor="start" x="154.5" y="-127.5" font-family="Helvetica,sans-Serif" font-size="10.00">kalman_filter/observation</text>
<text text-anchor="middle" x="208.5" y="-116.25" font-family="Helvetica,sans-Serif" font-size="10.00">_models.hpp</text>
</a>
</g>
</g>
<!-- Node2&#45;&gt;Node12 -->
<g id="edge12_Node000002_Node000012" class="edge">
<title>Node2&#45;&gt;Node12</title>
<g id="a_edge12_Node000002_Node000012"><a xlink:title=" ">
<path fill="none" stroke="#63b8ff" d="M251.76,-176.68C245.59,-169.56 236.68,-159.27 228.54,-149.88"/>
<polygon fill="#63b8ff" stroke="#63b8ff" points="231.27,-147.69 222.08,-142.43 225.98,-152.28 231.27,-147.69"/>
</a>
</g>
</g>
<!-- Node5&#45;&gt;Node3 -->
<g id="edge5_Node000005_Node000003" class="edge">
<title>Node5&#45;&gt;Node3</title>
<g id="a_edge5_Node000005_Node000003"><a xlink:title=" ">
<path fill="none" stroke="#63b8ff" d="M66.61,-110.2C61.29,-102.35 54.66,-92.6 48.98,-84.24"/>
<polygon fill="#63b8ff" stroke="#63b8ff" points="52.03,-82.51 43.52,-76.2 46.24,-86.44 52.03,-82.51"/>
</a>
</g>
</g>
<!-- Node5&#45;&gt;Node6 -->
<g id="edge6_Node000005_Node000006" class="edge">
<title>Node5&#45;&gt;Node6</title>
<g id="a_edge6_Node000005_Node000006"><a xlink:title=" ">
<path fill="none" stroke="#63b8ff" d="M128.45,-110.05C163.22,-100.2 208.44,-87.4 241.25,-78.12"/>
<polygon fill="#63b8ff" stroke="#63b8ff" points="242.17,-81.49 250.84,-75.4 240.27,-74.76 242.17,-81.49"/>
</a>
</g>
</g>
<!-- Node7 -->
<g id="Node000007" class="node">
<title>Node7</title>
<g id="a_Node000007"><a xlink:title=" ">
<polygon fill="#e0e0e0" stroke="#999999" points="194.13,-19.25 148.88,-19.25 148.88,0 194.13,0 194.13,-19.25"/>
<text text-anchor="middle" x="171.5" y="-5.75" font-family="Helvetica,sans-Serif" font-size="10.00">chrono</text>
</a>
</g>
</g>
<!-- Node6&#45;&gt;Node7 -->
<g id="edge7_Node000006_Node000007" class="edge">
<title>Node6&#45;&gt;Node7</title>
<g id="a_edge7_Node000006_Node000007"><a xlink:title=" ">
<path fill="none" stroke="#63b8ff" d="M265.33,-54.84C247.72,-46.54 221.34,-34.11 201.04,-24.54"/>
<polygon fill="#63b8ff" stroke="#63b8ff" points="202.67,-21.44 192.13,-20.35 199.69,-27.78 202.67,-21.44"/>
</a>
</g>
</g>
<!-- Node8 -->
<g id="Node000008" class="node">
<title>Node8</title>
<g id="a_Node000008"><a xlink:title=" ">
<polygon fill="#e0e0e0" stroke="#999999" points="246.88,-19.25 212.13,-19.25 212.13,0 246.88,0 246.88,-19.25"/>
<text text-anchor="middle" x="229.5" y="-5.75" font-family="Helvetica,sans-Serif" font-size="10.00">map</text>
</a>
</g>
</g>
<!-- Node6&#45;&gt;Node8 -->
<g id="edge8_Node000006_Node000008" class="edge">
<title>Node6&#45;&gt;Node8</title>
<g id="a_edge8_Node000006_Node000008"><a xlink:title=" ">
<path fill="none" stroke="#63b8ff" d="M275.42,-55.08C267.66,-47.57 256.29,-36.56 246.81,-27.38"/>
<polygon fill="#63b8ff" stroke="#63b8ff" points="249.49,-25.1 239.87,-20.66 244.62,-30.13 249.49,-25.1"/>
</a>
</g>
</g>
<!-- Node9 -->
<g id="Node000009" class="node">
<title>Node9</title>
<g id="a_Node000009"><a xlink:title=" ">
<polygon fill="#e0e0e0" stroke="#999999" points="304.5,-19.25 264.5,-19.25 264.5,0 304.5,0 304.5,-19.25"/>
<text text-anchor="middle" x="284.5" y="-5.75" font-family="Helvetica,sans-Serif" font-size="10.00">string</text>
</a>
</g>
</g>
<!-- Node6&#45;&gt;Node9 -->
<g id="edge9_Node000006_Node000009" class="edge">
<title>Node6&#45;&gt;Node9</title>
<g id="a_edge9_Node000006_Node000009"><a xlink:title=" ">
<path fill="none" stroke="#63b8ff" d="M284.5,-55.08C284.5,-48.57 284.5,-39.42 284.5,-31.12"/>
<polygon fill="#63b8ff" stroke="#63b8ff" points="288,-31.12 284.5,-21.12 281,-31.12 288,-31.12"/>
</a>
</g>
</g>
<!-- Node10 -->
<g id="Node000010" class="node">
<title>Node10</title>
<g id="a_Node000010"><a xlink:title=" ">
<polygon fill="#e0e0e0" stroke="#999999" points="398.5,-19.25 322.5,-19.25 322.5,0 398.5,0 398.5,-19.25"/>
<text text-anchor="middle" x="360.5" y="-5.75" font-family="Helvetica,sans-Serif" font-size="10.00">utils/color.hpp</text>
</a>
</g>
</g>
<!-- Node6&#45;&gt;Node10 -->
<g id="edge10_Node000006_Node000010" class="edge">
<title>Node6&#45;&gt;Node10</title>
<g id="a_edge10_Node000006_Node000010"><a xlink:title=" ">
<path fill="none" stroke="#63b8ff" d="M297.39,-54.84C308.53,-47.04 324.88,-35.59 338.14,-26.29"/>
<polygon fill="#63b8ff" stroke="#63b8ff" points="340.13,-29.18 346.31,-20.57 336.11,-23.44 340.13,-29.18"/>
</a>
</g>
</g>
<!-- Node11 -->
<g id="Node000011" class="node">
<title>Node11</title>
<g id="a_Node000011"><a xlink:title=" ">
<polygon fill="#e0e0e0" stroke="#999999" points="504.88,-19.25 416.13,-19.25 416.13,0 504.88,0 504.88,-19.25"/>
<text text-anchor="middle" x="460.5" y="-5.75" font-family="Helvetica,sans-Serif" font-size="10.00">utils/position.hpp</text>
</a>
</g>
</g>
<!-- Node6&#45;&gt;Node11 -->
<g id="edge11_Node000006_Node000011" class="edge">
<title>Node6&#45;&gt;Node11</title>
<g id="a_edge11_Node000006_Node000011"><a xlink:title=" ">
<path fill="none" stroke="#63b8ff" d="M314.36,-54.84C343.31,-46.08 387.46,-32.73 419.65,-22.98"/>
<polygon fill="#63b8ff" stroke="#63b8ff" points="420.49,-26.39 429.05,-20.14 418.47,-19.69 420.49,-26.39"/>
</a>
</g>
</g>
<!-- Node12&#45;&gt;Node3 -->
<g id="edge13_Node000012_Node000003" class="edge">
<title>Node12&#45;&gt;Node3</title>
<g id="a_edge13_Node000012_Node000003"><a xlink:title=" ">
<path fill="none" stroke="#63b8ff" d="M165.54,-110.05C137.3,-100.38 100.7,-87.85 73.7,-78.61"/>
<polygon fill="#63b8ff" stroke="#63b8ff" points="75.16,-75.41 64.57,-75.48 72.89,-82.03 75.16,-75.41"/>
</a>
</g>
</g>
<!-- Node12&#45;&gt;Node6 -->
<g id="edge14_Node000012_Node000006" class="edge">
<title>Node12&#45;&gt;Node6</title>
<g id="a_edge14_Node000012_Node000006"><a xlink:title=" ">
<path fill="none" stroke="#63b8ff" d="M227.29,-110.2C238.42,-101.58 252.52,-90.65 263.95,-81.8"/>
<polygon fill="#63b8ff" stroke="#63b8ff" points="265.83,-84.77 271.59,-75.88 261.54,-79.24 265.83,-84.77"/>
</a>
</g>
</g>
</g>
</svg>
