<?xml version="1.0" encoding="UTF-8" standalone="no"?>
<!DOCTYPE svg PUBLIC "-//W3C//DTD SVG 1.1//EN"
 "http://www.w3.org/Graphics/SVG/1.1/DTD/svg11.dtd">
<!-- Generated by graphviz version 9.0.0 (20230911.1827)
 -->
<!-- Title: src/loc_map/include/kalman_filter/ekf.hpp Pages: 1 -->
<svg width="437pt" height="216pt"
 viewBox="0.00 0.00 437.08 215.50" xmlns="http://www.w3.org/2000/svg" xmlns:xlink="http://www.w3.org/1999/xlink">

<svg id="main" version="1.1" xmlns="http://www.w3.org/2000/svg" xmlns:xlink="http://www.w3.org/1999/xlink" xml:space="preserve" onload="init(evt)">
<style type="text/css"><![CDATA[
.node, .edge {opacity: 0.7;}
.node.selected, .edge.selected {opacity: 1;}
.edge:hover path { stroke: red; }
.edge:hover polygon { stroke: red; fill: red; }
]]></style>
<script type="application/ecmascript" xlink:href="svg.min.js"/>
<svg id="graph" class="graph">
<g id="graph0" class="graph" transform="scale(1 1) rotate(0) translate(4 211.5)">
<title>src/loc_map/include/kalman_filter/ekf.hpp</title>
<!-- Node1 -->
<g id="Node000001" class="node">
<title>Node1</title>
<g id="a_Node000001"><a xlink:title=" ">
<polygon fill="#999999" stroke="#666666" points="262.83,-207.5 154.58,-207.5 154.58,-177 262.83,-177 262.83,-207.5"/>
<text text-anchor="start" x="162.58" y="-194" font-family="Helvetica,sans-Serif" font-size="10.00">src/loc_map/include</text>
<text text-anchor="middle" x="208.7" y="-182.75" font-family="Helvetica,sans-Serif" font-size="10.00">/kalman_filter/ekf.hpp</text>
</a>
</g>
</g>
<!-- Node2 -->
<g id="Node000002" class="node">
<title>Node2</title>
<g id="a_Node000002"><a xlink:title=" ">
<polygon fill="#e0e0e0" stroke="#999999" points="112.08,-74.5 41.33,-74.5 41.33,-55.25 112.08,-55.25 112.08,-74.5"/>
<text text-anchor="middle" x="76.7" y="-61" font-family="Helvetica,sans-Serif" font-size="10.00">Eigen/Dense</text>
</a>
</g>
</g>
<!-- Node1&#45;&gt;Node2 -->
<g id="edge1_Node000001_Node000002" class="edge">
<title>Node1&#45;&gt;Node2</title>
<g id="a_edge1_Node000001_Node000002"><a xlink:title=" ">
<path fill="none" stroke="#63b8ff" d="M154.52,-185.33C100.78,-178.22 23.89,-164.23 5.7,-141 -2.65,-130.33 -0.85,-122.36 5.7,-110.5 13.22,-96.89 26.82,-86.87 40.12,-79.82"/>
<polygon fill="#63b8ff" stroke="#63b8ff" points="41.28,-83.14 48.76,-75.64 38.24,-76.84 41.28,-83.14"/>
</a>
</g>
</g>
<!-- Node3 -->
<g id="Node000003" class="node">
<title>Node3</title>
<g id="a_Node000003"><a xlink:title=" ">
<polygon fill="#e0e0e0" stroke="#999999" points="360.2,-135.38 317.2,-135.38 317.2,-116.12 360.2,-116.12 360.2,-135.38"/>
<text text-anchor="middle" x="338.7" y="-121.88" font-family="Helvetica,sans-Serif" font-size="10.00">vector</text>
</a>
</g>
</g>
<!-- Node1&#45;&gt;Node3 -->
<g id="edge2_Node000001_Node000003" class="edge">
<title>Node1&#45;&gt;Node3</title>
<g id="a_edge2_Node000001_Node000003"><a xlink:title=" ">
<path fill="none" stroke="#63b8ff" d="M238.2,-176.61C259.86,-165.87 289.11,-151.36 310.47,-140.76"/>
<polygon fill="#63b8ff" stroke="#63b8ff" points="311.79,-144.01 319.19,-136.43 308.68,-137.74 311.79,-144.01"/>
</a>
</g>
</g>
<!-- Node4 -->
<g id="Node000004" class="node">
<title>Node4</title>
<g id="a_Node000004"><a xlink:href="motion__models_8hpp.html" target="_top" xlink:title=" ">
<polygon fill="white" stroke="#666666" points="260.2,-141 157.2,-141 157.2,-110.5 260.2,-110.5 260.2,-141"/>
<text text-anchor="start" x="165.2" y="-127.5" font-family="Helvetica,sans-Serif" font-size="10.00">kalman_filter/motion</text>
<text text-anchor="middle" x="208.7" y="-116.25" font-family="Helvetica,sans-Serif" font-size="10.00">_models.hpp</text>
</a>
</g>
</g>
<!-- Node1&#45;&gt;Node4 -->
<g id="edge3_Node000001_Node000004" class="edge">
<title>Node1&#45;&gt;Node4</title>
<g id="a_edge3_Node000001_Node000004"><a xlink:title=" ">
<path fill="none" stroke="#63b8ff" d="M208.7,-176.61C208.7,-169.52 208.7,-160.79 208.7,-152.63"/>
<polygon fill="#63b8ff" stroke="#63b8ff" points="212.2,-152.84 208.7,-142.84 205.2,-152.84 212.2,-152.84"/>
</a>
</g>
</g>
<!-- Node5 -->
<g id="Node000005" class="node">
<title>Node5</title>
<g id="a_Node000005"><a xlink:href="data__structures_8hpp.html" target="_top" xlink:title=" ">
<polygon fill="white" stroke="#666666" points="279.33,-74.5 138.08,-74.5 138.08,-55.25 279.33,-55.25 279.33,-74.5"/>
<text text-anchor="middle" x="208.7" y="-61" font-family="Helvetica,sans-Serif" font-size="10.00">loc_map/data_structures.hpp</text>
</a>
</g>
</g>
<!-- Node1&#45;&gt;Node5 -->
<g id="edge14_Node000001_Node000005" class="edge">
<title>Node1&#45;&gt;Node5</title>
<g id="a_edge14_Node000001_Node000005"><a xlink:title=" ">
<path fill="none" stroke="#63b8ff" d="M235.79,-176.59C248.6,-168.06 262.62,-156.01 269.7,-141 275.49,-128.74 275.84,-122.59 269.7,-110.5 263.27,-97.83 251.37,-87.89 239.77,-80.65"/>
<polygon fill="#63b8ff" stroke="#63b8ff" points="241.54,-77.63 231.12,-75.72 238.08,-83.71 241.54,-77.63"/>
</a>
</g>
</g>
<!-- Node11 -->
<g id="Node000011" class="node">
<title>Node11</title>
<g id="a_Node000011"><a xlink:href="observation__models_8hpp.html" target="_top" xlink:title=" ">
<polygon fill="white" stroke="#666666" points="138.7,-141 14.7,-141 14.7,-110.5 138.7,-110.5 138.7,-141"/>
<text text-anchor="start" x="22.7" y="-127.5" font-family="Helvetica,sans-Serif" font-size="10.00">kalman_filter/observation</text>
<text text-anchor="middle" x="76.7" y="-116.25" font-family="Helvetica,sans-Serif" font-size="10.00">_models.hpp</text>
</a>
</g>
</g>
<!-- Node1&#45;&gt;Node11 -->
<g id="edge11_Node000001_Node000011" class="edge">
<title>Node1&#45;&gt;Node11</title>
<g id="a_edge11_Node000001_Node000011"><a xlink:title=" ">
<path fill="none" stroke="#63b8ff" d="M178.75,-176.61C160.44,-167.67 136.79,-156.11 116.87,-146.37"/>
<polygon fill="#63b8ff" stroke="#63b8ff" points="118.42,-143.24 107.9,-141.99 115.35,-149.53 118.42,-143.24"/>
</a>
</g>
</g>
<!-- Node4&#45;&gt;Node2 -->
<g id="edge4_Node000004_Node000002" class="edge">
<title>Node4&#45;&gt;Node2</title>
<g id="a_edge4_Node000004_Node000002"><a xlink:title=" ">
<path fill="none" stroke="#63b8ff" d="M175.74,-110.05C154.76,-100.69 127.8,-88.66 107.3,-79.52"/>
<polygon fill="#63b8ff" stroke="#63b8ff" points="108.89,-76.4 98.33,-75.52 106.04,-82.79 108.89,-76.4"/>
</a>
</g>
</g>
<!-- Node4&#45;&gt;Node5 -->
<g id="edge5_Node000004_Node000005" class="edge">
<title>Node4&#45;&gt;Node5</title>
<g id="a_edge5_Node000004_Node000005"><a xlink:title=" ">
<path fill="none" stroke="#63b8ff" d="M208.7,-110.2C208.7,-102.96 208.7,-94.09 208.7,-86.19"/>
<polygon fill="#63b8ff" stroke="#63b8ff" points="212.2,-86.46 208.7,-76.46 205.2,-86.46 212.2,-86.46"/>
</a>
</g>
</g>
<!-- Node6 -->
<g id="Node000006" class="node">
<title>Node6</title>
<g id="a_Node000006"><a xlink:title=" ">
<polygon fill="#e0e0e0" stroke="#999999" points="118.33,-19.25 73.08,-19.25 73.08,0 118.33,0 118.33,-19.25"/>
<text text-anchor="middle" x="95.7" y="-5.75" font-family="Helvetica,sans-Serif" font-size="10.00">chrono</text>
</a>
</g>
</g>
<!-- Node5&#45;&gt;Node6 -->
<g id="edge6_Node000005_Node000006" class="edge">
<title>Node5&#45;&gt;Node6</title>
<g id="a_edge6_Node000005_Node000006"><a xlink:title=" ">
<path fill="none" stroke="#63b8ff" d="M189.54,-54.84C171.92,-46.54 145.55,-34.11 125.24,-24.54"/>
<polygon fill="#63b8ff" stroke="#63b8ff" points="126.87,-21.44 116.34,-20.35 123.89,-27.78 126.87,-21.44"/>
</a>
</g>
</g>
<!-- Node7 -->
<g id="Node000007" class="node">
<title>Node7</title>
<g id="a_Node000007"><a xlink:title=" ">
<polygon fill="#e0e0e0" stroke="#999999" points="171.08,-19.25 136.33,-19.25 136.33,0 171.08,0 171.08,-19.25"/>
<text text-anchor="middle" x="153.7" y="-5.75" font-family="Helvetica,sans-Serif" font-size="10.00">map</text>
</a>
</g>
</g>
<!-- Node5&#45;&gt;Node7 -->
<g id="edge7_Node000005_Node000007" class="edge">
<title>Node5&#45;&gt;Node7</title>
<g id="a_edge7_Node000005_Node000007"><a xlink:title=" ">
<path fill="none" stroke="#63b8ff" d="M199.62,-55.08C191.87,-47.57 180.49,-36.56 171.01,-27.38"/>
<polygon fill="#63b8ff" stroke="#63b8ff" points="173.69,-25.1 164.07,-20.66 168.82,-30.13 173.69,-25.1"/>
</a>
</g>
</g>
<!-- Node8 -->
<g id="Node000008" class="node">
<title>Node8</title>
<g id="a_Node000008"><a xlink:title=" ">
<polygon fill="#e0e0e0" stroke="#999999" points="228.7,-19.25 188.7,-19.25 188.7,0 228.7,0 228.7,-19.25"/>
<text text-anchor="middle" x="208.7" y="-5.75" font-family="Helvetica,sans-Serif" font-size="10.00">string</text>
</a>
</g>
</g>
<!-- Node5&#45;&gt;Node8 -->
<g id="edge8_Node000005_Node000008" class="edge">
<title>Node5&#45;&gt;Node8</title>
<g id="a_edge8_Node000005_Node000008"><a xlink:title=" ">
<path fill="none" stroke="#63b8ff" d="M208.7,-55.08C208.7,-48.57 208.7,-39.42 208.7,-31.12"/>
<polygon fill="#63b8ff" stroke="#63b8ff" points="212.2,-31.12 208.7,-21.12 205.2,-31.12 212.2,-31.12"/>
</a>
</g>
</g>
<!-- Node9 -->
<g id="Node000009" class="node">
<title>Node9</title>
<g id="a_Node000009"><a xlink:title=" ">
<polygon fill="#e0e0e0" stroke="#999999" points="322.7,-19.25 246.7,-19.25 246.7,0 322.7,0 322.7,-19.25"/>
<text text-anchor="middle" x="284.7" y="-5.75" font-family="Helvetica,sans-Serif" font-size="10.00">utils/color.hpp</text>
</a>
</g>
</g>
<!-- Node5&#45;&gt;Node9 -->
<g id="edge9_Node000005_Node000009" class="edge">
<title>Node5&#45;&gt;Node9</title>
<g id="a_edge9_Node000005_Node000009"><a xlink:title=" ">
<path fill="none" stroke="#63b8ff" d="M221.6,-54.84C232.73,-47.04 249.08,-35.59 262.34,-26.29"/>
<polygon fill="#63b8ff" stroke="#63b8ff" points="264.33,-29.18 270.51,-20.57 260.31,-23.44 264.33,-29.18"/>
</a>
</g>
</g>
<!-- Node10 -->
<g id="Node000010" class="node">
<title>Node10</title>
<g id="a_Node000010"><a xlink:title=" ">
<polygon fill="#e0e0e0" stroke="#999999" points="429.08,-19.25 340.33,-19.25 340.33,0 429.08,0 429.08,-19.25"/>
<text text-anchor="middle" x="384.7" y="-5.75" font-family="Helvetica,sans-Serif" font-size="10.00">utils/position.hpp</text>
</a>
</g>
</g>
<!-- Node5&#45;&gt;Node10 -->
<g id="edge10_Node000005_Node000010" class="edge">
<title>Node5&#45;&gt;Node10</title>
<g id="a_edge10_Node000005_Node000010"><a xlink:title=" ">
<path fill="none" stroke="#63b8ff" d="M238.56,-54.84C267.51,-46.08 311.66,-32.73 343.86,-22.98"/>
<polygon fill="#63b8ff" stroke="#63b8ff" points="344.69,-26.39 353.25,-20.14 342.67,-19.69 344.69,-26.39"/>
</a>
</g>
</g>
<!-- Node11&#45;&gt;Node2 -->
<g id="edge12_Node000011_Node000002" class="edge">
<title>Node11&#45;&gt;Node2</title>
<g id="a_edge12_Node000011_Node000002"><a xlink:title=" ">
<path fill="none" stroke="#63b8ff" d="M76.7,-110.2C76.7,-102.96 76.7,-94.09 76.7,-86.19"/>
<polygon fill="#63b8ff" stroke="#63b8ff" points="80.2,-86.46 76.7,-76.46 73.2,-86.46 80.2,-86.46"/>
</a>
</g>
</g>
<!-- Node11&#45;&gt;Node5 -->
<g id="edge13_Node000011_Node000005" class="edge">
<title>Node11&#45;&gt;Node5</title>
<g id="a_edge13_Node000011_Node000005"><a xlink:title=" ">
<path fill="none" stroke="#63b8ff" d="M109.67,-110.05C130.64,-100.69 157.61,-88.66 178.11,-79.52"/>
<polygon fill="#63b8ff" stroke="#63b8ff" points="179.37,-82.79 187.08,-75.52 176.52,-76.4 179.37,-82.79"/>
</a>
</g>
</g>
</g>
</svg>
</svg>

<style type='text/css'>
<![CDATA[
[data-mouse-over-selected='false'] { opacity: 0.7; }
[data-mouse-over-selected='true']  { opacity: 1.0; }
]]>
</style>
<script type="application/ecmascript"><![CDATA[
document.addEventListener('DOMContentLoaded', (event) => {
  highlightEdges();
  highlightAdjacentNodes();
});
]]></script>
</svg>
