<?xml version="1.0" encoding="UTF-8" standalone="no"?>
<!DOCTYPE svg PUBLIC "-//W3C//DTD SVG 1.1//EN"
 "http://www.w3.org/Graphics/SVG/1.1/DTD/svg11.dtd">
<!-- Generated by graphviz version 9.0.0 (20230911.1827)
 -->
<!-- Title: src/planning/planning/include/utils/files.hpp Pages: 1 -->
<!--zoomable 216 -->

<svg id="main" version="1.1" xmlns="http://www.w3.org/2000/svg" xmlns:xlink="http://www.w3.org/1999/xlink" xml:space="preserve" onload="init(evt)">
<style type="text/css"><![CDATA[
.node, .edge {opacity: 0.7;}
.node.selected, .edge.selected {opacity: 1;}
.edge:hover path { stroke: red; }
.edge:hover polygon { stroke: red; fill: red; }
]]></style>

<defs>
  <circle id="rim" cx="0" cy="0" r="7"/>
  <circle id="rim2" cx="0" cy="0" r="3.5"/>
  <g id="zoomPlus">
    <use xlink:href="#rim" fill="#404040"><set attributeName="fill" to="#808080" begin="zoomplus.mouseover" end="zoomplus.mouseout"/></use>
    <path d="M-4,0h8M0,-4v8" fill="none" stroke="white" stroke-width="1.5" pointer-events="none"/>
  </g>
  <g id="zoomMin">
    <use xlink:href="#rim" fill="#404040"><set attributeName="fill" to="#808080" begin="zoomminus.mouseover" end="zoomminus.mouseout"/></use>
    <path d="M-4,0h8" fill="none" stroke="white" stroke-width="1.5" pointer-events="none"/>
  </g>
  <g id="arrowUp" transform="translate(30 24)">
    <use xlink:href="#rim"/>
    <path pointer-events="none" fill="none" stroke="white" stroke-width="1.5" d="M0,-3.0v7 M-2.5,-0.5L0,-3.0L2.5,-0.5"/>
  </g>
  <g id="arrowRight" transform="rotate(90) translate(36 -43)">
    <use xlink:href="#rim"/>
    <path pointer-events="none" fill="none" stroke="white" stroke-width="1.5" d="M0,-3.0v7 M-2.5,-0.5L0,-3.0L2.5,-0.5"/>
  </g>
  <g id="arrowDown" transform="rotate(180) translate(-30 -48)">
    <use xlink:href="#rim"/>
    <path pointer-events="none" fill="none" stroke="white" stroke-width="1.5" d="M0,-3.0v7 M-2.5,-0.5L0,-3.0L2.5,-0.5"/>
  </g>
  <g id="arrowLeft" transform="rotate(270) translate(-36 17)">
    <use xlink:href="#rim"/>
    <path pointer-events="none" fill="none" stroke="white" stroke-width="1.5" d="M0,-3.0v7 M-2.5,-0.5L0,-3.0L2.5,-0.5"/>
  </g>
  <g id="resetDef">
    <use xlink:href="#rim2" fill="#404040"><set attributeName="fill" to="#808080" begin="reset.mouseover" end="reset.mouseout"/></use>
  </g>
</defs>
<script type="application/ecmascript">
var viewWidth = 1054;
var viewHeight = 216;
var sectionId = 'dynsection-0';
</script>
<script type="application/ecmascript" xlink:href="svg.min.js"/>
<svg id="graph" class="graph">
<g id="viewport">
<title>src/planning/planning/include/utils/files.hpp</title>
<!-- Node1 -->
<g id="Node000001" class="node">
<title>Node1</title>
<g id="a_Node000001"><a xlink:title=" ">
<polygon fill="#999999" stroke="#666666" points="501.12,-207.5 392.12,-207.5 392.12,-177 501.12,-177 501.12,-207.5"/>
<text text-anchor="start" x="400.12" y="-194" font-family="Helvetica,sans-Serif" font-size="10.00">src/planning/planning</text>
<text text-anchor="middle" x="446.62" y="-182.75" font-family="Helvetica,sans-Serif" font-size="10.00">/include/utils/files.hpp</text>
</a>
</g>
</g>
<!-- Node2 -->
<g id="Node000002" class="node">
<title>Node2</title>
<g id="a_Node000002"><a xlink:title=" ">
<polygon fill="#e0e0e0" stroke="#999999" points="147.25,-141 0,-141 0,-110.5 147.25,-110.5 147.25,-141"/>
<text text-anchor="start" x="8" y="-127.5" font-family="Helvetica,sans-Serif" font-size="10.00">ament_index_cpp/get</text>
<text text-anchor="middle" x="73.62" y="-116.25" font-family="Helvetica,sans-Serif" font-size="10.00">_package_share_directory.hpp</text>
</a>
</g>
</g>
<!-- Node1&#45;&gt;Node2 -->
<g id="edge1_Node000001_Node000002" class="edge">
<title>Node1&#45;&gt;Node2</title>
<g id="a_edge1_Node000001_Node000002"><a xlink:title=" ">
<path fill="none" stroke="#63b8ff" d="M391.65,-181.77C335.53,-172.1 245.6,-156.58 158.53,-141.5"/>
<polygon fill="#63b8ff" stroke="#63b8ff" points="159.32,-138.09 148.87,-139.83 158.13,-144.99 159.32,-138.09"/>
</a>
</g>
</g>
<!-- Node3 -->
<g id="Node000003" class="node">
<title>Node3</title>
<g id="a_Node000003"><a xlink:title=" ">
<polygon fill="#e0e0e0" stroke="#999999" points="224.38,-135.38 164.88,-135.38 164.88,-116.12 224.38,-116.12 224.38,-135.38"/>
<text text-anchor="middle" x="194.62" y="-121.88" font-family="Helvetica,sans-Serif" font-size="10.00">filesystem</text>
</a>
</g>
</g>
<!-- Node1&#45;&gt;Node3 -->
<g id="edge2_Node000001_Node000003" class="edge">
<title>Node1&#45;&gt;Node3</title>
<g id="a_edge2_Node000001_Node000003"><a xlink:title=" ">
<path fill="none" stroke="#63b8ff" d="M392.02,-179.26C349.9,-169.71 290.29,-155.58 238.62,-141 236.54,-140.41 234.4,-139.79 232.25,-139.14"/>
<polygon fill="#63b8ff" stroke="#63b8ff" points="233.55,-135.88 222.96,-136.27 231.48,-142.57 233.55,-135.88"/>
</a>
</g>
</g>
<!-- Node4 -->
<g id="Node000004" class="node">
<title>Node4</title>
<g id="a_Node000004"><a xlink:title=" ">
<polygon fill="#e0e0e0" stroke="#999999" points="932.62,-19.25 892.62,-19.25 892.62,0 932.62,0 932.62,-19.25"/>
<text text-anchor="middle" x="912.62" y="-5.75" font-family="Helvetica,sans-Serif" font-size="10.00">string</text>
</a>
</g>
</g>
<!-- Node1&#45;&gt;Node4 -->
<g id="edge3_Node000001_Node000004" class="edge">
<title>Node1&#45;&gt;Node4</title>
<g id="a_edge3_Node000001_Node000004"><a xlink:title=" ">
<path fill="none" stroke="#63b8ff" d="M501.3,-189.11C635,-182.59 972.49,-158.02 1039.62,-74.5 1068,-39.2 990.42,-21.68 944.22,-14.6"/>
<polygon fill="#63b8ff" stroke="#63b8ff" points="944.85,-11.15 934.46,-13.19 943.86,-18.08 944.85,-11.15"/>
</a>
</g>
</g>
<!-- Node5 -->
<g id="Node000005" class="node">
<title>Node5</title>
<g id="a_Node000005"><a xlink:title=" ">
<polygon fill="#e0e0e0" stroke="#999999" points="384.12,-19.25 341.12,-19.25 341.12,0 384.12,0 384.12,-19.25"/>
<text text-anchor="middle" x="362.62" y="-5.75" font-family="Helvetica,sans-Serif" font-size="10.00">vector</text>
</a>
</g>
</g>
<!-- Node1&#45;&gt;Node5 -->
<g id="edge4_Node000001_Node000005" class="edge">
<title>Node1&#45;&gt;Node5</title>
<g id="a_edge4_Node000001_Node000005"><a xlink:title=" ">
<path fill="none" stroke="#63b8ff" d="M391.85,-185.89C362.37,-179.91 328.32,-167.34 309.62,-141 287.57,-109.92 292.39,-89.73 308.62,-55.25 314.34,-43.12 325.14,-33.16 335.6,-25.75"/>
<polygon fill="#63b8ff" stroke="#63b8ff" points="337.2,-28.89 343.68,-20.5 333.38,-23.02 337.2,-28.89"/>
</a>
</g>
</g>
<!-- Node6 -->
<g id="Node000006" class="node">
<title>Node6</title>
<g id="a_Node000006"><a xlink:href="track_8hpp.html" target="_top" xlink:title=" ">
<polygon fill="white" stroke="#666666" points="615.75,-135.38 513.5,-135.38 513.5,-116.12 615.75,-116.12 615.75,-135.38"/>
<text text-anchor="middle" x="564.62" y="-121.88" font-family="Helvetica,sans-Serif" font-size="10.00">../planning/track.hpp</text>
</a>
</g>
</g>
<!-- Node1&#45;&gt;Node6 -->
<g id="edge5_Node000001_Node000006" class="edge">
<title>Node1&#45;&gt;Node6</title>
<g id="a_edge5_Node000001_Node000006"><a xlink:title=" ">
<path fill="none" stroke="#63b8ff" d="M467.64,-176.61C485.87,-165.92 512.29,-151.49 533.03,-140.9"/>
<polygon fill="#63b8ff" stroke="#63b8ff" points="534.57,-144.05 541.94,-136.44 531.43,-137.79 534.57,-144.05"/>
</a>
</g>
</g>
<!-- Node12 -->
<g id="Node000012" class="node">
<title>Node12</title>
<g id="a_Node000012"><a xlink:title=" ">
<polygon fill="#e0e0e0" stroke="#999999" points="1030.38,-74.5 940.88,-74.5 940.88,-55.25 1030.38,-55.25 1030.38,-74.5"/>
<text text-anchor="middle" x="985.62" y="-61" font-family="Helvetica,sans-Serif" font-size="10.00">rclcpp/rclcpp.hpp</text>
</a>
</g>
</g>
<!-- Node1&#45;&gt;Node12 -->
<g id="edge23_Node000001_Node000012" class="edge">
<title>Node1&#45;&gt;Node12</title>
<g id="a_edge23_Node000001_Node000012"><a xlink:title=" ">
<path fill="none" stroke="#63b8ff" d="M501.52,-178.48C606.54,-154.05 834.41,-101.05 935.54,-77.52"/>
<polygon fill="#63b8ff" stroke="#63b8ff" points="936.24,-80.96 945.18,-75.28 934.65,-74.14 936.24,-80.96"/>
</a>
</g>
</g>
<!-- Node15 -->
<g id="Node000015" class="node">
<title>Node15</title>
<g id="a_Node000015"><a xlink:href="planning_2planning_2include_2utils_2position_8hpp.html" target="_top" xlink:title=" ">
<polygon fill="white" stroke="#666666" points="392.12,-135.38 319.12,-135.38 319.12,-116.12 392.12,-116.12 392.12,-135.38"/>
<text text-anchor="middle" x="355.62" y="-121.88" font-family="Helvetica,sans-Serif" font-size="10.00">./position.hpp</text>
</a>
</g>
</g>
<!-- Node1&#45;&gt;Node15 -->
<g id="edge19_Node000001_Node000015" class="edge">
<title>Node1&#45;&gt;Node15</title>
<g id="a_edge19_Node000001_Node000015"><a xlink:title=" ">
<path fill="none" stroke="#63b8ff" d="M425.98,-176.61C411.57,-166.41 392.38,-152.8 377.68,-142.38"/>
<polygon fill="#63b8ff" stroke="#63b8ff" points="379.75,-139.56 369.57,-136.64 375.71,-145.27 379.75,-139.56"/>
</a>
</g>
</g>
<!-- Node6&#45;&gt;Node1 -->
<g id="edge18_Node000006_Node000001" class="edge">
<title>Node6&#45;&gt;Node1</title>
<g id="a_edge18_Node000006_Node000001"><a xlink:title=" ">
<path fill="none" stroke="#63b8ff" d="M553,-135.76C538.09,-144.94 511.98,-159.47 489.29,-171.36"/>
<polygon fill="#63b8ff" stroke="#63b8ff" points="487.77,-168.21 480.51,-175.92 490.99,-174.42 487.77,-168.21"/>
</a>
</g>
</g>
<!-- Node6&#45;&gt;Node4 -->
<g id="edge11_Node000006_Node000004" class="edge">
<title>Node6&#45;&gt;Node4</title>
<g id="a_edge11_Node000006_Node000004"><a xlink:title=" ">
<path fill="none" stroke="#63b8ff" d="M616.21,-123.44C698.21,-120.3 853.16,-109.75 893.62,-74.5 906.04,-63.69 910.52,-45.15 912.06,-30.83"/>
<polygon fill="#63b8ff" stroke="#63b8ff" points="915.53,-31.34 912.67,-21.13 908.55,-30.89 915.53,-31.34"/>
</a>
</g>
</g>
<!-- Node6&#45;&gt;Node5 -->
<g id="edge12_Node000006_Node000005" class="edge">
<title>Node6&#45;&gt;Node5</title>
<g id="a_edge12_Node000006_Node000005"><a xlink:title=" ">
<path fill="none" stroke="#63b8ff" d="M541.47,-115.75C518.58,-106.52 482.84,-91.17 453.62,-74.5 428.16,-59.97 400.88,-40.2 382.91,-26.52"/>
<polygon fill="#63b8ff" stroke="#63b8ff" points="385.2,-23.87 375.14,-20.54 380.93,-29.42 385.2,-23.87"/>
</a>
</g>
</g>
<!-- Node7 -->
<g id="Node000007" class="node">
<title>Node7</title>
<g id="a_Node000007"><a xlink:title=" ">
<polygon fill="#e0e0e0" stroke="#999999" points="780.62,-74.5 692.62,-74.5 692.62,-55.25 780.62,-55.25 780.62,-74.5"/>
<text text-anchor="middle" x="736.62" y="-61" font-family="Helvetica,sans-Serif" font-size="10.00">gsl/gsl_bspline.h</text>
</a>
</g>
</g>
<!-- Node6&#45;&gt;Node7 -->
<g id="edge6_Node000006_Node000007" class="edge">
<title>Node6&#45;&gt;Node7</title>
<g id="a_edge6_Node000006_Node000007"><a xlink:title=" ">
<path fill="none" stroke="#63b8ff" d="M591.12,-115.68C620.16,-105.74 666.96,-89.72 699.61,-78.54"/>
<polygon fill="#63b8ff" stroke="#63b8ff" points="700.34,-82 708.66,-75.45 698.07,-75.37 700.34,-82"/>
</a>
</g>
</g>
<!-- Node8 -->
<g id="Node000008" class="node">
<title>Node8</title>
<g id="a_Node000008"><a xlink:title=" ">
<polygon fill="#e0e0e0" stroke="#999999" points="884.5,-74.5 798.75,-74.5 798.75,-55.25 884.5,-55.25 884.5,-74.5"/>
<text text-anchor="middle" x="841.62" y="-61" font-family="Helvetica,sans-Serif" font-size="10.00">gsl/gsl_multifit.h</text>
</a>
</g>
</g>
<!-- Node6&#45;&gt;Node8 -->
<g id="edge7_Node000006_Node000008" class="edge">
<title>Node6&#45;&gt;Node8</title>
<g id="a_edge7_Node000006_Node000008"><a xlink:title=" ">
<path fill="none" stroke="#63b8ff" d="M607.3,-115.68C655.79,-105.37 735.03,-88.53 787.75,-77.33"/>
<polygon fill="#63b8ff" stroke="#63b8ff" points="788.37,-80.77 797.42,-75.27 786.91,-73.93 788.37,-80.77"/>
</a>
</g>
</g>
<!-- Node9 -->
<g id="Node000009" class="node">
<title>Node9</title>
<g id="a_Node000009"><a xlink:title=" ">
<polygon fill="#e0e0e0" stroke="#999999" points="508.25,-74.5 463,-74.5 463,-55.25 508.25,-55.25 508.25,-74.5"/>
<text text-anchor="middle" x="485.62" y="-61" font-family="Helvetica,sans-Serif" font-size="10.00">cstring</text>
</a>
</g>
</g>
<!-- Node6&#45;&gt;Node9 -->
<g id="edge8_Node000006_Node000009" class="edge">
<title>Node6&#45;&gt;Node9</title>
<g id="a_edge8_Node000006_Node000009"><a xlink:title=" ">
<path fill="none" stroke="#63b8ff" d="M552.63,-115.81C540.45,-106.73 521.34,-92.49 506.64,-81.54"/>
<polygon fill="#63b8ff" stroke="#63b8ff" points="509.06,-78.97 498.95,-75.81 504.88,-84.59 509.06,-78.97"/>
</a>
</g>
</g>
<!-- Node10 -->
<g id="Node000010" class="node">
<title>Node10</title>
<g id="a_Node000010"><a xlink:title=" ">
<polygon fill="#e0e0e0" stroke="#999999" points="406.12,-74.5 357.12,-74.5 357.12,-55.25 406.12,-55.25 406.12,-74.5"/>
<text text-anchor="middle" x="381.62" y="-61" font-family="Helvetica,sans-Serif" font-size="10.00">fstream</text>
</a>
</g>
</g>
<!-- Node6&#45;&gt;Node10 -->
<g id="edge9_Node000006_Node000010" class="edge">
<title>Node6&#45;&gt;Node10</title>
<g id="a_edge9_Node000006_Node000010"><a xlink:title=" ">
<path fill="none" stroke="#63b8ff" d="M536.43,-115.68C504.41,-105.38 452.09,-88.54 417.26,-77.34"/>
<polygon fill="#63b8ff" stroke="#63b8ff" points="418.65,-74.11 408.05,-74.38 416.5,-80.77 418.65,-74.11"/>
</a>
</g>
</g>
<!-- Node11 -->
<g id="Node000011" class="node">
<title>Node11</title>
<g id="a_Node000011"><a xlink:title=" ">
<polygon fill="#e0e0e0" stroke="#999999" points="674.38,-74.5 620.88,-74.5 620.88,-55.25 674.38,-55.25 674.38,-74.5"/>
<text text-anchor="middle" x="647.62" y="-61" font-family="Helvetica,sans-Serif" font-size="10.00">iostream</text>
</a>
</g>
</g>
<!-- Node6&#45;&gt;Node11 -->
<g id="edge10_Node000006_Node000011" class="edge">
<title>Node6&#45;&gt;Node11</title>
<g id="a_edge10_Node000006_Node000011"><a xlink:title=" ">
<path fill="none" stroke="#63b8ff" d="M577.23,-115.81C590.03,-106.73 610.1,-92.49 625.54,-81.54"/>
<polygon fill="#63b8ff" stroke="#63b8ff" points="627.53,-84.42 633.67,-75.78 623.48,-78.71 627.53,-84.42"/>
</a>
</g>
</g>
<!-- Node6&#45;&gt;Node12 -->
<g id="edge13_Node000006_Node000012" class="edge">
<title>Node6&#45;&gt;Node12</title>
<g id="a_edge13_Node000006_Node000012"><a xlink:title=" ">
<path fill="none" stroke="#63b8ff" d="M616.2,-117.71C686.43,-108.1 816.07,-90.25 926.62,-74.5 927.47,-74.38 928.32,-74.26 929.18,-74.14"/>
<polygon fill="#63b8ff" stroke="#63b8ff" points="929.63,-77.61 939.03,-72.72 928.64,-70.68 929.63,-77.61"/>
</a>
</g>
</g>
<!-- Node13 -->
<g id="Node000013" class="node">
<title>Node13</title>
<g id="a_Node000013"><a xlink:href="cone_8hpp.html" target="_top" xlink:title=" ">
<polygon fill="white" stroke="#666666" points="602.62,-74.5 526.62,-74.5 526.62,-55.25 602.62,-55.25 602.62,-74.5"/>
<text text-anchor="middle" x="564.62" y="-61" font-family="Helvetica,sans-Serif" font-size="10.00">utils/cone.hpp</text>
</a>
</g>
</g>
<!-- Node6&#45;&gt;Node13 -->
<g id="edge14_Node000006_Node000013" class="edge">
<title>Node6&#45;&gt;Node13</title>
<g id="a_edge14_Node000006_Node000013"><a xlink:title=" ">
<path fill="none" stroke="#63b8ff" d="M564.62,-115.81C564.62,-108.03 564.62,-96.45 564.62,-86.41"/>
<polygon fill="#63b8ff" stroke="#63b8ff" points="568.13,-86.41 564.63,-76.41 561.13,-86.41 568.13,-86.41"/>
</a>
</g>
</g>
<!-- Node13&#45;&gt;Node4 -->
<g id="edge16_Node000013_Node000004" class="edge">
<title>Node13&#45;&gt;Node4</title>
<g id="a_edge16_Node000013_Node000004"><a xlink:title=" ">
<path fill="none" stroke="#63b8ff" d="M603.08,-56.71C605.97,-56.2 608.84,-55.71 611.62,-55.25 709.5,-39.02 825.76,-22.59 880.76,-14.98"/>
<polygon fill="#63b8ff" stroke="#63b8ff" points="881.22,-18.45 890.65,-13.62 880.27,-11.52 881.22,-18.45"/>
</a>
</g>
</g>
<!-- Node13&#45;&gt;Node5 -->
<g id="edge17_Node000013_Node000005" class="edge">
<title>Node13&#45;&gt;Node5</title>
<g id="a_edge17_Node000013_Node000005"><a xlink:title=" ">
<path fill="none" stroke="#63b8ff" d="M530.36,-54.84C492.62,-44.89 432.37,-29.01 395.28,-19.23"/>
<polygon fill="#63b8ff" stroke="#63b8ff" points="396.59,-15.96 386.03,-16.79 394.8,-22.73 396.59,-15.96"/>
</a>
</g>
</g>
<!-- Node14 -->
<g id="Node000014" class="node">
<title>Node14</title>
<g id="a_Node000014"><a xlink:title=" ">
<polygon fill="#e0e0e0" stroke="#999999" points="516.12,-19.25 473.12,-19.25 473.12,0 516.12,0 516.12,-19.25"/>
<text text-anchor="middle" x="494.62" y="-5.75" font-family="Helvetica,sans-Serif" font-size="10.00">cmath</text>
</a>
</g>
</g>
<!-- Node13&#45;&gt;Node14 -->
<g id="edge15_Node000013_Node000014" class="edge">
<title>Node13&#45;&gt;Node14</title>
<g id="a_edge15_Node000013_Node000014"><a xlink:title=" ">
<path fill="none" stroke="#63b8ff" d="M552.75,-54.84C542.53,-47.07 527.55,-35.67 515.36,-26.4"/>
<polygon fill="#63b8ff" stroke="#63b8ff" points="517.61,-23.71 507.53,-20.44 513.37,-29.28 517.61,-23.71"/>
</a>
</g>
</g>
<!-- Node15&#45;&gt;Node5 -->
<g id="edge22_Node000015_Node000005" class="edge">
<title>Node15&#45;&gt;Node5</title>
<g id="a_edge22_Node000015_Node000005"><a xlink:title=" ">
<path fill="none" stroke="#63b8ff" d="M343.75,-115.69C328.38,-102.78 304.66,-78.11 314.62,-55.25 319.67,-43.67 329.36,-33.74 338.73,-26.21"/>
<polygon fill="#63b8ff" stroke="#63b8ff" points="340.62,-29.17 346.58,-20.41 336.46,-23.54 340.62,-29.17"/>
</a>
</g>
</g>
<!-- Node15&#45;&gt;Node10 -->
<g id="edge21_Node000015_Node000010" class="edge">
<title>Node15&#45;&gt;Node10</title>
<g id="a_edge21_Node000015_Node000010"><a xlink:title=" ">
<path fill="none" stroke="#63b8ff" d="M359.57,-115.81C363.12,-107.77 368.46,-95.68 373,-85.41"/>
<polygon fill="#63b8ff" stroke="#63b8ff" points="376.19,-86.85 377.03,-76.29 369.79,-84.02 376.19,-86.85"/>
</a>
</g>
</g>
<!-- Node15&#45;&gt;Node14 -->
<g id="edge20_Node000015_Node000014" class="edge">
<title>Node15&#45;&gt;Node14</title>
<g id="a_edge20_Node000015_Node000014"><a xlink:title=" ">
<path fill="none" stroke="#63b8ff" d="M351.14,-116.07C344.49,-101.86 334.17,-73.4 347.62,-55.25 373.63,-20.18 426.48,-11.71 461.22,-10.17"/>
<polygon fill="#63b8ff" stroke="#63b8ff" points="461.25,-13.67 471.16,-9.92 461.08,-6.67 461.25,-13.67"/>
</a>
</g>
</g>
</g>
</svg>

<g id="navigator" transform="translate(0 0)" fill="#404254">
  <rect fill="#f2f5e9" fill-opacity="0.5" stroke="#606060" stroke-width=".5" x="0" y="0" width="60" height="60"/>
  <use id="zoomplus" xlink:href="#zoomPlus" x="17" y="9" onmousedown="handleZoom(evt,'in')"/>
  <use id="zoomminus" xlink:href="#zoomMin" x="42" y="9" onmousedown="handleZoom(evt,'out')"/>
  <use id="reset" xlink:href="#resetDef" x="30" y="36" onmousedown="handleReset()"/>
   <use id="arrowup" xlink:href="#arrowUp" x="0" y="0" onmousedown="handlePan(0,-1)"/>
  <use id="arrowright" xlink:href="#arrowRight" x="0" y="0" onmousedown="handlePan(1,0)"/>
  <use id="arrowdown" xlink:href="#arrowDown" x="0" y="0" onmousedown="handlePan(0,1)"/>
  <use id="arrowleft" xlink:href="#arrowLeft" x="0" y="0" onmousedown="handlePan(-1,0)"/>
</g>
<svg viewBox="0 0 15 15" width="100%" height="30px" preserveAspectRatio="xMaxYMin meet">
 <g id="arrow_out" transform="scale(0.3 0.3)">
  <a xlink:href="files_8hpp__incl_org.svg" target="_base">
   <rect id="button" ry="5" rx="5" y="6" x="6" height="38" width="38"
        fill="#f2f5e9" fill-opacity="0.5" stroke="#606060" stroke-width="1.0"/>
   <path id="arrow"
     d="M 11.500037,31.436501 C 11.940474,20.09759 22.043105,11.32322 32.158766,21.979434 L 37.068811,17.246167 C 37.068811,17.246167 37.088388,32 37.088388,32 L 22.160133,31.978069 C 22.160133,31.978069 26.997745,27.140456 26.997745,27.140456 C 18.528582,18.264221 13.291696,25.230495 11.500037,31.436501 z"
     style="fill:#404040;"/>
  </a>
 </g>
</svg>

<style type='text/css'>
<![CDATA[
[data-mouse-over-selected='false'] { opacity: 0.7; }
[data-mouse-over-selected='true']  { opacity: 1.0; }
]]>
</style>
<script type="application/ecmascript"><![CDATA[
document.addEventListener('DOMContentLoaded', (event) => {
  highlightEdges();
  highlightAdjacentNodes();
});
]]></script>
</svg>
