<?xml version="1.0" encoding="UTF-8" standalone="no"?>
<!DOCTYPE svg PUBLIC "-//W3C//DTD SVG 1.1//EN"
 "http://www.w3.org/Graphics/SVG/1.1/DTD/svg11.dtd">
<!-- Generated by graphviz version 9.0.0 (20230911.1827)
 -->
<!-- Title: src/planning/planning/src/utils/files.cpp Pages: 1 -->
<svg width="830pt" height="271pt"
 viewBox="0.00 0.00 829.94 270.75" xmlns="http://www.w3.org/2000/svg" xmlns:xlink="http://www.w3.org/1999/xlink">
<g id="graph0" class="graph" transform="scale(1 1) rotate(0) translate(4 266.75)">
<title>src/planning/planning/src/utils/files.cpp</title>
<!-- Node1 -->
<g id="Node000001" class="node">
<title>Node1</title>
<g id="a_Node000001"><a xlink:title=" ">
<polygon fill="#999999" stroke="#666666" points="370.49,-262.75 262.99,-262.75 262.99,-232.25 370.49,-232.25 370.49,-262.75"/>
<text text-anchor="start" x="270.99" y="-249.25" font-family="Helvetica,sans-Serif" font-size="10.00">src/planning/planning</text>
<text text-anchor="middle" x="316.74" y="-238" font-family="Helvetica,sans-Serif" font-size="10.00">/src/utils/files.cpp</text>
</a>
</g>
</g>
<!-- Node2 -->
<g id="Node000002" class="node">
<title>Node2</title>
<g id="a_Node000002"><a xlink:href="files_8hpp.html" target="_top" xlink:title=" ">
<polygon fill="white" stroke="#666666" points="442.86,-196.25 370.61,-196.25 370.61,-177 442.86,-177 442.86,-196.25"/>
<text text-anchor="middle" x="406.74" y="-182.75" font-family="Helvetica,sans-Serif" font-size="10.00">utils/files.hpp</text>
</a>
</g>
</g>
<!-- Node1&#45;&gt;Node2 -->
<g id="edge1_Node000001_Node000002" class="edge">
<title>Node1&#45;&gt;Node2</title>
<g id="a_edge1_Node000001_Node000002"><a xlink:title=" ">
<path fill="none" stroke="#63b8ff" d="M338.99,-231.95C352.56,-223.07 369.88,-211.74 383.61,-202.76"/>
<polygon fill="#63b8ff" stroke="#63b8ff" points="385.15,-205.93 391.6,-197.53 381.31,-200.08 385.15,-205.93"/>
</a>
</g>
</g>
<!-- Node4 -->
<g id="Node000004" class="node">
<title>Node4</title>
<g id="a_Node000004"><a xlink:title=" ">
<polygon fill="#e0e0e0" stroke="#999999" points="78.49,-135.38 18.99,-135.38 18.99,-116.12 78.49,-116.12 78.49,-135.38"/>
<text text-anchor="middle" x="48.74" y="-121.88" font-family="Helvetica,sans-Serif" font-size="10.00">filesystem</text>
</a>
</g>
</g>
<!-- Node1&#45;&gt;Node4 -->
<g id="edge25_Node000001_Node000004" class="edge">
<title>Node1&#45;&gt;Node4</title>
<g id="a_edge25_Node000001_Node000004"><a xlink:title=" ">
<path fill="none" stroke="#63b8ff" d="M283.88,-231.82C231.53,-208.43 129.95,-163.04 79.17,-140.35"/>
<polygon fill="#63b8ff" stroke="#63b8ff" points="80.8,-137.24 70.24,-136.36 77.94,-143.63 80.8,-137.24"/>
</a>
</g>
</g>
<!-- Node5 -->
<g id="Node000005" class="node">
<title>Node5</title>
<g id="a_Node000005"><a xlink:title=" ">
<polygon fill="#e0e0e0" stroke="#999999" points="67.74,-19.25 27.74,-19.25 27.74,0 67.74,0 67.74,-19.25"/>
<text text-anchor="middle" x="47.74" y="-5.75" font-family="Helvetica,sans-Serif" font-size="10.00">string</text>
</a>
</g>
</g>
<!-- Node1&#45;&gt;Node5 -->
<g id="edge26_Node000001_Node000005" class="edge">
<title>Node1&#45;&gt;Node5</title>
<g id="a_edge26_Node000001_Node000005"><a xlink:title=" ">
<path fill="none" stroke="#63b8ff" d="M262.54,-245.83C190.82,-241.66 66.82,-222.3 9.74,-141 -14.77,-106.1 14.33,-55.42 33.52,-28.69"/>
<polygon fill="#63b8ff" stroke="#63b8ff" points="36.15,-31.02 39.34,-20.92 30.55,-26.82 36.15,-31.02"/>
</a>
</g>
</g>
<!-- Node6 -->
<g id="Node000006" class="node">
<title>Node6</title>
<g id="a_Node000006"><a xlink:title=" ">
<polygon fill="#e0e0e0" stroke="#999999" points="817.24,-19.25 774.24,-19.25 774.24,0 817.24,0 817.24,-19.25"/>
<text text-anchor="middle" x="795.74" y="-5.75" font-family="Helvetica,sans-Serif" font-size="10.00">vector</text>
</a>
</g>
</g>
<!-- Node1&#45;&gt;Node6 -->
<g id="edge27_Node000001_Node000006" class="edge">
<title>Node1&#45;&gt;Node6</title>
<g id="a_edge27_Node000001_Node000006"><a xlink:title=" ">
<path fill="none" stroke="#63b8ff" d="M370.96,-241.82C483.94,-230.97 739.1,-200.37 799.74,-141 827.44,-113.88 823.85,-93.16 815.74,-55.25 813.85,-46.44 810.09,-37.26 806.34,-29.54"/>
<polygon fill="#63b8ff" stroke="#63b8ff" points="809.5,-28.04 801.76,-20.81 803.31,-31.29 809.5,-28.04"/>
</a>
</g>
</g>
<!-- Node3 -->
<g id="Node000003" class="node">
<title>Node3</title>
<g id="a_Node000003"><a xlink:title=" ">
<polygon fill="#e0e0e0" stroke="#999999" points="337.36,-141 190.11,-141 190.11,-110.5 337.36,-110.5 337.36,-141"/>
<text text-anchor="start" x="198.11" y="-127.5" font-family="Helvetica,sans-Serif" font-size="10.00">ament_index_cpp/get</text>
<text text-anchor="middle" x="263.74" y="-116.25" font-family="Helvetica,sans-Serif" font-size="10.00">_package_share_directory.hpp</text>
</a>
</g>
</g>
<!-- Node2&#45;&gt;Node3 -->
<g id="edge2_Node000002_Node000003" class="edge">
<title>Node2&#45;&gt;Node3</title>
<g id="a_edge2_Node000002_Node000003"><a xlink:title=" ">
<path fill="none" stroke="#63b8ff" d="M384.71,-176.55C364.83,-168.37 334.94,-156.06 309.85,-145.73"/>
<polygon fill="#63b8ff" stroke="#63b8ff" points="311.41,-142.59 300.83,-142.02 308.74,-149.06 311.41,-142.59"/>
</a>
</g>
</g>
<!-- Node2&#45;&gt;Node4 -->
<g id="edge3_Node000002_Node000004" class="edge">
<title>Node2&#45;&gt;Node4</title>
<g id="a_edge3_Node000002_Node000004"><a xlink:title=" ">
<path fill="none" stroke="#63b8ff" d="M370.58,-182.53C311.77,-177.03 191.99,-163.94 92.74,-141 90.16,-140.4 87.53,-139.73 84.88,-139"/>
<polygon fill="#63b8ff" stroke="#63b8ff" points="86.16,-135.73 75.57,-136.22 84.16,-142.44 86.16,-135.73"/>
</a>
</g>
</g>
<!-- Node2&#45;&gt;Node5 -->
<g id="edge4_Node000002_Node000005" class="edge">
<title>Node2&#45;&gt;Node5</title>
<g id="a_edge4_Node000002_Node000005"><a xlink:title=" ">
<path fill="none" stroke="#63b8ff" d="M370.14,-182.06C324.61,-176.8 245.03,-164.9 180.74,-141 124.67,-120.16 99.92,-122.13 63.74,-74.5 54.2,-61.95 50.3,-44.38 48.72,-30.84"/>
<polygon fill="#63b8ff" stroke="#63b8ff" points="52.22,-30.6 47.94,-20.91 45.24,-31.15 52.22,-30.6"/>
</a>
</g>
</g>
<!-- Node2&#45;&gt;Node6 -->
<g id="edge5_Node000002_Node000006" class="edge">
<title>Node2&#45;&gt;Node6</title>
<g id="a_edge5_Node000002_Node000006"><a xlink:title=" ">
<path fill="none" stroke="#63b8ff" d="M443.34,-183.63C531.97,-178.46 752.57,-163.47 776.74,-141 806.95,-112.92 804.03,-59.71 799.66,-30.71"/>
<polygon fill="#63b8ff" stroke="#63b8ff" points="803.15,-30.33 797.99,-21.07 796.25,-31.53 803.15,-30.33"/>
</a>
</g>
</g>
<!-- Node7 -->
<g id="Node000007" class="node">
<title>Node7</title>
<g id="a_Node000007"><a xlink:href="track_8hpp.html" target="_top" xlink:title=" ">
<polygon fill="white" stroke="#666666" points="457.86,-135.38 355.61,-135.38 355.61,-116.12 457.86,-116.12 457.86,-135.38"/>
<text text-anchor="middle" x="406.74" y="-121.88" font-family="Helvetica,sans-Serif" font-size="10.00">../planning/track.hpp</text>
</a>
</g>
</g>
<!-- Node2&#45;&gt;Node7 -->
<g id="edge6_Node000002_Node000007" class="edge">
<title>Node2&#45;&gt;Node7</title>
<g id="a_edge6_Node000002_Node000007"><a xlink:title=" ">
<path fill="none" stroke="#63b8ff" d="M401.73,-176.68C400.08,-168.82 399.61,-157.07 400.29,-146.95"/>
<polygon fill="#63b8ff" stroke="#63b8ff" points="403.73,-147.64 401.52,-137.28 396.79,-146.76 403.73,-147.64"/>
</a>
</g>
</g>
<!-- Node13 -->
<g id="Node000013" class="node">
<title>Node13</title>
<g id="a_Node000013"><a xlink:title=" ">
<polygon fill="#e0e0e0" stroke="#999999" points="662.49,-74.5 572.99,-74.5 572.99,-55.25 662.49,-55.25 662.49,-74.5"/>
<text text-anchor="middle" x="617.74" y="-61" font-family="Helvetica,sans-Serif" font-size="10.00">rclcpp/rclcpp.hpp</text>
</a>
</g>
</g>
<!-- Node2&#45;&gt;Node13 -->
<g id="edge24_Node000002_Node000013" class="edge">
<title>Node2&#45;&gt;Node13</title>
<g id="a_edge24_Node000002_Node000013"><a xlink:title=" ">
<path fill="none" stroke="#63b8ff" d="M422.6,-176.62C458.72,-156.12 547.42,-105.79 591.7,-80.65"/>
<polygon fill="#63b8ff" stroke="#63b8ff" points="593.41,-83.71 600.38,-75.73 589.96,-77.62 593.41,-83.71"/>
</a>
</g>
</g>
<!-- Node16 -->
<g id="Node000016" class="node">
<title>Node16</title>
<g id="a_Node000016"><a xlink:href="planning_2planning_2include_2utils_2position_8hpp.html" target="_top" xlink:title=" ">
<polygon fill="white" stroke="#666666" points="767.24,-135.38 694.24,-135.38 694.24,-116.12 767.24,-116.12 767.24,-135.38"/>
<text text-anchor="middle" x="730.74" y="-121.88" font-family="Helvetica,sans-Serif" font-size="10.00">./position.hpp</text>
</a>
</g>
</g>
<!-- Node2&#45;&gt;Node16 -->
<g id="edge20_Node000002_Node000016" class="edge">
<title>Node2&#45;&gt;Node16</title>
<g id="a_edge20_Node000002_Node000016"><a xlink:title=" ">
<path fill="none" stroke="#63b8ff" d="M443.28,-178.99C501.98,-168.32 617.31,-147.36 682.64,-135.49"/>
<polygon fill="#63b8ff" stroke="#63b8ff" points="683.14,-138.96 692.35,-133.73 681.88,-132.07 683.14,-138.96"/>
</a>
</g>
</g>
<!-- Node7&#45;&gt;Node2 -->
<g id="edge19_Node000007_Node000002" class="edge">
<title>Node7&#45;&gt;Node2</title>
<g id="a_edge19_Node000007_Node000002"><a xlink:title=" ">
<path fill="none" stroke="#63b8ff" d="M411.77,-135.78C413.4,-143.67 413.87,-155.42 413.18,-165.53"/>
<polygon fill="#63b8ff" stroke="#63b8ff" points="409.74,-164.82 411.94,-175.18 416.68,-165.71 409.74,-164.82"/>
</a>
</g>
</g>
<!-- Node7&#45;&gt;Node5 -->
<g id="edge12_Node000007_Node000005" class="edge">
<title>Node7&#45;&gt;Node5</title>
<g id="a_edge12_Node000007_Node000005"><a xlink:title=" ">
<path fill="none" stroke="#63b8ff" d="M371.01,-115.67C363.05,-113.81 354.63,-111.98 346.74,-110.5 231.64,-88.95 183.33,-139.22 85.74,-74.5 69.96,-64.03 59.78,-44.57 53.97,-29.87"/>
<polygon fill="#63b8ff" stroke="#63b8ff" points="57.39,-29.03 50.73,-20.79 50.79,-31.39 57.39,-29.03"/>
</a>
</g>
</g>
<!-- Node7&#45;&gt;Node6 -->
<g id="edge13_Node000007_Node000006" class="edge">
<title>Node7&#45;&gt;Node6</title>
<g id="a_edge13_Node000007_Node000006"><a xlink:title=" ">
<path fill="none" stroke="#63b8ff" d="M429.31,-115.76C453.4,-106.05 492.58,-89.88 525.74,-74.5 542.91,-66.54 545.83,-61.38 563.74,-55.25 632.32,-31.8 716.76,-19.46 762.49,-14.07"/>
<polygon fill="#63b8ff" stroke="#63b8ff" points="762.74,-17.56 772.28,-12.96 761.95,-10.61 762.74,-17.56"/>
</a>
</g>
</g>
<!-- Node8 -->
<g id="Node000008" class="node">
<title>Node8</title>
<g id="a_Node000008"><a xlink:title=" ">
<polygon fill="#e0e0e0" stroke="#999999" points="182.74,-74.5 94.74,-74.5 94.74,-55.25 182.74,-55.25 182.74,-74.5"/>
<text text-anchor="middle" x="138.74" y="-61" font-family="Helvetica,sans-Serif" font-size="10.00">gsl/gsl_bspline.h</text>
</a>
</g>
</g>
<!-- Node7&#45;&gt;Node8 -->
<g id="edge7_Node000007_Node000008" class="edge">
<title>Node7&#45;&gt;Node8</title>
<g id="a_edge7_Node000007_Node000008"><a xlink:title=" ">
<path fill="none" stroke="#63b8ff" d="M369,-115.65C361.63,-113.91 353.94,-112.13 346.74,-110.5 294.93,-98.79 235.69,-86.15 193.72,-77.33"/>
<polygon fill="#63b8ff" stroke="#63b8ff" points="194.61,-73.94 184.11,-75.31 193.17,-80.79 194.61,-73.94"/>
</a>
</g>
</g>
<!-- Node9 -->
<g id="Node000009" class="node">
<title>Node9</title>
<g id="a_Node000009"><a xlink:title=" ">
<polygon fill="#e0e0e0" stroke="#999999" points="286.61,-74.5 200.86,-74.5 200.86,-55.25 286.61,-55.25 286.61,-74.5"/>
<text text-anchor="middle" x="243.74" y="-61" font-family="Helvetica,sans-Serif" font-size="10.00">gsl/gsl_multifit.h</text>
</a>
</g>
</g>
<!-- Node7&#45;&gt;Node9 -->
<g id="edge8_Node000007_Node000009" class="edge">
<title>Node7&#45;&gt;Node9</title>
<g id="a_edge8_Node000007_Node000009"><a xlink:title=" ">
<path fill="none" stroke="#63b8ff" d="M381.63,-115.68C354.35,-105.83 310.53,-90 279.63,-78.84"/>
<polygon fill="#63b8ff" stroke="#63b8ff" points="280.9,-75.58 270.3,-75.47 278.52,-82.16 280.9,-75.58"/>
</a>
</g>
</g>
<!-- Node10 -->
<g id="Node000010" class="node">
<title>Node10</title>
<g id="a_Node000010"><a xlink:title=" ">
<polygon fill="#e0e0e0" stroke="#999999" points="350.36,-74.5 305.11,-74.5 305.11,-55.25 350.36,-55.25 350.36,-74.5"/>
<text text-anchor="middle" x="327.74" y="-61" font-family="Helvetica,sans-Serif" font-size="10.00">cstring</text>
</a>
</g>
</g>
<!-- Node7&#45;&gt;Node10 -->
<g id="edge9_Node000007_Node000010" class="edge">
<title>Node7&#45;&gt;Node10</title>
<g id="a_edge9_Node000007_Node000010"><a xlink:title=" ">
<path fill="none" stroke="#63b8ff" d="M394.74,-115.81C382.56,-106.73 363.45,-92.49 348.76,-81.54"/>
<polygon fill="#63b8ff" stroke="#63b8ff" points="351.17,-78.97 341.06,-75.81 346.99,-84.59 351.17,-78.97"/>
</a>
</g>
</g>
<!-- Node11 -->
<g id="Node000011" class="node">
<title>Node11</title>
<g id="a_Node000011"><a xlink:title=" ">
<polygon fill="#e0e0e0" stroke="#999999" points="729.24,-74.5 680.24,-74.5 680.24,-55.25 729.24,-55.25 729.24,-74.5"/>
<text text-anchor="middle" x="704.74" y="-61" font-family="Helvetica,sans-Serif" font-size="10.00">fstream</text>
</a>
</g>
</g>
<!-- Node7&#45;&gt;Node11 -->
<g id="edge10_Node000007_Node000011" class="edge">
<title>Node7&#45;&gt;Node11</title>
<g id="a_edge10_Node000007_Node000011"><a xlink:title=" ">
<path fill="none" stroke="#63b8ff" d="M458.25,-116.06C509.4,-107.18 590.29,-92.51 668.85,-75.04"/>
<polygon fill="#63b8ff" stroke="#63b8ff" points="669.45,-78.49 678.44,-72.89 667.92,-71.66 669.45,-78.49"/>
</a>
</g>
</g>
<!-- Node12 -->
<g id="Node000012" class="node">
<title>Node12</title>
<g id="a_Node000012"><a xlink:title=" ">
<polygon fill="#e0e0e0" stroke="#999999" points="516.49,-74.5 462.99,-74.5 462.99,-55.25 516.49,-55.25 516.49,-74.5"/>
<text text-anchor="middle" x="489.74" y="-61" font-family="Helvetica,sans-Serif" font-size="10.00">iostream</text>
</a>
</g>
</g>
<!-- Node7&#45;&gt;Node12 -->
<g id="edge11_Node000007_Node000012" class="edge">
<title>Node7&#45;&gt;Node12</title>
<g id="a_edge11_Node000007_Node000012"><a xlink:title=" ">
<path fill="none" stroke="#63b8ff" d="M419.35,-115.81C432.14,-106.73 452.22,-92.49 467.66,-81.54"/>
<polygon fill="#63b8ff" stroke="#63b8ff" points="469.65,-84.42 475.78,-75.78 465.6,-78.71 469.65,-84.42"/>
</a>
</g>
</g>
<!-- Node7&#45;&gt;Node13 -->
<g id="edge14_Node000007_Node000013" class="edge">
<title>Node7&#45;&gt;Node13</title>
<g id="a_edge14_Node000007_Node000013"><a xlink:title=" ">
<path fill="none" stroke="#63b8ff" d="M439.25,-115.68C475.41,-105.59 534.02,-89.23 574.15,-78.04"/>
<polygon fill="#63b8ff" stroke="#63b8ff" points="575.05,-81.42 583.74,-75.36 573.17,-74.68 575.05,-81.42"/>
</a>
</g>
</g>
<!-- Node14 -->
<g id="Node000014" class="node">
<title>Node14</title>
<g id="a_Node000014"><a xlink:href="cone_8hpp.html" target="_top" xlink:title=" ">
<polygon fill="white" stroke="#666666" points="444.74,-74.5 368.74,-74.5 368.74,-55.25 444.74,-55.25 444.74,-74.5"/>
<text text-anchor="middle" x="406.74" y="-61" font-family="Helvetica,sans-Serif" font-size="10.00">utils/cone.hpp</text>
</a>
</g>
</g>
<!-- Node7&#45;&gt;Node14 -->
<g id="edge15_Node000007_Node000014" class="edge">
<title>Node7&#45;&gt;Node14</title>
<g id="a_edge15_Node000007_Node000014"><a xlink:title=" ">
<path fill="none" stroke="#63b8ff" d="M406.74,-115.81C406.74,-108.03 406.74,-96.45 406.74,-86.41"/>
<polygon fill="#63b8ff" stroke="#63b8ff" points="410.24,-86.41 406.74,-76.41 403.24,-86.41 410.24,-86.41"/>
</a>
</g>
</g>
<!-- Node14&#45;&gt;Node5 -->
<g id="edge17_Node000014_Node000005" class="edge">
<title>Node14&#45;&gt;Node5</title>
<g id="a_edge17_Node000014_Node000005"><a xlink:title=" ">
<path fill="none" stroke="#63b8ff" d="M368.29,-56.69C365.4,-56.19 362.52,-55.7 359.74,-55.25 257.61,-38.58 136.1,-22.19 79.58,-14.76"/>
<polygon fill="#63b8ff" stroke="#63b8ff" points="80.09,-11.29 69.73,-13.47 79.19,-18.24 80.09,-11.29"/>
</a>
</g>
</g>
<!-- Node14&#45;&gt;Node6 -->
<g id="edge18_Node000014_Node000006" class="edge">
<title>Node14&#45;&gt;Node6</title>
<g id="a_edge18_Node000014_Node000006"><a xlink:title=" ">
<path fill="none" stroke="#63b8ff" d="M445.19,-56.65C448.08,-56.16 450.95,-55.69 453.74,-55.25 566.87,-37.5 701.84,-21.37 762.88,-14.34"/>
<polygon fill="#63b8ff" stroke="#63b8ff" points="763.04,-17.84 772.57,-13.23 762.24,-10.89 763.04,-17.84"/>
</a>
</g>
</g>
<!-- Node15 -->
<g id="Node000015" class="node">
<title>Node15</title>
<g id="a_Node000015"><a xlink:title=" ">
<polygon fill="#e0e0e0" stroke="#999999" points="592.24,-19.25 549.24,-19.25 549.24,0 592.24,0 592.24,-19.25"/>
<text text-anchor="middle" x="570.74" y="-5.75" font-family="Helvetica,sans-Serif" font-size="10.00">cmath</text>
</a>
</g>
</g>
<!-- Node14&#45;&gt;Node15 -->
<g id="edge16_Node000014_Node000015" class="edge">
<title>Node14&#45;&gt;Node15</title>
<g id="a_edge16_Node000014_Node000015"><a xlink:title=" ">
<path fill="none" stroke="#63b8ff" d="M434.56,-54.84C463.25,-45.53 507.94,-31.01 538.24,-21.18"/>
<polygon fill="#63b8ff" stroke="#63b8ff" points="539.21,-24.54 547.64,-18.12 537.05,-17.88 539.21,-24.54"/>
</a>
</g>
</g>
<!-- Node16&#45;&gt;Node6 -->
<g id="edge23_Node000016_Node000006" class="edge">
<title>Node16&#45;&gt;Node6</title>
<g id="a_edge23_Node000016_Node000006"><a xlink:title=" ">
<path fill="none" stroke="#63b8ff" d="M739.59,-115.8C748.64,-106.23 762.65,-90.31 771.74,-74.5 779.71,-60.65 785.94,-43.66 790.06,-30.69"/>
<polygon fill="#63b8ff" stroke="#63b8ff" points="793.39,-31.74 792.91,-21.16 786.69,-29.74 793.39,-31.74"/>
</a>
</g>
</g>
<!-- Node16&#45;&gt;Node11 -->
<g id="edge22_Node000016_Node000011" class="edge">
<title>Node16&#45;&gt;Node11</title>
<g id="a_edge22_Node000016_Node000011"><a xlink:title=" ">
<path fill="none" stroke="#63b8ff" d="M726.79,-115.81C723.24,-107.77 717.9,-95.68 713.37,-85.41"/>
<polygon fill="#63b8ff" stroke="#63b8ff" points="716.58,-84.02 709.34,-76.29 710.17,-86.85 716.58,-84.02"/>
</a>
</g>
</g>
<!-- Node16&#45;&gt;Node15 -->
<g id="edge21_Node000016_Node000015" class="edge">
<title>Node16&#45;&gt;Node15</title>
<g id="a_edge21_Node000016_Node000015"><a xlink:title=" ">
<path fill="none" stroke="#63b8ff" d="M735.3,-116.02C742.05,-101.73 752.51,-73.16 738.74,-55.25 722.43,-34.05 648.17,-20.81 604.02,-14.68"/>
<polygon fill="#63b8ff" stroke="#63b8ff" points="604.58,-11.22 594.21,-13.37 603.66,-18.16 604.58,-11.22"/>
</a>
</g>
</g>
</g>
</svg>
