<?xml version="1.0" encoding="UTF-8" standalone="no"?>
<!DOCTYPE svg PUBLIC "-//W3C//DTD SVG 1.1//EN"
 "http://www.w3.org/Graphics/SVG/1.1/DTD/svg11.dtd">
<!-- Generated by graphviz version 9.0.0 (20230911.1827)
 -->
<!-- Title: openWriteFile Pages: 1 -->
<svg width="582pt" height="233pt"
 viewBox="0.00 0.00 581.50 233.25" xmlns="http://www.w3.org/2000/svg" xmlns:xlink="http://www.w3.org/1999/xlink">
<g id="graph0" class="graph" transform="scale(1 1) rotate(0) translate(4 229.25)">
<title>openWriteFile</title>
<!-- Node1 -->
<g id="Node000001" class="node">
<title>Node1</title>
<g id="a_Node000001"><a xlink:title=" ">
<polygon fill="#999999" stroke="#666666" points="573.5,-148.25 498.25,-148.25 498.25,-129 573.5,-129 573.5,-148.25"/>
<text text-anchor="middle" x="535.88" y="-134.75" font-family="Helvetica,sans-Serif" font-size="10.00">openWriteFile</text>
</a>
</g>
</g>
<!-- Node2 -->
<g id="Node000002" class="node">
<title>Node2</title>
<g id="a_Node000002"><a xlink:href="classTrack.html#a621e3153e10358d3be704ac51bcc400d" target="_top" xlink:title="Delete outliers from the track.">
<polygon fill="white" stroke="#666666" points="459.25,-206.25 354,-206.25 354,-187 459.25,-187 459.25,-206.25"/>
<text text-anchor="middle" x="406.62" y="-192.75" font-family="Helvetica,sans-Serif" font-size="10.00">Track::deleteOutliers</text>
</a>
</g>
</g>
<!-- Node1&#45;&gt;Node2 -->
<g id="edge1_Node000001_Node000002" class="edge">
<title>Node1&#45;&gt;Node2</title>
<g id="a_edge1_Node000001_Node000002"><a xlink:title=" ">
<path fill="none" stroke="#63b8ff" d="M503.5,-153.51C490.74,-159.52 475.82,-166.47 462.25,-172.62 451.97,-177.29 440.54,-182.33 430.8,-186.59"/>
<polygon fill="#63b8ff" stroke="#63b8ff" points="504.73,-156.8 512.28,-149.37 501.74,-150.47 504.73,-156.8"/>
</a>
</g>
</g>
<!-- Node4 -->
<g id="Node000004" class="node">
<title>Node4</title>
<g id="a_Node000004"><a xlink:href="tests_8cpp.html#a079261152f3ac81df46a49a1b3fb0f2d" target="_top" xlink:title=" ">
<polygon fill="white" stroke="#666666" points="172.25,-169.25 76.75,-169.25 76.75,-150 172.25,-150 172.25,-169.25"/>
<text text-anchor="middle" x="124.5" y="-155.75" font-family="Helvetica,sans-Serif" font-size="10.00">outlierCalculations</text>
</a>
</g>
</g>
<!-- Node1&#45;&gt;Node4 -->
<g id="edge9_Node000001_Node000004" class="edge">
<title>Node1&#45;&gt;Node4</title>
<g id="a_edge9_Node000001_Node000004"><a xlink:title=" ">
<path fill="none" stroke="#63b8ff" d="M486.74,-141.09C407.65,-145.15 251.2,-153.18 172.72,-157.2"/>
<polygon fill="#63b8ff" stroke="#63b8ff" points="486.5,-144.61 496.31,-140.6 486.15,-137.62 486.5,-144.61"/>
</a>
</g>
</g>
<!-- Node10 -->
<g id="Node000010" class="node">
<title>Node10</title>
<g id="a_Node000010"><a xlink:href="tests_8cpp.html#aef57f8f537bed02c0940fcd1dde6144a" target="_top" xlink:title=" ">
<polygon fill="white" stroke="#666666" points="462.25,-111.25 351,-111.25 351,-92 462.25,-92 462.25,-111.25"/>
<text text-anchor="middle" x="406.62" y="-97.75" font-family="Helvetica,sans-Serif" font-size="10.00">processTriangulations</text>
</a>
</g>
</g>
<!-- Node1&#45;&gt;Node10 -->
<g id="edge10_Node000001_Node000010" class="edge">
<title>Node1&#45;&gt;Node10</title>
<g id="a_edge10_Node000001_Node000010"><a xlink:title=" ">
<path fill="none" stroke="#63b8ff" d="M489.2,-125.34C473.76,-120.86 456.8,-115.92 442.35,-111.72"/>
<polygon fill="#63b8ff" stroke="#63b8ff" points="488.07,-128.66 498.65,-128.09 490.02,-121.94 488.07,-128.66"/>
</a>
</g>
</g>
<!-- Node15 -->
<g id="Node000015" class="node">
<title>Node15</title>
<g id="a_Node000015"><a xlink:href="integration__tests_8cpp.html#ab54a29800640d74d1c9206fcbc7bd38e" target="_top" xlink:title=" ">
<polygon fill="white" stroke="#666666" points="432.62,-74.25 380.62,-74.25 380.62,-55 432.62,-55 432.62,-74.25"/>
<text text-anchor="middle" x="406.62" y="-60.75" font-family="Helvetica,sans-Serif" font-size="10.00">TEST_F</text>
</a>
</g>
</g>
<!-- Node1&#45;&gt;Node15 -->
<g id="edge15_Node000001_Node000015" class="edge">
<title>Node1&#45;&gt;Node15</title>
<g id="a_edge15_Node000001_Node000015"><a xlink:title=" ">
<path fill="none" stroke="#63b8ff" d="M516.11,-121.27C502.13,-109.08 482.1,-93.15 462.25,-82.62 453.16,-77.81 442.55,-73.95 433.1,-71.06"/>
<polygon fill="#63b8ff" stroke="#63b8ff" points="513.44,-123.58 523.23,-127.63 518.11,-118.36 513.44,-123.58"/>
</a>
</g>
</g>
<!-- Node3 -->
<g id="Node000003" class="node">
<title>Node3</title>
<g id="a_Node000003"><a xlink:href="classTrack.html#a23bfa04cf9977718fa8b482a6371c9b2" target="_top" xlink:title="Validate the cones in the track by deleting outliers.">
<polygon fill="white" stroke="#666666" points="315,-206.25 208.25,-206.25 208.25,-187 315,-187 315,-206.25"/>
<text text-anchor="middle" x="261.62" y="-192.75" font-family="Helvetica,sans-Serif" font-size="10.00">Track::validateCones</text>
</a>
</g>
</g>
<!-- Node2&#45;&gt;Node3 -->
<g id="edge2_Node000002_Node000003" class="edge">
<title>Node2&#45;&gt;Node3</title>
<g id="a_edge2_Node000002_Node000003"><a xlink:title=" ">
<path fill="none" stroke="#63b8ff" d="M342.32,-196.62C333.31,-196.62 324.12,-196.62 315.34,-196.62"/>
<polygon fill="#63b8ff" stroke="#63b8ff" points="342.08,-200.13 352.08,-196.63 342.08,-193.13 342.08,-200.13"/>
</a>
</g>
</g>
<!-- Node3&#45;&gt;Node4 -->
<g id="edge3_Node000003_Node000004" class="edge">
<title>Node3&#45;&gt;Node4</title>
<g id="a_edge3_Node000003_Node000004"><a xlink:title=" ">
<path fill="none" stroke="#63b8ff" d="M213.07,-183.6C196.43,-179.05 178.01,-174 162.38,-169.72"/>
<polygon fill="#63b8ff" stroke="#63b8ff" points="211.67,-186.85 222.24,-186.11 213.52,-180.1 211.67,-186.85"/>
</a>
</g>
</g>
<!-- Node9 -->
<g id="Node000009" class="node">
<title>Node9</title>
<g id="a_Node000009"><a xlink:href="tests_8cpp.html#ac9d004c8db77da8d75a6229a398bfcba" target="_top" xlink:title=" ">
<polygon fill="white" stroke="#666666" points="144.88,-206.25 104.12,-206.25 104.12,-187 144.88,-187 144.88,-206.25"/>
<text text-anchor="middle" x="124.5" y="-192.75" font-family="Helvetica,sans-Serif" font-size="10.00">TEST</text>
</a>
</g>
</g>
<!-- Node3&#45;&gt;Node9 -->
<g id="edge8_Node000003_Node000009" class="edge">
<title>Node3&#45;&gt;Node9</title>
<g id="a_edge8_Node000003_Node000009"><a xlink:title=" ">
<path fill="none" stroke="#63b8ff" d="M196.73,-196.62C177.96,-196.62 158.82,-196.62 145.11,-196.62"/>
<polygon fill="#63b8ff" stroke="#63b8ff" points="196.48,-200.13 206.48,-196.63 196.48,-193.13 196.48,-200.13"/>
</a>
</g>
</g>
<!-- Node5 -->
<g id="Node000005" class="node">
<title>Node5</title>
<g id="a_Node000005"><a xlink:href="tests_8cpp.html#aa39b06d40b7290dacc01a79720a31e09" target="_top" xlink:title=" ">
<polygon fill="white" stroke="#666666" points="40.75,-225.25 0,-225.25 0,-206 40.75,-206 40.75,-225.25"/>
<text text-anchor="middle" x="20.38" y="-211.75" font-family="Helvetica,sans-Serif" font-size="10.00">TEST</text>
</a>
</g>
</g>
<!-- Node4&#45;&gt;Node5 -->
<g id="edge4_Node000004_Node000005" class="edge">
<title>Node4&#45;&gt;Node5</title>
<g id="a_edge4_Node000004_Node000005"><a xlink:title=" ">
<path fill="none" stroke="#63b8ff" d="M84.02,-174.06C81.53,-175.2 79.09,-176.39 76.75,-177.62 61.27,-185.77 44.92,-197.42 34.03,-205.66"/>
<polygon fill="#63b8ff" stroke="#63b8ff" points="85.14,-177.38 92.96,-170.23 82.39,-170.95 85.14,-177.38"/>
</a>
</g>
</g>
<!-- Node6 -->
<g id="Node000006" class="node">
<title>Node6</title>
<g id="a_Node000006"><a xlink:href="tests_8cpp.html#a5436909e02106ab864f366dc30568a7d" target="_top" xlink:title=" ">
<polygon fill="white" stroke="#666666" points="40.75,-188.25 0,-188.25 0,-169 40.75,-169 40.75,-188.25"/>
<text text-anchor="middle" x="20.38" y="-174.75" font-family="Helvetica,sans-Serif" font-size="10.00">TEST</text>
</a>
</g>
</g>
<!-- Node4&#45;&gt;Node6 -->
<g id="edge5_Node000004_Node000006" class="edge">
<title>Node4&#45;&gt;Node6</title>
<g id="a_edge5_Node000004_Node000006"><a xlink:title=" ">
<path fill="none" stroke="#63b8ff" d="M65.24,-170.46C56.55,-172.08 48.14,-173.64 41.06,-174.96"/>
<polygon fill="#63b8ff" stroke="#63b8ff" points="65.64,-173.95 74.84,-168.68 64.36,-167.07 65.64,-173.95"/>
</a>
</g>
</g>
<!-- Node7 -->
<g id="Node000007" class="node">
<title>Node7</title>
<g id="a_Node000007"><a xlink:href="tests_8cpp.html#a6c463cf30fcc67ae6b2ff38e382cecd0" target="_top" xlink:title=" ">
<polygon fill="white" stroke="#666666" points="40.75,-151.25 0,-151.25 0,-132 40.75,-132 40.75,-151.25"/>
<text text-anchor="middle" x="20.38" y="-137.75" font-family="Helvetica,sans-Serif" font-size="10.00">TEST</text>
</a>
</g>
</g>
<!-- Node4&#45;&gt;Node7 -->
<g id="edge6_Node000004_Node000007" class="edge">
<title>Node4&#45;&gt;Node7</title>
<g id="a_edge6_Node000004_Node000007"><a xlink:title=" ">
<path fill="none" stroke="#63b8ff" d="M65.24,-149.36C56.55,-147.82 48.14,-146.34 41.06,-145.09"/>
<polygon fill="#63b8ff" stroke="#63b8ff" points="64.38,-152.76 74.83,-151.05 65.59,-145.86 64.38,-152.76"/>
</a>
</g>
</g>
<!-- Node8 -->
<g id="Node000008" class="node">
<title>Node8</title>
<g id="a_Node000008"><a xlink:href="tests_8cpp.html#a08dff1d6d2b732a0cd35660ad29e426e" target="_top" xlink:title=" ">
<polygon fill="white" stroke="#666666" points="40.75,-114.25 0,-114.25 0,-95 40.75,-95 40.75,-114.25"/>
<text text-anchor="middle" x="20.38" y="-100.75" font-family="Helvetica,sans-Serif" font-size="10.00">TEST</text>
</a>
</g>
</g>
<!-- Node4&#45;&gt;Node8 -->
<g id="edge7_Node000004_Node000008" class="edge">
<title>Node4&#45;&gt;Node8</title>
<g id="a_edge7_Node000004_Node000008"><a xlink:title=" ">
<path fill="none" stroke="#63b8ff" d="M95.01,-144.28C77.42,-134.81 55.36,-122.93 39.99,-114.65"/>
<polygon fill="#63b8ff" stroke="#63b8ff" points="92.97,-147.16 103.44,-148.82 96.29,-141 92.97,-147.16"/>
</a>
</g>
</g>
<!-- Node11 -->
<g id="Node000011" class="node">
<title>Node11</title>
<g id="a_Node000011"><a xlink:href="tests_8cpp.html#afdc65423b0a5a3ca636f3aacfb1dba56" target="_top" xlink:title=" ">
<polygon fill="white" stroke="#666666" points="282,-130.25 241.25,-130.25 241.25,-111 282,-111 282,-130.25"/>
<text text-anchor="middle" x="261.62" y="-116.75" font-family="Helvetica,sans-Serif" font-size="10.00">TEST</text>
</a>
</g>
</g>
<!-- Node10&#45;&gt;Node11 -->
<g id="edge11_Node000010_Node000011" class="edge">
<title>Node10&#45;&gt;Node11</title>
<g id="a_edge11_Node000010_Node000011"><a xlink:title=" ">
<path fill="none" stroke="#63b8ff" d="M339.59,-110.4C318.7,-113.17 297.19,-116.03 282.24,-118.02"/>
<polygon fill="#63b8ff" stroke="#63b8ff" points="339.79,-113.9 349.25,-109.12 338.87,-106.96 339.79,-113.9"/>
</a>
</g>
</g>
<!-- Node12 -->
<g id="Node000012" class="node">
<title>Node12</title>
<g id="a_Node000012"><a xlink:href="tests_8cpp.html#aa4387a361b1943b82c6e9ef915917c12" target="_top" xlink:title=" ">
<polygon fill="white" stroke="#666666" points="282,-93.25 241.25,-93.25 241.25,-74 282,-74 282,-93.25"/>
<text text-anchor="middle" x="261.62" y="-79.75" font-family="Helvetica,sans-Serif" font-size="10.00">TEST</text>
</a>
</g>
</g>
<!-- Node10&#45;&gt;Node12 -->
<g id="edge12_Node000010_Node000012" class="edge">
<title>Node10&#45;&gt;Node12</title>
<g id="a_edge12_Node000010_Node000012"><a xlink:title=" ">
<path fill="none" stroke="#63b8ff" d="M339.59,-93.31C318.7,-90.68 297.19,-87.98 282.24,-86.09"/>
<polygon fill="#63b8ff" stroke="#63b8ff" points="338.89,-96.75 349.24,-94.53 339.76,-89.81 338.89,-96.75"/>
</a>
</g>
</g>
<!-- Node13 -->
<g id="Node000013" class="node">
<title>Node13</title>
<g id="a_Node000013"><a xlink:href="tests_8cpp.html#a978f4baa8d39fb740ed92fd44ba50933" target="_top" xlink:title=" ">
<polygon fill="white" stroke="#666666" points="282,-56.25 241.25,-56.25 241.25,-37 282,-37 282,-56.25"/>
<text text-anchor="middle" x="261.62" y="-42.75" font-family="Helvetica,sans-Serif" font-size="10.00">TEST</text>
</a>
</g>
</g>
<!-- Node10&#45;&gt;Node13 -->
<g id="edge13_Node000010_Node000013" class="edge">
<title>Node10&#45;&gt;Node13</title>
<g id="a_edge13_Node000010_Node000013"><a xlink:title=" ">
<path fill="none" stroke="#63b8ff" d="M361.41,-87.76C357.86,-86.44 354.35,-85.05 351,-83.62 334.35,-76.55 331.6,-71.81 315,-64.62 304.41,-60.04 292.24,-55.8 282.3,-52.59"/>
<polygon fill="#63b8ff" stroke="#63b8ff" points="360.05,-91 370.65,-91.05 362.4,-84.4 360.05,-91"/>
</a>
</g>
</g>
<!-- Node14 -->
<g id="Node000014" class="node">
<title>Node14</title>
<g id="a_Node000014"><a xlink:href="tests_8cpp.html#aaff9fd771beea10b1e522702042da27c" target="_top" xlink:title=" ">
<polygon fill="white" stroke="#666666" points="282,-19.25 241.25,-19.25 241.25,0 282,0 282,-19.25"/>
<text text-anchor="middle" x="261.62" y="-5.75" font-family="Helvetica,sans-Serif" font-size="10.00">TEST</text>
</a>
</g>
</g>
<!-- Node10&#45;&gt;Node14 -->
<g id="edge14_Node000010_Node000014" class="edge">
<title>Node10&#45;&gt;Node14</title>
<g id="a_edge14_Node000010_Node000014"><a xlink:title=" ">
<path fill="none" stroke="#63b8ff" d="M354.59,-86.18C353.36,-85.37 352.15,-84.52 351,-83.62 327.61,-65.51 338.28,-45.89 315,-27.62 305.54,-20.21 292.84,-15.74 282.3,-13.11"/>
<polygon fill="#63b8ff" stroke="#63b8ff" points="352.87,-89.23 363.33,-90.89 356.19,-83.06 352.87,-89.23"/>
</a>
</g>
</g>
</g>
</svg>
