<?xml version="1.0" encoding="UTF-8" standalone="no"?>
<!DOCTYPE svg PUBLIC "-//W3C//DTD SVG 1.1//EN"
 "http://www.w3.org/Graphics/SVG/1.1/DTD/svg11.dtd">
<!-- Generated by graphviz version 9.0.0 (20230911.1827)
 -->
<!-- Title: src/planning/planning/include/utils/files.hpp Pages: 1 -->
<!--zoomable 327 -->

<svg id="main" version="1.1" xmlns="http://www.w3.org/2000/svg" xmlns:xlink="http://www.w3.org/1999/xlink" xml:space="preserve" onload="init(evt)">
<style type="text/css"><![CDATA[
.node, .edge {opacity: 0.7;}
.node.selected, .edge.selected {opacity: 1;}
.edge:hover path { stroke: red; }
.edge:hover polygon { stroke: red; fill: red; }
]]></style>

<defs>
  <circle id="rim" cx="0" cy="0" r="7"/>
  <circle id="rim2" cx="0" cy="0" r="3.5"/>
  <g id="zoomPlus">
    <use xlink:href="#rim" fill="#404040"><set attributeName="fill" to="#808080" begin="zoomplus.mouseover" end="zoomplus.mouseout"/></use>
    <path d="M-4,0h8M0,-4v8" fill="none" stroke="white" stroke-width="1.5" pointer-events="none"/>
  </g>
  <g id="zoomMin">
    <use xlink:href="#rim" fill="#404040"><set attributeName="fill" to="#808080" begin="zoomminus.mouseover" end="zoomminus.mouseout"/></use>
    <path d="M-4,0h8" fill="none" stroke="white" stroke-width="1.5" pointer-events="none"/>
  </g>
  <g id="arrowUp" transform="translate(30 24)">
    <use xlink:href="#rim"/>
    <path pointer-events="none" fill="none" stroke="white" stroke-width="1.5" d="M0,-3.0v7 M-2.5,-0.5L0,-3.0L2.5,-0.5"/>
  </g>
  <g id="arrowRight" transform="rotate(90) translate(36 -43)">
    <use xlink:href="#rim"/>
    <path pointer-events="none" fill="none" stroke="white" stroke-width="1.5" d="M0,-3.0v7 M-2.5,-0.5L0,-3.0L2.5,-0.5"/>
  </g>
  <g id="arrowDown" transform="rotate(180) translate(-30 -48)">
    <use xlink:href="#rim"/>
    <path pointer-events="none" fill="none" stroke="white" stroke-width="1.5" d="M0,-3.0v7 M-2.5,-0.5L0,-3.0L2.5,-0.5"/>
  </g>
  <g id="arrowLeft" transform="rotate(270) translate(-36 17)">
    <use xlink:href="#rim"/>
    <path pointer-events="none" fill="none" stroke="white" stroke-width="1.5" d="M0,-3.0v7 M-2.5,-0.5L0,-3.0L2.5,-0.5"/>
  </g>
  <g id="resetDef">
    <use xlink:href="#rim2" fill="#404040"><set attributeName="fill" to="#808080" begin="reset.mouseover" end="reset.mouseout"/></use>
  </g>
</defs>
<script type="application/ecmascript">
var viewWidth = 798;
var viewHeight = 327;
var sectionId = 'dynsection-1';
</script>
<script type="application/ecmascript" xlink:href="svg.min.js"/>
<svg id="graph" class="graph">
<g id="viewport">
<title>src/planning/planning/include/utils/files.hpp</title>
<!-- Node1 -->
<g id="Node000001" class="node">
<title>Node1</title>
<g id="a_Node000001"><a xlink:title=" ">
<polygon fill="#999999" stroke="#666666" points="444.98,-319 335.98,-319 335.98,-288.5 444.98,-288.5 444.98,-319"/>
<text text-anchor="start" x="343.98" y="-305.5" font-family="Helvetica,sans-Serif" font-size="10.00">src/planning/planning</text>
<text text-anchor="middle" x="390.48" y="-294.25" font-family="Helvetica,sans-Serif" font-size="10.00">/include/utils/files.hpp</text>
</a>
</g>
</g>
<!-- Node2 -->
<g id="Node000002" class="node">
<title>Node2</title>
<g id="a_Node000002"><a xlink:href="planning_8hpp.html" target="_top" xlink:title=" ">
<polygon fill="white" stroke="#666666" points="490.36,-102.62 344.61,-102.62 344.61,-72.12 490.36,-72.12 490.36,-102.62"/>
<text text-anchor="start" x="352.61" y="-89.12" font-family="Helvetica,sans-Serif" font-size="10.00">src/planning/planning</text>
<text text-anchor="middle" x="417.48" y="-77.88" font-family="Helvetica,sans-Serif" font-size="10.00">/include/planning/planning.hpp</text>
</a>
</g>
</g>
<!-- Node1&#45;&gt;Node2 -->
<g id="edge1_Node000001_Node000002" class="edge">
<title>Node1&#45;&gt;Node2</title>
<g id="a_edge1_Node000001_Node000002"><a xlink:title=" ">
<path fill="none" stroke="#63b8ff" d="M430.92,-282.52C464.45,-263.08 509.3,-230.15 526.48,-186 533.21,-168.71 536.16,-160.08 526.48,-144.25 514.45,-124.56 493.04,-111.53 472.36,-103.04"/>
<polygon fill="#63b8ff" stroke="#63b8ff" points="429.26,-279.44 422.25,-287.38 432.68,-285.55 429.26,-279.44"/>
</a>
</g>
</g>
<!-- Node5 -->
<g id="Node000005" class="node">
<title>Node5</title>
<g id="a_Node000005"><a xlink:href="planning_8cpp.html" target="_top" xlink:title=" ">
<polygon fill="white" stroke="#666666" points="322.73,-30.5 194.23,-30.5 194.23,0 322.73,0 322.73,-30.5"/>
<text text-anchor="start" x="202.23" y="-17" font-family="Helvetica,sans-Serif" font-size="10.00">src/planning/planning</text>
<text text-anchor="middle" x="258.48" y="-5.75" font-family="Helvetica,sans-Serif" font-size="10.00">/src/planning/planning.cpp</text>
</a>
</g>
</g>
<!-- Node1&#45;&gt;Node5 -->
<g id="edge19_Node000001_Node000005" class="edge">
<title>Node1&#45;&gt;Node5</title>
<g id="a_edge19_Node000001_Node000005"><a xlink:title=" ">
<path fill="none" stroke="#63b8ff" d="M324.64,-295.31C280.45,-288.45 221.89,-275.69 174.48,-252.5 86.38,-209.4 47.02,-198 7.48,-108.25 0,-91.27 -4.28,-80.85 7.48,-66.5 30.62,-38.27 127.39,-25.58 193.79,-20.11"/>
<polygon fill="#63b8ff" stroke="#63b8ff" points="323.93,-298.74 334.33,-296.74 324.95,-291.82 323.93,-298.74"/>
</a>
</g>
</g>
<!-- Node6 -->
<g id="Node000006" class="node">
<title>Node6</title>
<g id="a_Node000006"><a xlink:href="integration__tests_8cpp.html" target="_top" xlink:title=" ">
<polygon fill="white" stroke="#666666" points="733.73,-30.5 605.23,-30.5 605.23,0 733.73,0 733.73,-30.5"/>
<text text-anchor="start" x="613.23" y="-17" font-family="Helvetica,sans-Serif" font-size="10.00">src/planning/planning</text>
<text text-anchor="middle" x="669.48" y="-5.75" font-family="Helvetica,sans-Serif" font-size="10.00">/test/integration_tests.cpp</text>
</a>
</g>
</g>
<!-- Node1&#45;&gt;Node6 -->
<g id="edge21_Node000001_Node000006" class="edge">
<title>Node1&#45;&gt;Node6</title>
<g id="a_edge21_Node000001_Node000006"><a xlink:title=" ">
<path fill="none" stroke="#63b8ff" d="M445.86,-283.8C465.35,-275.75 486.79,-265.25 504.48,-252.5 574.75,-201.88 590.54,-182.28 635.48,-108.25 650.86,-82.92 661.04,-49.52 665.99,-30.73"/>
<polygon fill="#63b8ff" stroke="#63b8ff" points="444.67,-280.5 436.67,-287.45 447.26,-287.01 444.67,-280.5"/>
</a>
</g>
</g>
<!-- Node7 -->
<g id="Node000007" class="node">
<title>Node7</title>
<g id="a_Node000007"><a xlink:href="track_8hpp.html" target="_top" xlink:title=" ">
<polygon fill="white" stroke="#666666" points="456.23,-252.5 324.73,-252.5 324.73,-222 456.23,-222 456.23,-252.5"/>
<text text-anchor="start" x="332.73" y="-239" font-family="Helvetica,sans-Serif" font-size="10.00">src/planning/planning</text>
<text text-anchor="middle" x="390.48" y="-227.75" font-family="Helvetica,sans-Serif" font-size="10.00">/include/planning/track.hpp</text>
</a>
</g>
</g>
<!-- Node1&#45;&gt;Node7 -->
<g id="edge6_Node000001_Node000007" class="edge">
<title>Node1&#45;&gt;Node7</title>
<g id="a_edge6_Node000001_Node000007"><a xlink:title=" ">
<path fill="none" stroke="#63b8ff" d="M383.85,-276.81C383.55,-268.64 383.84,-259.91 384.73,-252.83"/>
<polygon fill="#63b8ff" stroke="#63b8ff" points="380.35,-276.9 384.61,-286.6 387.33,-276.37 380.35,-276.9"/>
</a>
</g>
</g>
<!-- Node10 -->
<g id="Node000010" class="node">
<title>Node10</title>
<g id="a_Node000010"><a xlink:href="tests_8cpp.html" target="_top" xlink:title=" ">
<polygon fill="white" stroke="#666666" points="124.23,-102.62 16.73,-102.62 16.73,-72.12 124.23,-72.12 124.23,-102.62"/>
<text text-anchor="start" x="24.73" y="-89.12" font-family="Helvetica,sans-Serif" font-size="10.00">src/planning/planning</text>
<text text-anchor="middle" x="70.48" y="-77.88" font-family="Helvetica,sans-Serif" font-size="10.00">/test/tests.cpp</text>
</a>
</g>
</g>
<!-- Node1&#45;&gt;Node10 -->
<g id="edge22_Node000001_Node000010" class="edge">
<title>Node1&#45;&gt;Node10</title>
<g id="a_edge22_Node000001_Node000010"><a xlink:title=" ">
<path fill="none" stroke="#63b8ff" d="M324.91,-285.82C267.77,-268.41 185.37,-236.6 128.48,-186 101.97,-162.42 84.07,-123.73 75.77,-102.84"/>
<polygon fill="#63b8ff" stroke="#63b8ff" points="323.59,-289.08 334.17,-288.57 325.59,-282.37 323.59,-289.08"/>
</a>
</g>
</g>
<!-- Node14 -->
<g id="Node000014" class="node">
<title>Node14</title>
<g id="a_Node000014"><a xlink:href="files_8cpp.html" target="_top" xlink:title=" ">
<polygon fill="white" stroke="#666666" points="790.23,-252.5 682.73,-252.5 682.73,-222 790.23,-222 790.23,-252.5"/>
<text text-anchor="start" x="690.73" y="-239" font-family="Helvetica,sans-Serif" font-size="10.00">src/planning/planning</text>
<text text-anchor="middle" x="736.48" y="-227.75" font-family="Helvetica,sans-Serif" font-size="10.00">/src/utils/files.cpp</text>
</a>
</g>
</g>
<!-- Node1&#45;&gt;Node14 -->
<g id="edge20_Node000001_Node000014" class="edge">
<title>Node1&#45;&gt;Node14</title>
<g id="a_edge20_Node000001_Node000014"><a xlink:title=" ">
<path fill="none" stroke="#63b8ff" d="M456.69,-291.32C513.07,-281.45 596.2,-266.6 668.48,-252.5 672.98,-251.62 677.64,-250.69 682.32,-249.74"/>
<polygon fill="#63b8ff" stroke="#63b8ff" points="456.17,-287.85 446.92,-293.02 457.37,-294.75 456.17,-287.85"/>
</a>
</g>
</g>
<!-- Node3 -->
<g id="Node000003" class="node">
<title>Node3</title>
<g id="a_Node000003"><a xlink:href="planning_2planning_2src_2adapter_2adapter_8cpp.html" target="_top" xlink:title=" ">
<polygon fill="white" stroke="#666666" points="461.98,-30.5 340.98,-30.5 340.98,0 461.98,0 461.98,-30.5"/>
<text text-anchor="start" x="348.98" y="-17" font-family="Helvetica,sans-Serif" font-size="10.00">src/planning/planning</text>
<text text-anchor="middle" x="401.48" y="-5.75" font-family="Helvetica,sans-Serif" font-size="10.00">/src/adapter/adapter.cpp</text>
</a>
</g>
</g>
<!-- Node2&#45;&gt;Node3 -->
<g id="edge2_Node000002_Node000003" class="edge">
<title>Node2&#45;&gt;Node3</title>
<g id="a_edge2_Node000002_Node000003"><a xlink:title=" ">
<path fill="none" stroke="#63b8ff" d="M411.63,-60.73C409.33,-50.63 406.77,-39.41 404.79,-30.76"/>
<polygon fill="#63b8ff" stroke="#63b8ff" points="408.2,-61.4 413.83,-70.37 415.02,-59.84 408.2,-61.4"/>
</a>
</g>
</g>
<!-- Node4 -->
<g id="Node000004" class="node">
<title>Node4</title>
<g id="a_Node000004"><a xlink:href="planning_2planning_2src_2main_8cpp.html" target="_top" xlink:title=" ">
<polygon fill="white" stroke="#666666" points="587.23,-30.5 479.73,-30.5 479.73,0 587.23,0 587.23,-30.5"/>
<text text-anchor="start" x="487.73" y="-17" font-family="Helvetica,sans-Serif" font-size="10.00">src/planning/planning</text>
<text text-anchor="middle" x="533.48" y="-5.75" font-family="Helvetica,sans-Serif" font-size="10.00">/src/main.cpp</text>
</a>
</g>
</g>
<!-- Node2&#45;&gt;Node4 -->
<g id="edge3_Node000002_Node000004" class="edge">
<title>Node2&#45;&gt;Node4</title>
<g id="a_edge3_Node000002_Node000004"><a xlink:title=" ">
<path fill="none" stroke="#63b8ff" d="M451.61,-65.75C470.09,-54.57 492.5,-41.02 509.2,-30.93"/>
<polygon fill="#63b8ff" stroke="#63b8ff" points="449.84,-62.72 443.1,-70.89 453.47,-68.71 449.84,-62.72"/>
</a>
</g>
</g>
<!-- Node2&#45;&gt;Node5 -->
<g id="edge4_Node000002_Node000005" class="edge">
<title>Node2&#45;&gt;Node5</title>
<g id="a_edge4_Node000002_Node000005"><a xlink:title=" ">
<path fill="none" stroke="#63b8ff" d="M373.85,-67.13C347.94,-55.71 315.61,-41.45 291.77,-30.93"/>
<polygon fill="#63b8ff" stroke="#63b8ff" points="372.21,-70.23 382.77,-71.06 375.03,-63.83 372.21,-70.23"/>
</a>
</g>
</g>
<!-- Node2&#45;&gt;Node6 -->
<g id="edge5_Node000002_Node000006" class="edge">
<title>Node2&#45;&gt;Node6</title>
<g id="a_edge5_Node000002_Node000006"><a xlink:title=" ">
<path fill="none" stroke="#63b8ff" d="M481.23,-68.64C523.11,-56.98 577.26,-41.91 616.73,-30.93"/>
<polygon fill="#63b8ff" stroke="#63b8ff" points="480.47,-65.22 471.77,-71.27 482.34,-71.96 480.47,-65.22"/>
</a>
</g>
</g>
<!-- Node7&#45;&gt;Node1 -->
<g id="edge17_Node000007_Node000001" class="edge">
<title>Node7&#45;&gt;Node1</title>
<g id="a_edge17_Node000007_Node000001"><a xlink:title=" ">
<path fill="none" stroke="#63b8ff" d="M397.12,-264.13C397.42,-272.29 397.13,-281.02 396.24,-288.11"/>
<polygon fill="#63b8ff" stroke="#63b8ff" points="400.62,-264.04 396.35,-254.34 393.64,-264.58 400.62,-264.04"/>
</a>
</g>
</g>
<!-- Node8 -->
<g id="Node000008" class="node">
<title>Node8</title>
<g id="a_Node000008"><a xlink:href="global__path__planner_8hpp.html" target="_top" xlink:title=" ">
<polygon fill="white" stroke="#666666" points="255.11,-186 137.86,-186 137.86,-144.25 255.11,-144.25 255.11,-186"/>
<text text-anchor="start" x="145.86" y="-172.5" font-family="Helvetica,sans-Serif" font-size="10.00">src/planning/planning</text>
<text text-anchor="start" x="145.86" y="-161.25" font-family="Helvetica,sans-Serif" font-size="10.00">/include/planning/global</text>
<text text-anchor="middle" x="196.48" y="-150" font-family="Helvetica,sans-Serif" font-size="10.00">_path_planner.hpp</text>
</a>
</g>
</g>
<!-- Node7&#45;&gt;Node8 -->
<g id="edge7_Node000007_Node000008" class="edge">
<title>Node7&#45;&gt;Node8</title>
<g id="a_edge7_Node000007_Node000008"><a xlink:title=" ">
<path fill="none" stroke="#63b8ff" d="M339.16,-217.7C312.5,-208.06 279.87,-196.27 252.55,-186.39"/>
<polygon fill="#63b8ff" stroke="#63b8ff" points="337.8,-220.93 348.39,-221.03 340.18,-214.34 337.8,-220.93"/>
</a>
</g>
</g>
<!-- Node11 -->
<g id="Node000011" class="node">
<title>Node11</title>
<g id="a_Node000011"><a xlink:href="local__path__planner_8hpp.html" target="_top" xlink:title=" ">
<polygon fill="white" stroke="#666666" points="385.48,-186 273.48,-186 273.48,-144.25 385.48,-144.25 385.48,-186"/>
<text text-anchor="start" x="281.48" y="-172.5" font-family="Helvetica,sans-Serif" font-size="10.00">src/planning/planning</text>
<text text-anchor="start" x="281.48" y="-161.25" font-family="Helvetica,sans-Serif" font-size="10.00">/include/planning/local</text>
<text text-anchor="middle" x="329.48" y="-150" font-family="Helvetica,sans-Serif" font-size="10.00">_path_planner.hpp</text>
</a>
</g>
</g>
<!-- Node7&#45;&gt;Node11 -->
<g id="edge12_Node000007_Node000011" class="edge">
<title>Node7&#45;&gt;Node11</title>
<g id="a_edge12_Node000007_Node000011"><a xlink:title=" ">
<path fill="none" stroke="#63b8ff" d="M370.46,-213.23C362.95,-204.6 354.48,-194.86 347.2,-186.49"/>
<polygon fill="#63b8ff" stroke="#63b8ff" points="367.65,-215.33 376.85,-220.58 372.93,-210.74 367.65,-215.33"/>
</a>
</g>
</g>
<!-- Node13 -->
<g id="Node000013" class="node">
<title>Node13</title>
<g id="a_Node000013"><a xlink:href="track_8cpp.html" target="_top" xlink:title=" ">
<polygon fill="white" stroke="#666666" points="517.61,-180.38 403.36,-180.38 403.36,-149.88 517.61,-149.88 517.61,-180.38"/>
<text text-anchor="start" x="411.36" y="-166.88" font-family="Helvetica,sans-Serif" font-size="10.00">src/planning/planning</text>
<text text-anchor="middle" x="460.48" y="-155.62" font-family="Helvetica,sans-Serif" font-size="10.00">/src/planning/track.cpp</text>
</a>
</g>
</g>
<!-- Node7&#45;&gt;Node13 -->
<g id="edge18_Node000007_Node000013" class="edge">
<title>Node7&#45;&gt;Node13</title>
<g id="a_edge18_Node000007_Node000013"><a xlink:title=" ">
<path fill="none" stroke="#63b8ff" d="M412.84,-213.85C423.7,-202.98 436.43,-190.22 446,-180.64"/>
<polygon fill="#63b8ff" stroke="#63b8ff" points="410.64,-211.1 406.06,-220.65 415.6,-216.04 410.64,-211.1"/>
</a>
</g>
</g>
<!-- Node8&#45;&gt;Node2 -->
<g id="edge8_Node000008_Node000002" class="edge">
<title>Node8&#45;&gt;Node2</title>
<g id="a_edge8_Node000008_Node000002"><a xlink:title=" ">
<path fill="none" stroke="#63b8ff" d="M266.2,-140.23C301.7,-128.06 343.72,-113.66 374.46,-103.12"/>
<polygon fill="#63b8ff" stroke="#63b8ff" points="265.17,-136.88 256.85,-143.43 267.44,-143.5 265.17,-136.88"/>
</a>
</g>
</g>
<!-- Node8&#45;&gt;Node5 -->
<g id="edge10_Node000008_Node000005" class="edge">
<title>Node8&#45;&gt;Node5</title>
<g id="a_edge10_Node000008_Node000005"><a xlink:title=" ">
<path fill="none" stroke="#63b8ff" d="M237.72,-136.66C246.52,-128.63 254.62,-119.06 259.48,-108.25 270.88,-82.9 266.32,-49.51 262.23,-30.72"/>
<polygon fill="#63b8ff" stroke="#63b8ff" points="235.7,-133.78 230.3,-142.9 240.21,-139.14 235.7,-133.78"/>
</a>
</g>
</g>
<!-- Node9 -->
<g id="Node000009" class="node">
<title>Node9</title>
<g id="a_Node000009"><a xlink:href="global__path__planner_8cpp.html" target="_top" xlink:title=" ">
<polygon fill="white" stroke="#666666" points="250.23,-108.25 142.73,-108.25 142.73,-66.5 250.23,-66.5 250.23,-108.25"/>
<text text-anchor="start" x="150.73" y="-94.75" font-family="Helvetica,sans-Serif" font-size="10.00">src/planning/planning</text>
<text text-anchor="start" x="150.73" y="-83.5" font-family="Helvetica,sans-Serif" font-size="10.00">/src/planning/global</text>
<text text-anchor="middle" x="196.48" y="-72.25" font-family="Helvetica,sans-Serif" font-size="10.00">_path_planner.cpp</text>
</a>
</g>
</g>
<!-- Node8&#45;&gt;Node9 -->
<g id="edge9_Node000008_Node000009" class="edge">
<title>Node8&#45;&gt;Node9</title>
<g id="a_edge9_Node000008_Node000009"><a xlink:title=" ">
<path fill="none" stroke="#63b8ff" d="M196.48,-132.5C196.48,-124.46 196.48,-116.04 196.48,-108.73"/>
<polygon fill="#63b8ff" stroke="#63b8ff" points="192.98,-132.31 196.48,-142.31 199.98,-132.31 192.98,-132.31"/>
</a>
</g>
</g>
<!-- Node8&#45;&gt;Node10 -->
<g id="edge11_Node000008_Node000010" class="edge">
<title>Node8&#45;&gt;Node10</title>
<g id="a_edge11_Node000008_Node000010"><a xlink:title=" ">
<path fill="none" stroke="#63b8ff" d="M153.1,-138.05C133.58,-126.31 111.27,-112.89 94.75,-102.96"/>
<polygon fill="#63b8ff" stroke="#63b8ff" points="151.05,-140.89 161.42,-143.05 154.65,-134.89 151.05,-140.89"/>
</a>
</g>
</g>
<!-- Node11&#45;&gt;Node2 -->
<g id="edge13_Node000011_Node000002" class="edge">
<title>Node11&#45;&gt;Node2</title>
<g id="a_edge13_Node000011_Node000002"><a xlink:title=" ">
<path fill="none" stroke="#63b8ff" d="M361.47,-136.59C374.69,-125.21 389.48,-112.48 400.53,-102.96"/>
<polygon fill="#63b8ff" stroke="#63b8ff" points="359.51,-133.66 354.21,-142.84 364.08,-138.97 359.51,-133.66"/>
</a>
</g>
</g>
<!-- Node11&#45;&gt;Node5 -->
<g id="edge15_Node000011_Node000005" class="edge">
<title>Node11&#45;&gt;Node5</title>
<g id="a_edge15_Node000011_Node000005"><a xlink:title=" ">
<path fill="none" stroke="#63b8ff" d="M314.79,-133.51C299.72,-102.14 276.94,-54.68 265.52,-30.91"/>
<polygon fill="#63b8ff" stroke="#63b8ff" points="311.62,-135.01 319.11,-142.51 317.93,-131.98 311.62,-135.01"/>
</a>
</g>
</g>
<!-- Node11&#45;&gt;Node10 -->
<g id="edge16_Node000011_Node000010" class="edge">
<title>Node11&#45;&gt;Node10</title>
<g id="a_edge16_Node000011_Node000010"><a xlink:title=" ">
<path fill="none" stroke="#63b8ff" d="M262.3,-143.66C204.65,-127.14 188.12,-124.37 133.48,-108.25 127.98,-106.63 122.23,-104.88 116.53,-103.12"/>
<polygon fill="#63b8ff" stroke="#63b8ff" points="261.11,-146.96 271.69,-146.37 263.05,-140.23 261.11,-146.96"/>
</a>
</g>
</g>
<!-- Node12 -->
<g id="Node000012" class="node">
<title>Node12</title>
<g id="a_Node000012"><a xlink:href="local__path__planner_8cpp.html" target="_top" xlink:title=" ">
<polygon fill="white" stroke="#666666" points="626.86,-108.25 508.11,-108.25 508.11,-66.5 626.86,-66.5 626.86,-108.25"/>
<text text-anchor="start" x="516.11" y="-94.75" font-family="Helvetica,sans-Serif" font-size="10.00">src/planning/planning</text>
<text text-anchor="start" x="516.11" y="-83.5" font-family="Helvetica,sans-Serif" font-size="10.00">/src/planning/local_path</text>
<text text-anchor="middle" x="567.48" y="-72.25" font-family="Helvetica,sans-Serif" font-size="10.00">_planner.cpp</text>
</a>
</g>
</g>
<!-- Node11&#45;&gt;Node12 -->
<g id="edge14_Node000011_Node000012" class="edge">
<title>Node11&#45;&gt;Node12</title>
<g id="a_edge14_Node000011_Node000012"><a xlink:title=" ">
<path fill="none" stroke="#63b8ff" d="M396.48,-142.8C431.46,-131.67 473.9,-118.16 507.75,-107.39"/>
<polygon fill="#63b8ff" stroke="#63b8ff" points="395.8,-139.35 387.33,-145.71 397.92,-146.02 395.8,-139.35"/>
</a>
</g>
</g>
</g>
</svg>

<g id="navigator" transform="translate(0 0)" fill="#404254">
  <rect fill="#f2f5e9" fill-opacity="0.5" stroke="#606060" stroke-width=".5" x="0" y="0" width="60" height="60"/>
  <use id="zoomplus" xlink:href="#zoomPlus" x="17" y="9" onmousedown="handleZoom(evt,'in')"/>
  <use id="zoomminus" xlink:href="#zoomMin" x="42" y="9" onmousedown="handleZoom(evt,'out')"/>
  <use id="reset" xlink:href="#resetDef" x="30" y="36" onmousedown="handleReset()"/>
   <use id="arrowup" xlink:href="#arrowUp" x="0" y="0" onmousedown="handlePan(0,-1)"/>
  <use id="arrowright" xlink:href="#arrowRight" x="0" y="0" onmousedown="handlePan(1,0)"/>
  <use id="arrowdown" xlink:href="#arrowDown" x="0" y="0" onmousedown="handlePan(0,1)"/>
  <use id="arrowleft" xlink:href="#arrowLeft" x="0" y="0" onmousedown="handlePan(-1,0)"/>
</g>
<svg viewBox="0 0 15 15" width="100%" height="30px" preserveAspectRatio="xMaxYMin meet">
 <g id="arrow_out" transform="scale(0.3 0.3)">
  <a xlink:href="files_8hpp__dep__incl_org.svg" target="_base">
   <rect id="button" ry="5" rx="5" y="6" x="6" height="38" width="38"
        fill="#f2f5e9" fill-opacity="0.5" stroke="#606060" stroke-width="1.0"/>
   <path id="arrow"
     d="M 11.500037,31.436501 C 11.940474,20.09759 22.043105,11.32322 32.158766,21.979434 L 37.068811,17.246167 C 37.068811,17.246167 37.088388,32 37.088388,32 L 22.160133,31.978069 C 22.160133,31.978069 26.997745,27.140456 26.997745,27.140456 C 18.528582,18.264221 13.291696,25.230495 11.500037,31.436501 z"
     style="fill:#404040;"/>
  </a>
 </g>
</svg>

<style type='text/css'>
<![CDATA[
[data-mouse-over-selected='false'] { opacity: 0.7; }
[data-mouse-over-selected='true']  { opacity: 1.0; }
]]>
</style>
<script type="application/ecmascript"><![CDATA[
document.addEventListener('DOMContentLoaded', (event) => {
  highlightEdges();
  highlightAdjacentNodes();
});
]]></script>
</svg>
