<?xml version="1.0" encoding="UTF-8" standalone="no"?>
<!DOCTYPE svg PUBLIC "-//W3C//DTD SVG 1.1//EN"
 "http://www.w3.org/Graphics/SVG/1.1/DTD/svg11.dtd">
<!-- Generated by graphviz version 9.0.0 (20230911.1827)
 -->
<!-- Title: normalize_angle Pages: 1 -->
<svg width="334pt" height="323pt"
 viewBox="0.00 0.00 333.50 323.25" xmlns="http://www.w3.org/2000/svg" xmlns:xlink="http://www.w3.org/1999/xlink">

<svg id="main" version="1.1" xmlns="http://www.w3.org/2000/svg" xmlns:xlink="http://www.w3.org/1999/xlink" xml:space="preserve" onload="init(evt)">
<style type="text/css"><![CDATA[
.node, .edge {opacity: 0.7;}
.node.selected, .edge.selected {opacity: 1;}
.edge:hover path { stroke: red; }
.edge:hover polygon { stroke: red; fill: red; }
]]></style>
<script type="application/ecmascript" xlink:href="svg.min.js"/>
<svg id="graph" class="graph">
<g id="graph0" class="graph" transform="scale(1 1) rotate(0) translate(4 319.25)">
<title>normalize_angle</title>
<!-- Node1 -->
<g id="Node000001" class="node">
<title>Node1</title>
<g id="a_Node000001"><a xlink:title="Function to keep angle between 0 and 2Pi radians.">
<polygon fill="#999999" stroke="#666666" points="325.5,-167.25 239.75,-167.25 239.75,-148 325.5,-148 325.5,-167.25"/>
<text text-anchor="middle" x="282.62" y="-153.75" font-family="Helvetica,sans-Serif" font-size="10.00">normalize_angle</text>
</a>
</g>
</g>
<!-- Node2 -->
<g id="Node000002" class="node">
<title>Node2</title>
<g id="a_Node000002"><a xlink:href="classImuVelocityModel.html#a83c9e2d4b8e321ab0fcfbef5f52b5447" target="_top" xlink:title="Calculate expected state vector from velocity model using IMU data and linear functions Uses translat...">
<polygon fill="white" stroke="#666666" points="203.75,-246.88 76.75,-246.88 76.75,-216.38 203.75,-216.38 203.75,-246.88"/>
<text text-anchor="start" x="84.75" y="-233.38" font-family="Helvetica,sans-Serif" font-size="10.00">ImuVelocityModel::predict</text>
<text text-anchor="middle" x="140.25" y="-222.12" font-family="Helvetica,sans-Serif" font-size="10.00">_expected_state</text>
</a>
</g>
</g>
<!-- Node1&#45;&gt;Node2 -->
<g id="edge1_Node000001_Node000002" class="edge">
<title>Node1&#45;&gt;Node2</title>
<g id="a_edge1_Node000001_Node000002"><a xlink:title=" ">
<path fill="none" stroke="#63b8ff" d="M252.8,-172.82C228.88,-185.43 195.01,-203.28 170.88,-216"/>
<polygon fill="#63b8ff" stroke="#63b8ff" points="254.14,-176.07 261.35,-168.31 250.88,-169.88 254.14,-176.07"/>
</a>
</g>
</g>
<!-- Node7 -->
<g id="Node000007" class="node">
<title>Node7</title>
<g id="a_Node000007"><a xlink:href="classNormalVelocityModel.html#a32beb590c4af5f21172b64b34d5f3ea1" target="_top" xlink:title="Calculate expected state vector from velocity model using normal motion data Uses translation velocit...">
<polygon fill="white" stroke="#666666" points="200.75,-117.88 79.75,-117.88 79.75,-87.38 200.75,-87.38 200.75,-117.88"/>
<text text-anchor="start" x="87.75" y="-104.38" font-family="Helvetica,sans-Serif" font-size="10.00">NormalVelocityModel</text>
<text text-anchor="middle" x="140.25" y="-93.12" font-family="Helvetica,sans-Serif" font-size="10.00">::predict_expected_state</text>
</a>
</g>
</g>
<!-- Node1&#45;&gt;Node7 -->
<g id="edge6_Node000001_Node000007" class="edge">
<title>Node1&#45;&gt;Node7</title>
<g id="a_edge6_Node000001_Node000007"><a xlink:title=" ">
<path fill="none" stroke="#63b8ff" d="M245.25,-143.37C225.7,-135.71 201.55,-126.25 181.44,-118.37"/>
<polygon fill="#63b8ff" stroke="#63b8ff" points="243.88,-146.6 254.47,-146.98 246.43,-140.08 243.88,-146.6"/>
</a>
</g>
</g>
<!-- Node3 -->
<g id="Node000003" class="node">
<title>Node3</title>
<g id="a_Node000003"><a xlink:href="motion__model__test_8cpp.html#ae0937a30b47fc882eb19bb57e6ca6bbf" target="_top" xlink:title=" ">
<polygon fill="white" stroke="#666666" points="40.75,-315.25 0,-315.25 0,-296 40.75,-296 40.75,-315.25"/>
<text text-anchor="middle" x="20.38" y="-301.75" font-family="Helvetica,sans-Serif" font-size="10.00">TEST</text>
</a>
</g>
</g>
<!-- Node2&#45;&gt;Node3 -->
<g id="edge2_Node000002_Node000003" class="edge">
<title>Node2&#45;&gt;Node3</title>
<g id="a_edge2_Node000002_Node000003"><a xlink:title=" ">
<path fill="none" stroke="#63b8ff" d="M104.78,-253.26C82.49,-267.26 54.52,-284.82 37.3,-295.63"/>
<polygon fill="#63b8ff" stroke="#63b8ff" points="106.36,-256.4 112.97,-248.12 102.64,-250.48 106.36,-256.4"/>
</a>
</g>
</g>
<!-- Node4 -->
<g id="Node000004" class="node">
<title>Node4</title>
<g id="a_Node000004"><a xlink:href="motion__model__test_8cpp.html#a9c31f0345da32c0c5eaa421433ba5ec3" target="_top" xlink:title=" ">
<polygon fill="white" stroke="#666666" points="40.75,-278.25 0,-278.25 0,-259 40.75,-259 40.75,-278.25"/>
<text text-anchor="middle" x="20.38" y="-264.75" font-family="Helvetica,sans-Serif" font-size="10.00">TEST</text>
</a>
</g>
</g>
<!-- Node2&#45;&gt;Node4 -->
<g id="edge3_Node000002_Node000004" class="edge">
<title>Node2&#45;&gt;Node4</title>
<g id="a_edge3_Node000002_Node000004"><a xlink:title=" ">
<path fill="none" stroke="#63b8ff" d="M78.46,-250.71C64.96,-254.94 51.59,-259.14 41.18,-262.41"/>
<polygon fill="#63b8ff" stroke="#63b8ff" points="79.32,-254.1 87.82,-247.77 77.23,-247.43 79.32,-254.1"/>
</a>
</g>
</g>
<!-- Node5 -->
<g id="Node000005" class="node">
<title>Node5</title>
<g id="a_Node000005"><a xlink:href="motion__model__test_8cpp.html#a13d66ed5f0bcb51eb59eaeb8da3fe292" target="_top" xlink:title=" ">
<polygon fill="white" stroke="#666666" points="40.75,-241.25 0,-241.25 0,-222 40.75,-222 40.75,-241.25"/>
<text text-anchor="middle" x="20.38" y="-227.75" font-family="Helvetica,sans-Serif" font-size="10.00">TEST</text>
</a>
</g>
</g>
<!-- Node2&#45;&gt;Node5 -->
<g id="edge4_Node000002_Node000005" class="edge">
<title>Node2&#45;&gt;Node5</title>
<g id="a_edge4_Node000002_Node000005"><a xlink:title=" ">
<path fill="none" stroke="#63b8ff" d="M65.19,-231.62C56.39,-231.62 48.08,-231.62 41.11,-231.62"/>
<polygon fill="#63b8ff" stroke="#63b8ff" points="65,-235.13 75,-231.63 65,-228.13 65,-235.13"/>
</a>
</g>
</g>
<!-- Node6 -->
<g id="Node000006" class="node">
<title>Node6</title>
<g id="a_Node000006"><a xlink:href="motion__model__test_8cpp.html#a6fbede91fc0c55e0beeee30fb29a34bf" target="_top" xlink:title=" ">
<polygon fill="white" stroke="#666666" points="40.75,-204.25 0,-204.25 0,-185 40.75,-185 40.75,-204.25"/>
<text text-anchor="middle" x="20.38" y="-190.75" font-family="Helvetica,sans-Serif" font-size="10.00">TEST</text>
</a>
</g>
</g>
<!-- Node2&#45;&gt;Node6 -->
<g id="edge5_Node000002_Node000006" class="edge">
<title>Node2&#45;&gt;Node6</title>
<g id="a_edge5_Node000002_Node000006"><a xlink:title=" ">
<path fill="none" stroke="#63b8ff" d="M78.46,-212.54C64.96,-208.31 51.59,-204.11 41.18,-200.84"/>
<polygon fill="#63b8ff" stroke="#63b8ff" points="77.23,-215.82 87.82,-215.48 79.32,-209.15 77.23,-215.82"/>
</a>
</g>
</g>
<!-- Node8 -->
<g id="Node000008" class="node">
<title>Node8</title>
<g id="a_Node000008"><a xlink:href="motion__model__test_8cpp.html#a89bd5d192ba500ce6cd5d7ff246df691" target="_top" xlink:title=" ">
<polygon fill="white" stroke="#666666" points="40.75,-167.25 0,-167.25 0,-148 40.75,-148 40.75,-167.25"/>
<text text-anchor="middle" x="20.38" y="-153.75" font-family="Helvetica,sans-Serif" font-size="10.00">TEST</text>
</a>
</g>
</g>
<!-- Node7&#45;&gt;Node8 -->
<g id="edge7_Node000007_Node000008" class="edge">
<title>Node7&#45;&gt;Node8</title>
<g id="a_edge7_Node000007_Node000008"><a xlink:title=" ">
<path fill="none" stroke="#63b8ff" d="M95.36,-123.1C76.62,-131.85 55.71,-141.6 40.91,-148.51"/>
<polygon fill="#63b8ff" stroke="#63b8ff" points="96.83,-126.28 104.42,-118.88 93.87,-119.94 96.83,-126.28"/>
</a>
</g>
</g>
<!-- Node9 -->
<g id="Node000009" class="node">
<title>Node9</title>
<g id="a_Node000009"><a xlink:href="motion__model__test_8cpp.html#a4b4be8c03914d03c683a1fecbcbdf310" target="_top" xlink:title=" ">
<polygon fill="white" stroke="#666666" points="40.75,-130.25 0,-130.25 0,-111 40.75,-111 40.75,-130.25"/>
<text text-anchor="middle" x="20.38" y="-116.75" font-family="Helvetica,sans-Serif" font-size="10.00">TEST</text>
</a>
</g>
</g>
<!-- Node7&#45;&gt;Node9 -->
<g id="edge8_Node000007_Node000009" class="edge">
<title>Node7&#45;&gt;Node9</title>
<g id="a_edge8_Node000007_Node000009"><a xlink:title=" ">
<path fill="none" stroke="#63b8ff" d="M68.06,-113.5C58.26,-114.99 48.92,-116.42 41.22,-117.6"/>
<polygon fill="#63b8ff" stroke="#63b8ff" points="68.42,-116.98 77.78,-112.01 67.37,-110.06 68.42,-116.98"/>
</a>
</g>
</g>
<!-- Node10 -->
<g id="Node000010" class="node">
<title>Node10</title>
<g id="a_Node000010"><a xlink:href="motion__model__test_8cpp.html#ac536fb8afc350c3ccd4907c25a507b81" target="_top" xlink:title=" ">
<polygon fill="white" stroke="#666666" points="40.75,-93.25 0,-93.25 0,-74 40.75,-74 40.75,-93.25"/>
<text text-anchor="middle" x="20.38" y="-79.75" font-family="Helvetica,sans-Serif" font-size="10.00">TEST</text>
</a>
</g>
</g>
<!-- Node7&#45;&gt;Node10 -->
<g id="edge9_Node000007_Node000010" class="edge">
<title>Node7&#45;&gt;Node10</title>
<g id="a_edge9_Node000007_Node000010"><a xlink:title=" ">
<path fill="none" stroke="#63b8ff" d="M68.06,-91.15C58.26,-89.57 48.92,-88.07 41.22,-86.82"/>
<polygon fill="#63b8ff" stroke="#63b8ff" points="67.35,-94.58 77.78,-92.72 68.47,-87.67 67.35,-94.58"/>
</a>
</g>
</g>
<!-- Node11 -->
<g id="Node000011" class="node">
<title>Node11</title>
<g id="a_Node000011"><a xlink:href="motion__model__test_8cpp.html#a985258fd91e481fac6ee05ad73bab7fd" target="_top" xlink:title=" ">
<polygon fill="white" stroke="#666666" points="40.75,-56.25 0,-56.25 0,-37 40.75,-37 40.75,-56.25"/>
<text text-anchor="middle" x="20.38" y="-42.75" font-family="Helvetica,sans-Serif" font-size="10.00">TEST</text>
</a>
</g>
</g>
<!-- Node7&#45;&gt;Node11 -->
<g id="edge10_Node000007_Node000011" class="edge">
<title>Node7&#45;&gt;Node11</title>
<g id="a_edge10_Node000007_Node000011"><a xlink:title=" ">
<path fill="none" stroke="#63b8ff" d="M95.93,-82.04C77.09,-73.09 55.96,-63.06 41.02,-55.96"/>
<polygon fill="#63b8ff" stroke="#63b8ff" points="94.2,-85.1 104.73,-86.23 97.2,-78.77 94.2,-85.1"/>
</a>
</g>
</g>
<!-- Node12 -->
<g id="Node000012" class="node">
<title>Node12</title>
<g id="a_Node000012"><a xlink:href="motion__model__test_8cpp.html#abaac5c4600343357227b100565bf0831" target="_top" xlink:title=" ">
<polygon fill="white" stroke="#666666" points="40.75,-19.25 0,-19.25 0,0 40.75,0 40.75,-19.25"/>
<text text-anchor="middle" x="20.38" y="-5.75" font-family="Helvetica,sans-Serif" font-size="10.00">TEST</text>
</a>
</g>
</g>
<!-- Node7&#45;&gt;Node12 -->
<g id="edge11_Node000007_Node000012" class="edge">
<title>Node7&#45;&gt;Node12</title>
<g id="a_edge11_Node000007_Node000012"><a xlink:title=" ">
<path fill="none" stroke="#63b8ff" d="M110.66,-80.07C86.16,-60.74 52.06,-33.83 33.91,-19.51"/>
<polygon fill="#63b8ff" stroke="#63b8ff" points="108.31,-82.68 118.33,-86.12 112.65,-77.18 108.31,-82.68"/>
</a>
</g>
</g>
</g>
</svg>
</svg>

<style type='text/css'>
<![CDATA[
[data-mouse-over-selected='false'] { opacity: 0.7; }
[data-mouse-over-selected='true']  { opacity: 1.0; }
]]>
</style>
<script type="application/ecmascript"><![CDATA[
document.addEventListener('DOMContentLoaded', (event) => {
  highlightEdges();
  highlightAdjacentNodes();
});
]]></script>
</svg>
