<?xml version="1.0" encoding="UTF-8" standalone="no"?>
<!DOCTYPE svg PUBLIC "-//W3C//DTD SVG 1.1//EN"
 "http://www.w3.org/Graphics/SVG/1.1/DTD/svg11.dtd">
<!-- Generated by graphviz version 9.0.0 (20230911.1827)
 -->
<!-- Title: fs_ai_api_init Pages: 1 -->
<svg width="219pt" height="76pt"
 viewBox="0.00 0.00 219.25 75.88" xmlns="http://www.w3.org/2000/svg" xmlns:xlink="http://www.w3.org/1999/xlink">
<g id="graph0" class="graph" transform="scale(1 1) rotate(0) translate(4 71.88)">
<title>fs_ai_api_init</title>
<!-- Node1 -->
<g id="Node000001" class="node">
<title>Node1</title>
<g id="a_Node000001"><a xlink:title=" ">
<polygon fill="#999999" stroke="#666666" points="73,-45.88 0,-45.88 0,-26.62 73,-26.62 73,-45.88"/>
<text text-anchor="middle" x="36.5" y="-32.38" font-family="Helvetica,sans-Serif" font-size="10.00">fs_ai_api_init</text>
</a>
</g>
</g>
<!-- Node2 -->
<g id="Node000002" class="node">
<title>Node2</title>
<g id="a_Node000002"><a xlink:href="can_8c.html#aac1918f7b4492f0b299f27dd576d6d78" target="_top" xlink:title=" ">
<polygon fill="white" stroke="#666666" points="185,-67.88 135.25,-67.88 135.25,-48.62 185,-48.62 185,-67.88"/>
<text text-anchor="middle" x="160.12" y="-54.38" font-family="Helvetica,sans-Serif" font-size="10.00">can_init</text>
</a>
</g>
</g>
<!-- Node1&#45;&gt;Node2 -->
<g id="edge1_Node000001_Node000002" class="edge">
<title>Node1&#45;&gt;Node2</title>
<g id="a_edge1_Node000001_Node000002"><a xlink:title=" ">
<path fill="none" stroke="#63b8ff" d="M73.33,-42.73C89.35,-45.63 108.16,-49.03 124.08,-51.91"/>
<polygon fill="#63b8ff" stroke="#63b8ff" points="123.12,-55.29 133.59,-53.63 124.37,-48.41 123.12,-55.29"/>
</a>
</g>
</g>
<!-- Node3 -->
<g id="Node000003" class="node">
<title>Node3</title>
<g id="a_Node000003"><a xlink:href="fs-ai__api_8c.html#a27b94650142bddb0c9d8e94d03240d61" target="_top" xlink:title=" ">
<polygon fill="white" stroke="#666666" points="211.25,-30.5 109,-30.5 109,0 211.25,0 211.25,-30.5"/>
<text text-anchor="start" x="117" y="-17" font-family="Helvetica,sans-Serif" font-size="10.00">fs_ai_api_clear_can</text>
<text text-anchor="middle" x="160.12" y="-5.75" font-family="Helvetica,sans-Serif" font-size="10.00">_stats</text>
</a>
</g>
</g>
<!-- Node1&#45;&gt;Node3 -->
<g id="edge2_Node000001_Node000003" class="edge">
<title>Node1&#45;&gt;Node3</title>
<g id="a_edge2_Node000001_Node000003"><a xlink:title=" ">
<path fill="none" stroke="#63b8ff" d="M73.33,-30.06C80.95,-28.75 89.19,-27.33 97.45,-25.9"/>
<polygon fill="#63b8ff" stroke="#63b8ff" points="97.93,-29.37 107.19,-24.22 96.74,-22.47 97.93,-29.37"/>
</a>
</g>
</g>
</g>
</svg>
