<?xml version="1.0" encoding="UTF-8" standalone="no"?>
<!DOCTYPE svg PUBLIC "-//W3C//DTD SVG 1.1//EN"
 "http://www.w3.org/Graphics/SVG/1.1/DTD/svg11.dtd">
<!-- Generated by graphviz version 9.0.0 (20230911.1827)
 -->
<!-- Title: src/ros_can/FS&#45;AI&#45;API/FS&#45;AI_API/fs&#45;ai_api.h Pages: 1 -->
<svg width="512pt" height="183pt"
 viewBox="0.00 0.00 511.88 182.75" xmlns="http://www.w3.org/2000/svg" xmlns:xlink="http://www.w3.org/1999/xlink">
<g id="graph0" class="graph" transform="scale(1 1) rotate(0) translate(4 178.75)">
<title>src/ros_can/FS&#45;AI&#45;API/FS&#45;AI_API/fs&#45;ai_api.h</title>
<!-- Node1 -->
<g id="Node000001" class="node">
<title>Node1</title>
<g id="a_Node000001"><a xlink:title=" ">
<polygon fill="#999999" stroke="#666666" points="317,-174.75 202,-174.75 202,-144.25 317,-144.25 317,-174.75"/>
<text text-anchor="start" x="210" y="-161.25" font-family="Helvetica,sans-Serif" font-size="10.00">src/ros_can/FS&#45;AI&#45;API</text>
<text text-anchor="middle" x="259.5" y="-150" font-family="Helvetica,sans-Serif" font-size="10.00">/FS&#45;AI_API/fs&#45;ai_api.h</text>
</a>
</g>
</g>
<!-- Node2 -->
<g id="Node000002" class="node">
<title>Node2</title>
<g id="a_Node000002"><a xlink:href="fs-ai__api_8c.html" target="_top" xlink:title=" ">
<polygon fill="white" stroke="#666666" points="115,-102.62 0,-102.62 0,-72.12 115,-72.12 115,-102.62"/>
<text text-anchor="start" x="8" y="-89.12" font-family="Helvetica,sans-Serif" font-size="10.00">src/ros_can/FS&#45;AI&#45;API</text>
<text text-anchor="middle" x="57.5" y="-77.88" font-family="Helvetica,sans-Serif" font-size="10.00">/FS&#45;AI_API/fs&#45;ai_api.c</text>
</a>
</g>
</g>
<!-- Node1&#45;&gt;Node2 -->
<g id="edge1_Node000001_Node000002" class="edge">
<title>Node1&#45;&gt;Node2</title>
<g id="a_edge1_Node000001_Node000002"><a xlink:title=" ">
<path fill="none" stroke="#63b8ff" d="M206.68,-140.16C173.35,-128.59 130.89,-113.85 99.79,-103.06"/>
<polygon fill="#63b8ff" stroke="#63b8ff" points="205.13,-143.33 215.72,-143.3 207.43,-136.72 205.13,-143.33"/>
</a>
</g>
</g>
<!-- Node3 -->
<g id="Node000003" class="node">
<title>Node3</title>
<g id="a_Node000003"><a xlink:href="fs-ai__api__console_8c.html" target="_top" xlink:title=" ">
<polygon fill="white" stroke="#666666" points="251.5,-108.25 133.5,-108.25 133.5,-66.5 251.5,-66.5 251.5,-108.25"/>
<text text-anchor="start" x="141.5" y="-94.75" font-family="Helvetica,sans-Serif" font-size="10.00">src/ros_can/FS&#45;AI&#45;API</text>
<text text-anchor="start" x="141.5" y="-83.5" font-family="Helvetica,sans-Serif" font-size="10.00">/FS&#45;AI_API_Console/fs</text>
<text text-anchor="middle" x="192.5" y="-72.25" font-family="Helvetica,sans-Serif" font-size="10.00">&#45;ai_api_console.c</text>
</a>
</g>
</g>
<!-- Node1&#45;&gt;Node3 -->
<g id="edge2_Node000001_Node000003" class="edge">
<title>Node1&#45;&gt;Node3</title>
<g id="a_edge2_Node000001_Node000003"><a xlink:title=" ">
<path fill="none" stroke="#63b8ff" d="M237.77,-135.75C229.46,-127.05 220.04,-117.2 211.95,-108.74"/>
<polygon fill="#63b8ff" stroke="#63b8ff" points="235.13,-138.06 244.57,-142.88 240.19,-133.23 235.13,-138.06"/>
</a>
</g>
</g>
<!-- Node4 -->
<g id="Node000004" class="node">
<title>Node4</title>
<g id="a_Node000004"><a xlink:href="fs-ai__api__tester_8c.html" target="_top" xlink:title=" ">
<polygon fill="white" stroke="#666666" points="385,-108.25 270,-108.25 270,-66.5 385,-66.5 385,-108.25"/>
<text text-anchor="start" x="278" y="-94.75" font-family="Helvetica,sans-Serif" font-size="10.00">src/ros_can/FS&#45;AI&#45;API</text>
<text text-anchor="start" x="278" y="-83.5" font-family="Helvetica,sans-Serif" font-size="10.00">/FS&#45;AI_API_Tester/fs</text>
<text text-anchor="middle" x="327.5" y="-72.25" font-family="Helvetica,sans-Serif" font-size="10.00">&#45;ai_api_tester.c</text>
</a>
</g>
</g>
<!-- Node1&#45;&gt;Node4 -->
<g id="edge3_Node000001_Node000004" class="edge">
<title>Node1&#45;&gt;Node4</title>
<g id="a_edge3_Node000001_Node000004"><a xlink:title=" ">
<path fill="none" stroke="#63b8ff" d="M281.56,-135.75C289.99,-127.05 299.55,-117.2 307.76,-108.74"/>
<polygon fill="#63b8ff" stroke="#63b8ff" points="279.09,-133.27 274.64,-142.88 284.12,-138.14 279.09,-133.27"/>
</a>
</g>
</g>
<!-- Node5 -->
<g id="Node000005" class="node">
<title>Node5</title>
<g id="a_Node000005"><a xlink:href="ros__can_8hpp.html" target="_top" xlink:title=" ">
<polygon fill="white" stroke="#666666" points="503.88,-102.62 403.12,-102.62 403.12,-72.12 503.88,-72.12 503.88,-102.62"/>
<text text-anchor="start" x="411.12" y="-89.12" font-family="Helvetica,sans-Serif" font-size="10.00">src/ros_can/include</text>
<text text-anchor="middle" x="453.5" y="-77.88" font-family="Helvetica,sans-Serif" font-size="10.00">/ros_can.hpp</text>
</a>
</g>
</g>
<!-- Node1&#45;&gt;Node5 -->
<g id="edge4_Node000001_Node000005" class="edge">
<title>Node1&#45;&gt;Node5</title>
<g id="a_edge4_Node000001_Node000005"><a xlink:title=" ">
<path fill="none" stroke="#63b8ff" d="M310.64,-140.01C342.59,-128.47 383.15,-113.8 412.88,-103.06"/>
<polygon fill="#63b8ff" stroke="#63b8ff" points="309.81,-136.59 301.59,-143.28 312.19,-143.18 309.81,-136.59"/>
</a>
</g>
</g>
<!-- Node6 -->
<g id="Node000006" class="node">
<title>Node6</title>
<g id="a_Node000006"><a xlink:href="ros__can_8cpp.html" target="_top" xlink:title=" ">
<polygon fill="white" stroke="#666666" points="503.5,-30.5 403.5,-30.5 403.5,0 503.5,0 503.5,-30.5"/>
<text text-anchor="start" x="411.5" y="-17" font-family="Helvetica,sans-Serif" font-size="10.00">src/ros_can/src/ros</text>
<text text-anchor="middle" x="453.5" y="-5.75" font-family="Helvetica,sans-Serif" font-size="10.00">_can.cpp</text>
</a>
</g>
</g>
<!-- Node5&#45;&gt;Node6 -->
<g id="edge5_Node000005_Node000006" class="edge">
<title>Node5&#45;&gt;Node6</title>
<g id="a_edge5_Node000005_Node000006"><a xlink:title=" ">
<path fill="none" stroke="#63b8ff" d="M453.5,-60.4C453.5,-50.39 453.5,-39.31 453.5,-30.76"/>
<polygon fill="#63b8ff" stroke="#63b8ff" points="450,-60.33 453.5,-70.33 457,-60.33 450,-60.33"/>
</a>
</g>
</g>
</g>
</svg>
