<?xml version="1.0" encoding="UTF-8" standalone="no"?>
<!DOCTYPE svg PUBLIC "-//W3C//DTD SVG 1.1//EN"
 "http://www.w3.org/Graphics/SVG/1.1/DTD/svg11.dtd">
<!-- Generated by graphviz version 9.0.0 (20230911.1827)
 -->
<!-- Title: main Pages: 1 -->
<svg width="351pt" height="156pt"
 viewBox="0.00 0.00 350.75 156.25" xmlns="http://www.w3.org/2000/svg" xmlns:xlink="http://www.w3.org/1999/xlink">

<svg id="main" version="1.1" xmlns="http://www.w3.org/2000/svg" xmlns:xlink="http://www.w3.org/1999/xlink" xml:space="preserve" onload="init(evt)">
<style type="text/css"><![CDATA[
.node, .edge {opacity: 0.7;}
.node.selected, .edge.selected {opacity: 1;}
.edge:hover path { stroke: red; }
.edge:hover polygon { stroke: red; fill: red; }
]]></style>
<script type="application/ecmascript" xlink:href="svg.min.js"/>
<svg id="graph" class="graph">
<g id="graph0" class="graph" transform="scale(1 1) rotate(0) translate(4 152.25)">
<title>main</title>
<!-- Node1 -->
<g id="Node000001" class="node">
<title>Node1</title>
<g id="a_Node000001"><a xlink:title=" ">
<polygon fill="#999999" stroke="#666666" points="37,-92.25 0,-92.25 0,-73 37,-73 37,-92.25"/>
<text text-anchor="middle" x="18.5" y="-78.75" font-family="Helvetica,sans-Serif" font-size="10.00">main</text>
</a>
</g>
</g>
<!-- Node2 -->
<g id="Node000002" class="node">
<title>Node2</title>
<g id="a_Node000002"><a xlink:href="fs-ai__api_8c.html#a3052452b396a8990299189017d4616d0" target="_top" xlink:title=" ">
<polygon fill="white" stroke="#666666" points="204.5,-148.25 73,-148.25 73,-129 204.5,-129 204.5,-148.25"/>
<text text-anchor="middle" x="138.75" y="-134.75" font-family="Helvetica,sans-Serif" font-size="10.00">fs_ai_api_ai2vcu_set_data</text>
</a>
</g>
</g>
<!-- Node1&#45;&gt;Node2 -->
<g id="edge1_Node000001_Node000002" class="edge">
<title>Node1&#45;&gt;Node2</title>
<g id="a_edge1_Node000001_Node000002"><a xlink:title=" ">
<path fill="none" stroke="#63b8ff" d="M31.07,-92.66C41.44,-101.18 57.36,-113.18 73,-120.62 76.11,-122.11 79.37,-123.49 82.7,-124.77"/>
<polygon fill="#63b8ff" stroke="#63b8ff" points="81.44,-128.04 92.03,-128.03 83.75,-121.43 81.44,-128.04"/>
</a>
</g>
</g>
<!-- Node4 -->
<g id="Node000004" class="node">
<title>Node4</title>
<g id="a_Node000004"><a xlink:href="fs-ai__api_8c.html#ac748ae1e560c8449d597afeed5abeb74" target="_top" xlink:title=" ">
<polygon fill="white" stroke="#666666" points="175.25,-111.25 102.25,-111.25 102.25,-92 175.25,-92 175.25,-111.25"/>
<text text-anchor="middle" x="138.75" y="-97.75" font-family="Helvetica,sans-Serif" font-size="10.00">fs_ai_api_init</text>
</a>
</g>
</g>
<!-- Node1&#45;&gt;Node4 -->
<g id="edge3_Node000001_Node000004" class="edge">
<title>Node1&#45;&gt;Node4</title>
<g id="a_edge3_Node000001_Node000004"><a xlink:title=" ">
<path fill="none" stroke="#63b8ff" d="M37.46,-85.51C51.58,-87.78 71.93,-91.05 90.61,-94.05"/>
<polygon fill="#63b8ff" stroke="#63b8ff" points="90.04,-97.5 100.47,-95.63 91.15,-90.59 90.04,-97.5"/>
</a>
</g>
</g>
<!-- Node7 -->
<g id="Node000007" class="node">
<title>Node7</title>
<g id="a_Node000007"><a xlink:href="fs-ai__api_8c.html#a51d163f74a40ea6e3ac5d068e84ce0b2" target="_top" xlink:title=" ">
<polygon fill="white" stroke="#666666" points="204.5,-74.25 73,-74.25 73,-55 204.5,-55 204.5,-74.25"/>
<text text-anchor="middle" x="138.75" y="-60.75" font-family="Helvetica,sans-Serif" font-size="10.00">fs_ai_api_vcu2ai_get_data</text>
</a>
</g>
</g>
<!-- Node1&#45;&gt;Node7 -->
<g id="edge6_Node000001_Node000007" class="edge">
<title>Node1&#45;&gt;Node7</title>
<g id="a_edge6_Node000001_Node000007"><a xlink:title=" ">
<path fill="none" stroke="#63b8ff" d="M37.46,-79.89C44.23,-78.86 52.43,-77.61 61.19,-76.28"/>
<polygon fill="#63b8ff" stroke="#63b8ff" points="61.66,-79.75 71.02,-74.78 60.6,-72.83 61.66,-79.75"/>
</a>
</g>
</g>
<!-- Node8 -->
<g id="Node000008" class="node">
<title>Node8</title>
<g id="a_Node000008"><a xlink:href="loc__map_8cpp.html#a3c04138a5bfe5d72780bb7e82a18e627" target="_top" xlink:title="Main function.">
<polygon fill="white" stroke="#666666" points="157.25,-19.25 120.25,-19.25 120.25,0 157.25,0 157.25,-19.25"/>
<text text-anchor="middle" x="138.75" y="-5.75" font-family="Helvetica,sans-Serif" font-size="10.00">main</text>
</a>
</g>
</g>
<!-- Node1&#45;&gt;Node8 -->
<g id="edge7_Node000001_Node000008" class="edge">
<title>Node1&#45;&gt;Node8</title>
<g id="a_edge7_Node000001_Node000008"><a xlink:title=" ">
<path fill="none" stroke="#63b8ff" d="M33.33,-72.51C43.99,-64.85 59.19,-54.21 73,-45.62 84.88,-38.24 98.34,-30.64 109.91,-24.33"/>
<polygon fill="#63b8ff" stroke="#63b8ff" points="111.42,-27.49 118.56,-19.66 108.1,-21.33 111.42,-27.49"/>
</a>
</g>
</g>
<!-- Node3 -->
<g id="Node000003" class="node">
<title>Node3</title>
<g id="a_Node000003"><a xlink:href="can_8c.html#a9115860092012f045bcac21f58ad8d7a" target="_top" xlink:title=" ">
<polygon fill="white" stroke="#666666" points="320.62,-148.25 262.62,-148.25 262.62,-129 320.62,-129 320.62,-148.25"/>
<text text-anchor="middle" x="291.62" y="-134.75" font-family="Helvetica,sans-Serif" font-size="10.00">can_send</text>
</a>
</g>
</g>
<!-- Node2&#45;&gt;Node3 -->
<g id="edge2_Node000002_Node000003" class="edge">
<title>Node2&#45;&gt;Node3</title>
<g id="a_edge2_Node000002_Node000003"><a xlink:title=" ">
<path fill="none" stroke="#63b8ff" d="M204.61,-138.62C220.33,-138.62 236.68,-138.62 250.85,-138.62"/>
<polygon fill="#63b8ff" stroke="#63b8ff" points="250.67,-142.13 260.67,-138.63 250.67,-135.13 250.67,-142.13"/>
</a>
</g>
</g>
<!-- Node5 -->
<g id="Node000005" class="node">
<title>Node5</title>
<g id="a_Node000005"><a xlink:href="can_8c.html#aac1918f7b4492f0b299f27dd576d6d78" target="_top" xlink:title=" ">
<polygon fill="white" stroke="#666666" points="316.5,-111.25 266.75,-111.25 266.75,-92 316.5,-92 316.5,-111.25"/>
<text text-anchor="middle" x="291.62" y="-97.75" font-family="Helvetica,sans-Serif" font-size="10.00">can_init</text>
</a>
</g>
</g>
<!-- Node4&#45;&gt;Node5 -->
<g id="edge4_Node000004_Node000005" class="edge">
<title>Node4&#45;&gt;Node5</title>
<g id="a_edge4_Node000004_Node000005"><a xlink:title=" ">
<path fill="none" stroke="#63b8ff" d="M175.51,-101.62C199.51,-101.62 231.01,-101.62 254.99,-101.62"/>
<polygon fill="#63b8ff" stroke="#63b8ff" points="254.91,-105.13 264.91,-101.63 254.91,-98.13 254.91,-105.13"/>
</a>
</g>
</g>
<!-- Node6 -->
<g id="Node000006" class="node">
<title>Node6</title>
<g id="a_Node000006"><a xlink:href="fs-ai__api_8c.html#a27b94650142bddb0c9d8e94d03240d61" target="_top" xlink:title=" ">
<polygon fill="white" stroke="#666666" points="342.75,-73.88 240.5,-73.88 240.5,-43.38 342.75,-43.38 342.75,-73.88"/>
<text text-anchor="start" x="248.5" y="-60.38" font-family="Helvetica,sans-Serif" font-size="10.00">fs_ai_api_clear_can</text>
<text text-anchor="middle" x="291.62" y="-49.12" font-family="Helvetica,sans-Serif" font-size="10.00">_stats</text>
</a>
</g>
</g>
<!-- Node4&#45;&gt;Node6 -->
<g id="edge5_Node000004_Node000006" class="edge">
<title>Node4&#45;&gt;Node6</title>
<g id="a_edge5_Node000004_Node000006"><a xlink:title=" ">
<path fill="none" stroke="#63b8ff" d="M175.73,-91.7C185.1,-89.09 195.18,-86.27 204.5,-83.62 212.52,-81.35 220.95,-78.93 229.27,-76.53"/>
<polygon fill="#63b8ff" stroke="#63b8ff" points="230.01,-79.96 238.65,-73.82 228.07,-73.23 230.01,-79.96"/>
</a>
</g>
</g>
<!-- Node8&#45;&gt;Node8 -->
<g id="edge8_Node000008_Node000008" class="edge">
<title>Node8&#45;&gt;Node8</title>
<g id="a_edge8_Node000008_Node000008"><a xlink:title=" ">
<path fill="none" stroke="#63b8ff" d="M119.92,-19.54C111.34,-28.15 117.61,-37.25 138.75,-37.25 150.31,-37.25 157.42,-34.53 160.09,-30.65"/>
<polygon fill="#63b8ff" stroke="#63b8ff" points="163.53,-29.99 157.91,-21.01 156.71,-31.54 163.53,-29.99"/>
</a>
</g>
</g>
</g>
</svg>
</svg>

<style type='text/css'>
<![CDATA[
[data-mouse-over-selected='false'] { opacity: 0.7; }
[data-mouse-over-selected='true']  { opacity: 1.0; }
]]>
</style>
<script type="application/ecmascript"><![CDATA[
document.addEventListener('DOMContentLoaded', (event) => {
  highlightEdges();
  highlightAdjacentNodes();
});
]]></script>
</svg>
