<?xml version="1.0" encoding="UTF-8" standalone="no"?>
<!DOCTYPE svg PUBLIC "-//W3C//DTD SVG 1.1//EN"
 "http://www.w3.org/Graphics/SVG/1.1/DTD/svg11.dtd">
<!-- Generated by graphviz version 9.0.0 (20230911.1827)
 -->
<!-- Title: fs_ai_api_clear_can_stats Pages: 1 -->
<svg width="387pt" height="64pt"
 viewBox="0.00 0.00 386.75 64.25" xmlns="http://www.w3.org/2000/svg" xmlns:xlink="http://www.w3.org/1999/xlink">
<g id="graph0" class="graph" transform="scale(1 1) rotate(0) translate(4 60.25)">
<title>fs_ai_api_clear_can_stats</title>
<!-- Node1 -->
<g id="Node000001" class="node">
<title>Node1</title>
<g id="a_Node000001"><a xlink:title=" ">
<polygon fill="#999999" stroke="#666666" points="378.75,-42.88 276.5,-42.88 276.5,-12.37 378.75,-12.37 378.75,-42.88"/>
<text text-anchor="start" x="284.5" y="-29.38" font-family="Helvetica,sans-Serif" font-size="10.00">fs_ai_api_clear_can</text>
<text text-anchor="middle" x="327.62" y="-18.12" font-family="Helvetica,sans-Serif" font-size="10.00">_stats</text>
</a>
</g>
</g>
<!-- Node2 -->
<g id="Node000002" class="node">
<title>Node2</title>
<g id="a_Node000002"><a xlink:href="fs-ai__api_8c.html#ac748ae1e560c8449d597afeed5abeb74" target="_top" xlink:title=" ">
<polygon fill="white" stroke="#666666" points="240.5,-37.25 167.5,-37.25 167.5,-18 240.5,-18 240.5,-37.25"/>
<text text-anchor="middle" x="204" y="-23.75" font-family="Helvetica,sans-Serif" font-size="10.00">fs_ai_api_init</text>
</a>
</g>
</g>
<!-- Node1&#45;&gt;Node2 -->
<g id="edge1_Node000001_Node000002" class="edge">
<title>Node1&#45;&gt;Node2</title>
<g id="a_edge1_Node000001_Node000002"><a xlink:title=" ">
<path fill="none" stroke="#63b8ff" d="M264.87,-27.62C256.59,-27.62 248.35,-27.62 240.73,-27.62"/>
<polygon fill="#63b8ff" stroke="#63b8ff" points="264.59,-31.13 274.59,-27.63 264.59,-24.13 264.59,-31.13"/>
</a>
</g>
</g>
<!-- Node3 -->
<g id="Node000003" class="node">
<title>Node3</title>
<g id="a_Node000003"><a xlink:href="classCanInterface.html#a30b4be0d42ccab7b5a4b321f1dff2353" target="_top" xlink:title=" ">
<polygon fill="white" stroke="#666666" points="131.5,-56.25 0,-56.25 0,-37 131.5,-37 131.5,-56.25"/>
<text text-anchor="middle" x="65.75" y="-42.75" font-family="Helvetica,sans-Serif" font-size="10.00">CanInterface::CanInterface</text>
</a>
</g>
</g>
<!-- Node2&#45;&gt;Node3 -->
<g id="edge2_Node000002_Node000003" class="edge">
<title>Node2&#45;&gt;Node3</title>
<g id="a_edge2_Node000002_Node000003"><a xlink:title=" ">
<path fill="none" stroke="#63b8ff" d="M155.81,-34.21C148.06,-35.29 139.92,-36.42 131.83,-37.55"/>
<polygon fill="#63b8ff" stroke="#63b8ff" points="156.28,-37.67 165.7,-32.83 155.32,-30.74 156.28,-37.67"/>
</a>
</g>
</g>
<!-- Node4 -->
<g id="Node000004" class="node">
<title>Node4</title>
<g id="a_Node000004"><a xlink:href="fs-ai__api__console_8c.html#a3c04138a5bfe5d72780bb7e82a18e627" target="_top" xlink:title=" ">
<polygon fill="white" stroke="#666666" points="84.25,-19.25 47.25,-19.25 47.25,0 84.25,0 84.25,-19.25"/>
<text text-anchor="middle" x="65.75" y="-5.75" font-family="Helvetica,sans-Serif" font-size="10.00">main</text>
</a>
</g>
</g>
<!-- Node2&#45;&gt;Node4 -->
<g id="edge3_Node000002_Node000004" class="edge">
<title>Node2&#45;&gt;Node4</title>
<g id="a_edge3_Node000002_Node000004"><a xlink:title=" ">
<path fill="none" stroke="#63b8ff" d="M155.85,-21.4C131.18,-18.14 102.46,-14.34 84.44,-11.96"/>
<polygon fill="#63b8ff" stroke="#63b8ff" points="155.33,-24.86 165.7,-22.7 156.25,-17.92 155.33,-24.86"/>
</a>
</g>
</g>
</g>
</svg>
