<?xml version="1.0" encoding="UTF-8" standalone="no"?>
<!DOCTYPE svg PUBLIC "-//W3C//DTD SVG 1.1//EN"
 "http://www.w3.org/Graphics/SVG/1.1/DTD/svg11.dtd">
<!-- Generated by graphviz version 9.0.0 (20230911.1827)
 -->
<!-- Title: src/ros_can/FS&#45;AI&#45;API/FS&#45;AI_API_Console/fs&#45;ai_api_console.c Pages: 1 -->
<svg width="371pt" height="172pt"
 viewBox="0.00 0.00 370.50 171.50" xmlns="http://www.w3.org/2000/svg" xmlns:xlink="http://www.w3.org/1999/xlink">
<g id="graph0" class="graph" transform="scale(1 1) rotate(0) translate(4 167.5)">
<title>src/ros_can/FS&#45;AI&#45;API/FS&#45;AI_API_Console/fs&#45;ai_api_console.c</title>
<!-- Node1 -->
<g id="Node000001" class="node">
<title>Node1</title>
<g id="a_Node000001"><a xlink:title=" ">
<polygon fill="#999999" stroke="#666666" points="212.25,-163.5 94.25,-163.5 94.25,-121.75 212.25,-121.75 212.25,-163.5"/>
<text text-anchor="start" x="102.25" y="-150" font-family="Helvetica,sans-Serif" font-size="10.00">src/ros_can/FS&#45;AI&#45;API</text>
<text text-anchor="start" x="102.25" y="-138.75" font-family="Helvetica,sans-Serif" font-size="10.00">/FS&#45;AI_API_Console/fs</text>
<text text-anchor="middle" x="153.25" y="-127.5" font-family="Helvetica,sans-Serif" font-size="10.00">&#45;ai_api_console.c</text>
</a>
</g>
</g>
<!-- Node2 -->
<g id="Node000002" class="node">
<title>Node2</title>
<g id="a_Node000002"><a xlink:title=" ">
<polygon fill="#e0e0e0" stroke="#999999" points="44.5,-80.12 0,-80.12 0,-60.88 44.5,-60.88 44.5,-80.12"/>
<text text-anchor="middle" x="22.25" y="-66.62" font-family="Helvetica,sans-Serif" font-size="10.00">stdio.h</text>
</a>
</g>
</g>
<!-- Node1&#45;&gt;Node2 -->
<g id="edge1_Node000001_Node000002" class="edge">
<title>Node1&#45;&gt;Node2</title>
<g id="a_edge1_Node000001_Node000002"><a xlink:title=" ">
<path fill="none" stroke="#63b8ff" d="M115.36,-121.34C94.16,-110 68.24,-96.12 49.14,-85.89"/>
<polygon fill="#63b8ff" stroke="#63b8ff" points="50.84,-82.83 40.37,-81.2 47.53,-89 50.84,-82.83"/>
</a>
</g>
</g>
<!-- Node3 -->
<g id="Node000003" class="node">
<title>Node3</title>
<g id="a_Node000003"><a xlink:title=" ">
<polygon fill="#e0e0e0" stroke="#999999" points="110,-80.12 62.5,-80.12 62.5,-60.88 110,-60.88 110,-80.12"/>
<text text-anchor="middle" x="86.25" y="-66.62" font-family="Helvetica,sans-Serif" font-size="10.00">string.h</text>
</a>
</g>
</g>
<!-- Node1&#45;&gt;Node3 -->
<g id="edge2_Node000001_Node000003" class="edge">
<title>Node1&#45;&gt;Node3</title>
<g id="a_edge2_Node000001_Node000003"><a xlink:title=" ">
<path fill="none" stroke="#63b8ff" d="M133.87,-121.34C123.93,-110.94 111.96,-98.4 102.5,-88.51"/>
<polygon fill="#63b8ff" stroke="#63b8ff" points="105.14,-86.21 95.7,-81.4 100.08,-91.04 105.14,-86.21"/>
</a>
</g>
</g>
<!-- Node4 -->
<g id="Node000004" class="node">
<title>Node4</title>
<g id="a_Node000004"><a xlink:title=" ">
<polygon fill="#e0e0e0" stroke="#999999" points="178.12,-80.12 128.38,-80.12 128.38,-60.88 178.12,-60.88 178.12,-80.12"/>
<text text-anchor="middle" x="153.25" y="-66.62" font-family="Helvetica,sans-Serif" font-size="10.00">unistd.h</text>
</a>
</g>
</g>
<!-- Node1&#45;&gt;Node4 -->
<g id="edge3_Node000001_Node000004" class="edge">
<title>Node1&#45;&gt;Node4</title>
<g id="a_edge3_Node000001_Node000004"><a xlink:title=" ">
<path fill="none" stroke="#63b8ff" d="M153.25,-121.34C153.25,-112 153.25,-100.94 153.25,-91.62"/>
<polygon fill="#63b8ff" stroke="#63b8ff" points="156.75,-91.82 153.25,-81.82 149.75,-91.82 156.75,-91.82"/>
</a>
</g>
</g>
<!-- Node5 -->
<g id="Node000005" class="node">
<title>Node5</title>
<g id="a_Node000005"><a xlink:title=" ">
<polygon fill="#e0e0e0" stroke="#999999" points="252.12,-80.12 196.38,-80.12 196.38,-60.88 252.12,-60.88 252.12,-80.12"/>
<text text-anchor="middle" x="224.25" y="-66.62" font-family="Helvetica,sans-Serif" font-size="10.00">pthread.h</text>
</a>
</g>
</g>
<!-- Node1&#45;&gt;Node5 -->
<g id="edge4_Node000001_Node000005" class="edge">
<title>Node1&#45;&gt;Node5</title>
<g id="a_edge4_Node000001_Node000005"><a xlink:title=" ">
<path fill="none" stroke="#63b8ff" d="M173.79,-121.34C184.43,-110.83 197.27,-98.15 207.33,-88.21"/>
<polygon fill="#63b8ff" stroke="#63b8ff" points="209.61,-90.88 214.26,-81.37 204.69,-85.9 209.61,-90.88"/>
</a>
</g>
</g>
<!-- Node6 -->
<g id="Node000006" class="node">
<title>Node6</title>
<g id="a_Node000006"><a xlink:href="fs-ai__api_8h.html" target="_top" xlink:title=" ">
<polygon fill="white" stroke="#666666" points="362.5,-85.75 270,-85.75 270,-55.25 362.5,-55.25 362.5,-85.75"/>
<text text-anchor="start" x="278" y="-72.25" font-family="Helvetica,sans-Serif" font-size="10.00">../FS&#45;AI_API/fs&#45;ai</text>
<text text-anchor="middle" x="316.25" y="-61" font-family="Helvetica,sans-Serif" font-size="10.00">_api.h</text>
</a>
</g>
</g>
<!-- Node1&#45;&gt;Node6 -->
<g id="edge5_Node000001_Node000006" class="edge">
<title>Node1&#45;&gt;Node6</title>
<g id="a_edge5_Node000001_Node000006"><a xlink:title=" ">
<path fill="none" stroke="#63b8ff" d="M200.4,-121.34C222.86,-111.68 249.58,-100.18 271.7,-90.67"/>
<polygon fill="#63b8ff" stroke="#63b8ff" points="272.96,-93.94 280.76,-86.77 270.19,-87.5 272.96,-93.94"/>
</a>
</g>
</g>
<!-- Node7 -->
<g id="Node000007" class="node">
<title>Node7</title>
<g id="a_Node000007"><a xlink:title=" ">
<polygon fill="#e0e0e0" stroke="#999999" points="340,-19.25 292.5,-19.25 292.5,0 340,0 340,-19.25"/>
<text text-anchor="middle" x="316.25" y="-5.75" font-family="Helvetica,sans-Serif" font-size="10.00">stdint.h</text>
</a>
</g>
</g>
<!-- Node6&#45;&gt;Node7 -->
<g id="edge6_Node000006_Node000007" class="edge">
<title>Node6&#45;&gt;Node7</title>
<g id="a_edge6_Node000006_Node000007"><a xlink:title=" ">
<path fill="none" stroke="#63b8ff" d="M316.25,-54.95C316.25,-47.71 316.25,-38.84 316.25,-30.94"/>
<polygon fill="#63b8ff" stroke="#63b8ff" points="319.75,-31.21 316.25,-21.21 312.75,-31.21 319.75,-31.21"/>
</a>
</g>
</g>
</g>
</svg>
