<?xml version="1.0" encoding="UTF-8" standalone="no"?>
<!DOCTYPE svg PUBLIC "-//W3C//DTD SVG 1.1//EN"
 "http://www.w3.org/Graphics/SVG/1.1/DTD/svg11.dtd">
<!-- Generated by graphviz version 9.0.0 (20230911.1827)
 -->
<!-- Title: src/ros_can/FS&#45;AI&#45;API/FS&#45;AI_API/fs&#45;ai_api.c Pages: 1 -->
<svg width="570pt" height="149pt"
 viewBox="0.00 0.00 570.12 149.00" xmlns="http://www.w3.org/2000/svg" xmlns:xlink="http://www.w3.org/1999/xlink">
<g id="graph0" class="graph" transform="scale(1 1) rotate(0) translate(4 145)">
<title>src/ros_can/FS&#45;AI&#45;API/FS&#45;AI_API/fs&#45;ai_api.c</title>
<!-- Node1 -->
<g id="Node000001" class="node">
<title>Node1</title>
<g id="a_Node000001"><a xlink:title=" ">
<polygon fill="#999999" stroke="#666666" points="313.75,-141 198.75,-141 198.75,-110.5 313.75,-110.5 313.75,-141"/>
<text text-anchor="start" x="206.75" y="-127.5" font-family="Helvetica,sans-Serif" font-size="10.00">src/ros_can/FS&#45;AI&#45;API</text>
<text text-anchor="middle" x="256.25" y="-116.25" font-family="Helvetica,sans-Serif" font-size="10.00">/FS&#45;AI_API/fs&#45;ai_api.c</text>
</a>
</g>
</g>
<!-- Node2 -->
<g id="Node000002" class="node">
<title>Node2</title>
<g id="a_Node000002"><a xlink:title=" ">
<polygon fill="#e0e0e0" stroke="#999999" points="44.5,-74.5 0,-74.5 0,-55.25 44.5,-55.25 44.5,-74.5"/>
<text text-anchor="middle" x="22.25" y="-61" font-family="Helvetica,sans-Serif" font-size="10.00">stdio.h</text>
</a>
</g>
</g>
<!-- Node1&#45;&gt;Node2 -->
<g id="edge1_Node000001_Node000002" class="edge">
<title>Node1&#45;&gt;Node2</title>
<g id="a_edge1_Node000001_Node000002"><a xlink:title=" ">
<path fill="none" stroke="#63b8ff" d="M198.27,-110.64C160.46,-101.37 109.75,-88.8 56.09,-74.94"/>
<polygon fill="#63b8ff" stroke="#63b8ff" points="56.98,-71.55 46.43,-72.43 55.23,-78.33 56.98,-71.55"/>
</a>
</g>
</g>
<!-- Node3 -->
<g id="Node000003" class="node">
<title>Node3</title>
<g id="a_Node000003"><a xlink:title=" ">
<polygon fill="#e0e0e0" stroke="#999999" points="109.62,-74.5 62.88,-74.5 62.88,-55.25 109.62,-55.25 109.62,-74.5"/>
<text text-anchor="middle" x="86.25" y="-61" font-family="Helvetica,sans-Serif" font-size="10.00">stdlib.h</text>
</a>
</g>
</g>
<!-- Node1&#45;&gt;Node3 -->
<g id="edge2_Node000001_Node000003" class="edge">
<title>Node1&#45;&gt;Node3</title>
<g id="a_edge2_Node000001_Node000003"><a xlink:title=" ">
<path fill="none" stroke="#63b8ff" d="M213.79,-110.05C185.05,-100.09 147.56,-87.11 120.68,-77.8"/>
<polygon fill="#63b8ff" stroke="#63b8ff" points="121.89,-74.51 111.3,-74.55 119.6,-81.13 121.89,-74.51"/>
</a>
</g>
</g>
<!-- Node4 -->
<g id="Node000004" class="node">
<title>Node4</title>
<g id="a_Node000004"><a xlink:title=" ">
<polygon fill="#e0e0e0" stroke="#999999" points="322,-19.25 274.5,-19.25 274.5,0 322,0 322,-19.25"/>
<text text-anchor="middle" x="298.25" y="-5.75" font-family="Helvetica,sans-Serif" font-size="10.00">stdint.h</text>
</a>
</g>
</g>
<!-- Node1&#45;&gt;Node4 -->
<g id="edge3_Node000001_Node000004" class="edge">
<title>Node1&#45;&gt;Node4</title>
<g id="a_edge3_Node000001_Node000004"><a xlink:title=" ">
<path fill="none" stroke="#63b8ff" d="M203.85,-110.08C171.2,-98.19 138.49,-79.45 156.25,-55.25 180.53,-22.17 229.32,-12.96 262.87,-10.73"/>
<polygon fill="#63b8ff" stroke="#63b8ff" points="262.7,-14.24 272.53,-10.28 262.37,-7.25 262.7,-14.24"/>
</a>
</g>
</g>
<!-- Node5 -->
<g id="Node000005" class="node">
<title>Node5</title>
<g id="a_Node000005"><a xlink:title=" ">
<polygon fill="#e0e0e0" stroke="#999999" points="213,-74.5 165.5,-74.5 165.5,-55.25 213,-55.25 213,-74.5"/>
<text text-anchor="middle" x="189.25" y="-61" font-family="Helvetica,sans-Serif" font-size="10.00">string.h</text>
</a>
</g>
</g>
<!-- Node1&#45;&gt;Node5 -->
<g id="edge4_Node000001_Node000005" class="edge">
<title>Node1&#45;&gt;Node5</title>
<g id="a_edge4_Node000001_Node000005"><a xlink:title=" ">
<path fill="none" stroke="#63b8ff" d="M239.69,-110.2C230.08,-101.75 217.94,-91.08 207.98,-82.33"/>
<polygon fill="#63b8ff" stroke="#63b8ff" points="210.54,-79.92 200.72,-75.95 205.92,-85.18 210.54,-79.92"/>
</a>
</g>
</g>
<!-- Node6 -->
<g id="Node000006" class="node">
<title>Node6</title>
<g id="a_Node000006"><a xlink:title=" ">
<polygon fill="#e0e0e0" stroke="#999999" points="281.12,-74.5 231.38,-74.5 231.38,-55.25 281.12,-55.25 281.12,-74.5"/>
<text text-anchor="middle" x="256.25" y="-61" font-family="Helvetica,sans-Serif" font-size="10.00">unistd.h</text>
</a>
</g>
</g>
<!-- Node1&#45;&gt;Node6 -->
<g id="edge5_Node000001_Node000006" class="edge">
<title>Node1&#45;&gt;Node6</title>
<g id="a_edge5_Node000001_Node000006"><a xlink:title=" ">
<path fill="none" stroke="#63b8ff" d="M256.25,-110.2C256.25,-102.96 256.25,-94.09 256.25,-86.19"/>
<polygon fill="#63b8ff" stroke="#63b8ff" points="259.75,-86.46 256.25,-76.46 252.75,-86.46 259.75,-86.46"/>
</a>
</g>
</g>
<!-- Node7 -->
<g id="Node000007" class="node">
<title>Node7</title>
<g id="a_Node000007"><a xlink:title=" ">
<polygon fill="#e0e0e0" stroke="#999999" points="355.12,-74.5 299.38,-74.5 299.38,-55.25 355.12,-55.25 355.12,-74.5"/>
<text text-anchor="middle" x="327.25" y="-61" font-family="Helvetica,sans-Serif" font-size="10.00">pthread.h</text>
</a>
</g>
</g>
<!-- Node1&#45;&gt;Node7 -->
<g id="edge6_Node000001_Node000007" class="edge">
<title>Node1&#45;&gt;Node7</title>
<g id="a_edge6_Node000001_Node000007"><a xlink:title=" ">
<path fill="none" stroke="#63b8ff" d="M273.8,-110.2C284.09,-101.66 297.11,-90.87 307.73,-82.06"/>
<polygon fill="#63b8ff" stroke="#63b8ff" points="309.68,-84.99 315.14,-75.92 305.21,-79.61 309.68,-84.99"/>
</a>
</g>
</g>
<!-- Node8 -->
<g id="Node000008" class="node">
<title>Node8</title>
<g id="a_Node000008"><a xlink:title=" ">
<polygon fill="#e0e0e0" stroke="#999999" points="415.38,-74.5 373.12,-74.5 373.12,-55.25 415.38,-55.25 415.38,-74.5"/>
<text text-anchor="middle" x="394.25" y="-61" font-family="Helvetica,sans-Serif" font-size="10.00">time.h</text>
</a>
</g>
</g>
<!-- Node1&#45;&gt;Node8 -->
<g id="edge7_Node000001_Node000008" class="edge">
<title>Node1&#45;&gt;Node8</title>
<g id="a_edge7_Node000001_Node000008"><a xlink:title=" ">
<path fill="none" stroke="#63b8ff" d="M290.72,-110.05C312.74,-100.65 341.1,-88.55 362.56,-79.39"/>
<polygon fill="#63b8ff" stroke="#63b8ff" points="363.87,-82.64 371.69,-75.5 361.12,-76.2 363.87,-82.64"/>
</a>
</g>
</g>
<!-- Node9 -->
<g id="Node000009" class="node">
<title>Node9</title>
<g id="a_Node000009"><a xlink:href="can_8h.html" target="_top" xlink:title=" ">
<polygon fill="white" stroke="#666666" points="550.88,-74.5 511.62,-74.5 511.62,-55.25 550.88,-55.25 550.88,-74.5"/>
<text text-anchor="middle" x="531.25" y="-61" font-family="Helvetica,sans-Serif" font-size="10.00">can.h</text>
</a>
</g>
</g>
<!-- Node1&#45;&gt;Node9 -->
<g id="edge8_Node000001_Node000009" class="edge">
<title>Node1&#45;&gt;Node9</title>
<g id="a_edge8_Node000001_Node000009"><a xlink:title=" ">
<path fill="none" stroke="#63b8ff" d="M314.23,-114.39C361.74,-105.57 430.93,-91.95 500.23,-74.82"/>
<polygon fill="#63b8ff" stroke="#63b8ff" points="501.02,-78.23 509.88,-72.41 499.33,-71.44 501.02,-78.23"/>
</a>
</g>
</g>
<!-- Node11 -->
<g id="Node000011" class="node">
<title>Node11</title>
<g id="a_Node000011"><a xlink:href="fs-ai__api_8h.html" target="_top" xlink:title=" ">
<polygon fill="white" stroke="#666666" points="493.38,-74.5 433.12,-74.5 433.12,-55.25 493.38,-55.25 493.38,-74.5"/>
<text text-anchor="middle" x="463.25" y="-61" font-family="Helvetica,sans-Serif" font-size="10.00">fs&#45;ai_api.h</text>
</a>
</g>
</g>
<!-- Node1&#45;&gt;Node11 -->
<g id="edge10_Node000001_Node000011" class="edge">
<title>Node1&#45;&gt;Node11</title>
<g id="a_edge10_Node000001_Node000011"><a xlink:title=" ">
<path fill="none" stroke="#63b8ff" d="M307.95,-110.05C343.09,-100.05 388.95,-87.01 421.71,-77.69"/>
<polygon fill="#63b8ff" stroke="#63b8ff" points="422.6,-81.08 431.26,-74.97 420.68,-74.34 422.6,-81.08"/>
</a>
</g>
</g>
<!-- Node10 -->
<g id="Node000010" class="node">
<title>Node10</title>
<g id="a_Node000010"><a xlink:title=" ">
<polygon fill="#e0e0e0" stroke="#999999" points="562.12,-19.25 500.38,-19.25 500.38,0 562.12,0 562.12,-19.25"/>
<text text-anchor="middle" x="531.25" y="-5.75" font-family="Helvetica,sans-Serif" font-size="10.00">linux/can.h</text>
</a>
</g>
</g>
<!-- Node9&#45;&gt;Node10 -->
<g id="edge9_Node000009_Node000010" class="edge">
<title>Node9&#45;&gt;Node10</title>
<g id="a_edge9_Node000009_Node000010"><a xlink:title=" ">
<path fill="none" stroke="#63b8ff" d="M531.25,-55.08C531.25,-48.57 531.25,-39.42 531.25,-31.12"/>
<polygon fill="#63b8ff" stroke="#63b8ff" points="534.75,-31.12 531.25,-21.12 527.75,-31.12 534.75,-31.12"/>
</a>
</g>
</g>
<!-- Node11&#45;&gt;Node4 -->
<g id="edge11_Node000011_Node000004" class="edge">
<title>Node11&#45;&gt;Node4</title>
<g id="a_edge11_Node000011_Node000004"><a xlink:title=" ">
<path fill="none" stroke="#63b8ff" d="M435.26,-54.84C407.13,-45.76 363.7,-31.75 333.3,-21.94"/>
<polygon fill="#63b8ff" stroke="#63b8ff" points="334.38,-18.61 323.79,-18.87 332.23,-25.27 334.38,-18.61"/>
</a>
</g>
</g>
</g>
</svg>
