<?xml version="1.0" encoding="UTF-8" standalone="no"?>
<!DOCTYPE svg PUBLIC "-//W3C//DTD SVG 1.1//EN"
 "http://www.w3.org/Graphics/SVG/1.1/DTD/svg11.dtd">
<!-- Generated by graphviz version 9.0.0 (20230911.1827)
 -->
<!-- Title: src/ros_can/FS&#45;AI&#45;API/FS&#45;AI_API_Tester/fs&#45;ai_api_tester.c Pages: 1 -->
<svg width="231pt" height="172pt"
 viewBox="0.00 0.00 230.50 171.50" xmlns="http://www.w3.org/2000/svg" xmlns:xlink="http://www.w3.org/1999/xlink">
<g id="graph0" class="graph" transform="scale(1 1) rotate(0) translate(4 167.5)">
<title>src/ros_can/FS&#45;AI&#45;API/FS&#45;AI_API_Tester/fs&#45;ai_api_tester.c</title>
<!-- Node1 -->
<g id="Node000001" class="node">
<title>Node1</title>
<g id="a_Node000001"><a xlink:title=" ">
<polygon fill="#999999" stroke="#666666" points="144.75,-163.5 29.75,-163.5 29.75,-121.75 144.75,-121.75 144.75,-163.5"/>
<text text-anchor="start" x="37.75" y="-150" font-family="Helvetica,sans-Serif" font-size="10.00">src/ros_can/FS&#45;AI&#45;API</text>
<text text-anchor="start" x="37.75" y="-138.75" font-family="Helvetica,sans-Serif" font-size="10.00">/FS&#45;AI_API_Tester/fs</text>
<text text-anchor="middle" x="87.25" y="-127.5" font-family="Helvetica,sans-Serif" font-size="10.00">&#45;ai_api_tester.c</text>
</a>
</g>
</g>
<!-- Node2 -->
<g id="Node000002" class="node">
<title>Node2</title>
<g id="a_Node000002"><a xlink:title=" ">
<polygon fill="#e0e0e0" stroke="#999999" points="44.5,-80.12 0,-80.12 0,-60.88 44.5,-60.88 44.5,-80.12"/>
<text text-anchor="middle" x="22.25" y="-66.62" font-family="Helvetica,sans-Serif" font-size="10.00">stdio.h</text>
</a>
</g>
</g>
<!-- Node1&#45;&gt;Node2 -->
<g id="edge1_Node000001_Node000002" class="edge">
<title>Node1&#45;&gt;Node2</title>
<g id="a_edge1_Node000001_Node000002"><a xlink:title=" ">
<path fill="none" stroke="#63b8ff" d="M68.45,-121.34C58.8,-110.94 47.19,-98.4 38.02,-88.51"/>
<polygon fill="#63b8ff" stroke="#63b8ff" points="40.8,-86.37 31.44,-81.41 35.67,-91.12 40.8,-86.37"/>
</a>
</g>
</g>
<!-- Node3 -->
<g id="Node000003" class="node">
<title>Node3</title>
<g id="a_Node000003"><a xlink:title=" ">
<polygon fill="#e0e0e0" stroke="#999999" points="112.12,-80.12 62.38,-80.12 62.38,-60.88 112.12,-60.88 112.12,-80.12"/>
<text text-anchor="middle" x="87.25" y="-66.62" font-family="Helvetica,sans-Serif" font-size="10.00">unistd.h</text>
</a>
</g>
</g>
<!-- Node1&#45;&gt;Node3 -->
<g id="edge2_Node000001_Node000003" class="edge">
<title>Node1&#45;&gt;Node3</title>
<g id="a_edge2_Node000001_Node000003"><a xlink:title=" ">
<path fill="none" stroke="#63b8ff" d="M87.25,-121.34C87.25,-112 87.25,-100.94 87.25,-91.62"/>
<polygon fill="#63b8ff" stroke="#63b8ff" points="90.75,-91.82 87.25,-81.82 83.75,-91.82 90.75,-91.82"/>
</a>
</g>
</g>
<!-- Node4 -->
<g id="Node000004" class="node">
<title>Node4</title>
<g id="a_Node000004"><a xlink:href="fs-ai__api_8h.html" target="_top" xlink:title=" ">
<polygon fill="white" stroke="#666666" points="222.5,-85.75 130,-85.75 130,-55.25 222.5,-55.25 222.5,-85.75"/>
<text text-anchor="start" x="138" y="-72.25" font-family="Helvetica,sans-Serif" font-size="10.00">../FS&#45;AI_API/fs&#45;ai</text>
<text text-anchor="middle" x="176.25" y="-61" font-family="Helvetica,sans-Serif" font-size="10.00">_api.h</text>
</a>
</g>
</g>
<!-- Node1&#45;&gt;Node4 -->
<g id="edge3_Node000001_Node000004" class="edge">
<title>Node1&#45;&gt;Node4</title>
<g id="a_edge3_Node000001_Node000004"><a xlink:title=" ">
<path fill="none" stroke="#63b8ff" d="M112.99,-121.34C124.25,-112.47 137.48,-102.05 148.91,-93.04"/>
<polygon fill="#63b8ff" stroke="#63b8ff" points="150.75,-96.04 156.44,-87.11 146.42,-90.55 150.75,-96.04"/>
</a>
</g>
</g>
<!-- Node5 -->
<g id="Node000005" class="node">
<title>Node5</title>
<g id="a_Node000005"><a xlink:title=" ">
<polygon fill="#e0e0e0" stroke="#999999" points="200,-19.25 152.5,-19.25 152.5,0 200,0 200,-19.25"/>
<text text-anchor="middle" x="176.25" y="-5.75" font-family="Helvetica,sans-Serif" font-size="10.00">stdint.h</text>
</a>
</g>
</g>
<!-- Node4&#45;&gt;Node5 -->
<g id="edge4_Node000004_Node000005" class="edge">
<title>Node4&#45;&gt;Node5</title>
<g id="a_edge4_Node000004_Node000005"><a xlink:title=" ">
<path fill="none" stroke="#63b8ff" d="M176.25,-54.95C176.25,-47.71 176.25,-38.84 176.25,-30.94"/>
<polygon fill="#63b8ff" stroke="#63b8ff" points="179.75,-31.21 176.25,-21.21 172.75,-31.21 179.75,-31.21"/>
</a>
</g>
</g>
</g>
</svg>
