<?xml version="1.0" encoding="UTF-8" standalone="no"?>
<!DOCTYPE svg PUBLIC "-//W3C//DTD SVG 1.1//EN"
 "http://www.w3.org/Graphics/SVG/1.1/DTD/svg11.dtd">
<!-- Generated by graphviz version 9.0.0 (20230911.1827)
 -->
<!-- Title: main Pages: 1 -->
<svg width="292pt" height="103pt"
 viewBox="0.00 0.00 292.25 103.25" xmlns="http://www.w3.org/2000/svg" xmlns:xlink="http://www.w3.org/1999/xlink">

<svg id="main" version="1.1" xmlns="http://www.w3.org/2000/svg" xmlns:xlink="http://www.w3.org/1999/xlink" xml:space="preserve" onload="init(evt)">
<style type="text/css"><![CDATA[
.node, .edge {opacity: 0.7;}
.node.selected, .edge.selected {opacity: 1;}
.edge:hover path { stroke: red; }
.edge:hover polygon { stroke: red; fill: red; }
]]></style>
<script type="application/ecmascript" xlink:href="svg.min.js"/>
<svg id="graph" class="graph">
<g id="graph0" class="graph" transform="scale(1 1) rotate(0) translate(4 99.25)">
<title>main</title>
<!-- Node1 -->
<g id="Node000001" class="node">
<title>Node1</title>
<g id="a_Node000001"><a xlink:title=" ">
<polygon fill="#999999" stroke="#666666" points="37,-46.25 0,-46.25 0,-27 37,-27 37,-46.25"/>
<text text-anchor="middle" x="18.5" y="-32.75" font-family="Helvetica,sans-Serif" font-size="10.00">main</text>
</a>
</g>
</g>
<!-- Node2 -->
<g id="Node000002" class="node">
<title>Node2</title>
<g id="a_Node000002"><a xlink:href="fs-ai__api_8c.html#ac748ae1e560c8449d597afeed5abeb74" target="_top" xlink:title=" ">
<polygon fill="white" stroke="#666666" points="146,-74.25 73,-74.25 73,-55 146,-55 146,-74.25"/>
<text text-anchor="middle" x="109.5" y="-60.75" font-family="Helvetica,sans-Serif" font-size="10.00">fs_ai_api_init</text>
</a>
</g>
</g>
<!-- Node1&#45;&gt;Node2 -->
<g id="edge1_Node000001_Node000002" class="edge">
<title>Node1&#45;&gt;Node2</title>
<g id="a_edge1_Node000001_Node000002"><a xlink:title=" ">
<path fill="none" stroke="#63b8ff" d="M37.08,-42.16C45.34,-44.76 55.58,-47.98 65.71,-51.16"/>
<polygon fill="#63b8ff" stroke="#63b8ff" points="64.51,-54.45 75.1,-54.12 66.61,-47.78 64.51,-54.45"/>
</a>
</g>
</g>
<!-- Node5 -->
<g id="Node000005" class="node">
<title>Node5</title>
<g id="a_Node000005"><a xlink:href="loc__map_8cpp.html#a3c04138a5bfe5d72780bb7e82a18e627" target="_top" xlink:title="Main function.">
<polygon fill="white" stroke="#666666" points="128,-19.25 91,-19.25 91,0 128,0 128,-19.25"/>
<text text-anchor="middle" x="109.5" y="-5.75" font-family="Helvetica,sans-Serif" font-size="10.00">main</text>
</a>
</g>
</g>
<!-- Node1&#45;&gt;Node5 -->
<g id="edge4_Node000001_Node000005" class="edge">
<title>Node1&#45;&gt;Node5</title>
<g id="a_edge4_Node000001_Node000005"><a xlink:title=" ">
<path fill="none" stroke="#63b8ff" d="M37.08,-31.29C49.32,-27.58 65.89,-22.55 80,-18.27"/>
<polygon fill="#63b8ff" stroke="#63b8ff" points="80.65,-21.73 89.2,-15.48 78.61,-15.03 80.65,-21.73"/>
</a>
</g>
</g>
<!-- Node3 -->
<g id="Node000003" class="node">
<title>Node3</title>
<g id="a_Node000003"><a xlink:href="can_8c.html#aac1918f7b4492f0b299f27dd576d6d78" target="_top" xlink:title=" ">
<polygon fill="white" stroke="#666666" points="258,-95.25 208.25,-95.25 208.25,-76 258,-76 258,-95.25"/>
<text text-anchor="middle" x="233.12" y="-81.75" font-family="Helvetica,sans-Serif" font-size="10.00">can_init</text>
</a>
</g>
</g>
<!-- Node2&#45;&gt;Node3 -->
<g id="edge2_Node000002_Node000003" class="edge">
<title>Node2&#45;&gt;Node3</title>
<g id="a_edge2_Node000002_Node000003"><a xlink:title=" ">
<path fill="none" stroke="#63b8ff" d="M146.33,-70.81C162.35,-73.58 181.16,-76.82 197.08,-79.57"/>
<polygon fill="#63b8ff" stroke="#63b8ff" points="196.14,-82.96 206.59,-81.22 197.33,-76.06 196.14,-82.96"/>
</a>
</g>
</g>
<!-- Node4 -->
<g id="Node000004" class="node">
<title>Node4</title>
<g id="a_Node000004"><a xlink:href="fs-ai__api_8c.html#a27b94650142bddb0c9d8e94d03240d61" target="_top" xlink:title=" ">
<polygon fill="white" stroke="#666666" points="284.25,-57.88 182,-57.88 182,-27.38 284.25,-27.38 284.25,-57.88"/>
<text text-anchor="start" x="190" y="-44.38" font-family="Helvetica,sans-Serif" font-size="10.00">fs_ai_api_clear_can</text>
<text text-anchor="middle" x="233.12" y="-33.12" font-family="Helvetica,sans-Serif" font-size="10.00">_stats</text>
</a>
</g>
</g>
<!-- Node2&#45;&gt;Node4 -->
<g id="edge3_Node000002_Node000004" class="edge">
<title>Node2&#45;&gt;Node4</title>
<g id="a_edge3_Node000002_Node000004"><a xlink:title=" ">
<path fill="none" stroke="#63b8ff" d="M146.33,-58.14C153.95,-56.77 162.19,-55.28 170.45,-53.78"/>
<polygon fill="#63b8ff" stroke="#63b8ff" points="170.97,-57.24 180.19,-52.02 169.73,-50.36 170.97,-57.24"/>
</a>
</g>
</g>
<!-- Node5&#45;&gt;Node5 -->
<g id="edge5_Node000005_Node000005" class="edge">
<title>Node5&#45;&gt;Node5</title>
<g id="a_edge5_Node000005_Node000005"><a xlink:title=" ">
<path fill="none" stroke="#63b8ff" d="M95.25,-19.54C88.76,-28.15 93.5,-37.25 109.5,-37.25 118.25,-37.25 123.63,-34.53 125.65,-30.65"/>
<polygon fill="#63b8ff" stroke="#63b8ff" points="129.14,-30.29 124,-21.03 122.24,-31.48 129.14,-30.29"/>
</a>
</g>
</g>
</g>
</svg>
</svg>

<style type='text/css'>
<![CDATA[
[data-mouse-over-selected='false'] { opacity: 0.7; }
[data-mouse-over-selected='true']  { opacity: 1.0; }
]]>
</style>
<script type="application/ecmascript"><![CDATA[
document.addEventListener('DOMContentLoaded', (event) => {
  highlightEdges();
  highlightAdjacentNodes();
});
]]></script>
</svg>
