<?xml version="1.0" encoding="UTF-8" standalone="no"?>
<!DOCTYPE svg PUBLIC "-//W3C//DTD SVG 1.1//EN"
 "http://www.w3.org/Graphics/SVG/1.1/DTD/svg11.dtd">
<!-- Generated by graphviz version 9.0.0 (20230911.1827)
 -->
<!-- Title: src/ros_can/FS&#45;AI&#45;API/FS&#45;AI_API/fs&#45;ai_api.h Pages: 1 -->
<!--zoomable 183 -->

<svg id="main" version="1.1" xmlns="http://www.w3.org/2000/svg" xmlns:xlink="http://www.w3.org/1999/xlink" xml:space="preserve" onload="init(evt)">
<style type="text/css"><![CDATA[
.node, .edge {opacity: 0.7;}
.node.selected, .edge.selected {opacity: 1;}
.edge:hover path { stroke: red; }
.edge:hover polygon { stroke: red; fill: red; }
]]></style>

<defs>
  <circle id="rim" cx="0" cy="0" r="7"/>
  <circle id="rim2" cx="0" cy="0" r="3.5"/>
  <g id="zoomPlus">
    <use xlink:href="#rim" fill="#404040"><set attributeName="fill" to="#808080" begin="zoomplus.mouseover" end="zoomplus.mouseout"/></use>
    <path d="M-4,0h8M0,-4v8" fill="none" stroke="white" stroke-width="1.5" pointer-events="none"/>
  </g>
  <g id="zoomMin">
    <use xlink:href="#rim" fill="#404040"><set attributeName="fill" to="#808080" begin="zoomminus.mouseover" end="zoomminus.mouseout"/></use>
    <path d="M-4,0h8" fill="none" stroke="white" stroke-width="1.5" pointer-events="none"/>
  </g>
  <g id="arrowUp" transform="translate(30 24)">
    <use xlink:href="#rim"/>
    <path pointer-events="none" fill="none" stroke="white" stroke-width="1.5" d="M0,-3.0v7 M-2.5,-0.5L0,-3.0L2.5,-0.5"/>
  </g>
  <g id="arrowRight" transform="rotate(90) translate(36 -43)">
    <use xlink:href="#rim"/>
    <path pointer-events="none" fill="none" stroke="white" stroke-width="1.5" d="M0,-3.0v7 M-2.5,-0.5L0,-3.0L2.5,-0.5"/>
  </g>
  <g id="arrowDown" transform="rotate(180) translate(-30 -48)">
    <use xlink:href="#rim"/>
    <path pointer-events="none" fill="none" stroke="white" stroke-width="1.5" d="M0,-3.0v7 M-2.5,-0.5L0,-3.0L2.5,-0.5"/>
  </g>
  <g id="arrowLeft" transform="rotate(270) translate(-36 17)">
    <use xlink:href="#rim"/>
    <path pointer-events="none" fill="none" stroke="white" stroke-width="1.5" d="M0,-3.0v7 M-2.5,-0.5L0,-3.0L2.5,-0.5"/>
  </g>
  <g id="resetDef">
    <use xlink:href="#rim2" fill="#404040"><set attributeName="fill" to="#808080" begin="reset.mouseover" end="reset.mouseout"/></use>
  </g>
</defs>
<script type="application/ecmascript">
var viewWidth = 512;
var viewHeight = 183;
var sectionId = 'dynsection-1';
</script>
<script type="application/ecmascript" xlink:href="svg.min.js"/>
<svg id="graph" class="graph">
<g id="viewport">
<title>src/ros_can/FS&#45;AI&#45;API/FS&#45;AI_API/fs&#45;ai_api.h</title>
<!-- Node1 -->
<g id="Node000001" class="node">
<title>Node1</title>
<g id="a_Node000001"><a xlink:title=" ">
<polygon fill="#999999" stroke="#666666" points="317,-174.75 202,-174.75 202,-144.25 317,-144.25 317,-174.75"/>
<text text-anchor="start" x="210" y="-161.25" font-family="Helvetica,sans-Serif" font-size="10.00">src/ros_can/FS&#45;AI&#45;API</text>
<text text-anchor="middle" x="259.5" y="-150" font-family="Helvetica,sans-Serif" font-size="10.00">/FS&#45;AI_API/fs&#45;ai_api.h</text>
</a>
</g>
</g>
<!-- Node2 -->
<g id="Node000002" class="node">
<title>Node2</title>
<g id="a_Node000002"><a xlink:href="fs-ai__api_8c.html" target="_top" xlink:title=" ">
<polygon fill="white" stroke="#666666" points="115,-102.62 0,-102.62 0,-72.12 115,-72.12 115,-102.62"/>
<text text-anchor="start" x="8" y="-89.12" font-family="Helvetica,sans-Serif" font-size="10.00">src/ros_can/FS&#45;AI&#45;API</text>
<text text-anchor="middle" x="57.5" y="-77.88" font-family="Helvetica,sans-Serif" font-size="10.00">/FS&#45;AI_API/fs&#45;ai_api.c</text>
</a>
</g>
</g>
<!-- Node1&#45;&gt;Node2 -->
<g id="edge1_Node000001_Node000002" class="edge">
<title>Node1&#45;&gt;Node2</title>
<g id="a_edge1_Node000001_Node000002"><a xlink:title=" ">
<path fill="none" stroke="#63b8ff" d="M206.68,-140.16C173.35,-128.59 130.89,-113.85 99.79,-103.06"/>
<polygon fill="#63b8ff" stroke="#63b8ff" points="205.13,-143.33 215.72,-143.3 207.43,-136.72 205.13,-143.33"/>
</a>
</g>
</g>
<!-- Node3 -->
<g id="Node000003" class="node">
<title>Node3</title>
<g id="a_Node000003"><a xlink:href="fs-ai__api__console_8c.html" target="_top" xlink:title=" ">
<polygon fill="white" stroke="#666666" points="251.5,-108.25 133.5,-108.25 133.5,-66.5 251.5,-66.5 251.5,-108.25"/>
<text text-anchor="start" x="141.5" y="-94.75" font-family="Helvetica,sans-Serif" font-size="10.00">src/ros_can/FS&#45;AI&#45;API</text>
<text text-anchor="start" x="141.5" y="-83.5" font-family="Helvetica,sans-Serif" font-size="10.00">/FS&#45;AI_API_Console/fs</text>
<text text-anchor="middle" x="192.5" y="-72.25" font-family="Helvetica,sans-Serif" font-size="10.00">&#45;ai_api_console.c</text>
</a>
</g>
</g>
<!-- Node1&#45;&gt;Node3 -->
<g id="edge2_Node000001_Node000003" class="edge">
<title>Node1&#45;&gt;Node3</title>
<g id="a_edge2_Node000001_Node000003"><a xlink:title=" ">
<path fill="none" stroke="#63b8ff" d="M237.77,-135.75C229.46,-127.05 220.04,-117.2 211.95,-108.74"/>
<polygon fill="#63b8ff" stroke="#63b8ff" points="235.13,-138.06 244.57,-142.88 240.19,-133.23 235.13,-138.06"/>
</a>
</g>
</g>
<!-- Node4 -->
<g id="Node000004" class="node">
<title>Node4</title>
<g id="a_Node000004"><a xlink:href="fs-ai__api__tester_8c.html" target="_top" xlink:title=" ">
<polygon fill="white" stroke="#666666" points="385,-108.25 270,-108.25 270,-66.5 385,-66.5 385,-108.25"/>
<text text-anchor="start" x="278" y="-94.75" font-family="Helvetica,sans-Serif" font-size="10.00">src/ros_can/FS&#45;AI&#45;API</text>
<text text-anchor="start" x="278" y="-83.5" font-family="Helvetica,sans-Serif" font-size="10.00">/FS&#45;AI_API_Tester/fs</text>
<text text-anchor="middle" x="327.5" y="-72.25" font-family="Helvetica,sans-Serif" font-size="10.00">&#45;ai_api_tester.c</text>
</a>
</g>
</g>
<!-- Node1&#45;&gt;Node4 -->
<g id="edge3_Node000001_Node000004" class="edge">
<title>Node1&#45;&gt;Node4</title>
<g id="a_edge3_Node000001_Node000004"><a xlink:title=" ">
<path fill="none" stroke="#63b8ff" d="M281.56,-135.75C289.99,-127.05 299.55,-117.2 307.76,-108.74"/>
<polygon fill="#63b8ff" stroke="#63b8ff" points="279.09,-133.27 274.64,-142.88 284.12,-138.14 279.09,-133.27"/>
</a>
</g>
</g>
<!-- Node5 -->
<g id="Node000005" class="node">
<title>Node5</title>
<g id="a_Node000005"><a xlink:href="ros__can_8hpp.html" target="_top" xlink:title=" ">
<polygon fill="white" stroke="#666666" points="503.88,-102.62 403.12,-102.62 403.12,-72.12 503.88,-72.12 503.88,-102.62"/>
<text text-anchor="start" x="411.12" y="-89.12" font-family="Helvetica,sans-Serif" font-size="10.00">src/ros_can/include</text>
<text text-anchor="middle" x="453.5" y="-77.88" font-family="Helvetica,sans-Serif" font-size="10.00">/ros_can.hpp</text>
</a>
</g>
</g>
<!-- Node1&#45;&gt;Node5 -->
<g id="edge4_Node000001_Node000005" class="edge">
<title>Node1&#45;&gt;Node5</title>
<g id="a_edge4_Node000001_Node000005"><a xlink:title=" ">
<path fill="none" stroke="#63b8ff" d="M310.64,-140.01C342.59,-128.47 383.15,-113.8 412.88,-103.06"/>
<polygon fill="#63b8ff" stroke="#63b8ff" points="309.81,-136.59 301.59,-143.28 312.19,-143.18 309.81,-136.59"/>
</a>
</g>
</g>
<!-- Node6 -->
<g id="Node000006" class="node">
<title>Node6</title>
<g id="a_Node000006"><a xlink:href="ros__can_8cpp.html" target="_top" xlink:title=" ">
<polygon fill="white" stroke="#666666" points="503.5,-30.5 403.5,-30.5 403.5,0 503.5,0 503.5,-30.5"/>
<text text-anchor="start" x="411.5" y="-17" font-family="Helvetica,sans-Serif" font-size="10.00">src/ros_can/src/ros</text>
<text text-anchor="middle" x="453.5" y="-5.75" font-family="Helvetica,sans-Serif" font-size="10.00">_can.cpp</text>
</a>
</g>
</g>
<!-- Node5&#45;&gt;Node6 -->
<g id="edge5_Node000005_Node000006" class="edge">
<title>Node5&#45;&gt;Node6</title>
<g id="a_edge5_Node000005_Node000006"><a xlink:title=" ">
<path fill="none" stroke="#63b8ff" d="M453.5,-60.4C453.5,-50.39 453.5,-39.31 453.5,-30.76"/>
<polygon fill="#63b8ff" stroke="#63b8ff" points="450,-60.33 453.5,-70.33 457,-60.33 450,-60.33"/>
</a>
</g>
</g>
</g>
</svg>

<g id="navigator" transform="translate(0 0)" fill="#404254">
  <rect fill="#f2f5e9" fill-opacity="0.5" stroke="#606060" stroke-width=".5" x="0" y="0" width="60" height="60"/>
  <use id="zoomplus" xlink:href="#zoomPlus" x="17" y="9" onmousedown="handleZoom(evt,'in')"/>
  <use id="zoomminus" xlink:href="#zoomMin" x="42" y="9" onmousedown="handleZoom(evt,'out')"/>
  <use id="reset" xlink:href="#resetDef" x="30" y="36" onmousedown="handleReset()"/>
   <use id="arrowup" xlink:href="#arrowUp" x="0" y="0" onmousedown="handlePan(0,-1)"/>
  <use id="arrowright" xlink:href="#arrowRight" x="0" y="0" onmousedown="handlePan(1,0)"/>
  <use id="arrowdown" xlink:href="#arrowDown" x="0" y="0" onmousedown="handlePan(0,1)"/>
  <use id="arrowleft" xlink:href="#arrowLeft" x="0" y="0" onmousedown="handlePan(-1,0)"/>
</g>
<svg viewBox="0 0 15 15" width="100%" height="30px" preserveAspectRatio="xMaxYMin meet">
 <g id="arrow_out" transform="scale(0.3 0.3)">
  <a xlink:href="fs-ai__api_8h__dep__incl_org.svg" target="_base">
   <rect id="button" ry="5" rx="5" y="6" x="6" height="38" width="38"
        fill="#f2f5e9" fill-opacity="0.5" stroke="#606060" stroke-width="1.0"/>
   <path id="arrow"
     d="M 11.500037,31.436501 C 11.940474,20.09759 22.043105,11.32322 32.158766,21.979434 L 37.068811,17.246167 C 37.068811,17.246167 37.088388,32 37.088388,32 L 22.160133,31.978069 C 22.160133,31.978069 26.997745,27.140456 26.997745,27.140456 C 18.528582,18.264221 13.291696,25.230495 11.500037,31.436501 z"
     style="fill:#404040;"/>
  </a>
 </g>
</svg>

<style type='text/css'>
<![CDATA[
[data-mouse-over-selected='false'] { opacity: 0.7; }
[data-mouse-over-selected='true']  { opacity: 1.0; }
]]>
</style>
<script type="application/ecmascript"><![CDATA[
document.addEventListener('DOMContentLoaded', (event) => {
  highlightEdges();
  highlightAdjacentNodes();
});
]]></script>
</svg>
