<?xml version="1.0" encoding="UTF-8" standalone="no"?>
<!DOCTYPE svg PUBLIC "-//W3C//DTD SVG 1.1//EN"
 "http://www.w3.org/Graphics/SVG/1.1/DTD/svg11.dtd">
<!-- Generated by graphviz version 9.0.0 (20230911.1827)
 -->
<!-- Title: src/planning/planning/src/planning/global_path_planner.cpp Pages: 1 -->
<svg width="853pt" height="349pt"
 viewBox="0.00 0.00 853.31 348.50" xmlns="http://www.w3.org/2000/svg" xmlns:xlink="http://www.w3.org/1999/xlink">
<g id="graph0" class="graph" transform="scale(1 1) rotate(0) translate(4 344.5)">
<title>src/planning/planning/src/planning/global_path_planner.cpp</title>
<!-- Node1 -->
<g id="Node000001" class="node">
<title>Node1</title>
<g id="a_Node000001"><a xlink:title=" ">
<polygon fill="#999999" stroke="#666666" points="841.06,-340.5 733.56,-340.5 733.56,-298.75 841.06,-298.75 841.06,-340.5"/>
<text text-anchor="start" x="741.56" y="-327" font-family="Helvetica,sans-Serif" font-size="10.00">src/planning/planning</text>
<text text-anchor="start" x="741.56" y="-315.75" font-family="Helvetica,sans-Serif" font-size="10.00">/src/planning/global</text>
<text text-anchor="middle" x="787.31" y="-304.5" font-family="Helvetica,sans-Serif" font-size="10.00">_path_planner.cpp</text>
</a>
</g>
</g>
<!-- Node2 -->
<g id="Node000002" class="node">
<title>Node2</title>
<g id="a_Node000002"><a xlink:href="global__path__planner_8hpp.html" target="_top" xlink:title=" ">
<polygon fill="white" stroke="#666666" points="734.56,-262.75 630.06,-262.75 630.06,-232.25 734.56,-232.25 734.56,-262.75"/>
<text text-anchor="start" x="638.06" y="-249.25" font-family="Helvetica,sans-Serif" font-size="10.00">planning/global_path</text>
<text text-anchor="middle" x="682.31" y="-238" font-family="Helvetica,sans-Serif" font-size="10.00">_planner.hpp</text>
</a>
</g>
</g>
<!-- Node1&#45;&gt;Node2 -->
<g id="edge1_Node000001_Node000002" class="edge">
<title>Node1&#45;&gt;Node2</title>
<g id="a_edge1_Node000001_Node000002"><a xlink:title=" ">
<path fill="none" stroke="#63b8ff" d="M756.94,-298.34C743.39,-289.29 727.44,-278.64 713.76,-269.5"/>
<polygon fill="#63b8ff" stroke="#63b8ff" points="715.8,-266.65 705.54,-264.01 711.91,-272.47 715.8,-266.65"/>
</a>
</g>
</g>
<!-- Node3 -->
<g id="Node000003" class="node">
<title>Node3</title>
<g id="a_Node000003"><a xlink:title=" ">
<polygon fill="#e0e0e0" stroke="#999999" points="685.31,-80.12 645.31,-80.12 645.31,-60.88 685.31,-60.88 685.31,-80.12"/>
<text text-anchor="middle" x="665.31" y="-66.62" font-family="Helvetica,sans-Serif" font-size="10.00">string</text>
</a>
</g>
</g>
<!-- Node1&#45;&gt;Node3 -->
<g id="edge30_Node000001_Node000003" class="edge">
<title>Node1&#45;&gt;Node3</title>
<g id="a_edge30_Node000001_Node000003"><a xlink:title=" ">
<path fill="none" stroke="#63b8ff" d="M792.63,-298.27C798.97,-269.7 806.59,-216.77 788.31,-177 768.86,-134.7 723.16,-103 693.27,-85.88"/>
<polygon fill="#63b8ff" stroke="#63b8ff" points="695.2,-82.94 684.76,-81.16 691.81,-89.07 695.2,-82.94"/>
</a>
</g>
</g>
<!-- Node4 -->
<g id="Node000004" class="node">
<title>Node4</title>
<g id="a_Node000004"><a xlink:title=" ">
<polygon fill="#e0e0e0" stroke="#999999" points="779.56,-196.25 741.06,-196.25 741.06,-177 779.56,-177 779.56,-196.25"/>
<text text-anchor="middle" x="760.31" y="-182.75" font-family="Helvetica,sans-Serif" font-size="10.00">utility</text>
</a>
</g>
</g>
<!-- Node1&#45;&gt;Node4 -->
<g id="edge31_Node000001_Node000004" class="edge">
<title>Node1&#45;&gt;Node4</title>
<g id="a_edge31_Node000001_Node000004"><a xlink:title=" ">
<path fill="none" stroke="#63b8ff" d="M783.15,-298.44C778.06,-273.75 769.5,-232.21 764.43,-207.61"/>
<polygon fill="#63b8ff" stroke="#63b8ff" points="767.89,-207.04 762.44,-197.95 761.03,-208.45 767.89,-207.04"/>
</a>
</g>
</g>
<!-- Node5 -->
<g id="Node000005" class="node">
<title>Node5</title>
<g id="a_Node000005"><a xlink:title=" ">
<polygon fill="#e0e0e0" stroke="#999999" points="546.81,-19.25 503.81,-19.25 503.81,0 546.81,0 546.81,-19.25"/>
<text text-anchor="middle" x="525.31" y="-5.75" font-family="Helvetica,sans-Serif" font-size="10.00">vector</text>
</a>
</g>
</g>
<!-- Node1&#45;&gt;Node5 -->
<g id="edge32_Node000001_Node000005" class="edge">
<title>Node1&#45;&gt;Node5</title>
<g id="a_edge32_Node000001_Node000005"><a xlink:title=" ">
<path fill="none" stroke="#63b8ff" d="M802.55,-298.52C819.74,-273.8 845.31,-229.91 845.31,-187.62 845.31,-187.62 845.31,-187.62 845.31,-130.38 845.31,-69.6 640.27,-29.39 558.45,-15.77"/>
<polygon fill="#63b8ff" stroke="#63b8ff" points="559.23,-12.35 548.8,-14.19 558.11,-19.26 559.23,-12.35"/>
</a>
</g>
</g>
<!-- Node2&#45;&gt;Node3 -->
<g id="edge2_Node000002_Node000003" class="edge">
<title>Node2&#45;&gt;Node3</title>
<g id="a_edge2_Node000002_Node000003"><a xlink:title=" ">
<path fill="none" stroke="#63b8ff" d="M680.89,-231.88C677.86,-200.71 670.77,-127.67 667.3,-91.93"/>
<polygon fill="#63b8ff" stroke="#63b8ff" points="670.79,-91.71 666.34,-82.1 663.83,-92.39 670.79,-91.71"/>
</a>
</g>
</g>
<!-- Node2&#45;&gt;Node4 -->
<g id="edge3_Node000002_Node000004" class="edge">
<title>Node2&#45;&gt;Node4</title>
<g id="a_edge3_Node000002_Node000004"><a xlink:title=" ">
<path fill="none" stroke="#63b8ff" d="M701.59,-231.95C713.01,-223.33 727.49,-212.4 739.22,-203.55"/>
<polygon fill="#63b8ff" stroke="#63b8ff" points="741.21,-206.43 747.08,-197.61 736.99,-200.84 741.21,-206.43"/>
</a>
</g>
</g>
<!-- Node2&#45;&gt;Node5 -->
<g id="edge4_Node000002_Node000005" class="edge">
<title>Node2&#45;&gt;Node5</title>
<g id="a_edge4_Node000002_Node000005"><a xlink:title=" ">
<path fill="none" stroke="#63b8ff" d="M689.05,-231.93C703.99,-197.22 735.42,-108.62 694.31,-55.25 677.86,-33.89 602.81,-20.68 558.45,-14.6"/>
<polygon fill="#63b8ff" stroke="#63b8ff" points="558.96,-11.14 548.59,-13.3 558.05,-18.08 558.96,-11.14"/>
</a>
</g>
</g>
<!-- Node6 -->
<g id="Node000006" class="node">
<title>Node6</title>
<g id="a_Node000006"><a xlink:href="planning_2planning_2include_2utils_2position_8hpp.html" target="_top" xlink:title=" ">
<polygon fill="white" stroke="#666666" points="124.44,-80.12 28.19,-80.12 28.19,-60.88 124.44,-60.88 124.44,-80.12"/>
<text text-anchor="middle" x="76.31" y="-66.62" font-family="Helvetica,sans-Serif" font-size="10.00">../utils/position.hpp</text>
</a>
</g>
</g>
<!-- Node2&#45;&gt;Node6 -->
<g id="edge5_Node000002_Node000006" class="edge">
<title>Node2&#45;&gt;Node6</title>
<g id="a_edge5_Node000002_Node000006"><a xlink:title=" ">
<path fill="none" stroke="#63b8ff" d="M629.71,-246.59C486.08,-245.62 92.69,-234.31 13.31,-141 -3.21,-121.57 24.06,-99.9 47.73,-86"/>
<polygon fill="#63b8ff" stroke="#63b8ff" points="49.16,-89.21 56.19,-81.29 45.75,-83.1 49.16,-89.21"/>
</a>
</g>
</g>
<!-- Node9 -->
<g id="Node000009" class="node">
<title>Node9</title>
<g id="a_Node000009"><a xlink:href="track_8hpp.html" target="_top" xlink:title=" ">
<polygon fill="white" stroke="#666666" points="423.81,-196.25 362.81,-196.25 362.81,-177 423.81,-177 423.81,-196.25"/>
<text text-anchor="middle" x="393.31" y="-182.75" font-family="Helvetica,sans-Serif" font-size="10.00">./track.hpp</text>
</a>
</g>
</g>
<!-- Node2&#45;&gt;Node9 -->
<g id="edge9_Node000002_Node000009" class="edge">
<title>Node2&#45;&gt;Node9</title>
<g id="a_edge9_Node000002_Node000009"><a xlink:title=" ">
<path fill="none" stroke="#63b8ff" d="M629.64,-235.77C573.79,-224.39 486.68,-206.65 435.28,-196.18"/>
<polygon fill="#63b8ff" stroke="#63b8ff" points="436.24,-192.8 425.74,-194.23 434.84,-199.66 436.24,-192.8"/>
</a>
</g>
</g>
<!-- Node6&#45;&gt;Node5 -->
<g id="edge8_Node000006_Node000005" class="edge">
<title>Node6&#45;&gt;Node5</title>
<g id="a_edge8_Node000006_Node000005"><a xlink:title=" ">
<path fill="none" stroke="#63b8ff" d="M112.89,-60.38C121.21,-58.51 130.04,-56.67 138.31,-55.25 268.47,-32.86 425.24,-18.66 492.29,-13.19"/>
<polygon fill="#63b8ff" stroke="#63b8ff" points="492.17,-16.71 501.86,-12.42 491.61,-9.73 492.17,-16.71"/>
</a>
</g>
</g>
<!-- Node7 -->
<g id="Node000007" class="node">
<title>Node7</title>
<g id="a_Node000007"><a xlink:title=" ">
<polygon fill="#e0e0e0" stroke="#999999" points="133.81,-19.25 90.81,-19.25 90.81,0 133.81,0 133.81,-19.25"/>
<text text-anchor="middle" x="112.31" y="-5.75" font-family="Helvetica,sans-Serif" font-size="10.00">cmath</text>
</a>
</g>
</g>
<!-- Node6&#45;&gt;Node7 -->
<g id="edge6_Node000006_Node000007" class="edge">
<title>Node6&#45;&gt;Node7</title>
<g id="a_edge6_Node000006_Node000007"><a xlink:title=" ">
<path fill="none" stroke="#63b8ff" d="M81.78,-60.56C86.85,-52.26 94.57,-39.64 100.97,-29.17"/>
<polygon fill="#63b8ff" stroke="#63b8ff" points="103.77,-31.3 106,-20.94 97.8,-27.65 103.77,-31.3"/>
</a>
</g>
</g>
<!-- Node8 -->
<g id="Node000008" class="node">
<title>Node8</title>
<g id="a_Node000008"><a xlink:title=" ">
<polygon fill="#e0e0e0" stroke="#999999" points="63.81,-19.25 14.81,-19.25 14.81,0 63.81,0 63.81,-19.25"/>
<text text-anchor="middle" x="39.31" y="-5.75" font-family="Helvetica,sans-Serif" font-size="10.00">fstream</text>
</a>
</g>
</g>
<!-- Node6&#45;&gt;Node8 -->
<g id="edge7_Node000006_Node000008" class="edge">
<title>Node6&#45;&gt;Node8</title>
<g id="a_edge7_Node000006_Node000008"><a xlink:title=" ">
<path fill="none" stroke="#63b8ff" d="M70.69,-60.56C65.48,-52.26 57.55,-39.64 50.97,-29.17"/>
<polygon fill="#63b8ff" stroke="#63b8ff" points="54.07,-27.54 45.79,-20.93 48.15,-31.26 54.07,-27.54"/>
</a>
</g>
</g>
<!-- Node9&#45;&gt;Node3 -->
<g id="edge15_Node000009_Node000003" class="edge">
<title>Node9&#45;&gt;Node3</title>
<g id="a_edge15_Node000009_Node000003"><a xlink:title=" ">
<path fill="none" stroke="#63b8ff" d="M424.18,-182.43C478.12,-176.37 586.79,-161.92 618.31,-141 636.67,-128.81 649.75,-106.76 657.37,-90.76"/>
<polygon fill="#63b8ff" stroke="#63b8ff" points="660.49,-92.35 661.34,-81.78 654.09,-89.51 660.49,-92.35"/>
</a>
</g>
</g>
<!-- Node9&#45;&gt;Node5 -->
<g id="edge16_Node000009_Node000005" class="edge">
<title>Node9&#45;&gt;Node5</title>
<g id="a_edge16_Node000009_Node000005"><a xlink:title=" ">
<path fill="none" stroke="#63b8ff" d="M362.56,-182.89C311.27,-177.7 211.38,-164.78 186.31,-141 158.24,-114.37 145.72,-84.27 171.31,-55.25 192.37,-31.37 408.01,-17.06 492.05,-12.35"/>
<polygon fill="#63b8ff" stroke="#63b8ff" points="492.14,-15.85 501.94,-11.81 491.76,-8.86 492.14,-15.85"/>
</a>
</g>
</g>
<!-- Node9&#45;&gt;Node8 -->
<g id="edge13_Node000009_Node000008" class="edge">
<title>Node9&#45;&gt;Node8</title>
<g id="a_edge13_Node000009_Node000008"><a xlink:title=" ">
<path fill="none" stroke="#63b8ff" d="M362.54,-184.32C276.2,-180.33 36.43,-167 13.31,-141 -14.58,-109.64 10.28,-57.04 27.01,-29.2"/>
<polygon fill="#63b8ff" stroke="#63b8ff" points="29.93,-31.14 32.3,-20.82 24.01,-27.41 29.93,-31.14"/>
</a>
</g>
</g>
<!-- Node10 -->
<g id="Node000010" class="node">
<title>Node10</title>
<g id="a_Node000010"><a xlink:title=" ">
<polygon fill="#e0e0e0" stroke="#999999" points="283.31,-141 195.31,-141 195.31,-121.75 283.31,-121.75 283.31,-141"/>
<text text-anchor="middle" x="239.31" y="-127.5" font-family="Helvetica,sans-Serif" font-size="10.00">gsl/gsl_bspline.h</text>
</a>
</g>
</g>
<!-- Node9&#45;&gt;Node10 -->
<g id="edge10_Node000009_Node000010" class="edge">
<title>Node9&#45;&gt;Node10</title>
<g id="a_edge10_Node000009_Node000010"><a xlink:title=" ">
<path fill="none" stroke="#63b8ff" d="M367.19,-176.59C342.19,-167.95 304.24,-154.82 276.17,-145.12"/>
<polygon fill="#63b8ff" stroke="#63b8ff" points="277.59,-141.91 266.99,-141.95 275.3,-148.52 277.59,-141.91"/>
</a>
</g>
</g>
<!-- Node11 -->
<g id="Node000011" class="node">
<title>Node11</title>
<g id="a_Node000011"><a xlink:title=" ">
<polygon fill="#e0e0e0" stroke="#999999" points="387.19,-141 301.44,-141 301.44,-121.75 387.19,-121.75 387.19,-141"/>
<text text-anchor="middle" x="344.31" y="-127.5" font-family="Helvetica,sans-Serif" font-size="10.00">gsl/gsl_multifit.h</text>
</a>
</g>
</g>
<!-- Node9&#45;&gt;Node11 -->
<g id="edge11_Node000009_Node000011" class="edge">
<title>Node9&#45;&gt;Node11</title>
<g id="a_edge11_Node000009_Node000011"><a xlink:title=" ">
<path fill="none" stroke="#63b8ff" d="M385.22,-176.83C378.45,-169.48 368.59,-158.76 360.25,-149.69"/>
<polygon fill="#63b8ff" stroke="#63b8ff" points="362.95,-147.46 353.6,-142.47 357.8,-152.2 362.95,-147.46"/>
</a>
</g>
</g>
<!-- Node12 -->
<g id="Node000012" class="node">
<title>Node12</title>
<g id="a_Node000012"><a xlink:title=" ">
<polygon fill="#e0e0e0" stroke="#999999" points="67.94,-141 22.69,-141 22.69,-121.75 67.94,-121.75 67.94,-141"/>
<text text-anchor="middle" x="45.31" y="-127.5" font-family="Helvetica,sans-Serif" font-size="10.00">cstring</text>
</a>
</g>
</g>
<!-- Node9&#45;&gt;Node12 -->
<g id="edge12_Node000009_Node000012" class="edge">
<title>Node9&#45;&gt;Node12</title>
<g id="a_edge12_Node000009_Node000012"><a xlink:title=" ">
<path fill="none" stroke="#63b8ff" d="M362.48,-182.65C307.43,-177.04 188.48,-163.6 79.45,-141.43"/>
<polygon fill="#63b8ff" stroke="#63b8ff" points="80.24,-138.02 69.73,-139.43 78.82,-144.88 80.24,-138.02"/>
</a>
</g>
</g>
<!-- Node13 -->
<g id="Node000013" class="node">
<title>Node13</title>
<g id="a_Node000013"><a xlink:title=" ">
<polygon fill="#e0e0e0" stroke="#999999" points="139.06,-141 85.56,-141 85.56,-121.75 139.06,-121.75 139.06,-141"/>
<text text-anchor="middle" x="112.31" y="-127.5" font-family="Helvetica,sans-Serif" font-size="10.00">iostream</text>
</a>
</g>
</g>
<!-- Node9&#45;&gt;Node13 -->
<g id="edge14_Node000009_Node000013" class="edge">
<title>Node9&#45;&gt;Node13</title>
<g id="a_edge14_Node000009_Node000013"><a xlink:title=" ">
<path fill="none" stroke="#63b8ff" d="M362.58,-180.15C316.89,-171.95 228.35,-155.87 153.31,-141 152.31,-140.8 151.3,-140.6 150.28,-140.39"/>
<polygon fill="#63b8ff" stroke="#63b8ff" points="151.18,-137.01 140.68,-138.43 149.78,-143.86 151.18,-137.01"/>
</a>
</g>
</g>
<!-- Node14 -->
<g id="Node000014" class="node">
<title>Node14</title>
<g id="a_Node000014"><a xlink:title=" ">
<polygon fill="#e0e0e0" stroke="#999999" points="551.06,-80.12 461.56,-80.12 461.56,-60.88 551.06,-60.88 551.06,-80.12"/>
<text text-anchor="middle" x="506.31" y="-66.62" font-family="Helvetica,sans-Serif" font-size="10.00">rclcpp/rclcpp.hpp</text>
</a>
</g>
</g>
<!-- Node9&#45;&gt;Node14 -->
<g id="edge17_Node000009_Node000014" class="edge">
<title>Node9&#45;&gt;Node14</title>
<g id="a_edge17_Node000009_Node000014"><a xlink:title=" ">
<path fill="none" stroke="#63b8ff" d="M424.2,-177.95C444.58,-171.37 470.36,-159.87 486.31,-141 498.09,-127.07 502.94,-106.56 504.93,-91.43"/>
<polygon fill="#63b8ff" stroke="#63b8ff" points="508.39,-92.05 505.88,-81.75 501.42,-91.37 508.39,-92.05"/>
</a>
</g>
</g>
<!-- Node15 -->
<g id="Node000015" class="node">
<title>Node15</title>
<g id="a_Node000015"><a xlink:href="cone_8hpp.html" target="_top" xlink:title=" ">
<polygon fill="white" stroke="#666666" points="609.31,-141 533.31,-141 533.31,-121.75 609.31,-121.75 609.31,-141"/>
<text text-anchor="middle" x="571.31" y="-127.5" font-family="Helvetica,sans-Serif" font-size="10.00">utils/cone.hpp</text>
</a>
</g>
</g>
<!-- Node9&#45;&gt;Node15 -->
<g id="edge18_Node000009_Node000015" class="edge">
<title>Node9&#45;&gt;Node15</title>
<g id="a_edge18_Node000009_Node000015"><a xlink:title=" ">
<path fill="none" stroke="#63b8ff" d="M423.51,-176.59C452.79,-167.83 497.44,-154.48 530,-144.73"/>
<polygon fill="#63b8ff" stroke="#63b8ff" points="530.94,-148.11 539.52,-141.89 528.93,-141.4 530.94,-148.11"/>
</a>
</g>
</g>
<!-- Node16 -->
<g id="Node000016" class="node">
<title>Node16</title>
<g id="a_Node000016"><a xlink:href="files_8hpp.html" target="_top" xlink:title=" ">
<polygon fill="white" stroke="#666666" points="477.44,-141 405.19,-141 405.19,-121.75 477.44,-121.75 477.44,-141"/>
<text text-anchor="middle" x="441.31" y="-127.5" font-family="Helvetica,sans-Serif" font-size="10.00">utils/files.hpp</text>
</a>
</g>
</g>
<!-- Node9&#45;&gt;Node16 -->
<g id="edge22_Node000009_Node000016" class="edge">
<title>Node9&#45;&gt;Node16</title>
<g id="a_edge22_Node000009_Node000016"><a xlink:title=" ">
<path fill="none" stroke="#63b8ff" d="M396.07,-176.83C401.23,-169.32 410.77,-158.31 419.89,-149.13"/>
<polygon fill="#63b8ff" stroke="#63b8ff" points="422.11,-151.85 426.91,-142.41 417.27,-146.79 422.11,-151.85"/>
</a>
</g>
</g>
<!-- Node15&#45;&gt;Node3 -->
<g id="edge20_Node000015_Node000003" class="edge">
<title>Node15&#45;&gt;Node3</title>
<g id="a_edge20_Node000015_Node000003"><a xlink:title=" ">
<path fill="none" stroke="#63b8ff" d="M585.59,-121.43C600.36,-112.18 623.69,-97.57 641.3,-86.54"/>
<polygon fill="#63b8ff" stroke="#63b8ff" points="643,-89.6 649.62,-81.33 639.29,-83.67 643,-89.6"/>
</a>
</g>
</g>
<!-- Node15&#45;&gt;Node5 -->
<g id="edge21_Node000015_Node000005" class="edge">
<title>Node15&#45;&gt;Node5</title>
<g id="a_edge21_Node000015_Node000005"><a xlink:title=" ">
<path fill="none" stroke="#63b8ff" d="M578.04,-121.59C588.27,-107.07 605.32,-77.49 593.31,-55.25 585.56,-40.89 570.95,-30.4 557.26,-23.22"/>
<polygon fill="#63b8ff" stroke="#63b8ff" points="558.99,-20.17 548.46,-19.01 555.97,-26.48 558.99,-20.17"/>
</a>
</g>
</g>
<!-- Node15&#45;&gt;Node7 -->
<g id="edge19_Node000015_Node000007" class="edge">
<title>Node15&#45;&gt;Node7</title>
<g id="a_edge19_Node000015_Node000007"><a xlink:title=" ">
<path fill="none" stroke="#63b8ff" d="M573.11,-121.42C575.71,-105.55 578.43,-72.55 560.31,-55.25 530.43,-26.72 244.32,-14.88 145.6,-11.62"/>
<polygon fill="#63b8ff" stroke="#63b8ff" points="145.88,-8.12 135.77,-11.3 145.66,-15.12 145.88,-8.12"/>
</a>
</g>
</g>
<!-- Node16&#45;&gt;Node3 -->
<g id="edge25_Node000016_Node000003" class="edge">
<title>Node16&#45;&gt;Node3</title>
<g id="a_edge25_Node000016_Node000003"><a xlink:title=" ">
<path fill="none" stroke="#63b8ff" d="M475.82,-121.3C518.92,-109.98 592.04,-90.76 633.72,-79.8"/>
<polygon fill="#63b8ff" stroke="#63b8ff" points="634.59,-83.19 643.38,-77.27 632.82,-76.42 634.59,-83.19"/>
</a>
</g>
</g>
<!-- Node16&#45;&gt;Node5 -->
<g id="edge26_Node000016_Node000005" class="edge">
<title>Node16&#45;&gt;Node5</title>
<g id="a_edge26_Node000016_Node000005"><a xlink:title=" ">
<path fill="none" stroke="#63b8ff" d="M440.34,-121.67C439.12,-106.75 438.65,-75.93 452.31,-55.25 462,-40.59 478.32,-29.95 493.07,-22.74"/>
<polygon fill="#63b8ff" stroke="#63b8ff" points="494.35,-26.01 502.04,-18.72 491.49,-19.62 494.35,-26.01"/>
</a>
</g>
</g>
<!-- Node16&#45;&gt;Node6 -->
<g id="edge28_Node000016_Node000006" class="edge">
<title>Node16&#45;&gt;Node6</title>
<g id="a_edge28_Node000016_Node000006"><a xlink:title=" ">
<path fill="none" stroke="#63b8ff" d="M404.98,-123.3C402.05,-122.77 399.13,-122.24 396.31,-121.75 347.47,-113.24 214.1,-92.61 135.81,-80.6"/>
<polygon fill="#63b8ff" stroke="#63b8ff" points="136.59,-77.18 126.17,-79.12 135.53,-84.1 136.59,-77.18"/>
</a>
</g>
</g>
<!-- Node16&#45;&gt;Node9 -->
<g id="edge27_Node000016_Node000009" class="edge">
<title>Node16&#45;&gt;Node9</title>
<g id="a_edge27_Node000016_Node000009"><a xlink:title=" ">
<path fill="none" stroke="#63b8ff" d="M438.48,-141.27C433.3,-148.78 423.82,-159.72 414.75,-168.86"/>
<polygon fill="#63b8ff" stroke="#63b8ff" points="412.57,-166.1 407.76,-175.54 417.41,-171.16 412.57,-166.1"/>
</a>
</g>
</g>
<!-- Node16&#45;&gt;Node14 -->
<g id="edge29_Node000016_Node000014" class="edge">
<title>Node16&#45;&gt;Node14</title>
<g id="a_edge29_Node000016_Node000014"><a xlink:title=" ">
<path fill="none" stroke="#63b8ff" d="M451.18,-121.43C460.92,-112.62 476.03,-98.93 487.97,-88.11"/>
<polygon fill="#63b8ff" stroke="#63b8ff" points="490.16,-90.85 495.23,-81.54 485.46,-85.66 490.16,-90.85"/>
</a>
</g>
</g>
<!-- Node17 -->
<g id="Node000017" class="node">
<title>Node17</title>
<g id="a_Node000017"><a xlink:title=" ">
<polygon fill="#e0e0e0" stroke="#999999" points="327.94,-85.75 180.69,-85.75 180.69,-55.25 327.94,-55.25 327.94,-85.75"/>
<text text-anchor="start" x="188.69" y="-72.25" font-family="Helvetica,sans-Serif" font-size="10.00">ament_index_cpp/get</text>
<text text-anchor="middle" x="254.31" y="-61" font-family="Helvetica,sans-Serif" font-size="10.00">_package_share_directory.hpp</text>
</a>
</g>
</g>
<!-- Node16&#45;&gt;Node17 -->
<g id="edge23_Node000016_Node000017" class="edge">
<title>Node16&#45;&gt;Node17</title>
<g id="a_edge23_Node000016_Node000017"><a xlink:title=" ">
<path fill="none" stroke="#63b8ff" d="M412.5,-121.3C385.69,-112.86 344.97,-100.04 311.55,-89.52"/>
<polygon fill="#63b8ff" stroke="#63b8ff" points="313.02,-86.31 302.43,-86.65 310.92,-92.99 313.02,-86.31"/>
</a>
</g>
</g>
<!-- Node18 -->
<g id="Node000018" class="node">
<title>Node18</title>
<g id="a_Node000018"><a xlink:title=" ">
<polygon fill="#e0e0e0" stroke="#999999" points="405.06,-80.12 345.56,-80.12 345.56,-60.88 405.06,-60.88 405.06,-80.12"/>
<text text-anchor="middle" x="375.31" y="-66.62" font-family="Helvetica,sans-Serif" font-size="10.00">filesystem</text>
</a>
</g>
</g>
<!-- Node16&#45;&gt;Node18 -->
<g id="edge24_Node000016_Node000018" class="edge">
<title>Node16&#45;&gt;Node18</title>
<g id="a_edge24_Node000016_Node000018"><a xlink:title=" ">
<path fill="none" stroke="#63b8ff" d="M431.29,-121.43C421.4,-112.62 406.06,-98.93 393.93,-88.11"/>
<polygon fill="#63b8ff" stroke="#63b8ff" points="396.35,-85.58 386.56,-81.53 391.69,-90.8 396.35,-85.58"/>
</a>
</g>
</g>
</g>
</svg>
