<?xml version="1.0" encoding="UTF-8" standalone="no"?>
<!DOCTYPE svg PUBLIC "-//W3C//DTD SVG 1.1//EN"
 "http://www.w3.org/Graphics/SVG/1.1/DTD/svg11.dtd">
<!-- Generated by graphviz version 9.0.0 (20230911.1827)
 -->
<!-- Title: src/planning/planning/include/planning/global_path_planner.hpp Pages: 1 -->
<svg width="932pt" height="282pt"
 viewBox="0.00 0.00 931.96 282.00" xmlns="http://www.w3.org/2000/svg" xmlns:xlink="http://www.w3.org/1999/xlink">
<g id="graph0" class="graph" transform="scale(1 1) rotate(0) translate(4 278)">
<title>src/planning/planning/include/planning/global_path_planner.hpp</title>
<!-- Node1 -->
<g id="Node000001" class="node">
<title>Node1</title>
<g id="a_Node000001"><a xlink:title=" ">
<polygon fill="#999999" stroke="#666666" points="473.34,-274 356.09,-274 356.09,-232.25 473.34,-232.25 473.34,-274"/>
<text text-anchor="start" x="364.09" y="-260.5" font-family="Helvetica,sans-Serif" font-size="10.00">src/planning/planning</text>
<text text-anchor="start" x="364.09" y="-249.25" font-family="Helvetica,sans-Serif" font-size="10.00">/include/planning/global</text>
<text text-anchor="middle" x="414.71" y="-238" font-family="Helvetica,sans-Serif" font-size="10.00">_path_planner.hpp</text>
</a>
</g>
</g>
<!-- Node2 -->
<g id="Node000002" class="node">
<title>Node2</title>
<g id="a_Node000002"><a xlink:title=" ">
<polygon fill="#e0e0e0" stroke="#999999" points="557.71,-80.12 517.71,-80.12 517.71,-60.88 557.71,-60.88 557.71,-80.12"/>
<text text-anchor="middle" x="537.71" y="-66.62" font-family="Helvetica,sans-Serif" font-size="10.00">string</text>
</a>
</g>
</g>
<!-- Node1&#45;&gt;Node2 -->
<g id="edge1_Node000001_Node000002" class="edge">
<title>Node1&#45;&gt;Node2</title>
<g id="a_edge1_Node000001_Node000002"><a xlink:title=" ">
<path fill="none" stroke="#63b8ff" d="M392.29,-232C364.85,-204.95 325.25,-156.27 352.71,-121.75 397.01,-66.07 441.67,-109.6 508.71,-85.75 509.34,-85.53 509.97,-85.29 510.61,-85.05"/>
<polygon fill="#63b8ff" stroke="#63b8ff" points="511.66,-88.41 519.43,-81.21 508.87,-81.99 511.66,-88.41"/>
</a>
</g>
</g>
<!-- Node3 -->
<g id="Node000003" class="node">
<title>Node3</title>
<g id="a_Node000003"><a xlink:title=" ">
<polygon fill="#e0e0e0" stroke="#999999" points="923.96,-196.25 885.46,-196.25 885.46,-177 923.96,-177 923.96,-196.25"/>
<text text-anchor="middle" x="904.71" y="-182.75" font-family="Helvetica,sans-Serif" font-size="10.00">utility</text>
</a>
</g>
</g>
<!-- Node1&#45;&gt;Node3 -->
<g id="edge2_Node000001_Node000003" class="edge">
<title>Node1&#45;&gt;Node3</title>
<g id="a_edge2_Node000001_Node000003"><a xlink:title=" ">
<path fill="none" stroke="#63b8ff" d="M473.54,-247.47C560.93,-239.99 730,-223.31 871.71,-196.25 872.54,-196.09 873.38,-195.92 874.23,-195.75"/>
<polygon fill="#63b8ff" stroke="#63b8ff" points="874.85,-199.2 883.79,-193.51 873.26,-192.38 874.85,-199.2"/>
</a>
</g>
</g>
<!-- Node4 -->
<g id="Node000004" class="node">
<title>Node4</title>
<g id="a_Node000004"><a xlink:title=" ">
<polygon fill="#e0e0e0" stroke="#999999" points="775.21,-19.25 732.21,-19.25 732.21,0 775.21,0 775.21,-19.25"/>
<text text-anchor="middle" x="753.71" y="-5.75" font-family="Helvetica,sans-Serif" font-size="10.00">vector</text>
</a>
</g>
</g>
<!-- Node1&#45;&gt;Node4 -->
<g id="edge3_Node000001_Node000004" class="edge">
<title>Node1&#45;&gt;Node4</title>
<g id="a_edge3_Node000001_Node000004"><a xlink:title=" ">
<path fill="none" stroke="#63b8ff" d="M473.47,-244.68C575.11,-230.46 776.88,-195.89 818.71,-141 829.25,-127.17 838.09,-102.42 811.71,-55.25 804.81,-42.9 792.93,-32.85 781.72,-25.44"/>
<polygon fill="#63b8ff" stroke="#63b8ff" points="783.83,-22.62 773.47,-20.4 780.18,-28.6 783.83,-22.62"/>
</a>
</g>
</g>
<!-- Node5 -->
<g id="Node000005" class="node">
<title>Node5</title>
<g id="a_Node000005"><a xlink:href="planning_2planning_2include_2utils_2position_8hpp.html" target="_top" xlink:title=" ">
<polygon fill="white" stroke="#666666" points="110.84,-80.12 14.59,-80.12 14.59,-60.88 110.84,-60.88 110.84,-80.12"/>
<text text-anchor="middle" x="62.71" y="-66.62" font-family="Helvetica,sans-Serif" font-size="10.00">../utils/position.hpp</text>
</a>
</g>
</g>
<!-- Node1&#45;&gt;Node5 -->
<g id="edge4_Node000001_Node000005" class="edge">
<title>Node1&#45;&gt;Node5</title>
<g id="a_edge4_Node000001_Node000005"><a xlink:title=" ">
<path fill="none" stroke="#63b8ff" d="M358.09,-231.84C304.82,-211.8 223.63,-178.73 157.71,-141 129.92,-125.09 100.56,-102.62 81.96,-87.58"/>
<polygon fill="#63b8ff" stroke="#63b8ff" points="84.41,-85.06 74.46,-81.43 79.97,-90.47 84.41,-85.06"/>
</a>
</g>
</g>
<!-- Node8 -->
<g id="Node000008" class="node">
<title>Node8</title>
<g id="a_Node000008"><a xlink:href="track_8hpp.html" target="_top" xlink:title=" ">
<polygon fill="white" stroke="#666666" points="445.21,-196.25 384.21,-196.25 384.21,-177 445.21,-177 445.21,-196.25"/>
<text text-anchor="middle" x="414.71" y="-182.75" font-family="Helvetica,sans-Serif" font-size="10.00">./track.hpp</text>
</a>
</g>
</g>
<!-- Node1&#45;&gt;Node8 -->
<g id="edge8_Node000001_Node000008" class="edge">
<title>Node1&#45;&gt;Node8</title>
<g id="a_edge8_Node000001_Node000008"><a xlink:title=" ">
<path fill="none" stroke="#63b8ff" d="M414.71,-232.07C414.71,-224.4 414.71,-215.64 414.71,-207.95"/>
<polygon fill="#63b8ff" stroke="#63b8ff" points="418.21,-208.21 414.71,-198.21 411.21,-208.21 418.21,-208.21"/>
</a>
</g>
</g>
<!-- Node5&#45;&gt;Node4 -->
<g id="edge7_Node000005_Node000004" class="edge">
<title>Node5&#45;&gt;Node4</title>
<g id="a_edge7_Node000005_Node000004"><a xlink:title=" ">
<path fill="none" stroke="#63b8ff" d="M94.76,-60.45C102.85,-58.45 111.55,-56.55 119.71,-55.25 347.56,-19.04 626.14,-12.21 720.6,-10.92"/>
<polygon fill="#63b8ff" stroke="#63b8ff" points="720.46,-14.43 730.42,-10.8 720.38,-7.43 720.46,-14.43"/>
</a>
</g>
</g>
<!-- Node6 -->
<g id="Node000006" class="node">
<title>Node6</title>
<g id="a_Node000006"><a xlink:title=" ">
<polygon fill="#e0e0e0" stroke="#999999" points="119.21,-19.25 76.21,-19.25 76.21,0 119.21,0 119.21,-19.25"/>
<text text-anchor="middle" x="97.71" y="-5.75" font-family="Helvetica,sans-Serif" font-size="10.00">cmath</text>
</a>
</g>
</g>
<!-- Node5&#45;&gt;Node6 -->
<g id="edge5_Node000005_Node000006" class="edge">
<title>Node5&#45;&gt;Node6</title>
<g id="a_edge5_Node000005_Node000006"><a xlink:title=" ">
<path fill="none" stroke="#63b8ff" d="M68.03,-60.56C72.91,-52.35 80.3,-39.91 86.49,-29.5"/>
<polygon fill="#63b8ff" stroke="#63b8ff" points="89.47,-31.34 91.57,-20.95 83.45,-27.76 89.47,-31.34"/>
</a>
</g>
</g>
<!-- Node7 -->
<g id="Node000007" class="node">
<title>Node7</title>
<g id="a_Node000007"><a xlink:title=" ">
<polygon fill="#e0e0e0" stroke="#999999" points="52.21,-19.25 3.21,-19.25 3.21,0 52.21,0 52.21,-19.25"/>
<text text-anchor="middle" x="27.71" y="-5.75" font-family="Helvetica,sans-Serif" font-size="10.00">fstream</text>
</a>
</g>
</g>
<!-- Node5&#45;&gt;Node7 -->
<g id="edge6_Node000005_Node000007" class="edge">
<title>Node5&#45;&gt;Node7</title>
<g id="a_edge6_Node000005_Node000007"><a xlink:title=" ">
<path fill="none" stroke="#63b8ff" d="M57.4,-60.56C52.51,-52.35 45.12,-39.91 38.93,-29.5"/>
<polygon fill="#63b8ff" stroke="#63b8ff" points="41.97,-27.76 33.85,-20.95 35.95,-31.34 41.97,-27.76"/>
</a>
</g>
</g>
<!-- Node8&#45;&gt;Node2 -->
<g id="edge14_Node000008_Node000002" class="edge">
<title>Node8&#45;&gt;Node2</title>
<g id="a_edge14_Node000008_Node000002"><a xlink:title=" ">
<path fill="none" stroke="#63b8ff" d="M397.83,-176.66C376.98,-164.41 346.06,-141.7 361.71,-121.75 403.23,-68.83 445.49,-108.72 508.71,-85.75 509.34,-85.52 509.97,-85.29 510.6,-85.04"/>
<polygon fill="#63b8ff" stroke="#63b8ff" points="511.66,-88.4 519.42,-81.18 508.86,-81.98 511.66,-88.4"/>
</a>
</g>
</g>
<!-- Node8&#45;&gt;Node4 -->
<g id="edge15_Node000008_Node000004" class="edge">
<title>Node8&#45;&gt;Node4</title>
<g id="a_edge15_Node000008_Node000004"><a xlink:title=" ">
<path fill="none" stroke="#63b8ff" d="M445.65,-184.37C533.08,-180.5 777.18,-167.41 800.71,-141 830.06,-108.06 793.25,-55.41 770,-28.19"/>
<polygon fill="#63b8ff" stroke="#63b8ff" points="772.73,-26 763.48,-20.83 767.49,-30.64 772.73,-26"/>
</a>
</g>
</g>
<!-- Node8&#45;&gt;Node7 -->
<g id="edge12_Node000008_Node000007" class="edge">
<title>Node8&#45;&gt;Node7</title>
<g id="a_edge12_Node000008_Node000007"><a xlink:title=" ">
<path fill="none" stroke="#63b8ff" d="M383.79,-183.17C296.17,-175.48 49.69,-148.53 5.71,-85.75 -6.31,-68.58 4.13,-44.84 14.34,-28.67"/>
<polygon fill="#63b8ff" stroke="#63b8ff" points="17.15,-30.76 19.92,-20.53 11.38,-26.8 17.15,-30.76"/>
</a>
</g>
</g>
<!-- Node9 -->
<g id="Node000009" class="node">
<title>Node9</title>
<g id="a_Node000009"><a xlink:title=" ">
<polygon fill="#e0e0e0" stroke="#999999" points="458.71,-141 370.71,-141 370.71,-121.75 458.71,-121.75 458.71,-141"/>
<text text-anchor="middle" x="414.71" y="-127.5" font-family="Helvetica,sans-Serif" font-size="10.00">gsl/gsl_bspline.h</text>
</a>
</g>
</g>
<!-- Node8&#45;&gt;Node9 -->
<g id="edge9_Node000008_Node000009" class="edge">
<title>Node8&#45;&gt;Node9</title>
<g id="a_edge9_Node000008_Node000009"><a xlink:title=" ">
<path fill="none" stroke="#63b8ff" d="M414.71,-176.83C414.71,-170.32 414.71,-161.17 414.71,-152.87"/>
<polygon fill="#63b8ff" stroke="#63b8ff" points="418.21,-152.87 414.71,-142.87 411.21,-152.87 418.21,-152.87"/>
</a>
</g>
</g>
<!-- Node10 -->
<g id="Node000010" class="node">
<title>Node10</title>
<g id="a_Node000010"><a xlink:title=" ">
<polygon fill="#e0e0e0" stroke="#999999" points="562.59,-141 476.84,-141 476.84,-121.75 562.59,-121.75 562.59,-141"/>
<text text-anchor="middle" x="519.71" y="-127.5" font-family="Helvetica,sans-Serif" font-size="10.00">gsl/gsl_multifit.h</text>
</a>
</g>
</g>
<!-- Node8&#45;&gt;Node10 -->
<g id="edge10_Node000008_Node000010" class="edge">
<title>Node8&#45;&gt;Node10</title>
<g id="a_edge10_Node000008_Node000010"><a xlink:title=" ">
<path fill="none" stroke="#63b8ff" d="M432.52,-176.59C448.74,-168.37 472.95,-156.09 491.74,-146.56"/>
<polygon fill="#63b8ff" stroke="#63b8ff" points="493.13,-149.78 500.46,-142.14 489.96,-143.54 493.13,-149.78"/>
</a>
</g>
</g>
<!-- Node11 -->
<g id="Node000011" class="node">
<title>Node11</title>
<g id="a_Node000011"><a xlink:title=" ">
<polygon fill="#e0e0e0" stroke="#999999" points="626.34,-141 581.09,-141 581.09,-121.75 626.34,-121.75 626.34,-141"/>
<text text-anchor="middle" x="603.71" y="-127.5" font-family="Helvetica,sans-Serif" font-size="10.00">cstring</text>
</a>
</g>
</g>
<!-- Node8&#45;&gt;Node11 -->
<g id="edge11_Node000008_Node000011" class="edge">
<title>Node8&#45;&gt;Node11</title>
<g id="a_edge11_Node000008_Node000011"><a xlink:title=" ">
<path fill="none" stroke="#63b8ff" d="M445.5,-176.95C479.67,-167.32 534.63,-151.84 569.95,-141.89"/>
<polygon fill="#63b8ff" stroke="#63b8ff" points="570.55,-145.36 579.22,-139.27 568.65,-138.62 570.55,-145.36"/>
</a>
</g>
</g>
<!-- Node12 -->
<g id="Node000012" class="node">
<title>Node12</title>
<g id="a_Node000012"><a xlink:title=" ">
<polygon fill="#e0e0e0" stroke="#999999" points="697.46,-141 643.96,-141 643.96,-121.75 697.46,-121.75 697.46,-141"/>
<text text-anchor="middle" x="670.71" y="-127.5" font-family="Helvetica,sans-Serif" font-size="10.00">iostream</text>
</a>
</g>
</g>
<!-- Node8&#45;&gt;Node12 -->
<g id="edge13_Node000008_Node000012" class="edge">
<title>Node8&#45;&gt;Node12</title>
<g id="a_edge13_Node000008_Node000012"><a xlink:title=" ">
<path fill="none" stroke="#63b8ff" d="M445.55,-179.83C486.25,-172.08 560.4,-157.65 632.52,-141.65"/>
<polygon fill="#63b8ff" stroke="#63b8ff" points="633.13,-145.1 642.13,-139.5 631.61,-138.27 633.13,-145.1"/>
</a>
</g>
</g>
<!-- Node13 -->
<g id="Node000013" class="node">
<title>Node13</title>
<g id="a_Node000013"><a xlink:title=" ">
<polygon fill="#e0e0e0" stroke="#999999" points="499.46,-80.12 409.96,-80.12 409.96,-60.88 499.46,-60.88 499.46,-80.12"/>
<text text-anchor="middle" x="454.71" y="-66.62" font-family="Helvetica,sans-Serif" font-size="10.00">rclcpp/rclcpp.hpp</text>
</a>
</g>
</g>
<!-- Node8&#45;&gt;Node13 -->
<g id="edge16_Node000008_Node000013" class="edge">
<title>Node8&#45;&gt;Node13</title>
<g id="a_edge16_Node000008_Node000013"><a xlink:title=" ">
<path fill="none" stroke="#63b8ff" d="M383.88,-176.97C352.69,-166.58 311.39,-147.31 328.71,-121.75 338.26,-107.67 377.15,-93.48 409.24,-83.78"/>
<polygon fill="#63b8ff" stroke="#63b8ff" points="410.18,-87.16 418.79,-80.98 408.21,-80.44 410.18,-87.16"/>
</a>
</g>
</g>
<!-- Node14 -->
<g id="Node000014" class="node">
<title>Node14</title>
<g id="a_Node000014"><a xlink:href="cone_8hpp.html" target="_top" xlink:title=" ">
<polygon fill="white" stroke="#666666" points="791.71,-141 715.71,-141 715.71,-121.75 791.71,-121.75 791.71,-141"/>
<text text-anchor="middle" x="753.71" y="-127.5" font-family="Helvetica,sans-Serif" font-size="10.00">utils/cone.hpp</text>
</a>
</g>
</g>
<!-- Node8&#45;&gt;Node14 -->
<g id="edge17_Node000008_Node000014" class="edge">
<title>Node8&#45;&gt;Node14</title>
<g id="a_edge17_Node000008_Node000014"><a xlink:title=" ">
<path fill="none" stroke="#63b8ff" d="M445.45,-181.24C496.8,-173.84 603.55,-158.17 703.99,-141.42"/>
<polygon fill="#63b8ff" stroke="#63b8ff" points="704.48,-144.88 713.76,-139.78 703.32,-137.98 704.48,-144.88"/>
</a>
</g>
</g>
<!-- Node15 -->
<g id="Node000015" class="node">
<title>Node15</title>
<g id="a_Node000015"><a xlink:href="files_8hpp.html" target="_top" xlink:title=" ">
<polygon fill="white" stroke="#666666" points="238.84,-141 166.59,-141 166.59,-121.75 238.84,-121.75 238.84,-141"/>
<text text-anchor="middle" x="202.71" y="-127.5" font-family="Helvetica,sans-Serif" font-size="10.00">utils/files.hpp</text>
</a>
</g>
</g>
<!-- Node8&#45;&gt;Node15 -->
<g id="edge21_Node000008_Node000015" class="edge">
<title>Node8&#45;&gt;Node15</title>
<g id="a_edge21_Node000008_Node000015"><a xlink:title=" ">
<path fill="none" stroke="#63b8ff" d="M384.1,-179.1C347.34,-170.46 285.78,-155.1 244.65,-144.35"/>
<polygon fill="#63b8ff" stroke="#63b8ff" points="245.65,-141 235.09,-141.84 243.87,-147.77 245.65,-141"/>
</a>
</g>
</g>
<!-- Node14&#45;&gt;Node2 -->
<g id="edge19_Node000014_Node000002" class="edge">
<title>Node14&#45;&gt;Node2</title>
<g id="a_edge19_Node000014_Node000002"><a xlink:title=" ">
<path fill="none" stroke="#63b8ff" d="M720.44,-121.3C679.18,-110.06 609.4,-91.04 569.06,-80.05"/>
<polygon fill="#63b8ff" stroke="#63b8ff" points="570.06,-76.69 559.49,-77.44 568.22,-83.44 570.06,-76.69"/>
</a>
</g>
</g>
<!-- Node14&#45;&gt;Node4 -->
<g id="edge20_Node000014_Node000004" class="edge">
<title>Node14&#45;&gt;Node4</title>
<g id="a_edge20_Node000014_Node000004"><a xlink:title=" ">
<path fill="none" stroke="#63b8ff" d="M753.71,-121.37C753.71,-102.3 753.71,-57.41 753.71,-31.01"/>
<polygon fill="#63b8ff" stroke="#63b8ff" points="757.21,-31.24 753.71,-21.24 750.21,-31.24 757.21,-31.24"/>
</a>
</g>
</g>
<!-- Node14&#45;&gt;Node6 -->
<g id="edge18_Node000014_Node000006" class="edge">
<title>Node14&#45;&gt;Node6</title>
<g id="a_edge18_Node000014_Node000006"><a xlink:title=" ">
<path fill="none" stroke="#63b8ff" d="M736.23,-121.36C703.78,-105.08 631.65,-71.03 566.71,-55.25 406.78,-16.38 208.48,-11.04 130.96,-10.54"/>
<polygon fill="#63b8ff" stroke="#63b8ff" points="131.11,-7.04 121.1,-10.5 131.08,-14.04 131.11,-7.04"/>
</a>
</g>
</g>
<!-- Node15&#45;&gt;Node2 -->
<g id="edge24_Node000015_Node000002" class="edge">
<title>Node15&#45;&gt;Node2</title>
<g id="a_edge24_Node000015_Node000002"><a xlink:title=" ">
<path fill="none" stroke="#63b8ff" d="M239.11,-126.51C308.89,-118.85 458.97,-101.18 508.71,-85.75 509.52,-85.5 510.33,-85.23 511.14,-84.95"/>
<polygon fill="#63b8ff" stroke="#63b8ff" points="512.27,-88.27 520.12,-81.15 509.55,-81.82 512.27,-88.27"/>
</a>
</g>
</g>
<!-- Node15&#45;&gt;Node4 -->
<g id="edge25_Node000015_Node000004" class="edge">
<title>Node15&#45;&gt;Node4</title>
<g id="a_edge25_Node000015_Node000004"><a xlink:title=" ">
<path fill="none" stroke="#63b8ff" d="M239.21,-124.55C272.68,-118.21 322.94,-106.16 362.71,-85.75 381.98,-75.86 380.77,-63.7 400.71,-55.25 458.07,-30.93 644.19,-17.23 720.56,-12.51"/>
<polygon fill="#63b8ff" stroke="#63b8ff" points="720.55,-16.02 730.32,-11.92 720.13,-9.03 720.55,-16.02"/>
</a>
</g>
</g>
<!-- Node15&#45;&gt;Node5 -->
<g id="edge27_Node000015_Node000005" class="edge">
<title>Node15&#45;&gt;Node5</title>
<g id="a_edge27_Node000015_Node000005"><a xlink:title=" ">
<path fill="none" stroke="#63b8ff" d="M181.14,-121.3C157.95,-111.55 120.85,-95.95 94.36,-84.81"/>
<polygon fill="#63b8ff" stroke="#63b8ff" points="96.05,-81.72 85.47,-81.07 93.33,-88.17 96.05,-81.72"/>
</a>
</g>
</g>
<!-- Node15&#45;&gt;Node8 -->
<g id="edge26_Node000015_Node000008" class="edge">
<title>Node15&#45;&gt;Node8</title>
<g id="a_edge26_Node000015_Node000008"><a xlink:title=" ">
<path fill="none" stroke="#63b8ff" d="M239.32,-140.32C276.58,-149.16 334.03,-163.52 373,-173.71"/>
<polygon fill="#63b8ff" stroke="#63b8ff" points="371.94,-177.05 382.5,-176.21 373.72,-170.28 371.94,-177.05"/>
</a>
</g>
</g>
<!-- Node15&#45;&gt;Node13 -->
<g id="edge28_Node000015_Node000013" class="edge">
<title>Node15&#45;&gt;Node13</title>
<g id="a_edge28_Node000015_Node000013"><a xlink:title=" ">
<path fill="none" stroke="#63b8ff" d="M239.02,-122.09C277.83,-113.21 341.16,-98.64 395.71,-85.75 399.09,-84.95 402.58,-84.12 406.08,-83.28"/>
<polygon fill="#63b8ff" stroke="#63b8ff" points="406.89,-86.69 415.8,-80.95 405.26,-79.88 406.89,-86.69"/>
</a>
</g>
</g>
<!-- Node16 -->
<g id="Node000016" class="node">
<title>Node16</title>
<g id="a_Node000016"><a xlink:title=" ">
<polygon fill="#e0e0e0" stroke="#999999" points="276.34,-85.75 129.09,-85.75 129.09,-55.25 276.34,-55.25 276.34,-85.75"/>
<text text-anchor="start" x="137.09" y="-72.25" font-family="Helvetica,sans-Serif" font-size="10.00">ament_index_cpp/get</text>
<text text-anchor="middle" x="202.71" y="-61" font-family="Helvetica,sans-Serif" font-size="10.00">_package_share_directory.hpp</text>
</a>
</g>
</g>
<!-- Node15&#45;&gt;Node16 -->
<g id="edge22_Node000015_Node000016" class="edge">
<title>Node15&#45;&gt;Node16</title>
<g id="a_edge22_Node000015_Node000016"><a xlink:title=" ">
<path fill="none" stroke="#63b8ff" d="M202.71,-121.43C202.71,-114.98 202.71,-105.91 202.71,-97.26"/>
<polygon fill="#63b8ff" stroke="#63b8ff" points="206.21,-97.55 202.71,-87.55 199.21,-97.55 206.21,-97.55"/>
</a>
</g>
</g>
<!-- Node17 -->
<g id="Node000017" class="node">
<title>Node17</title>
<g id="a_Node000017"><a xlink:title=" ">
<polygon fill="#e0e0e0" stroke="#999999" points="353.46,-80.12 293.96,-80.12 293.96,-60.88 353.46,-60.88 353.46,-80.12"/>
<text text-anchor="middle" x="323.71" y="-66.62" font-family="Helvetica,sans-Serif" font-size="10.00">filesystem</text>
</a>
</g>
</g>
<!-- Node15&#45;&gt;Node17 -->
<g id="edge23_Node000015_Node000017" class="edge">
<title>Node15&#45;&gt;Node17</title>
<g id="a_edge23_Node000015_Node000017"><a xlink:title=" ">
<path fill="none" stroke="#63b8ff" d="M221.35,-121.3C241.04,-111.73 272.33,-96.5 295.13,-85.41"/>
<polygon fill="#63b8ff" stroke="#63b8ff" points="296.43,-88.67 303.89,-81.15 293.36,-82.37 296.43,-88.67"/>
</a>
</g>
</g>
</g>
</svg>
