<?xml version="1.0" encoding="UTF-8" standalone="no"?>
<!DOCTYPE svg PUBLIC "-//W3C//DTD SVG 1.1//EN"
 "http://www.w3.org/Graphics/SVG/1.1/DTD/svg11.dtd">
<!-- Generated by graphviz version 9.0.0 (20230911.1827)
 -->
<!-- Title: Graphical Class Hierarchy Pages: 1 -->
<svg width="260pt" height="76pt"
 viewBox="0.00 0.00 259.75 75.88" xmlns="http://www.w3.org/2000/svg" xmlns:xlink="http://www.w3.org/1999/xlink">
<g id="graph0" class="graph" transform="scale(1 1) rotate(0) translate(4 71.88)">
<title>Graphical Class Hierarchy</title>
<!-- Node0 -->
<g id="Node000000" class="node">
<title>Node0</title>
<g id="a_Node000000"><a xlink:title=" ">
<polygon fill="#e0e0e0" stroke="#999999" points="39.25,-40.25 0,-40.25 0,-21 39.25,-21 39.25,-40.25"/>
<text text-anchor="middle" x="19.62" y="-26.75" font-family="Helvetica,sans-Serif" font-size="10.00">Node</text>
</a>
</g>
</g>
<!-- Node1 -->
<g id="Node000001" class="node">
<title>Node1</title>
<g id="a_Node000001"><a xlink:href="classpath__planning__mock_1_1path__mock__publisher_1_1PathMockPublisher.html" target="_top" xlink:title="Class for publishing path mock.">
<polygon fill="white" stroke="#666666" points="251.75,-67.88 75.25,-67.88 75.25,-37.38 251.75,-37.38 251.75,-67.88"/>
<text text-anchor="start" x="83.25" y="-54.38" font-family="Helvetica,sans-Serif" font-size="10.00">path_planning_mock.path</text>
<text text-anchor="middle" x="163.5" y="-43.12" font-family="Helvetica,sans-Serif" font-size="10.00">_mock_publisher.PathMockPublisher</text>
</a>
</g>
</g>
<!-- Node0&#45;&gt;Node1 -->
<g id="edge3_Node000000_Node000001" class="edge">
<title>Node0&#45;&gt;Node1</title>
<g id="a_edge3_Node000000_Node000001"><a xlink:title=" ">
<path fill="none" stroke="#63b8ff" d="M50.61,-35.28C58.01,-36.42 66.32,-37.71 74.97,-39.05"/>
<polygon fill="#63b8ff" stroke="#63b8ff" points="51.38,-31.85 40.96,-33.78 50.31,-38.77 51.38,-31.85"/>
</a>
</g>
</g>
<!-- Node2 -->
<g id="Node000002" class="node">
<title>Node2</title>
<g id="a_Node000002"><a xlink:href="classplots_1_1plots_1_1Plots.html" target="_top" xlink:title=" ">
<polygon fill="white" stroke="#666666" points="206,-19.25 121,-19.25 121,0 206,0 206,-19.25"/>
<text text-anchor="middle" x="163.5" y="-5.75" font-family="Helvetica,sans-Serif" font-size="10.00">plots.plots.Plots</text>
</a>
</g>
</g>
<!-- Node0&#45;&gt;Node2 -->
<g id="edge4_Node000000_Node000002" class="edge">
<title>Node0&#45;&gt;Node2</title>
<g id="a_edge4_Node000000_Node000002"><a xlink:title=" ">
<path fill="none" stroke="#63b8ff" d="M50.84,-26.15C71.15,-23.15 98.17,-19.15 120.55,-15.83"/>
<polygon fill="#63b8ff" stroke="#63b8ff" points="50.34,-22.69 40.96,-27.61 51.37,-29.61 50.34,-22.69"/>
</a>
</g>
</g>
</g>
</svg>
