<?xml version="1.0" encoding="UTF-8" standalone="no"?>
<!DOCTYPE svg PUBLIC "-//W3C//DTD SVG 1.1//EN"
 "http://www.w3.org/Graphics/SVG/1.1/DTD/svg11.dtd">
<!-- Generated by graphviz version 9.0.0 (20230911.1827)
 -->
<!-- Title: Graphical Class Hierarchy Pages: 1 -->
<svg width="235pt" height="101pt"
 viewBox="0.00 0.00 235.00 101.25" xmlns="http://www.w3.org/2000/svg" xmlns:xlink="http://www.w3.org/1999/xlink">
<g id="graph0" class="graph" transform="scale(1 1) rotate(0) translate(4 97.25)">
<title>Graphical Class Hierarchy</title>
<!-- Node0 -->
<g id="Node000000" class="node">
<title>Node0</title>
<g id="a_Node000000"><a xlink:title=" ">
<polygon fill="#e0e0e0" stroke="#999999" points="69.25,-56.25 0,-56.25 0,-37 69.25,-37 69.25,-56.25"/>
<text text-anchor="middle" x="34.62" y="-42.75" font-family="Helvetica,sans-Serif" font-size="10.00">testing::Test</text>
</a>
</g>
</g>
<!-- Node1 -->
<g id="Node000001" class="node">
<title>Node1</title>
<g id="a_Node000001"><a xlink:href="classExecTimeTest.html" target="_top" xlink:title=" ">
<polygon fill="white" stroke="#666666" points="205.25,-93.25 127,-93.25 127,-74 205.25,-74 205.25,-93.25"/>
<text text-anchor="middle" x="166.12" y="-79.75" font-family="Helvetica,sans-Serif" font-size="10.00">ExecTimeTest</text>
</a>
</g>
</g>
<!-- Node0&#45;&gt;Node1 -->
<g id="edge13_Node000000_Node000001" class="edge">
<title>Node0&#45;&gt;Node1</title>
<g id="a_edge13_Node000000_Node000001"><a xlink:title=" ">
<path fill="none" stroke="#63b8ff" d="M80.51,-59.45C96.7,-64.08 114.73,-69.23 129.97,-73.58"/>
<polygon fill="#63b8ff" stroke="#63b8ff" points="81.68,-56.14 71.1,-56.76 79.76,-62.87 81.68,-56.14"/>
</a>
</g>
</g>
<!-- Node2 -->
<g id="Node000002" class="node">
<title>Node2</title>
<g id="a_Node000002"><a xlink:href="classExecTimeTestEKFTests.html" target="_top" xlink:title="Test class for performance measurements of Extended Kalman Filter steps.">
<polygon fill="white" stroke="#666666" points="227,-56.25 105.25,-56.25 105.25,-37 227,-37 227,-56.25"/>
<text text-anchor="middle" x="166.12" y="-42.75" font-family="Helvetica,sans-Serif" font-size="10.00">ExecTimeTestEKFTests</text>
</a>
</g>
</g>
<!-- Node0&#45;&gt;Node2 -->
<g id="edge14_Node000000_Node000002" class="edge">
<title>Node0&#45;&gt;Node2</title>
<g id="a_edge14_Node000000_Node000002"><a xlink:title=" ">
<path fill="none" stroke="#63b8ff" d="M80.96,-46.62C88.66,-46.62 96.77,-46.62 104.78,-46.62"/>
<polygon fill="#63b8ff" stroke="#63b8ff" points="81.16,-43.13 71.16,-46.63 81.16,-50.13 81.16,-43.13"/>
</a>
</g>
</g>
<!-- Node3 -->
<g id="Node000003" class="node">
<title>Node3</title>
<g id="a_Node000003"><a xlink:href="classIntegrationTest.html" target="_top" xlink:title=" ">
<polygon fill="white" stroke="#666666" points="206.75,-19.25 125.5,-19.25 125.5,0 206.75,0 206.75,-19.25"/>
<text text-anchor="middle" x="166.12" y="-5.75" font-family="Helvetica,sans-Serif" font-size="10.00">IntegrationTest</text>
</a>
</g>
</g>
<!-- Node0&#45;&gt;Node3 -->
<g id="edge15_Node000000_Node000003" class="edge">
<title>Node0&#45;&gt;Node3</title>
<g id="a_edge15_Node000000_Node000003"><a xlink:title=" ">
<path fill="none" stroke="#63b8ff" d="M80.51,-33.8C96.7,-29.17 114.73,-24.02 129.97,-19.67"/>
<polygon fill="#63b8ff" stroke="#63b8ff" points="79.76,-30.38 71.1,-36.49 81.68,-37.11 79.76,-30.38"/>
</a>
</g>
</g>
</g>
</svg>
