<?xml version="1.0" encoding="UTF-8" standalone="no"?>
<!DOCTYPE svg PUBLIC "-//W3C//DTD SVG 1.1//EN"
 "http://www.w3.org/Graphics/SVG/1.1/DTD/svg11.dtd">
<!-- Generated by graphviz version 9.0.0 (20230911.1827)
 -->
<!-- Title: Graphical Class Hierarchy Pages: 1 -->
<svg width="213pt" height="212pt"
 viewBox="0.00 0.00 213.25 212.25" xmlns="http://www.w3.org/2000/svg" xmlns:xlink="http://www.w3.org/1999/xlink">
<g id="graph0" class="graph" transform="scale(1 1) rotate(0) translate(4 208.25)">
<title>Graphical Class Hierarchy</title>
<!-- Node0 -->
<g id="Node000000" class="node">
<title>Node0</title>
<g id="a_Node000000"><a xlink:title=" ">
<polygon fill="#e0e0e0" stroke="#999999" points="70,-111.25 0,-111.25 0,-92 70,-92 70,-111.25"/>
<text text-anchor="middle" x="35" y="-97.75" font-family="Helvetica,sans-Serif" font-size="10.00">rclcpp::Node</text>
</a>
</g>
</g>
<!-- Node1 -->
<g id="Node000001" class="node">
<title>Node1</title>
<g id="a_Node000001"><a xlink:href="classCanInterface.html" target="_top" xlink:title="Interface to communicate with the ADS&#45;DV autonomous car through CAN.">
<polygon fill="white" stroke="#666666" points="191.38,-204.25 119.88,-204.25 119.88,-185 191.38,-185 191.38,-204.25"/>
<text text-anchor="middle" x="155.62" y="-190.75" font-family="Helvetica,sans-Serif" font-size="10.00">CanInterface</text>
</a>
</g>
</g>
<!-- Node0&#45;&gt;Node1 -->
<g id="edge7_Node000000_Node000001" class="edge">
<title>Node0&#45;&gt;Node1</title>
<g id="a_edge7_Node000000_Node000001"><a xlink:title=" ">
<path fill="none" stroke="#63b8ff" d="M49.45,-120.41C62.3,-137.17 83.07,-161.36 106,-176.62 110.65,-179.72 115.89,-182.37 121.18,-184.61"/>
<polygon fill="#63b8ff" stroke="#63b8ff" points="52.52,-118.67 43.74,-112.73 46.9,-122.85 52.52,-118.67"/>
</a>
</g>
</g>
<!-- Node2 -->
<g id="Node000002" class="node">
<title>Node2</title>
<g id="a_Node000002"><a xlink:href="classLMNode.html" target="_top" xlink:title="Class representing the main loc_map node responsible for publishing the calculated vehicle localizati...">
<polygon fill="white" stroke="#666666" points="182.38,-167.25 128.88,-167.25 128.88,-148 182.38,-148 182.38,-167.25"/>
<text text-anchor="middle" x="155.62" y="-153.75" font-family="Helvetica,sans-Serif" font-size="10.00">LMNode</text>
</a>
</g>
</g>
<!-- Node0&#45;&gt;Node2 -->
<g id="edge8_Node000000_Node000002" class="edge">
<title>Node0&#45;&gt;Node2</title>
<g id="a_edge8_Node000000_Node000002"><a xlink:title=" ">
<path fill="none" stroke="#63b8ff" d="M62.54,-117.2C75.44,-124.46 91.29,-132.95 106,-139.62 113.21,-142.9 121.21,-146.05 128.61,-148.77"/>
<polygon fill="#63b8ff" stroke="#63b8ff" points="64.65,-114.37 54.23,-112.44 61.17,-120.45 64.65,-114.37"/>
</a>
</g>
</g>
<!-- Node3 -->
<g id="Node000003" class="node">
<title>Node3</title>
<g id="a_Node000003"><a xlink:href="classLongitudinalControl.html" target="_top" xlink:title="Class responsible for the longitudinal control of the car.">
<polygon fill="white" stroke="#666666" points="205.25,-130.25 106,-130.25 106,-111 205.25,-111 205.25,-130.25"/>
<text text-anchor="middle" x="155.62" y="-116.75" font-family="Helvetica,sans-Serif" font-size="10.00">LongitudinalControl</text>
</a>
</g>
</g>
<!-- Node0&#45;&gt;Node3 -->
<g id="edge9_Node000000_Node000003" class="edge">
<title>Node0&#45;&gt;Node3</title>
<g id="a_edge9_Node000000_Node000003"><a xlink:title=" ">
<path fill="none" stroke="#63b8ff" d="M81.61,-108.93C89.54,-110.2 97.82,-111.53 105.83,-112.81"/>
<polygon fill="#63b8ff" stroke="#63b8ff" points="82.23,-105.49 71.81,-107.36 81.13,-112.4 82.23,-105.49"/>
</a>
</g>
</g>
<!-- Node4 -->
<g id="Node000004" class="node">
<title>Node4</title>
<g id="a_Node000004"><a xlink:href="classPerception.html" target="_top" xlink:title=" ">
<polygon fill="white" stroke="#666666" points="186.88,-93.25 124.38,-93.25 124.38,-74 186.88,-74 186.88,-93.25"/>
<text text-anchor="middle" x="155.62" y="-79.75" font-family="Helvetica,sans-Serif" font-size="10.00">Perception</text>
</a>
</g>
</g>
<!-- Node0&#45;&gt;Node4 -->
<g id="edge10_Node000000_Node000004" class="edge">
<title>Node0&#45;&gt;Node4</title>
<g id="a_edge10_Node000000_Node000004"><a xlink:title=" ">
<path fill="none" stroke="#63b8ff" d="M81.43,-94.73C95.68,-92.57 111.06,-90.24 124.03,-88.27"/>
<polygon fill="#63b8ff" stroke="#63b8ff" points="81.17,-91.23 71.81,-96.19 82.22,-98.15 81.17,-91.23"/>
</a>
</g>
</g>
<!-- Node5 -->
<g id="Node000005" class="node">
<title>Node5</title>
<g id="a_Node000005"><a xlink:href="classPlanning.html" target="_top" xlink:title="Class responsible for planning and path generation for our car.">
<polygon fill="white" stroke="#666666" points="182.38,-56.25 128.88,-56.25 128.88,-37 182.38,-37 182.38,-56.25"/>
<text text-anchor="middle" x="155.62" y="-42.75" font-family="Helvetica,sans-Serif" font-size="10.00">Planning</text>
</a>
</g>
</g>
<!-- Node0&#45;&gt;Node5 -->
<g id="edge11_Node000000_Node000005" class="edge">
<title>Node0&#45;&gt;Node5</title>
<g id="a_edge11_Node000000_Node000005"><a xlink:title=" ">
<path fill="none" stroke="#63b8ff" d="M63.49,-86.02C76.23,-79.07 91.69,-71.02 106,-64.62 113.15,-61.43 121.06,-58.33 128.38,-55.62"/>
<polygon fill="#63b8ff" stroke="#63b8ff" points="61.9,-82.9 54.84,-90.81 65.29,-89.02 61.9,-82.9"/>
</a>
</g>
</g>
<!-- Node6 -->
<g id="Node000006" class="node">
<title>Node6</title>
<g id="a_Node000006"><a xlink:href="classPublisher.html" target="_top" xlink:title=" ">
<polygon fill="white" stroke="#666666" points="183.88,-19.25 127.38,-19.25 127.38,0 183.88,0 183.88,-19.25"/>
<text text-anchor="middle" x="155.62" y="-5.75" font-family="Helvetica,sans-Serif" font-size="10.00">Publisher</text>
</a>
</g>
</g>
<!-- Node0&#45;&gt;Node6 -->
<g id="edge12_Node000000_Node000006" class="edge">
<title>Node0&#45;&gt;Node6</title>
<g id="a_edge12_Node000000_Node000006"><a xlink:title=" ">
<path fill="none" stroke="#63b8ff" d="M49.71,-82.83C62.61,-66.31 83.31,-42.62 106,-27.62 112.38,-23.41 119.89,-20.01 127.07,-17.34"/>
<polygon fill="#63b8ff" stroke="#63b8ff" points="47.22,-80.32 43.97,-90.41 52.8,-84.55 47.22,-80.32"/>
</a>
</g>
</g>
</g>
</svg>
