<?xml version="1.0" encoding="UTF-8" standalone="no"?>
<!DOCTYPE svg PUBLIC "-//W3C//DTD SVG 1.1//EN"
 "http://www.w3.org/Graphics/SVG/1.1/DTD/svg11.dtd">
<!-- Generated by graphviz version 9.0.0 (20230911.1827)
 -->
<!-- Title: Graphical Class Hierarchy Pages: 1 -->
<svg width="227pt" height="64pt"
 viewBox="0.00 0.00 226.75 64.25" xmlns="http://www.w3.org/2000/svg" xmlns:xlink="http://www.w3.org/1999/xlink">
<g id="graph0" class="graph" transform="scale(1 1) rotate(0) translate(4 60.25)">
<title>Graphical Class Hierarchy</title>
<!-- Node0 -->
<g id="Node000000" class="node">
<title>Node0</title>
<g id="a_Node000000"><a xlink:href="classplots_1_1plots_1_1Position.html" target="_top" xlink:title=" ">
<polygon fill="white" stroke="#666666" points="97.75,-37.25 0,-37.25 0,-18 97.75,-18 97.75,-37.25"/>
<text text-anchor="middle" x="48.88" y="-23.75" font-family="Helvetica,sans-Serif" font-size="10.00">plots.plots.Position</text>
</a>
</g>
</g>
<!-- Node1 -->
<g id="Node000001" class="node">
<title>Node1</title>
<g id="a_Node000001"><a xlink:href="classplots_1_1plots_1_1Cone.html" target="_top" xlink:title=" ">
<polygon fill="white" stroke="#666666" points="218.75,-56.25 133.75,-56.25 133.75,-37 218.75,-37 218.75,-56.25"/>
<text text-anchor="middle" x="176.25" y="-42.75" font-family="Helvetica,sans-Serif" font-size="10.00">plots.plots.Cone</text>
</a>
</g>
</g>
<!-- Node0&#45;&gt;Node1 -->
<g id="edge5_Node000000_Node000001" class="edge">
<title>Node0&#45;&gt;Node1</title>
<g id="a_edge5_Node000000_Node000001"><a xlink:title=" ">
<path fill="none" stroke="#63b8ff" d="M109.15,-36.61C117.41,-37.86 125.76,-39.12 133.6,-40.31"/>
<polygon fill="#63b8ff" stroke="#63b8ff" points="109.9,-33.18 99.49,-35.14 108.85,-40.1 109.9,-33.18"/>
</a>
</g>
</g>
<!-- Node2 -->
<g id="Node000002" class="node">
<title>Node2</title>
<g id="a_Node000002"><a xlink:href="classplots_1_1plots_1_1Pose.html" target="_top" xlink:title=" ">
<polygon fill="white" stroke="#666666" points="218.75,-19.25 133.75,-19.25 133.75,0 218.75,0 218.75,-19.25"/>
<text text-anchor="middle" x="176.25" y="-5.75" font-family="Helvetica,sans-Serif" font-size="10.00">plots.plots.Pose</text>
</a>
</g>
</g>
<!-- Node0&#45;&gt;Node2 -->
<g id="edge6_Node000000_Node000002" class="edge">
<title>Node0&#45;&gt;Node2</title>
<g id="a_edge6_Node000000_Node000002"><a xlink:title=" ">
<path fill="none" stroke="#63b8ff" d="M109.15,-19.11C117.41,-17.93 125.76,-16.73 133.6,-15.6"/>
<polygon fill="#63b8ff" stroke="#63b8ff" points="108.89,-15.62 99.49,-20.5 109.88,-22.55 108.89,-15.62"/>
</a>
</g>
</g>
</g>
</svg>
