<?xml version="1.0" encoding="UTF-8" standalone="no"?>
<!DOCTYPE svg PUBLIC "-//W3C//DTD SVG 1.1//EN"
 "http://www.w3.org/Graphics/SVG/1.1/DTD/svg11.dtd">
<!-- Generated by graphviz version 9.0.0 (20230911.1827)
 -->
<!-- Title: Graphical Class Hierarchy Pages: 1 -->
<svg width="224pt" height="64pt"
 viewBox="0.00 0.00 223.75 64.25" xmlns="http://www.w3.org/2000/svg" xmlns:xlink="http://www.w3.org/1999/xlink">
<g id="graph0" class="graph" transform="scale(1 1) rotate(0) translate(4 60.25)">
<title>Graphical Class Hierarchy</title>
<!-- Node0 -->
<g id="Node000000" class="node">
<title>Node0</title>
<g id="a_Node000000"><a xlink:href="classMotionModel.html" target="_top" xlink:title="Abstract Moiton Model class designed to be implemented by the different motion models.">
<polygon fill="white" stroke="#666666" points="71.5,-37.25 0,-37.25 0,-18 71.5,-18 71.5,-37.25"/>
<text text-anchor="middle" x="35.75" y="-23.75" font-family="Helvetica,sans-Serif" font-size="10.00">MotionModel</text>
</a>
</g>
</g>
<!-- Node1 -->
<g id="Node000001" class="node">
<title>Node1</title>
<g id="a_Node000001"><a xlink:href="classImuVelocityModel.html" target="_top" xlink:title="Motion estimation that uses the specific values of the x and y axis accelerations,...">
<polygon fill="white" stroke="#666666" points="208.25,-56.25 115,-56.25 115,-37 208.25,-37 208.25,-56.25"/>
<text text-anchor="middle" x="161.62" y="-42.75" font-family="Helvetica,sans-Serif" font-size="10.00">ImuVelocityModel</text>
</a>
</g>
</g>
<!-- Node0&#45;&gt;Node1 -->
<g id="edge1_Node000000_Node000001" class="edge">
<title>Node0&#45;&gt;Node1</title>
<g id="a_edge1_Node000000_Node000001"><a xlink:title=" ">
<path fill="none" stroke="#63b8ff" d="M83.22,-34.75C93.52,-36.33 104.43,-38.01 114.71,-39.58"/>
<polygon fill="#63b8ff" stroke="#63b8ff" points="83.83,-31.3 73.41,-33.25 82.77,-38.22 83.83,-31.3"/>
</a>
</g>
</g>
<!-- Node2 -->
<g id="Node000002" class="node">
<title>Node2</title>
<g id="a_Node000002"><a xlink:href="classNormalVelocityModel.html" target="_top" xlink:title="Motion estimation that uses the module of the velocity and the rotational velocity.">
<polygon fill="white" stroke="#666666" points="215.75,-19.25 107.5,-19.25 107.5,0 215.75,0 215.75,-19.25"/>
<text text-anchor="middle" x="161.62" y="-5.75" font-family="Helvetica,sans-Serif" font-size="10.00">NormalVelocityModel</text>
</a>
</g>
</g>
<!-- Node0&#45;&gt;Node2 -->
<g id="edge2_Node000000_Node000002" class="edge">
<title>Node0&#45;&gt;Node2</title>
<g id="a_edge2_Node000000_Node000002"><a xlink:title=" ">
<path fill="none" stroke="#63b8ff" d="M83.15,-20.88C91.03,-19.74 99.28,-18.54 107.32,-17.37"/>
<polygon fill="#63b8ff" stroke="#63b8ff" points="82.81,-17.4 73.41,-22.3 83.81,-24.32 82.81,-17.4"/>
</a>
</g>
</g>
</g>
</svg>
