<?xml version="1.0" encoding="UTF-8" standalone="no"?>
<!DOCTYPE svg PUBLIC "-//W3C//DTD SVG 1.1//EN"
 "http://www.w3.org/Graphics/SVG/1.1/DTD/svg11.dtd">
<!-- Generated by graphviz version 9.0.0 (20230911.1827)
 -->
<!-- Title: src/loc_map/include/loc_map/lm_node.hpp Pages: 1 -->
<svg width="1541pt" height="282pt"
 viewBox="0.00 0.00 1540.75 282.00" xmlns="http://www.w3.org/2000/svg" xmlns:xlink="http://www.w3.org/1999/xlink">
<g id="graph0" class="graph" transform="scale(1 1) rotate(0) translate(4 278)">
<title>src/loc_map/include/loc_map/lm_node.hpp</title>
<!-- Node1 -->
<g id="Node000001" class="node">
<title>Node1</title>
<g id="a_Node000001"><a xlink:title=" ">
<polygon fill="#999999" stroke="#666666" points="673.75,-274 560.25,-274 560.25,-243.5 673.75,-243.5 673.75,-274"/>
<text text-anchor="start" x="568.25" y="-260.5" font-family="Helvetica,sans-Serif" font-size="10.00">src/loc_map/include</text>
<text text-anchor="middle" x="617" y="-249.25" font-family="Helvetica,sans-Serif" font-size="10.00">/loc_map/lm_node.hpp</text>
</a>
</g>
</g>
<!-- Node2 -->
<g id="Node000002" class="node">
<title>Node2</title>
<g id="a_Node000002"><a xlink:title=" ">
<polygon fill="#e0e0e0" stroke="#999999" points="94,-201.88 0,-201.88 0,-182.62 94,-182.62 94,-201.88"/>
<text text-anchor="middle" x="47" y="-188.38" font-family="Helvetica,sans-Serif" font-size="10.00">gtest/gtest_prod.h</text>
</a>
</g>
</g>
<!-- Node1&#45;&gt;Node2 -->
<g id="edge1_Node000001_Node000002" class="edge">
<title>Node1&#45;&gt;Node2</title>
<g id="a_edge1_Node000001_Node000002"><a xlink:title=" ">
<path fill="none" stroke="#63b8ff" d="M559.96,-255.01C464.7,-249.79 267.49,-236.3 103,-207.5 98.85,-206.77 94.56,-205.9 90.28,-204.95"/>
<polygon fill="#63b8ff" stroke="#63b8ff" points="91.11,-201.55 80.57,-202.66 89.49,-208.36 91.11,-201.55"/>
</a>
</g>
</g>
<!-- Node3 -->
<g id="Node000003" class="node">
<title>Node3</title>
<g id="a_Node000003"><a xlink:title=" ">
<polygon fill="#e0e0e0" stroke="#999999" points="170,-201.88 112,-201.88 112,-182.62 170,-182.62 170,-201.88"/>
<text text-anchor="middle" x="141" y="-188.38" font-family="Helvetica,sans-Serif" font-size="10.00">functional</text>
</a>
</g>
</g>
<!-- Node1&#45;&gt;Node3 -->
<g id="edge2_Node000001_Node000003" class="edge">
<title>Node1&#45;&gt;Node3</title>
<g id="a_edge2_Node000001_Node000003"><a xlink:title=" ">
<path fill="none" stroke="#63b8ff" d="M559.88,-255.65C475.52,-251.54 313.12,-239.83 179,-207.5 177.12,-207.05 175.2,-206.53 173.28,-205.96"/>
<polygon fill="#63b8ff" stroke="#63b8ff" points="174.45,-202.66 163.85,-202.8 172.22,-209.3 174.45,-202.66"/>
</a>
</g>
</g>
<!-- Node4 -->
<g id="Node000004" class="node">
<title>Node4</title>
<g id="a_Node000004"><a xlink:title=" ">
<polygon fill="#e0e0e0" stroke="#999999" points="238.25,-201.88 187.75,-201.88 187.75,-182.62 238.25,-182.62 238.25,-201.88"/>
<text text-anchor="middle" x="213" y="-188.38" font-family="Helvetica,sans-Serif" font-size="10.00">memory</text>
</a>
</g>
</g>
<!-- Node1&#45;&gt;Node4 -->
<g id="edge3_Node000001_Node000004" class="edge">
<title>Node1&#45;&gt;Node4</title>
<g id="a_edge3_Node000001_Node000004"><a xlink:title=" ">
<path fill="none" stroke="#63b8ff" d="M560.01,-253.69C487.58,-247.67 359.08,-234.11 252,-207.5 250.12,-207.03 248.21,-206.51 246.3,-205.94"/>
<polygon fill="#63b8ff" stroke="#63b8ff" points="247.46,-202.64 236.87,-202.84 245.27,-209.29 247.46,-202.64"/>
</a>
</g>
</g>
<!-- Node5 -->
<g id="Node000005" class="node">
<title>Node5</title>
<g id="a_Node000005"><a xlink:title=" ">
<polygon fill="#e0e0e0" stroke="#999999" points="229,-19.25 189,-19.25 189,0 229,0 229,-19.25"/>
<text text-anchor="middle" x="209" y="-5.75" font-family="Helvetica,sans-Serif" font-size="10.00">string</text>
</a>
</g>
</g>
<!-- Node1&#45;&gt;Node5 -->
<g id="edge4_Node000001_Node000005" class="edge">
<title>Node1&#45;&gt;Node5</title>
<g id="a_edge4_Node000001_Node000005"><a xlink:title=" ">
<path fill="none" stroke="#63b8ff" d="M559.92,-248.91C462.27,-232.51 269.85,-194.12 230,-141 205.66,-108.54 204.93,-58.65 206.81,-30.95"/>
<polygon fill="#63b8ff" stroke="#63b8ff" points="210.28,-31.39 207.68,-21.12 203.31,-30.77 210.28,-31.39"/>
</a>
</g>
</g>
<!-- Node6 -->
<g id="Node000006" class="node">
<title>Node6</title>
<g id="a_Node000006"><a xlink:title=" ">
<polygon fill="#e0e0e0" stroke="#999999" points="590.88,-201.88 541.12,-201.88 541.12,-182.62 590.88,-182.62 590.88,-201.88"/>
<text text-anchor="middle" x="566" y="-188.38" font-family="Helvetica,sans-Serif" font-size="10.00">typeinfo</text>
</a>
</g>
</g>
<!-- Node1&#45;&gt;Node6 -->
<g id="edge5_Node000001_Node000006" class="edge">
<title>Node1&#45;&gt;Node6</title>
<g id="a_edge5_Node000001_Node000006"><a xlink:title=" ">
<path fill="none" stroke="#63b8ff" d="M605.43,-243.11C597.86,-233.54 587.92,-220.97 579.92,-210.85"/>
<polygon fill="#63b8ff" stroke="#63b8ff" points="582.86,-208.93 573.91,-203.26 577.37,-213.27 582.86,-208.93"/>
</a>
</g>
</g>
<!-- Node7 -->
<g id="Node000007" class="node">
<title>Node7</title>
<g id="a_Node000007"><a xlink:title=" ">
<polygon fill="#e0e0e0" stroke="#999999" points="727,-207.5 609,-207.5 609,-177 727,-177 727,-207.5"/>
<text text-anchor="start" x="617" y="-194" font-family="Helvetica,sans-Serif" font-size="10.00">custom_interfaces/msg</text>
<text text-anchor="middle" x="668" y="-182.75" font-family="Helvetica,sans-Serif" font-size="10.00">/cone_array.hpp</text>
</a>
</g>
</g>
<!-- Node1&#45;&gt;Node7 -->
<g id="edge6_Node000001_Node000007" class="edge">
<title>Node1&#45;&gt;Node7</title>
<g id="a_edge6_Node000001_Node000007"><a xlink:title=" ">
<path fill="none" stroke="#63b8ff" d="M628.57,-243.11C634.77,-235.28 642.54,-225.44 649.55,-216.58"/>
<polygon fill="#63b8ff" stroke="#63b8ff" points="652.08,-219.03 655.53,-209.02 646.59,-214.69 652.08,-219.03"/>
</a>
</g>
</g>
<!-- Node8 -->
<g id="Node000008" class="node">
<title>Node8</title>
<g id="a_Node000008"><a xlink:title=" ">
<polygon fill="#e0e0e0" stroke="#999999" points="863,-207.5 745,-207.5 745,-177 863,-177 863,-207.5"/>
<text text-anchor="start" x="753" y="-194" font-family="Helvetica,sans-Serif" font-size="10.00">custom_interfaces/msg</text>
<text text-anchor="middle" x="804" y="-182.75" font-family="Helvetica,sans-Serif" font-size="10.00">/point2d.hpp</text>
</a>
</g>
</g>
<!-- Node1&#45;&gt;Node8 -->
<g id="edge7_Node000001_Node000008" class="edge">
<title>Node1&#45;&gt;Node8</title>
<g id="a_edge7_Node000001_Node000008"><a xlink:title=" ">
<path fill="none" stroke="#63b8ff" d="M659.43,-243.11C686.47,-233.79 721.74,-221.62 750.66,-211.65"/>
<polygon fill="#63b8ff" stroke="#63b8ff" points="751.67,-215 759.98,-208.43 749.39,-208.39 751.67,-215"/>
</a>
</g>
</g>
<!-- Node9 -->
<g id="Node000009" class="node">
<title>Node9</title>
<g id="a_Node000009"><a xlink:title=" ">
<polygon fill="#e0e0e0" stroke="#999999" points="999,-207.5 881,-207.5 881,-177 999,-177 999,-207.5"/>
<text text-anchor="start" x="889" y="-194" font-family="Helvetica,sans-Serif" font-size="10.00">custom_interfaces/msg</text>
<text text-anchor="middle" x="940" y="-182.75" font-family="Helvetica,sans-Serif" font-size="10.00">/pose.hpp</text>
</a>
</g>
</g>
<!-- Node1&#45;&gt;Node9 -->
<g id="edge8_Node000001_Node000009" class="edge">
<title>Node1&#45;&gt;Node9</title>
<g id="a_edge8_Node000001_Node000009"><a xlink:title=" ">
<path fill="none" stroke="#63b8ff" d="M674.01,-246.72C723.19,-237.16 796.43,-222.81 869.43,-208.01"/>
<polygon fill="#63b8ff" stroke="#63b8ff" points="870.08,-211.45 879.19,-206.03 868.69,-204.59 870.08,-211.45"/>
</a>
</g>
</g>
<!-- Node10 -->
<g id="Node000010" class="node">
<title>Node10</title>
<g id="a_Node000010"><a xlink:title=" ">
<polygon fill="#e0e0e0" stroke="#999999" points="1131.12,-207.5 1016.88,-207.5 1016.88,-177 1131.12,-177 1131.12,-207.5"/>
<text text-anchor="start" x="1024.88" y="-194" font-family="Helvetica,sans-Serif" font-size="10.00">eufs_msgs/msg/wheel</text>
<text text-anchor="middle" x="1074" y="-182.75" font-family="Helvetica,sans-Serif" font-size="10.00">_speeds_stamped.hpp</text>
</a>
</g>
</g>
<!-- Node1&#45;&gt;Node10 -->
<g id="edge9_Node000001_Node000010" class="edge">
<title>Node1&#45;&gt;Node10</title>
<g id="a_edge9_Node000001_Node000010"><a xlink:title=" ">
<path fill="none" stroke="#63b8ff" d="M674.21,-251.94C748.35,-244.06 881.85,-228.72 1005.31,-207.88"/>
<polygon fill="#63b8ff" stroke="#63b8ff" points="1005.7,-211.36 1014.97,-206.23 1004.52,-204.46 1005.7,-211.36"/>
</a>
</g>
</g>
<!-- Node11 -->
<g id="Node000011" class="node">
<title>Node11</title>
<g id="a_Node000011"><a xlink:href="ekf_8hpp.html" target="_top" xlink:title=" ">
<polygon fill="white" stroke="#666666" points="484.62,-201.88 379.38,-201.88 379.38,-182.62 484.62,-182.62 484.62,-201.88"/>
<text text-anchor="middle" x="432" y="-188.38" font-family="Helvetica,sans-Serif" font-size="10.00">kalman_filter/ekf.hpp</text>
</a>
</g>
</g>
<!-- Node1&#45;&gt;Node11 -->
<g id="edge10_Node000001_Node000011" class="edge">
<title>Node1&#45;&gt;Node11</title>
<g id="a_edge10_Node000001_Node000011"><a xlink:title=" ">
<path fill="none" stroke="#63b8ff" d="M575.02,-243.11C543.02,-231.96 499.39,-216.75 468.76,-206.07"/>
<polygon fill="#63b8ff" stroke="#63b8ff" points="470.14,-202.84 459.54,-202.85 467.83,-209.45 470.14,-202.84"/>
</a>
</g>
</g>
<!-- Node15 -->
<g id="Node000015" class="node">
<title>Node15</title>
<g id="a_Node000015"><a xlink:href="data__structures_8hpp.html" target="_top" xlink:title=" ">
<polygon fill="white" stroke="#666666" points="502.62,-74.5 361.38,-74.5 361.38,-55.25 502.62,-55.25 502.62,-74.5"/>
<text text-anchor="middle" x="432" y="-61" font-family="Helvetica,sans-Serif" font-size="10.00">loc_map/data_structures.hpp</text>
</a>
</g>
</g>
<!-- Node1&#45;&gt;Node15 -->
<g id="edge25_Node000001_Node000015" class="edge">
<title>Node1&#45;&gt;Node15</title>
<g id="a_edge25_Node000001_Node000015"><a xlink:title=" ">
<path fill="none" stroke="#63b8ff" d="M574.27,-243.13C558.04,-235.25 541.26,-223.73 532,-207.5 525.28,-195.73 525.82,-189.06 532,-177 544.48,-152.63 569.52,-165.37 582,-141 588.18,-128.94 590.1,-121.37 582,-110.5 565.94,-88.97 539.91,-77.41 514.01,-71.33"/>
<polygon fill="#63b8ff" stroke="#63b8ff" points="514.92,-67.95 504.42,-69.36 513.51,-74.81 514.92,-67.95"/>
</a>
</g>
</g>
<!-- Node21 -->
<g id="Node000021" class="node">
<title>Node21</title>
<g id="a_Node000021"><a xlink:title=" ">
<polygon fill="#e0e0e0" stroke="#999999" points="1238.75,-201.88 1149.25,-201.88 1149.25,-182.62 1238.75,-182.62 1238.75,-201.88"/>
<text text-anchor="middle" x="1194" y="-188.38" font-family="Helvetica,sans-Serif" font-size="10.00">rclcpp/rclcpp.hpp</text>
</a>
</g>
</g>
<!-- Node1&#45;&gt;Node21 -->
<g id="edge26_Node000001_Node000021" class="edge">
<title>Node1&#45;&gt;Node21</title>
<g id="a_edge26_Node000001_Node000021"><a xlink:title=" ">
<path fill="none" stroke="#63b8ff" d="M673.91,-255.31C770.42,-250.49 972.09,-237.52 1140,-207.5 1143.89,-206.8 1147.91,-205.97 1151.91,-205.06"/>
<polygon fill="#63b8ff" stroke="#63b8ff" points="1152.71,-208.47 1161.6,-202.69 1151.05,-201.67 1152.71,-208.47"/>
</a>
</g>
</g>
<!-- Node22 -->
<g id="Node000022" class="node">
<title>Node22</title>
<g id="a_Node000022"><a xlink:title=" ">
<polygon fill="#e0e0e0" stroke="#999999" points="1389.5,-201.88 1256.5,-201.88 1256.5,-182.62 1389.5,-182.62 1389.5,-201.88"/>
<text text-anchor="middle" x="1323" y="-188.38" font-family="Helvetica,sans-Serif" font-size="10.00">sensor_msgs/msg/imu.hpp</text>
</a>
</g>
</g>
<!-- Node1&#45;&gt;Node22 -->
<g id="edge27_Node000001_Node000022" class="edge">
<title>Node1&#45;&gt;Node22</title>
<g id="a_edge27_Node000001_Node000022"><a xlink:title=" ">
<path fill="none" stroke="#63b8ff" d="M674.21,-255.27C785.24,-250 1037.52,-235.79 1248,-207.5 1254.56,-206.62 1261.42,-205.54 1268.21,-204.37"/>
<polygon fill="#63b8ff" stroke="#63b8ff" points="1268.79,-207.82 1278.02,-202.61 1267.55,-200.93 1268.79,-207.82"/>
</a>
</g>
</g>
<!-- Node23 -->
<g id="Node000023" class="node">
<title>Node23</title>
<g id="a_Node000023"><a xlink:title=" ">
<polygon fill="#e0e0e0" stroke="#999999" points="1532.75,-201.88 1407.25,-201.88 1407.25,-182.62 1532.75,-182.62 1532.75,-201.88"/>
<text text-anchor="middle" x="1470" y="-188.38" font-family="Helvetica,sans-Serif" font-size="10.00">std_msgs/msg/string.hpp</text>
</a>
</g>
</g>
<!-- Node1&#45;&gt;Node23 -->
<g id="edge28_Node000001_Node000023" class="edge">
<title>Node1&#45;&gt;Node23</title>
<g id="a_edge28_Node000001_Node000023"><a xlink:title=" ">
<path fill="none" stroke="#63b8ff" d="M674.16,-256.7C803.69,-253.73 1129.25,-243.07 1399,-207.5 1405.39,-206.66 1412.06,-205.58 1418.66,-204.4"/>
<polygon fill="#63b8ff" stroke="#63b8ff" points="1418.94,-207.91 1428.12,-202.61 1417.64,-201.03 1418.94,-207.91"/>
</a>
</g>
</g>
<!-- Node12 -->
<g id="Node000012" class="node">
<title>Node12</title>
<g id="a_Node000012"><a xlink:title=" ">
<polygon fill="#e0e0e0" stroke="#999999" points="335.38,-74.5 264.62,-74.5 264.62,-55.25 335.38,-55.25 335.38,-74.5"/>
<text text-anchor="middle" x="300" y="-61" font-family="Helvetica,sans-Serif" font-size="10.00">Eigen/Dense</text>
</a>
</g>
</g>
<!-- Node11&#45;&gt;Node12 -->
<g id="edge11_Node000011_Node000012" class="edge">
<title>Node11&#45;&gt;Node12</title>
<g id="a_edge11_Node000011_Node000012"><a xlink:title=" ">
<path fill="none" stroke="#63b8ff" d="M379.03,-184.74C327.99,-177.24 256.05,-163.05 239,-141 230.71,-130.27 232.87,-122.59 239,-110.5 245.43,-97.83 257.33,-87.89 268.93,-80.65"/>
<polygon fill="#63b8ff" stroke="#63b8ff" points="270.63,-83.71 277.58,-75.72 267.16,-77.63 270.63,-83.71"/>
</a>
</g>
</g>
<!-- Node13 -->
<g id="Node000013" class="node">
<title>Node13</title>
<g id="a_Node000013"><a xlink:title=" ">
<polygon fill="#e0e0e0" stroke="#999999" points="555.5,-135.38 512.5,-135.38 512.5,-116.12 555.5,-116.12 555.5,-135.38"/>
<text text-anchor="middle" x="534" y="-121.88" font-family="Helvetica,sans-Serif" font-size="10.00">vector</text>
</a>
</g>
</g>
<!-- Node11&#45;&gt;Node13 -->
<g id="edge12_Node000011_Node000013" class="edge">
<title>Node11&#45;&gt;Node13</title>
<g id="a_edge12_Node000011_Node000013"><a xlink:title=" ">
<path fill="none" stroke="#63b8ff" d="M446.18,-182.28C462.68,-171.85 490.2,-154.45 510.03,-141.9"/>
<polygon fill="#63b8ff" stroke="#63b8ff" points="511.75,-144.96 518.33,-136.66 508.01,-139.05 511.75,-144.96"/>
</a>
</g>
</g>
<!-- Node14 -->
<g id="Node000014" class="node">
<title>Node14</title>
<g id="a_Node000014"><a xlink:href="motion__models_8hpp.html" target="_top" xlink:title=" ">
<polygon fill="white" stroke="#666666" points="351.5,-141 248.5,-141 248.5,-110.5 351.5,-110.5 351.5,-141"/>
<text text-anchor="start" x="256.5" y="-127.5" font-family="Helvetica,sans-Serif" font-size="10.00">kalman_filter/motion</text>
<text text-anchor="middle" x="300" y="-116.25" font-family="Helvetica,sans-Serif" font-size="10.00">_models.hpp</text>
</a>
</g>
</g>
<!-- Node11&#45;&gt;Node14 -->
<g id="edge13_Node000011_Node000014" class="edge">
<title>Node11&#45;&gt;Node14</title>
<g id="a_edge13_Node000011_Node000014"><a xlink:title=" ">
<path fill="none" stroke="#63b8ff" d="M413.37,-182.15C394.4,-172.88 364.41,-158.22 340.03,-146.31"/>
<polygon fill="#63b8ff" stroke="#63b8ff" points="341.86,-143.31 331.34,-142.06 338.79,-149.6 341.86,-143.31"/>
</a>
</g>
</g>
<!-- Node11&#45;&gt;Node15 -->
<g id="edge24_Node000011_Node000015" class="edge">
<title>Node11&#45;&gt;Node15</title>
<g id="a_edge24_Node000011_Node000015"><a xlink:title=" ">
<path fill="none" stroke="#63b8ff" d="M478.17,-182.14C526.33,-170.47 591.42,-147.23 565,-110.5 552.76,-93.49 533.73,-82.87 513.85,-76.27"/>
<polygon fill="#63b8ff" stroke="#63b8ff" points="515.12,-73 504.54,-73.52 513.13,-79.71 515.12,-73"/>
</a>
</g>
</g>
<!-- Node20 -->
<g id="Node000020" class="node">
<title>Node20</title>
<g id="a_Node000020"><a xlink:href="observation__models_8hpp.html" target="_top" xlink:title=" ">
<polygon fill="white" stroke="#666666" points="494,-141 370,-141 370,-110.5 494,-110.5 494,-141"/>
<text text-anchor="start" x="378" y="-127.5" font-family="Helvetica,sans-Serif" font-size="10.00">kalman_filter/observation</text>
<text text-anchor="middle" x="432" y="-116.25" font-family="Helvetica,sans-Serif" font-size="10.00">_models.hpp</text>
</a>
</g>
</g>
<!-- Node11&#45;&gt;Node20 -->
<g id="edge21_Node000011_Node000020" class="edge">
<title>Node11&#45;&gt;Node20</title>
<g id="a_edge21_Node000011_Node000020"><a xlink:title=" ">
<path fill="none" stroke="#63b8ff" d="M432,-182.28C432,-174.54 432,-162.95 432,-152.37"/>
<polygon fill="#63b8ff" stroke="#63b8ff" points="435.5,-152.61 432,-142.61 428.5,-152.61 435.5,-152.61"/>
</a>
</g>
</g>
<!-- Node14&#45;&gt;Node12 -->
<g id="edge14_Node000014_Node000012" class="edge">
<title>Node14&#45;&gt;Node12</title>
<g id="a_edge14_Node000014_Node000012"><a xlink:title=" ">
<path fill="none" stroke="#63b8ff" d="M300,-110.2C300,-102.96 300,-94.09 300,-86.19"/>
<polygon fill="#63b8ff" stroke="#63b8ff" points="303.5,-86.46 300,-76.46 296.5,-86.46 303.5,-86.46"/>
</a>
</g>
</g>
<!-- Node14&#45;&gt;Node15 -->
<g id="edge15_Node000014_Node000015" class="edge">
<title>Node14&#45;&gt;Node15</title>
<g id="a_edge15_Node000014_Node000015"><a xlink:title=" ">
<path fill="none" stroke="#63b8ff" d="M332.97,-110.05C353.94,-100.69 380.91,-88.66 401.4,-79.52"/>
<polygon fill="#63b8ff" stroke="#63b8ff" points="402.67,-82.79 410.37,-75.52 399.82,-76.4 402.67,-82.79"/>
</a>
</g>
</g>
<!-- Node15&#45;&gt;Node5 -->
<g id="edge18_Node000015_Node000005" class="edge">
<title>Node15&#45;&gt;Node5</title>
<g id="a_edge18_Node000015_Node000005"><a xlink:title=" ">
<path fill="none" stroke="#63b8ff" d="M393.92,-54.78C350.55,-44.43 280.52,-27.7 240.23,-18.08"/>
<polygon fill="#63b8ff" stroke="#63b8ff" points="241.24,-14.73 230.7,-15.81 239.61,-21.53 241.24,-14.73"/>
</a>
</g>
</g>
<!-- Node16 -->
<g id="Node000016" class="node">
<title>Node16</title>
<g id="a_Node000016"><a xlink:title=" ">
<polygon fill="#e0e0e0" stroke="#999999" points="425.62,-19.25 380.38,-19.25 380.38,0 425.62,0 425.62,-19.25"/>
<text text-anchor="middle" x="403" y="-5.75" font-family="Helvetica,sans-Serif" font-size="10.00">chrono</text>
</a>
</g>
</g>
<!-- Node15&#45;&gt;Node16 -->
<g id="edge16_Node000015_Node000016" class="edge">
<title>Node15&#45;&gt;Node16</title>
<g id="a_edge16_Node000015_Node000016"><a xlink:title=" ">
<path fill="none" stroke="#63b8ff" d="M427.21,-55.08C423.46,-48.19 418.09,-38.34 413.37,-29.66"/>
<polygon fill="#63b8ff" stroke="#63b8ff" points="416.47,-28.05 408.62,-20.94 410.33,-31.39 416.47,-28.05"/>
</a>
</g>
</g>
<!-- Node17 -->
<g id="Node000017" class="node">
<title>Node17</title>
<g id="a_Node000017"><a xlink:title=" ">
<polygon fill="#e0e0e0" stroke="#999999" points="478.38,-19.25 443.62,-19.25 443.62,0 478.38,0 478.38,-19.25"/>
<text text-anchor="middle" x="461" y="-5.75" font-family="Helvetica,sans-Serif" font-size="10.00">map</text>
</a>
</g>
</g>
<!-- Node15&#45;&gt;Node17 -->
<g id="edge17_Node000015_Node000017" class="edge">
<title>Node15&#45;&gt;Node17</title>
<g id="a_edge17_Node000015_Node000017"><a xlink:title=" ">
<path fill="none" stroke="#63b8ff" d="M436.79,-55.08C440.54,-48.19 445.91,-38.34 450.63,-29.66"/>
<polygon fill="#63b8ff" stroke="#63b8ff" points="453.67,-31.39 455.38,-20.94 447.53,-28.05 453.67,-31.39"/>
</a>
</g>
</g>
<!-- Node18 -->
<g id="Node000018" class="node">
<title>Node18</title>
<g id="a_Node000018"><a xlink:title=" ">
<polygon fill="#e0e0e0" stroke="#999999" points="572,-19.25 496,-19.25 496,0 572,0 572,-19.25"/>
<text text-anchor="middle" x="534" y="-5.75" font-family="Helvetica,sans-Serif" font-size="10.00">utils/color.hpp</text>
</a>
</g>
</g>
<!-- Node15&#45;&gt;Node18 -->
<g id="edge19_Node000015_Node000018" class="edge">
<title>Node15&#45;&gt;Node18</title>
<g id="a_edge19_Node000015_Node000018"><a xlink:title=" ">
<path fill="none" stroke="#63b8ff" d="M449.3,-54.84C464.98,-46.66 488.35,-34.46 506.58,-24.94"/>
<polygon fill="#63b8ff" stroke="#63b8ff" points="508.03,-28.13 515.27,-20.4 504.79,-21.93 508.03,-28.13"/>
</a>
</g>
</g>
<!-- Node19 -->
<g id="Node000019" class="node">
<title>Node19</title>
<g id="a_Node000019"><a xlink:title=" ">
<polygon fill="#e0e0e0" stroke="#999999" points="362.38,-19.25 273.62,-19.25 273.62,0 362.38,0 362.38,-19.25"/>
<text text-anchor="middle" x="318" y="-5.75" font-family="Helvetica,sans-Serif" font-size="10.00">utils/position.hpp</text>
</a>
</g>
</g>
<!-- Node15&#45;&gt;Node19 -->
<g id="edge20_Node000015_Node000019" class="edge">
<title>Node15&#45;&gt;Node19</title>
<g id="a_edge20_Node000015_Node000019"><a xlink:title=" ">
<path fill="none" stroke="#63b8ff" d="M412.66,-54.84C394.89,-46.54 368.28,-34.11 347.8,-24.54"/>
<polygon fill="#63b8ff" stroke="#63b8ff" points="349.35,-21.4 338.8,-20.34 346.38,-27.75 349.35,-21.4"/>
</a>
</g>
</g>
<!-- Node20&#45;&gt;Node12 -->
<g id="edge22_Node000020_Node000012" class="edge">
<title>Node20&#45;&gt;Node12</title>
<g id="a_edge22_Node000020_Node000012"><a xlink:title=" ">
<path fill="none" stroke="#63b8ff" d="M399.03,-110.05C378.06,-100.69 351.09,-88.66 330.6,-79.52"/>
<polygon fill="#63b8ff" stroke="#63b8ff" points="332.18,-76.4 321.63,-75.52 329.33,-82.79 332.18,-76.4"/>
</a>
</g>
</g>
<!-- Node20&#45;&gt;Node15 -->
<g id="edge23_Node000020_Node000015" class="edge">
<title>Node20&#45;&gt;Node15</title>
<g id="a_edge23_Node000020_Node000015"><a xlink:title=" ">
<path fill="none" stroke="#63b8ff" d="M432,-110.2C432,-102.96 432,-94.09 432,-86.19"/>
<polygon fill="#63b8ff" stroke="#63b8ff" points="435.5,-86.46 432,-76.46 428.5,-86.46 435.5,-86.46"/>
</a>
</g>
</g>
</g>
</svg>
