<?xml version="1.0" encoding="UTF-8" standalone="no"?>
<!DOCTYPE svg PUBLIC "-//W3C//DTD SVG 1.1//EN"
 "http://www.w3.org/Graphics/SVG/1.1/DTD/svg11.dtd">
<!-- Generated by graphviz version 9.0.0 (20230911.1827)
 -->
<!-- Title: src/loc_map/src/loc_map/lm_node.cpp Pages: 1 -->
<svg width="1541pt" height="337pt"
 viewBox="0.00 0.00 1540.75 337.25" xmlns="http://www.w3.org/2000/svg" xmlns:xlink="http://www.w3.org/1999/xlink">
<g id="graph0" class="graph" transform="scale(1 1) rotate(0) translate(4 333.25)">
<title>src/loc_map/src/loc_map/lm_node.cpp</title>
<!-- Node1 -->
<g id="Node000001" class="node">
<title>Node1</title>
<g id="a_Node000001"><a xlink:title=" ">
<polygon fill="#999999" stroke="#666666" points="842.75,-329.25 741.25,-329.25 741.25,-298.75 842.75,-298.75 842.75,-329.25"/>
<text text-anchor="start" x="749.25" y="-315.75" font-family="Helvetica,sans-Serif" font-size="10.00">src/loc_map/src/loc</text>
<text text-anchor="middle" x="792" y="-304.5" font-family="Helvetica,sans-Serif" font-size="10.00">_map/lm_node.cpp</text>
</a>
</g>
</g>
<!-- Node2 -->
<g id="Node000002" class="node">
<title>Node2</title>
<g id="a_Node000002"><a xlink:href="lm__node_8hpp.html" target="_top" xlink:title=" ">
<polygon fill="white" stroke="#666666" points="672.25,-262.75 561.75,-262.75 561.75,-243.5 672.25,-243.5 672.25,-262.75"/>
<text text-anchor="middle" x="617" y="-249.25" font-family="Helvetica,sans-Serif" font-size="10.00">loc_map/lm_node.hpp</text>
</a>
</g>
</g>
<!-- Node1&#45;&gt;Node2 -->
<g id="edge1_Node000001_Node000002" class="edge">
<title>Node1&#45;&gt;Node2</title>
<g id="a_edge1_Node000001_Node000002"><a xlink:title=" ">
<path fill="none" stroke="#63b8ff" d="M748.29,-298.3C719.55,-288.63 682.32,-276.1 654.85,-266.86"/>
<polygon fill="#63b8ff" stroke="#63b8ff" points="656.12,-263.59 645.53,-263.72 653.89,-270.23 656.12,-263.59"/>
</a>
</g>
</g>
<!-- Node25 -->
<g id="Node000025" class="node">
<title>Node25</title>
<g id="a_Node000025"><a xlink:title=" ">
<polygon fill="#e0e0e0" stroke="#999999" points="791.75,-262.75 690.25,-262.75 690.25,-243.5 791.75,-243.5 791.75,-262.75"/>
<text text-anchor="middle" x="741" y="-249.25" font-family="Helvetica,sans-Serif" font-size="10.00">adapter/adapter.hpp</text>
</a>
</g>
</g>
<!-- Node1&#45;&gt;Node25 -->
<g id="edge30_Node000001_Node000025" class="edge">
<title>Node1&#45;&gt;Node25</title>
<g id="a_edge30_Node000001_Node000025"><a xlink:title=" ">
<path fill="none" stroke="#63b8ff" d="M779.39,-298.45C772.37,-290.34 763.59,-280.2 756.19,-271.66"/>
<polygon fill="#63b8ff" stroke="#63b8ff" points="759.05,-269.61 749.85,-264.35 753.76,-274.2 759.05,-269.61"/>
</a>
</g>
</g>
<!-- Node26 -->
<g id="Node000026" class="node">
<title>Node26</title>
<g id="a_Node000026"><a xlink:href="car_8hpp.html" target="_top" xlink:title=" ">
<polygon fill="white" stroke="#666666" points="878.25,-262.75 809.75,-262.75 809.75,-243.5 878.25,-243.5 878.25,-262.75"/>
<text text-anchor="middle" x="844" y="-249.25" font-family="Helvetica,sans-Serif" font-size="10.00">utils/car.hpp</text>
</a>
</g>
</g>
<!-- Node1&#45;&gt;Node26 -->
<g id="edge31_Node000001_Node000026" class="edge">
<title>Node1&#45;&gt;Node26</title>
<g id="a_edge31_Node000001_Node000026"><a xlink:title=" ">
<path fill="none" stroke="#63b8ff" d="M804.85,-298.45C812.01,-290.34 820.97,-280.2 828.51,-271.66"/>
<polygon fill="#63b8ff" stroke="#63b8ff" points="830.99,-274.15 834.98,-264.34 825.74,-269.51 830.99,-274.15"/>
</a>
</g>
</g>
<!-- Node27 -->
<g id="Node000027" class="node">
<title>Node27</title>
<g id="a_Node000027"><a xlink:href="formulas_8hpp.html" target="_top" xlink:title=" ">
<polygon fill="white" stroke="#666666" points="989.25,-262.75 896.75,-262.75 896.75,-243.5 989.25,-243.5 989.25,-262.75"/>
<text text-anchor="middle" x="943" y="-249.25" font-family="Helvetica,sans-Serif" font-size="10.00">utils/formulas.hpp</text>
</a>
</g>
</g>
<!-- Node1&#45;&gt;Node27 -->
<g id="edge32_Node000001_Node000027" class="edge">
<title>Node1&#45;&gt;Node27</title>
<g id="a_edge32_Node000001_Node000027"><a xlink:title=" ">
<path fill="none" stroke="#63b8ff" d="M829.71,-298.3C854.15,-288.77 885.69,-276.47 909.29,-267.27"/>
<polygon fill="#63b8ff" stroke="#63b8ff" points="910.39,-270.6 918.43,-263.7 907.84,-264.08 910.39,-270.6"/>
</a>
</g>
</g>
<!-- Node3 -->
<g id="Node000003" class="node">
<title>Node3</title>
<g id="a_Node000003"><a xlink:title=" ">
<polygon fill="#e0e0e0" stroke="#999999" points="94,-201.88 0,-201.88 0,-182.62 94,-182.62 94,-201.88"/>
<text text-anchor="middle" x="47" y="-188.38" font-family="Helvetica,sans-Serif" font-size="10.00">gtest/gtest_prod.h</text>
</a>
</g>
</g>
<!-- Node2&#45;&gt;Node3 -->
<g id="edge2_Node000002_Node000003" class="edge">
<title>Node2&#45;&gt;Node3</title>
<g id="a_edge2_Node000002_Node000003"><a xlink:title=" ">
<path fill="none" stroke="#63b8ff" d="M561.48,-250.26C466.82,-246.43 268.36,-235.53 103,-207.5 98.85,-206.8 94.55,-205.94 90.27,-205"/>
<polygon fill="#63b8ff" stroke="#63b8ff" points="91.1,-201.6 80.56,-202.71 89.49,-208.41 91.1,-201.6"/>
</a>
</g>
</g>
<!-- Node4 -->
<g id="Node000004" class="node">
<title>Node4</title>
<g id="a_Node000004"><a xlink:title=" ">
<polygon fill="#e0e0e0" stroke="#999999" points="170,-201.88 112,-201.88 112,-182.62 170,-182.62 170,-201.88"/>
<text text-anchor="middle" x="141" y="-188.38" font-family="Helvetica,sans-Serif" font-size="10.00">functional</text>
</a>
</g>
</g>
<!-- Node2&#45;&gt;Node4 -->
<g id="edge3_Node000002_Node000004" class="edge">
<title>Node2&#45;&gt;Node4</title>
<g id="a_edge3_Node000002_Node000004"><a xlink:title=" ">
<path fill="none" stroke="#63b8ff" d="M561.28,-251.02C477.33,-248.33 313.89,-239.1 179,-207.5 177.11,-207.06 175.19,-206.55 173.27,-205.99"/>
<polygon fill="#63b8ff" stroke="#63b8ff" points="174.43,-202.68 163.84,-202.85 172.23,-209.33 174.43,-202.68"/>
</a>
</g>
</g>
<!-- Node5 -->
<g id="Node000005" class="node">
<title>Node5</title>
<g id="a_Node000005"><a xlink:title=" ">
<polygon fill="#e0e0e0" stroke="#999999" points="238.25,-201.88 187.75,-201.88 187.75,-182.62 238.25,-182.62 238.25,-201.88"/>
<text text-anchor="middle" x="213" y="-188.38" font-family="Helvetica,sans-Serif" font-size="10.00">memory</text>
</a>
</g>
</g>
<!-- Node2&#45;&gt;Node5 -->
<g id="edge4_Node000002_Node000005" class="edge">
<title>Node2&#45;&gt;Node5</title>
<g id="a_edge4_Node000002_Node000005"><a xlink:title=" ">
<path fill="none" stroke="#63b8ff" d="M561.26,-249.28C489.06,-244.69 359.69,-233.4 252,-207.5 249.98,-207.02 247.93,-206.46 245.87,-205.86"/>
<polygon fill="#63b8ff" stroke="#63b8ff" points="247.03,-202.55 236.44,-202.76 244.85,-209.2 247.03,-202.55"/>
</a>
</g>
</g>
<!-- Node6 -->
<g id="Node000006" class="node">
<title>Node6</title>
<g id="a_Node000006"><a xlink:title=" ">
<polygon fill="#e0e0e0" stroke="#999999" points="229,-19.25 189,-19.25 189,0 229,0 229,-19.25"/>
<text text-anchor="middle" x="209" y="-5.75" font-family="Helvetica,sans-Serif" font-size="10.00">string</text>
</a>
</g>
</g>
<!-- Node2&#45;&gt;Node6 -->
<g id="edge5_Node000002_Node000006" class="edge">
<title>Node2&#45;&gt;Node6</title>
<g id="a_edge5_Node000002_Node000006"><a xlink:title=" ">
<path fill="none" stroke="#63b8ff" d="M561.53,-246.36C510.79,-240.1 434.09,-228.11 370,-207.5 304.42,-186.41 271.33,-196.11 230,-141 205.66,-108.54 204.93,-58.65 206.81,-30.95"/>
<polygon fill="#63b8ff" stroke="#63b8ff" points="210.28,-31.39 207.68,-21.12 203.31,-30.77 210.28,-31.39"/>
</a>
</g>
</g>
<!-- Node7 -->
<g id="Node000007" class="node">
<title>Node7</title>
<g id="a_Node000007"><a xlink:title=" ">
<polygon fill="#e0e0e0" stroke="#999999" points="590.88,-201.88 541.12,-201.88 541.12,-182.62 590.88,-182.62 590.88,-201.88"/>
<text text-anchor="middle" x="566" y="-188.38" font-family="Helvetica,sans-Serif" font-size="10.00">typeinfo</text>
</a>
</g>
</g>
<!-- Node2&#45;&gt;Node7 -->
<g id="edge6_Node000002_Node000007" class="edge">
<title>Node2&#45;&gt;Node7</title>
<g id="a_edge6_Node000002_Node000007"><a xlink:title=" ">
<path fill="none" stroke="#63b8ff" d="M609.25,-243.18C601.84,-234.62 590.45,-221.48 581.22,-210.82"/>
<polygon fill="#63b8ff" stroke="#63b8ff" points="584,-208.69 574.81,-203.42 578.71,-213.27 584,-208.69"/>
</a>
</g>
</g>
<!-- Node8 -->
<g id="Node000008" class="node">
<title>Node8</title>
<g id="a_Node000008"><a xlink:title=" ">
<polygon fill="#e0e0e0" stroke="#999999" points="727,-207.5 609,-207.5 609,-177 727,-177 727,-207.5"/>
<text text-anchor="start" x="617" y="-194" font-family="Helvetica,sans-Serif" font-size="10.00">custom_interfaces/msg</text>
<text text-anchor="middle" x="668" y="-182.75" font-family="Helvetica,sans-Serif" font-size="10.00">/cone_array.hpp</text>
</a>
</g>
</g>
<!-- Node2&#45;&gt;Node8 -->
<g id="edge7_Node000002_Node000008" class="edge">
<title>Node2&#45;&gt;Node8</title>
<g id="a_edge7_Node000002_Node000008"><a xlink:title=" ">
<path fill="none" stroke="#63b8ff" d="M624.75,-243.18C630.91,-236.06 639.83,-225.77 647.96,-216.38"/>
<polygon fill="#63b8ff" stroke="#63b8ff" points="650.52,-218.78 654.42,-208.93 645.23,-214.19 650.52,-218.78"/>
</a>
</g>
</g>
<!-- Node9 -->
<g id="Node000009" class="node">
<title>Node9</title>
<g id="a_Node000009"><a xlink:title=" ">
<polygon fill="#e0e0e0" stroke="#999999" points="863,-207.5 745,-207.5 745,-177 863,-177 863,-207.5"/>
<text text-anchor="start" x="753" y="-194" font-family="Helvetica,sans-Serif" font-size="10.00">custom_interfaces/msg</text>
<text text-anchor="middle" x="804" y="-182.75" font-family="Helvetica,sans-Serif" font-size="10.00">/point2d.hpp</text>
</a>
</g>
</g>
<!-- Node2&#45;&gt;Node9 -->
<g id="edge8_Node000002_Node000009" class="edge">
<title>Node2&#45;&gt;Node9</title>
<g id="a_edge8_Node000002_Node000009"><a xlink:title=" ">
<path fill="none" stroke="#63b8ff" d="M645.81,-243.05C672.62,-234.61 713.35,-221.79 746.76,-211.27"/>
<polygon fill="#63b8ff" stroke="#63b8ff" points="747.4,-214.74 755.88,-208.4 745.29,-208.06 747.4,-214.74"/>
</a>
</g>
</g>
<!-- Node10 -->
<g id="Node000010" class="node">
<title>Node10</title>
<g id="a_Node000010"><a xlink:title=" ">
<polygon fill="#e0e0e0" stroke="#999999" points="999,-207.5 881,-207.5 881,-177 999,-177 999,-207.5"/>
<text text-anchor="start" x="889" y="-194" font-family="Helvetica,sans-Serif" font-size="10.00">custom_interfaces/msg</text>
<text text-anchor="middle" x="940" y="-182.75" font-family="Helvetica,sans-Serif" font-size="10.00">/pose.hpp</text>
</a>
</g>
</g>
<!-- Node2&#45;&gt;Node10 -->
<g id="edge9_Node000002_Node000010" class="edge">
<title>Node2&#45;&gt;Node10</title>
<g id="a_edge9_Node000002_Node000010"><a xlink:title=" ">
<path fill="none" stroke="#63b8ff" d="M671.81,-243.08C721.09,-234.82 795.74,-222.01 869.77,-207.89"/>
<polygon fill="#63b8ff" stroke="#63b8ff" points="870.04,-211.41 879.2,-206.09 868.72,-204.53 870.04,-211.41"/>
</a>
</g>
</g>
<!-- Node11 -->
<g id="Node000011" class="node">
<title>Node11</title>
<g id="a_Node000011"><a xlink:title=" ">
<polygon fill="#e0e0e0" stroke="#999999" points="1131.12,-207.5 1016.88,-207.5 1016.88,-177 1131.12,-177 1131.12,-207.5"/>
<text text-anchor="start" x="1024.88" y="-194" font-family="Helvetica,sans-Serif" font-size="10.00">eufs_msgs/msg/wheel</text>
<text text-anchor="middle" x="1074" y="-182.75" font-family="Helvetica,sans-Serif" font-size="10.00">_speeds_stamped.hpp</text>
</a>
</g>
</g>
<!-- Node2&#45;&gt;Node11 -->
<g id="edge10_Node000002_Node000011" class="edge">
<title>Node2&#45;&gt;Node11</title>
<g id="a_edge10_Node000002_Node000011"><a xlink:title=" ">
<path fill="none" stroke="#63b8ff" d="M672.49,-244.56C675.37,-244.2 678.22,-243.84 681,-243.5 822.58,-226.17 861.79,-230.72 1005.49,-207.81"/>
<polygon fill="#63b8ff" stroke="#63b8ff" points="1005.66,-211.32 1014.98,-206.28 1004.55,-204.41 1005.66,-211.32"/>
</a>
</g>
</g>
<!-- Node12 -->
<g id="Node000012" class="node">
<title>Node12</title>
<g id="a_Node000012"><a xlink:href="ekf_8hpp.html" target="_top" xlink:title=" ">
<polygon fill="white" stroke="#666666" points="484.62,-201.88 379.38,-201.88 379.38,-182.62 484.62,-182.62 484.62,-201.88"/>
<text text-anchor="middle" x="432" y="-188.38" font-family="Helvetica,sans-Serif" font-size="10.00">kalman_filter/ekf.hpp</text>
</a>
</g>
</g>
<!-- Node2&#45;&gt;Node12 -->
<g id="edge11_Node000002_Node000012" class="edge">
<title>Node2&#45;&gt;Node12</title>
<g id="a_edge11_Node000002_Node000012"><a xlink:title=" ">
<path fill="none" stroke="#63b8ff" d="M588.5,-243.05C557.13,-233.07 506.5,-216.96 471.35,-205.77"/>
<polygon fill="#63b8ff" stroke="#63b8ff" points="472.57,-202.49 461.98,-202.79 470.44,-209.16 472.57,-202.49"/>
</a>
</g>
</g>
<!-- Node16 -->
<g id="Node000016" class="node">
<title>Node16</title>
<g id="a_Node000016"><a xlink:href="data__structures_8hpp.html" target="_top" xlink:title=" ">
<polygon fill="white" stroke="#666666" points="502.62,-74.5 361.38,-74.5 361.38,-55.25 502.62,-55.25 502.62,-74.5"/>
<text text-anchor="middle" x="432" y="-61" font-family="Helvetica,sans-Serif" font-size="10.00">loc_map/data_structures.hpp</text>
</a>
</g>
</g>
<!-- Node2&#45;&gt;Node16 -->
<g id="edge26_Node000002_Node000016" class="edge">
<title>Node2&#45;&gt;Node16</title>
<g id="a_edge26_Node000002_Node000016"><a xlink:title=" ">
<path fill="none" stroke="#63b8ff" d="M581.47,-243.03C563.3,-236.39 542.78,-225.33 532,-207.5 524.99,-195.9 525.82,-189.06 532,-177 544.48,-152.63 569.52,-165.37 582,-141 588.18,-128.94 590.1,-121.37 582,-110.5 565.94,-88.97 539.91,-77.41 514.01,-71.33"/>
<polygon fill="#63b8ff" stroke="#63b8ff" points="514.92,-67.95 504.42,-69.36 513.51,-74.81 514.92,-67.95"/>
</a>
</g>
</g>
<!-- Node22 -->
<g id="Node000022" class="node">
<title>Node22</title>
<g id="a_Node000022"><a xlink:title=" ">
<polygon fill="#e0e0e0" stroke="#999999" points="1238.75,-201.88 1149.25,-201.88 1149.25,-182.62 1238.75,-182.62 1238.75,-201.88"/>
<text text-anchor="middle" x="1194" y="-188.38" font-family="Helvetica,sans-Serif" font-size="10.00">rclcpp/rclcpp.hpp</text>
</a>
</g>
</g>
<!-- Node2&#45;&gt;Node22 -->
<g id="edge27_Node000002_Node000022" class="edge">
<title>Node2&#45;&gt;Node22</title>
<g id="a_edge27_Node000002_Node000022"><a xlink:title=" ">
<path fill="none" stroke="#63b8ff" d="M672.48,-244.46C675.36,-244.12 678.21,-243.8 681,-243.5 884.48,-221.83 938.26,-241.74 1140,-207.5 1144.06,-206.81 1148.26,-205.96 1152.45,-205.01"/>
<polygon fill="#63b8ff" stroke="#63b8ff" points="1153.01,-208.48 1161.9,-202.71 1151.35,-201.68 1153.01,-208.48"/>
</a>
</g>
</g>
<!-- Node23 -->
<g id="Node000023" class="node">
<title>Node23</title>
<g id="a_Node000023"><a xlink:title=" ">
<polygon fill="#e0e0e0" stroke="#999999" points="1389.5,-201.88 1256.5,-201.88 1256.5,-182.62 1389.5,-182.62 1389.5,-201.88"/>
<text text-anchor="middle" x="1323" y="-188.38" font-family="Helvetica,sans-Serif" font-size="10.00">sensor_msgs/msg/imu.hpp</text>
</a>
</g>
</g>
<!-- Node2&#45;&gt;Node23 -->
<g id="edge28_Node000002_Node000023" class="edge">
<title>Node2&#45;&gt;Node23</title>
<g id="a_edge28_Node000002_Node000023"><a xlink:title=" ">
<path fill="none" stroke="#63b8ff" d="M672.47,-244.41C675.36,-244.08 678.21,-243.78 681,-243.5 932.28,-218.62 997.48,-239.13 1248,-207.5 1254.82,-206.64 1261.96,-205.54 1269,-204.34"/>
<polygon fill="#63b8ff" stroke="#63b8ff" points="1269.6,-207.79 1278.82,-202.58 1268.36,-200.9 1269.6,-207.79"/>
</a>
</g>
</g>
<!-- Node24 -->
<g id="Node000024" class="node">
<title>Node24</title>
<g id="a_Node000024"><a xlink:title=" ">
<polygon fill="#e0e0e0" stroke="#999999" points="1532.75,-201.88 1407.25,-201.88 1407.25,-182.62 1532.75,-182.62 1532.75,-201.88"/>
<text text-anchor="middle" x="1470" y="-188.38" font-family="Helvetica,sans-Serif" font-size="10.00">std_msgs/msg/string.hpp</text>
</a>
</g>
</g>
<!-- Node2&#45;&gt;Node24 -->
<g id="edge29_Node000002_Node000024" class="edge">
<title>Node2&#45;&gt;Node24</title>
<g id="a_edge29_Node000002_Node000024"><a xlink:title=" ">
<path fill="none" stroke="#63b8ff" d="M672.47,-244.36C675.35,-244.05 678.21,-243.76 681,-243.5 999.16,-214.14 1081.94,-247.04 1399,-207.5 1405.47,-206.69 1412.24,-205.63 1418.91,-204.44"/>
<polygon fill="#63b8ff" stroke="#63b8ff" points="1419.33,-207.93 1428.51,-202.64 1418.03,-201.05 1419.33,-207.93"/>
</a>
</g>
</g>
<!-- Node13 -->
<g id="Node000013" class="node">
<title>Node13</title>
<g id="a_Node000013"><a xlink:title=" ">
<polygon fill="#e0e0e0" stroke="#999999" points="335.38,-74.5 264.62,-74.5 264.62,-55.25 335.38,-55.25 335.38,-74.5"/>
<text text-anchor="middle" x="300" y="-61" font-family="Helvetica,sans-Serif" font-size="10.00">Eigen/Dense</text>
</a>
</g>
</g>
<!-- Node12&#45;&gt;Node13 -->
<g id="edge12_Node000012_Node000013" class="edge">
<title>Node12&#45;&gt;Node13</title>
<g id="a_edge12_Node000012_Node000013"><a xlink:title=" ">
<path fill="none" stroke="#63b8ff" d="M379.03,-184.74C327.99,-177.24 256.05,-163.05 239,-141 230.71,-130.27 232.87,-122.59 239,-110.5 245.43,-97.83 257.33,-87.89 268.93,-80.65"/>
<polygon fill="#63b8ff" stroke="#63b8ff" points="270.63,-83.71 277.58,-75.72 267.16,-77.63 270.63,-83.71"/>
</a>
</g>
</g>
<!-- Node14 -->
<g id="Node000014" class="node">
<title>Node14</title>
<g id="a_Node000014"><a xlink:title=" ">
<polygon fill="#e0e0e0" stroke="#999999" points="555.5,-135.38 512.5,-135.38 512.5,-116.12 555.5,-116.12 555.5,-135.38"/>
<text text-anchor="middle" x="534" y="-121.88" font-family="Helvetica,sans-Serif" font-size="10.00">vector</text>
</a>
</g>
</g>
<!-- Node12&#45;&gt;Node14 -->
<g id="edge13_Node000012_Node000014" class="edge">
<title>Node12&#45;&gt;Node14</title>
<g id="a_edge13_Node000012_Node000014"><a xlink:title=" ">
<path fill="none" stroke="#63b8ff" d="M446.18,-182.28C462.68,-171.85 490.2,-154.45 510.03,-141.9"/>
<polygon fill="#63b8ff" stroke="#63b8ff" points="511.75,-144.96 518.33,-136.66 508.01,-139.05 511.75,-144.96"/>
</a>
</g>
</g>
<!-- Node15 -->
<g id="Node000015" class="node">
<title>Node15</title>
<g id="a_Node000015"><a xlink:href="motion__models_8hpp.html" target="_top" xlink:title=" ">
<polygon fill="white" stroke="#666666" points="351.5,-141 248.5,-141 248.5,-110.5 351.5,-110.5 351.5,-141"/>
<text text-anchor="start" x="256.5" y="-127.5" font-family="Helvetica,sans-Serif" font-size="10.00">kalman_filter/motion</text>
<text text-anchor="middle" x="300" y="-116.25" font-family="Helvetica,sans-Serif" font-size="10.00">_models.hpp</text>
</a>
</g>
</g>
<!-- Node12&#45;&gt;Node15 -->
<g id="edge14_Node000012_Node000015" class="edge">
<title>Node12&#45;&gt;Node15</title>
<g id="a_edge14_Node000012_Node000015"><a xlink:title=" ">
<path fill="none" stroke="#63b8ff" d="M413.37,-182.15C394.4,-172.88 364.41,-158.22 340.03,-146.31"/>
<polygon fill="#63b8ff" stroke="#63b8ff" points="341.86,-143.31 331.34,-142.06 338.79,-149.6 341.86,-143.31"/>
</a>
</g>
</g>
<!-- Node12&#45;&gt;Node16 -->
<g id="edge25_Node000012_Node000016" class="edge">
<title>Node12&#45;&gt;Node16</title>
<g id="a_edge25_Node000012_Node000016"><a xlink:title=" ">
<path fill="none" stroke="#63b8ff" d="M478.17,-182.14C526.33,-170.47 591.42,-147.23 565,-110.5 552.76,-93.49 533.73,-82.87 513.85,-76.27"/>
<polygon fill="#63b8ff" stroke="#63b8ff" points="515.12,-73 504.54,-73.52 513.13,-79.71 515.12,-73"/>
</a>
</g>
</g>
<!-- Node21 -->
<g id="Node000021" class="node">
<title>Node21</title>
<g id="a_Node000021"><a xlink:href="observation__models_8hpp.html" target="_top" xlink:title=" ">
<polygon fill="white" stroke="#666666" points="494,-141 370,-141 370,-110.5 494,-110.5 494,-141"/>
<text text-anchor="start" x="378" y="-127.5" font-family="Helvetica,sans-Serif" font-size="10.00">kalman_filter/observation</text>
<text text-anchor="middle" x="432" y="-116.25" font-family="Helvetica,sans-Serif" font-size="10.00">_models.hpp</text>
</a>
</g>
</g>
<!-- Node12&#45;&gt;Node21 -->
<g id="edge22_Node000012_Node000021" class="edge">
<title>Node12&#45;&gt;Node21</title>
<g id="a_edge22_Node000012_Node000021"><a xlink:title=" ">
<path fill="none" stroke="#63b8ff" d="M432,-182.28C432,-174.54 432,-162.95 432,-152.37"/>
<polygon fill="#63b8ff" stroke="#63b8ff" points="435.5,-152.61 432,-142.61 428.5,-152.61 435.5,-152.61"/>
</a>
</g>
</g>
<!-- Node15&#45;&gt;Node13 -->
<g id="edge15_Node000015_Node000013" class="edge">
<title>Node15&#45;&gt;Node13</title>
<g id="a_edge15_Node000015_Node000013"><a xlink:title=" ">
<path fill="none" stroke="#63b8ff" d="M300,-110.2C300,-102.96 300,-94.09 300,-86.19"/>
<polygon fill="#63b8ff" stroke="#63b8ff" points="303.5,-86.46 300,-76.46 296.5,-86.46 303.5,-86.46"/>
</a>
</g>
</g>
<!-- Node15&#45;&gt;Node16 -->
<g id="edge16_Node000015_Node000016" class="edge">
<title>Node15&#45;&gt;Node16</title>
<g id="a_edge16_Node000015_Node000016"><a xlink:title=" ">
<path fill="none" stroke="#63b8ff" d="M332.97,-110.05C353.94,-100.69 380.91,-88.66 401.4,-79.52"/>
<polygon fill="#63b8ff" stroke="#63b8ff" points="402.67,-82.79 410.37,-75.52 399.82,-76.4 402.67,-82.79"/>
</a>
</g>
</g>
<!-- Node16&#45;&gt;Node6 -->
<g id="edge19_Node000016_Node000006" class="edge">
<title>Node16&#45;&gt;Node6</title>
<g id="a_edge19_Node000016_Node000006"><a xlink:title=" ">
<path fill="none" stroke="#63b8ff" d="M393.92,-54.78C350.55,-44.43 280.52,-27.7 240.23,-18.08"/>
<polygon fill="#63b8ff" stroke="#63b8ff" points="241.24,-14.73 230.7,-15.81 239.61,-21.53 241.24,-14.73"/>
</a>
</g>
</g>
<!-- Node17 -->
<g id="Node000017" class="node">
<title>Node17</title>
<g id="a_Node000017"><a xlink:title=" ">
<polygon fill="#e0e0e0" stroke="#999999" points="425.62,-19.25 380.38,-19.25 380.38,0 425.62,0 425.62,-19.25"/>
<text text-anchor="middle" x="403" y="-5.75" font-family="Helvetica,sans-Serif" font-size="10.00">chrono</text>
</a>
</g>
</g>
<!-- Node16&#45;&gt;Node17 -->
<g id="edge17_Node000016_Node000017" class="edge">
<title>Node16&#45;&gt;Node17</title>
<g id="a_edge17_Node000016_Node000017"><a xlink:title=" ">
<path fill="none" stroke="#63b8ff" d="M427.21,-55.08C423.46,-48.19 418.09,-38.34 413.37,-29.66"/>
<polygon fill="#63b8ff" stroke="#63b8ff" points="416.47,-28.05 408.62,-20.94 410.33,-31.39 416.47,-28.05"/>
</a>
</g>
</g>
<!-- Node18 -->
<g id="Node000018" class="node">
<title>Node18</title>
<g id="a_Node000018"><a xlink:title=" ">
<polygon fill="#e0e0e0" stroke="#999999" points="478.38,-19.25 443.62,-19.25 443.62,0 478.38,0 478.38,-19.25"/>
<text text-anchor="middle" x="461" y="-5.75" font-family="Helvetica,sans-Serif" font-size="10.00">map</text>
</a>
</g>
</g>
<!-- Node16&#45;&gt;Node18 -->
<g id="edge18_Node000016_Node000018" class="edge">
<title>Node16&#45;&gt;Node18</title>
<g id="a_edge18_Node000016_Node000018"><a xlink:title=" ">
<path fill="none" stroke="#63b8ff" d="M436.79,-55.08C440.54,-48.19 445.91,-38.34 450.63,-29.66"/>
<polygon fill="#63b8ff" stroke="#63b8ff" points="453.67,-31.39 455.38,-20.94 447.53,-28.05 453.67,-31.39"/>
</a>
</g>
</g>
<!-- Node19 -->
<g id="Node000019" class="node">
<title>Node19</title>
<g id="a_Node000019"><a xlink:title=" ">
<polygon fill="#e0e0e0" stroke="#999999" points="572,-19.25 496,-19.25 496,0 572,0 572,-19.25"/>
<text text-anchor="middle" x="534" y="-5.75" font-family="Helvetica,sans-Serif" font-size="10.00">utils/color.hpp</text>
</a>
</g>
</g>
<!-- Node16&#45;&gt;Node19 -->
<g id="edge20_Node000016_Node000019" class="edge">
<title>Node16&#45;&gt;Node19</title>
<g id="a_edge20_Node000016_Node000019"><a xlink:title=" ">
<path fill="none" stroke="#63b8ff" d="M449.3,-54.84C464.98,-46.66 488.35,-34.46 506.58,-24.94"/>
<polygon fill="#63b8ff" stroke="#63b8ff" points="508.03,-28.13 515.27,-20.4 504.79,-21.93 508.03,-28.13"/>
</a>
</g>
</g>
<!-- Node20 -->
<g id="Node000020" class="node">
<title>Node20</title>
<g id="a_Node000020"><a xlink:title=" ">
<polygon fill="#e0e0e0" stroke="#999999" points="362.38,-19.25 273.62,-19.25 273.62,0 362.38,0 362.38,-19.25"/>
<text text-anchor="middle" x="318" y="-5.75" font-family="Helvetica,sans-Serif" font-size="10.00">utils/position.hpp</text>
</a>
</g>
</g>
<!-- Node16&#45;&gt;Node20 -->
<g id="edge21_Node000016_Node000020" class="edge">
<title>Node16&#45;&gt;Node20</title>
<g id="a_edge21_Node000016_Node000020"><a xlink:title=" ">
<path fill="none" stroke="#63b8ff" d="M412.66,-54.84C394.89,-46.54 368.28,-34.11 347.8,-24.54"/>
<polygon fill="#63b8ff" stroke="#63b8ff" points="349.35,-21.4 338.8,-20.34 346.38,-27.75 349.35,-21.4"/>
</a>
</g>
</g>
<!-- Node21&#45;&gt;Node13 -->
<g id="edge23_Node000021_Node000013" class="edge">
<title>Node21&#45;&gt;Node13</title>
<g id="a_edge23_Node000021_Node000013"><a xlink:title=" ">
<path fill="none" stroke="#63b8ff" d="M399.03,-110.05C378.06,-100.69 351.09,-88.66 330.6,-79.52"/>
<polygon fill="#63b8ff" stroke="#63b8ff" points="332.18,-76.4 321.63,-75.52 329.33,-82.79 332.18,-76.4"/>
</a>
</g>
</g>
<!-- Node21&#45;&gt;Node16 -->
<g id="edge24_Node000021_Node000016" class="edge">
<title>Node21&#45;&gt;Node16</title>
<g id="a_edge24_Node000021_Node000016"><a xlink:title=" ">
<path fill="none" stroke="#63b8ff" d="M432,-110.2C432,-102.96 432,-94.09 432,-86.19"/>
<polygon fill="#63b8ff" stroke="#63b8ff" points="435.5,-86.46 432,-76.46 428.5,-86.46 435.5,-86.46"/>
</a>
</g>
</g>
</g>
</svg>
