<?xml version="1.0" encoding="UTF-8" standalone="no"?>
<!DOCTYPE svg PUBLIC "-//W3C//DTD SVG 1.1//EN"
 "http://www.w3.org/Graphics/SVG/1.1/DTD/svg11.dtd">
<!-- Generated by graphviz version 9.0.0 (20230911.1827)
 -->
<!-- Title: src/loc_map/include/adapter/adapter.hpp Pages: 1 -->
<svg width="2226pt" height="349pt"
 viewBox="0.00 0.00 2226.00 348.50" xmlns="http://www.w3.org/2000/svg" xmlns:xlink="http://www.w3.org/1999/xlink">
<g id="graph0" class="graph" transform="scale(1 1) rotate(0) translate(4 344.5)">
<title>src/loc_map/include/adapter/adapter.hpp</title>
<!-- Node1 -->
<g id="Node000001" class="node">
<title>Node1</title>
<g id="a_Node000001"><a xlink:title=" ">
<polygon fill="#999999" stroke="#666666" points="1499.25,-340.5 1394.75,-340.5 1394.75,-310 1499.25,-310 1499.25,-340.5"/>
<text text-anchor="start" x="1402.75" y="-327" font-family="Helvetica,sans-Serif" font-size="10.00">src/loc_map/include</text>
<text text-anchor="middle" x="1447" y="-315.75" font-family="Helvetica,sans-Serif" font-size="10.00">/adapter/adapter.hpp</text>
</a>
</g>
</g>
<!-- Node2 -->
<g id="Node000002" class="node">
<title>Node2</title>
<g id="a_Node000002"><a xlink:title=" ">
<polygon fill="#e0e0e0" stroke="#999999" points="266,-19.25 226,-19.25 226,0 266,0 266,-19.25"/>
<text text-anchor="middle" x="246" y="-5.75" font-family="Helvetica,sans-Serif" font-size="10.00">string</text>
</a>
</g>
</g>
<!-- Node1&#45;&gt;Node2 -->
<g id="edge1_Node000001_Node000002" class="edge">
<title>Node1&#45;&gt;Node2</title>
<g id="a_edge1_Node000001_Node000002"><a xlink:title=" ">
<path fill="none" stroke="#63b8ff" d="M1394.49,-324.11C1240.39,-323.2 776.18,-316.83 394,-274 216.36,-254.09 0,-372 0,-193.25 0,-193.25 0,-193.25 0,-124.75 0,-31.23 148.11,-14.13 214.48,-11.16"/>
<polygon fill="#63b8ff" stroke="#63b8ff" points="214.49,-14.66 224.36,-10.81 214.24,-7.67 214.49,-14.66"/>
</a>
</g>
</g>
<!-- Node3 -->
<g id="Node000003" class="node">
<title>Node3</title>
<g id="a_Node000003"><a xlink:title=" ">
<polygon fill="#e0e0e0" stroke="#999999" points="1624.75,-268.38 1475.25,-268.38 1475.25,-249.12 1624.75,-249.12 1624.75,-268.38"/>
<text text-anchor="middle" x="1550" y="-254.88" font-family="Helvetica,sans-Serif" font-size="10.00">eufs_msgs/msg/can_state.hpp</text>
</a>
</g>
</g>
<!-- Node1&#45;&gt;Node3 -->
<g id="edge2_Node000001_Node000003" class="edge">
<title>Node1&#45;&gt;Node3</title>
<g id="a_edge2_Node000001_Node000003"><a xlink:title=" ">
<path fill="none" stroke="#63b8ff" d="M1470.37,-309.61C1486.99,-299.21 1509.23,-285.28 1525.99,-274.79"/>
<polygon fill="#63b8ff" stroke="#63b8ff" points="1527.71,-277.84 1534.33,-269.56 1524,-271.9 1527.71,-277.84"/>
</a>
</g>
</g>
<!-- Node4 -->
<g id="Node000004" class="node">
<title>Node4</title>
<g id="a_Node000004"><a xlink:title=" ">
<polygon fill="#e0e0e0" stroke="#999999" points="142.12,-207.5 27.87,-207.5 27.87,-177 142.12,-177 142.12,-207.5"/>
<text text-anchor="start" x="35.88" y="-194" font-family="Helvetica,sans-Serif" font-size="10.00">eufs_msgs/msg/wheel</text>
<text text-anchor="middle" x="85" y="-182.75" font-family="Helvetica,sans-Serif" font-size="10.00">_speeds_stamped.hpp</text>
</a>
</g>
</g>
<!-- Node1&#45;&gt;Node4 -->
<g id="edge3_Node000001_Node000004" class="edge">
<title>Node1&#45;&gt;Node4</title>
<g id="a_edge3_Node000001_Node000004"><a xlink:title=" ">
<path fill="none" stroke="#63b8ff" d="M1394.45,-322.51C1219.13,-316.06 638.38,-289.65 153.61,-207.86"/>
<polygon fill="#63b8ff" stroke="#63b8ff" points="154.47,-204.46 144.03,-206.23 153.3,-211.36 154.47,-204.46"/>
</a>
</g>
</g>
<!-- Node5 -->
<g id="Node000005" class="node">
<title>Node5</title>
<g id="a_Node000005"><a xlink:title=" ">
<polygon fill="#e0e0e0" stroke="#999999" points="1761,-274 1643,-274 1643,-243.5 1761,-243.5 1761,-274"/>
<text text-anchor="start" x="1651" y="-260.5" font-family="Helvetica,sans-Serif" font-size="10.00">eufs_msgs/srv/set_can</text>
<text text-anchor="middle" x="1702" y="-249.25" font-family="Helvetica,sans-Serif" font-size="10.00">_state.hpp</text>
</a>
</g>
</g>
<!-- Node1&#45;&gt;Node5 -->
<g id="edge4_Node000001_Node000005" class="edge">
<title>Node1&#45;&gt;Node5</title>
<g id="a_edge4_Node000001_Node000005"><a xlink:title=" ">
<path fill="none" stroke="#63b8ff" d="M1499.53,-310.96C1538.07,-301.21 1590.8,-287.88 1632.78,-277.26"/>
<polygon fill="#63b8ff" stroke="#63b8ff" points="1633.45,-280.7 1642.29,-274.85 1631.74,-273.91 1633.45,-280.7"/>
</a>
</g>
</g>
<!-- Node6 -->
<g id="Node000006" class="node">
<title>Node6</title>
<g id="a_Node000006"><a xlink:title=" ">
<polygon fill="#e0e0e0" stroke="#999999" points="1890.62,-274 1779.38,-274 1779.38,-243.5 1890.62,-243.5 1890.62,-274"/>
<text text-anchor="start" x="1787.38" y="-260.5" font-family="Helvetica,sans-Serif" font-size="10.00">fs_msgs/msg/finished</text>
<text text-anchor="middle" x="1835" y="-249.25" font-family="Helvetica,sans-Serif" font-size="10.00">_signal.hpp</text>
</a>
</g>
</g>
<!-- Node1&#45;&gt;Node6 -->
<g id="edge5_Node000001_Node000006" class="edge">
<title>Node1&#45;&gt;Node6</title>
<g id="a_edge5_Node000001_Node000006"><a xlink:title=" ">
<path fill="none" stroke="#63b8ff" d="M1499.48,-317.1C1561.21,-308.46 1667.04,-292.95 1767.73,-274.35"/>
<polygon fill="#63b8ff" stroke="#63b8ff" points="1768.35,-277.8 1777.54,-272.53 1767.06,-270.92 1768.35,-277.8"/>
</a>
</g>
</g>
<!-- Node7 -->
<g id="Node000007" class="node">
<title>Node7</title>
<g id="a_Node000007"><a xlink:title=" ">
<polygon fill="#e0e0e0" stroke="#999999" points="2045.75,-268.38 1908.25,-268.38 1908.25,-249.12 2045.75,-249.12 2045.75,-268.38"/>
<text text-anchor="middle" x="1977" y="-254.88" font-family="Helvetica,sans-Serif" font-size="10.00">fs_msgs/msg/go_signal.hpp</text>
</a>
</g>
</g>
<!-- Node1&#45;&gt;Node7 -->
<g id="edge6_Node000001_Node000007" class="edge">
<title>Node1&#45;&gt;Node7</title>
<g id="a_edge6_Node000001_Node000007"><a xlink:title=" ">
<path fill="none" stroke="#63b8ff" d="M1499.47,-319.68C1584.03,-312.02 1755.58,-295.35 1900,-274 1906.46,-273.04 1913.21,-271.95 1919.91,-270.79"/>
<polygon fill="#63b8ff" stroke="#63b8ff" points="1920.36,-274.27 1929.59,-269.08 1919.13,-267.38 1920.36,-274.27"/>
</a>
</g>
</g>
<!-- Node8 -->
<g id="Node000008" class="node">
<title>Node8</title>
<g id="a_Node000008"><a xlink:title=" ">
<polygon fill="#e0e0e0" stroke="#999999" points="2218,-268.38 2064,-268.38 2064,-249.12 2218,-249.12 2218,-268.38"/>
<text text-anchor="middle" x="2141" y="-254.88" font-family="Helvetica,sans-Serif" font-size="10.00">fs_msgs/msg/wheel_states.hpp</text>
</a>
</g>
</g>
<!-- Node1&#45;&gt;Node8 -->
<g id="edge7_Node000001_Node000008" class="edge">
<title>Node1&#45;&gt;Node8</title>
<g id="a_edge7_Node000001_Node000008"><a xlink:title=" ">
<path fill="none" stroke="#63b8ff" d="M1499.6,-321.35C1605.18,-315.22 1850.3,-299.38 2055,-274 2062.95,-273.01 2071.29,-271.83 2079.52,-270.56"/>
<polygon fill="#63b8ff" stroke="#63b8ff" points="2079.8,-274.06 2089.13,-269.04 2078.7,-267.15 2079.8,-274.06"/>
</a>
</g>
</g>
<!-- Node9 -->
<g id="Node000009" class="node">
<title>Node9</title>
<g id="a_Node000009"><a xlink:href="data__structures_8hpp.html" target="_top" xlink:title=" ">
<polygon fill="white" stroke="#666666" points="1051.62,-74.5 910.38,-74.5 910.38,-55.25 1051.62,-55.25 1051.62,-74.5"/>
<text text-anchor="middle" x="981" y="-61" font-family="Helvetica,sans-Serif" font-size="10.00">loc_map/data_structures.hpp</text>
</a>
</g>
</g>
<!-- Node1&#45;&gt;Node9 -->
<g id="edge8_Node000001_Node000009" class="edge">
<title>Node1&#45;&gt;Node9</title>
<g id="a_edge8_Node000001_Node000009"><a xlink:title=" ">
<path fill="none" stroke="#63b8ff" d="M1449.28,-309.63C1452.12,-293.19 1457.61,-265.89 1466,-243.5 1472.35,-226.56 1480.65,-225.06 1485,-207.5 1488.26,-194.34 1493.49,-187.57 1485,-177 1433.04,-112.34 1192.58,-83.08 1063.48,-71.84"/>
<polygon fill="#63b8ff" stroke="#63b8ff" points="1063.87,-68.36 1053.61,-71 1063.28,-75.33 1063.87,-68.36"/>
</a>
</g>
</g>
<!-- Node14 -->
<g id="Node000014" class="node">
<title>Node14</title>
<g id="a_Node000014"><a xlink:href="lm__node_8hpp.html" target="_top" xlink:title=" ">
<polygon fill="white" stroke="#666666" points="796.25,-268.38 685.75,-268.38 685.75,-249.12 796.25,-249.12 796.25,-268.38"/>
<text text-anchor="middle" x="741" y="-254.88" font-family="Helvetica,sans-Serif" font-size="10.00">loc_map/lm_node.hpp</text>
</a>
</g>
</g>
<!-- Node1&#45;&gt;Node14 -->
<g id="edge14_Node000001_Node000014" class="edge">
<title>Node1&#45;&gt;Node14</title>
<g id="a_edge14_Node000001_Node000014"><a xlink:title=" ">
<path fill="none" stroke="#63b8ff" d="M1394.51,-319.45C1268.16,-307.91 947.23,-278.59 807.6,-265.83"/>
<polygon fill="#63b8ff" stroke="#63b8ff" points="808.04,-262.36 797.77,-264.94 807.41,-269.33 808.04,-262.36"/>
</a>
</g>
</g>
<!-- Node27 -->
<g id="Node000027" class="node">
<title>Node27</title>
<g id="a_Node000027"><a xlink:title=" ">
<polygon fill="#e0e0e0" stroke="#999999" points="1324.75,-201.88 1235.25,-201.88 1235.25,-182.62 1324.75,-182.62 1324.75,-201.88"/>
<text text-anchor="middle" x="1280" y="-188.38" font-family="Helvetica,sans-Serif" font-size="10.00">rclcpp/rclcpp.hpp</text>
</a>
</g>
</g>
<!-- Node1&#45;&gt;Node27 -->
<g id="edge38_Node000001_Node000027" class="edge">
<title>Node1&#45;&gt;Node27</title>
<g id="a_edge38_Node000001_Node000027"><a xlink:title=" ">
<path fill="none" stroke="#63b8ff" d="M1428.49,-309.73C1396.95,-284.99 1333.05,-234.87 1300.32,-209.19"/>
<polygon fill="#63b8ff" stroke="#63b8ff" points="1302.82,-206.7 1292.79,-203.29 1298.5,-212.21 1302.82,-206.7"/>
</a>
</g>
</g>
<!-- Node28 -->
<g id="Node000028" class="node">
<title>Node28</title>
<g id="a_Node000028"><a xlink:title=" ">
<polygon fill="#e0e0e0" stroke="#999999" points="1475.5,-201.88 1342.5,-201.88 1342.5,-182.62 1475.5,-182.62 1475.5,-201.88"/>
<text text-anchor="middle" x="1409" y="-188.38" font-family="Helvetica,sans-Serif" font-size="10.00">sensor_msgs/msg/imu.hpp</text>
</a>
</g>
</g>
<!-- Node1&#45;&gt;Node28 -->
<g id="edge39_Node000001_Node000028" class="edge">
<title>Node1&#45;&gt;Node28</title>
<g id="a_edge39_Node000001_Node000028"><a xlink:title=" ">
<path fill="none" stroke="#63b8ff" d="M1442.79,-309.73C1435.98,-286.27 1422.55,-239.96 1414.83,-213.35"/>
<polygon fill="#63b8ff" stroke="#63b8ff" points="1418.21,-212.43 1412.06,-203.8 1411.49,-214.38 1418.21,-212.43"/>
</a>
</g>
</g>
<!-- Node9&#45;&gt;Node2 -->
<g id="edge11_Node000009_Node000002" class="edge">
<title>Node9&#45;&gt;Node2</title>
<g id="a_edge11_Node000009_Node000002"><a xlink:title=" ">
<path fill="none" stroke="#63b8ff" d="M910.19,-58.74C754.48,-47.46 387.46,-20.87 277.6,-12.91"/>
<polygon fill="#63b8ff" stroke="#63b8ff" points="278.09,-9.44 267.87,-12.21 277.59,-16.42 278.09,-9.44"/>
</a>
</g>
</g>
<!-- Node10 -->
<g id="Node000010" class="node">
<title>Node10</title>
<g id="a_Node000010"><a xlink:title=" ">
<polygon fill="#e0e0e0" stroke="#999999" points="1138.62,-19.25 1093.38,-19.25 1093.38,0 1138.62,0 1138.62,-19.25"/>
<text text-anchor="middle" x="1116" y="-5.75" font-family="Helvetica,sans-Serif" font-size="10.00">chrono</text>
</a>
</g>
</g>
<!-- Node9&#45;&gt;Node10 -->
<g id="edge9_Node000009_Node000010" class="edge">
<title>Node9&#45;&gt;Node10</title>
<g id="a_edge9_Node000009_Node000010"><a xlink:title=" ">
<path fill="none" stroke="#63b8ff" d="M1003.9,-54.84C1025.43,-46.35 1057.91,-33.54 1082.38,-23.89"/>
<polygon fill="#63b8ff" stroke="#63b8ff" points="1083.56,-27.18 1091.58,-20.26 1080.99,-20.67 1083.56,-27.18"/>
</a>
</g>
</g>
<!-- Node11 -->
<g id="Node000011" class="node">
<title>Node11</title>
<g id="a_Node000011"><a xlink:title=" ">
<polygon fill="#e0e0e0" stroke="#999999" points="875.38,-19.25 840.62,-19.25 840.62,0 875.38,0 875.38,-19.25"/>
<text text-anchor="middle" x="858" y="-5.75" font-family="Helvetica,sans-Serif" font-size="10.00">map</text>
</a>
</g>
</g>
<!-- Node9&#45;&gt;Node11 -->
<g id="edge10_Node000009_Node000011" class="edge">
<title>Node9&#45;&gt;Node11</title>
<g id="a_edge10_Node000009_Node000011"><a xlink:title=" ">
<path fill="none" stroke="#63b8ff" d="M960.13,-54.84C939.75,-46.02 908.6,-32.53 886.06,-22.77"/>
<polygon fill="#63b8ff" stroke="#63b8ff" points="887.72,-19.68 877.16,-18.92 884.94,-26.1 887.72,-19.68"/>
</a>
</g>
</g>
<!-- Node12 -->
<g id="Node000012" class="node">
<title>Node12</title>
<g id="a_Node000012"><a xlink:title=" ">
<polygon fill="#e0e0e0" stroke="#999999" points="969,-19.25 893,-19.25 893,0 969,0 969,-19.25"/>
<text text-anchor="middle" x="931" y="-5.75" font-family="Helvetica,sans-Serif" font-size="10.00">utils/color.hpp</text>
</a>
</g>
</g>
<!-- Node9&#45;&gt;Node12 -->
<g id="edge12_Node000009_Node000012" class="edge">
<title>Node9&#45;&gt;Node12</title>
<g id="a_edge12_Node000009_Node000012"><a xlink:title=" ">
<path fill="none" stroke="#63b8ff" d="M972.74,-55.08C965.84,-47.73 955.78,-37.01 947.26,-27.94"/>
<polygon fill="#63b8ff" stroke="#63b8ff" points="949.87,-25.61 940.47,-20.71 944.77,-30.4 949.87,-25.61"/>
</a>
</g>
</g>
<!-- Node13 -->
<g id="Node000013" class="node">
<title>Node13</title>
<g id="a_Node000013"><a xlink:title=" ">
<polygon fill="#e0e0e0" stroke="#999999" points="1075.38,-19.25 986.62,-19.25 986.62,0 1075.38,0 1075.38,-19.25"/>
<text text-anchor="middle" x="1031" y="-5.75" font-family="Helvetica,sans-Serif" font-size="10.00">utils/position.hpp</text>
</a>
</g>
</g>
<!-- Node9&#45;&gt;Node13 -->
<g id="edge13_Node000009_Node000013" class="edge">
<title>Node9&#45;&gt;Node13</title>
<g id="a_edge13_Node000009_Node000013"><a xlink:title=" ">
<path fill="none" stroke="#63b8ff" d="M989.26,-55.08C996.16,-47.73 1006.22,-37.01 1014.74,-27.94"/>
<polygon fill="#63b8ff" stroke="#63b8ff" points="1017.23,-30.4 1021.53,-20.71 1012.13,-25.61 1017.23,-30.4"/>
</a>
</g>
</g>
<!-- Node14&#45;&gt;Node2 -->
<g id="edge18_Node000014_Node000002" class="edge">
<title>Node14&#45;&gt;Node2</title>
<g id="a_edge18_Node000014_Node000002"><a xlink:title=" ">
<path fill="none" stroke="#63b8ff" d="M685.65,-253.77C563.34,-244.74 279.66,-222.29 265,-207.5 217.89,-159.96 231.5,-70.69 240.68,-30.79"/>
<polygon fill="#63b8ff" stroke="#63b8ff" points="244.06,-31.7 243.06,-21.15 237.26,-30.02 244.06,-31.7"/>
</a>
</g>
</g>
<!-- Node14&#45;&gt;Node4 -->
<g id="edge23_Node000014_Node000004" class="edge">
<title>Node14&#45;&gt;Node4</title>
<g id="a_edge23_Node000014_Node000004"><a xlink:title=" ">
<path fill="none" stroke="#63b8ff" d="M685.41,-255.39C582.42,-250.49 354.85,-237.27 153.88,-207.81"/>
<polygon fill="#63b8ff" stroke="#63b8ff" points="154.42,-204.35 144.01,-206.34 153.39,-211.27 154.42,-204.35"/>
</a>
</g>
</g>
<!-- Node14&#45;&gt;Node9 -->
<g id="edge34_Node000014_Node000009" class="edge">
<title>Node14&#45;&gt;Node9</title>
<g id="a_edge34_Node000014_Node000009"><a xlink:title=" ">
<path fill="none" stroke="#63b8ff" d="M796.51,-257.8C882.22,-256.56 1040.6,-248.61 1076,-207.5 1095.48,-184.88 1062.84,-122.81 1053,-110.5 1042.68,-97.59 1027.55,-87.42 1013.82,-80.07"/>
<polygon fill="#63b8ff" stroke="#63b8ff" points="1015.56,-77.02 1005.05,-75.67 1012.42,-83.28 1015.56,-77.02"/>
</a>
</g>
</g>
<!-- Node15 -->
<g id="Node000015" class="node">
<title>Node15</title>
<g id="a_Node000015"><a xlink:title=" ">
<polygon fill="#e0e0e0" stroke="#999999" points="1217,-201.88 1123,-201.88 1123,-182.62 1217,-182.62 1217,-201.88"/>
<text text-anchor="middle" x="1170" y="-188.38" font-family="Helvetica,sans-Serif" font-size="10.00">gtest/gtest_prod.h</text>
</a>
</g>
</g>
<!-- Node14&#45;&gt;Node15 -->
<g id="edge15_Node000014_Node000015" class="edge">
<title>Node14&#45;&gt;Node15</title>
<g id="a_edge15_Node000014_Node000015"><a xlink:title=" ">
<path fill="none" stroke="#63b8ff" d="M796.75,-251.79C869.06,-243.67 998.98,-227.82 1109,-207.5 1113.39,-206.69 1117.93,-205.77 1122.48,-204.81"/>
<polygon fill="#63b8ff" stroke="#63b8ff" points="1123.18,-208.23 1132.19,-202.65 1121.67,-201.4 1123.18,-208.23"/>
</a>
</g>
</g>
<!-- Node16 -->
<g id="Node000016" class="node">
<title>Node16</title>
<g id="a_Node000016"><a xlink:title=" ">
<polygon fill="#e0e0e0" stroke="#999999" points="218,-201.88 160,-201.88 160,-182.62 218,-182.62 218,-201.88"/>
<text text-anchor="middle" x="189" y="-188.38" font-family="Helvetica,sans-Serif" font-size="10.00">functional</text>
</a>
</g>
</g>
<!-- Node14&#45;&gt;Node16 -->
<g id="edge16_Node000014_Node000016" class="edge">
<title>Node14&#45;&gt;Node16</title>
<g id="a_edge16_Node000014_Node000016"><a xlink:title=" ">
<path fill="none" stroke="#63b8ff" d="M685.4,-256.28C591.16,-252.9 394.43,-241.99 232,-207.5 229.4,-206.95 226.74,-206.3 224.08,-205.58"/>
<polygon fill="#63b8ff" stroke="#63b8ff" points="225.33,-202.3 214.75,-202.78 223.32,-209 225.33,-202.3"/>
</a>
</g>
</g>
<!-- Node17 -->
<g id="Node000017" class="node">
<title>Node17</title>
<g id="a_Node000017"><a xlink:title=" ">
<polygon fill="#e0e0e0" stroke="#999999" points="324.25,-201.88 273.75,-201.88 273.75,-182.62 324.25,-182.62 324.25,-201.88"/>
<text text-anchor="middle" x="299" y="-188.38" font-family="Helvetica,sans-Serif" font-size="10.00">memory</text>
</a>
</g>
</g>
<!-- Node14&#45;&gt;Node17 -->
<g id="edge17_Node000014_Node000017" class="edge">
<title>Node14&#45;&gt;Node17</title>
<g id="a_edge17_Node000014_Node000017"><a xlink:title=" ">
<path fill="none" stroke="#63b8ff" d="M685.31,-255.72C605.91,-251.74 456.12,-240.21 333,-207.5 331.61,-207.13 330.2,-206.72 328.78,-206.27"/>
<polygon fill="#63b8ff" stroke="#63b8ff" points="330.11,-203.02 319.52,-202.85 327.69,-209.59 330.11,-203.02"/>
</a>
</g>
</g>
<!-- Node18 -->
<g id="Node000018" class="node">
<title>Node18</title>
<g id="a_Node000018"><a xlink:title=" ">
<polygon fill="#e0e0e0" stroke="#999999" points="391.88,-201.88 342.12,-201.88 342.12,-182.62 391.88,-182.62 391.88,-201.88"/>
<text text-anchor="middle" x="367" y="-188.38" font-family="Helvetica,sans-Serif" font-size="10.00">typeinfo</text>
</a>
</g>
</g>
<!-- Node14&#45;&gt;Node18 -->
<g id="edge19_Node000014_Node000018" class="edge">
<title>Node14&#45;&gt;Node18</title>
<g id="a_edge19_Node000014_Node000018"><a xlink:title=" ">
<path fill="none" stroke="#63b8ff" d="M685.35,-253.82C617.28,-248.03 499,-234.81 401,-207.5 399.61,-207.11 398.21,-206.68 396.8,-206.22"/>
<polygon fill="#63b8ff" stroke="#63b8ff" points="398.13,-202.99 387.54,-202.77 395.69,-209.55 398.13,-202.99"/>
</a>
</g>
</g>
<!-- Node19 -->
<g id="Node000019" class="node">
<title>Node19</title>
<g id="a_Node000019"><a xlink:title=" ">
<polygon fill="#e0e0e0" stroke="#999999" points="528,-207.5 410,-207.5 410,-177 528,-177 528,-207.5"/>
<text text-anchor="start" x="418" y="-194" font-family="Helvetica,sans-Serif" font-size="10.00">custom_interfaces/msg</text>
<text text-anchor="middle" x="469" y="-182.75" font-family="Helvetica,sans-Serif" font-size="10.00">/cone_array.hpp</text>
</a>
</g>
</g>
<!-- Node14&#45;&gt;Node19 -->
<g id="edge20_Node000014_Node000019" class="edge">
<title>Node14&#45;&gt;Node19</title>
<g id="a_edge20_Node000014_Node000019"><a xlink:title=" ">
<path fill="none" stroke="#63b8ff" d="M702.61,-248.65C660.38,-238.63 591.63,-222.33 539.61,-209.99"/>
<polygon fill="#63b8ff" stroke="#63b8ff" points="540.46,-206.6 529.92,-207.7 538.85,-213.41 540.46,-206.6"/>
</a>
</g>
</g>
<!-- Node20 -->
<g id="Node000020" class="node">
<title>Node20</title>
<g id="a_Node000020"><a xlink:title=" ">
<polygon fill="#e0e0e0" stroke="#999999" points="664,-207.5 546,-207.5 546,-177 664,-177 664,-207.5"/>
<text text-anchor="start" x="554" y="-194" font-family="Helvetica,sans-Serif" font-size="10.00">custom_interfaces/msg</text>
<text text-anchor="middle" x="605" y="-182.75" font-family="Helvetica,sans-Serif" font-size="10.00">/point2d.hpp</text>
</a>
</g>
</g>
<!-- Node14&#45;&gt;Node20 -->
<g id="edge21_Node000014_Node000020" class="edge">
<title>Node14&#45;&gt;Node20</title>
<g id="a_edge21_Node000014_Node000020"><a xlink:title=" ">
<path fill="none" stroke="#63b8ff" d="M721.8,-248.65C702.26,-239.38 671.36,-224.72 646.25,-212.81"/>
<polygon fill="#63b8ff" stroke="#63b8ff" points="647.79,-209.67 637.26,-208.55 644.79,-216 647.79,-209.67"/>
</a>
</g>
</g>
<!-- Node21 -->
<g id="Node000021" class="node">
<title>Node21</title>
<g id="a_Node000021"><a xlink:title=" ">
<polygon fill="#e0e0e0" stroke="#999999" points="800,-207.5 682,-207.5 682,-177 800,-177 800,-207.5"/>
<text text-anchor="start" x="690" y="-194" font-family="Helvetica,sans-Serif" font-size="10.00">custom_interfaces/msg</text>
<text text-anchor="middle" x="741" y="-182.75" font-family="Helvetica,sans-Serif" font-size="10.00">/pose.hpp</text>
</a>
</g>
</g>
<!-- Node14&#45;&gt;Node21 -->
<g id="edge22_Node000014_Node000021" class="edge">
<title>Node14&#45;&gt;Node21</title>
<g id="a_edge22_Node000014_Node000021"><a xlink:title=" ">
<path fill="none" stroke="#63b8ff" d="M741,-248.78C741,-241.04 741,-229.45 741,-218.87"/>
<polygon fill="#63b8ff" stroke="#63b8ff" points="744.5,-219.11 741,-209.11 737.5,-219.11 744.5,-219.11"/>
</a>
</g>
</g>
<!-- Node22 -->
<g id="Node000022" class="node">
<title>Node22</title>
<g id="a_Node000022"><a xlink:href="ekf_8hpp.html" target="_top" xlink:title=" ">
<polygon fill="white" stroke="#666666" points="1066.62,-201.88 961.38,-201.88 961.38,-182.62 1066.62,-182.62 1066.62,-201.88"/>
<text text-anchor="middle" x="1014" y="-188.38" font-family="Helvetica,sans-Serif" font-size="10.00">kalman_filter/ekf.hpp</text>
</a>
</g>
</g>
<!-- Node14&#45;&gt;Node22 -->
<g id="edge24_Node000014_Node000022" class="edge">
<title>Node14&#45;&gt;Node22</title>
<g id="a_edge24_Node000014_Node000022"><a xlink:title=" ">
<path fill="none" stroke="#63b8ff" d="M779.54,-248.65C828.01,-237.19 911.32,-217.51 964.47,-204.95"/>
<polygon fill="#63b8ff" stroke="#63b8ff" points="965.26,-208.36 974.19,-202.66 963.65,-201.55 965.26,-208.36"/>
</a>
</g>
</g>
<!-- Node14&#45;&gt;Node27 -->
<g id="edge35_Node000014_Node000027" class="edge">
<title>Node14&#45;&gt;Node27</title>
<g id="a_edge35_Node000014_Node000027"><a xlink:title=" ">
<path fill="none" stroke="#63b8ff" d="M796.67,-254.79C887.26,-249.35 1071.94,-235.63 1226,-207.5 1229.84,-206.8 1233.8,-205.97 1237.76,-205.06"/>
<polygon fill="#63b8ff" stroke="#63b8ff" points="1238.42,-208.5 1247.3,-202.73 1236.76,-201.7 1238.42,-208.5"/>
</a>
</g>
</g>
<!-- Node14&#45;&gt;Node28 -->
<g id="edge36_Node000014_Node000028" class="edge">
<title>Node14&#45;&gt;Node28</title>
<g id="a_edge36_Node000014_Node000028"><a xlink:title=" ">
<path fill="none" stroke="#63b8ff" d="M796.39,-254.97C901.56,-249.27 1137.2,-234.46 1334,-207.5 1340.56,-206.6 1347.42,-205.51 1354.21,-204.34"/>
<polygon fill="#63b8ff" stroke="#63b8ff" points="1354.79,-207.79 1364.01,-202.57 1353.55,-200.9 1354.79,-207.79"/>
</a>
</g>
</g>
<!-- Node29 -->
<g id="Node000029" class="node">
<title>Node29</title>
<g id="a_Node000029"><a xlink:title=" ">
<polygon fill="#e0e0e0" stroke="#999999" points="943.75,-201.88 818.25,-201.88 818.25,-182.62 943.75,-182.62 943.75,-201.88"/>
<text text-anchor="middle" x="881" y="-188.38" font-family="Helvetica,sans-Serif" font-size="10.00">std_msgs/msg/string.hpp</text>
</a>
</g>
</g>
<!-- Node14&#45;&gt;Node29 -->
<g id="edge37_Node000014_Node000029" class="edge">
<title>Node14&#45;&gt;Node29</title>
<g id="a_edge37_Node000014_Node000029"><a xlink:title=" ">
<path fill="none" stroke="#63b8ff" d="M760.76,-248.65C784.32,-237.79 823.91,-219.55 851.19,-206.98"/>
<polygon fill="#63b8ff" stroke="#63b8ff" points="852.35,-210.3 859.96,-202.94 849.42,-203.95 852.35,-210.3"/>
</a>
</g>
</g>
<!-- Node22&#45;&gt;Node9 -->
<g id="edge33_Node000022_Node000009" class="edge">
<title>Node22&#45;&gt;Node9</title>
<g id="a_edge33_Node000022_Node000009"><a xlink:title=" ">
<path fill="none" stroke="#63b8ff" d="M1020.52,-182.41C1030.92,-167.16 1048.89,-135.19 1037,-110.5 1031.09,-98.24 1020,-88.3 1009.23,-80.95"/>
<polygon fill="#63b8ff" stroke="#63b8ff" points="1011.21,-78.06 1000.87,-75.72 1007.5,-83.99 1011.21,-78.06"/>
</a>
</g>
</g>
<!-- Node23 -->
<g id="Node000023" class="node">
<title>Node23</title>
<g id="a_Node000023"><a xlink:title=" ">
<polygon fill="#e0e0e0" stroke="#999999" points="808.38,-74.5 737.62,-74.5 737.62,-55.25 808.38,-55.25 808.38,-74.5"/>
<text text-anchor="middle" x="773" y="-61" font-family="Helvetica,sans-Serif" font-size="10.00">Eigen/Dense</text>
</a>
</g>
</g>
<!-- Node22&#45;&gt;Node23 -->
<g id="edge25_Node000022_Node000023" class="edge">
<title>Node22&#45;&gt;Node23</title>
<g id="a_edge25_Node000022_Node000023"><a xlink:title=" ">
<path fill="none" stroke="#63b8ff" d="M977.33,-182.17C969.34,-180.34 960.9,-178.51 953,-177 899.81,-166.83 747.35,-182.02 712,-141 703.15,-130.73 705.87,-122.59 712,-110.5 718.43,-97.83 730.33,-87.89 741.93,-80.65"/>
<polygon fill="#63b8ff" stroke="#63b8ff" points="743.63,-83.71 750.58,-75.72 740.16,-77.63 743.63,-83.71"/>
</a>
</g>
</g>
<!-- Node24 -->
<g id="Node000024" class="node">
<title>Node24</title>
<g id="a_Node000024"><a xlink:title=" ">
<polygon fill="#e0e0e0" stroke="#999999" points="1028.5,-135.38 985.5,-135.38 985.5,-116.12 1028.5,-116.12 1028.5,-135.38"/>
<text text-anchor="middle" x="1007" y="-121.88" font-family="Helvetica,sans-Serif" font-size="10.00">vector</text>
</a>
</g>
</g>
<!-- Node22&#45;&gt;Node24 -->
<g id="edge26_Node000022_Node000024" class="edge">
<title>Node22&#45;&gt;Node24</title>
<g id="a_edge26_Node000022_Node000024"><a xlink:title=" ">
<path fill="none" stroke="#63b8ff" d="M1013.03,-182.28C1012.03,-173.14 1010.46,-158.64 1009.17,-146.75"/>
<polygon fill="#63b8ff" stroke="#63b8ff" points="1012.69,-146.71 1008.13,-137.15 1005.73,-147.47 1012.69,-146.71"/>
</a>
</g>
</g>
<!-- Node25 -->
<g id="Node000025" class="node">
<title>Node25</title>
<g id="a_Node000025"><a xlink:href="motion__models_8hpp.html" target="_top" xlink:title=" ">
<polygon fill="white" stroke="#666666" points="824.5,-141 721.5,-141 721.5,-110.5 824.5,-110.5 824.5,-141"/>
<text text-anchor="start" x="729.5" y="-127.5" font-family="Helvetica,sans-Serif" font-size="10.00">kalman_filter/motion</text>
<text text-anchor="middle" x="773" y="-116.25" font-family="Helvetica,sans-Serif" font-size="10.00">_models.hpp</text>
</a>
</g>
</g>
<!-- Node22&#45;&gt;Node25 -->
<g id="edge27_Node000022_Node000025" class="edge">
<title>Node22&#45;&gt;Node25</title>
<g id="a_edge27_Node000022_Node000025"><a xlink:title=" ">
<path fill="none" stroke="#63b8ff" d="M979.98,-182.15C942.7,-172.17 882.09,-155.95 836.06,-143.63"/>
<polygon fill="#63b8ff" stroke="#63b8ff" points="837.02,-140.26 826.46,-141.06 835.21,-147.02 837.02,-140.26"/>
</a>
</g>
</g>
<!-- Node26 -->
<g id="Node000026" class="node">
<title>Node26</title>
<g id="a_Node000026"><a xlink:href="observation__models_8hpp.html" target="_top" xlink:title=" ">
<polygon fill="white" stroke="#666666" points="967,-141 843,-141 843,-110.5 967,-110.5 967,-141"/>
<text text-anchor="start" x="851" y="-127.5" font-family="Helvetica,sans-Serif" font-size="10.00">kalman_filter/observation</text>
<text text-anchor="middle" x="905" y="-116.25" font-family="Helvetica,sans-Serif" font-size="10.00">_models.hpp</text>
</a>
</g>
</g>
<!-- Node22&#45;&gt;Node26 -->
<g id="edge30_Node000022_Node000026" class="edge">
<title>Node22&#45;&gt;Node26</title>
<g id="a_edge30_Node000022_Node000026"><a xlink:title=" ">
<path fill="none" stroke="#63b8ff" d="M998.84,-182.28C983.53,-173.22 959.35,-158.91 939.36,-147.08"/>
<polygon fill="#63b8ff" stroke="#63b8ff" points="941.35,-144.19 930.96,-142.11 937.78,-150.22 941.35,-144.19"/>
</a>
</g>
</g>
<!-- Node25&#45;&gt;Node9 -->
<g id="edge29_Node000025_Node000009" class="edge">
<title>Node25&#45;&gt;Node9</title>
<g id="a_edge29_Node000025_Node000009"><a xlink:title=" ">
<path fill="none" stroke="#63b8ff" d="M824.95,-110.05C859.72,-100.2 904.94,-87.4 937.75,-78.12"/>
<polygon fill="#63b8ff" stroke="#63b8ff" points="938.67,-81.49 947.34,-75.4 936.76,-74.76 938.67,-81.49"/>
</a>
</g>
</g>
<!-- Node25&#45;&gt;Node23 -->
<g id="edge28_Node000025_Node000023" class="edge">
<title>Node25&#45;&gt;Node23</title>
<g id="a_edge28_Node000025_Node000023"><a xlink:title=" ">
<path fill="none" stroke="#63b8ff" d="M773,-110.2C773,-102.96 773,-94.09 773,-86.19"/>
<polygon fill="#63b8ff" stroke="#63b8ff" points="776.5,-86.46 773,-76.46 769.5,-86.46 776.5,-86.46"/>
</a>
</g>
</g>
<!-- Node26&#45;&gt;Node9 -->
<g id="edge32_Node000026_Node000009" class="edge">
<title>Node26&#45;&gt;Node9</title>
<g id="a_edge32_Node000026_Node000009"><a xlink:title=" ">
<path fill="none" stroke="#63b8ff" d="M923.79,-110.2C934.91,-101.58 949.02,-90.65 960.44,-81.8"/>
<polygon fill="#63b8ff" stroke="#63b8ff" points="962.33,-84.77 968.09,-75.88 958.04,-79.24 962.33,-84.77"/>
</a>
</g>
</g>
<!-- Node26&#45;&gt;Node23 -->
<g id="edge31_Node000026_Node000023" class="edge">
<title>Node26&#45;&gt;Node23</title>
<g id="a_edge31_Node000026_Node000023"><a xlink:title=" ">
<path fill="none" stroke="#63b8ff" d="M872.03,-110.05C851.06,-100.69 824.09,-88.66 803.6,-79.52"/>
<polygon fill="#63b8ff" stroke="#63b8ff" points="805.18,-76.4 794.63,-75.52 802.33,-82.79 805.18,-76.4"/>
</a>
</g>
</g>
</g>
</svg>
