<?xml version="1.0" encoding="UTF-8" standalone="no"?>
<!DOCTYPE svg PUBLIC "-//W3C//DTD SVG 1.1//EN"
 "http://www.w3.org/Graphics/SVG/1.1/DTD/svg11.dtd">
<!-- Generated by graphviz version 9.0.0 (20230911.1827)
 -->
<!-- Title: src/loc_map/src/loc_map.cpp Pages: 1 -->
<!--zoomable 337 -->

<svg id="main" version="1.1" xmlns="http://www.w3.org/2000/svg" xmlns:xlink="http://www.w3.org/1999/xlink" xml:space="preserve" onload="init(evt)">
<style type="text/css"><![CDATA[
.node, .edge {opacity: 0.7;}
.node.selected, .edge.selected {opacity: 1;}
.edge:hover path { stroke: red; }
.edge:hover polygon { stroke: red; fill: red; }
]]></style>

<defs>
  <circle id="rim" cx="0" cy="0" r="7"/>
  <circle id="rim2" cx="0" cy="0" r="3.5"/>
  <g id="zoomPlus">
    <use xlink:href="#rim" fill="#404040"><set attributeName="fill" to="#808080" begin="zoomplus.mouseover" end="zoomplus.mouseout"/></use>
    <path d="M-4,0h8M0,-4v8" fill="none" stroke="white" stroke-width="1.5" pointer-events="none"/>
  </g>
  <g id="zoomMin">
    <use xlink:href="#rim" fill="#404040"><set attributeName="fill" to="#808080" begin="zoomminus.mouseover" end="zoomminus.mouseout"/></use>
    <path d="M-4,0h8" fill="none" stroke="white" stroke-width="1.5" pointer-events="none"/>
  </g>
  <g id="arrowUp" transform="translate(30 24)">
    <use xlink:href="#rim"/>
    <path pointer-events="none" fill="none" stroke="white" stroke-width="1.5" d="M0,-3.0v7 M-2.5,-0.5L0,-3.0L2.5,-0.5"/>
  </g>
  <g id="arrowRight" transform="rotate(90) translate(36 -43)">
    <use xlink:href="#rim"/>
    <path pointer-events="none" fill="none" stroke="white" stroke-width="1.5" d="M0,-3.0v7 M-2.5,-0.5L0,-3.0L2.5,-0.5"/>
  </g>
  <g id="arrowDown" transform="rotate(180) translate(-30 -48)">
    <use xlink:href="#rim"/>
    <path pointer-events="none" fill="none" stroke="white" stroke-width="1.5" d="M0,-3.0v7 M-2.5,-0.5L0,-3.0L2.5,-0.5"/>
  </g>
  <g id="arrowLeft" transform="rotate(270) translate(-36 17)">
    <use xlink:href="#rim"/>
    <path pointer-events="none" fill="none" stroke="white" stroke-width="1.5" d="M0,-3.0v7 M-2.5,-0.5L0,-3.0L2.5,-0.5"/>
  </g>
  <g id="resetDef">
    <use xlink:href="#rim2" fill="#404040"><set attributeName="fill" to="#808080" begin="reset.mouseover" end="reset.mouseout"/></use>
  </g>
</defs>
<script type="application/ecmascript">
var viewWidth = 1718;
var viewHeight = 337;
var sectionId = 'dynsection-0';
</script>
<script type="application/ecmascript" xlink:href="svg.min.js"/>
<svg id="graph" class="graph">
<g id="viewport">
<title>src/loc_map/src/loc_map.cpp</title>
<!-- Node1 -->
<g id="Node000001" class="node">
<title>Node1</title>
<g id="a_Node000001"><a xlink:title=" ">
<polygon fill="#999999" stroke="#666666" points="1044.75,-329.25 943.25,-329.25 943.25,-298.75 1044.75,-298.75 1044.75,-329.25"/>
<text text-anchor="start" x="951.25" y="-315.75" font-family="Helvetica,sans-Serif" font-size="10.00">src/loc_map/src/loc</text>
<text text-anchor="middle" x="994" y="-304.5" font-family="Helvetica,sans-Serif" font-size="10.00">_map.cpp</text>
</a>
</g>
</g>
<!-- Node2 -->
<g id="Node000002" class="node">
<title>Node2</title>
<g id="a_Node000002"><a xlink:title=" ">
<polygon fill="#e0e0e0" stroke="#999999" points="921.12,-262.75 878.88,-262.75 878.88,-243.5 921.12,-243.5 921.12,-262.75"/>
<text text-anchor="middle" x="900" y="-249.25" font-family="Helvetica,sans-Serif" font-size="10.00">cstdio</text>
</a>
</g>
</g>
<!-- Node1&#45;&gt;Node2 -->
<g id="edge1_Node000001_Node000002" class="edge">
<title>Node1&#45;&gt;Node2</title>
<g id="a_edge1_Node000001_Node000002"><a xlink:title=" ">
<path fill="none" stroke="#63b8ff" d="M970.76,-298.45C956.59,-289.57 938.5,-278.24 924.16,-269.26"/>
<polygon fill="#63b8ff" stroke="#63b8ff" points="926.11,-266.35 915.77,-264 922.39,-272.28 926.11,-266.35"/>
</a>
</g>
</g>
<!-- Node3 -->
<g id="Node000003" class="node">
<title>Node3</title>
<g id="a_Node000003"><a xlink:href="lm__node_8hpp.html" target="_top" xlink:title=" ">
<polygon fill="white" stroke="#666666" points="1049.25,-262.75 938.75,-262.75 938.75,-243.5 1049.25,-243.5 1049.25,-262.75"/>
<text text-anchor="middle" x="994" y="-249.25" font-family="Helvetica,sans-Serif" font-size="10.00">loc_map/lm_node.hpp</text>
</a>
</g>
</g>
<!-- Node1&#45;&gt;Node3 -->
<g id="edge2_Node000001_Node000003" class="edge">
<title>Node1&#45;&gt;Node3</title>
<g id="a_edge2_Node000001_Node000003"><a xlink:title=" ">
<path fill="none" stroke="#63b8ff" d="M994,-298.45C994,-291.21 994,-282.34 994,-274.44"/>
<polygon fill="#63b8ff" stroke="#63b8ff" points="997.5,-274.71 994,-264.71 990.5,-274.71 997.5,-274.71"/>
</a>
</g>
</g>
<!-- Node23 -->
<g id="Node000023" class="node">
<title>Node23</title>
<g id="a_Node000023"><a xlink:title=" ">
<polygon fill="#e0e0e0" stroke="#999999" points="1709.75,-201.88 1620.25,-201.88 1620.25,-182.62 1709.75,-182.62 1709.75,-201.88"/>
<text text-anchor="middle" x="1665" y="-188.38" font-family="Helvetica,sans-Serif" font-size="10.00">rclcpp/rclcpp.hpp</text>
</a>
</g>
</g>
<!-- Node1&#45;&gt;Node23 -->
<g id="edge31_Node000001_Node000023" class="edge">
<title>Node1&#45;&gt;Node23</title>
<g id="a_edge31_Node000001_Node000023"><a xlink:title=" ">
<path fill="none" stroke="#63b8ff" d="M1045.08,-305.83C1151.11,-290.61 1402.58,-252.73 1611,-207.5 1614.4,-206.76 1617.9,-205.95 1621.41,-205.11"/>
<polygon fill="#63b8ff" stroke="#63b8ff" points="1622.24,-208.51 1631.09,-202.68 1620.54,-201.72 1622.24,-208.51"/>
</a>
</g>
</g>
<!-- Node4 -->
<g id="Node000004" class="node">
<title>Node4</title>
<g id="a_Node000004"><a xlink:title=" ">
<polygon fill="#e0e0e0" stroke="#999999" points="1458,-201.88 1364,-201.88 1364,-182.62 1458,-182.62 1458,-201.88"/>
<text text-anchor="middle" x="1411" y="-188.38" font-family="Helvetica,sans-Serif" font-size="10.00">gtest/gtest_prod.h</text>
</a>
</g>
</g>
<!-- Node3&#45;&gt;Node4 -->
<g id="edge3_Node000003_Node000004" class="edge">
<title>Node3&#45;&gt;Node4</title>
<g id="a_edge3_Node000003_Node000004"><a xlink:title=" ">
<path fill="none" stroke="#63b8ff" d="M1049.69,-247.44C1120.89,-240.95 1247.79,-227.68 1355,-207.5 1359.03,-206.74 1363.21,-205.86 1367.37,-204.92"/>
<polygon fill="#63b8ff" stroke="#63b8ff" points="1367.9,-208.39 1376.81,-202.66 1366.27,-201.58 1367.9,-208.39"/>
</a>
</g>
</g>
<!-- Node5 -->
<g id="Node000005" class="node">
<title>Node5</title>
<g id="a_Node000005"><a xlink:title=" ">
<polygon fill="#e0e0e0" stroke="#999999" points="1534,-201.88 1476,-201.88 1476,-182.62 1534,-182.62 1534,-201.88"/>
<text text-anchor="middle" x="1505" y="-188.38" font-family="Helvetica,sans-Serif" font-size="10.00">functional</text>
</a>
</g>
</g>
<!-- Node3&#45;&gt;Node5 -->
<g id="edge4_Node000003_Node000005" class="edge">
<title>Node3&#45;&gt;Node5</title>
<g id="a_edge4_Node000003_Node000005"><a xlink:title=" ">
<path fill="none" stroke="#63b8ff" d="M1049.74,-251.61C1138.97,-249.74 1318.9,-241.62 1467,-207.5 1469.02,-207.03 1471.08,-206.49 1473.15,-205.88"/>
<polygon fill="#63b8ff" stroke="#63b8ff" points="1474.19,-209.22 1482.57,-202.73 1471.97,-202.58 1474.19,-209.22"/>
</a>
</g>
</g>
<!-- Node6 -->
<g id="Node000006" class="node">
<title>Node6</title>
<g id="a_Node000006"><a xlink:title=" ">
<polygon fill="#e0e0e0" stroke="#999999" points="1602.25,-201.88 1551.75,-201.88 1551.75,-182.62 1602.25,-182.62 1602.25,-201.88"/>
<text text-anchor="middle" x="1577" y="-188.38" font-family="Helvetica,sans-Serif" font-size="10.00">memory</text>
</a>
</g>
</g>
<!-- Node3&#45;&gt;Node6 -->
<g id="edge5_Node000003_Node000006" class="edge">
<title>Node3&#45;&gt;Node6</title>
<g id="a_edge5_Node000003_Node000006"><a xlink:title=" ">
<path fill="none" stroke="#63b8ff" d="M1049.33,-249.84C1169.39,-244.53 1450.44,-230.05 1543,-207.5 1544.59,-207.11 1546.21,-206.66 1547.83,-206.16"/>
<polygon fill="#63b8ff" stroke="#63b8ff" points="1548.69,-209.57 1556.88,-202.85 1546.28,-202.99 1548.69,-209.57"/>
</a>
</g>
</g>
<!-- Node7 -->
<g id="Node000007" class="node">
<title>Node7</title>
<g id="a_Node000007"><a xlink:title=" ">
<polygon fill="#e0e0e0" stroke="#999999" points="40,-19.25 0,-19.25 0,0 40,0 40,-19.25"/>
<text text-anchor="middle" x="20" y="-5.75" font-family="Helvetica,sans-Serif" font-size="10.00">string</text>
</a>
</g>
</g>
<!-- Node3&#45;&gt;Node7 -->
<g id="edge6_Node000003_Node000007" class="edge">
<title>Node3&#45;&gt;Node7</title>
<g id="a_edge6_Node000003_Node000007"><a xlink:title=" ">
<path fill="none" stroke="#63b8ff" d="M938.53,-244.36C935.65,-244.05 932.79,-243.76 930,-243.5 620.7,-214.73 536.85,-267.17 232,-207.5 143.79,-190.23 98.75,-209.88 41,-141 14.69,-109.62 14.87,-58.55 17.39,-30.55"/>
<polygon fill="#63b8ff" stroke="#63b8ff" points="20.82,-31.29 18.45,-20.97 13.87,-30.52 20.82,-31.29"/>
</a>
</g>
</g>
<!-- Node8 -->
<g id="Node000008" class="node">
<title>Node8</title>
<g id="a_Node000008"><a xlink:title=" ">
<polygon fill="#e0e0e0" stroke="#999999" points="510.88,-201.88 461.12,-201.88 461.12,-182.62 510.88,-182.62 510.88,-201.88"/>
<text text-anchor="middle" x="486" y="-188.38" font-family="Helvetica,sans-Serif" font-size="10.00">typeinfo</text>
</a>
</g>
</g>
<!-- Node3&#45;&gt;Node8 -->
<g id="edge7_Node000003_Node000008" class="edge">
<title>Node3&#45;&gt;Node8</title>
<g id="a_edge7_Node000003_Node000008"><a xlink:title=" ">
<path fill="none" stroke="#63b8ff" d="M938.52,-244.49C935.64,-244.14 932.79,-243.81 930,-243.5 748.2,-223.28 697.58,-251.38 520,-207.5 518.41,-207.11 516.79,-206.65 515.18,-206.14"/>
<polygon fill="#63b8ff" stroke="#63b8ff" points="516.72,-202.98 506.13,-202.83 514.31,-209.56 516.72,-202.98"/>
</a>
</g>
</g>
<!-- Node9 -->
<g id="Node000009" class="node">
<title>Node9</title>
<g id="a_Node000009"><a xlink:title=" ">
<polygon fill="#e0e0e0" stroke="#999999" points="647,-207.5 529,-207.5 529,-177 647,-177 647,-207.5"/>
<text text-anchor="start" x="537" y="-194" font-family="Helvetica,sans-Serif" font-size="10.00">custom_interfaces/msg</text>
<text text-anchor="middle" x="588" y="-182.75" font-family="Helvetica,sans-Serif" font-size="10.00">/cone_array.hpp</text>
</a>
</g>
</g>
<!-- Node3&#45;&gt;Node9 -->
<g id="edge8_Node000003_Node000009" class="edge">
<title>Node3&#45;&gt;Node9</title>
<g id="a_edge8_Node000003_Node000009"><a xlink:title=" ">
<path fill="none" stroke="#63b8ff" d="M938.5,-244.63C935.62,-244.25 932.78,-243.87 930,-243.5 811.82,-227.77 778.99,-228.08 658.45,-207.84"/>
<polygon fill="#63b8ff" stroke="#63b8ff" points="659.22,-204.42 648.78,-206.2 658.06,-211.32 659.22,-204.42"/>
</a>
</g>
</g>
<!-- Node10 -->
<g id="Node000010" class="node">
<title>Node10</title>
<g id="a_Node000010"><a xlink:title=" ">
<polygon fill="#e0e0e0" stroke="#999999" points="783,-207.5 665,-207.5 665,-177 783,-177 783,-207.5"/>
<text text-anchor="start" x="673" y="-194" font-family="Helvetica,sans-Serif" font-size="10.00">custom_interfaces/msg</text>
<text text-anchor="middle" x="724" y="-182.75" font-family="Helvetica,sans-Serif" font-size="10.00">/point2d.hpp</text>
</a>
</g>
</g>
<!-- Node3&#45;&gt;Node10 -->
<g id="edge9_Node000003_Node000010" class="edge">
<title>Node3&#45;&gt;Node10</title>
<g id="a_edge9_Node000003_Node000010"><a xlink:title=" ">
<path fill="none" stroke="#63b8ff" d="M952.4,-243.05C910.39,-233.89 844.7,-219.57 794.54,-208.63"/>
<polygon fill="#63b8ff" stroke="#63b8ff" points="795.43,-205.24 784.92,-206.53 793.94,-212.08 795.43,-205.24"/>
</a>
</g>
</g>
<!-- Node11 -->
<g id="Node000011" class="node">
<title>Node11</title>
<g id="a_Node000011"><a xlink:title=" ">
<polygon fill="#e0e0e0" stroke="#999999" points="919,-207.5 801,-207.5 801,-177 919,-177 919,-207.5"/>
<text text-anchor="start" x="809" y="-194" font-family="Helvetica,sans-Serif" font-size="10.00">custom_interfaces/msg</text>
<text text-anchor="middle" x="860" y="-182.75" font-family="Helvetica,sans-Serif" font-size="10.00">/pose.hpp</text>
</a>
</g>
</g>
<!-- Node3&#45;&gt;Node11 -->
<g id="edge10_Node000003_Node000011" class="edge">
<title>Node3&#45;&gt;Node11</title>
<g id="a_edge10_Node000003_Node000011"><a xlink:title=" ">
<path fill="none" stroke="#63b8ff" d="M973.36,-243.05C954.89,-234.94 927.22,-222.78 903.84,-212.51"/>
<polygon fill="#63b8ff" stroke="#63b8ff" points="905.39,-209.37 894.83,-208.55 902.58,-215.78 905.39,-209.37"/>
</a>
</g>
</g>
<!-- Node12 -->
<g id="Node000012" class="node">
<title>Node12</title>
<g id="a_Node000012"><a xlink:title=" ">
<polygon fill="#e0e0e0" stroke="#999999" points="1051.12,-207.5 936.88,-207.5 936.88,-177 1051.12,-177 1051.12,-207.5"/>
<text text-anchor="start" x="944.88" y="-194" font-family="Helvetica,sans-Serif" font-size="10.00">eufs_msgs/msg/wheel</text>
<text text-anchor="middle" x="994" y="-182.75" font-family="Helvetica,sans-Serif" font-size="10.00">_speeds_stamped.hpp</text>
</a>
</g>
</g>
<!-- Node3&#45;&gt;Node12 -->
<g id="edge11_Node000003_Node000012" class="edge">
<title>Node3&#45;&gt;Node12</title>
<g id="a_edge11_Node000003_Node000012"><a xlink:title=" ">
<path fill="none" stroke="#63b8ff" d="M994,-243.18C994,-236.73 994,-227.66 994,-219.01"/>
<polygon fill="#63b8ff" stroke="#63b8ff" points="997.5,-219.3 994,-209.3 990.5,-219.3 997.5,-219.3"/>
</a>
</g>
</g>
<!-- Node13 -->
<g id="Node000013" class="node">
<title>Node13</title>
<g id="a_Node000013"><a xlink:href="ekf_8hpp.html" target="_top" xlink:title=" ">
<polygon fill="white" stroke="#666666" points="346.62,-201.88 241.38,-201.88 241.38,-182.62 346.62,-182.62 346.62,-201.88"/>
<text text-anchor="middle" x="294" y="-188.38" font-family="Helvetica,sans-Serif" font-size="10.00">kalman_filter/ekf.hpp</text>
</a>
</g>
</g>
<!-- Node3&#45;&gt;Node13 -->
<g id="edge12_Node000003_Node000013" class="edge">
<title>Node3&#45;&gt;Node13</title>
<g id="a_edge12_Node000003_Node000013"><a xlink:title=" ">
<path fill="none" stroke="#63b8ff" d="M938.52,-244.43C935.64,-244.1 932.79,-243.79 930,-243.5 703.51,-220.28 645.71,-228.4 419,-207.5 399.18,-205.67 377.64,-203.34 358.1,-201.1"/>
<polygon fill="#63b8ff" stroke="#63b8ff" points="358.7,-197.64 348.37,-199.96 357.89,-204.6 358.7,-197.64"/>
</a>
</g>
</g>
<!-- Node17 -->
<g id="Node000017" class="node">
<title>Node17</title>
<g id="a_Node000017"><a xlink:href="data__structures_8hpp.html" target="_top" xlink:title=" ">
<polygon fill="white" stroke="#666666" points="313.62,-74.5 172.38,-74.5 172.38,-55.25 313.62,-55.25 313.62,-74.5"/>
<text text-anchor="middle" x="243" y="-61" font-family="Helvetica,sans-Serif" font-size="10.00">loc_map/data_structures.hpp</text>
</a>
</g>
</g>
<!-- Node3&#45;&gt;Node17 -->
<g id="edge27_Node000003_Node000017" class="edge">
<title>Node3&#45;&gt;Node17</title>
<g id="a_edge27_Node000003_Node000017"><a xlink:title=" ">
<path fill="none" stroke="#63b8ff" d="M938.52,-244.45C935.64,-244.11 932.79,-243.79 930,-243.5 824.06,-232.38 543.04,-262.82 452,-207.5 408.68,-181.18 432.23,-141.34 392,-110.5 371.18,-94.55 344.71,-84.27 319.88,-77.67"/>
<polygon fill="#63b8ff" stroke="#63b8ff" points="321,-74.34 310.45,-75.34 319.32,-81.14 321,-74.34"/>
</a>
</g>
</g>
<!-- Node3&#45;&gt;Node23 -->
<g id="edge28_Node000003_Node000023" class="edge">
<title>Node3&#45;&gt;Node23</title>
<g id="a_edge28_Node000003_Node000023"><a xlink:title=" ">
<path fill="none" stroke="#63b8ff" d="M1049.72,-251.55C1158.4,-249.67 1406.01,-241.66 1611,-207.5 1615.12,-206.81 1619.37,-205.96 1623.61,-205"/>
<polygon fill="#63b8ff" stroke="#63b8ff" points="1624.3,-208.44 1633.19,-202.67 1622.64,-201.64 1624.3,-208.44"/>
</a>
</g>
</g>
<!-- Node24 -->
<g id="Node000024" class="node">
<title>Node24</title>
<g id="a_Node000024"><a xlink:title=" ">
<polygon fill="#e0e0e0" stroke="#999999" points="1202.5,-201.88 1069.5,-201.88 1069.5,-182.62 1202.5,-182.62 1202.5,-201.88"/>
<text text-anchor="middle" x="1136" y="-188.38" font-family="Helvetica,sans-Serif" font-size="10.00">sensor_msgs/msg/imu.hpp</text>
</a>
</g>
</g>
<!-- Node3&#45;&gt;Node24 -->
<g id="edge29_Node000003_Node000024" class="edge">
<title>Node3&#45;&gt;Node24</title>
<g id="a_edge29_Node000003_Node000024"><a xlink:title=" ">
<path fill="none" stroke="#63b8ff" d="M1015.88,-243.05C1039.4,-233.3 1077.03,-217.7 1103.9,-206.56"/>
<polygon fill="#63b8ff" stroke="#63b8ff" points="1105.04,-209.88 1112.93,-202.81 1102.36,-203.41 1105.04,-209.88"/>
</a>
</g>
</g>
<!-- Node25 -->
<g id="Node000025" class="node">
<title>Node25</title>
<g id="a_Node000025"><a xlink:title=" ">
<polygon fill="#e0e0e0" stroke="#999999" points="1345.75,-201.88 1220.25,-201.88 1220.25,-182.62 1345.75,-182.62 1345.75,-201.88"/>
<text text-anchor="middle" x="1283" y="-188.38" font-family="Helvetica,sans-Serif" font-size="10.00">std_msgs/msg/string.hpp</text>
</a>
</g>
</g>
<!-- Node3&#45;&gt;Node25 -->
<g id="edge30_Node000003_Node000025" class="edge">
<title>Node3&#45;&gt;Node25</title>
<g id="a_edge30_Node000003_Node000025"><a xlink:title=" ">
<path fill="none" stroke="#63b8ff" d="M1038.52,-243.05C1089.33,-232.7 1172.48,-215.76 1227.48,-204.56"/>
<polygon fill="#63b8ff" stroke="#63b8ff" points="1227.84,-208.06 1236.94,-202.63 1226.45,-201.2 1227.84,-208.06"/>
</a>
</g>
</g>
<!-- Node14 -->
<g id="Node000014" class="node">
<title>Node14</title>
<g id="a_Node000014"><a xlink:title=" ">
<polygon fill="#e0e0e0" stroke="#999999" points="146.38,-74.5 75.62,-74.5 75.62,-55.25 146.38,-55.25 146.38,-74.5"/>
<text text-anchor="middle" x="111" y="-61" font-family="Helvetica,sans-Serif" font-size="10.00">Eigen/Dense</text>
</a>
</g>
</g>
<!-- Node13&#45;&gt;Node14 -->
<g id="edge13_Node000013_Node000014" class="edge">
<title>Node13&#45;&gt;Node14</title>
<g id="a_edge13_Node000013_Node000014"><a xlink:title=" ">
<path fill="none" stroke="#63b8ff" d="M241.14,-187.97C176.76,-182.75 73.64,-170 50,-141 41.44,-130.49 43.87,-122.59 50,-110.5 56.43,-97.83 68.33,-87.89 79.93,-80.65"/>
<polygon fill="#63b8ff" stroke="#63b8ff" points="81.63,-83.71 88.58,-75.72 78.16,-77.63 81.63,-83.71"/>
</a>
</g>
</g>
<!-- Node15 -->
<g id="Node000015" class="node">
<title>Node15</title>
<g id="a_Node000015"><a xlink:title=" ">
<polygon fill="#e0e0e0" stroke="#999999" points="366.5,-135.38 323.5,-135.38 323.5,-116.12 366.5,-116.12 366.5,-135.38"/>
<text text-anchor="middle" x="345" y="-121.88" font-family="Helvetica,sans-Serif" font-size="10.00">vector</text>
</a>
</g>
</g>
<!-- Node13&#45;&gt;Node15 -->
<g id="edge14_Node000013_Node000015" class="edge">
<title>Node13&#45;&gt;Node15</title>
<g id="a_edge14_Node000013_Node000015"><a xlink:title=" ">
<path fill="none" stroke="#63b8ff" d="M301.09,-182.28C308.78,-172.56 321.25,-156.79 330.94,-144.53"/>
<polygon fill="#63b8ff" stroke="#63b8ff" points="333.57,-146.84 337.03,-136.83 328.08,-142.5 333.57,-146.84"/>
</a>
</g>
</g>
<!-- Node16 -->
<g id="Node000016" class="node">
<title>Node16</title>
<g id="a_Node000016"><a xlink:href="motion__models_8hpp.html" target="_top" xlink:title=" ">
<polygon fill="white" stroke="#666666" points="162.5,-141 59.5,-141 59.5,-110.5 162.5,-110.5 162.5,-141"/>
<text text-anchor="start" x="67.5" y="-127.5" font-family="Helvetica,sans-Serif" font-size="10.00">kalman_filter/motion</text>
<text text-anchor="middle" x="111" y="-116.25" font-family="Helvetica,sans-Serif" font-size="10.00">_models.hpp</text>
</a>
</g>
</g>
<!-- Node13&#45;&gt;Node16 -->
<g id="edge15_Node000013_Node000016" class="edge">
<title>Node13&#45;&gt;Node16</title>
<g id="a_edge15_Node000013_Node000016"><a xlink:title=" ">
<path fill="none" stroke="#63b8ff" d="M268.17,-182.15C241.05,-172.59 197.68,-157.3 163.36,-145.2"/>
<polygon fill="#63b8ff" stroke="#63b8ff" points="164.58,-141.93 153.99,-141.9 162.26,-148.53 164.58,-141.93"/>
</a>
</g>
</g>
<!-- Node13&#45;&gt;Node17 -->
<g id="edge26_Node000013_Node000017" class="edge">
<title>Node13&#45;&gt;Node17</title>
<g id="a_edge26_Node000013_Node000017"><a xlink:title=" ">
<path fill="none" stroke="#63b8ff" d="M321.48,-182.28C340.23,-174.56 363.65,-161.39 375,-141 381.59,-129.15 382.9,-121.51 375,-110.5 362.98,-93.75 344.34,-83.21 324.81,-76.59"/>
<polygon fill="#63b8ff" stroke="#63b8ff" points="325.94,-73.28 315.36,-73.75 323.92,-79.98 325.94,-73.28"/>
</a>
</g>
</g>
<!-- Node22 -->
<g id="Node000022" class="node">
<title>Node22</title>
<g id="a_Node000022"><a xlink:href="observation__models_8hpp.html" target="_top" xlink:title=" ">
<polygon fill="white" stroke="#666666" points="305,-141 181,-141 181,-110.5 305,-110.5 305,-141"/>
<text text-anchor="start" x="189" y="-127.5" font-family="Helvetica,sans-Serif" font-size="10.00">kalman_filter/observation</text>
<text text-anchor="middle" x="243" y="-116.25" font-family="Helvetica,sans-Serif" font-size="10.00">_models.hpp</text>
</a>
</g>
</g>
<!-- Node13&#45;&gt;Node22 -->
<g id="edge23_Node000013_Node000022" class="edge">
<title>Node13&#45;&gt;Node22</title>
<g id="a_edge23_Node000013_Node000022"><a xlink:title=" ">
<path fill="none" stroke="#63b8ff" d="M286.91,-182.28C280.32,-173.95 270.23,-161.19 261.38,-149.99"/>
<polygon fill="#63b8ff" stroke="#63b8ff" points="264.23,-147.96 255.28,-142.28 258.74,-152.3 264.23,-147.96"/>
</a>
</g>
</g>
<!-- Node16&#45;&gt;Node14 -->
<g id="edge16_Node000016_Node000014" class="edge">
<title>Node16&#45;&gt;Node14</title>
<g id="a_edge16_Node000016_Node000014"><a xlink:title=" ">
<path fill="none" stroke="#63b8ff" d="M111,-110.2C111,-102.96 111,-94.09 111,-86.19"/>
<polygon fill="#63b8ff" stroke="#63b8ff" points="114.5,-86.46 111,-76.46 107.5,-86.46 114.5,-86.46"/>
</a>
</g>
</g>
<!-- Node16&#45;&gt;Node17 -->
<g id="edge17_Node000016_Node000017" class="edge">
<title>Node16&#45;&gt;Node17</title>
<g id="a_edge17_Node000016_Node000017"><a xlink:title=" ">
<path fill="none" stroke="#63b8ff" d="M143.97,-110.05C164.94,-100.69 191.91,-88.66 212.4,-79.52"/>
<polygon fill="#63b8ff" stroke="#63b8ff" points="213.67,-82.79 221.37,-75.52 210.82,-76.4 213.67,-82.79"/>
</a>
</g>
</g>
<!-- Node17&#45;&gt;Node7 -->
<g id="edge20_Node000017_Node000007" class="edge">
<title>Node17&#45;&gt;Node7</title>
<g id="a_edge20_Node000017_Node000007"><a xlink:title=" ">
<path fill="none" stroke="#63b8ff" d="M204.92,-54.78C161.55,-44.43 91.52,-27.7 51.23,-18.08"/>
<polygon fill="#63b8ff" stroke="#63b8ff" points="52.24,-14.73 41.7,-15.81 50.61,-21.53 52.24,-14.73"/>
</a>
</g>
</g>
<!-- Node18 -->
<g id="Node000018" class="node">
<title>Node18</title>
<g id="a_Node000018"><a xlink:title=" ">
<polygon fill="#e0e0e0" stroke="#999999" points="236.62,-19.25 191.38,-19.25 191.38,0 236.62,0 236.62,-19.25"/>
<text text-anchor="middle" x="214" y="-5.75" font-family="Helvetica,sans-Serif" font-size="10.00">chrono</text>
</a>
</g>
</g>
<!-- Node17&#45;&gt;Node18 -->
<g id="edge18_Node000017_Node000018" class="edge">
<title>Node17&#45;&gt;Node18</title>
<g id="a_edge18_Node000017_Node000018"><a xlink:title=" ">
<path fill="none" stroke="#63b8ff" d="M238.21,-55.08C234.46,-48.19 229.09,-38.34 224.37,-29.66"/>
<polygon fill="#63b8ff" stroke="#63b8ff" points="227.47,-28.05 219.62,-20.94 221.33,-31.39 227.47,-28.05"/>
</a>
</g>
</g>
<!-- Node19 -->
<g id="Node000019" class="node">
<title>Node19</title>
<g id="a_Node000019"><a xlink:title=" ">
<polygon fill="#e0e0e0" stroke="#999999" points="289.38,-19.25 254.62,-19.25 254.62,0 289.38,0 289.38,-19.25"/>
<text text-anchor="middle" x="272" y="-5.75" font-family="Helvetica,sans-Serif" font-size="10.00">map</text>
</a>
</g>
</g>
<!-- Node17&#45;&gt;Node19 -->
<g id="edge19_Node000017_Node000019" class="edge">
<title>Node17&#45;&gt;Node19</title>
<g id="a_edge19_Node000017_Node000019"><a xlink:title=" ">
<path fill="none" stroke="#63b8ff" d="M247.79,-55.08C251.54,-48.19 256.91,-38.34 261.63,-29.66"/>
<polygon fill="#63b8ff" stroke="#63b8ff" points="264.67,-31.39 266.38,-20.94 258.53,-28.05 264.67,-31.39"/>
</a>
</g>
</g>
<!-- Node20 -->
<g id="Node000020" class="node">
<title>Node20</title>
<g id="a_Node000020"><a xlink:title=" ">
<polygon fill="#e0e0e0" stroke="#999999" points="383,-19.25 307,-19.25 307,0 383,0 383,-19.25"/>
<text text-anchor="middle" x="345" y="-5.75" font-family="Helvetica,sans-Serif" font-size="10.00">utils/color.hpp</text>
</a>
</g>
</g>
<!-- Node17&#45;&gt;Node20 -->
<g id="edge21_Node000017_Node000020" class="edge">
<title>Node17&#45;&gt;Node20</title>
<g id="a_edge21_Node000017_Node000020"><a xlink:title=" ">
<path fill="none" stroke="#63b8ff" d="M260.3,-54.84C275.98,-46.66 299.35,-34.46 317.58,-24.94"/>
<polygon fill="#63b8ff" stroke="#63b8ff" points="319.03,-28.13 326.27,-20.4 315.79,-21.93 319.03,-28.13"/>
</a>
</g>
</g>
<!-- Node21 -->
<g id="Node000021" class="node">
<title>Node21</title>
<g id="a_Node000021"><a xlink:title=" ">
<polygon fill="#e0e0e0" stroke="#999999" points="173.38,-19.25 84.62,-19.25 84.62,0 173.38,0 173.38,-19.25"/>
<text text-anchor="middle" x="129" y="-5.75" font-family="Helvetica,sans-Serif" font-size="10.00">utils/position.hpp</text>
</a>
</g>
</g>
<!-- Node17&#45;&gt;Node21 -->
<g id="edge22_Node000017_Node000021" class="edge">
<title>Node17&#45;&gt;Node21</title>
<g id="a_edge22_Node000017_Node000021"><a xlink:title=" ">
<path fill="none" stroke="#63b8ff" d="M223.66,-54.84C205.89,-46.54 179.28,-34.11 158.8,-24.54"/>
<polygon fill="#63b8ff" stroke="#63b8ff" points="160.35,-21.4 149.8,-20.34 157.38,-27.75 160.35,-21.4"/>
</a>
</g>
</g>
<!-- Node22&#45;&gt;Node14 -->
<g id="edge24_Node000022_Node000014" class="edge">
<title>Node22&#45;&gt;Node14</title>
<g id="a_edge24_Node000022_Node000014"><a xlink:title=" ">
<path fill="none" stroke="#63b8ff" d="M210.03,-110.05C189.06,-100.69 162.09,-88.66 141.6,-79.52"/>
<polygon fill="#63b8ff" stroke="#63b8ff" points="143.18,-76.4 132.63,-75.52 140.33,-82.79 143.18,-76.4"/>
</a>
</g>
</g>
<!-- Node22&#45;&gt;Node17 -->
<g id="edge25_Node000022_Node000017" class="edge">
<title>Node22&#45;&gt;Node17</title>
<g id="a_edge25_Node000022_Node000017"><a xlink:title=" ">
<path fill="none" stroke="#63b8ff" d="M243,-110.2C243,-102.96 243,-94.09 243,-86.19"/>
<polygon fill="#63b8ff" stroke="#63b8ff" points="246.5,-86.46 243,-76.46 239.5,-86.46 246.5,-86.46"/>
</a>
</g>
</g>
</g>
</svg>

<g id="navigator" transform="translate(0 0)" fill="#404254">
  <rect fill="#f2f5e9" fill-opacity="0.5" stroke="#606060" stroke-width=".5" x="0" y="0" width="60" height="60"/>
  <use id="zoomplus" xlink:href="#zoomPlus" x="17" y="9" onmousedown="handleZoom(evt,'in')"/>
  <use id="zoomminus" xlink:href="#zoomMin" x="42" y="9" onmousedown="handleZoom(evt,'out')"/>
  <use id="reset" xlink:href="#resetDef" x="30" y="36" onmousedown="handleReset()"/>
   <use id="arrowup" xlink:href="#arrowUp" x="0" y="0" onmousedown="handlePan(0,-1)"/>
  <use id="arrowright" xlink:href="#arrowRight" x="0" y="0" onmousedown="handlePan(1,0)"/>
  <use id="arrowdown" xlink:href="#arrowDown" x="0" y="0" onmousedown="handlePan(0,1)"/>
  <use id="arrowleft" xlink:href="#arrowLeft" x="0" y="0" onmousedown="handlePan(-1,0)"/>
</g>
<svg viewBox="0 0 15 15" width="100%" height="30px" preserveAspectRatio="xMaxYMin meet">
 <g id="arrow_out" transform="scale(0.3 0.3)">
  <a xlink:href="loc__map_8cpp__incl_org.svg" target="_base">
   <rect id="button" ry="5" rx="5" y="6" x="6" height="38" width="38"
        fill="#f2f5e9" fill-opacity="0.5" stroke="#606060" stroke-width="1.0"/>
   <path id="arrow"
     d="M 11.500037,31.436501 C 11.940474,20.09759 22.043105,11.32322 32.158766,21.979434 L 37.068811,17.246167 C 37.068811,17.246167 37.088388,32 37.088388,32 L 22.160133,31.978069 C 22.160133,31.978069 26.997745,27.140456 26.997745,27.140456 C 18.528582,18.264221 13.291696,25.230495 11.500037,31.436501 z"
     style="fill:#404040;"/>
  </a>
 </g>
</svg>

<style type='text/css'>
<![CDATA[
[data-mouse-over-selected='false'] { opacity: 0.7; }
[data-mouse-over-selected='true']  { opacity: 1.0; }
]]>
</style>
<script type="application/ecmascript"><![CDATA[
document.addEventListener('DOMContentLoaded', (event) => {
  highlightEdges();
  highlightAdjacentNodes();
});
]]></script>
</svg>
