<?xml version="1.0" encoding="UTF-8" standalone="no"?>
<!DOCTYPE svg PUBLIC "-//W3C//DTD SVG 1.1//EN"
 "http://www.w3.org/Graphics/SVG/1.1/DTD/svg11.dtd">
<!-- Generated by graphviz version 9.0.0 (20230911.1827)
 -->
<!-- Title: src/planning/planning/include/planning/local_path_planner.hpp Pages: 1 -->
<svg width="732pt" height="194pt"
 viewBox="0.00 0.00 732.25 194.00" xmlns="http://www.w3.org/2000/svg" xmlns:xlink="http://www.w3.org/1999/xlink">
<g id="graph0" class="graph" transform="scale(1 1) rotate(0) translate(4 190)">
<title>src/planning/planning/include/planning/local_path_planner.hpp</title>
<!-- Node1 -->
<g id="Node000001" class="node">
<title>Node1</title>
<g id="a_Node000001"><a xlink:title=" ">
<polygon fill="#999999" stroke="#666666" points="551.5,-186 439.5,-186 439.5,-144.25 551.5,-144.25 551.5,-186"/>
<text text-anchor="start" x="447.5" y="-172.5" font-family="Helvetica,sans-Serif" font-size="10.00">src/planning/planning</text>
<text text-anchor="start" x="447.5" y="-161.25" font-family="Helvetica,sans-Serif" font-size="10.00">/include/planning/local</text>
<text text-anchor="middle" x="495.5" y="-150" font-family="Helvetica,sans-Serif" font-size="10.00">_path_planner.hpp</text>
</a>
</g>
</g>
<!-- Node2 -->
<g id="Node000002" class="node">
<title>Node2</title>
<g id="a_Node000002"><a xlink:href="planning_8hpp.html" target="_top" xlink:title=" ">
<polygon fill="white" stroke="#666666" points="401.38,-102.62 255.62,-102.62 255.62,-72.12 401.38,-72.12 401.38,-102.62"/>
<text text-anchor="start" x="263.62" y="-89.12" font-family="Helvetica,sans-Serif" font-size="10.00">src/planning/planning</text>
<text text-anchor="middle" x="328.5" y="-77.88" font-family="Helvetica,sans-Serif" font-size="10.00">/include/planning/planning.hpp</text>
</a>
</g>
</g>
<!-- Node1&#45;&gt;Node2 -->
<g id="edge1_Node000001_Node000002" class="edge">
<title>Node1&#45;&gt;Node2</title>
<g id="a_edge1_Node000001_Node000002"><a xlink:title=" ">
<path fill="none" stroke="#63b8ff" d="M440.51,-139.18C414.16,-127.23 383.5,-113.32 360.93,-103.08"/>
<polygon fill="#63b8ff" stroke="#63b8ff" points="438.82,-142.26 449.37,-143.2 441.71,-135.88 438.82,-142.26"/>
</a>
</g>
</g>
<!-- Node5 -->
<g id="Node000005" class="node">
<title>Node5</title>
<g id="a_Node000005"><a xlink:href="planning_8cpp.html" target="_top" xlink:title=" ">
<polygon fill="white" stroke="#666666" points="539.75,-30.5 411.25,-30.5 411.25,0 539.75,0 539.75,-30.5"/>
<text text-anchor="start" x="419.25" y="-17" font-family="Helvetica,sans-Serif" font-size="10.00">src/planning/planning</text>
<text text-anchor="middle" x="475.5" y="-5.75" font-family="Helvetica,sans-Serif" font-size="10.00">/src/planning/planning.cpp</text>
</a>
</g>
</g>
<!-- Node1&#45;&gt;Node5 -->
<g id="edge7_Node000001_Node000005" class="edge">
<title>Node1&#45;&gt;Node5</title>
<g id="a_edge7_Node000001_Node000005"><a xlink:title=" ">
<path fill="none" stroke="#63b8ff" d="M479.7,-133.47C476.32,-125.47 473.24,-116.71 471.5,-108.25 465.96,-81.32 469.67,-49.04 472.7,-30.77"/>
<polygon fill="#63b8ff" stroke="#63b8ff" points="476.46,-134.79 483.78,-142.44 482.83,-131.89 476.46,-134.79"/>
</a>
</g>
</g>
<!-- Node7 -->
<g id="Node000007" class="node">
<title>Node7</title>
<g id="a_Node000007"><a xlink:href="local__path__planner_8cpp.html" target="_top" xlink:title=" ">
<polygon fill="white" stroke="#666666" points="598.88,-108.25 480.12,-108.25 480.12,-66.5 598.88,-66.5 598.88,-108.25"/>
<text text-anchor="start" x="488.12" y="-94.75" font-family="Helvetica,sans-Serif" font-size="10.00">src/planning/planning</text>
<text text-anchor="start" x="488.12" y="-83.5" font-family="Helvetica,sans-Serif" font-size="10.00">/src/planning/local_path</text>
<text text-anchor="middle" x="539.5" y="-72.25" font-family="Helvetica,sans-Serif" font-size="10.00">_planner.cpp</text>
</a>
</g>
</g>
<!-- Node1&#45;&gt;Node7 -->
<g id="edge6_Node000001_Node000007" class="edge">
<title>Node1&#45;&gt;Node7</title>
<g id="a_edge6_Node000001_Node000007"><a xlink:title=" ">
<path fill="none" stroke="#63b8ff" d="M513.06,-133.9C517.97,-125.45 523.18,-116.46 527.68,-108.73"/>
<polygon fill="#63b8ff" stroke="#63b8ff" points="510.05,-132.11 508.05,-142.52 516.1,-135.63 510.05,-132.11"/>
</a>
</g>
</g>
<!-- Node8 -->
<g id="Node000008" class="node">
<title>Node8</title>
<g id="a_Node000008"><a xlink:href="tests_8cpp.html" target="_top" xlink:title=" ">
<polygon fill="white" stroke="#666666" points="724.25,-102.62 616.75,-102.62 616.75,-72.12 724.25,-72.12 724.25,-102.62"/>
<text text-anchor="start" x="624.75" y="-89.12" font-family="Helvetica,sans-Serif" font-size="10.00">src/planning/planning</text>
<text text-anchor="middle" x="670.5" y="-77.88" font-family="Helvetica,sans-Serif" font-size="10.00">/test/tests.cpp</text>
</a>
</g>
</g>
<!-- Node1&#45;&gt;Node8 -->
<g id="edge8_Node000001_Node000008" class="edge">
<title>Node1&#45;&gt;Node8</title>
<g id="a_edge8_Node000001_Node000008"><a xlink:title=" ">
<path fill="none" stroke="#63b8ff" d="M552.76,-139.34C580.46,-127.35 612.76,-113.37 636.52,-103.08"/>
<polygon fill="#63b8ff" stroke="#63b8ff" points="551.57,-136.04 543.79,-143.22 554.35,-142.46 551.57,-136.04"/>
</a>
</g>
</g>
<!-- Node3 -->
<g id="Node000003" class="node">
<title>Node3</title>
<g id="a_Node000003"><a xlink:href="planning_2planning_2src_2adapter_2adapter_8cpp.html" target="_top" xlink:title=" ">
<polygon fill="white" stroke="#666666" points="121,-30.5 0,-30.5 0,0 121,0 121,-30.5"/>
<text text-anchor="start" x="8" y="-17" font-family="Helvetica,sans-Serif" font-size="10.00">src/planning/planning</text>
<text text-anchor="middle" x="60.5" y="-5.75" font-family="Helvetica,sans-Serif" font-size="10.00">/src/adapter/adapter.cpp</text>
</a>
</g>
</g>
<!-- Node2&#45;&gt;Node3 -->
<g id="edge2_Node000002_Node000003" class="edge">
<title>Node2&#45;&gt;Node3</title>
<g id="a_edge2_Node000002_Node000003"><a xlink:title=" ">
<path fill="none" stroke="#63b8ff" d="M261.28,-68.79C216.65,-57.11 158.76,-41.96 116.61,-30.93"/>
<polygon fill="#63b8ff" stroke="#63b8ff" points="260.29,-72.15 270.85,-71.29 262.07,-65.37 260.29,-72.15"/>
</a>
</g>
</g>
<!-- Node4 -->
<g id="Node000004" class="node">
<title>Node4</title>
<g id="a_Node000004"><a xlink:href="planning_2planning_2src_2main_8cpp.html" target="_top" xlink:title=" ">
<polygon fill="white" stroke="#666666" points="246.25,-30.5 138.75,-30.5 138.75,0 246.25,0 246.25,-30.5"/>
<text text-anchor="start" x="146.75" y="-17" font-family="Helvetica,sans-Serif" font-size="10.00">src/planning/planning</text>
<text text-anchor="middle" x="192.5" y="-5.75" font-family="Helvetica,sans-Serif" font-size="10.00">/src/main.cpp</text>
</a>
</g>
</g>
<!-- Node2&#45;&gt;Node4 -->
<g id="edge3_Node000002_Node000004" class="edge">
<title>Node2&#45;&gt;Node4</title>
<g id="a_edge3_Node000002_Node000004"><a xlink:title=" ">
<path fill="none" stroke="#63b8ff" d="M289.99,-66.52C268.04,-55.2 241,-41.26 220.97,-30.93"/>
<polygon fill="#63b8ff" stroke="#63b8ff" points="288.15,-69.51 298.64,-70.98 291.36,-63.29 288.15,-69.51"/>
</a>
</g>
</g>
<!-- Node2&#45;&gt;Node5 -->
<g id="edge4_Node000002_Node000005" class="edge">
<title>Node2&#45;&gt;Node5</title>
<g id="a_edge4_Node000002_Node000005"><a xlink:title=" ">
<path fill="none" stroke="#63b8ff" d="M369.48,-66.83C393.32,-55.45 422.88,-41.35 444.72,-30.93"/>
<polygon fill="#63b8ff" stroke="#63b8ff" points="368.2,-63.56 360.68,-71.02 371.21,-69.88 368.2,-63.56"/>
</a>
</g>
</g>
<!-- Node6 -->
<g id="Node000006" class="node">
<title>Node6</title>
<g id="a_Node000006"><a xlink:href="integration__tests_8cpp.html" target="_top" xlink:title=" ">
<polygon fill="white" stroke="#666666" points="392.75,-30.5 264.25,-30.5 264.25,0 392.75,0 392.75,-30.5"/>
<text text-anchor="start" x="272.25" y="-17" font-family="Helvetica,sans-Serif" font-size="10.00">src/planning/planning</text>
<text text-anchor="middle" x="328.5" y="-5.75" font-family="Helvetica,sans-Serif" font-size="10.00">/test/integration_tests.cpp</text>
</a>
</g>
</g>
<!-- Node2&#45;&gt;Node6 -->
<g id="edge5_Node000002_Node000006" class="edge">
<title>Node2&#45;&gt;Node6</title>
<g id="a_edge5_Node000002_Node000006"><a xlink:title=" ">
<path fill="none" stroke="#63b8ff" d="M328.5,-60.4C328.5,-50.39 328.5,-39.31 328.5,-30.76"/>
<polygon fill="#63b8ff" stroke="#63b8ff" points="325,-60.33 328.5,-70.33 332,-60.33 325,-60.33"/>
</a>
</g>
</g>
</g>
</svg>
