<?xml version="1.0" encoding="UTF-8" standalone="no"?>
<!DOCTYPE svg PUBLIC "-//W3C//DTD SVG 1.1//EN"
 "http://www.w3.org/Graphics/SVG/1.1/DTD/svg11.dtd">
<!-- Generated by graphviz version 9.0.0 (20230911.1827)
 -->
<!-- Title: src/planning/planning/src/planning/local_path_planner.cpp Pages: 1 -->
<!--zoomable 371 -->

<svg id="main" version="1.1" xmlns="http://www.w3.org/2000/svg" xmlns:xlink="http://www.w3.org/1999/xlink" xml:space="preserve" onload="init(evt)">
<style type="text/css"><![CDATA[
.node, .edge {opacity: 0.7;}
.node.selected, .edge.selected {opacity: 1;}
.edge:hover path { stroke: red; }
.edge:hover polygon { stroke: red; fill: red; }
]]></style>

<defs>
  <circle id="rim" cx="0" cy="0" r="7"/>
  <circle id="rim2" cx="0" cy="0" r="3.5"/>
  <g id="zoomPlus">
    <use xlink:href="#rim" fill="#404040"><set attributeName="fill" to="#808080" begin="zoomplus.mouseover" end="zoomplus.mouseout"/></use>
    <path d="M-4,0h8M0,-4v8" fill="none" stroke="white" stroke-width="1.5" pointer-events="none"/>
  </g>
  <g id="zoomMin">
    <use xlink:href="#rim" fill="#404040"><set attributeName="fill" to="#808080" begin="zoomminus.mouseover" end="zoomminus.mouseout"/></use>
    <path d="M-4,0h8" fill="none" stroke="white" stroke-width="1.5" pointer-events="none"/>
  </g>
  <g id="arrowUp" transform="translate(30 24)">
    <use xlink:href="#rim"/>
    <path pointer-events="none" fill="none" stroke="white" stroke-width="1.5" d="M0,-3.0v7 M-2.5,-0.5L0,-3.0L2.5,-0.5"/>
  </g>
  <g id="arrowRight" transform="rotate(90) translate(36 -43)">
    <use xlink:href="#rim"/>
    <path pointer-events="none" fill="none" stroke="white" stroke-width="1.5" d="M0,-3.0v7 M-2.5,-0.5L0,-3.0L2.5,-0.5"/>
  </g>
  <g id="arrowDown" transform="rotate(180) translate(-30 -48)">
    <use xlink:href="#rim"/>
    <path pointer-events="none" fill="none" stroke="white" stroke-width="1.5" d="M0,-3.0v7 M-2.5,-0.5L0,-3.0L2.5,-0.5"/>
  </g>
  <g id="arrowLeft" transform="rotate(270) translate(-36 17)">
    <use xlink:href="#rim"/>
    <path pointer-events="none" fill="none" stroke="white" stroke-width="1.5" d="M0,-3.0v7 M-2.5,-0.5L0,-3.0L2.5,-0.5"/>
  </g>
  <g id="resetDef">
    <use xlink:href="#rim2" fill="#404040"><set attributeName="fill" to="#808080" begin="reset.mouseover" end="reset.mouseout"/></use>
  </g>
</defs>
<script type="application/ecmascript">
var viewWidth = 1136;
var viewHeight = 371;
var sectionId = 'dynsection-0';
</script>
<script type="application/ecmascript" xlink:href="svg.min.js"/>
<svg id="graph" class="graph">
<g id="viewport">
<title>src/planning/planning/src/planning/local_path_planner.cpp</title>
<!-- Node1 -->
<g id="Node000001" class="node">
<title>Node1</title>
<g id="a_Node000001"><a xlink:title=" ">
<polygon fill="#999999" stroke="#666666" points="970.38,-363 851.62,-363 851.62,-321.25 970.38,-321.25 970.38,-363"/>
<text text-anchor="start" x="859.62" y="-349.5" font-family="Helvetica,sans-Serif" font-size="10.00">src/planning/planning</text>
<text text-anchor="start" x="859.62" y="-338.25" font-family="Helvetica,sans-Serif" font-size="10.00">/src/planning/local_path</text>
<text text-anchor="middle" x="911" y="-327" font-family="Helvetica,sans-Serif" font-size="10.00">_planner.cpp</text>
</a>
</g>
</g>
<!-- Node2 -->
<g id="Node000002" class="node">
<title>Node2</title>
<g id="a_Node000002"><a xlink:href="local__path__planner_8hpp.html" target="_top" xlink:title=" ">
<polygon fill="white" stroke="#666666" points="882.62,-285.25 783.38,-285.25 783.38,-254.75 882.62,-254.75 882.62,-285.25"/>
<text text-anchor="start" x="791.38" y="-271.75" font-family="Helvetica,sans-Serif" font-size="10.00">planning/local_path</text>
<text text-anchor="middle" x="833" y="-260.5" font-family="Helvetica,sans-Serif" font-size="10.00">_planner.hpp</text>
</a>
</g>
</g>
<!-- Node1&#45;&gt;Node2 -->
<g id="edge1_Node000001_Node000002" class="edge">
<title>Node1&#45;&gt;Node2</title>
<g id="a_edge1_Node000001_Node000002"><a xlink:title=" ">
<path fill="none" stroke="#63b8ff" d="M888.44,-320.84C878.7,-312.08 867.28,-301.82 857.34,-292.88"/>
<polygon fill="#63b8ff" stroke="#63b8ff" points="859.98,-290.55 850.2,-286.46 855.3,-295.75 859.98,-290.55"/>
</a>
</g>
</g>
<!-- Node5 -->
<g id="Node000005" class="node">
<title>Node5</title>
<g id="a_Node000005"><a xlink:title=" ">
<polygon fill="#e0e0e0" stroke="#999999" points="316.5,-19.25 273.5,-19.25 273.5,0 316.5,0 316.5,-19.25"/>
<text text-anchor="middle" x="295" y="-5.75" font-family="Helvetica,sans-Serif" font-size="10.00">cmath</text>
</a>
</g>
</g>
<!-- Node1&#45;&gt;Node5 -->
<g id="edge35_Node000001_Node000005" class="edge">
<title>Node1&#45;&gt;Node5</title>
<g id="a_edge35_Node000001_Node000005"><a xlink:title=" ">
<path fill="none" stroke="#63b8ff" d="M851.28,-337.27C660.17,-324.15 76,-277.59 76,-198.88 76,-198.88 76,-198.88 76,-130.38 76,-88.36 201.68,-41.28 262.62,-20.92"/>
<polygon fill="#63b8ff" stroke="#63b8ff" points="263.36,-24.36 271.76,-17.91 261.17,-17.71 263.36,-24.36"/>
</a>
</g>
</g>
<!-- Node6 -->
<g id="Node000006" class="node">
<title>Node6</title>
<g id="a_Node000006"><a xlink:title=" ">
<polygon fill="#e0e0e0" stroke="#999999" points="1071.38,-207.5 1036.62,-207.5 1036.62,-188.25 1071.38,-188.25 1071.38,-207.5"/>
<text text-anchor="middle" x="1054" y="-194" font-family="Helvetica,sans-Serif" font-size="10.00">map</text>
</a>
</g>
</g>
<!-- Node1&#45;&gt;Node6 -->
<g id="edge36_Node000001_Node000006" class="edge">
<title>Node1&#45;&gt;Node6</title>
<g id="a_edge36_Node000001_Node000006"><a xlink:title=" ">
<path fill="none" stroke="#63b8ff" d="M911.68,-320.92C913.35,-301.72 918.66,-273.13 935,-254.75 963.08,-223.17 985.5,-238.23 1023,-218.75 1025.78,-217.31 1028.62,-215.69 1031.41,-214.02"/>
<polygon fill="#63b8ff" stroke="#63b8ff" points="1033.18,-217.04 1039.76,-208.74 1029.44,-211.13 1033.18,-217.04"/>
</a>
</g>
</g>
<!-- Node7 -->
<g id="Node000007" class="node">
<title>Node7</title>
<g id="a_Node000007"><a xlink:title=" ">
<polygon fill="#e0e0e0" stroke="#999999" points="1128.25,-207.5 1089.75,-207.5 1089.75,-188.25 1128.25,-188.25 1128.25,-207.5"/>
<text text-anchor="middle" x="1109" y="-194" font-family="Helvetica,sans-Serif" font-size="10.00">utility</text>
</a>
</g>
</g>
<!-- Node1&#45;&gt;Node7 -->
<g id="edge38_Node000001_Node000007" class="edge">
<title>Node1&#45;&gt;Node7</title>
<g id="a_edge38_Node000001_Node000007"><a xlink:title=" ">
<path fill="none" stroke="#63b8ff" d="M919.55,-320.76C928.77,-301.16 945.25,-272.02 968,-254.75 1009.65,-223.14 1033.05,-241.77 1080,-218.75 1082.78,-217.39 1085.6,-215.78 1088.33,-214.09"/>
<polygon fill="#63b8ff" stroke="#63b8ff" points="1090.04,-217.15 1096.37,-208.66 1086.12,-211.35 1090.04,-217.15"/>
</a>
</g>
</g>
<!-- Node8 -->
<g id="Node000008" class="node">
<title>Node8</title>
<g id="a_Node000008"><a xlink:title=" ">
<polygon fill="#e0e0e0" stroke="#999999" points="223.5,-19.25 180.5,-19.25 180.5,0 223.5,0 223.5,-19.25"/>
<text text-anchor="middle" x="202" y="-5.75" font-family="Helvetica,sans-Serif" font-size="10.00">vector</text>
</a>
</g>
</g>
<!-- Node1&#45;&gt;Node8 -->
<g id="edge39_Node000001_Node000008" class="edge">
<title>Node1&#45;&gt;Node8</title>
<g id="a_edge39_Node000001_Node000008"><a xlink:title=" ">
<path fill="none" stroke="#63b8ff" d="M851.19,-339.08C702.26,-333.57 317.9,-316.67 194,-285.25 102.51,-262.05 0,-293.26 0,-198.88 0,-198.88 0,-198.88 0,-130.38 0,-52.73 111.8,-24.34 169.05,-14.89"/>
<polygon fill="#63b8ff" stroke="#63b8ff" points="169.53,-18.35 178.89,-13.38 168.47,-11.43 169.53,-18.35"/>
</a>
</g>
</g>
<!-- Node22 -->
<g id="Node000022" class="node">
<title>Node22</title>
<g id="a_Node000022"><a xlink:title=" ">
<polygon fill="#e0e0e0" stroke="#999999" points="1032.88,-279.62 977.12,-279.62 977.12,-260.38 1032.88,-260.38 1032.88,-279.62"/>
<text text-anchor="middle" x="1005" y="-266.12" font-family="Helvetica,sans-Serif" font-size="10.00">algorithm</text>
</a>
</g>
</g>
<!-- Node1&#45;&gt;Node22 -->
<g id="edge34_Node000001_Node000022" class="edge">
<title>Node1&#45;&gt;Node22</title>
<g id="a_edge34_Node000001_Node000022"><a xlink:title=" ">
<path fill="none" stroke="#63b8ff" d="M938.19,-320.84C952.76,-309.97 970.45,-296.78 983.96,-286.7"/>
<polygon fill="#63b8ff" stroke="#63b8ff" points="985.82,-289.67 991.74,-280.89 981.63,-284.06 985.82,-289.67"/>
</a>
</g>
</g>
<!-- Node23 -->
<g id="Node000023" class="node">
<title>Node23</title>
<g id="a_Node000023"><a xlink:title=" ">
<polygon fill="#e0e0e0" stroke="#999999" points="1080.75,-279.62 1051.25,-279.62 1051.25,-260.38 1080.75,-260.38 1080.75,-279.62"/>
<text text-anchor="middle" x="1066" y="-266.12" font-family="Helvetica,sans-Serif" font-size="10.00">set</text>
</a>
</g>
</g>
<!-- Node1&#45;&gt;Node23 -->
<g id="edge37_Node000001_Node000023" class="edge">
<title>Node1&#45;&gt;Node23</title>
<g id="a_edge37_Node000001_Node000023"><a xlink:title=" ">
<path fill="none" stroke="#63b8ff" d="M963.05,-320.78C985,-311.78 1010.88,-300.61 1041.38,-285.21"/>
<polygon fill="#63b8ff" stroke="#63b8ff" points="1042.8,-288.42 1050.1,-280.75 1039.61,-282.19 1042.8,-288.42"/>
</a>
</g>
</g>
<!-- Node3 -->
<g id="Node000003" class="node">
<title>Node3</title>
<g id="a_Node000003"><a xlink:title=" ">
<polygon fill="#e0e0e0" stroke="#999999" points="766.75,-207.5 605.25,-207.5 605.25,-188.25 766.75,-188.25 766.75,-207.5"/>
<text text-anchor="middle" x="686" y="-194" font-family="Helvetica,sans-Serif" font-size="10.00">CGAL/Delaunay_triangulation_2.h</text>
</a>
</g>
</g>
<!-- Node2&#45;&gt;Node3 -->
<g id="edge2_Node000002_Node000003" class="edge">
<title>Node2&#45;&gt;Node3</title>
<g id="a_edge2_Node000002_Node000003"><a xlink:title=" ">
<path fill="none" stroke="#63b8ff" d="M802.18,-254.3C776.66,-242.12 740.63,-224.94 715.49,-212.94"/>
<polygon fill="#63b8ff" stroke="#63b8ff" points="717.01,-209.79 706.47,-208.64 713.99,-216.11 717.01,-209.79"/>
</a>
</g>
</g>
<!-- Node4 -->
<g id="Node000004" class="node">
<title>Node4</title>
<g id="a_Node000004"><a xlink:title=" ">
<polygon fill="#e0e0e0" stroke="#999999" points="981.12,-218.75 860.88,-218.75 860.88,-177 981.12,-177 981.12,-218.75"/>
<text text-anchor="start" x="868.88" y="-205.25" font-family="Helvetica,sans-Serif" font-size="10.00">CGAL/Exact_predicates</text>
<text text-anchor="start" x="868.88" y="-194" font-family="Helvetica,sans-Serif" font-size="10.00">_inexact_constructions</text>
<text text-anchor="middle" x="921" y="-182.75" font-family="Helvetica,sans-Serif" font-size="10.00">_kernel.h</text>
</a>
</g>
</g>
<!-- Node2&#45;&gt;Node4 -->
<g id="edge3_Node000002_Node000004" class="edge">
<title>Node2&#45;&gt;Node4</title>
<g id="a_edge3_Node000002_Node000004"><a xlink:title=" ">
<path fill="none" stroke="#63b8ff" d="M851.23,-254.47C861.42,-246.35 874.46,-235.96 886.5,-226.37"/>
<polygon fill="#63b8ff" stroke="#63b8ff" points="888.63,-229.15 894.27,-220.18 884.26,-223.67 888.63,-229.15"/>
</a>
</g>
</g>
<!-- Node2&#45;&gt;Node5 -->
<g id="edge4_Node000002_Node000005" class="edge">
<title>Node2&#45;&gt;Node5</title>
<g id="a_edge4_Node000002_Node000005"><a xlink:title=" ">
<path fill="none" stroke="#63b8ff" d="M882.93,-259.64C923.88,-250.83 977.13,-236.38 990,-218.75 1054.81,-129.96 940.98,-92.77 853,-55.25 757.66,-14.59 433.8,-10.7 328.43,-10.54"/>
<polygon fill="#63b8ff" stroke="#63b8ff" points="328.48,-7.04 318.48,-10.54 328.48,-14.04 328.48,-7.04"/>
</a>
</g>
</g>
<!-- Node2&#45;&gt;Node6 -->
<g id="edge5_Node000002_Node000006" class="edge">
<title>Node2&#45;&gt;Node6</title>
<g id="a_edge5_Node000002_Node000006"><a xlink:title=" ">
<path fill="none" stroke="#63b8ff" d="M883.02,-257.63C930.47,-246.52 998.09,-229.7 1023,-218.75 1026.07,-217.4 1029.19,-215.77 1032.2,-214.02"/>
<polygon fill="#63b8ff" stroke="#63b8ff" points="1033.97,-217.04 1040.55,-208.74 1030.23,-211.13 1033.97,-217.04"/>
</a>
</g>
</g>
<!-- Node2&#45;&gt;Node7 -->
<g id="edge6_Node000002_Node000007" class="edge">
<title>Node2&#45;&gt;Node7</title>
<g id="a_edge6_Node000002_Node000007"><a xlink:title=" ">
<path fill="none" stroke="#63b8ff" d="M883.07,-261.24C944.6,-251.27 1045.15,-233.52 1080,-218.75 1082.9,-217.52 1085.82,-215.98 1088.61,-214.3"/>
<polygon fill="#63b8ff" stroke="#63b8ff" points="1090.46,-217.27 1096.79,-208.78 1086.54,-211.47 1090.46,-217.27"/>
</a>
</g>
</g>
<!-- Node2&#45;&gt;Node8 -->
<g id="edge7_Node000002_Node000008" class="edge">
<title>Node2&#45;&gt;Node8</title>
<g id="a_edge7_Node000002_Node000008"><a xlink:title=" ">
<path fill="none" stroke="#63b8ff" d="M782.96,-268.07C634.89,-264.13 204.02,-243.89 120,-141 107.88,-126.16 99.91,-99.82 129,-55.25 138.6,-40.54 154.92,-29.89 169.69,-22.7"/>
<polygon fill="#63b8ff" stroke="#63b8ff" points="170.98,-25.96 178.68,-18.68 168.12,-19.57 170.98,-25.96"/>
</a>
</g>
</g>
<!-- Node9 -->
<g id="Node000009" class="node">
<title>Node9</title>
<g id="a_Node000009"><a xlink:href="planning_2planning_2include_2utils_2position_8hpp.html" target="_top" xlink:title=" ">
<polygon fill="white" stroke="#666666" points="736.12,-80.12 639.88,-80.12 639.88,-60.88 736.12,-60.88 736.12,-80.12"/>
<text text-anchor="middle" x="688" y="-66.62" font-family="Helvetica,sans-Serif" font-size="10.00">../utils/position.hpp</text>
</a>
</g>
</g>
<!-- Node2&#45;&gt;Node9 -->
<g id="edge8_Node000002_Node000009" class="edge">
<title>Node2&#45;&gt;Node9</title>
<g id="a_edge8_Node000002_Node000009"><a xlink:title=" ">
<path fill="none" stroke="#63b8ff" d="M824.72,-254.25C814.14,-235.73 794.91,-203.21 776,-177 752.63,-144.6 722.17,-109.44 703.91,-89"/>
<polygon fill="#63b8ff" stroke="#63b8ff" points="706.53,-86.68 697.23,-81.59 701.32,-91.36 706.53,-86.68"/>
</a>
</g>
</g>
<!-- Node11 -->
<g id="Node000011" class="node">
<title>Node11</title>
<g id="a_Node000011"><a xlink:href="track_8hpp.html" target="_top" xlink:title=" ">
<polygon fill="white" stroke="#666666" points="571.5,-207.5 510.5,-207.5 510.5,-188.25 571.5,-188.25 571.5,-207.5"/>
<text text-anchor="middle" x="541" y="-194" font-family="Helvetica,sans-Serif" font-size="10.00">./track.hpp</text>
</a>
</g>
</g>
<!-- Node2&#45;&gt;Node11 -->
<g id="edge12_Node000002_Node000011" class="edge">
<title>Node2&#45;&gt;Node11</title>
<g id="a_edge12_Node000002_Node000011"><a xlink:title=" ">
<path fill="none" stroke="#63b8ff" d="M783.03,-260.48C734.73,-251.75 659.7,-236.92 596,-218.75 588.95,-216.74 581.51,-214.28 574.45,-211.79"/>
<polygon fill="#63b8ff" stroke="#63b8ff" points="575.8,-208.56 565.2,-208.42 573.4,-215.14 575.8,-208.56"/>
</a>
</g>
</g>
<!-- Node17 -->
<g id="Node000017" class="node">
<title>Node17</title>
<g id="a_Node000017"><a xlink:title=" ">
<polygon fill="#e0e0e0" stroke="#999999" points="843.75,-80.12 754.25,-80.12 754.25,-60.88 843.75,-60.88 843.75,-80.12"/>
<text text-anchor="middle" x="799" y="-66.62" font-family="Helvetica,sans-Serif" font-size="10.00">rclcpp/rclcpp.hpp</text>
</a>
</g>
</g>
<!-- Node2&#45;&gt;Node17 -->
<g id="edge33_Node000002_Node000017" class="edge">
<title>Node2&#45;&gt;Node17</title>
<g id="a_edge33_Node000002_Node000017"><a xlink:title=" ">
<path fill="none" stroke="#63b8ff" d="M830.78,-254.34C826.74,-227.83 817.76,-170.18 809,-121.75 807.19,-111.76 805.01,-100.69 803.14,-91.49"/>
<polygon fill="#63b8ff" stroke="#63b8ff" points="806.61,-90.95 801.17,-81.86 799.75,-92.36 806.61,-90.95"/>
</a>
</g>
</g>
<!-- Node9&#45;&gt;Node5 -->
<g id="edge9_Node000009_Node000005" class="edge">
<title>Node9&#45;&gt;Node5</title>
<g id="a_edge9_Node000009_Node000005"><a xlink:title=" ">
<path fill="none" stroke="#63b8ff" d="M654.38,-60.43C646.73,-58.55 638.61,-56.7 631,-55.25 520.72,-34.21 388.2,-19.75 327.84,-13.74"/>
<polygon fill="#63b8ff" stroke="#63b8ff" points="328.56,-10.3 318.26,-12.8 327.87,-17.26 328.56,-10.3"/>
</a>
</g>
</g>
<!-- Node9&#45;&gt;Node8 -->
<g id="edge11_Node000009_Node000008" class="edge">
<title>Node9&#45;&gt;Node8</title>
<g id="a_edge11_Node000009_Node000008"><a xlink:title=" ">
<path fill="none" stroke="#63b8ff" d="M655.02,-60.38C647.19,-58.46 638.84,-56.61 631,-55.25 469.51,-27.3 426.75,-38.55 264,-19.25 254.59,-18.13 244.4,-16.78 235.05,-15.47"/>
<polygon fill="#63b8ff" stroke="#63b8ff" points="235.67,-12.03 225.28,-14.09 234.69,-18.96 235.67,-12.03"/>
</a>
</g>
</g>
<!-- Node10 -->
<g id="Node000010" class="node">
<title>Node10</title>
<g id="a_Node000010"><a xlink:title=" ">
<polygon fill="#e0e0e0" stroke="#999999" points="804.5,-19.25 755.5,-19.25 755.5,0 804.5,0 804.5,-19.25"/>
<text text-anchor="middle" x="780" y="-5.75" font-family="Helvetica,sans-Serif" font-size="10.00">fstream</text>
</a>
</g>
</g>
<!-- Node9&#45;&gt;Node10 -->
<g id="edge10_Node000009_Node000010" class="edge">
<title>Node9&#45;&gt;Node10</title>
<g id="a_edge10_Node000009_Node000010"><a xlink:title=" ">
<path fill="none" stroke="#63b8ff" d="M701.97,-60.56C716.43,-51.31 739.26,-36.7 756.5,-25.67"/>
<polygon fill="#63b8ff" stroke="#63b8ff" points="758.08,-28.81 764.62,-20.47 754.31,-22.91 758.08,-28.81"/>
</a>
</g>
</g>
<!-- Node11&#45;&gt;Node8 -->
<g id="edge19_Node000011_Node000008" class="edge">
<title>Node11&#45;&gt;Node8</title>
<g id="a_edge19_Node000011_Node000008"><a xlink:title=" ">
<path fill="none" stroke="#63b8ff" d="M510.07,-197.6C423.55,-198.92 182.17,-197.37 133,-141 101.88,-105.32 151.69,-53.18 181.77,-26.96"/>
<polygon fill="#63b8ff" stroke="#63b8ff" points="183.83,-29.81 189.21,-20.68 179.31,-24.46 183.83,-29.81"/>
</a>
</g>
</g>
<!-- Node11&#45;&gt;Node10 -->
<g id="edge16_Node000011_Node000010" class="edge">
<title>Node11&#45;&gt;Node10</title>
<g id="a_edge16_Node000011_Node000010"><a xlink:title=" ">
<path fill="none" stroke="#63b8ff" d="M564.67,-187.83C574.33,-184.26 585.64,-180.26 596,-177 711.63,-140.65 787.15,-187.51 853,-85.75 860.36,-74.37 859.63,-67.07 853,-55.25 844.76,-40.55 829.48,-30.11 815.03,-23.05"/>
<polygon fill="#63b8ff" stroke="#63b8ff" points="816.7,-19.96 806.14,-19.1 813.86,-26.36 816.7,-19.96"/>
</a>
</g>
</g>
<!-- Node12 -->
<g id="Node000012" class="node">
<title>Node12</title>
<g id="a_Node000012"><a xlink:title=" ">
<polygon fill="#e0e0e0" stroke="#999999" points="230,-141 142,-141 142,-121.75 230,-121.75 230,-141"/>
<text text-anchor="middle" x="186" y="-127.5" font-family="Helvetica,sans-Serif" font-size="10.00">gsl/gsl_bspline.h</text>
</a>
</g>
</g>
<!-- Node11&#45;&gt;Node12 -->
<g id="edge13_Node000011_Node000012" class="edge">
<title>Node11&#45;&gt;Node12</title>
<g id="a_edge13_Node000011_Node000012"><a xlink:title=" ">
<path fill="none" stroke="#63b8ff" d="M510.12,-191.26C450.19,-180.38 317.38,-156.24 241.68,-142.49"/>
<polygon fill="#63b8ff" stroke="#63b8ff" points="242.44,-139.07 231.98,-140.73 241.19,-145.96 242.44,-139.07"/>
</a>
</g>
</g>
<!-- Node13 -->
<g id="Node000013" class="node">
<title>Node13</title>
<g id="a_Node000013"><a xlink:title=" ">
<polygon fill="#e0e0e0" stroke="#999999" points="333.88,-141 248.12,-141 248.12,-121.75 333.88,-121.75 333.88,-141"/>
<text text-anchor="middle" x="291" y="-127.5" font-family="Helvetica,sans-Serif" font-size="10.00">gsl/gsl_multifit.h</text>
</a>
</g>
</g>
<!-- Node11&#45;&gt;Node13 -->
<g id="edge14_Node000011_Node000013" class="edge">
<title>Node11&#45;&gt;Node13</title>
<g id="a_edge14_Node000011_Node000013"><a xlink:title=" ">
<path fill="none" stroke="#63b8ff" d="M510.09,-188.9C466.74,-177.71 387.52,-157.28 337.16,-144.28"/>
<polygon fill="#63b8ff" stroke="#63b8ff" points="338.28,-140.96 327.72,-141.85 336.53,-147.74 338.28,-140.96"/>
</a>
</g>
</g>
<!-- Node14 -->
<g id="Node000014" class="node">
<title>Node14</title>
<g id="a_Node000014"><a xlink:title=" ">
<polygon fill="#e0e0e0" stroke="#999999" points="397.62,-141 352.38,-141 352.38,-121.75 397.62,-121.75 397.62,-141"/>
<text text-anchor="middle" x="375" y="-127.5" font-family="Helvetica,sans-Serif" font-size="10.00">cstring</text>
</a>
</g>
</g>
<!-- Node11&#45;&gt;Node14 -->
<g id="edge15_Node000011_Node000014" class="edge">
<title>Node11&#45;&gt;Node14</title>
<g id="a_edge15_Node000011_Node000014"><a xlink:title=" ">
<path fill="none" stroke="#63b8ff" d="M517.57,-187.77C489.06,-176.69 440.75,-157.92 408.37,-145.34"/>
<polygon fill="#63b8ff" stroke="#63b8ff" points="410.04,-142.24 399.46,-141.88 407.51,-148.76 410.04,-142.24"/>
</a>
</g>
</g>
<!-- Node15 -->
<g id="Node000015" class="node">
<title>Node15</title>
<g id="a_Node000015"><a xlink:title=" ">
<polygon fill="#e0e0e0" stroke="#999999" points="468.75,-141 415.25,-141 415.25,-121.75 468.75,-121.75 468.75,-141"/>
<text text-anchor="middle" x="442" y="-127.5" font-family="Helvetica,sans-Serif" font-size="10.00">iostream</text>
</a>
</g>
</g>
<!-- Node11&#45;&gt;Node15 -->
<g id="edge17_Node000011_Node000015" class="edge">
<title>Node11&#45;&gt;Node15</title>
<g id="a_edge17_Node000011_Node000015"><a xlink:title=" ">
<path fill="none" stroke="#63b8ff" d="M527.23,-187.91C511.29,-177.52 484.76,-160.23 465.53,-147.7"/>
<polygon fill="#63b8ff" stroke="#63b8ff" points="467.53,-144.83 457.24,-142.3 463.7,-150.69 467.53,-144.83"/>
</a>
</g>
</g>
<!-- Node16 -->
<g id="Node000016" class="node">
<title>Node16</title>
<g id="a_Node000016"><a xlink:title=" ">
<polygon fill="#e0e0e0" stroke="#999999" points="341,-80.12 301,-80.12 301,-60.88 341,-60.88 341,-80.12"/>
<text text-anchor="middle" x="321" y="-66.62" font-family="Helvetica,sans-Serif" font-size="10.00">string</text>
</a>
</g>
</g>
<!-- Node11&#45;&gt;Node16 -->
<g id="edge18_Node000011_Node000016" class="edge">
<title>Node11&#45;&gt;Node16</title>
<g id="a_edge18_Node000011_Node000016"><a xlink:title=" ">
<path fill="none" stroke="#63b8ff" d="M550.03,-188.07C564.39,-173.01 589.15,-141.98 572,-121.75 540.39,-84.46 401.97,-99.29 355,-85.75 353.65,-85.36 352.28,-84.93 350.91,-84.48"/>
<polygon fill="#63b8ff" stroke="#63b8ff" points="352.51,-81.34 341.91,-81.11 350.05,-87.9 352.51,-81.34"/>
</a>
</g>
</g>
<!-- Node11&#45;&gt;Node17 -->
<g id="edge20_Node000011_Node000017" class="edge">
<title>Node11&#45;&gt;Node17</title>
<g id="a_edge20_Node000011_Node000017"><a xlink:title=" ">
<path fill="none" stroke="#63b8ff" d="M565.89,-187.8C575.31,-184.39 586.14,-180.49 596,-177 642.11,-160.69 656.45,-163.27 700,-141 729.59,-125.87 760.43,-102.88 779.67,-87.54"/>
<polygon fill="#63b8ff" stroke="#63b8ff" points="781.62,-90.46 787.19,-81.44 777.21,-85.02 781.62,-90.46"/>
</a>
</g>
</g>
<!-- Node18 -->
<g id="Node000018" class="node">
<title>Node18</title>
<g id="a_Node000018"><a xlink:href="cone_8hpp.html" target="_top" xlink:title=" ">
<polygon fill="white" stroke="#666666" points="563,-141 487,-141 487,-121.75 563,-121.75 563,-141"/>
<text text-anchor="middle" x="525" y="-127.5" font-family="Helvetica,sans-Serif" font-size="10.00">utils/cone.hpp</text>
</a>
</g>
</g>
<!-- Node11&#45;&gt;Node18 -->
<g id="edge21_Node000011_Node000018" class="edge">
<title>Node11&#45;&gt;Node18</title>
<g id="a_edge21_Node000011_Node000018"><a xlink:title=" ">
<path fill="none" stroke="#63b8ff" d="M538.78,-187.91C536.51,-178.76 532.91,-164.27 529.96,-152.38"/>
<polygon fill="#63b8ff" stroke="#63b8ff" points="533.38,-151.6 527.57,-142.74 526.58,-153.28 533.38,-151.6"/>
</a>
</g>
</g>
<!-- Node19 -->
<g id="Node000019" class="node">
<title>Node19</title>
<g id="a_Node000019"><a xlink:href="files_8hpp.html" target="_top" xlink:title=" ">
<polygon fill="white" stroke="#666666" points="691.12,-141 618.88,-141 618.88,-121.75 691.12,-121.75 691.12,-141"/>
<text text-anchor="middle" x="655" y="-127.5" font-family="Helvetica,sans-Serif" font-size="10.00">utils/files.hpp</text>
</a>
</g>
</g>
<!-- Node11&#45;&gt;Node19 -->
<g id="edge25_Node000011_Node000019" class="edge">
<title>Node11&#45;&gt;Node19</title>
<g id="a_edge25_Node000011_Node000019"><a xlink:title=" ">
<path fill="none" stroke="#63b8ff" d="M552.01,-187.91C568.67,-177.23 600.12,-159.27 624.01,-146.67"/>
<polygon fill="#63b8ff" stroke="#63b8ff" points="625.43,-149.88 632.7,-142.17 622.21,-143.66 625.43,-149.88"/>
</a>
</g>
</g>
<!-- Node18&#45;&gt;Node5 -->
<g id="edge22_Node000018_Node000005" class="edge">
<title>Node18&#45;&gt;Node5</title>
<g id="a_edge22_Node000018_Node000005"><a xlink:title=" ">
<path fill="none" stroke="#63b8ff" d="M486.68,-123.19C420.75,-110.82 292.78,-86.69 292,-85.75 279.42,-70.53 282.75,-47.06 287.59,-30.41"/>
<polygon fill="#63b8ff" stroke="#63b8ff" points="290.84,-31.74 290.69,-21.14 284.2,-29.52 290.84,-31.74"/>
</a>
</g>
</g>
<!-- Node18&#45;&gt;Node8 -->
<g id="edge24_Node000018_Node000008" class="edge">
<title>Node18&#45;&gt;Node8</title>
<g id="a_edge24_Node000018_Node000008"><a xlink:title=" ">
<path fill="none" stroke="#63b8ff" d="M486.53,-123.31C483.64,-122.78 480.77,-122.26 478,-121.75 390.01,-105.68 359.61,-126.52 280,-85.75 253.03,-71.94 229.11,-45.75 215.08,-28.23"/>
<polygon fill="#63b8ff" stroke="#63b8ff" points="218.16,-26.5 209.28,-20.73 212.62,-30.78 218.16,-26.5"/>
</a>
</g>
</g>
<!-- Node18&#45;&gt;Node16 -->
<g id="edge23_Node000018_Node000016" class="edge">
<title>Node18&#45;&gt;Node16</title>
<g id="a_edge23_Node000018_Node000016"><a xlink:title=" ">
<path fill="none" stroke="#63b8ff" d="M486.74,-121.95C451.98,-113.92 399.5,-100.83 355,-85.75 354.02,-85.42 353.03,-85.07 352.03,-84.71"/>
<polygon fill="#63b8ff" stroke="#63b8ff" points="353.32,-81.46 342.73,-81.11 350.79,-87.98 353.32,-81.46"/>
</a>
</g>
</g>
<!-- Node19&#45;&gt;Node8 -->
<g id="edge29_Node000019_Node000008" class="edge">
<title>Node19&#45;&gt;Node8</title>
<g id="a_edge29_Node000019_Node000008"><a xlink:title=" ">
<path fill="none" stroke="#63b8ff" d="M618.47,-125.32C550.31,-115.73 408.72,-95.03 388,-85.75 368.23,-76.9 369.16,-65.34 350,-55.25 312.83,-35.68 265.8,-23.36 234.85,-16.74"/>
<polygon fill="#63b8ff" stroke="#63b8ff" points="235.81,-13.37 225.31,-14.78 234.4,-20.22 235.81,-13.37"/>
</a>
</g>
</g>
<!-- Node19&#45;&gt;Node9 -->
<g id="edge31_Node000019_Node000009" class="edge">
<title>Node19&#45;&gt;Node9</title>
<g id="a_edge31_Node000019_Node000009"><a xlink:title=" ">
<path fill="none" stroke="#63b8ff" d="M660.01,-121.43C664.62,-113.22 671.59,-100.78 677.42,-90.37"/>
<polygon fill="#63b8ff" stroke="#63b8ff" points="680.36,-92.28 682.2,-81.85 674.26,-88.86 680.36,-92.28"/>
</a>
</g>
</g>
<!-- Node19&#45;&gt;Node11 -->
<g id="edge30_Node000019_Node000011" class="edge">
<title>Node19&#45;&gt;Node11</title>
<g id="a_edge30_Node000019_Node000011"><a xlink:title=" ">
<path fill="none" stroke="#63b8ff" d="M643.85,-141.43C627.15,-152.12 595.8,-170.02 571.97,-182.58"/>
<polygon fill="#63b8ff" stroke="#63b8ff" points="570.58,-179.37 563.31,-187.07 573.8,-185.58 570.58,-179.37"/>
</a>
</g>
</g>
<!-- Node19&#45;&gt;Node16 -->
<g id="edge28_Node000019_Node000016" class="edge">
<title>Node19&#45;&gt;Node16</title>
<g id="a_edge28_Node000019_Node000016"><a xlink:title=" ">
<path fill="none" stroke="#63b8ff" d="M618.43,-123.95C613.91,-123.19 609.35,-122.44 605,-121.75 494.12,-104.21 463.19,-115.69 355,-85.75 353.61,-85.37 352.21,-84.94 350.79,-84.48"/>
<polygon fill="#63b8ff" stroke="#63b8ff" points="352.13,-81.24 341.54,-81.04 349.69,-87.8 352.13,-81.24"/>
</a>
</g>
</g>
<!-- Node19&#45;&gt;Node17 -->
<g id="edge32_Node000019_Node000017" class="edge">
<title>Node19&#45;&gt;Node17</title>
<g id="a_edge32_Node000019_Node000017"><a xlink:title=" ">
<path fill="none" stroke="#63b8ff" d="M677.18,-121.3C701.04,-111.55 739.2,-95.95 766.45,-84.81"/>
<polygon fill="#63b8ff" stroke="#63b8ff" points="767.69,-88.08 775.63,-81.06 765.04,-81.6 767.69,-88.08"/>
</a>
</g>
</g>
<!-- Node20 -->
<g id="Node000020" class="node">
<title>Node20</title>
<g id="a_Node000020"><a xlink:title=" ">
<polygon fill="#e0e0e0" stroke="#999999" points="621.62,-85.75 474.38,-85.75 474.38,-55.25 621.62,-55.25 621.62,-85.75"/>
<text text-anchor="start" x="482.38" y="-72.25" font-family="Helvetica,sans-Serif" font-size="10.00">ament_index_cpp/get</text>
<text text-anchor="middle" x="548" y="-61" font-family="Helvetica,sans-Serif" font-size="10.00">_package_share_directory.hpp</text>
</a>
</g>
</g>
<!-- Node19&#45;&gt;Node20 -->
<g id="edge26_Node000019_Node000020" class="edge">
<title>Node19&#45;&gt;Node20</title>
<g id="a_edge26_Node000019_Node000020"><a xlink:title=" ">
<path fill="none" stroke="#63b8ff" d="M638.75,-121.43C624.35,-113.51 602.79,-101.65 584.3,-91.47"/>
<polygon fill="#63b8ff" stroke="#63b8ff" points="586.19,-88.52 575.74,-86.76 582.81,-94.65 586.19,-88.52"/>
</a>
</g>
</g>
<!-- Node21 -->
<g id="Node000021" class="node">
<title>Node21</title>
<g id="a_Node000021"><a xlink:title=" ">
<polygon fill="#e0e0e0" stroke="#999999" points="456.75,-80.12 397.25,-80.12 397.25,-60.88 456.75,-60.88 456.75,-80.12"/>
<text text-anchor="middle" x="427" y="-66.62" font-family="Helvetica,sans-Serif" font-size="10.00">filesystem</text>
</a>
</g>
</g>
<!-- Node19&#45;&gt;Node21 -->
<g id="edge27_Node000019_Node000021" class="edge">
<title>Node19&#45;&gt;Node21</title>
<g id="a_edge27_Node000019_Node000021"><a xlink:title=" ">
<path fill="none" stroke="#63b8ff" d="M618.56,-123.27C580.04,-115.41 517.69,-101.74 465,-85.75 463.44,-85.28 461.85,-84.77 460.26,-84.25"/>
<polygon fill="#63b8ff" stroke="#63b8ff" points="461.77,-81.07 451.17,-81.07 459.46,-87.68 461.77,-81.07"/>
</a>
</g>
</g>
</g>
</svg>

<g id="navigator" transform="translate(0 0)" fill="#404254">
  <rect fill="#f2f5e9" fill-opacity="0.5" stroke="#606060" stroke-width=".5" x="0" y="0" width="60" height="60"/>
  <use id="zoomplus" xlink:href="#zoomPlus" x="17" y="9" onmousedown="handleZoom(evt,'in')"/>
  <use id="zoomminus" xlink:href="#zoomMin" x="42" y="9" onmousedown="handleZoom(evt,'out')"/>
  <use id="reset" xlink:href="#resetDef" x="30" y="36" onmousedown="handleReset()"/>
   <use id="arrowup" xlink:href="#arrowUp" x="0" y="0" onmousedown="handlePan(0,-1)"/>
  <use id="arrowright" xlink:href="#arrowRight" x="0" y="0" onmousedown="handlePan(1,0)"/>
  <use id="arrowdown" xlink:href="#arrowDown" x="0" y="0" onmousedown="handlePan(0,1)"/>
  <use id="arrowleft" xlink:href="#arrowLeft" x="0" y="0" onmousedown="handlePan(-1,0)"/>
</g>
<svg viewBox="0 0 15 15" width="100%" height="30px" preserveAspectRatio="xMaxYMin meet">
 <g id="arrow_out" transform="scale(0.3 0.3)">
  <a xlink:href="local__path__planner_8cpp__incl_org.svg" target="_base">
   <rect id="button" ry="5" rx="5" y="6" x="6" height="38" width="38"
        fill="#f2f5e9" fill-opacity="0.5" stroke="#606060" stroke-width="1.0"/>
   <path id="arrow"
     d="M 11.500037,31.436501 C 11.940474,20.09759 22.043105,11.32322 32.158766,21.979434 L 37.068811,17.246167 C 37.068811,17.246167 37.088388,32 37.088388,32 L 22.160133,31.978069 C 22.160133,31.978069 26.997745,27.140456 26.997745,27.140456 C 18.528582,18.264221 13.291696,25.230495 11.500037,31.436501 z"
     style="fill:#404040;"/>
  </a>
 </g>
</svg>

<style type='text/css'>
<![CDATA[
[data-mouse-over-selected='false'] { opacity: 0.7; }
[data-mouse-over-selected='true']  { opacity: 1.0; }
]]>
</style>
<script type="application/ecmascript"><![CDATA[
document.addEventListener('DOMContentLoaded', (event) => {
  highlightEdges();
  highlightAdjacentNodes();
});
]]></script>
</svg>
