<?xml version="1.0" encoding="UTF-8" standalone="no"?>
<!DOCTYPE svg PUBLIC "-//W3C//DTD SVG 1.1//EN"
 "http://www.w3.org/Graphics/SVG/1.1/DTD/svg11.dtd">
<!-- Generated by graphviz version 9.0.0 (20230911.1827)
 -->
<!-- Title: src/planning/planning/include/planning/local_path_planner.hpp Pages: 1 -->
<!--zoomable 305 -->

<svg id="main" version="1.1" xmlns="http://www.w3.org/2000/svg" xmlns:xlink="http://www.w3.org/1999/xlink" xml:space="preserve" onload="init(evt)">
<style type="text/css"><![CDATA[
.node, .edge {opacity: 0.7;}
.node.selected, .edge.selected {opacity: 1;}
.edge:hover path { stroke: red; }
.edge:hover polygon { stroke: red; fill: red; }
]]></style>

<defs>
  <circle id="rim" cx="0" cy="0" r="7"/>
  <circle id="rim2" cx="0" cy="0" r="3.5"/>
  <g id="zoomPlus">
    <use xlink:href="#rim" fill="#404040"><set attributeName="fill" to="#808080" begin="zoomplus.mouseover" end="zoomplus.mouseout"/></use>
    <path d="M-4,0h8M0,-4v8" fill="none" stroke="white" stroke-width="1.5" pointer-events="none"/>
  </g>
  <g id="zoomMin">
    <use xlink:href="#rim" fill="#404040"><set attributeName="fill" to="#808080" begin="zoomminus.mouseover" end="zoomminus.mouseout"/></use>
    <path d="M-4,0h8" fill="none" stroke="white" stroke-width="1.5" pointer-events="none"/>
  </g>
  <g id="arrowUp" transform="translate(30 24)">
    <use xlink:href="#rim"/>
    <path pointer-events="none" fill="none" stroke="white" stroke-width="1.5" d="M0,-3.0v7 M-2.5,-0.5L0,-3.0L2.5,-0.5"/>
  </g>
  <g id="arrowRight" transform="rotate(90) translate(36 -43)">
    <use xlink:href="#rim"/>
    <path pointer-events="none" fill="none" stroke="white" stroke-width="1.5" d="M0,-3.0v7 M-2.5,-0.5L0,-3.0L2.5,-0.5"/>
  </g>
  <g id="arrowDown" transform="rotate(180) translate(-30 -48)">
    <use xlink:href="#rim"/>
    <path pointer-events="none" fill="none" stroke="white" stroke-width="1.5" d="M0,-3.0v7 M-2.5,-0.5L0,-3.0L2.5,-0.5"/>
  </g>
  <g id="arrowLeft" transform="rotate(270) translate(-36 17)">
    <use xlink:href="#rim"/>
    <path pointer-events="none" fill="none" stroke="white" stroke-width="1.5" d="M0,-3.0v7 M-2.5,-0.5L0,-3.0L2.5,-0.5"/>
  </g>
  <g id="resetDef">
    <use xlink:href="#rim2" fill="#404040"><set attributeName="fill" to="#808080" begin="reset.mouseover" end="reset.mouseout"/></use>
  </g>
</defs>
<script type="application/ecmascript">
var viewWidth = 1081;
var viewHeight = 305;
var sectionId = 'dynsection-0';
</script>
<script type="application/ecmascript" xlink:href="svg.min.js"/>
<svg id="graph" class="graph">
<g id="viewport">
<title>src/planning/planning/include/planning/local_path_planner.hpp</title>
<!-- Node1 -->
<g id="Node000001" class="node">
<title>Node1</title>
<g id="a_Node000001"><a xlink:title=" ">
<polygon fill="#999999" stroke="#666666" points="684.75,-296.5 572.75,-296.5 572.75,-254.75 684.75,-254.75 684.75,-296.5"/>
<text text-anchor="start" x="580.75" y="-283" font-family="Helvetica,sans-Serif" font-size="10.00">src/planning/planning</text>
<text text-anchor="start" x="580.75" y="-271.75" font-family="Helvetica,sans-Serif" font-size="10.00">/include/planning/local</text>
<text text-anchor="middle" x="628.75" y="-260.5" font-family="Helvetica,sans-Serif" font-size="10.00">_path_planner.hpp</text>
</a>
</g>
</g>
<!-- Node2 -->
<g id="Node000002" class="node">
<title>Node2</title>
<g id="a_Node000002"><a xlink:title=" ">
<polygon fill="#e0e0e0" stroke="#999999" points="161.5,-207.5 0,-207.5 0,-188.25 161.5,-188.25 161.5,-207.5"/>
<text text-anchor="middle" x="80.75" y="-194" font-family="Helvetica,sans-Serif" font-size="10.00">CGAL/Delaunay_triangulation_2.h</text>
</a>
</g>
</g>
<!-- Node1&#45;&gt;Node2 -->
<g id="edge1_Node000001_Node000002" class="edge">
<title>Node1&#45;&gt;Node2</title>
<g id="a_edge1_Node000001_Node000002"><a xlink:title=" ">
<path fill="none" stroke="#63b8ff" d="M572.45,-269.51C485.79,-261.25 314.65,-243.36 170.75,-218.75 157.2,-216.43 142.6,-213.43 129.19,-210.47"/>
<polygon fill="#63b8ff" stroke="#63b8ff" points="130.25,-207.12 119.73,-208.33 128.71,-213.95 130.25,-207.12"/>
</a>
</g>
</g>
<!-- Node3 -->
<g id="Node000003" class="node">
<title>Node3</title>
<g id="a_Node000003"><a xlink:title=" ">
<polygon fill="#e0e0e0" stroke="#999999" points="299.88,-218.75 179.62,-218.75 179.62,-177 299.88,-177 299.88,-218.75"/>
<text text-anchor="start" x="187.62" y="-205.25" font-family="Helvetica,sans-Serif" font-size="10.00">CGAL/Exact_predicates</text>
<text text-anchor="start" x="187.62" y="-194" font-family="Helvetica,sans-Serif" font-size="10.00">_inexact_constructions</text>
<text text-anchor="middle" x="239.75" y="-182.75" font-family="Helvetica,sans-Serif" font-size="10.00">_kernel.h</text>
</a>
</g>
</g>
<!-- Node1&#45;&gt;Node3 -->
<g id="edge2_Node000001_Node000003" class="edge">
<title>Node1&#45;&gt;Node3</title>
<g id="a_edge2_Node000001_Node000003"><a xlink:title=" ">
<path fill="none" stroke="#63b8ff" d="M572.41,-266.14C509.16,-256.27 403.61,-238.75 313.75,-218.75 312.92,-218.57 312.09,-218.38 311.25,-218.19"/>
<polygon fill="#63b8ff" stroke="#63b8ff" points="312.23,-214.82 301.69,-215.92 310.62,-221.63 312.23,-214.82"/>
</a>
</g>
</g>
<!-- Node4 -->
<g id="Node000004" class="node">
<title>Node4</title>
<g id="a_Node000004"><a xlink:title=" ">
<polygon fill="#e0e0e0" stroke="#999999" points="405.25,-19.25 362.25,-19.25 362.25,0 405.25,0 405.25,-19.25"/>
<text text-anchor="middle" x="383.75" y="-5.75" font-family="Helvetica,sans-Serif" font-size="10.00">cmath</text>
</a>
</g>
</g>
<!-- Node1&#45;&gt;Node4 -->
<g id="edge3_Node000001_Node000004" class="edge">
<title>Node1&#45;&gt;Node4</title>
<g id="a_edge3_Node000001_Node000004"><a xlink:title=" ">
<path fill="none" stroke="#63b8ff" d="M572.51,-266.11C505.47,-252.61 396.29,-219.29 346.75,-141 324.09,-105.19 351.63,-55.24 369.94,-28.77"/>
<polygon fill="#63b8ff" stroke="#63b8ff" points="372.7,-30.94 375.73,-20.78 367.03,-26.83 372.7,-30.94"/>
</a>
</g>
</g>
<!-- Node5 -->
<g id="Node000005" class="node">
<title>Node5</title>
<g id="a_Node000005"><a xlink:title=" ">
<polygon fill="#e0e0e0" stroke="#999999" points="591.12,-207.5 556.38,-207.5 556.38,-188.25 591.12,-188.25 591.12,-207.5"/>
<text text-anchor="middle" x="573.75" y="-194" font-family="Helvetica,sans-Serif" font-size="10.00">map</text>
</a>
</g>
</g>
<!-- Node1&#45;&gt;Node5 -->
<g id="edge4_Node000001_Node000005" class="edge">
<title>Node1&#45;&gt;Node5</title>
<g id="a_edge4_Node000001_Node000005"><a xlink:title=" ">
<path fill="none" stroke="#63b8ff" d="M614.01,-254.33C605.63,-242.78 595.22,-228.44 587.08,-217.24"/>
<polygon fill="#63b8ff" stroke="#63b8ff" points="589.97,-215.26 581.26,-209.22 584.31,-219.37 589.97,-215.26"/>
</a>
</g>
</g>
<!-- Node6 -->
<g id="Node000006" class="node">
<title>Node6</title>
<g id="a_Node000006"><a xlink:title=" ">
<polygon fill="#e0e0e0" stroke="#999999" points="648,-207.5 609.5,-207.5 609.5,-188.25 648,-188.25 648,-207.5"/>
<text text-anchor="middle" x="628.75" y="-194" font-family="Helvetica,sans-Serif" font-size="10.00">utility</text>
</a>
</g>
</g>
<!-- Node1&#45;&gt;Node6 -->
<g id="edge5_Node000001_Node000006" class="edge">
<title>Node1&#45;&gt;Node6</title>
<g id="a_edge5_Node000001_Node000006"><a xlink:title=" ">
<path fill="none" stroke="#63b8ff" d="M628.75,-254.33C628.75,-243.49 628.75,-230.19 628.75,-219.33"/>
<polygon fill="#63b8ff" stroke="#63b8ff" points="632.25,-219.51 628.75,-209.51 625.25,-219.51 632.25,-219.51"/>
</a>
</g>
</g>
<!-- Node7 -->
<g id="Node000007" class="node">
<title>Node7</title>
<g id="a_Node000007"><a xlink:title=" ">
<polygon fill="#e0e0e0" stroke="#999999" points="590.25,-19.25 547.25,-19.25 547.25,0 590.25,0 590.25,-19.25"/>
<text text-anchor="middle" x="568.75" y="-5.75" font-family="Helvetica,sans-Serif" font-size="10.00">vector</text>
</a>
</g>
</g>
<!-- Node1&#45;&gt;Node7 -->
<g id="edge6_Node000001_Node000007" class="edge">
<title>Node1&#45;&gt;Node7</title>
<g id="a_edge6_Node000001_Node000007"><a xlink:title=" ">
<path fill="none" stroke="#63b8ff" d="M685.06,-271.63C771.87,-266.03 933.27,-251.47 979.75,-218.75 1044.83,-172.94 1106.38,-114.05 1052.75,-55.25 1022.43,-22 706.62,-13.18 602.12,-11.16"/>
<polygon fill="#63b8ff" stroke="#63b8ff" points="602.31,-7.66 592.24,-10.98 602.18,-14.66 602.31,-7.66"/>
</a>
</g>
</g>
<!-- Node8 -->
<g id="Node000008" class="node">
<title>Node8</title>
<g id="a_Node000008"><a xlink:href="planning_2planning_2include_2utils_2position_8hpp.html" target="_top" xlink:title=" ">
<polygon fill="white" stroke="#666666" points="1043.88,-80.12 947.62,-80.12 947.62,-60.88 1043.88,-60.88 1043.88,-80.12"/>
<text text-anchor="middle" x="995.75" y="-66.62" font-family="Helvetica,sans-Serif" font-size="10.00">../utils/position.hpp</text>
</a>
</g>
</g>
<!-- Node1&#45;&gt;Node8 -->
<g id="edge7_Node000001_Node000008" class="edge">
<title>Node1&#45;&gt;Node8</title>
<g id="a_edge7_Node000001_Node000008"><a xlink:title=" ">
<path fill="none" stroke="#63b8ff" d="M685.2,-269.48C763.72,-261.5 901.07,-244.37 943.75,-218.75 981.41,-196.15 990.41,-182.51 1004.75,-141 1010.34,-124.81 1007.06,-105.41 1002.98,-91.23"/>
<polygon fill="#63b8ff" stroke="#63b8ff" points="1006.31,-90.16 999.86,-81.76 999.66,-92.35 1006.31,-90.16"/>
</a>
</g>
</g>
<!-- Node10 -->
<g id="Node000010" class="node">
<title>Node10</title>
<g id="a_Node000010"><a xlink:href="track_8hpp.html" target="_top" xlink:title=" ">
<polygon fill="white" stroke="#666666" points="727.25,-207.5 666.25,-207.5 666.25,-188.25 727.25,-188.25 727.25,-207.5"/>
<text text-anchor="middle" x="696.75" y="-194" font-family="Helvetica,sans-Serif" font-size="10.00">./track.hpp</text>
</a>
</g>
</g>
<!-- Node1&#45;&gt;Node10 -->
<g id="edge11_Node000001_Node000010" class="edge">
<title>Node1&#45;&gt;Node10</title>
<g id="a_edge11_Node000001_Node000010"><a xlink:title=" ">
<path fill="none" stroke="#63b8ff" d="M646.97,-254.33C657.55,-242.55 670.73,-227.86 680.88,-216.56"/>
<polygon fill="#63b8ff" stroke="#63b8ff" points="683.47,-218.9 687.55,-209.12 678.26,-214.23 683.47,-218.9"/>
</a>
</g>
</g>
<!-- Node16 -->
<g id="Node000016" class="node">
<title>Node16</title>
<g id="a_Node000016"><a xlink:title=" ">
<polygon fill="#e0e0e0" stroke="#999999" points="929.5,-80.12 840,-80.12 840,-60.88 929.5,-60.88 929.5,-80.12"/>
<text text-anchor="middle" x="884.75" y="-66.62" font-family="Helvetica,sans-Serif" font-size="10.00">rclcpp/rclcpp.hpp</text>
</a>
</g>
</g>
<!-- Node1&#45;&gt;Node16 -->
<g id="edge32_Node000001_Node000016" class="edge">
<title>Node1&#45;&gt;Node16</title>
<g id="a_edge32_Node000001_Node000016"><a xlink:title=" ">
<path fill="none" stroke="#63b8ff" d="M685.07,-272.55C767.95,-266.11 920.45,-240.55 989.75,-141 994.64,-133.98 994.31,-128.99 989.75,-121.75 981.92,-109.31 949.08,-94.79 922.19,-84.56"/>
<polygon fill="#63b8ff" stroke="#63b8ff" points="923.51,-81.32 912.92,-81.12 921.08,-87.88 923.51,-81.32"/>
</a>
</g>
</g>
<!-- Node8&#45;&gt;Node4 -->
<g id="edge8_Node000008_Node000004" class="edge">
<title>Node8&#45;&gt;Node4</title>
<g id="a_edge8_Node000008_Node000004"><a xlink:title=" ">
<path fill="none" stroke="#63b8ff" d="M963.39,-60.43C955.39,-58.46 946.8,-56.57 938.75,-55.25 837.13,-38.58 520.22,-18.75 416.77,-12.56"/>
<polygon fill="#63b8ff" stroke="#63b8ff" points="417.22,-9.08 407.03,-11.98 416.8,-16.07 417.22,-9.08"/>
</a>
</g>
</g>
<!-- Node8&#45;&gt;Node7 -->
<g id="edge10_Node000008_Node000007" class="edge">
<title>Node8&#45;&gt;Node7</title>
<g id="a_edge10_Node000008_Node000007"><a xlink:title=" ">
<path fill="none" stroke="#63b8ff" d="M962.45,-60.43C954.71,-58.53 946.47,-56.68 938.75,-55.25 815.36,-32.48 666.58,-18.6 601.69,-13.21"/>
<polygon fill="#63b8ff" stroke="#63b8ff" points="602.34,-9.75 592.09,-12.42 601.77,-16.72 602.34,-9.75"/>
</a>
</g>
</g>
<!-- Node9 -->
<g id="Node000009" class="node">
<title>Node9</title>
<g id="a_Node000009"><a xlink:title=" ">
<polygon fill="#e0e0e0" stroke="#999999" points="1064.25,-19.25 1015.25,-19.25 1015.25,0 1064.25,0 1064.25,-19.25"/>
<text text-anchor="middle" x="1039.75" y="-5.75" font-family="Helvetica,sans-Serif" font-size="10.00">fstream</text>
</a>
</g>
</g>
<!-- Node8&#45;&gt;Node9 -->
<g id="edge9_Node000008_Node000009" class="edge">
<title>Node8&#45;&gt;Node9</title>
<g id="a_edge9_Node000008_Node000009"><a xlink:title=" ">
<path fill="none" stroke="#63b8ff" d="M1002.43,-60.56C1008.7,-52.17 1018.26,-39.38 1026.13,-28.84"/>
<polygon fill="#63b8ff" stroke="#63b8ff" points="1028.92,-30.97 1032.1,-20.86 1023.31,-26.78 1028.92,-30.97"/>
</a>
</g>
</g>
<!-- Node10&#45;&gt;Node7 -->
<g id="edge18_Node000010_Node000007" class="edge">
<title>Node10&#45;&gt;Node7</title>
<g id="a_edge18_Node000010_Node000007"><a xlink:title=" ">
<path fill="none" stroke="#63b8ff" d="M680.82,-187.76C673.65,-183.97 664.97,-179.82 656.75,-177 580.4,-150.82 529.85,-203.47 478.75,-141 465.13,-124.34 462.77,-95.91 491.75,-55.25 502.68,-39.92 520.66,-29.07 536.49,-21.91"/>
<polygon fill="#63b8ff" stroke="#63b8ff" points="537.71,-25.19 545.6,-18.12 535.02,-18.73 537.71,-25.19"/>
</a>
</g>
</g>
<!-- Node10&#45;&gt;Node9 -->
<g id="edge15_Node000010_Node000009" class="edge">
<title>Node10&#45;&gt;Node9</title>
<g id="a_edge15_Node000010_Node000009"><a xlink:title=" ">
<path fill="none" stroke="#63b8ff" d="M727.5,-196.26C782.76,-194.04 901.33,-184.17 989.75,-141 1023.22,-124.66 1037.38,-119.67 1052.75,-85.75 1060.85,-67.88 1055.21,-45.52 1049.03,-29.86"/>
<polygon fill="#63b8ff" stroke="#63b8ff" points="1052.26,-28.5 1045.02,-20.76 1045.85,-31.32 1052.26,-28.5"/>
</a>
</g>
</g>
<!-- Node11 -->
<g id="Node000011" class="node">
<title>Node11</title>
<g id="a_Node000011"><a xlink:title=" ">
<polygon fill="#e0e0e0" stroke="#999999" points="876.75,-141 788.75,-141 788.75,-121.75 876.75,-121.75 876.75,-141"/>
<text text-anchor="middle" x="832.75" y="-127.5" font-family="Helvetica,sans-Serif" font-size="10.00">gsl/gsl_bspline.h</text>
</a>
</g>
</g>
<!-- Node10&#45;&gt;Node11 -->
<g id="edge12_Node000010_Node000011" class="edge">
<title>Node10&#45;&gt;Node11</title>
<g id="a_edge12_Node000010_Node000011"><a xlink:title=" ">
<path fill="none" stroke="#63b8ff" d="M715.95,-187.77C738.73,-176.97 776.95,-158.84 803.44,-146.27"/>
<polygon fill="#63b8ff" stroke="#63b8ff" points="804.75,-149.53 812.28,-142.08 801.75,-143.2 804.75,-149.53"/>
</a>
</g>
</g>
<!-- Node12 -->
<g id="Node000012" class="node">
<title>Node12</title>
<g id="a_Node000012"><a xlink:title=" ">
<polygon fill="#e0e0e0" stroke="#999999" points="980.62,-141 894.88,-141 894.88,-121.75 980.62,-121.75 980.62,-141"/>
<text text-anchor="middle" x="937.75" y="-127.5" font-family="Helvetica,sans-Serif" font-size="10.00">gsl/gsl_multifit.h</text>
</a>
</g>
</g>
<!-- Node10&#45;&gt;Node12 -->
<g id="edge13_Node000010_Node000012" class="edge">
<title>Node10&#45;&gt;Node12</title>
<g id="a_edge13_Node000010_Node000012"><a xlink:title=" ">
<path fill="none" stroke="#63b8ff" d="M727.27,-188.71C769.13,-177.5 844.66,-157.29 892.94,-144.37"/>
<polygon fill="#63b8ff" stroke="#63b8ff" points="893.77,-147.77 902.53,-141.8 891.97,-141.01 893.77,-147.77"/>
</a>
</g>
</g>
<!-- Node13 -->
<g id="Node000013" class="node">
<title>Node13</title>
<g id="a_Node000013"><a xlink:title=" ">
<polygon fill="#e0e0e0" stroke="#999999" points="533.38,-141 488.12,-141 488.12,-121.75 533.38,-121.75 533.38,-141"/>
<text text-anchor="middle" x="510.75" y="-127.5" font-family="Helvetica,sans-Serif" font-size="10.00">cstring</text>
</a>
</g>
</g>
<!-- Node10&#45;&gt;Node13 -->
<g id="edge14_Node000010_Node000013" class="edge">
<title>Node10&#45;&gt;Node13</title>
<g id="a_edge14_Node000010_Node000013"><a xlink:title=" ">
<path fill="none" stroke="#63b8ff" d="M680.29,-187.93C673.17,-184.27 664.67,-180.16 656.75,-177 636.27,-168.85 580.79,-152.46 544.42,-141.97"/>
<polygon fill="#63b8ff" stroke="#63b8ff" points="545.84,-138.74 535.27,-139.34 543.91,-145.46 545.84,-138.74"/>
</a>
</g>
</g>
<!-- Node14 -->
<g id="Node000014" class="node">
<title>Node14</title>
<g id="a_Node000014"><a xlink:title=" ">
<polygon fill="#e0e0e0" stroke="#999999" points="604.5,-141 551,-141 551,-121.75 604.5,-121.75 604.5,-141"/>
<text text-anchor="middle" x="577.75" y="-127.5" font-family="Helvetica,sans-Serif" font-size="10.00">iostream</text>
</a>
</g>
</g>
<!-- Node10&#45;&gt;Node14 -->
<g id="edge16_Node000010_Node000014" class="edge">
<title>Node10&#45;&gt;Node14</title>
<g id="a_edge16_Node000010_Node000014"><a xlink:title=" ">
<path fill="none" stroke="#63b8ff" d="M679.95,-187.77C660.28,-177.11 627.46,-159.32 604.33,-146.78"/>
<polygon fill="#63b8ff" stroke="#63b8ff" points="606.25,-143.84 595.79,-142.15 602.92,-150 606.25,-143.84"/>
</a>
</g>
</g>
<!-- Node15 -->
<g id="Node000015" class="node">
<title>Node15</title>
<g id="a_Node000015"><a xlink:title=" ">
<polygon fill="#e0e0e0" stroke="#999999" points="540.75,-80.12 500.75,-80.12 500.75,-60.88 540.75,-60.88 540.75,-80.12"/>
<text text-anchor="middle" x="520.75" y="-66.62" font-family="Helvetica,sans-Serif" font-size="10.00">string</text>
</a>
</g>
</g>
<!-- Node10&#45;&gt;Node15 -->
<g id="edge17_Node000010_Node000015" class="edge">
<title>Node10&#45;&gt;Node15</title>
<g id="a_edge17_Node000010_Node000015"><a xlink:title=" ">
<path fill="none" stroke="#63b8ff" d="M688.15,-187.78C673.71,-172.82 643.27,-142.62 613.75,-121.75 593.96,-107.76 569.83,-94.83 551.12,-85.59"/>
<polygon fill="#63b8ff" stroke="#63b8ff" points="552.68,-82.46 542.16,-81.25 549.63,-88.76 552.68,-82.46"/>
</a>
</g>
</g>
<!-- Node10&#45;&gt;Node16 -->
<g id="edge19_Node000010_Node000016" class="edge">
<title>Node10&#45;&gt;Node16</title>
<g id="a_edge19_Node000010_Node000016"><a xlink:title=" ">
<path fill="none" stroke="#63b8ff" d="M704.79,-188.1C718.87,-173.08 749.41,-142.11 779.75,-121.75 802.04,-106.79 829.47,-93.83 850.71,-84.81"/>
<polygon fill="#63b8ff" stroke="#63b8ff" points="851.89,-88.11 859.79,-81.05 849.21,-81.65 851.89,-88.11"/>
</a>
</g>
</g>
<!-- Node17 -->
<g id="Node000017" class="node">
<title>Node17</title>
<g id="a_Node000017"><a xlink:href="cone_8hpp.html" target="_top" xlink:title=" ">
<polygon fill="white" stroke="#666666" points="431.75,-141 355.75,-141 355.75,-121.75 431.75,-121.75 431.75,-141"/>
<text text-anchor="middle" x="393.75" y="-127.5" font-family="Helvetica,sans-Serif" font-size="10.00">utils/cone.hpp</text>
</a>
</g>
</g>
<!-- Node10&#45;&gt;Node17 -->
<g id="edge20_Node000010_Node000017" class="edge">
<title>Node10&#45;&gt;Node17</title>
<g id="a_edge20_Node000010_Node000017"><a xlink:title=" ">
<path fill="none" stroke="#63b8ff" d="M681.24,-187.84C674.01,-183.98 665.16,-179.74 656.75,-177 651.68,-175.35 517.96,-153.01 443.19,-140.58"/>
<polygon fill="#63b8ff" stroke="#63b8ff" points="444.1,-137.18 433.66,-138.99 442.96,-144.09 444.1,-137.18"/>
</a>
</g>
</g>
<!-- Node18 -->
<g id="Node000018" class="node">
<title>Node18</title>
<g id="a_Node000018"><a xlink:href="files_8hpp.html" target="_top" xlink:title=" ">
<polygon fill="white" stroke="#666666" points="732.88,-141 660.62,-141 660.62,-121.75 732.88,-121.75 732.88,-141"/>
<text text-anchor="middle" x="696.75" y="-127.5" font-family="Helvetica,sans-Serif" font-size="10.00">utils/files.hpp</text>
</a>
</g>
</g>
<!-- Node10&#45;&gt;Node18 -->
<g id="edge24_Node000010_Node000018" class="edge">
<title>Node10&#45;&gt;Node18</title>
<g id="a_edge24_Node000010_Node000018"><a xlink:title=" ">
<path fill="none" stroke="#63b8ff" d="M691.91,-187.91C690.02,-178.76 689.53,-164.27 690.45,-152.38"/>
<polygon fill="#63b8ff" stroke="#63b8ff" points="693.88,-153.14 691.72,-142.77 686.94,-152.22 693.88,-153.14"/>
</a>
</g>
</g>
<!-- Node17&#45;&gt;Node4 -->
<g id="edge21_Node000017_Node000004" class="edge">
<title>Node17&#45;&gt;Node4</title>
<g id="a_edge21_Node000017_Node000004"><a xlink:title=" ">
<path fill="none" stroke="#63b8ff" d="M393,-121.37C391.41,-102.3 387.66,-57.41 385.45,-31.01"/>
<polygon fill="#63b8ff" stroke="#63b8ff" points="388.96,-30.91 384.64,-21.24 381.98,-31.5 388.96,-30.91"/>
</a>
</g>
</g>
<!-- Node17&#45;&gt;Node7 -->
<g id="edge23_Node000017_Node000007" class="edge">
<title>Node17&#45;&gt;Node7</title>
<g id="a_edge23_Node000017_Node000007"><a xlink:title=" ">
<path fill="none" stroke="#63b8ff" d="M397.58,-121.64C404.8,-106.12 421.88,-73.65 445.75,-55.25 472.39,-34.71 509.37,-23 535.81,-16.78"/>
<polygon fill="#63b8ff" stroke="#63b8ff" points="536.29,-20.26 545.31,-14.69 534.79,-13.42 536.29,-20.26"/>
</a>
</g>
</g>
<!-- Node17&#45;&gt;Node15 -->
<g id="edge22_Node000017_Node000015" class="edge">
<title>Node17&#45;&gt;Node15</title>
<g id="a_edge22_Node000017_Node000015"><a xlink:title=" ">
<path fill="none" stroke="#63b8ff" d="M413.32,-121.3C434.07,-111.68 467.11,-96.37 491.08,-85.26"/>
<polygon fill="#63b8ff" stroke="#63b8ff" points="492.4,-88.5 500,-81.12 489.45,-82.15 492.4,-88.5"/>
</a>
</g>
</g>
<!-- Node18&#45;&gt;Node7 -->
<g id="edge28_Node000018_Node000007" class="edge">
<title>Node18&#45;&gt;Node7</title>
<g id="a_edge28_Node000018_Node000007"><a xlink:title=" ">
<path fill="none" stroke="#63b8ff" d="M660.15,-124.19C636.26,-118.28 606.18,-106.98 587.75,-85.75 574.54,-70.53 570.28,-47.4 569.03,-30.82"/>
<polygon fill="#63b8ff" stroke="#63b8ff" points="572.54,-31.02 568.61,-21.18 565.54,-31.32 572.54,-31.02"/>
</a>
</g>
</g>
<!-- Node18&#45;&gt;Node8 -->
<g id="edge30_Node000018_Node000008" class="edge">
<title>Node18&#45;&gt;Node8</title>
<g id="a_edge30_Node000018_Node000008"><a xlink:title=" ">
<path fill="none" stroke="#63b8ff" d="M732.97,-124.42C780.41,-116.46 866.1,-101.51 938.75,-85.75 942.34,-84.97 946.05,-84.13 949.77,-83.26"/>
<polygon fill="#63b8ff" stroke="#63b8ff" points="950.49,-86.68 959.39,-80.94 948.85,-79.88 950.49,-86.68"/>
</a>
</g>
</g>
<!-- Node18&#45;&gt;Node10 -->
<g id="edge29_Node000018_Node000010" class="edge">
<title>Node18&#45;&gt;Node10</title>
<g id="a_edge29_Node000018_Node000010"><a xlink:title=" ">
<path fill="none" stroke="#63b8ff" d="M701.58,-141.27C703.48,-150.38 703.97,-164.87 703.06,-176.77"/>
<polygon fill="#63b8ff" stroke="#63b8ff" points="699.62,-176.04 701.79,-186.41 706.56,-176.95 699.62,-176.04"/>
</a>
</g>
</g>
<!-- Node18&#45;&gt;Node15 -->
<g id="edge27_Node000018_Node000015" class="edge">
<title>Node18&#45;&gt;Node15</title>
<g id="a_edge27_Node000018_Node000015"><a xlink:title=" ">
<path fill="none" stroke="#63b8ff" d="M664.88,-121.28C635.92,-112.79 592.12,-99.42 554.75,-85.75 553.78,-85.39 552.79,-85.03 551.8,-84.65"/>
<polygon fill="#63b8ff" stroke="#63b8ff" points="553.12,-81.41 542.53,-80.96 550.53,-87.91 553.12,-81.41"/>
</a>
</g>
</g>
<!-- Node18&#45;&gt;Node16 -->
<g id="edge31_Node000018_Node000016" class="edge">
<title>Node18&#45;&gt;Node16</title>
<g id="a_edge31_Node000018_Node000016"><a xlink:title=" ">
<path fill="none" stroke="#63b8ff" d="M725.71,-121.3C757.73,-111.28 809.49,-95.07 845.22,-83.88"/>
<polygon fill="#63b8ff" stroke="#63b8ff" points="845.81,-87.36 854.31,-81.03 843.72,-80.68 845.81,-87.36"/>
</a>
</g>
</g>
<!-- Node19 -->
<g id="Node000019" class="node">
<title>Node19</title>
<g id="a_Node000019"><a xlink:title=" ">
<polygon fill="#e0e0e0" stroke="#999999" points="744.38,-85.75 597.12,-85.75 597.12,-55.25 744.38,-55.25 744.38,-85.75"/>
<text text-anchor="start" x="605.12" y="-72.25" font-family="Helvetica,sans-Serif" font-size="10.00">ament_index_cpp/get</text>
<text text-anchor="middle" x="670.75" y="-61" font-family="Helvetica,sans-Serif" font-size="10.00">_package_share_directory.hpp</text>
</a>
</g>
</g>
<!-- Node18&#45;&gt;Node19 -->
<g id="edge25_Node000018_Node000019" class="edge">
<title>Node18&#45;&gt;Node19</title>
<g id="a_edge25_Node000018_Node000019"><a xlink:title=" ">
<path fill="none" stroke="#63b8ff" d="M692.8,-121.43C689.85,-114.76 685.67,-105.28 681.74,-96.38"/>
<polygon fill="#63b8ff" stroke="#63b8ff" points="685.02,-95.15 677.78,-87.42 678.62,-97.98 685.02,-95.15"/>
</a>
</g>
</g>
<!-- Node20 -->
<g id="Node000020" class="node">
<title>Node20</title>
<g id="a_Node000020"><a xlink:title=" ">
<polygon fill="#e0e0e0" stroke="#999999" points="821.5,-80.12 762,-80.12 762,-60.88 821.5,-60.88 821.5,-80.12"/>
<text text-anchor="middle" x="791.75" y="-66.62" font-family="Helvetica,sans-Serif" font-size="10.00">filesystem</text>
</a>
</g>
</g>
<!-- Node18&#45;&gt;Node20 -->
<g id="edge26_Node000018_Node000020" class="edge">
<title>Node18&#45;&gt;Node20</title>
<g id="a_edge26_Node000018_Node000020"><a xlink:title=" ">
<path fill="none" stroke="#63b8ff" d="M711.18,-121.43C726.1,-112.18 749.68,-97.57 767.48,-86.54"/>
<polygon fill="#63b8ff" stroke="#63b8ff" points="769.24,-89.57 775.9,-81.32 765.56,-83.62 769.24,-89.57"/>
</a>
</g>
</g>
</g>
</svg>

<g id="navigator" transform="translate(0 0)" fill="#404254">
  <rect fill="#f2f5e9" fill-opacity="0.5" stroke="#606060" stroke-width=".5" x="0" y="0" width="60" height="60"/>
  <use id="zoomplus" xlink:href="#zoomPlus" x="17" y="9" onmousedown="handleZoom(evt,'in')"/>
  <use id="zoomminus" xlink:href="#zoomMin" x="42" y="9" onmousedown="handleZoom(evt,'out')"/>
  <use id="reset" xlink:href="#resetDef" x="30" y="36" onmousedown="handleReset()"/>
   <use id="arrowup" xlink:href="#arrowUp" x="0" y="0" onmousedown="handlePan(0,-1)"/>
  <use id="arrowright" xlink:href="#arrowRight" x="0" y="0" onmousedown="handlePan(1,0)"/>
  <use id="arrowdown" xlink:href="#arrowDown" x="0" y="0" onmousedown="handlePan(0,1)"/>
  <use id="arrowleft" xlink:href="#arrowLeft" x="0" y="0" onmousedown="handlePan(-1,0)"/>
</g>
<svg viewBox="0 0 15 15" width="100%" height="30px" preserveAspectRatio="xMaxYMin meet">
 <g id="arrow_out" transform="scale(0.3 0.3)">
  <a xlink:href="local__path__planner_8hpp__incl_org.svg" target="_base">
   <rect id="button" ry="5" rx="5" y="6" x="6" height="38" width="38"
        fill="#f2f5e9" fill-opacity="0.5" stroke="#606060" stroke-width="1.0"/>
   <path id="arrow"
     d="M 11.500037,31.436501 C 11.940474,20.09759 22.043105,11.32322 32.158766,21.979434 L 37.068811,17.246167 C 37.068811,17.246167 37.088388,32 37.088388,32 L 22.160133,31.978069 C 22.160133,31.978069 26.997745,27.140456 26.997745,27.140456 C 18.528582,18.264221 13.291696,25.230495 11.500037,31.436501 z"
     style="fill:#404040;"/>
  </a>
 </g>
</svg>

<style type='text/css'>
<![CDATA[
[data-mouse-over-selected='false'] { opacity: 0.7; }
[data-mouse-over-selected='true']  { opacity: 1.0; }
]]>
</style>
<script type="application/ecmascript"><![CDATA[
document.addEventListener('DOMContentLoaded', (event) => {
  highlightEdges();
  highlightAdjacentNodes();
});
]]></script>
</svg>
