<?xml version="1.0" encoding="UTF-8" standalone="no"?>
<!DOCTYPE svg PUBLIC "-//W3C//DTD SVG 1.1//EN"
 "http://www.w3.org/Graphics/SVG/1.1/DTD/svg11.dtd">
<!-- Generated by graphviz version 9.0.0 (20230911.1827)
 -->
<!-- Title: src/long_control/src/main.cpp Pages: 1 -->
<svg width="644pt" height="160pt"
 viewBox="0.00 0.00 644.00 160.25" xmlns="http://www.w3.org/2000/svg" xmlns:xlink="http://www.w3.org/1999/xlink">
<g id="graph0" class="graph" transform="scale(1 1) rotate(0) translate(4 156.25)">
<title>src/long_control/src/main.cpp</title>
<!-- Node1 -->
<g id="Node000001" class="node">
<title>Node1</title>
<g id="a_Node000001"><a xlink:title=" ">
<polygon fill="#999999" stroke="#666666" points="279,-152.25 177.5,-152.25 177.5,-121.75 279,-121.75 279,-152.25"/>
<text text-anchor="start" x="185.5" y="-138.75" font-family="Helvetica,sans-Serif" font-size="10.00">src/long_control/src</text>
<text text-anchor="middle" x="228.25" y="-127.5" font-family="Helvetica,sans-Serif" font-size="10.00">/main.cpp</text>
</a>
</g>
</g>
<!-- Node2 -->
<g id="Node000002" class="node">
<title>Node2</title>
<g id="a_Node000002"><a xlink:title=" ">
<polygon fill="#e0e0e0" stroke="#999999" points="50.5,-24.88 0,-24.88 0,-5.63 50.5,-5.63 50.5,-24.88"/>
<text text-anchor="middle" x="25.25" y="-11.38" font-family="Helvetica,sans-Serif" font-size="10.00">memory</text>
</a>
</g>
</g>
<!-- Node1&#45;&gt;Node2 -->
<g id="edge1_Node000001_Node000002" class="edge">
<title>Node1&#45;&gt;Node2</title>
<g id="a_edge1_Node000001_Node000002"><a xlink:title=" ">
<path fill="none" stroke="#63b8ff" d="M203.36,-121.32C164.29,-98.27 89.01,-53.86 50.02,-30.86"/>
<polygon fill="#63b8ff" stroke="#63b8ff" points="52.18,-28.07 41.79,-26.01 48.63,-34.1 52.18,-28.07"/>
</a>
</g>
</g>
<!-- Node3 -->
<g id="Node000003" class="node">
<title>Node3</title>
<g id="a_Node000003"><a xlink:href="node__long__control_8hpp.html" target="_top" xlink:title=" ">
<polygon fill="white" stroke="#666666" points="299.25,-85.75 157.25,-85.75 157.25,-66.5 299.25,-66.5 299.25,-85.75"/>
<text text-anchor="middle" x="228.25" y="-72.25" font-family="Helvetica,sans-Serif" font-size="10.00">node_/node_long_control.hpp</text>
</a>
</g>
</g>
<!-- Node1&#45;&gt;Node3 -->
<g id="edge2_Node000001_Node000003" class="edge">
<title>Node1&#45;&gt;Node3</title>
<g id="a_edge2_Node000001_Node000003"><a xlink:title=" ">
<path fill="none" stroke="#63b8ff" d="M228.25,-121.45C228.25,-114.21 228.25,-105.34 228.25,-97.44"/>
<polygon fill="#63b8ff" stroke="#63b8ff" points="231.75,-97.71 228.25,-87.71 224.75,-97.71 231.75,-97.71"/>
</a>
</g>
</g>
<!-- Node8 -->
<g id="Node000008" class="node">
<title>Node8</title>
<g id="a_Node000008"><a xlink:title=" ">
<polygon fill="#e0e0e0" stroke="#999999" points="636,-24.88 546.5,-24.88 546.5,-5.63 636,-5.63 636,-24.88"/>
<text text-anchor="middle" x="591.25" y="-11.38" font-family="Helvetica,sans-Serif" font-size="10.00">rclcpp/rclcpp.hpp</text>
</a>
</g>
</g>
<!-- Node1&#45;&gt;Node8 -->
<g id="edge10_Node000001_Node000008" class="edge">
<title>Node1&#45;&gt;Node8</title>
<g id="a_edge10_Node000001_Node000008"><a xlink:title=" ">
<path fill="none" stroke="#63b8ff" d="M272.76,-121.32C344.85,-97.53 485.89,-51.01 553.43,-28.73"/>
<polygon fill="#63b8ff" stroke="#63b8ff" points="554.17,-32.17 562.57,-25.71 551.97,-25.52 554.17,-32.17"/>
</a>
</g>
</g>
<!-- Node3&#45;&gt;Node2 -->
<g id="edge5_Node000003_Node000002" class="edge">
<title>Node3&#45;&gt;Node2</title>
<g id="a_edge5_Node000003_Node000002"><a xlink:title=" ">
<path fill="none" stroke="#63b8ff" d="M187.49,-66.04C152.96,-57.95 102.35,-45.14 59.25,-30.5 58.27,-30.17 57.28,-29.82 56.28,-29.46"/>
<polygon fill="#63b8ff" stroke="#63b8ff" points="57.57,-26.21 46.98,-25.85 55.04,-32.73 57.57,-26.21"/>
</a>
</g>
</g>
<!-- Node4 -->
<g id="Node000004" class="node">
<title>Node4</title>
<g id="a_Node000004"><a xlink:title=" ">
<polygon fill="#e0e0e0" stroke="#999999" points="113.88,-24.88 68.62,-24.88 68.62,-5.63 113.88,-5.63 113.88,-24.88"/>
<text text-anchor="middle" x="91.25" y="-11.38" font-family="Helvetica,sans-Serif" font-size="10.00">chrono</text>
</a>
</g>
</g>
<!-- Node3&#45;&gt;Node4 -->
<g id="edge3_Node000003_Node000004" class="edge">
<title>Node3&#45;&gt;Node4</title>
<g id="a_edge3_Node000003_Node000004"><a xlink:title=" ">
<path fill="none" stroke="#63b8ff" d="M206.49,-66C185.22,-57.06 151.95,-42.99 123.25,-30.5 122.78,-30.29 122.3,-30.09 121.82,-29.88"/>
<polygon fill="#63b8ff" stroke="#63b8ff" points="123.49,-26.79 112.93,-25.96 120.67,-33.19 123.49,-26.79"/>
</a>
</g>
</g>
<!-- Node5 -->
<g id="Node000005" class="node">
<title>Node5</title>
<g id="a_Node000005"><a xlink:title=" ">
<polygon fill="#e0e0e0" stroke="#999999" points="190.25,-24.88 132.25,-24.88 132.25,-5.63 190.25,-5.63 190.25,-24.88"/>
<text text-anchor="middle" x="161.25" y="-11.38" font-family="Helvetica,sans-Serif" font-size="10.00">functional</text>
</a>
</g>
</g>
<!-- Node3&#45;&gt;Node5 -->
<g id="edge4_Node000003_Node000005" class="edge">
<title>Node3&#45;&gt;Node5</title>
<g id="a_edge4_Node000003_Node000005"><a xlink:title=" ">
<path fill="none" stroke="#63b8ff" d="M218.07,-66.18C208.04,-57.37 192.46,-43.68 180.15,-32.86"/>
<polygon fill="#63b8ff" stroke="#63b8ff" points="182.48,-30.25 172.66,-26.28 177.86,-35.51 182.48,-30.25"/>
</a>
</g>
</g>
<!-- Node6 -->
<g id="Node000006" class="node">
<title>Node6</title>
<g id="a_Node000006"><a xlink:title=" ">
<polygon fill="#e0e0e0" stroke="#999999" points="248.25,-24.88 208.25,-24.88 208.25,-5.63 248.25,-5.63 248.25,-24.88"/>
<text text-anchor="middle" x="228.25" y="-11.38" font-family="Helvetica,sans-Serif" font-size="10.00">string</text>
</a>
</g>
</g>
<!-- Node3&#45;&gt;Node6 -->
<g id="edge6_Node000003_Node000006" class="edge">
<title>Node3&#45;&gt;Node6</title>
<g id="a_edge6_Node000003_Node000006"><a xlink:title=" ">
<path fill="none" stroke="#63b8ff" d="M228.25,-66.18C228.25,-58.4 228.25,-46.83 228.25,-36.78"/>
<polygon fill="#63b8ff" stroke="#63b8ff" points="231.75,-36.79 228.25,-26.79 224.75,-36.79 231.75,-36.79"/>
</a>
</g>
</g>
<!-- Node7 -->
<g id="Node000007" class="node">
<title>Node7</title>
<g id="a_Node000007"><a xlink:title=" ">
<polygon fill="#e0e0e0" stroke="#999999" points="384.25,-30.5 266.25,-30.5 266.25,0 384.25,0 384.25,-30.5"/>
<text text-anchor="start" x="274.25" y="-17" font-family="Helvetica,sans-Serif" font-size="10.00">custom_interfaces/msg</text>
<text text-anchor="middle" x="325.25" y="-5.75" font-family="Helvetica,sans-Serif" font-size="10.00">/cone_array.hpp</text>
</a>
</g>
</g>
<!-- Node3&#45;&gt;Node7 -->
<g id="edge7_Node000003_Node000007" class="edge">
<title>Node3&#45;&gt;Node7</title>
<g id="a_edge7_Node000003_Node000007"><a xlink:title=" ">
<path fill="none" stroke="#63b8ff" d="M242.98,-66.18C255.92,-58.33 275.22,-46.62 291.87,-36.51"/>
<polygon fill="#63b8ff" stroke="#63b8ff" points="293.28,-39.75 300.01,-31.57 289.65,-33.76 293.28,-39.75"/>
</a>
</g>
</g>
<!-- Node3&#45;&gt;Node8 -->
<g id="edge8_Node000003_Node000008" class="edge">
<title>Node3&#45;&gt;Node8</title>
<g id="a_edge8_Node000003_Node000008"><a xlink:title=" ">
<path fill="none" stroke="#63b8ff" d="M299.52,-67.18C362.41,-59.62 456.38,-46.95 537.25,-30.5 540.81,-29.78 544.49,-28.96 548.17,-28.09"/>
<polygon fill="#63b8ff" stroke="#63b8ff" points="548.79,-31.54 557.66,-25.74 547.11,-24.75 548.79,-31.54"/>
</a>
</g>
</g>
<!-- Node9 -->
<g id="Node000009" class="node">
<title>Node9</title>
<g id="a_Node000009"><a xlink:title=" ">
<polygon fill="#e0e0e0" stroke="#999999" points="528,-24.88 402.5,-24.88 402.5,-5.63 528,-5.63 528,-24.88"/>
<text text-anchor="middle" x="465.25" y="-11.38" font-family="Helvetica,sans-Serif" font-size="10.00">std_msgs/msg/string.hpp</text>
</a>
</g>
</g>
<!-- Node3&#45;&gt;Node9 -->
<g id="edge9_Node000003_Node000009" class="edge">
<title>Node3&#45;&gt;Node9</title>
<g id="a_edge9_Node000003_Node000009"><a xlink:title=" ">
<path fill="none" stroke="#63b8ff" d="M264.76,-66.05C305.82,-55.86 372.63,-39.26 417.73,-28.06"/>
<polygon fill="#63b8ff" stroke="#63b8ff" points="418.37,-31.5 427.23,-25.7 416.68,-24.71 418.37,-31.5"/>
</a>
</g>
</g>
</g>
</svg>
