<?xml version="1.0" encoding="UTF-8" standalone="no"?>
<!DOCTYPE svg PUBLIC "-//W3C//DTD SVG 1.1//EN"
 "http://www.w3.org/Graphics/SVG/1.1/DTD/svg11.dtd">
<!-- Generated by graphviz version 9.0.0 (20230911.1827)
 -->
<!-- Title: src/loc_map/include/kalman_filter/motion_models.hpp Pages: 1 -->
<svg width="870pt" height="249pt"
 viewBox="0.00 0.00 870.38 249.25" xmlns="http://www.w3.org/2000/svg" xmlns:xlink="http://www.w3.org/1999/xlink">
<g id="graph0" class="graph" transform="scale(1 1) rotate(0) translate(4 245.25)">
<title>src/loc_map/include/kalman_filter/motion_models.hpp</title>
<!-- Node1 -->
<g id="Node000001" class="node">
<title>Node1</title>
<g id="a_Node000001"><a xlink:title=" ">
<polygon fill="#999999" stroke="#666666" points="761.25,-241.25 655.25,-241.25 655.25,-199.5 761.25,-199.5 761.25,-241.25"/>
<text text-anchor="start" x="663.25" y="-227.75" font-family="Helvetica,sans-Serif" font-size="10.00">src/loc_map/include</text>
<text text-anchor="start" x="663.25" y="-216.5" font-family="Helvetica,sans-Serif" font-size="10.00">/kalman_filter/motion</text>
<text text-anchor="middle" x="708.25" y="-205.25" font-family="Helvetica,sans-Serif" font-size="10.00">_models.hpp</text>
</a>
</g>
</g>
<!-- Node2 -->
<g id="Node000002" class="node">
<title>Node2</title>
<g id="a_Node000002"><a xlink:href="ekf_8hpp.html" target="_top" xlink:title=" ">
<polygon fill="white" stroke="#666666" points="611.38,-163.5 503.12,-163.5 503.12,-133 611.38,-133 611.38,-163.5"/>
<text text-anchor="start" x="511.12" y="-150" font-family="Helvetica,sans-Serif" font-size="10.00">src/loc_map/include</text>
<text text-anchor="middle" x="557.25" y="-138.75" font-family="Helvetica,sans-Serif" font-size="10.00">/kalman_filter/ekf.hpp</text>
</a>
</g>
</g>
<!-- Node1&#45;&gt;Node2 -->
<g id="edge1_Node000001_Node000002" class="edge">
<title>Node1&#45;&gt;Node2</title>
<g id="a_edge1_Node000001_Node000002"><a xlink:title=" ">
<path fill="none" stroke="#63b8ff" d="M654.38,-194.36C632.42,-184.16 607.8,-172.72 588.84,-163.92"/>
<polygon fill="#63b8ff" stroke="#63b8ff" points="652.66,-197.42 663.2,-198.45 655.61,-191.07 652.66,-197.42"/>
</a>
</g>
</g>
<!-- Node9 -->
<g id="Node000009" class="node">
<title>Node9</title>
<g id="a_Node000009"><a xlink:href="motion__model__test_8cpp.html" target="_top" xlink:title=" ">
<polygon fill="white" stroke="#666666" points="768.75,-30.5 647.75,-30.5 647.75,0 768.75,0 768.75,-30.5"/>
<text text-anchor="start" x="655.75" y="-17" font-family="Helvetica,sans-Serif" font-size="10.00">src/loc_map/test/motion</text>
<text text-anchor="middle" x="708.25" y="-5.75" font-family="Helvetica,sans-Serif" font-size="10.00">_model_test.cpp</text>
</a>
</g>
</g>
<!-- Node1&#45;&gt;Node9 -->
<g id="edge12_Node000001_Node000009" class="edge">
<title>Node1&#45;&gt;Node9</title>
<g id="a_edge12_Node000001_Node000009"><a xlink:title=" ">
<path fill="none" stroke="#63b8ff" d="M708.25,-187.83C708.25,-143.18 708.25,-63.38 708.25,-30.76"/>
<polygon fill="#63b8ff" stroke="#63b8ff" points="704.75,-187.64 708.25,-197.64 711.75,-187.64 704.75,-187.64"/>
</a>
</g>
</g>
<!-- Node12 -->
<g id="Node000012" class="node">
<title>Node12</title>
<g id="a_Node000012"><a xlink:href="motion__models_8cpp.html" target="_top" xlink:title=" ">
<polygon fill="white" stroke="#666666" points="862.38,-163.5 736.12,-163.5 736.12,-133 862.38,-133 862.38,-163.5"/>
<text text-anchor="start" x="744.12" y="-150" font-family="Helvetica,sans-Serif" font-size="10.00">src/loc_map/src/kalman</text>
<text text-anchor="middle" x="799.25" y="-138.75" font-family="Helvetica,sans-Serif" font-size="10.00">_filter/motion_models.cpp</text>
</a>
</g>
</g>
<!-- Node1&#45;&gt;Node12 -->
<g id="edge11_Node000001_Node000012" class="edge">
<title>Node1&#45;&gt;Node12</title>
<g id="a_edge11_Node000001_Node000012"><a xlink:title=" ">
<path fill="none" stroke="#63b8ff" d="M743.43,-192.26C755.95,-182.62 769.56,-172.13 780.21,-163.92"/>
<polygon fill="#63b8ff" stroke="#63b8ff" points="741.55,-189.29 735.77,-198.17 745.83,-194.84 741.55,-189.29"/>
</a>
</g>
</g>
<!-- Node3 -->
<g id="Node000003" class="node">
<title>Node3</title>
<g id="a_Node000003"><a xlink:href="lm__node_8hpp.html" target="_top" xlink:title=" ">
<polygon fill="white" stroke="#666666" points="411,-97 297.5,-97 297.5,-66.5 411,-66.5 411,-97"/>
<text text-anchor="start" x="305.5" y="-83.5" font-family="Helvetica,sans-Serif" font-size="10.00">src/loc_map/include</text>
<text text-anchor="middle" x="354.25" y="-72.25" font-family="Helvetica,sans-Serif" font-size="10.00">/loc_map/lm_node.hpp</text>
</a>
</g>
</g>
<!-- Node2&#45;&gt;Node3 -->
<g id="edge2_Node000002_Node000003" class="edge">
<title>Node2&#45;&gt;Node3</title>
<g id="a_edge2_Node000002_Node000003"><a xlink:title=" ">
<path fill="none" stroke="#63b8ff" d="M500.1,-129.09C468.58,-119.08 429.95,-106.8 400.37,-97.4"/>
<polygon fill="#63b8ff" stroke="#63b8ff" points="498.9,-132.38 509.49,-132.07 501.02,-125.71 498.9,-132.38"/>
</a>
</g>
</g>
<!-- Node10 -->
<g id="Node000010" class="node">
<title>Node10</title>
<g id="a_Node000010"><a xlink:href="ekf_8cpp.html" target="_top" xlink:title=" ">
<polygon fill="white" stroke="#666666" points="549.38,-97 429.12,-97 429.12,-66.5 549.38,-66.5 549.38,-97"/>
<text text-anchor="start" x="437.12" y="-83.5" font-family="Helvetica,sans-Serif" font-size="10.00">src/loc_map/src/kalman</text>
<text text-anchor="middle" x="489.25" y="-72.25" font-family="Helvetica,sans-Serif" font-size="10.00">_filter/ekf.cpp</text>
</a>
</g>
</g>
<!-- Node2&#45;&gt;Node10 -->
<g id="edge9_Node000002_Node000010" class="edge">
<title>Node2&#45;&gt;Node10</title>
<g id="a_edge9_Node000002_Node000010"><a xlink:title=" ">
<path fill="none" stroke="#63b8ff" d="M533.76,-124.96C524.11,-115.82 513.22,-105.48 504.62,-97.33"/>
<polygon fill="#63b8ff" stroke="#63b8ff" points="531.06,-127.23 540.72,-131.57 535.87,-122.15 531.06,-127.23"/>
</a>
</g>
</g>
<!-- Node11 -->
<g id="Node000011" class="node">
<title>Node11</title>
<g id="a_Node000011"><a xlink:href="slam__test_8cpp.html" target="_top" xlink:title=" ">
<polygon fill="white" stroke="#666666" points="680.62,-97 567.88,-97 567.88,-66.5 680.62,-66.5 680.62,-97"/>
<text text-anchor="start" x="575.88" y="-83.5" font-family="Helvetica,sans-Serif" font-size="10.00">src/loc_map/test/slam</text>
<text text-anchor="middle" x="624.25" y="-72.25" font-family="Helvetica,sans-Serif" font-size="10.00">_test.cpp</text>
</a>
</g>
</g>
<!-- Node2&#45;&gt;Node11 -->
<g id="edge10_Node000002_Node000011" class="edge">
<title>Node2&#45;&gt;Node11</title>
<g id="a_edge10_Node000002_Node000011"><a xlink:title=" ">
<path fill="none" stroke="#63b8ff" d="M580.69,-124.69C590.12,-115.61 600.72,-105.4 609.11,-97.33"/>
<polygon fill="#63b8ff" stroke="#63b8ff" points="578.32,-122.11 573.54,-131.56 583.18,-127.15 578.32,-122.11"/>
</a>
</g>
</g>
<!-- Node4 -->
<g id="Node000004" class="node">
<title>Node4</title>
<g id="a_Node000004"><a xlink:href="loc__map_2include_2adapter_2adapter_8hpp.html" target="_top" xlink:title=" ">
<polygon fill="white" stroke="#666666" points="104.5,-30.5 0,-30.5 0,0 104.5,0 104.5,-30.5"/>
<text text-anchor="start" x="8" y="-17" font-family="Helvetica,sans-Serif" font-size="10.00">src/loc_map/include</text>
<text text-anchor="middle" x="52.25" y="-5.75" font-family="Helvetica,sans-Serif" font-size="10.00">/adapter/adapter.hpp</text>
</a>
</g>
</g>
<!-- Node3&#45;&gt;Node4 -->
<g id="edge3_Node000003_Node000004" class="edge">
<title>Node3&#45;&gt;Node4</title>
<g id="a_edge3_Node000003_Node000004"><a xlink:title=" ">
<path fill="none" stroke="#63b8ff" d="M285.94,-66.96C237.64,-57.1 171.4,-43.35 113.25,-30.5 110.49,-29.89 107.66,-29.26 104.8,-28.61"/>
<polygon fill="#63b8ff" stroke="#63b8ff" points="285.22,-70.38 295.71,-68.95 286.61,-63.53 285.22,-70.38"/>
</a>
</g>
</g>
<!-- Node5 -->
<g id="Node000005" class="node">
<title>Node5</title>
<g id="a_Node000005"><a xlink:href="loc__map_8cpp.html" target="_top" xlink:title=" ">
<polygon fill="white" stroke="#666666" points="224,-30.5 122.5,-30.5 122.5,0 224,0 224,-30.5"/>
<text text-anchor="start" x="130.5" y="-17" font-family="Helvetica,sans-Serif" font-size="10.00">src/loc_map/src/loc</text>
<text text-anchor="middle" x="173.25" y="-5.75" font-family="Helvetica,sans-Serif" font-size="10.00">_map.cpp</text>
</a>
</g>
</g>
<!-- Node3&#45;&gt;Node5 -->
<g id="edge4_Node000003_Node000005" class="edge">
<title>Node3&#45;&gt;Node5</title>
<g id="a_edge4_Node000003_Node000005"><a xlink:title=" ">
<path fill="none" stroke="#63b8ff" d="M302.42,-62.28C274.51,-52.33 240.56,-40.24 214.47,-30.94"/>
<polygon fill="#63b8ff" stroke="#63b8ff" points="301.16,-65.55 311.75,-65.61 303.51,-58.95 301.16,-65.55"/>
</a>
</g>
</g>
<!-- Node6 -->
<g id="Node000006" class="node">
<title>Node6</title>
<g id="a_Node000006"><a xlink:href="lm__node_8cpp.html" target="_top" xlink:title=" ">
<polygon fill="white" stroke="#666666" points="344,-30.5 242.5,-30.5 242.5,0 344,0 344,-30.5"/>
<text text-anchor="start" x="250.5" y="-17" font-family="Helvetica,sans-Serif" font-size="10.00">src/loc_map/src/loc</text>
<text text-anchor="middle" x="293.25" y="-5.75" font-family="Helvetica,sans-Serif" font-size="10.00">_map/lm_node.cpp</text>
</a>
</g>
</g>
<!-- Node3&#45;&gt;Node6 -->
<g id="edge5_Node000003_Node000006" class="edge">
<title>Node3&#45;&gt;Node6</title>
<g id="a_edge5_Node000003_Node000006"><a xlink:title=" ">
<path fill="none" stroke="#63b8ff" d="M332.65,-57.91C324.13,-48.9 314.59,-38.82 307.04,-30.83"/>
<polygon fill="#63b8ff" stroke="#63b8ff" points="329.95,-60.15 339.37,-65.01 335.04,-55.34 329.95,-60.15"/>
</a>
</g>
</g>
<!-- Node7 -->
<g id="Node000007" class="node">
<title>Node7</title>
<g id="a_Node000007"><a xlink:href="ekf__steps__exec__time_8cpp.html" target="_top" xlink:title=" ">
<polygon fill="white" stroke="#666666" points="474.62,-30.5 361.88,-30.5 361.88,0 474.62,0 474.62,-30.5"/>
<text text-anchor="start" x="369.88" y="-17" font-family="Helvetica,sans-Serif" font-size="10.00">src/loc_map/test/ekf</text>
<text text-anchor="middle" x="418.25" y="-5.75" font-family="Helvetica,sans-Serif" font-size="10.00">_steps_exec_time.cpp</text>
</a>
</g>
</g>
<!-- Node3&#45;&gt;Node7 -->
<g id="edge6_Node000003_Node000007" class="edge">
<title>Node3&#45;&gt;Node7</title>
<g id="a_edge6_Node000003_Node000007"><a xlink:title=" ">
<path fill="none" stroke="#63b8ff" d="M376.64,-58.19C385.65,-49.11 395.78,-38.9 403.78,-30.83"/>
<polygon fill="#63b8ff" stroke="#63b8ff" points="374.4,-55.48 369.84,-65.04 379.37,-60.41 374.4,-55.48"/>
</a>
</g>
</g>
<!-- Node8 -->
<g id="Node000008" class="node">
<title>Node8</title>
<g id="a_Node000008"><a xlink:href="integration__test_8cpp.html" target="_top" xlink:title=" ">
<polygon fill="white" stroke="#666666" points="629.62,-30.5 492.88,-30.5 492.88,0 629.62,0 629.62,-30.5"/>
<text text-anchor="start" x="500.88" y="-17" font-family="Helvetica,sans-Serif" font-size="10.00">src/loc_map/test/integration</text>
<text text-anchor="middle" x="561.25" y="-5.75" font-family="Helvetica,sans-Serif" font-size="10.00">_test.cpp</text>
</a>
</g>
</g>
<!-- Node3&#45;&gt;Node8 -->
<g id="edge7_Node000003_Node000008" class="edge">
<title>Node3&#45;&gt;Node8</title>
<g id="a_edge7_Node000003_Node000008"><a xlink:title=" ">
<path fill="none" stroke="#63b8ff" d="M412.1,-62.72C444.32,-52.68 483.92,-40.34 514.22,-30.9"/>
<polygon fill="#63b8ff" stroke="#63b8ff" points="411.43,-59.27 402.93,-65.58 413.51,-65.95 411.43,-59.27"/>
</a>
</g>
</g>
<!-- Node3&#45;&gt;Node9 -->
<g id="edge8_Node000003_Node000009" class="edge">
<title>Node3&#45;&gt;Node9</title>
<g id="a_edge8_Node000003_Node000009"><a xlink:title=" ">
<path fill="none" stroke="#63b8ff" d="M422.56,-66.12C518.62,-48.12 545.16,-47.65 638.25,-30.5 641.3,-29.94 644.42,-29.35 647.57,-28.75"/>
<polygon fill="#63b8ff" stroke="#63b8ff" points="422.12,-62.64 412.94,-67.94 423.42,-69.52 422.12,-62.64"/>
</a>
</g>
</g>
</g>
</svg>
