<?xml version="1.0" encoding="UTF-8" standalone="no"?>
<!DOCTYPE svg PUBLIC "-//W3C//DTD SVG 1.1//EN"
 "http://www.w3.org/Graphics/SVG/1.1/DTD/svg11.dtd">
<!-- Generated by graphviz version 9.0.0 (20230911.1827)
 -->
<!-- Title: src/loc_map/include/kalman_filter/motion_models.hpp Pages: 1 -->
<svg width="388pt" height="160pt"
 viewBox="0.00 0.00 387.75 160.25" xmlns="http://www.w3.org/2000/svg" xmlns:xlink="http://www.w3.org/1999/xlink">
<g id="graph0" class="graph" transform="scale(1 1) rotate(0) translate(4 156.25)">
<title>src/loc_map/include/kalman_filter/motion_models.hpp</title>
<!-- Node1 -->
<g id="Node000001" class="node">
<title>Node1</title>
<g id="a_Node000001"><a xlink:title=" ">
<polygon fill="#999999" stroke="#666666" points="150.38,-152.25 44.38,-152.25 44.38,-110.5 150.38,-110.5 150.38,-152.25"/>
<text text-anchor="start" x="52.38" y="-138.75" font-family="Helvetica,sans-Serif" font-size="10.00">src/loc_map/include</text>
<text text-anchor="start" x="52.38" y="-127.5" font-family="Helvetica,sans-Serif" font-size="10.00">/kalman_filter/motion</text>
<text text-anchor="middle" x="97.38" y="-116.25" font-family="Helvetica,sans-Serif" font-size="10.00">_models.hpp</text>
</a>
</g>
</g>
<!-- Node2 -->
<g id="Node000002" class="node">
<title>Node2</title>
<g id="a_Node000002"><a xlink:title=" ">
<polygon fill="#e0e0e0" stroke="#999999" points="70.75,-74.5 0,-74.5 0,-55.25 70.75,-55.25 70.75,-74.5"/>
<text text-anchor="middle" x="35.38" y="-61" font-family="Helvetica,sans-Serif" font-size="10.00">Eigen/Dense</text>
</a>
</g>
</g>
<!-- Node1&#45;&gt;Node2 -->
<g id="edge1_Node000001_Node000002" class="edge">
<title>Node1&#45;&gt;Node2</title>
<g id="a_edge1_Node000001_Node000002"><a xlink:title=" ">
<path fill="none" stroke="#63b8ff" d="M78.1,-110.32C69.74,-101.63 60.06,-91.55 52.02,-83.19"/>
<polygon fill="#63b8ff" stroke="#63b8ff" points="54.6,-80.82 45.14,-76.04 49.55,-85.67 54.6,-80.82"/>
</a>
</g>
</g>
<!-- Node3 -->
<g id="Node000003" class="node">
<title>Node3</title>
<g id="a_Node000003"><a xlink:href="data__structures_8hpp.html" target="_top" xlink:title=" ">
<polygon fill="white" stroke="#666666" points="230,-74.5 88.75,-74.5 88.75,-55.25 230,-55.25 230,-74.5"/>
<text text-anchor="middle" x="159.38" y="-61" font-family="Helvetica,sans-Serif" font-size="10.00">loc_map/data_structures.hpp</text>
</a>
</g>
</g>
<!-- Node1&#45;&gt;Node3 -->
<g id="edge2_Node000001_Node000003" class="edge">
<title>Node1&#45;&gt;Node3</title>
<g id="a_edge2_Node000001_Node000003"><a xlink:title=" ">
<path fill="none" stroke="#63b8ff" d="M116.65,-110.32C125.01,-101.63 134.69,-91.55 142.73,-83.19"/>
<polygon fill="#63b8ff" stroke="#63b8ff" points="145.2,-85.67 149.61,-76.04 140.15,-80.82 145.2,-85.67"/>
</a>
</g>
</g>
<!-- Node4 -->
<g id="Node000004" class="node">
<title>Node4</title>
<g id="a_Node000004"><a xlink:title=" ">
<polygon fill="#e0e0e0" stroke="#999999" points="69,-19.25 23.75,-19.25 23.75,0 69,0 69,-19.25"/>
<text text-anchor="middle" x="46.38" y="-5.75" font-family="Helvetica,sans-Serif" font-size="10.00">chrono</text>
</a>
</g>
</g>
<!-- Node3&#45;&gt;Node4 -->
<g id="edge3_Node000003_Node000004" class="edge">
<title>Node3&#45;&gt;Node4</title>
<g id="a_edge3_Node000003_Node000004"><a xlink:title=" ">
<path fill="none" stroke="#63b8ff" d="M140.21,-54.84C122.59,-46.54 96.22,-34.11 75.91,-24.54"/>
<polygon fill="#63b8ff" stroke="#63b8ff" points="77.55,-21.44 67.01,-20.35 74.56,-27.78 77.55,-21.44"/>
</a>
</g>
</g>
<!-- Node5 -->
<g id="Node000005" class="node">
<title>Node5</title>
<g id="a_Node000005"><a xlink:title=" ">
<polygon fill="#e0e0e0" stroke="#999999" points="121.75,-19.25 87,-19.25 87,0 121.75,0 121.75,-19.25"/>
<text text-anchor="middle" x="104.38" y="-5.75" font-family="Helvetica,sans-Serif" font-size="10.00">map</text>
</a>
</g>
</g>
<!-- Node3&#45;&gt;Node5 -->
<g id="edge4_Node000003_Node000005" class="edge">
<title>Node3&#45;&gt;Node5</title>
<g id="a_edge4_Node000003_Node000005"><a xlink:title=" ">
<path fill="none" stroke="#63b8ff" d="M150.29,-55.08C142.54,-47.57 131.16,-36.56 121.68,-27.38"/>
<polygon fill="#63b8ff" stroke="#63b8ff" points="124.36,-25.1 114.74,-20.66 119.49,-30.13 124.36,-25.1"/>
</a>
</g>
</g>
<!-- Node6 -->
<g id="Node000006" class="node">
<title>Node6</title>
<g id="a_Node000006"><a xlink:title=" ">
<polygon fill="#e0e0e0" stroke="#999999" points="179.38,-19.25 139.38,-19.25 139.38,0 179.38,0 179.38,-19.25"/>
<text text-anchor="middle" x="159.38" y="-5.75" font-family="Helvetica,sans-Serif" font-size="10.00">string</text>
</a>
</g>
</g>
<!-- Node3&#45;&gt;Node6 -->
<g id="edge5_Node000003_Node000006" class="edge">
<title>Node3&#45;&gt;Node6</title>
<g id="a_edge5_Node000003_Node000006"><a xlink:title=" ">
<path fill="none" stroke="#63b8ff" d="M159.38,-55.08C159.38,-48.57 159.38,-39.42 159.38,-31.12"/>
<polygon fill="#63b8ff" stroke="#63b8ff" points="162.88,-31.12 159.38,-21.12 155.88,-31.12 162.88,-31.12"/>
</a>
</g>
</g>
<!-- Node7 -->
<g id="Node000007" class="node">
<title>Node7</title>
<g id="a_Node000007"><a xlink:title=" ">
<polygon fill="#e0e0e0" stroke="#999999" points="273.38,-19.25 197.38,-19.25 197.38,0 273.38,0 273.38,-19.25"/>
<text text-anchor="middle" x="235.38" y="-5.75" font-family="Helvetica,sans-Serif" font-size="10.00">utils/color.hpp</text>
</a>
</g>
</g>
<!-- Node3&#45;&gt;Node7 -->
<g id="edge6_Node000003_Node000007" class="edge">
<title>Node3&#45;&gt;Node7</title>
<g id="a_edge6_Node000003_Node000007"><a xlink:title=" ">
<path fill="none" stroke="#63b8ff" d="M172.27,-54.84C183.4,-47.04 199.75,-35.59 213.01,-26.29"/>
<polygon fill="#63b8ff" stroke="#63b8ff" points="215,-29.18 221.18,-20.57 210.98,-23.44 215,-29.18"/>
</a>
</g>
</g>
<!-- Node8 -->
<g id="Node000008" class="node">
<title>Node8</title>
<g id="a_Node000008"><a xlink:title=" ">
<polygon fill="#e0e0e0" stroke="#999999" points="379.75,-19.25 291,-19.25 291,0 379.75,0 379.75,-19.25"/>
<text text-anchor="middle" x="335.38" y="-5.75" font-family="Helvetica,sans-Serif" font-size="10.00">utils/position.hpp</text>
</a>
</g>
</g>
<!-- Node3&#45;&gt;Node8 -->
<g id="edge7_Node000003_Node000008" class="edge">
<title>Node3&#45;&gt;Node8</title>
<g id="a_edge7_Node000003_Node000008"><a xlink:title=" ">
<path fill="none" stroke="#63b8ff" d="M189.23,-54.84C218.18,-46.08 262.33,-32.73 294.53,-22.98"/>
<polygon fill="#63b8ff" stroke="#63b8ff" points="295.37,-26.39 303.92,-20.14 293.34,-19.69 295.37,-26.39"/>
</a>
</g>
</g>
</g>
</svg>
