<?xml version="1.0" encoding="UTF-8" standalone="no"?>
<!DOCTYPE svg PUBLIC "-//W3C//DTD SVG 1.1//EN"
 "http://www.w3.org/Graphics/SVG/1.1/DTD/svg11.dtd">
<!-- Generated by graphviz version 9.0.0 (20230911.1827)
 -->
<!-- Title: src/long_control/include/node_/node_long_control.hpp Pages: 1 -->
<svg width="643pt" height="105pt"
 viewBox="0.00 0.00 643.38 105.00" xmlns="http://www.w3.org/2000/svg" xmlns:xlink="http://www.w3.org/1999/xlink">
<g id="graph0" class="graph" transform="scale(1 1) rotate(0) translate(4 101)">
<title>src/long_control/include/node_/node_long_control.hpp</title>
<!-- Node1 -->
<g id="Node000001" class="node">
<title>Node1</title>
<g id="a_Node000001"><a xlink:title=" ">
<polygon fill="#999999" stroke="#666666" points="300.12,-97 155.12,-97 155.12,-66.5 300.12,-66.5 300.12,-97"/>
<text text-anchor="start" x="163.12" y="-83.5" font-family="Helvetica,sans-Serif" font-size="10.00">src/long_control/include</text>
<text text-anchor="middle" x="227.62" y="-72.25" font-family="Helvetica,sans-Serif" font-size="10.00">/node_/node_long_control.hpp</text>
</a>
</g>
</g>
<!-- Node2 -->
<g id="Node000002" class="node">
<title>Node2</title>
<g id="a_Node000002"><a xlink:title=" ">
<polygon fill="#e0e0e0" stroke="#999999" points="45.25,-24.88 0,-24.88 0,-5.63 45.25,-5.63 45.25,-24.88"/>
<text text-anchor="middle" x="22.62" y="-11.38" font-family="Helvetica,sans-Serif" font-size="10.00">chrono</text>
</a>
</g>
</g>
<!-- Node1&#45;&gt;Node2 -->
<g id="edge1_Node000001_Node000002" class="edge">
<title>Node1&#45;&gt;Node2</title>
<g id="a_edge1_Node000001_Node000002"><a xlink:title=" ">
<path fill="none" stroke="#63b8ff" d="M169.72,-66.05C135.81,-56.92 92.37,-44.31 54.62,-30.5 53.83,-30.21 53.03,-29.91 52.23,-29.6"/>
<polygon fill="#63b8ff" stroke="#63b8ff" points="53.72,-26.43 43.14,-25.85 51.05,-32.9 53.72,-26.43"/>
</a>
</g>
</g>
<!-- Node3 -->
<g id="Node000003" class="node">
<title>Node3</title>
<g id="a_Node000003"><a xlink:title=" ">
<polygon fill="#e0e0e0" stroke="#999999" points="121.62,-24.88 63.62,-24.88 63.62,-5.63 121.62,-5.63 121.62,-24.88"/>
<text text-anchor="middle" x="92.62" y="-11.38" font-family="Helvetica,sans-Serif" font-size="10.00">functional</text>
</a>
</g>
</g>
<!-- Node1&#45;&gt;Node3 -->
<g id="edge2_Node000001_Node000003" class="edge">
<title>Node1&#45;&gt;Node3</title>
<g id="a_edge2_Node000001_Node000003"><a xlink:title=" ">
<path fill="none" stroke="#63b8ff" d="M196.99,-66.11C174.39,-55.32 143.85,-40.72 121.64,-30.11"/>
<polygon fill="#63b8ff" stroke="#63b8ff" points="123.38,-27.07 112.85,-25.91 120.36,-33.38 123.38,-27.07"/>
</a>
</g>
</g>
<!-- Node4 -->
<g id="Node000004" class="node">
<title>Node4</title>
<g id="a_Node000004"><a xlink:title=" ">
<polygon fill="#e0e0e0" stroke="#999999" points="189.88,-24.88 139.38,-24.88 139.38,-5.63 189.88,-5.63 189.88,-24.88"/>
<text text-anchor="middle" x="164.62" y="-11.38" font-family="Helvetica,sans-Serif" font-size="10.00">memory</text>
</a>
</g>
</g>
<!-- Node1&#45;&gt;Node4 -->
<g id="edge3_Node000001_Node000004" class="edge">
<title>Node1&#45;&gt;Node4</title>
<g id="a_edge3_Node000001_Node000004"><a xlink:title=" ">
<path fill="none" stroke="#63b8ff" d="M213.33,-66.11C203.78,-56.34 191.19,-43.45 181.21,-33.23"/>
<polygon fill="#63b8ff" stroke="#63b8ff" points="183.79,-30.86 174.3,-26.16 178.78,-35.75 183.79,-30.86"/>
</a>
</g>
</g>
<!-- Node5 -->
<g id="Node000005" class="node">
<title>Node5</title>
<g id="a_Node000005"><a xlink:title=" ">
<polygon fill="#e0e0e0" stroke="#999999" points="247.62,-24.88 207.62,-24.88 207.62,-5.63 247.62,-5.63 247.62,-24.88"/>
<text text-anchor="middle" x="227.62" y="-11.38" font-family="Helvetica,sans-Serif" font-size="10.00">string</text>
</a>
</g>
</g>
<!-- Node1&#45;&gt;Node5 -->
<g id="edge4_Node000001_Node000005" class="edge">
<title>Node1&#45;&gt;Node5</title>
<g id="a_edge4_Node000001_Node000005"><a xlink:title=" ">
<path fill="none" stroke="#63b8ff" d="M227.62,-66.11C227.62,-57.33 227.62,-46.02 227.62,-36.4"/>
<polygon fill="#63b8ff" stroke="#63b8ff" points="231.13,-36.59 227.63,-26.59 224.13,-36.59 231.13,-36.59"/>
</a>
</g>
</g>
<!-- Node6 -->
<g id="Node000006" class="node">
<title>Node6</title>
<g id="a_Node000006"><a xlink:title=" ">
<polygon fill="#e0e0e0" stroke="#999999" points="383.62,-30.5 265.62,-30.5 265.62,0 383.62,0 383.62,-30.5"/>
<text text-anchor="start" x="273.62" y="-17" font-family="Helvetica,sans-Serif" font-size="10.00">custom_interfaces/msg</text>
<text text-anchor="middle" x="324.62" y="-5.75" font-family="Helvetica,sans-Serif" font-size="10.00">/cone_array.hpp</text>
</a>
</g>
</g>
<!-- Node1&#45;&gt;Node6 -->
<g id="edge5_Node000001_Node000006" class="edge">
<title>Node1&#45;&gt;Node6</title>
<g id="a_edge5_Node000001_Node000006"><a xlink:title=" ">
<path fill="none" stroke="#63b8ff" d="M249.64,-66.11C262.53,-57.54 279.04,-46.56 293.28,-37.09"/>
<polygon fill="#63b8ff" stroke="#63b8ff" points="295.05,-40.12 301.44,-31.67 291.18,-34.29 295.05,-40.12"/>
</a>
</g>
</g>
<!-- Node7 -->
<g id="Node000007" class="node">
<title>Node7</title>
<g id="a_Node000007"><a xlink:title=" ">
<polygon fill="#e0e0e0" stroke="#999999" points="491.38,-24.88 401.88,-24.88 401.88,-5.63 491.38,-5.63 491.38,-24.88"/>
<text text-anchor="middle" x="446.62" y="-11.38" font-family="Helvetica,sans-Serif" font-size="10.00">rclcpp/rclcpp.hpp</text>
</a>
</g>
</g>
<!-- Node1&#45;&gt;Node7 -->
<g id="edge6_Node000001_Node000007" class="edge">
<title>Node1&#45;&gt;Node7</title>
<g id="a_edge6_Node000001_Node000007"><a xlink:title=" ">
<path fill="none" stroke="#63b8ff" d="M277.59,-66.03C316.15,-54.68 368.85,-39.16 405.1,-28.48"/>
<polygon fill="#63b8ff" stroke="#63b8ff" points="405.74,-31.94 414.34,-25.76 403.76,-25.23 405.74,-31.94"/>
</a>
</g>
</g>
<!-- Node8 -->
<g id="Node000008" class="node">
<title>Node8</title>
<g id="a_Node000008"><a xlink:title=" ">
<polygon fill="#e0e0e0" stroke="#999999" points="635.38,-24.88 509.88,-24.88 509.88,-5.63 635.38,-5.63 635.38,-24.88"/>
<text text-anchor="middle" x="572.62" y="-11.38" font-family="Helvetica,sans-Serif" font-size="10.00">std_msgs/msg/string.hpp</text>
</a>
</g>
</g>
<!-- Node1&#45;&gt;Node8 -->
<g id="edge7_Node000001_Node000008" class="edge">
<title>Node1&#45;&gt;Node8</title>
<g id="a_edge7_Node000001_Node000008"><a xlink:title=" ">
<path fill="none" stroke="#63b8ff" d="M300.39,-67.63C355.41,-57.64 432.82,-43.45 500.62,-30.5 505.75,-29.52 511.08,-28.49 516.42,-27.45"/>
<polygon fill="#63b8ff" stroke="#63b8ff" points="516.7,-30.96 525.84,-25.6 515.35,-24.09 516.7,-30.96"/>
</a>
</g>
</g>
</g>
</svg>
