<?xml version="1.0" encoding="UTF-8" standalone="no"?>
<!DOCTYPE svg PUBLIC "-//W3C//DTD SVG 1.1//EN"
 "http://www.w3.org/Graphics/SVG/1.1/DTD/svg11.dtd">
<!-- Generated by graphviz version 9.0.0 (20230911.1827)
 -->
<!-- Title: src/long_control/src/node_/node_long_control.cpp Pages: 1 -->
<svg width="643pt" height="160pt"
 viewBox="0.00 0.00 643.38 160.25" xmlns="http://www.w3.org/2000/svg" xmlns:xlink="http://www.w3.org/1999/xlink">
<g id="graph0" class="graph" transform="scale(1 1) rotate(0) translate(4 156.25)">
<title>src/long_control/src/node_/node_long_control.cpp</title>
<!-- Node1 -->
<g id="Node000001" class="node">
<title>Node1</title>
<g id="a_Node000001"><a xlink:title=" ">
<polygon fill="#999999" stroke="#666666" points="350.12,-152.25 205.12,-152.25 205.12,-121.75 350.12,-121.75 350.12,-152.25"/>
<text text-anchor="start" x="213.12" y="-138.75" font-family="Helvetica,sans-Serif" font-size="10.00">src/long_control/src</text>
<text text-anchor="middle" x="277.62" y="-127.5" font-family="Helvetica,sans-Serif" font-size="10.00">/node_/node_long_control.cpp</text>
</a>
</g>
</g>
<!-- Node2 -->
<g id="Node000002" class="node">
<title>Node2</title>
<g id="a_Node000002"><a xlink:href="node__long__control_8hpp.html" target="_top" xlink:title=" ">
<polygon fill="white" stroke="#666666" points="299.62,-85.75 157.62,-85.75 157.62,-66.5 299.62,-66.5 299.62,-85.75"/>
<text text-anchor="middle" x="228.62" y="-72.25" font-family="Helvetica,sans-Serif" font-size="10.00">node_/node_long_control.hpp</text>
</a>
</g>
</g>
<!-- Node1&#45;&gt;Node2 -->
<g id="edge1_Node000001_Node000002" class="edge">
<title>Node1&#45;&gt;Node2</title>
<g id="a_edge1_Node000001_Node000002"><a xlink:title=" ">
<path fill="none" stroke="#63b8ff" d="M265.51,-121.45C258.84,-113.43 250.51,-103.42 243.45,-94.94"/>
<polygon fill="#63b8ff" stroke="#63b8ff" points="246.23,-92.81 237.15,-87.36 240.85,-97.29 246.23,-92.81"/>
</a>
</g>
</g>
<!-- Node3 -->
<g id="Node000003" class="node">
<title>Node3</title>
<g id="a_Node000003"><a xlink:title=" ">
<polygon fill="#e0e0e0" stroke="#999999" points="45.25,-24.88 0,-24.88 0,-5.63 45.25,-5.63 45.25,-24.88"/>
<text text-anchor="middle" x="22.62" y="-11.38" font-family="Helvetica,sans-Serif" font-size="10.00">chrono</text>
</a>
</g>
</g>
<!-- Node1&#45;&gt;Node3 -->
<g id="edge9_Node000001_Node000003" class="edge">
<title>Node1&#45;&gt;Node3</title>
<g id="a_edge9_Node000001_Node000003"><a xlink:title=" ">
<path fill="none" stroke="#63b8ff" d="M215.43,-121.33C185.3,-112.99 149.14,-101.11 118.62,-85.75 89.67,-71.17 60,-48.22 41.46,-32.72"/>
<polygon fill="#63b8ff" stroke="#63b8ff" points="43.87,-30.18 33.99,-26.35 39.33,-35.5 43.87,-30.18"/>
</a>
</g>
</g>
<!-- Node4 -->
<g id="Node000004" class="node">
<title>Node4</title>
<g id="a_Node000004"><a xlink:title=" ">
<polygon fill="#e0e0e0" stroke="#999999" points="121.62,-24.88 63.62,-24.88 63.62,-5.63 121.62,-5.63 121.62,-24.88"/>
<text text-anchor="middle" x="92.62" y="-11.38" font-family="Helvetica,sans-Serif" font-size="10.00">functional</text>
</a>
</g>
</g>
<!-- Node1&#45;&gt;Node4 -->
<g id="edge10_Node000001_Node000004" class="edge">
<title>Node1&#45;&gt;Node4</title>
<g id="a_edge10_Node000001_Node000004"><a xlink:title=" ">
<path fill="none" stroke="#63b8ff" d="M211.91,-121.26C187.48,-113.53 160.63,-102.14 139.62,-85.75 122.44,-72.34 109.28,-50.85 101.32,-35.32"/>
<polygon fill="#63b8ff" stroke="#63b8ff" points="104.62,-34.1 97.11,-26.62 98.32,-37.15 104.62,-34.1"/>
</a>
</g>
</g>
<!-- Node5 -->
<g id="Node000005" class="node">
<title>Node5</title>
<g id="a_Node000005"><a xlink:title=" ">
<polygon fill="#e0e0e0" stroke="#999999" points="189.88,-24.88 139.38,-24.88 139.38,-5.63 189.88,-5.63 189.88,-24.88"/>
<text text-anchor="middle" x="164.62" y="-11.38" font-family="Helvetica,sans-Serif" font-size="10.00">memory</text>
</a>
</g>
</g>
<!-- Node1&#45;&gt;Node5 -->
<g id="edge11_Node000001_Node000005" class="edge">
<title>Node1&#45;&gt;Node5</title>
<g id="a_edge11_Node000001_Node000005"><a xlink:title=" ">
<path fill="none" stroke="#63b8ff" d="M204.7,-123.97C183.04,-116.63 161.65,-104.8 148.62,-85.75 138.28,-70.62 145.25,-49.74 152.97,-34.83"/>
<polygon fill="#63b8ff" stroke="#63b8ff" points="155.81,-36.92 157.74,-26.5 149.73,-33.44 155.81,-36.92"/>
</a>
</g>
</g>
<!-- Node6 -->
<g id="Node000006" class="node">
<title>Node6</title>
<g id="a_Node000006"><a xlink:title=" ">
<polygon fill="#e0e0e0" stroke="#999999" points="247.62,-24.88 207.62,-24.88 207.62,-5.63 247.62,-5.63 247.62,-24.88"/>
<text text-anchor="middle" x="227.62" y="-11.38" font-family="Helvetica,sans-Serif" font-size="10.00">string</text>
</a>
</g>
</g>
<!-- Node1&#45;&gt;Node6 -->
<g id="edge12_Node000001_Node000006" class="edge">
<title>Node1&#45;&gt;Node6</title>
<g id="a_edge12_Node000001_Node000006"><a xlink:title=" ">
<path fill="none" stroke="#63b8ff" d="M292.24,-121.26C304.59,-106.94 318.77,-84.74 308.62,-66.5 305.5,-60.88 276.32,-43.57 253.88,-30.83"/>
<polygon fill="#63b8ff" stroke="#63b8ff" points="255.6,-27.78 245.16,-25.93 252.16,-33.88 255.6,-27.78"/>
</a>
</g>
</g>
<!-- Node7 -->
<g id="Node000007" class="node">
<title>Node7</title>
<g id="a_Node000007"><a xlink:title=" ">
<polygon fill="#e0e0e0" stroke="#999999" points="383.62,-30.5 265.62,-30.5 265.62,0 383.62,0 383.62,-30.5"/>
<text text-anchor="start" x="273.62" y="-17" font-family="Helvetica,sans-Serif" font-size="10.00">custom_interfaces/msg</text>
<text text-anchor="middle" x="324.62" y="-5.75" font-family="Helvetica,sans-Serif" font-size="10.00">/cone_array.hpp</text>
</a>
</g>
</g>
<!-- Node1&#45;&gt;Node7 -->
<g id="edge13_Node000001_Node000007" class="edge">
<title>Node1&#45;&gt;Node7</title>
<g id="a_edge13_Node000001_Node000007"><a xlink:title=" ">
<path fill="none" stroke="#63b8ff" d="M306.34,-121.43C319.69,-112.99 334.21,-101 341.62,-85.75 348.44,-71.73 344.49,-54.76 338.69,-41.1"/>
<polygon fill="#63b8ff" stroke="#63b8ff" points="341.97,-39.83 334.47,-32.34 335.66,-42.86 341.97,-39.83"/>
</a>
</g>
</g>
<!-- Node8 -->
<g id="Node000008" class="node">
<title>Node8</title>
<g id="a_Node000008"><a xlink:title=" ">
<polygon fill="#e0e0e0" stroke="#999999" points="491.38,-24.88 401.88,-24.88 401.88,-5.63 491.38,-5.63 491.38,-24.88"/>
<text text-anchor="middle" x="446.62" y="-11.38" font-family="Helvetica,sans-Serif" font-size="10.00">rclcpp/rclcpp.hpp</text>
</a>
</g>
</g>
<!-- Node1&#45;&gt;Node8 -->
<g id="edge14_Node000001_Node000008" class="edge">
<title>Node1&#45;&gt;Node8</title>
<g id="a_edge14_Node000001_Node000008"><a xlink:title=" ">
<path fill="none" stroke="#63b8ff" d="M302.2,-121.46C318.24,-111.75 339.5,-98.47 357.62,-85.75 382.27,-68.46 409.37,-46.9 427.12,-32.42"/>
<polygon fill="#63b8ff" stroke="#63b8ff" points="429.26,-35.19 434.77,-26.14 424.82,-29.78 429.26,-35.19"/>
</a>
</g>
</g>
<!-- Node9 -->
<g id="Node000009" class="node">
<title>Node9</title>
<g id="a_Node000009"><a xlink:title=" ">
<polygon fill="#e0e0e0" stroke="#999999" points="635.38,-24.88 509.88,-24.88 509.88,-5.63 635.38,-5.63 635.38,-24.88"/>
<text text-anchor="middle" x="572.62" y="-11.38" font-family="Helvetica,sans-Serif" font-size="10.00">std_msgs/msg/string.hpp</text>
</a>
</g>
</g>
<!-- Node1&#45;&gt;Node9 -->
<g id="edge15_Node000001_Node000009" class="edge">
<title>Node1&#45;&gt;Node9</title>
<g id="a_edge15_Node000001_Node000009"><a xlink:title=" ">
<path fill="none" stroke="#63b8ff" d="M313.8,-121.32C371.66,-97.83 484.17,-52.16 539.83,-29.56"/>
<polygon fill="#63b8ff" stroke="#63b8ff" points="541.13,-32.81 549.08,-25.81 538.5,-26.33 541.13,-32.81"/>
</a>
</g>
</g>
<!-- Node2&#45;&gt;Node3 -->
<g id="edge2_Node000002_Node000003" class="edge">
<title>Node2&#45;&gt;Node3</title>
<g id="a_edge2_Node000002_Node000003"><a xlink:title=" ">
<path fill="none" stroke="#63b8ff" d="M184.76,-66.02C149.21,-58.13 98.07,-45.62 54.62,-30.5 53.83,-30.22 53.02,-29.93 52.21,-29.63"/>
<polygon fill="#63b8ff" stroke="#63b8ff" points="53.69,-26.46 43.11,-25.94 51.06,-32.94 53.69,-26.46"/>
</a>
</g>
</g>
<!-- Node2&#45;&gt;Node4 -->
<g id="edge3_Node000002_Node000004" class="edge">
<title>Node2&#45;&gt;Node4</title>
<g id="a_edge3_Node000002_Node000004"><a xlink:title=" ">
<path fill="none" stroke="#63b8ff" d="M207.67,-66.05C185.25,-56.35 149.43,-40.84 123.71,-29.71"/>
<polygon fill="#63b8ff" stroke="#63b8ff" points="125.33,-26.6 114.77,-25.84 122.55,-33.02 125.33,-26.6"/>
</a>
</g>
</g>
<!-- Node2&#45;&gt;Node5 -->
<g id="edge4_Node000002_Node000005" class="edge">
<title>Node2&#45;&gt;Node5</title>
<g id="a_edge4_Node000002_Node000005"><a xlink:title=" ">
<path fill="none" stroke="#63b8ff" d="M218.9,-66.18C209.32,-57.37 194.44,-43.68 182.68,-32.86"/>
<polygon fill="#63b8ff" stroke="#63b8ff" points="185.28,-30.5 175.55,-26.3 180.54,-35.65 185.28,-30.5"/>
</a>
</g>
</g>
<!-- Node2&#45;&gt;Node6 -->
<g id="edge5_Node000002_Node000006" class="edge">
<title>Node2&#45;&gt;Node6</title>
<g id="a_edge5_Node000002_Node000006"><a xlink:title=" ">
<path fill="none" stroke="#63b8ff" d="M228.47,-66.18C228.34,-58.4 228.14,-46.83 227.97,-36.78"/>
<polygon fill="#63b8ff" stroke="#63b8ff" points="231.47,-36.73 227.8,-26.79 224.47,-36.85 231.47,-36.73"/>
</a>
</g>
</g>
<!-- Node2&#45;&gt;Node7 -->
<g id="edge6_Node000002_Node000007" class="edge">
<title>Node2&#45;&gt;Node7</title>
<g id="a_edge6_Node000002_Node000007"><a xlink:title=" ">
<path fill="none" stroke="#63b8ff" d="M243.21,-66.18C255.89,-58.4 274.75,-46.84 291.13,-36.79"/>
<polygon fill="#63b8ff" stroke="#63b8ff" points="292.94,-39.79 299.64,-31.57 289.28,-33.82 292.94,-39.79"/>
</a>
</g>
</g>
<!-- Node2&#45;&gt;Node8 -->
<g id="edge7_Node000002_Node000008" class="edge">
<title>Node2&#45;&gt;Node8</title>
<g id="a_edge7_Node000002_Node000008"><a xlink:title=" ">
<path fill="none" stroke="#63b8ff" d="M262.21,-66.05C299.74,-55.92 360.65,-39.47 402.12,-28.27"/>
<polygon fill="#63b8ff" stroke="#63b8ff" points="402.8,-31.71 411.54,-25.73 400.97,-24.95 402.8,-31.71"/>
</a>
</g>
</g>
<!-- Node2&#45;&gt;Node9 -->
<g id="edge8_Node000002_Node000009" class="edge">
<title>Node2&#45;&gt;Node9</title>
<g id="a_edge8_Node000002_Node000009"><a xlink:title=" ">
<path fill="none" stroke="#63b8ff" d="M287.62,-66.02C342.78,-57.37 427.4,-43.75 500.62,-30.5 505.84,-29.56 511.25,-28.54 516.67,-27.51"/>
<polygon fill="#63b8ff" stroke="#63b8ff" points="517.09,-30.99 526.25,-25.66 515.76,-24.12 517.09,-30.99"/>
</a>
</g>
</g>
</g>
</svg>
