<?xml version="1.0" encoding="UTF-8" standalone="no"?>
<!DOCTYPE svg PUBLIC "-//W3C//DTD SVG 1.1//EN"
 "http://www.w3.org/Graphics/SVG/1.1/DTD/svg11.dtd">
<!-- Generated by graphviz version 9.0.0 (20230911.1827)
 -->
<!-- Title: src/perception/src/perception.cpp Pages: 1 -->
<svg width="372pt" height="172pt"
 viewBox="0.00 0.00 372.12 171.50" xmlns="http://www.w3.org/2000/svg" xmlns:xlink="http://www.w3.org/1999/xlink">

<svg id="main" version="1.1" xmlns="http://www.w3.org/2000/svg" xmlns:xlink="http://www.w3.org/1999/xlink" xml:space="preserve" onload="init(evt)">
<style type="text/css"><![CDATA[
.node, .edge {opacity: 0.7;}
.node.selected, .edge.selected {opacity: 1;}
.edge:hover path { stroke: red; }
.edge:hover polygon { stroke: red; fill: red; }
]]></style>
<script type="application/ecmascript" xlink:href="svg.min.js"/>
<svg id="graph" class="graph">
<g id="graph0" class="graph" transform="scale(1 1) rotate(0) translate(4 167.5)">
<title>src/perception/src/perception.cpp</title>
<!-- Node1 -->
<g id="Node000001" class="node">
<title>Node1</title>
<g id="a_Node000001"><a xlink:title=" ">
<polygon fill="#999999" stroke="#666666" points="275,-163.5 181,-163.5 181,-133 275,-133 275,-163.5"/>
<text text-anchor="start" x="189" y="-150" font-family="Helvetica,sans-Serif" font-size="10.00">src/perception/src</text>
<text text-anchor="middle" x="228" y="-138.75" font-family="Helvetica,sans-Serif" font-size="10.00">/perception.cpp</text>
</a>
</g>
</g>
<!-- Node2 -->
<g id="Node000002" class="node">
<title>Node2</title>
<g id="a_Node000002"><a xlink:href="perception__node_8hpp.html" target="_top" xlink:title=" ">
<polygon fill="white" stroke="#666666" points="235.5,-97 126.5,-97 126.5,-66.5 235.5,-66.5 235.5,-97"/>
<text text-anchor="start" x="134.5" y="-83.5" font-family="Helvetica,sans-Serif" font-size="10.00">perception/perception</text>
<text text-anchor="middle" x="181" y="-72.25" font-family="Helvetica,sans-Serif" font-size="10.00">_node.hpp</text>
</a>
</g>
</g>
<!-- Node1&#45;&gt;Node2 -->
<g id="edge1_Node000001_Node000002" class="edge">
<title>Node1&#45;&gt;Node2</title>
<g id="a_edge1_Node000001_Node000002"><a xlink:title=" ">
<path fill="none" stroke="#63b8ff" d="M217.33,-132.61C211.69,-124.86 204.61,-115.15 198.21,-106.36"/>
<polygon fill="#63b8ff" stroke="#63b8ff" points="201.23,-104.57 192.51,-98.55 195.57,-108.69 201.23,-104.57"/>
</a>
</g>
</g>
<!-- Node6 -->
<g id="Node000006" class="node">
<title>Node6</title>
<g id="a_Node000006"><a xlink:title=" ">
<polygon fill="#e0e0e0" stroke="#999999" points="296.12,-91.38 253.88,-91.38 253.88,-72.12 296.12,-72.12 296.12,-91.38"/>
<text text-anchor="middle" x="275" y="-77.88" font-family="Helvetica,sans-Serif" font-size="10.00">cstdio</text>
</a>
</g>
</g>
<!-- Node1&#45;&gt;Node6 -->
<g id="edge5_Node000001_Node000006" class="edge">
<title>Node1&#45;&gt;Node6</title>
<g id="a_edge5_Node000001_Node000006"><a xlink:title=" ">
<path fill="none" stroke="#63b8ff" d="M238.67,-132.61C245.57,-123.14 254.61,-110.73 261.95,-100.66"/>
<polygon fill="#63b8ff" stroke="#63b8ff" points="264.62,-102.94 267.68,-92.8 258.96,-98.82 264.62,-102.94"/>
</a>
</g>
</g>
<!-- Node3 -->
<g id="Node000003" class="node">
<title>Node3</title>
<g id="a_Node000003"><a xlink:title=" ">
<polygon fill="#e0e0e0" stroke="#999999" points="118,-30.5 0,-30.5 0,0 118,0 118,-30.5"/>
<text text-anchor="start" x="8" y="-17" font-family="Helvetica,sans-Serif" font-size="10.00">custom_interfaces/msg</text>
<text text-anchor="middle" x="59" y="-5.75" font-family="Helvetica,sans-Serif" font-size="10.00">/cone_array.hpp</text>
</a>
</g>
</g>
<!-- Node2&#45;&gt;Node3 -->
<g id="edge2_Node000002_Node000003" class="edge">
<title>Node2&#45;&gt;Node3</title>
<g id="a_edge2_Node000002_Node000003"><a xlink:title=" ">
<path fill="none" stroke="#63b8ff" d="M153.32,-66.11C136.55,-57.25 114.93,-45.82 96.63,-36.14"/>
<polygon fill="#63b8ff" stroke="#63b8ff" points="98.39,-33.12 87.91,-31.54 95.12,-39.3 98.39,-33.12"/>
</a>
</g>
</g>
<!-- Node4 -->
<g id="Node000004" class="node">
<title>Node4</title>
<g id="a_Node000004"><a xlink:title=" ">
<polygon fill="#e0e0e0" stroke="#999999" points="225.75,-24.88 136.25,-24.88 136.25,-5.63 225.75,-5.63 225.75,-24.88"/>
<text text-anchor="middle" x="181" y="-11.38" font-family="Helvetica,sans-Serif" font-size="10.00">rclcpp/rclcpp.hpp</text>
</a>
</g>
</g>
<!-- Node2&#45;&gt;Node4 -->
<g id="edge3_Node000002_Node000004" class="edge">
<title>Node2&#45;&gt;Node4</title>
<g id="a_edge3_Node000002_Node000004"><a xlink:title=" ">
<path fill="none" stroke="#63b8ff" d="M181,-66.11C181,-57.33 181,-46.02 181,-36.4"/>
<polygon fill="#63b8ff" stroke="#63b8ff" points="184.5,-36.59 181,-26.59 177.5,-36.59 184.5,-36.59"/>
</a>
</g>
</g>
<!-- Node5 -->
<g id="Node000005" class="node">
<title>Node5</title>
<g id="a_Node000005"><a xlink:title=" ">
<polygon fill="#e0e0e0" stroke="#999999" points="364.12,-30.5 243.88,-30.5 243.88,0 364.12,0 364.12,-30.5"/>
<text text-anchor="start" x="251.88" y="-17" font-family="Helvetica,sans-Serif" font-size="10.00">sensor_msgs/msg/point</text>
<text text-anchor="middle" x="304" y="-5.75" font-family="Helvetica,sans-Serif" font-size="10.00">_cloud2.hpp</text>
</a>
</g>
</g>
<!-- Node2&#45;&gt;Node5 -->
<g id="edge4_Node000002_Node000005" class="edge">
<title>Node2&#45;&gt;Node5</title>
<g id="a_edge4_Node000002_Node000005"><a xlink:title=" ">
<path fill="none" stroke="#63b8ff" d="M208.91,-66.11C225.82,-57.25 247.61,-45.82 266.06,-36.14"/>
<polygon fill="#63b8ff" stroke="#63b8ff" points="267.63,-39.27 274.86,-31.53 264.38,-33.08 267.63,-39.27"/>
</a>
</g>
</g>
</g>
</svg>
</svg>

<style type='text/css'>
<![CDATA[
[data-mouse-over-selected='false'] { opacity: 0.7; }
[data-mouse-over-selected='true']  { opacity: 1.0; }
]]>
</style>
<script type="application/ecmascript"><![CDATA[
document.addEventListener('DOMContentLoaded', (event) => {
  highlightEdges();
  highlightAdjacentNodes();
});
]]></script>
</svg>
