<?xml version="1.0" encoding="UTF-8" standalone="no"?>
<!DOCTYPE svg PUBLIC "-//W3C//DTD SVG 1.1//EN"
 "http://www.w3.org/Graphics/SVG/1.1/DTD/svg11.dtd">
<!-- Generated by graphviz version 9.0.0 (20230911.1827)
 -->
<!-- Title: src/planning/planning/src/planning/planning.cpp Pages: 1 -->
<svg width="1615pt" height="415pt"
 viewBox="0.00 0.00 1615.09 415.00" xmlns="http://www.w3.org/2000/svg" xmlns:xlink="http://www.w3.org/1999/xlink">
<g id="graph0" class="graph" transform="scale(1 1) rotate(0) translate(4 411)">
<title>src/planning/planning/src/planning/planning.cpp</title>
<!-- Node1 -->
<g id="Node000001" class="node">
<title>Node1</title>
<g id="a_Node000001"><a xlink:title=" ">
<polygon fill="#999999" stroke="#666666" points="655.25,-407 526.75,-407 526.75,-376.5 655.25,-376.5 655.25,-407"/>
<text text-anchor="start" x="534.75" y="-393.5" font-family="Helvetica,sans-Serif" font-size="10.00">src/planning/planning</text>
<text text-anchor="middle" x="591" y="-382.25" font-family="Helvetica,sans-Serif" font-size="10.00">/src/planning/planning.cpp</text>
</a>
</g>
</g>
<!-- Node2 -->
<g id="Node000002" class="node">
<title>Node2</title>
<g id="a_Node000002"><a xlink:href="planning_8hpp.html" target="_top" xlink:title=" ">
<polygon fill="white" stroke="#666666" points="604.5,-340.5 495.5,-340.5 495.5,-321.25 604.5,-321.25 604.5,-340.5"/>
<text text-anchor="middle" x="550" y="-327" font-family="Helvetica,sans-Serif" font-size="10.00">planning/planning.hpp</text>
</a>
</g>
</g>
<!-- Node1&#45;&gt;Node2 -->
<g id="edge1_Node000001_Node000002" class="edge">
<title>Node1&#45;&gt;Node2</title>
<g id="a_edge1_Node000001_Node000002"><a xlink:title=" ">
<path fill="none" stroke="#63b8ff" d="M580.87,-376.2C575.4,-368.35 568.61,-358.6 562.79,-350.24"/>
<polygon fill="#63b8ff" stroke="#63b8ff" points="565.77,-348.4 557.19,-342.19 560.03,-352.4 565.77,-348.4"/>
</a>
</g>
</g>
<!-- Node3 -->
<g id="Node000003" class="node">
<title>Node3</title>
<g id="a_Node000003"><a xlink:title=" ">
<polygon fill="#e0e0e0" stroke="#999999" points="124,-279.62 66,-279.62 66,-260.38 124,-260.38 124,-279.62"/>
<text text-anchor="middle" x="95" y="-266.12" font-family="Helvetica,sans-Serif" font-size="10.00">functional</text>
</a>
</g>
</g>
<!-- Node1&#45;&gt;Node3 -->
<g id="edge52_Node000001_Node000003" class="edge">
<title>Node1&#45;&gt;Node3</title>
<g id="a_edge52_Node000001_Node000003"><a xlink:title=" ">
<path fill="none" stroke="#63b8ff" d="M526.46,-381.23C470.04,-372.39 386.08,-357.98 314,-340.5 232.26,-320.68 212.64,-312.31 133,-285.25 131.83,-284.85 130.65,-284.44 129.45,-284.03"/>
<polygon fill="#63b8ff" stroke="#63b8ff" points="130.65,-280.74 120.06,-280.64 128.28,-287.32 130.65,-280.74"/>
</a>
</g>
</g>
<!-- Node5 -->
<g id="Node000005" class="node">
<title>Node5</title>
<g id="a_Node000005"><a xlink:title=" ">
<polygon fill="#e0e0e0" stroke="#999999" points="192.25,-279.62 141.75,-279.62 141.75,-260.38 192.25,-260.38 192.25,-279.62"/>
<text text-anchor="middle" x="167" y="-266.12" font-family="Helvetica,sans-Serif" font-size="10.00">memory</text>
</a>
</g>
</g>
<!-- Node1&#45;&gt;Node5 -->
<g id="edge53_Node000001_Node000005" class="edge">
<title>Node1&#45;&gt;Node5</title>
<g id="a_edge53_Node000001_Node000005"><a xlink:title=" ">
<path fill="none" stroke="#63b8ff" d="M526.37,-376.05C448.36,-357.68 313.62,-323.89 201,-285.25 200.02,-284.91 199.03,-284.56 198.03,-284.2"/>
<polygon fill="#63b8ff" stroke="#63b8ff" points="199.33,-280.95 188.74,-280.58 196.79,-287.47 199.33,-280.95"/>
</a>
</g>
</g>
<!-- Node6 -->
<g id="Node000006" class="node">
<title>Node6</title>
<g id="a_Node000006"><a xlink:title=" ">
<polygon fill="#e0e0e0" stroke="#999999" points="516,-80.12 476,-80.12 476,-60.88 516,-60.88 516,-80.12"/>
<text text-anchor="middle" x="496" y="-66.62" font-family="Helvetica,sans-Serif" font-size="10.00">string</text>
</a>
</g>
</g>
<!-- Node1&#45;&gt;Node6 -->
<g id="edge54_Node000001_Node000006" class="edge">
<title>Node1&#45;&gt;Node6</title>
<g id="a_edge54_Node000001_Node000006"><a xlink:title=" ">
<path fill="none" stroke="#63b8ff" d="M526.48,-390.24C380.61,-387.33 38,-369.97 38,-271 38,-271 38,-271 38,-196.88 38,-108.26 361.01,-80.06 464.5,-73.3"/>
<polygon fill="#63b8ff" stroke="#63b8ff" points="464.46,-76.81 474.22,-72.69 464.02,-69.82 464.46,-76.81"/>
</a>
</g>
</g>
<!-- Node7 -->
<g id="Node000007" class="node">
<title>Node7</title>
<g id="a_Node000007"><a xlink:title=" ">
<polygon fill="#e0e0e0" stroke="#999999" points="600.5,-19.25 557.5,-19.25 557.5,0 600.5,0 600.5,-19.25"/>
<text text-anchor="middle" x="579" y="-5.75" font-family="Helvetica,sans-Serif" font-size="10.00">vector</text>
</a>
</g>
</g>
<!-- Node1&#45;&gt;Node7 -->
<g id="edge55_Node000001_Node000007" class="edge">
<title>Node1&#45;&gt;Node7</title>
<g id="a_edge55_Node000001_Node000007"><a xlink:title=" ">
<path fill="none" stroke="#63b8ff" d="M526.59,-389.77C406.03,-387.07 151.33,-377.09 72,-340.5 31.61,-321.87 0,-315.48 0,-271 0,-271 0,-271 0,-130.38 0,-18.12 422.63,-10.27 545.73,-10.36"/>
<polygon fill="#63b8ff" stroke="#63b8ff" points="545.49,-13.86 555.5,-10.39 545.51,-6.86 545.49,-13.86"/>
</a>
</g>
</g>
<!-- Node9 -->
<g id="Node000009" class="node">
<title>Node9</title>
<g id="a_Node000009"><a xlink:title=" ">
<polygon fill="#e0e0e0" stroke="#999999" points="328,-285.25 210,-285.25 210,-254.75 328,-254.75 328,-285.25"/>
<text text-anchor="start" x="218" y="-271.75" font-family="Helvetica,sans-Serif" font-size="10.00">custom_interfaces/msg</text>
<text text-anchor="middle" x="269" y="-260.5" font-family="Helvetica,sans-Serif" font-size="10.00">/cone_array.hpp</text>
</a>
</g>
</g>
<!-- Node1&#45;&gt;Node9 -->
<g id="edge56_Node000001_Node000009" class="edge">
<title>Node1&#45;&gt;Node9</title>
<g id="a_edge56_Node000001_Node000009"><a xlink:title=" ">
<path fill="none" stroke="#63b8ff" d="M551.52,-376.07C493.02,-354.31 383.34,-313.52 319.21,-289.67"/>
<polygon fill="#63b8ff" stroke="#63b8ff" points="320.57,-286.44 309.97,-286.24 318.13,-293 320.57,-286.44"/>
</a>
</g>
</g>
<!-- Node10 -->
<g id="Node000010" class="node">
<title>Node10</title>
<g id="a_Node000010"><a xlink:title=" ">
<polygon fill="#e0e0e0" stroke="#999999" points="858,-285.25 740,-285.25 740,-254.75 858,-254.75 858,-285.25"/>
<text text-anchor="start" x="748" y="-271.75" font-family="Helvetica,sans-Serif" font-size="10.00">custom_interfaces/msg</text>
<text text-anchor="middle" x="799" y="-260.5" font-family="Helvetica,sans-Serif" font-size="10.00">/point2d.hpp</text>
</a>
</g>
</g>
<!-- Node1&#45;&gt;Node10 -->
<g id="edge57_Node000001_Node000010" class="edge">
<title>Node1&#45;&gt;Node10</title>
<g id="a_edge57_Node000001_Node000010"><a xlink:title=" ">
<path fill="none" stroke="#63b8ff" d="M616.5,-376.07C653.49,-354.78 722.12,-315.26 763.87,-291.23"/>
<polygon fill="#63b8ff" stroke="#63b8ff" points="765.38,-294.39 772.3,-286.37 761.89,-288.33 765.38,-294.39"/>
</a>
</g>
</g>
<!-- Node11 -->
<g id="Node000011" class="node">
<title>Node11</title>
<g id="a_Node000011"><a xlink:title=" ">
<polygon fill="#e0e0e0" stroke="#999999" points="994,-285.25 876,-285.25 876,-254.75 994,-254.75 994,-285.25"/>
<text text-anchor="start" x="884" y="-271.75" font-family="Helvetica,sans-Serif" font-size="10.00">custom_interfaces/msg</text>
<text text-anchor="middle" x="935" y="-260.5" font-family="Helvetica,sans-Serif" font-size="10.00">/point_array.hpp</text>
</a>
</g>
</g>
<!-- Node1&#45;&gt;Node11 -->
<g id="edge58_Node000001_Node000011" class="edge">
<title>Node1&#45;&gt;Node11</title>
<g id="a_edge58_Node000001_Node000011"><a xlink:title=" ">
<path fill="none" stroke="#63b8ff" d="M633.18,-376.07C695.94,-354.22 813.81,-313.19 882.21,-289.38"/>
<polygon fill="#63b8ff" stroke="#63b8ff" points="883.02,-292.8 891.31,-286.21 880.72,-286.19 883.02,-292.8"/>
</a>
</g>
</g>
<!-- Node12 -->
<g id="Node000012" class="node">
<title>Node12</title>
<g id="a_Node000012"><a xlink:title=" ">
<polygon fill="#e0e0e0" stroke="#999999" points="1130,-285.25 1012,-285.25 1012,-254.75 1130,-254.75 1130,-285.25"/>
<text text-anchor="start" x="1020" y="-271.75" font-family="Helvetica,sans-Serif" font-size="10.00">custom_interfaces/msg</text>
<text text-anchor="middle" x="1071" y="-260.5" font-family="Helvetica,sans-Serif" font-size="10.00">/pose.hpp</text>
</a>
</g>
</g>
<!-- Node1&#45;&gt;Node12 -->
<g id="edge59_Node000001_Node000012" class="edge">
<title>Node1&#45;&gt;Node12</title>
<g id="a_edge59_Node000001_Node000012"><a xlink:title=" ">
<path fill="none" stroke="#63b8ff" d="M649.86,-376.07C738.59,-353.93 906.32,-312.08 1001.13,-288.43"/>
<polygon fill="#63b8ff" stroke="#63b8ff" points="1001.71,-291.89 1010.57,-286.08 1000.02,-285.1 1001.71,-291.89"/>
</a>
</g>
</g>
<!-- Node13 -->
<g id="Node000013" class="node">
<title>Node13</title>
<g id="a_Node000013"><a xlink:href="global__path__planner_8hpp.html" target="_top" xlink:title=" ">
<polygon fill="white" stroke="#666666" points="684.25,-285.25 579.75,-285.25 579.75,-254.75 684.25,-254.75 684.25,-285.25"/>
<text text-anchor="start" x="587.75" y="-271.75" font-family="Helvetica,sans-Serif" font-size="10.00">planning/global_path</text>
<text text-anchor="middle" x="632" y="-260.5" font-family="Helvetica,sans-Serif" font-size="10.00">_planner.hpp</text>
</a>
</g>
</g>
<!-- Node1&#45;&gt;Node13 -->
<g id="edge60_Node000001_Node000013" class="edge">
<title>Node1&#45;&gt;Node13</title>
<g id="a_edge60_Node000001_Node000013"><a xlink:title=" ">
<path fill="none" stroke="#63b8ff" d="M598.12,-376.03C602.74,-366.13 608.68,-352.71 613,-340.5 618.04,-326.23 622.56,-309.93 625.93,-296.7"/>
<polygon fill="#63b8ff" stroke="#63b8ff" points="629.32,-297.58 628.31,-287.03 622.52,-295.91 629.32,-297.58"/>
</a>
</g>
</g>
<!-- Node25 -->
<g id="Node000025" class="node">
<title>Node25</title>
<g id="a_Node000025"><a xlink:href="files_8hpp.html" target="_top" xlink:title=" ">
<polygon fill="white" stroke="#666666" points="1130.12,-141 1057.88,-141 1057.88,-121.75 1130.12,-121.75 1130.12,-141"/>
<text text-anchor="middle" x="1094" y="-127.5" font-family="Helvetica,sans-Serif" font-size="10.00">utils/files.hpp</text>
</a>
</g>
</g>
<!-- Node1&#45;&gt;Node25 -->
<g id="edge62_Node000001_Node000025" class="edge">
<title>Node1&#45;&gt;Node25</title>
<g id="a_edge62_Node000001_Node000025"><a xlink:title=" ">
<path fill="none" stroke="#63b8ff" d="M655.72,-388.22C787.22,-381.58 1078.31,-358.74 1139,-285.25 1172.22,-245.02 1132.08,-181.1 1108.63,-150.22"/>
<polygon fill="#63b8ff" stroke="#63b8ff" points="1111.58,-148.32 1102.65,-142.62 1106.08,-152.65 1111.58,-148.32"/>
</a>
</g>
</g>
<!-- Node28 -->
<g id="Node000028" class="node">
<title>Node28</title>
<g id="a_Node000028"><a xlink:href="local__path__planner_8hpp.html" target="_top" xlink:title=" ">
<polygon fill="white" stroke="#666666" points="1285.62,-285.25 1186.38,-285.25 1186.38,-254.75 1285.62,-254.75 1285.62,-285.25"/>
<text text-anchor="start" x="1194.38" y="-271.75" font-family="Helvetica,sans-Serif" font-size="10.00">planning/local_path</text>
<text text-anchor="middle" x="1236" y="-260.5" font-family="Helvetica,sans-Serif" font-size="10.00">_planner.hpp</text>
</a>
</g>
</g>
<!-- Node1&#45;&gt;Node28 -->
<g id="edge61_Node000001_Node000028" class="edge">
<title>Node1&#45;&gt;Node28</title>
<g id="a_edge61_Node000001_Node000028"><a xlink:title=" ">
<path fill="none" stroke="#63b8ff" d="M655.59,-390.98C787.43,-390.5 1082.6,-384.4 1172,-340.5 1192.48,-330.44 1209.61,-310.79 1220.97,-294.94"/>
<polygon fill="#63b8ff" stroke="#63b8ff" points="1223.69,-297.17 1226.43,-286.94 1217.9,-293.23 1223.69,-297.17"/>
</a>
</g>
</g>
<!-- Node2&#45;&gt;Node3 -->
<g id="edge2_Node000002_Node000003" class="edge">
<title>Node2&#45;&gt;Node3</title>
<g id="a_edge2_Node000002_Node000003"><a xlink:title=" ">
<path fill="none" stroke="#63b8ff" d="M495.28,-328.4C414.88,-325.26 260.52,-315.47 133,-285.25 131.11,-284.8 129.2,-284.29 127.27,-283.72"/>
<polygon fill="#63b8ff" stroke="#63b8ff" points="128.44,-280.42 117.85,-280.58 126.22,-287.06 128.44,-280.42"/>
</a>
</g>
</g>
<!-- Node4 -->
<g id="Node000004" class="node">
<title>Node4</title>
<g id="a_Node000004"><a xlink:title=" ">
<polygon fill="#e0e0e0" stroke="#999999" points="501.38,-207.5 466.62,-207.5 466.62,-188.25 501.38,-188.25 501.38,-207.5"/>
<text text-anchor="middle" x="484" y="-194" font-family="Helvetica,sans-Serif" font-size="10.00">map</text>
</a>
</g>
</g>
<!-- Node2&#45;&gt;Node4 -->
<g id="edge3_Node000002_Node000004" class="edge">
<title>Node2&#45;&gt;Node4</title>
<g id="a_edge3_Node000002_Node000004"><a xlink:title=" ">
<path fill="none" stroke="#63b8ff" d="M548.56,-321.14C545.95,-306.7 539.58,-277.22 528,-254.75 520.74,-240.66 509.69,-226.65 500.48,-216.18"/>
<polygon fill="#63b8ff" stroke="#63b8ff" points="503.35,-214.13 494.03,-209.1 498.18,-218.85 503.35,-214.13"/>
</a>
</g>
</g>
<!-- Node2&#45;&gt;Node5 -->
<g id="edge4_Node000002_Node000005" class="edge">
<title>Node2&#45;&gt;Node5</title>
<g id="a_edge4_Node000002_Node000005"><a xlink:title=" ">
<path fill="none" stroke="#63b8ff" d="M495.01,-327.42C425.5,-323.29 302.63,-312.51 201,-285.25 199.61,-284.88 198.2,-284.46 196.79,-284.01"/>
<polygon fill="#63b8ff" stroke="#63b8ff" points="198.12,-280.77 187.52,-280.59 195.69,-287.33 198.12,-280.77"/>
</a>
</g>
</g>
<!-- Node2&#45;&gt;Node6 -->
<g id="edge5_Node000002_Node000006" class="edge">
<title>Node2&#45;&gt;Node6</title>
<g id="a_edge5_Node000002_Node000006"><a xlink:title=" ">
<path fill="none" stroke="#63b8ff" d="M544.34,-321.19C534.82,-306.82 514.72,-277.44 495,-254.75 479.95,-237.43 466.93,-239.89 458,-218.75 439.24,-174.32 466.6,-118.33 483.81,-89.89"/>
<polygon fill="#63b8ff" stroke="#63b8ff" points="486.6,-92.03 488.99,-81.7 480.69,-88.29 486.6,-92.03"/>
</a>
</g>
</g>
<!-- Node2&#45;&gt;Node7 -->
<g id="edge6_Node000002_Node000007" class="edge">
<title>Node2&#45;&gt;Node7</title>
<g id="a_edge6_Node000002_Node000007"><a xlink:title=" ">
<path fill="none" stroke="#63b8ff" d="M495.02,-322.24C450.16,-314.9 391.57,-302.38 375,-285.25 347.67,-257 356,-238.18 356,-198.88 356,-198.88 356,-198.88 356,-130.38 356,-45.12 484.06,-20.31 546.09,-13.29"/>
<polygon fill="#63b8ff" stroke="#63b8ff" points="546.12,-16.81 555.71,-12.3 545.4,-9.85 546.12,-16.81"/>
</a>
</g>
</g>
<!-- Node8 -->
<g id="Node000008" class="node">
<title>Node8</title>
<g id="a_Node000008"><a xlink:title=" ">
<polygon fill="#e0e0e0" stroke="#999999" points="485.75,-279.62 384.25,-279.62 384.25,-260.38 485.75,-260.38 485.75,-279.62"/>
<text text-anchor="middle" x="435" y="-266.12" font-family="Helvetica,sans-Serif" font-size="10.00">adapter/adapter.hpp</text>
</a>
</g>
</g>
<!-- Node2&#45;&gt;Node8 -->
<g id="edge7_Node000002_Node000008" class="edge">
<title>Node2&#45;&gt;Node8</title>
<g id="a_edge7_Node000002_Node000008"><a xlink:title=" ">
<path fill="none" stroke="#63b8ff" d="M532.53,-320.93C513.96,-311.42 484.32,-296.25 462.58,-285.12"/>
<polygon fill="#63b8ff" stroke="#63b8ff" points="464.47,-282.16 453.98,-280.72 461.28,-288.39 464.47,-282.16"/>
</a>
</g>
</g>
<!-- Node2&#45;&gt;Node9 -->
<g id="edge8_Node000002_Node000009" class="edge">
<title>Node2&#45;&gt;Node9</title>
<g id="a_edge8_Node000002_Node000009"><a xlink:title=" ">
<path fill="none" stroke="#63b8ff" d="M506.71,-320.8C462.18,-311.47 392.08,-296.79 339.53,-285.78"/>
<polygon fill="#63b8ff" stroke="#63b8ff" points="340.25,-282.35 329.74,-283.73 338.81,-289.2 340.25,-282.35"/>
</a>
</g>
</g>
<!-- Node2&#45;&gt;Node10 -->
<g id="edge9_Node000002_Node000010" class="edge">
<title>Node2&#45;&gt;Node10</title>
<g id="a_edge9_Node000002_Node000010"><a xlink:title=" ">
<path fill="none" stroke="#63b8ff" d="M588.36,-320.8C625.66,-311.98 683.21,-298.38 728.73,-287.62"/>
<polygon fill="#63b8ff" stroke="#63b8ff" points="729.32,-291.07 738.25,-285.36 727.71,-284.26 729.32,-291.07"/>
</a>
</g>
</g>
<!-- Node2&#45;&gt;Node11 -->
<g id="edge10_Node000002_Node000011" class="edge">
<title>Node2&#45;&gt;Node11</title>
<g id="a_edge10_Node000002_Node000011"><a xlink:title=" ">
<path fill="none" stroke="#63b8ff" d="M604.87,-323.28C665.86,-315.7 767.54,-302.31 864.52,-285.61"/>
<polygon fill="#63b8ff" stroke="#63b8ff" points="864.96,-289.09 874.22,-283.93 863.76,-282.19 864.96,-289.09"/>
</a>
</g>
</g>
<!-- Node2&#45;&gt;Node12 -->
<g id="edge11_Node000002_Node000012" class="edge">
<title>Node2&#45;&gt;Node12</title>
<g id="a_edge11_Node000002_Node000012"><a xlink:title=" ">
<path fill="none" stroke="#63b8ff" d="M604.98,-326.39C688.37,-320.68 852.01,-307.82 1000.6,-285.51"/>
<polygon fill="#63b8ff" stroke="#63b8ff" points="1000.87,-289.01 1010.23,-284.04 999.82,-282.09 1000.87,-289.01"/>
</a>
</g>
</g>
<!-- Node2&#45;&gt;Node13 -->
<g id="edge12_Node000002_Node000013" class="edge">
<title>Node2&#45;&gt;Node13</title>
<g id="a_edge12_Node000002_Node000013"><a xlink:title=" ">
<path fill="none" stroke="#63b8ff" d="M562.45,-320.93C573.08,-313.3 588.8,-302.02 602.6,-292.11"/>
<polygon fill="#63b8ff" stroke="#63b8ff" points="604.45,-295.09 610.53,-286.41 600.37,-289.4 604.45,-295.09"/>
</a>
</g>
</g>
<!-- Node2&#45;&gt;Node25 -->
<g id="edge51_Node000002_Node000025" class="edge">
<title>Node2&#45;&gt;Node25</title>
<g id="a_edge51_Node000002_Node000025"><a xlink:title=" ">
<path fill="none" stroke="#63b8ff" d="M593.59,-320.77C622.81,-313.6 661.55,-302 693,-285.25 712.11,-275.07 711.23,-263.59 731,-254.75 820.25,-214.85 856.14,-252.21 948,-218.75 996.06,-201.24 1046.11,-167.74 1073.32,-148"/>
<polygon fill="#63b8ff" stroke="#63b8ff" points="1075.08,-151.05 1081.05,-142.3 1070.93,-145.42 1075.08,-151.05"/>
</a>
</g>
</g>
<!-- Node2&#45;&gt;Node28 -->
<g id="edge41_Node000002_Node000028" class="edge">
<title>Node2&#45;&gt;Node28</title>
<g id="a_edge41_Node000002_Node000028"><a xlink:title=" ">
<path fill="none" stroke="#63b8ff" d="M604.93,-327C709.23,-321.27 943.06,-307.04 1139,-285.25 1150.67,-283.95 1163.09,-282.32 1175.01,-280.63"/>
<polygon fill="#63b8ff" stroke="#63b8ff" points="1175.35,-284.11 1184.74,-279.21 1174.34,-277.19 1175.35,-284.11"/>
</a>
</g>
</g>
<!-- Node13&#45;&gt;Node6 -->
<g id="edge13_Node000013_Node000006" class="edge">
<title>Node13&#45;&gt;Node6</title>
<g id="a_edge13_Node000013_Node000006"><a xlink:title=" ">
<path fill="none" stroke="#63b8ff" d="M615,-254.61C590.03,-232.6 543.52,-188.12 517,-141 508.3,-125.54 502.82,-106.07 499.64,-91.67"/>
<polygon fill="#63b8ff" stroke="#63b8ff" points="503.11,-91.16 497.72,-82.04 496.25,-92.53 503.11,-91.16"/>
</a>
</g>
</g>
<!-- Node13&#45;&gt;Node7 -->
<g id="edge15_Node000013_Node000007" class="edge">
<title>Node13&#45;&gt;Node7</title>
<g id="a_edge15_Node000013_Node000007"><a xlink:title=" ">
<path fill="none" stroke="#63b8ff" d="M579.4,-260.88C533.74,-252.63 472.69,-238.29 458,-218.75 437.83,-191.94 421.4,-117.44 467,-55.25 485.35,-30.22 520.02,-19.21 545.95,-14.38"/>
<polygon fill="#63b8ff" stroke="#63b8ff" points="546.35,-17.86 555.66,-12.81 545.23,-10.95 546.35,-17.86"/>
</a>
</g>
</g>
<!-- Node14 -->
<g id="Node000014" class="node">
<title>Node14</title>
<g id="a_Node000014"><a xlink:title=" ">
<polygon fill="#e0e0e0" stroke="#999999" points="1115.25,-207.5 1076.75,-207.5 1076.75,-188.25 1115.25,-188.25 1115.25,-207.5"/>
<text text-anchor="middle" x="1096" y="-194" font-family="Helvetica,sans-Serif" font-size="10.00">utility</text>
</a>
</g>
</g>
<!-- Node13&#45;&gt;Node14 -->
<g id="edge14_Node000013_Node000014" class="edge">
<title>Node13&#45;&gt;Node14</title>
<g id="a_edge14_Node000013_Node000014"><a xlink:title=" ">
<path fill="none" stroke="#63b8ff" d="M684.65,-261.34C699.63,-259.19 715.95,-256.86 731,-254.75 848.71,-238.28 878.77,-238.34 996,-218.75 1019.39,-214.84 1045.68,-209.58 1065.43,-205.45"/>
<polygon fill="#63b8ff" stroke="#63b8ff" points="1065.98,-208.92 1075.04,-203.43 1064.53,-202.07 1065.98,-208.92"/>
</a>
</g>
</g>
<!-- Node15 -->
<g id="Node000015" class="node">
<title>Node15</title>
<g id="a_Node000015"><a xlink:href="planning_2planning_2include_2utils_2position_8hpp.html" target="_top" xlink:title=" ">
<polygon fill="white" stroke="#666666" points="1337.12,-80.12 1240.88,-80.12 1240.88,-60.88 1337.12,-60.88 1337.12,-80.12"/>
<text text-anchor="middle" x="1289" y="-66.62" font-family="Helvetica,sans-Serif" font-size="10.00">../utils/position.hpp</text>
</a>
</g>
</g>
<!-- Node13&#45;&gt;Node15 -->
<g id="edge16_Node000013_Node000015" class="edge">
<title>Node13&#45;&gt;Node15</title>
<g id="a_edge16_Node000013_Node000015"><a xlink:title=" ">
<path fill="none" stroke="#63b8ff" d="M684.69,-261.21C767.94,-248.8 923.05,-225.3 948,-218.75 971.96,-212.45 1134.38,-151.11 1157,-141 1195.03,-124 1237.38,-100.93 1263.61,-86.12"/>
<polygon fill="#63b8ff" stroke="#63b8ff" points="1265.2,-89.25 1272.16,-81.26 1261.74,-83.16 1265.2,-89.25"/>
</a>
</g>
</g>
<!-- Node18 -->
<g id="Node000018" class="node">
<title>Node18</title>
<g id="a_Node000018"><a xlink:href="track_8hpp.html" target="_top" xlink:title=" ">
<polygon fill="white" stroke="#666666" points="938.5,-207.5 877.5,-207.5 877.5,-188.25 938.5,-188.25 938.5,-207.5"/>
<text text-anchor="middle" x="908" y="-194" font-family="Helvetica,sans-Serif" font-size="10.00">./track.hpp</text>
</a>
</g>
</g>
<!-- Node13&#45;&gt;Node18 -->
<g id="edge20_Node000013_Node000018" class="edge">
<title>Node13&#45;&gt;Node18</title>
<g id="a_edge20_Node000013_Node000018"><a xlink:title=" ">
<path fill="none" stroke="#63b8ff" d="M684.56,-255.64C737.27,-242.25 817.39,-221.9 866,-209.55"/>
<polygon fill="#63b8ff" stroke="#63b8ff" points="866.76,-212.96 875.59,-207.11 865.03,-206.18 866.76,-212.96"/>
</a>
</g>
</g>
<!-- Node15&#45;&gt;Node7 -->
<g id="edge19_Node000015_Node000007" class="edge">
<title>Node15&#45;&gt;Node7</title>
<g id="a_edge19_Node000015_Node000007"><a xlink:title=" ">
<path fill="none" stroke="#63b8ff" d="M1253.77,-60.39C1245.07,-58.43 1235.74,-56.55 1227,-55.25 993.27,-20.56 708.03,-12.76 612.19,-11.07"/>
<polygon fill="#63b8ff" stroke="#63b8ff" points="612.52,-7.58 602.46,-10.91 612.41,-14.58 612.52,-7.58"/>
</a>
</g>
</g>
<!-- Node16 -->
<g id="Node000016" class="node">
<title>Node16</title>
<g id="a_Node000016"><a xlink:title=" ">
<polygon fill="#e0e0e0" stroke="#999999" points="1310.5,-19.25 1267.5,-19.25 1267.5,0 1310.5,0 1310.5,-19.25"/>
<text text-anchor="middle" x="1289" y="-5.75" font-family="Helvetica,sans-Serif" font-size="10.00">cmath</text>
</a>
</g>
</g>
<!-- Node15&#45;&gt;Node16 -->
<g id="edge17_Node000015_Node000016" class="edge">
<title>Node15&#45;&gt;Node16</title>
<g id="a_edge17_Node000015_Node000016"><a xlink:title=" ">
<path fill="none" stroke="#63b8ff" d="M1289,-60.56C1289,-52.78 1289,-41.2 1289,-31.16"/>
<polygon fill="#63b8ff" stroke="#63b8ff" points="1292.5,-31.16 1289,-21.16 1285.5,-31.16 1292.5,-31.16"/>
</a>
</g>
</g>
<!-- Node17 -->
<g id="Node000017" class="node">
<title>Node17</title>
<g id="a_Node000017"><a xlink:title=" ">
<polygon fill="#e0e0e0" stroke="#999999" points="1048.5,-19.25 999.5,-19.25 999.5,0 1048.5,0 1048.5,-19.25"/>
<text text-anchor="middle" x="1024" y="-5.75" font-family="Helvetica,sans-Serif" font-size="10.00">fstream</text>
</a>
</g>
</g>
<!-- Node15&#45;&gt;Node17 -->
<g id="edge18_Node000015_Node000017" class="edge">
<title>Node15&#45;&gt;Node17</title>
<g id="a_edge18_Node000015_Node000017"><a xlink:title=" ">
<path fill="none" stroke="#63b8ff" d="M1249.65,-60.4C1242.14,-58.68 1234.33,-56.9 1227,-55.25 1168.52,-42.1 1100.47,-27.23 1059.88,-18.4"/>
<polygon fill="#63b8ff" stroke="#63b8ff" points="1060.7,-15 1050.18,-16.3 1059.21,-21.84 1060.7,-15"/>
</a>
</g>
</g>
<!-- Node18&#45;&gt;Node6 -->
<g id="edge26_Node000018_Node000006" class="edge">
<title>Node18&#45;&gt;Node6</title>
<g id="a_edge26_Node000018_Node000006"><a xlink:title=" ">
<path fill="none" stroke="#63b8ff" d="M877.07,-195.49C798.7,-191.48 594.56,-177.68 539,-141 521.09,-129.17 509.33,-107.05 502.71,-90.94"/>
<polygon fill="#63b8ff" stroke="#63b8ff" points="506.11,-90.04 499.31,-81.91 499.56,-92.5 506.11,-90.04"/>
</a>
</g>
</g>
<!-- Node18&#45;&gt;Node7 -->
<g id="edge27_Node000018_Node000007" class="edge">
<title>Node18&#45;&gt;Node7</title>
<g id="a_edge27_Node000018_Node000007"><a xlink:title=" ">
<path fill="none" stroke="#63b8ff" d="M877.15,-196.6C801.67,-195.2 611.04,-187.07 572,-141 545.59,-109.83 559.84,-57.92 570.59,-29.93"/>
<polygon fill="#63b8ff" stroke="#63b8ff" points="573.72,-31.51 574.27,-20.93 567.24,-28.85 573.72,-31.51"/>
</a>
</g>
</g>
<!-- Node18&#45;&gt;Node17 -->
<g id="edge24_Node000018_Node000017" class="edge">
<title>Node18&#45;&gt;Node17</title>
<g id="a_edge24_Node000018_Node000017"><a xlink:title=" ">
<path fill="none" stroke="#63b8ff" d="M930.62,-187.83C958.13,-176.32 1002,-156.12 1011,-141 1015.38,-133.65 1016.38,-128.4 1011,-121.75 962.99,-62.37 891.01,-145.13 843,-85.75 834.48,-75.21 834.64,-65.92 843,-55.25 860.66,-32.7 940.43,-20 987.97,-14.31"/>
<polygon fill="#63b8ff" stroke="#63b8ff" points="988.27,-17.8 997.81,-13.18 987.47,-10.84 988.27,-17.8"/>
</a>
</g>
</g>
<!-- Node19 -->
<g id="Node000019" class="node">
<title>Node19</title>
<g id="a_Node000019"><a xlink:title=" ">
<polygon fill="#e0e0e0" stroke="#999999" points="763,-141 675,-141 675,-121.75 763,-121.75 763,-141"/>
<text text-anchor="middle" x="719" y="-127.5" font-family="Helvetica,sans-Serif" font-size="10.00">gsl/gsl_bspline.h</text>
</a>
</g>
</g>
<!-- Node18&#45;&gt;Node19 -->
<g id="edge21_Node000018_Node000019" class="edge">
<title>Node18&#45;&gt;Node19</title>
<g id="a_edge21_Node000018_Node000019"><a xlink:title=" ">
<path fill="none" stroke="#63b8ff" d="M881.32,-187.77C848.68,-176.63 793.21,-157.7 756.34,-145.12"/>
<polygon fill="#63b8ff" stroke="#63b8ff" points="757.57,-141.84 746.97,-141.92 755.31,-148.46 757.57,-141.84"/>
</a>
</g>
</g>
<!-- Node20 -->
<g id="Node000020" class="node">
<title>Node20</title>
<g id="a_Node000020"><a xlink:title=" ">
<polygon fill="#e0e0e0" stroke="#999999" points="866.88,-141 781.12,-141 781.12,-121.75 866.88,-121.75 866.88,-141"/>
<text text-anchor="middle" x="824" y="-127.5" font-family="Helvetica,sans-Serif" font-size="10.00">gsl/gsl_multifit.h</text>
</a>
</g>
</g>
<!-- Node18&#45;&gt;Node20 -->
<g id="edge22_Node000018_Node000020" class="edge">
<title>Node18&#45;&gt;Node20</title>
<g id="a_edge22_Node000018_Node000020"><a xlink:title=" ">
<path fill="none" stroke="#63b8ff" d="M896.32,-187.91C882.98,-177.66 860.9,-160.71 844.64,-148.23"/>
<polygon fill="#63b8ff" stroke="#63b8ff" points="847.12,-145.71 837.05,-142.4 842.85,-151.26 847.12,-145.71"/>
</a>
</g>
</g>
<!-- Node21 -->
<g id="Node000021" class="node">
<title>Node21</title>
<g id="a_Node000021"><a xlink:title=" ">
<polygon fill="#e0e0e0" stroke="#999999" points="930.62,-141 885.38,-141 885.38,-121.75 930.62,-121.75 930.62,-141"/>
<text text-anchor="middle" x="908" y="-127.5" font-family="Helvetica,sans-Serif" font-size="10.00">cstring</text>
</a>
</g>
</g>
<!-- Node18&#45;&gt;Node21 -->
<g id="edge23_Node000018_Node000021" class="edge">
<title>Node18&#45;&gt;Node21</title>
<g id="a_edge23_Node000018_Node000021"><a xlink:title=" ">
<path fill="none" stroke="#63b8ff" d="M908,-187.91C908,-178.86 908,-164.57 908,-152.75"/>
<polygon fill="#63b8ff" stroke="#63b8ff" points="911.5,-152.78 908,-142.78 904.5,-152.78 911.5,-152.78"/>
</a>
</g>
</g>
<!-- Node22 -->
<g id="Node000022" class="node">
<title>Node22</title>
<g id="a_Node000022"><a xlink:title=" ">
<polygon fill="#e0e0e0" stroke="#999999" points="1001.75,-141 948.25,-141 948.25,-121.75 1001.75,-121.75 1001.75,-141"/>
<text text-anchor="middle" x="975" y="-127.5" font-family="Helvetica,sans-Serif" font-size="10.00">iostream</text>
</a>
</g>
</g>
<!-- Node18&#45;&gt;Node22 -->
<g id="edge25_Node000018_Node000022" class="edge">
<title>Node18&#45;&gt;Node22</title>
<g id="a_edge25_Node000018_Node000022"><a xlink:title=" ">
<path fill="none" stroke="#63b8ff" d="M917.32,-187.91C927.72,-177.89 944.78,-161.47 957.65,-149.08"/>
<polygon fill="#63b8ff" stroke="#63b8ff" points="959.9,-151.77 964.67,-142.32 955.04,-146.73 959.9,-151.77"/>
</a>
</g>
</g>
<!-- Node23 -->
<g id="Node000023" class="node">
<title>Node23</title>
<g id="a_Node000023"><a xlink:title=" ">
<polygon fill="#e0e0e0" stroke="#999999" points="1184.75,-80.12 1095.25,-80.12 1095.25,-60.88 1184.75,-60.88 1184.75,-80.12"/>
<text text-anchor="middle" x="1140" y="-66.62" font-family="Helvetica,sans-Serif" font-size="10.00">rclcpp/rclcpp.hpp</text>
</a>
</g>
</g>
<!-- Node18&#45;&gt;Node23 -->
<g id="edge28_Node000018_Node000023" class="edge">
<title>Node18&#45;&gt;Node23</title>
<g id="a_edge28_Node000018_Node000023"><a xlink:title=" ">
<path fill="none" stroke="#63b8ff" d="M933.21,-187.82C943.86,-184.18 956.45,-180.12 968,-177 1042.98,-156.76 1089.63,-200.96 1139,-141 1150.26,-127.33 1148.94,-106.49 1145.76,-91.19"/>
<polygon fill="#63b8ff" stroke="#63b8ff" points="1149.23,-90.66 1143.39,-81.83 1142.45,-92.38 1149.23,-90.66"/>
</a>
</g>
</g>
<!-- Node24 -->
<g id="Node000024" class="node">
<title>Node24</title>
<g id="a_Node000024"><a xlink:href="cone_8hpp.html" target="_top" xlink:title=" ">
<polygon fill="white" stroke="#666666" points="657,-141 581,-141 581,-121.75 657,-121.75 657,-141"/>
<text text-anchor="middle" x="619" y="-127.5" font-family="Helvetica,sans-Serif" font-size="10.00">utils/cone.hpp</text>
</a>
</g>
</g>
<!-- Node18&#45;&gt;Node24 -->
<g id="edge29_Node000018_Node000024" class="edge">
<title>Node18&#45;&gt;Node24</title>
<g id="a_edge29_Node000018_Node000024"><a xlink:title=" ">
<path fill="none" stroke="#63b8ff" d="M877.07,-189.97C827.14,-178.83 728.34,-156.78 668.52,-143.43"/>
<polygon fill="#63b8ff" stroke="#63b8ff" points="669.46,-140.05 658.94,-141.29 667.94,-146.88 669.46,-140.05"/>
</a>
</g>
</g>
<!-- Node18&#45;&gt;Node25 -->
<g id="edge33_Node000018_Node000025" class="edge">
<title>Node18&#45;&gt;Node25</title>
<g id="a_edge33_Node000018_Node000025"><a xlink:title=" ">
<path fill="none" stroke="#63b8ff" d="M929.38,-187.77C959.37,-176.58 1014.08,-157.54 1052.24,-144.96"/>
<polygon fill="#63b8ff" stroke="#63b8ff" points="1053.16,-148.34 1061.58,-141.9 1050.98,-141.68 1053.16,-148.34"/>
</a>
</g>
</g>
<!-- Node24&#45;&gt;Node6 -->
<g id="edge31_Node000024_Node000006" class="edge">
<title>Node24&#45;&gt;Node6</title>
<g id="a_edge31_Node000024_Node000006"><a xlink:title=" ">
<path fill="none" stroke="#63b8ff" d="M600.05,-121.3C580.04,-111.73 548.24,-96.5 525.05,-85.41"/>
<polygon fill="#63b8ff" stroke="#63b8ff" points="526.67,-82.3 516.13,-81.14 523.64,-88.61 526.67,-82.3"/>
</a>
</g>
</g>
<!-- Node24&#45;&gt;Node7 -->
<g id="edge32_Node000024_Node000007" class="edge">
<title>Node24&#45;&gt;Node7</title>
<g id="a_edge32_Node000024_Node000007"><a xlink:title=" ">
<path fill="none" stroke="#63b8ff" d="M615.99,-121.37C609.57,-102.13 594.36,-56.6 585.57,-30.3"/>
<polygon fill="#63b8ff" stroke="#63b8ff" points="589.01,-29.54 582.52,-21.17 582.37,-31.76 589.01,-29.54"/>
</a>
</g>
</g>
<!-- Node24&#45;&gt;Node16 -->
<g id="edge30_Node000024_Node000016" class="edge">
<title>Node24&#45;&gt;Node16</title>
<g id="a_edge30_Node000024_Node000016"><a xlink:title=" ">
<path fill="none" stroke="#63b8ff" d="M640.48,-121.36C679.87,-105.25 766.6,-71.67 843,-55.25 995.06,-22.57 1181.55,-13.72 1256.01,-11.41"/>
<polygon fill="#63b8ff" stroke="#63b8ff" points="1255.97,-14.91 1265.87,-11.12 1255.77,-7.91 1255.97,-14.91"/>
</a>
</g>
</g>
<!-- Node25&#45;&gt;Node6 -->
<g id="edge36_Node000025_Node000006" class="edge">
<title>Node25&#45;&gt;Node6</title>
<g id="a_edge36_Node000025_Node000006"><a xlink:title=" ">
<path fill="none" stroke="#63b8ff" d="M1057.64,-126.55C1043.14,-125.03 1026.28,-123.29 1011,-121.75 827.79,-103.29 607.8,-82.18 527.38,-74.49"/>
<polygon fill="#63b8ff" stroke="#63b8ff" points="527.92,-71.03 517.63,-73.56 527.26,-78 527.92,-71.03"/>
</a>
</g>
</g>
<!-- Node25&#45;&gt;Node7 -->
<g id="edge37_Node000025_Node000007" class="edge">
<title>Node25&#45;&gt;Node7</title>
<g id="a_edge37_Node000025_Node000007"><a xlink:title=" ">
<path fill="none" stroke="#63b8ff" d="M1057.6,-125.09C1008.57,-117.7 918.69,-103.2 843,-85.75 758.74,-66.32 661.3,-36.69 611.69,-21.08"/>
<polygon fill="#63b8ff" stroke="#63b8ff" points="612.74,-17.75 602.15,-18.07 610.63,-24.42 612.74,-17.75"/>
</a>
</g>
</g>
<!-- Node25&#45;&gt;Node15 -->
<g id="edge39_Node000025_Node000015" class="edge">
<title>Node25&#45;&gt;Node15</title>
<g id="a_edge39_Node000025_Node000015"><a xlink:title=" ">
<path fill="none" stroke="#63b8ff" d="M1124.04,-121.3C1157.25,-111.28 1210.94,-95.07 1248,-83.88"/>
<polygon fill="#63b8ff" stroke="#63b8ff" points="1248.91,-87.26 1257.48,-81.02 1246.89,-80.56 1248.91,-87.26"/>
</a>
</g>
</g>
<!-- Node25&#45;&gt;Node18 -->
<g id="edge38_Node000025_Node000018" class="edge">
<title>Node25&#45;&gt;Node18</title>
<g id="a_edge38_Node000025_Node000018"><a xlink:title=" ">
<path fill="none" stroke="#63b8ff" d="M1072.63,-141.48C1042.58,-152.69 987.66,-171.8 949.48,-184.39"/>
<polygon fill="#63b8ff" stroke="#63b8ff" points="948.56,-181 940.15,-187.44 950.74,-187.66 948.56,-181"/>
</a>
</g>
</g>
<!-- Node25&#45;&gt;Node23 -->
<g id="edge40_Node000025_Node000023" class="edge">
<title>Node25&#45;&gt;Node23</title>
<g id="a_edge40_Node000025_Node000023"><a xlink:title=" ">
<path fill="none" stroke="#63b8ff" d="M1100.99,-121.43C1107.61,-112.96 1117.74,-99.99 1126.02,-89.39"/>
<polygon fill="#63b8ff" stroke="#63b8ff" points="1128.62,-91.75 1132.02,-81.72 1123.1,-87.44 1128.62,-91.75"/>
</a>
</g>
</g>
<!-- Node26 -->
<g id="Node000026" class="node">
<title>Node26</title>
<g id="a_Node000026"><a xlink:title=" ">
<polygon fill="#e0e0e0" stroke="#999999" points="999.62,-85.75 852.38,-85.75 852.38,-55.25 999.62,-55.25 999.62,-85.75"/>
<text text-anchor="start" x="860.38" y="-72.25" font-family="Helvetica,sans-Serif" font-size="10.00">ament_index_cpp/get</text>
<text text-anchor="middle" x="926" y="-61" font-family="Helvetica,sans-Serif" font-size="10.00">_package_share_directory.hpp</text>
</a>
</g>
</g>
<!-- Node25&#45;&gt;Node26 -->
<g id="edge34_Node000025_Node000026" class="edge">
<title>Node25&#45;&gt;Node26</title>
<g id="a_edge34_Node000025_Node000026"><a xlink:title=" ">
<path fill="none" stroke="#63b8ff" d="M1068.12,-121.3C1044.35,-112.97 1008.39,-100.37 978.6,-89.93"/>
<polygon fill="#63b8ff" stroke="#63b8ff" points="979.95,-86.7 969.36,-86.7 977.64,-93.31 979.95,-86.7"/>
</a>
</g>
</g>
<!-- Node27 -->
<g id="Node000027" class="node">
<title>Node27</title>
<g id="a_Node000027"><a xlink:title=" ">
<polygon fill="#e0e0e0" stroke="#999999" points="1076.75,-80.12 1017.25,-80.12 1017.25,-60.88 1076.75,-60.88 1076.75,-80.12"/>
<text text-anchor="middle" x="1047" y="-66.62" font-family="Helvetica,sans-Serif" font-size="10.00">filesystem</text>
</a>
</g>
</g>
<!-- Node25&#45;&gt;Node27 -->
<g id="edge35_Node000025_Node000027" class="edge">
<title>Node25&#45;&gt;Node27</title>
<g id="a_edge35_Node000025_Node000027"><a xlink:title=" ">
<path fill="none" stroke="#63b8ff" d="M1086.86,-121.43C1080.1,-112.96 1069.75,-99.99 1061.29,-89.39"/>
<polygon fill="#63b8ff" stroke="#63b8ff" points="1064.12,-87.34 1055.15,-81.71 1058.65,-91.71 1064.12,-87.34"/>
</a>
</g>
</g>
<!-- Node28&#45;&gt;Node4 -->
<g id="edge45_Node000028_Node000004" class="edge">
<title>Node28&#45;&gt;Node4</title>
<g id="a_edge45_Node000028_Node000004"><a xlink:title=" ">
<path fill="none" stroke="#63b8ff" d="M1186.23,-261.1C1171.09,-258.85 1154.39,-256.53 1139,-254.75 897.84,-226.78 605.2,-206.71 513.15,-200.73"/>
<polygon fill="#63b8ff" stroke="#63b8ff" points="513.47,-197.24 503.27,-200.09 513.02,-204.23 513.47,-197.24"/>
</a>
</g>
</g>
<!-- Node28&#45;&gt;Node7 -->
<g id="edge47_Node000028_Node000007" class="edge">
<title>Node28&#45;&gt;Node7</title>
<g id="a_edge47_Node000028_Node000007"><a xlink:title=" ">
<path fill="none" stroke="#63b8ff" d="M1235.35,-254.27C1233.08,-210.36 1223.95,-81.76 1194,-55.25 1150.26,-16.53 734.09,-11.4 612.31,-10.72"/>
<polygon fill="#63b8ff" stroke="#63b8ff" points="612.37,-7.22 602.35,-10.68 612.33,-14.22 612.37,-7.22"/>
</a>
</g>
</g>
<!-- Node28&#45;&gt;Node14 -->
<g id="edge46_Node000028_Node000014" class="edge">
<title>Node28&#45;&gt;Node14</title>
<g id="a_edge46_Node000028_Node000014"><a xlink:title=" ">
<path fill="none" stroke="#63b8ff" d="M1206.65,-254.3C1182.45,-242.18 1148.34,-225.09 1124.41,-213.1"/>
<polygon fill="#63b8ff" stroke="#63b8ff" points="1126.06,-210.02 1115.55,-208.67 1122.92,-216.28 1126.06,-210.02"/>
</a>
</g>
</g>
<!-- Node28&#45;&gt;Node15 -->
<g id="edge48_Node000028_Node000015" class="edge">
<title>Node28&#45;&gt;Node15</title>
<g id="a_edge48_Node000028_Node000015"><a xlink:title=" ">
<path fill="none" stroke="#63b8ff" d="M1238.01,-254.51C1240.69,-236.27 1245.93,-204.03 1253,-177 1260.98,-146.48 1273.39,-112.05 1281.36,-91.07"/>
<polygon fill="#63b8ff" stroke="#63b8ff" points="1284.6,-92.4 1284.92,-81.81 1278.07,-89.88 1284.6,-92.4"/>
</a>
</g>
</g>
<!-- Node28&#45;&gt;Node16 -->
<g id="edge44_Node000028_Node000016" class="edge">
<title>Node28&#45;&gt;Node16</title>
<g id="a_edge44_Node000028_Node000016"><a xlink:title=" ">
<path fill="none" stroke="#63b8ff" d="M1285.91,-269.56C1373.75,-269.36 1550.36,-263.28 1589,-218.75 1676.64,-117.75 1416.14,-41.88 1321.74,-18.31"/>
<polygon fill="#63b8ff" stroke="#63b8ff" points="1322.85,-14.98 1312.3,-15.99 1321.18,-21.78 1322.85,-14.98"/>
</a>
</g>
</g>
<!-- Node28&#45;&gt;Node18 -->
<g id="edge49_Node000028_Node000018" class="edge">
<title>Node28&#45;&gt;Node18</title>
<g id="a_edge49_Node000028_Node000018"><a xlink:title=" ">
<path fill="none" stroke="#63b8ff" d="M1186.18,-258.35C1121.53,-244.53 1009.88,-220.66 949.56,-207.76"/>
<polygon fill="#63b8ff" stroke="#63b8ff" points="950.55,-204.39 940.04,-205.73 949.09,-211.24 950.55,-204.39"/>
</a>
</g>
</g>
<!-- Node28&#45;&gt;Node23 -->
<g id="edge50_Node000028_Node000023" class="edge">
<title>Node28&#45;&gt;Node23</title>
<g id="a_edge50_Node000028_Node000023"><a xlink:title=" ">
<path fill="none" stroke="#63b8ff" d="M1286.04,-269.12C1370.3,-268.14 1534.83,-260.75 1571,-218.75 1583.11,-204.69 1582.46,-191.6 1571,-177 1547.69,-147.3 1307.39,-101.23 1196.06,-81.27"/>
<polygon fill="#63b8ff" stroke="#63b8ff" points="1197.01,-77.88 1186.55,-79.57 1195.78,-84.78 1197.01,-77.88"/>
</a>
</g>
</g>
<!-- Node29 -->
<g id="Node000029" class="node">
<title>Node29</title>
<g id="a_Node000029"><a xlink:title=" ">
<polygon fill="#e0e0e0" stroke="#999999" points="1423.75,-207.5 1262.25,-207.5 1262.25,-188.25 1423.75,-188.25 1423.75,-207.5"/>
<text text-anchor="middle" x="1343" y="-194" font-family="Helvetica,sans-Serif" font-size="10.00">CGAL/Delaunay_triangulation_2.h</text>
</a>
</g>
</g>
<!-- Node28&#45;&gt;Node29 -->
<g id="edge42_Node000028_Node000029" class="edge">
<title>Node28&#45;&gt;Node29</title>
<g id="a_edge42_Node000028_Node000029"><a xlink:title=" ">
<path fill="none" stroke="#63b8ff" d="M1258.43,-254.3C1276.34,-242.56 1301.36,-226.16 1319.54,-214.25"/>
<polygon fill="#63b8ff" stroke="#63b8ff" points="1321.38,-217.23 1327.83,-208.82 1317.54,-211.37 1321.38,-217.23"/>
</a>
</g>
</g>
<!-- Node30 -->
<g id="Node000030" class="node">
<title>Node30</title>
<g id="a_Node000030"><a xlink:title=" ">
<polygon fill="#e0e0e0" stroke="#999999" points="1562.12,-218.75 1441.88,-218.75 1441.88,-177 1562.12,-177 1562.12,-218.75"/>
<text text-anchor="start" x="1449.88" y="-205.25" font-family="Helvetica,sans-Serif" font-size="10.00">CGAL/Exact_predicates</text>
<text text-anchor="start" x="1449.88" y="-194" font-family="Helvetica,sans-Serif" font-size="10.00">_inexact_constructions</text>
<text text-anchor="middle" x="1502" y="-182.75" font-family="Helvetica,sans-Serif" font-size="10.00">_kernel.h</text>
</a>
</g>
</g>
<!-- Node28&#45;&gt;Node30 -->
<g id="edge43_Node000028_Node000030" class="edge">
<title>Node28&#45;&gt;Node30</title>
<g id="a_edge43_Node000028_Node000030"><a xlink:title=" ">
<path fill="none" stroke="#63b8ff" d="M1285.9,-256.72C1323.3,-247.42 1376,-234.09 1430.52,-219.39"/>
<polygon fill="#63b8ff" stroke="#63b8ff" points="1431.25,-222.82 1439.99,-216.83 1429.42,-216.06 1431.25,-222.82"/>
</a>
</g>
</g>
</g>
</svg>
