<?xml version="1.0" encoding="UTF-8" standalone="no"?>
<!DOCTYPE svg PUBLIC "-//W3C//DTD SVG 1.1//EN"
 "http://www.w3.org/Graphics/SVG/1.1/DTD/svg11.dtd">
<!-- Generated by graphviz version 9.0.0 (20230911.1827)
 -->
<!-- Title: src/planning/planning/include/utils/color.hpp Pages: 1 -->
<svg width="121pt" height="94pt"
 viewBox="0.00 0.00 120.75 93.75" xmlns="http://www.w3.org/2000/svg" xmlns:xlink="http://www.w3.org/1999/xlink">
<g id="graph0" class="graph" transform="scale(1 1) rotate(0) translate(4 89.75)">
<title>src/planning/planning/include/utils/color.hpp</title>
<!-- Node1 -->
<g id="Node000001" class="node">
<title>Node1</title>
<g id="a_Node000001"><a xlink:title=" ">
<polygon fill="#999999" stroke="#666666" points="112.75,-85.75 0,-85.75 0,-55.25 112.75,-55.25 112.75,-85.75"/>
<text text-anchor="start" x="8" y="-72.25" font-family="Helvetica,sans-Serif" font-size="10.00">src/planning/planning</text>
<text text-anchor="middle" x="56.38" y="-61" font-family="Helvetica,sans-Serif" font-size="10.00">/include/utils/color.hpp</text>
</a>
</g>
</g>
<!-- Node2 -->
<g id="Node000002" class="node">
<title>Node2</title>
<g id="a_Node000002"><a xlink:title=" ">
<polygon fill="#e0e0e0" stroke="#999999" points="46.75,-19.25 12,-19.25 12,0 46.75,0 46.75,-19.25"/>
<text text-anchor="middle" x="29.38" y="-5.75" font-family="Helvetica,sans-Serif" font-size="10.00">map</text>
</a>
</g>
</g>
<!-- Node1&#45;&gt;Node2 -->
<g id="edge1_Node000001_Node000002" class="edge">
<title>Node1&#45;&gt;Node2</title>
<g id="a_edge1_Node000001_Node000002"><a xlink:title=" ">
<path fill="none" stroke="#63b8ff" d="M49.7,-54.95C46.26,-47.45 42.02,-38.2 38.3,-30.1"/>
<polygon fill="#63b8ff" stroke="#63b8ff" points="41.52,-28.71 34.17,-21.08 35.16,-31.63 41.52,-28.71"/>
</a>
</g>
</g>
<!-- Node3 -->
<g id="Node000003" class="node">
<title>Node3</title>
<g id="a_Node000003"><a xlink:title=" ">
<polygon fill="#e0e0e0" stroke="#999999" points="104.38,-19.25 64.38,-19.25 64.38,0 104.38,0 104.38,-19.25"/>
<text text-anchor="middle" x="84.38" y="-5.75" font-family="Helvetica,sans-Serif" font-size="10.00">string</text>
</a>
</g>
</g>
<!-- Node1&#45;&gt;Node3 -->
<g id="edge2_Node000001_Node000003" class="edge">
<title>Node1&#45;&gt;Node3</title>
<g id="a_edge2_Node000001_Node000003"><a xlink:title=" ">
<path fill="none" stroke="#63b8ff" d="M63.3,-54.95C66.86,-47.45 71.26,-38.2 75.12,-30.1"/>
<polygon fill="#63b8ff" stroke="#63b8ff" points="78.27,-31.6 79.41,-21.07 71.95,-28.6 78.27,-31.6"/>
</a>
</g>
</g>
</g>
</svg>
