<?xml version="1.0" encoding="UTF-8" standalone="no"?>
<!DOCTYPE svg PUBLIC "-//W3C//DTD SVG 1.1//EN"
 "http://www.w3.org/Graphics/SVG/1.1/DTD/svg11.dtd">
<!-- Generated by graphviz version 9.0.0 (20230911.1827)
 -->
<!-- Title: src/planning/planning/include/adapter/adapter.hpp Pages: 1 -->
<svg width="881pt" height="105pt"
 viewBox="0.00 0.00 880.75 105.00" xmlns="http://www.w3.org/2000/svg" xmlns:xlink="http://www.w3.org/1999/xlink">
<g id="graph0" class="graph" transform="scale(1 1) rotate(0) translate(4 101)">
<title>src/planning/planning/include/adapter/adapter.hpp</title>
<!-- Node1 -->
<g id="Node000001" class="node">
<title>Node1</title>
<g id="a_Node000001"><a xlink:title=" ">
<polygon fill="#999999" stroke="#666666" points="490.12,-97 351.88,-97 351.88,-66.5 490.12,-66.5 490.12,-97"/>
<text text-anchor="start" x="359.88" y="-83.5" font-family="Helvetica,sans-Serif" font-size="10.00">src/planning/planning</text>
<text text-anchor="middle" x="421" y="-72.25" font-family="Helvetica,sans-Serif" font-size="10.00">/include/adapter/adapter.hpp</text>
</a>
</g>
</g>
<!-- Node2 -->
<g id="Node000002" class="node">
<title>Node2</title>
<g id="a_Node000002"><a xlink:title=" ">
<polygon fill="#e0e0e0" stroke="#999999" points="40,-24.88 0,-24.88 0,-5.63 40,-5.63 40,-24.88"/>
<text text-anchor="middle" x="20" y="-11.38" font-family="Helvetica,sans-Serif" font-size="10.00">string</text>
</a>
</g>
</g>
<!-- Node1&#45;&gt;Node2 -->
<g id="edge1_Node000001_Node000002" class="edge">
<title>Node1&#45;&gt;Node2</title>
<g id="a_edge1_Node000001_Node000002"><a xlink:title=" ">
<path fill="none" stroke="#63b8ff" d="M351.71,-78.05C275.91,-73.57 151.56,-61.72 49,-30.5 48.2,-30.25 47.38,-29.99 46.57,-29.71"/>
<polygon fill="#63b8ff" stroke="#63b8ff" points="48.16,-26.58 37.58,-25.93 45.44,-33.03 48.16,-26.58"/>
</a>
</g>
</g>
<!-- Node3 -->
<g id="Node000003" class="node">
<title>Node3</title>
<g id="a_Node000003"><a xlink:title=" ">
<polygon fill="#e0e0e0" stroke="#999999" points="176,-30.5 58,-30.5 58,0 176,0 176,-30.5"/>
<text text-anchor="start" x="66" y="-17" font-family="Helvetica,sans-Serif" font-size="10.00">custom_interfaces/msg</text>
<text text-anchor="middle" x="117" y="-5.75" font-family="Helvetica,sans-Serif" font-size="10.00">/vcu.hpp</text>
</a>
</g>
</g>
<!-- Node1&#45;&gt;Node3 -->
<g id="edge2_Node000001_Node000003" class="edge">
<title>Node1&#45;&gt;Node3</title>
<g id="a_edge2_Node000001_Node000003"><a xlink:title=" ">
<path fill="none" stroke="#63b8ff" d="M351.64,-66.03C302.54,-55.62 236.91,-41.69 187.55,-31.22"/>
<polygon fill="#63b8ff" stroke="#63b8ff" points="188.32,-27.8 177.81,-29.15 186.87,-34.65 188.32,-27.8"/>
</a>
</g>
</g>
<!-- Node4 -->
<g id="Node000004" class="node">
<title>Node4</title>
<g id="a_Node000004"><a xlink:title=" ">
<polygon fill="#e0e0e0" stroke="#999999" points="343.75,-24.88 194.25,-24.88 194.25,-5.63 343.75,-5.63 343.75,-24.88"/>
<text text-anchor="middle" x="269" y="-11.38" font-family="Helvetica,sans-Serif" font-size="10.00">eufs_msgs/msg/can_state.hpp</text>
</a>
</g>
</g>
<!-- Node1&#45;&gt;Node4 -->
<g id="edge3_Node000001_Node000004" class="edge">
<title>Node1&#45;&gt;Node4</title>
<g id="a_edge3_Node000001_Node000004"><a xlink:title=" ">
<path fill="none" stroke="#63b8ff" d="M386.51,-66.11C360.72,-55.17 325.73,-40.32 300.65,-29.68"/>
<polygon fill="#63b8ff" stroke="#63b8ff" points="302.2,-26.54 291.63,-25.85 299.46,-32.98 302.2,-26.54"/>
</a>
</g>
</g>
<!-- Node5 -->
<g id="Node000005" class="node">
<title>Node5</title>
<g id="a_Node000005"><a xlink:title=" ">
<polygon fill="#e0e0e0" stroke="#999999" points="480,-30.5 362,-30.5 362,0 480,0 480,-30.5"/>
<text text-anchor="start" x="370" y="-17" font-family="Helvetica,sans-Serif" font-size="10.00">eufs_msgs/srv/set_can</text>
<text text-anchor="middle" x="421" y="-5.75" font-family="Helvetica,sans-Serif" font-size="10.00">_state.hpp</text>
</a>
</g>
</g>
<!-- Node1&#45;&gt;Node5 -->
<g id="edge4_Node000001_Node000005" class="edge">
<title>Node1&#45;&gt;Node5</title>
<g id="a_edge4_Node000001_Node000005"><a xlink:title=" ">
<path fill="none" stroke="#63b8ff" d="M421,-66.11C421,-59.02 421,-50.29 421,-42.13"/>
<polygon fill="#63b8ff" stroke="#63b8ff" points="424.5,-42.34 421,-32.34 417.5,-42.34 424.5,-42.34"/>
</a>
</g>
</g>
<!-- Node6 -->
<g id="Node000006" class="node">
<title>Node6</title>
<g id="a_Node000006"><a xlink:title=" ">
<polygon fill="#e0e0e0" stroke="#999999" points="609.62,-30.5 498.38,-30.5 498.38,0 609.62,0 609.62,-30.5"/>
<text text-anchor="start" x="506.38" y="-17" font-family="Helvetica,sans-Serif" font-size="10.00">fs_msgs/msg/finished</text>
<text text-anchor="middle" x="554" y="-5.75" font-family="Helvetica,sans-Serif" font-size="10.00">_signal.hpp</text>
</a>
</g>
</g>
<!-- Node1&#45;&gt;Node6 -->
<g id="edge5_Node000001_Node000006" class="edge">
<title>Node1&#45;&gt;Node6</title>
<g id="a_edge5_Node000001_Node000006"><a xlink:title=" ">
<path fill="none" stroke="#63b8ff" d="M451.18,-66.11C469.72,-57.13 493.68,-45.5 513.81,-35.74"/>
<polygon fill="#63b8ff" stroke="#63b8ff" points="515.11,-39 522.58,-31.49 512.05,-32.7 515.11,-39"/>
</a>
</g>
</g>
<!-- Node7 -->
<g id="Node000007" class="node">
<title>Node7</title>
<g id="a_Node000007"><a xlink:title=" ">
<polygon fill="#e0e0e0" stroke="#999999" points="764.75,-24.88 627.25,-24.88 627.25,-5.63 764.75,-5.63 764.75,-24.88"/>
<text text-anchor="middle" x="696" y="-11.38" font-family="Helvetica,sans-Serif" font-size="10.00">fs_msgs/msg/go_signal.hpp</text>
</a>
</g>
</g>
<!-- Node1&#45;&gt;Node7 -->
<g id="edge6_Node000001_Node000007" class="edge">
<title>Node1&#45;&gt;Node7</title>
<g id="a_edge6_Node000001_Node000007"><a xlink:title=" ">
<path fill="none" stroke="#63b8ff" d="M483.75,-66.03C532.99,-54.48 600.63,-38.62 646.2,-27.93"/>
<polygon fill="#63b8ff" stroke="#63b8ff" points="646.87,-31.37 655.81,-25.68 645.28,-24.55 646.87,-31.37"/>
</a>
</g>
</g>
<!-- Node8 -->
<g id="Node000008" class="node">
<title>Node8</title>
<g id="a_Node000008"><a xlink:title=" ">
<polygon fill="#e0e0e0" stroke="#999999" points="872.75,-24.88 783.25,-24.88 783.25,-5.63 872.75,-5.63 872.75,-24.88"/>
<text text-anchor="middle" x="828" y="-11.38" font-family="Helvetica,sans-Serif" font-size="10.00">rclcpp/rclcpp.hpp</text>
</a>
</g>
</g>
<!-- Node1&#45;&gt;Node8 -->
<g id="edge7_Node000001_Node000008" class="edge">
<title>Node1&#45;&gt;Node8</title>
<g id="a_edge7_Node000001_Node000008"><a xlink:title=" ">
<path fill="none" stroke="#63b8ff" d="M490.4,-73.29C561.88,-65.05 676.32,-50.27 774,-30.5 777.61,-29.77 781.34,-28.94 785.07,-28.06"/>
<polygon fill="#63b8ff" stroke="#63b8ff" points="785.83,-31.48 794.7,-25.67 784.15,-24.68 785.83,-31.48"/>
</a>
</g>
</g>
</g>
</svg>
