<?xml version="1.0" encoding="UTF-8" standalone="no"?>
<!DOCTYPE svg PUBLIC "-//W3C//DTD SVG 1.1//EN"
 "http://www.w3.org/Graphics/SVG/1.1/DTD/svg11.dtd">
<!-- Generated by graphviz version 9.0.0 (20230911.1827)
 -->
<!-- Title: src/planning/planning/include/planning/planning.hpp Pages: 1 -->
<!--zoomable 360 -->

<svg id="main" version="1.1" xmlns="http://www.w3.org/2000/svg" xmlns:xlink="http://www.w3.org/1999/xlink" xml:space="preserve" onload="init(evt)">
<style type="text/css"><![CDATA[
.node, .edge {opacity: 0.7;}
.node.selected, .edge.selected {opacity: 1;}
.edge:hover path { stroke: red; }
.edge:hover polygon { stroke: red; fill: red; }
]]></style>

<defs>
  <circle id="rim" cx="0" cy="0" r="7"/>
  <circle id="rim2" cx="0" cy="0" r="3.5"/>
  <g id="zoomPlus">
    <use xlink:href="#rim" fill="#404040"><set attributeName="fill" to="#808080" begin="zoomplus.mouseover" end="zoomplus.mouseout"/></use>
    <path d="M-4,0h8M0,-4v8" fill="none" stroke="white" stroke-width="1.5" pointer-events="none"/>
  </g>
  <g id="zoomMin">
    <use xlink:href="#rim" fill="#404040"><set attributeName="fill" to="#808080" begin="zoomminus.mouseover" end="zoomminus.mouseout"/></use>
    <path d="M-4,0h8" fill="none" stroke="white" stroke-width="1.5" pointer-events="none"/>
  </g>
  <g id="arrowUp" transform="translate(30 24)">
    <use xlink:href="#rim"/>
    <path pointer-events="none" fill="none" stroke="white" stroke-width="1.5" d="M0,-3.0v7 M-2.5,-0.5L0,-3.0L2.5,-0.5"/>
  </g>
  <g id="arrowRight" transform="rotate(90) translate(36 -43)">
    <use xlink:href="#rim"/>
    <path pointer-events="none" fill="none" stroke="white" stroke-width="1.5" d="M0,-3.0v7 M-2.5,-0.5L0,-3.0L2.5,-0.5"/>
  </g>
  <g id="arrowDown" transform="rotate(180) translate(-30 -48)">
    <use xlink:href="#rim"/>
    <path pointer-events="none" fill="none" stroke="white" stroke-width="1.5" d="M0,-3.0v7 M-2.5,-0.5L0,-3.0L2.5,-0.5"/>
  </g>
  <g id="arrowLeft" transform="rotate(270) translate(-36 17)">
    <use xlink:href="#rim"/>
    <path pointer-events="none" fill="none" stroke="white" stroke-width="1.5" d="M0,-3.0v7 M-2.5,-0.5L0,-3.0L2.5,-0.5"/>
  </g>
  <g id="resetDef">
    <use xlink:href="#rim2" fill="#404040"><set attributeName="fill" to="#808080" begin="reset.mouseover" end="reset.mouseout"/></use>
  </g>
</defs>
<script type="application/ecmascript">
var viewWidth = 1463;
var viewHeight = 360;
var sectionId = 'dynsection-0';
</script>
<script type="application/ecmascript" xlink:href="svg.min.js"/>
<svg id="graph" class="graph">
<g id="viewport">
<title>src/planning/planning/include/planning/planning.hpp</title>
<!-- Node1 -->
<g id="Node000001" class="node">
<title>Node1</title>
<g id="a_Node000001"><a xlink:title=" ">
<polygon fill="#999999" stroke="#666666" points="509.88,-351.75 364.12,-351.75 364.12,-321.25 509.88,-321.25 509.88,-351.75"/>
<text text-anchor="start" x="372.12" y="-338.25" font-family="Helvetica,sans-Serif" font-size="10.00">src/planning/planning</text>
<text text-anchor="middle" x="437" y="-327" font-family="Helvetica,sans-Serif" font-size="10.00">/include/planning/planning.hpp</text>
</a>
</g>
</g>
<!-- Node2 -->
<g id="Node000002" class="node">
<title>Node2</title>
<g id="a_Node000002"><a xlink:title=" ">
<polygon fill="#e0e0e0" stroke="#999999" points="58,-279.62 0,-279.62 0,-260.38 58,-260.38 58,-279.62"/>
<text text-anchor="middle" x="29" y="-266.12" font-family="Helvetica,sans-Serif" font-size="10.00">functional</text>
</a>
</g>
</g>
<!-- Node1&#45;&gt;Node2 -->
<g id="edge1_Node000001_Node000002" class="edge">
<title>Node1&#45;&gt;Node2</title>
<g id="a_edge1_Node000001_Node000002"><a xlink:title=" ">
<path fill="none" stroke="#63b8ff" d="M363.91,-329.41C289.71,-322.3 171.84,-308.46 72,-285.25 69.57,-284.69 67.09,-284.04 64.6,-283.35"/>
<polygon fill="#63b8ff" stroke="#63b8ff" points="65.82,-280.06 55.24,-280.51 63.79,-286.76 65.82,-280.06"/>
</a>
</g>
</g>
<!-- Node3 -->
<g id="Node000003" class="node">
<title>Node3</title>
<g id="a_Node000003"><a xlink:title=" ">
<polygon fill="#e0e0e0" stroke="#999999" points="254.38,-207.5 219.62,-207.5 219.62,-188.25 254.38,-188.25 254.38,-207.5"/>
<text text-anchor="middle" x="237" y="-194" font-family="Helvetica,sans-Serif" font-size="10.00">map</text>
</a>
</g>
</g>
<!-- Node1&#45;&gt;Node3 -->
<g id="edge2_Node000001_Node000003" class="edge">
<title>Node1&#45;&gt;Node3</title>
<g id="a_edge2_Node000001_Node000003"><a xlink:title=" ">
<path fill="none" stroke="#63b8ff" d="M363.83,-324.45C317.86,-315.95 264.44,-302.72 249,-285.25 233.12,-267.28 232.3,-238.49 233.98,-219.14"/>
<polygon fill="#63b8ff" stroke="#63b8ff" points="237.45,-219.6 235.17,-209.25 230.5,-218.76 237.45,-219.6"/>
</a>
</g>
</g>
<!-- Node4 -->
<g id="Node000004" class="node">
<title>Node4</title>
<g id="a_Node000004"><a xlink:title=" ">
<polygon fill="#e0e0e0" stroke="#999999" points="164.25,-279.62 113.75,-279.62 113.75,-260.38 164.25,-260.38 164.25,-279.62"/>
<text text-anchor="middle" x="139" y="-266.12" font-family="Helvetica,sans-Serif" font-size="10.00">memory</text>
</a>
</g>
</g>
<!-- Node1&#45;&gt;Node4 -->
<g id="edge3_Node000001_Node000004" class="edge">
<title>Node1&#45;&gt;Node4</title>
<g id="a_edge3_Node000001_Node000004"><a xlink:title=" ">
<path fill="none" stroke="#63b8ff" d="M363.72,-324.47C311.45,-315.83 239.79,-302.41 178,-285.25 176.27,-284.77 174.5,-284.25 172.73,-283.69"/>
<polygon fill="#63b8ff" stroke="#63b8ff" points="173.93,-280.41 163.33,-280.54 171.7,-287.04 173.93,-280.41"/>
</a>
</g>
</g>
<!-- Node5 -->
<g id="Node000005" class="node">
<title>Node5</title>
<g id="a_Node000005"><a xlink:title=" ">
<polygon fill="#e0e0e0" stroke="#999999" points="466,-80.12 426,-80.12 426,-60.88 466,-60.88 466,-80.12"/>
<text text-anchor="middle" x="446" y="-66.62" font-family="Helvetica,sans-Serif" font-size="10.00">string</text>
</a>
</g>
</g>
<!-- Node1&#45;&gt;Node5 -->
<g id="edge4_Node000001_Node000005" class="edge">
<title>Node1&#45;&gt;Node5</title>
<g id="a_edge4_Node000001_Node000005"><a xlink:title=" ">
<path fill="none" stroke="#63b8ff" d="M363.88,-325.28C313.06,-316.79 251.16,-303.19 232,-285.25 196.23,-251.75 184.37,-218.14 211,-177 256.54,-106.64 361.34,-82.76 414.23,-75.01"/>
<polygon fill="#63b8ff" stroke="#63b8ff" points="414.65,-78.49 424.09,-73.68 413.72,-71.55 414.65,-78.49"/>
</a>
</g>
</g>
<!-- Node6 -->
<g id="Node000006" class="node">
<title>Node6</title>
<g id="a_Node000006"><a xlink:title=" ">
<polygon fill="#e0e0e0" stroke="#999999" points="391.5,-19.25 348.5,-19.25 348.5,0 391.5,0 391.5,-19.25"/>
<text text-anchor="middle" x="370" y="-5.75" font-family="Helvetica,sans-Serif" font-size="10.00">vector</text>
</a>
</g>
</g>
<!-- Node1&#45;&gt;Node6 -->
<g id="edge5_Node000001_Node000006" class="edge">
<title>Node1&#45;&gt;Node6</title>
<g id="a_edge5_Node000001_Node000006"><a xlink:title=" ">
<path fill="none" stroke="#63b8ff" d="M363.92,-333.84C277.7,-330.32 141.45,-319.36 105,-285.25 76.3,-258.39 86,-238.18 86,-198.88 86,-198.88 86,-198.88 86,-130.38 86,-22.44 262.31,-10.25 337.1,-9.93"/>
<polygon fill="#63b8ff" stroke="#63b8ff" points="336.66,-13.43 346.67,-9.97 336.69,-6.43 336.66,-13.43"/>
</a>
</g>
</g>
<!-- Node7 -->
<g id="Node000007" class="node">
<title>Node7</title>
<g id="a_Node000007"><a xlink:title=" ">
<polygon fill="#e0e0e0" stroke="#999999" points="359.75,-279.62 258.25,-279.62 258.25,-260.38 359.75,-260.38 359.75,-279.62"/>
<text text-anchor="middle" x="309" y="-266.12" font-family="Helvetica,sans-Serif" font-size="10.00">adapter/adapter.hpp</text>
</a>
</g>
</g>
<!-- Node1&#45;&gt;Node7 -->
<g id="edge6_Node000001_Node000007" class="edge">
<title>Node1&#45;&gt;Node7</title>
<g id="a_edge6_Node000001_Node000007"><a xlink:title=" ">
<path fill="none" stroke="#63b8ff" d="M407.95,-320.86C386.72,-310.17 358.09,-295.74 337.09,-285.15"/>
<polygon fill="#63b8ff" stroke="#63b8ff" points="338.74,-282.07 328.23,-280.69 335.59,-288.32 338.74,-282.07"/>
</a>
</g>
</g>
<!-- Node8 -->
<g id="Node000008" class="node">
<title>Node8</title>
<g id="a_Node000008"><a xlink:title=" ">
<polygon fill="#e0e0e0" stroke="#999999" points="496,-285.25 378,-285.25 378,-254.75 496,-254.75 496,-285.25"/>
<text text-anchor="start" x="386" y="-271.75" font-family="Helvetica,sans-Serif" font-size="10.00">custom_interfaces/msg</text>
<text text-anchor="middle" x="437" y="-260.5" font-family="Helvetica,sans-Serif" font-size="10.00">/cone_array.hpp</text>
</a>
</g>
</g>
<!-- Node1&#45;&gt;Node8 -->
<g id="edge7_Node000001_Node000008" class="edge">
<title>Node1&#45;&gt;Node8</title>
<g id="a_edge7_Node000001_Node000008"><a xlink:title=" ">
<path fill="none" stroke="#63b8ff" d="M437,-320.86C437,-313.77 437,-305.04 437,-296.88"/>
<polygon fill="#63b8ff" stroke="#63b8ff" points="440.5,-297.09 437,-287.09 433.5,-297.09 440.5,-297.09"/>
</a>
</g>
</g>
<!-- Node9 -->
<g id="Node000009" class="node">
<title>Node9</title>
<g id="a_Node000009"><a xlink:title=" ">
<polygon fill="#e0e0e0" stroke="#999999" points="632,-285.25 514,-285.25 514,-254.75 632,-254.75 632,-285.25"/>
<text text-anchor="start" x="522" y="-271.75" font-family="Helvetica,sans-Serif" font-size="10.00">custom_interfaces/msg</text>
<text text-anchor="middle" x="573" y="-260.5" font-family="Helvetica,sans-Serif" font-size="10.00">/point2d.hpp</text>
</a>
</g>
</g>
<!-- Node1&#45;&gt;Node9 -->
<g id="edge8_Node000001_Node000009" class="edge">
<title>Node1&#45;&gt;Node9</title>
<g id="a_edge8_Node000001_Node000009"><a xlink:title=" ">
<path fill="none" stroke="#63b8ff" d="M467.86,-320.86C486.81,-311.88 511.32,-300.25 531.9,-290.49"/>
<polygon fill="#63b8ff" stroke="#63b8ff" points="533.36,-293.67 540.89,-286.23 530.36,-287.35 533.36,-293.67"/>
</a>
</g>
</g>
<!-- Node10 -->
<g id="Node000010" class="node">
<title>Node10</title>
<g id="a_Node000010"><a xlink:title=" ">
<polygon fill="#e0e0e0" stroke="#999999" points="768,-285.25 650,-285.25 650,-254.75 768,-254.75 768,-285.25"/>
<text text-anchor="start" x="658" y="-271.75" font-family="Helvetica,sans-Serif" font-size="10.00">custom_interfaces/msg</text>
<text text-anchor="middle" x="709" y="-260.5" font-family="Helvetica,sans-Serif" font-size="10.00">/point_array.hpp</text>
</a>
</g>
</g>
<!-- Node1&#45;&gt;Node10 -->
<g id="edge9_Node000001_Node000010" class="edge">
<title>Node1&#45;&gt;Node10</title>
<g id="a_edge9_Node000001_Node000010"><a xlink:title=" ">
<path fill="none" stroke="#63b8ff" d="M499.06,-320.78C540.6,-310.93 595.36,-297.95 638.54,-287.71"/>
<polygon fill="#63b8ff" stroke="#63b8ff" points="639.14,-291.16 648.07,-285.45 637.53,-284.35 639.14,-291.16"/>
</a>
</g>
</g>
<!-- Node11 -->
<g id="Node000011" class="node">
<title>Node11</title>
<g id="a_Node000011"><a xlink:title=" ">
<polygon fill="#e0e0e0" stroke="#999999" points="904,-285.25 786,-285.25 786,-254.75 904,-254.75 904,-285.25"/>
<text text-anchor="start" x="794" y="-271.75" font-family="Helvetica,sans-Serif" font-size="10.00">custom_interfaces/msg</text>
<text text-anchor="middle" x="845" y="-260.5" font-family="Helvetica,sans-Serif" font-size="10.00">/pose.hpp</text>
</a>
</g>
</g>
<!-- Node1&#45;&gt;Node11 -->
<g id="edge10_Node000001_Node000011" class="edge">
<title>Node1&#45;&gt;Node11</title>
<g id="a_edge10_Node000001_Node000011"><a xlink:title=" ">
<path fill="none" stroke="#63b8ff" d="M510.16,-325.98C576.59,-317.03 677.53,-302.72 774.51,-285.63"/>
<polygon fill="#63b8ff" stroke="#63b8ff" points="774.98,-289.1 784.21,-283.91 773.75,-282.21 774.98,-289.1"/>
</a>
</g>
</g>
<!-- Node12 -->
<g id="Node000012" class="node">
<title>Node12</title>
<g id="a_Node000012"><a xlink:href="global__path__planner_8hpp.html" target="_top" xlink:title=" ">
<polygon fill="white" stroke="#666666" points="1026.25,-285.25 921.75,-285.25 921.75,-254.75 1026.25,-254.75 1026.25,-285.25"/>
<text text-anchor="start" x="929.75" y="-271.75" font-family="Helvetica,sans-Serif" font-size="10.00">planning/global_path</text>
<text text-anchor="middle" x="974" y="-260.5" font-family="Helvetica,sans-Serif" font-size="10.00">_planner.hpp</text>
</a>
</g>
</g>
<!-- Node1&#45;&gt;Node12 -->
<g id="edge11_Node000001_Node000012" class="edge">
<title>Node1&#45;&gt;Node12</title>
<g id="a_edge11_Node000001_Node000012"><a xlink:title=" ">
<path fill="none" stroke="#63b8ff" d="M510.37,-330.6C601.9,-323.85 763.33,-309.86 910.49,-285.54"/>
<polygon fill="#63b8ff" stroke="#63b8ff" points="910.73,-289.05 920.02,-283.95 909.58,-282.15 910.73,-289.05"/>
</a>
</g>
</g>
<!-- Node24 -->
<g id="Node000024" class="node">
<title>Node24</title>
<g id="a_Node000024"><a xlink:href="files_8hpp.html" target="_top" xlink:title=" ">
<polygon fill="white" stroke="#666666" points="1099.12,-141 1026.88,-141 1026.88,-121.75 1099.12,-121.75 1099.12,-141"/>
<text text-anchor="middle" x="1063" y="-127.5" font-family="Helvetica,sans-Serif" font-size="10.00">utils/files.hpp</text>
</a>
</g>
</g>
<!-- Node1&#45;&gt;Node24 -->
<g id="edge50_Node000001_Node000024" class="edge">
<title>Node1&#45;&gt;Node24</title>
<g id="a_edge50_Node000001_Node000024"><a xlink:title=" ">
<path fill="none" stroke="#63b8ff" d="M510.37,-335.85C640.81,-335.26 921.17,-328.48 1153,-285.25 1251.74,-266.84 1309.33,-299.55 1369,-218.75 1380.02,-203.82 1381.14,-191.04 1369,-177 1336.22,-139.1 1188.55,-132.74 1110.96,-132.08"/>
<polygon fill="#63b8ff" stroke="#63b8ff" points="1111.13,-128.58 1101.11,-132.03 1111.09,-135.58 1111.13,-128.58"/>
</a>
</g>
</g>
<!-- Node27 -->
<g id="Node000027" class="node">
<title>Node27</title>
<g id="a_Node000027"><a xlink:href="local__path__planner_8hpp.html" target="_top" xlink:title=" ">
<polygon fill="white" stroke="#666666" points="1143.62,-285.25 1044.38,-285.25 1044.38,-254.75 1143.62,-254.75 1143.62,-285.25"/>
<text text-anchor="start" x="1052.38" y="-271.75" font-family="Helvetica,sans-Serif" font-size="10.00">planning/local_path</text>
<text text-anchor="middle" x="1094" y="-260.5" font-family="Helvetica,sans-Serif" font-size="10.00">_planner.hpp</text>
</a>
</g>
</g>
<!-- Node1&#45;&gt;Node27 -->
<g id="edge40_Node000001_Node000027" class="edge">
<title>Node1&#45;&gt;Node27</title>
<g id="a_edge40_Node000001_Node000027"><a xlink:title=" ">
<path fill="none" stroke="#63b8ff" d="M510.16,-332.96C621.15,-328.32 838.81,-316.1 1032.63,-285.46"/>
<polygon fill="#63b8ff" stroke="#63b8ff" points="1033.08,-288.93 1042.4,-283.89 1031.97,-282.02 1033.08,-288.93"/>
</a>
</g>
</g>
<!-- Node12&#45;&gt;Node5 -->
<g id="edge12_Node000012_Node000005" class="edge">
<title>Node12&#45;&gt;Node5</title>
<g id="a_edge12_Node000012_Node000005"><a xlink:title=" ">
<path fill="none" stroke="#63b8ff" d="M921.53,-256.2C918.65,-255.66 915.8,-255.18 913,-254.75 859.47,-246.57 463.85,-258.43 427,-218.75 394.35,-183.59 419.23,-121.71 435.23,-90.56"/>
<polygon fill="#63b8ff" stroke="#63b8ff" points="438.23,-92.37 439.89,-81.91 432.07,-89.05 438.23,-92.37"/>
</a>
</g>
</g>
<!-- Node12&#45;&gt;Node6 -->
<g id="edge14_Node000012_Node000006" class="edge">
<title>Node12&#45;&gt;Node6</title>
<g id="a_edge14_Node000012_Node000006"><a xlink:title=" ">
<path fill="none" stroke="#63b8ff" d="M921.53,-256.19C918.65,-255.66 915.8,-255.17 913,-254.75 801.76,-237.9 511.98,-261.71 408,-218.75 359.15,-198.56 339.99,-189.07 318,-141 302.14,-106.34 302.09,-89.88 318,-55.25 323.46,-43.37 333.81,-33.47 343.85,-26.03"/>
<polygon fill="#63b8ff" stroke="#63b8ff" points="345.65,-29.04 351.96,-20.53 341.72,-23.25 345.65,-29.04"/>
</a>
</g>
</g>
<!-- Node13 -->
<g id="Node000013" class="node">
<title>Node13</title>
<g id="a_Node000013"><a xlink:title=" ">
<polygon fill="#e0e0e0" stroke="#999999" points="474.25,-207.5 435.75,-207.5 435.75,-188.25 474.25,-188.25 474.25,-207.5"/>
<text text-anchor="middle" x="455" y="-194" font-family="Helvetica,sans-Serif" font-size="10.00">utility</text>
</a>
</g>
</g>
<!-- Node12&#45;&gt;Node13 -->
<g id="edge13_Node000012_Node000013" class="edge">
<title>Node12&#45;&gt;Node13</title>
<g id="a_edge13_Node000012_Node000013"><a xlink:title=" ">
<path fill="none" stroke="#63b8ff" d="M921.52,-256.23C918.65,-255.69 915.79,-255.19 913,-254.75 725.77,-225.11 668.34,-277.17 488,-218.75 484.13,-217.5 480.23,-215.72 476.54,-213.73"/>
<polygon fill="#63b8ff" stroke="#63b8ff" points="478.54,-210.85 468.18,-208.64 474.9,-216.83 478.54,-210.85"/>
</a>
</g>
</g>
<!-- Node14 -->
<g id="Node000014" class="node">
<title>Node14</title>
<g id="a_Node000014"><a xlink:href="planning_2planning_2include_2utils_2position_8hpp.html" target="_top" xlink:title=" ">
<polygon fill="white" stroke="#666666" points="1430.12,-80.12 1333.88,-80.12 1333.88,-60.88 1430.12,-60.88 1430.12,-80.12"/>
<text text-anchor="middle" x="1382" y="-66.62" font-family="Helvetica,sans-Serif" font-size="10.00">../utils/position.hpp</text>
</a>
</g>
</g>
<!-- Node12&#45;&gt;Node14 -->
<g id="edge15_Node000012_Node000014" class="edge">
<title>Node12&#45;&gt;Node14</title>
<g id="a_edge15_Node000012_Node000014"><a xlink:title=" ">
<path fill="none" stroke="#63b8ff" d="M982.52,-254.34C995.02,-234.07 1020.22,-197.66 1051,-177 1075.45,-160.59 1255.19,-107.83 1339.09,-83.72"/>
<polygon fill="#63b8ff" stroke="#63b8ff" points="1339.92,-87.12 1348.57,-81 1337.99,-80.4 1339.92,-87.12"/>
</a>
</g>
</g>
<!-- Node17 -->
<g id="Node000017" class="node">
<title>Node17</title>
<g id="a_Node000017"><a xlink:href="track_8hpp.html" target="_top" xlink:title=" ">
<polygon fill="white" stroke="#666666" points="898.5,-207.5 837.5,-207.5 837.5,-188.25 898.5,-188.25 898.5,-207.5"/>
<text text-anchor="middle" x="868" y="-194" font-family="Helvetica,sans-Serif" font-size="10.00">./track.hpp</text>
</a>
</g>
</g>
<!-- Node12&#45;&gt;Node17 -->
<g id="edge19_Node000012_Node000017" class="edge">
<title>Node12&#45;&gt;Node17</title>
<g id="a_edge19_Node000012_Node000017"><a xlink:title=" ">
<path fill="none" stroke="#63b8ff" d="M951.78,-254.3C934.04,-242.56 909.25,-226.16 891.24,-214.25"/>
<polygon fill="#63b8ff" stroke="#63b8ff" points="893.31,-211.42 883.04,-208.82 889.45,-217.26 893.31,-211.42"/>
</a>
</g>
</g>
<!-- Node14&#45;&gt;Node6 -->
<g id="edge18_Node000014_Node000006" class="edge">
<title>Node14&#45;&gt;Node6</title>
<g id="a_edge18_Node000014_Node000006"><a xlink:title=" ">
<path fill="none" stroke="#63b8ff" d="M1350.27,-60.38C1342.1,-58.36 1333.28,-56.47 1325,-55.25 1141.31,-28.27 549.38,-14.37 402.98,-11.29"/>
<polygon fill="#63b8ff" stroke="#63b8ff" points="403.29,-7.79 393.22,-11.09 403.15,-14.79 403.29,-7.79"/>
</a>
</g>
</g>
<!-- Node15 -->
<g id="Node000015" class="node">
<title>Node15</title>
<g id="a_Node000015"><a xlink:title=" ">
<polygon fill="#e0e0e0" stroke="#999999" points="1403.5,-19.25 1360.5,-19.25 1360.5,0 1403.5,0 1403.5,-19.25"/>
<text text-anchor="middle" x="1382" y="-5.75" font-family="Helvetica,sans-Serif" font-size="10.00">cmath</text>
</a>
</g>
</g>
<!-- Node14&#45;&gt;Node15 -->
<g id="edge16_Node000014_Node000015" class="edge">
<title>Node14&#45;&gt;Node15</title>
<g id="a_edge16_Node000014_Node000015"><a xlink:title=" ">
<path fill="none" stroke="#63b8ff" d="M1382,-60.56C1382,-52.78 1382,-41.2 1382,-31.16"/>
<polygon fill="#63b8ff" stroke="#63b8ff" points="1385.5,-31.16 1382,-21.16 1378.5,-31.16 1385.5,-31.16"/>
</a>
</g>
</g>
<!-- Node16 -->
<g id="Node000016" class="node">
<title>Node16</title>
<g id="a_Node000016"><a xlink:title=" ">
<polygon fill="#e0e0e0" stroke="#999999" points="1141.5,-19.25 1092.5,-19.25 1092.5,0 1141.5,0 1141.5,-19.25"/>
<text text-anchor="middle" x="1117" y="-5.75" font-family="Helvetica,sans-Serif" font-size="10.00">fstream</text>
</a>
</g>
</g>
<!-- Node14&#45;&gt;Node16 -->
<g id="edge17_Node000014_Node000016" class="edge">
<title>Node14&#45;&gt;Node16</title>
<g id="a_edge17_Node000014_Node000016"><a xlink:title=" ">
<path fill="none" stroke="#63b8ff" d="M1346.47,-60.42C1339.37,-58.66 1331.96,-56.87 1325,-55.25 1264.79,-41.27 1194.4,-26.49 1152.88,-17.94"/>
<polygon fill="#63b8ff" stroke="#63b8ff" points="1153.7,-14.54 1143.2,-15.95 1152.29,-21.39 1153.7,-14.54"/>
</a>
</g>
</g>
<!-- Node17&#45;&gt;Node5 -->
<g id="edge25_Node000017_Node000005" class="edge">
<title>Node17&#45;&gt;Node5</title>
<g id="a_edge25_Node000017_Node000005"><a xlink:title=" ">
<path fill="none" stroke="#63b8ff" d="M837.24,-196.84C752.85,-196.1 520.32,-189.6 465,-141 451.06,-128.75 446.9,-107.36 445.86,-91.54"/>
<polygon fill="#63b8ff" stroke="#63b8ff" points="449.36,-91.74 445.61,-81.83 442.37,-91.92 449.36,-91.74"/>
</a>
</g>
</g>
<!-- Node17&#45;&gt;Node6 -->
<g id="edge26_Node000017_Node000006" class="edge">
<title>Node17&#45;&gt;Node6</title>
<g id="a_edge26_Node000017_Node000006"><a xlink:title=" ">
<path fill="none" stroke="#63b8ff" d="M837.31,-196.16C751.84,-193.66 513.18,-182.98 449,-141 408.69,-114.63 385.77,-59.86 375.88,-30.4"/>
<polygon fill="#63b8ff" stroke="#63b8ff" points="379.24,-29.4 372.89,-20.92 372.56,-31.51 379.24,-29.4"/>
</a>
</g>
</g>
<!-- Node17&#45;&gt;Node16 -->
<g id="edge23_Node000017_Node000016" class="edge">
<title>Node17&#45;&gt;Node16</title>
<g id="a_edge23_Node000017_Node000016"><a xlink:title=" ">
<path fill="none" stroke="#63b8ff" d="M874.76,-187.75C882.52,-176.98 895.31,-158.33 904,-141 922.23,-104.64 905.62,-82.31 936,-55.25 976.17,-19.47 1040.47,-11.34 1080.64,-10.04"/>
<polygon fill="#63b8ff" stroke="#63b8ff" points="1080.58,-13.54 1090.52,-9.86 1080.45,-6.54 1080.58,-13.54"/>
</a>
</g>
</g>
<!-- Node18 -->
<g id="Node000018" class="node">
<title>Node18</title>
<g id="a_Node000018"><a xlink:title=" ">
<polygon fill="#e0e0e0" stroke="#999999" points="656,-141 568,-141 568,-121.75 656,-121.75 656,-141"/>
<text text-anchor="middle" x="612" y="-127.5" font-family="Helvetica,sans-Serif" font-size="10.00">gsl/gsl_bspline.h</text>
</a>
</g>
</g>
<!-- Node17&#45;&gt;Node18 -->
<g id="edge20_Node000017_Node000018" class="edge">
<title>Node17&#45;&gt;Node18</title>
<g id="a_edge20_Node000017_Node000018"><a xlink:title=" ">
<path fill="none" stroke="#63b8ff" d="M837.12,-189.09C792.77,-177.92 710.67,-157.23 658.82,-144.17"/>
<polygon fill="#63b8ff" stroke="#63b8ff" points="659.95,-140.85 649.39,-141.8 658.24,-147.63 659.95,-140.85"/>
</a>
</g>
</g>
<!-- Node19 -->
<g id="Node000019" class="node">
<title>Node19</title>
<g id="a_Node000019"><a xlink:title=" ">
<polygon fill="#e0e0e0" stroke="#999999" points="759.88,-141 674.12,-141 674.12,-121.75 759.88,-121.75 759.88,-141"/>
<text text-anchor="middle" x="717" y="-127.5" font-family="Helvetica,sans-Serif" font-size="10.00">gsl/gsl_multifit.h</text>
</a>
</g>
</g>
<!-- Node17&#45;&gt;Node19 -->
<g id="edge21_Node000017_Node000019" class="edge">
<title>Node17&#45;&gt;Node19</title>
<g id="a_edge21_Node000017_Node000019"><a xlink:title=" ">
<path fill="none" stroke="#63b8ff" d="M846.69,-187.77C821.17,-176.87 778.19,-158.51 748.76,-145.94"/>
<polygon fill="#63b8ff" stroke="#63b8ff" points="750.17,-142.74 739.6,-142.03 747.42,-149.17 750.17,-142.74"/>
</a>
</g>
</g>
<!-- Node20 -->
<g id="Node000020" class="node">
<title>Node20</title>
<g id="a_Node000020"><a xlink:title=" ">
<polygon fill="#e0e0e0" stroke="#999999" points="823.62,-141 778.38,-141 778.38,-121.75 823.62,-121.75 823.62,-141"/>
<text text-anchor="middle" x="801" y="-127.5" font-family="Helvetica,sans-Serif" font-size="10.00">cstring</text>
</a>
</g>
</g>
<!-- Node17&#45;&gt;Node20 -->
<g id="edge22_Node000017_Node000020" class="edge">
<title>Node17&#45;&gt;Node20</title>
<g id="a_edge22_Node000017_Node000020"><a xlink:title=" ">
<path fill="none" stroke="#63b8ff" d="M858.68,-187.91C848.28,-177.89 831.22,-161.47 818.35,-149.08"/>
<polygon fill="#63b8ff" stroke="#63b8ff" points="820.96,-146.73 811.33,-142.32 816.1,-151.77 820.96,-146.73"/>
</a>
</g>
</g>
<!-- Node21 -->
<g id="Node000021" class="node">
<title>Node21</title>
<g id="a_Node000021"><a xlink:title=" ">
<polygon fill="#e0e0e0" stroke="#999999" points="894.75,-141 841.25,-141 841.25,-121.75 894.75,-121.75 894.75,-141"/>
<text text-anchor="middle" x="868" y="-127.5" font-family="Helvetica,sans-Serif" font-size="10.00">iostream</text>
</a>
</g>
</g>
<!-- Node17&#45;&gt;Node21 -->
<g id="edge24_Node000017_Node000021" class="edge">
<title>Node17&#45;&gt;Node21</title>
<g id="a_edge24_Node000017_Node000021"><a xlink:title=" ">
<path fill="none" stroke="#63b8ff" d="M868,-187.91C868,-178.86 868,-164.57 868,-152.75"/>
<polygon fill="#63b8ff" stroke="#63b8ff" points="871.5,-152.78 868,-142.78 864.5,-152.78 871.5,-152.78"/>
</a>
</g>
</g>
<!-- Node22 -->
<g id="Node000022" class="node">
<title>Node22</title>
<g id="a_Node000022"><a xlink:title=" ">
<polygon fill="#e0e0e0" stroke="#999999" points="1034.75,-80.12 945.25,-80.12 945.25,-60.88 1034.75,-60.88 1034.75,-80.12"/>
<text text-anchor="middle" x="990" y="-66.62" font-family="Helvetica,sans-Serif" font-size="10.00">rclcpp/rclcpp.hpp</text>
</a>
</g>
</g>
<!-- Node17&#45;&gt;Node22 -->
<g id="edge27_Node000017_Node000022" class="edge">
<title>Node17&#45;&gt;Node22</title>
<g id="a_edge27_Node000017_Node000022"><a xlink:title=" ">
<path fill="none" stroke="#63b8ff" d="M880.98,-187.82C895.45,-177.4 919.17,-159.36 937,-141 952.48,-125.06 967.6,-104.61 977.7,-90.03"/>
<polygon fill="#63b8ff" stroke="#63b8ff" points="980.53,-92.09 983.25,-81.85 974.74,-88.16 980.53,-92.09"/>
</a>
</g>
</g>
<!-- Node23 -->
<g id="Node000023" class="node">
<title>Node23</title>
<g id="a_Node000023"><a xlink:href="cone_8hpp.html" target="_top" xlink:title=" ">
<polygon fill="white" stroke="#666666" points="550,-141 474,-141 474,-121.75 550,-121.75 550,-141"/>
<text text-anchor="middle" x="512" y="-127.5" font-family="Helvetica,sans-Serif" font-size="10.00">utils/cone.hpp</text>
</a>
</g>
</g>
<!-- Node17&#45;&gt;Node23 -->
<g id="edge28_Node000017_Node000023" class="edge">
<title>Node17&#45;&gt;Node23</title>
<g id="a_edge28_Node000017_Node000023"><a xlink:title=" ">
<path fill="none" stroke="#63b8ff" d="M837.29,-191.35C783.6,-181.68 668.86,-161 561.5,-141.45"/>
<polygon fill="#63b8ff" stroke="#63b8ff" points="562.43,-138.06 551.96,-139.71 561.17,-144.95 562.43,-138.06"/>
</a>
</g>
</g>
<!-- Node17&#45;&gt;Node24 -->
<g id="edge32_Node000017_Node000024" class="edge">
<title>Node17&#45;&gt;Node24</title>
<g id="a_edge32_Node000017_Node000024"><a xlink:title=" ">
<path fill="none" stroke="#63b8ff" d="M890.65,-187.77C922.33,-176.53 980.06,-157.37 1020,-144.79"/>
<polygon fill="#63b8ff" stroke="#63b8ff" points="1020.81,-148.21 1029.31,-141.88 1018.72,-141.53 1020.81,-148.21"/>
</a>
</g>
</g>
<!-- Node23&#45;&gt;Node5 -->
<g id="edge30_Node000023_Node000005" class="edge">
<title>Node23&#45;&gt;Node5</title>
<g id="a_edge30_Node000023_Node000005"><a xlink:title=" ">
<path fill="none" stroke="#63b8ff" d="M501.98,-121.43C492.09,-112.62 476.74,-98.93 464.62,-88.11"/>
<polygon fill="#63b8ff" stroke="#63b8ff" points="467.04,-85.58 457.25,-81.53 462.38,-90.8 467.04,-85.58"/>
</a>
</g>
</g>
<!-- Node23&#45;&gt;Node6 -->
<g id="edge31_Node000023_Node000006" class="edge">
<title>Node23&#45;&gt;Node6</title>
<g id="a_edge31_Node000023_Node000006"><a xlink:title=" ">
<path fill="none" stroke="#63b8ff" d="M509.76,-121.26C505.5,-105.74 494.86,-74.03 475,-55.25 454.9,-36.24 425.48,-24.69 402.9,-18.12"/>
<polygon fill="#63b8ff" stroke="#63b8ff" points="403.82,-14.75 393.25,-15.52 402,-21.5 403.82,-14.75"/>
</a>
</g>
</g>
<!-- Node23&#45;&gt;Node15 -->
<g id="edge29_Node000023_Node000015" class="edge">
<title>Node23&#45;&gt;Node15</title>
<g id="a_edge29_Node000023_Node000015"><a xlink:title=" ">
<path fill="none" stroke="#63b8ff" d="M550.47,-123.29C553.36,-122.77 556.22,-122.25 559,-121.75 726.45,-91.62 767.46,-78.51 936,-55.25 1089.71,-34.03 1274.55,-18.79 1348.78,-13.09"/>
<polygon fill="#63b8ff" stroke="#63b8ff" points="1348.9,-16.59 1358.61,-12.35 1348.37,-9.61 1348.9,-16.59"/>
</a>
</g>
</g>
<!-- Node24&#45;&gt;Node5 -->
<g id="edge35_Node000024_Node000005" class="edge">
<title>Node24&#45;&gt;Node5</title>
<g id="a_edge35_Node000024_Node000005"><a xlink:title=" ">
<path fill="none" stroke="#63b8ff" d="M1026.71,-126.91C915.76,-116.33 582.32,-84.51 477.74,-74.53"/>
<polygon fill="#63b8ff" stroke="#63b8ff" points="478.21,-71.06 467.92,-73.59 477.55,-78.03 478.21,-71.06"/>
</a>
</g>
</g>
<!-- Node24&#45;&gt;Node6 -->
<g id="edge36_Node000024_Node000006" class="edge">
<title>Node24&#45;&gt;Node6</title>
<g id="a_edge36_Node000024_Node000006"><a xlink:title=" ">
<path fill="none" stroke="#63b8ff" d="M1063.77,-121.49C1064.6,-105.42 1063.74,-71.7 1044,-55.25 994.41,-13.94 531.67,-10.68 403.04,-10.57"/>
<polygon fill="#63b8ff" stroke="#63b8ff" points="403.17,-7.07 393.17,-10.57 403.17,-14.07 403.17,-7.07"/>
</a>
</g>
</g>
<!-- Node24&#45;&gt;Node14 -->
<g id="edge38_Node000024_Node000014" class="edge">
<title>Node24&#45;&gt;Node14</title>
<g id="a_edge38_Node000024_Node000014"><a xlink:title=" ">
<path fill="none" stroke="#63b8ff" d="M1099.59,-124.05C1104.11,-123.27 1108.66,-122.49 1113,-121.75 1207.2,-105.63 1231.46,-105.35 1325,-85.75 1328.76,-84.96 1332.64,-84.1 1336.54,-83.2"/>
<polygon fill="#63b8ff" stroke="#63b8ff" points="1337.05,-86.67 1345.96,-80.94 1335.42,-79.87 1337.05,-86.67"/>
</a>
</g>
</g>
<!-- Node24&#45;&gt;Node17 -->
<g id="edge37_Node000024_Node000017" class="edge">
<title>Node24&#45;&gt;Node17</title>
<g id="a_edge37_Node000024_Node000017"><a xlink:title=" ">
<path fill="none" stroke="#63b8ff" d="M1040.3,-141.5C1008.25,-152.86 949.6,-172.32 909.64,-184.88"/>
<polygon fill="#63b8ff" stroke="#63b8ff" points="908.6,-181.54 900.1,-187.86 910.69,-188.22 908.6,-181.54"/>
</a>
</g>
</g>
<!-- Node24&#45;&gt;Node22 -->
<g id="edge39_Node000024_Node000022" class="edge">
<title>Node24&#45;&gt;Node22</title>
<g id="a_edge39_Node000024_Node000022"><a xlink:title=" ">
<path fill="none" stroke="#63b8ff" d="M1051.91,-121.43C1040.76,-112.44 1023.34,-98.39 1009.81,-87.48"/>
<polygon fill="#63b8ff" stroke="#63b8ff" points="1012.35,-85.03 1002.37,-81.48 1007.96,-90.48 1012.35,-85.03"/>
</a>
</g>
</g>
<!-- Node25 -->
<g id="Node000025" class="node">
<title>Node25</title>
<g id="a_Node000025"><a xlink:title=" ">
<polygon fill="#e0e0e0" stroke="#999999" points="1238.62,-85.75 1091.38,-85.75 1091.38,-55.25 1238.62,-55.25 1238.62,-85.75"/>
<text text-anchor="start" x="1099.38" y="-72.25" font-family="Helvetica,sans-Serif" font-size="10.00">ament_index_cpp/get</text>
<text text-anchor="middle" x="1165" y="-61" font-family="Helvetica,sans-Serif" font-size="10.00">_package_share_directory.hpp</text>
</a>
</g>
</g>
<!-- Node24&#45;&gt;Node25 -->
<g id="edge33_Node000024_Node000025" class="edge">
<title>Node24&#45;&gt;Node25</title>
<g id="a_edge33_Node000024_Node000025"><a xlink:title=" ">
<path fill="none" stroke="#63b8ff" d="M1078.49,-121.43C1092.1,-113.58 1112.39,-101.87 1129.9,-91.76"/>
<polygon fill="#63b8ff" stroke="#63b8ff" points="1131.6,-94.82 1138.51,-86.79 1128.1,-88.76 1131.6,-94.82"/>
</a>
</g>
</g>
<!-- Node26 -->
<g id="Node000026" class="node">
<title>Node26</title>
<g id="a_Node000026"><a xlink:title=" ">
<polygon fill="#e0e0e0" stroke="#999999" points="1315.75,-80.12 1256.25,-80.12 1256.25,-60.88 1315.75,-60.88 1315.75,-80.12"/>
<text text-anchor="middle" x="1286" y="-66.62" font-family="Helvetica,sans-Serif" font-size="10.00">filesystem</text>
</a>
</g>
</g>
<!-- Node24&#45;&gt;Node26 -->
<g id="edge34_Node000024_Node000026" class="edge">
<title>Node24&#45;&gt;Node26</title>
<g id="a_edge34_Node000024_Node000026"><a xlink:title=" ">
<path fill="none" stroke="#63b8ff" d="M1099.51,-122.95C1137.09,-114.98 1197.15,-101.35 1248,-85.75 1249.56,-85.27 1251.14,-84.76 1252.74,-84.24"/>
<polygon fill="#63b8ff" stroke="#63b8ff" points="1253.54,-87.66 1261.82,-81.05 1251.22,-81.06 1253.54,-87.66"/>
</a>
</g>
</g>
<!-- Node27&#45;&gt;Node3 -->
<g id="edge44_Node000027_Node000003" class="edge">
<title>Node27&#45;&gt;Node3</title>
<g id="a_edge44_Node000027_Node000003"><a xlink:title=" ">
<path fill="none" stroke="#63b8ff" d="M1043.91,-256.26C1040.9,-255.7 1037.92,-255.19 1035,-254.75 767.27,-214.82 696.79,-240.84 427,-218.75 369.73,-214.06 302.96,-206.62 265.77,-202.29"/>
<polygon fill="#63b8ff" stroke="#63b8ff" points="266.63,-198.87 256.29,-201.18 265.82,-205.82 266.63,-198.87"/>
</a>
</g>
</g>
<!-- Node27&#45;&gt;Node6 -->
<g id="edge46_Node000027_Node000006" class="edge">
<title>Node27&#45;&gt;Node6</title>
<g id="a_edge46_Node000027_Node000006"><a xlink:title=" ">
<path fill="none" stroke="#63b8ff" d="M1044.16,-256.72C1041.06,-256.03 1037.99,-255.37 1035,-254.75 943.57,-235.78 919.86,-235.55 828,-218.75 647.7,-185.77 577.61,-239.43 423,-141 397.43,-124.72 394.78,-113.68 383,-85.75 375.53,-68.03 372.35,-46.22 371,-30.67"/>
<polygon fill="#63b8ff" stroke="#63b8ff" points="374.5,-30.57 370.34,-20.83 367.52,-31.04 374.5,-30.57"/>
</a>
</g>
</g>
<!-- Node27&#45;&gt;Node13 -->
<g id="edge45_Node000027_Node000013" class="edge">
<title>Node27&#45;&gt;Node13</title>
<g id="a_edge45_Node000027_Node000013"><a xlink:title=" ">
<path fill="none" stroke="#63b8ff" d="M1043.9,-256.28C1040.9,-255.71 1037.92,-255.19 1035,-254.75 794.15,-218.02 720.47,-291.66 488,-218.75 484.12,-217.53 480.22,-215.77 476.52,-213.79"/>
<polygon fill="#63b8ff" stroke="#63b8ff" points="478.52,-210.91 468.16,-208.7 474.88,-216.89 478.52,-210.91"/>
</a>
</g>
</g>
<!-- Node27&#45;&gt;Node14 -->
<g id="edge47_Node000027_Node000014" class="edge">
<title>Node27&#45;&gt;Node14</title>
<g id="a_edge47_Node000027_Node000014"><a xlink:title=" ">
<path fill="none" stroke="#63b8ff" d="M1143.95,-266.91C1214.88,-262.83 1339.5,-251.12 1369,-218.75 1400.75,-183.91 1393.63,-123.25 1387.07,-91.77"/>
<polygon fill="#63b8ff" stroke="#63b8ff" points="1390.49,-91 1384.84,-82.03 1383.67,-92.56 1390.49,-91"/>
</a>
</g>
</g>
<!-- Node27&#45;&gt;Node15 -->
<g id="edge43_Node000027_Node000015" class="edge">
<title>Node27&#45;&gt;Node15</title>
<g id="a_edge43_Node000027_Node000015"><a xlink:title=" ">
<path fill="none" stroke="#63b8ff" d="M1143.91,-266.61C1218.76,-262.05 1355.25,-249.64 1392,-218.75 1449.87,-170.09 1472.11,-123.22 1439,-55.25 1433.02,-42.97 1421.83,-33.07 1410.95,-25.74"/>
<polygon fill="#63b8ff" stroke="#63b8ff" points="1412.83,-22.79 1402.48,-20.54 1409.17,-28.76 1412.83,-22.79"/>
</a>
</g>
</g>
<!-- Node27&#45;&gt;Node17 -->
<g id="edge48_Node000027_Node000017" class="edge">
<title>Node27&#45;&gt;Node17</title>
<g id="a_edge48_Node000027_Node000017"><a xlink:title=" ">
<path fill="none" stroke="#63b8ff" d="M1046.62,-254.3C1005.63,-241.58 947,-223.39 908.24,-211.36"/>
<polygon fill="#63b8ff" stroke="#63b8ff" points="909.41,-208.06 898.82,-208.44 907.33,-214.74 909.41,-208.06"/>
</a>
</g>
</g>
<!-- Node27&#45;&gt;Node22 -->
<g id="edge49_Node000027_Node000022" class="edge">
<title>Node27&#45;&gt;Node22</title>
<g id="a_edge49_Node000027_Node000022"><a xlink:title=" ">
<path fill="none" stroke="#63b8ff" d="M1079.53,-254.55C1070.5,-244.98 1059.1,-231.83 1051,-218.75 1024.73,-176.35 1005.21,-120.66 995.96,-91.41"/>
<polygon fill="#63b8ff" stroke="#63b8ff" points="999.37,-90.58 993.08,-82.06 992.68,-92.65 999.37,-90.58"/>
</a>
</g>
</g>
<!-- Node28 -->
<g id="Node000028" class="node">
<title>Node28</title>
<g id="a_Node000028"><a xlink:title=" ">
<polygon fill="#e0e0e0" stroke="#999999" points="1359.75,-207.5 1198.25,-207.5 1198.25,-188.25 1359.75,-188.25 1359.75,-207.5"/>
<text text-anchor="middle" x="1279" y="-194" font-family="Helvetica,sans-Serif" font-size="10.00">CGAL/Delaunay_triangulation_2.h</text>
</a>
</g>
</g>
<!-- Node27&#45;&gt;Node28 -->
<g id="edge41_Node000027_Node000028" class="edge">
<title>Node27&#45;&gt;Node28</title>
<g id="a_edge41_Node000027_Node000028"><a xlink:title=" ">
<path fill="none" stroke="#63b8ff" d="M1132.78,-254.3C1165.76,-241.8 1212.69,-224.01 1244.42,-211.98"/>
<polygon fill="#63b8ff" stroke="#63b8ff" points="1245.43,-215.34 1253.54,-208.53 1242.95,-208.8 1245.43,-215.34"/>
</a>
</g>
</g>
<!-- Node29 -->
<g id="Node000029" class="node">
<title>Node29</title>
<g id="a_Node000029"><a xlink:title=" ">
<polygon fill="#e0e0e0" stroke="#999999" points="1180.12,-218.75 1059.88,-218.75 1059.88,-177 1180.12,-177 1180.12,-218.75"/>
<text text-anchor="start" x="1067.88" y="-205.25" font-family="Helvetica,sans-Serif" font-size="10.00">CGAL/Exact_predicates</text>
<text text-anchor="start" x="1067.88" y="-194" font-family="Helvetica,sans-Serif" font-size="10.00">_inexact_constructions</text>
<text text-anchor="middle" x="1120" y="-182.75" font-family="Helvetica,sans-Serif" font-size="10.00">_kernel.h</text>
</a>
</g>
</g>
<!-- Node27&#45;&gt;Node29 -->
<g id="edge42_Node000027_Node000029" class="edge">
<title>Node27&#45;&gt;Node29</title>
<g id="a_edge42_Node000027_Node000029"><a xlink:title=" ">
<path fill="none" stroke="#63b8ff" d="M1099.39,-254.47C1102.04,-247.31 1105.35,-238.37 1108.54,-229.78"/>
<polygon fill="#63b8ff" stroke="#63b8ff" points="1111.73,-231.25 1111.92,-220.66 1105.17,-228.81 1111.73,-231.25"/>
</a>
</g>
</g>
</g>
</svg>

<g id="navigator" transform="translate(0 0)" fill="#404254">
  <rect fill="#f2f5e9" fill-opacity="0.5" stroke="#606060" stroke-width=".5" x="0" y="0" width="60" height="60"/>
  <use id="zoomplus" xlink:href="#zoomPlus" x="17" y="9" onmousedown="handleZoom(evt,'in')"/>
  <use id="zoomminus" xlink:href="#zoomMin" x="42" y="9" onmousedown="handleZoom(evt,'out')"/>
  <use id="reset" xlink:href="#resetDef" x="30" y="36" onmousedown="handleReset()"/>
   <use id="arrowup" xlink:href="#arrowUp" x="0" y="0" onmousedown="handlePan(0,-1)"/>
  <use id="arrowright" xlink:href="#arrowRight" x="0" y="0" onmousedown="handlePan(1,0)"/>
  <use id="arrowdown" xlink:href="#arrowDown" x="0" y="0" onmousedown="handlePan(0,1)"/>
  <use id="arrowleft" xlink:href="#arrowLeft" x="0" y="0" onmousedown="handlePan(-1,0)"/>
</g>
<svg viewBox="0 0 15 15" width="100%" height="30px" preserveAspectRatio="xMaxYMin meet">
 <g id="arrow_out" transform="scale(0.3 0.3)">
  <a xlink:href="planning_8hpp__incl_org.svg" target="_base">
   <rect id="button" ry="5" rx="5" y="6" x="6" height="38" width="38"
        fill="#f2f5e9" fill-opacity="0.5" stroke="#606060" stroke-width="1.0"/>
   <path id="arrow"
     d="M 11.500037,31.436501 C 11.940474,20.09759 22.043105,11.32322 32.158766,21.979434 L 37.068811,17.246167 C 37.068811,17.246167 37.088388,32 37.088388,32 L 22.160133,31.978069 C 22.160133,31.978069 26.997745,27.140456 26.997745,27.140456 C 18.528582,18.264221 13.291696,25.230495 11.500037,31.436501 z"
     style="fill:#404040;"/>
  </a>
 </g>
</svg>

<style type='text/css'>
<![CDATA[
[data-mouse-over-selected='false'] { opacity: 0.7; }
[data-mouse-over-selected='true']  { opacity: 1.0; }
]]>
</style>
<script type="application/ecmascript"><![CDATA[
document.addEventListener('DOMContentLoaded', (event) => {
  highlightEdges();
  highlightAdjacentNodes();
});
]]></script>
</svg>
