<?xml version="1.0" encoding="UTF-8" standalone="no"?>
<!DOCTYPE svg PUBLIC "-//W3C//DTD SVG 1.1//EN"
 "http://www.w3.org/Graphics/SVG/1.1/DTD/svg11.dtd">
<!-- Generated by graphviz version 9.0.0 (20230911.1827)
 -->
<!-- Title: src/planning/planning/include/utils/position.hpp Pages: 1 -->
<svg width="788pt" height="394pt"
 viewBox="0.00 0.00 788.35 393.50" xmlns="http://www.w3.org/2000/svg" xmlns:xlink="http://www.w3.org/1999/xlink">
<g id="graph0" class="graph" transform="scale(1 1) rotate(0) translate(4 389.5)">
<title>src/planning/planning/include/utils/position.hpp</title>
<!-- Node1 -->
<g id="Node000001" class="node">
<title>Node1</title>
<g id="a_Node000001"><a xlink:title=" ">
<polygon fill="#999999" stroke="#666666" points="612.98,-385.5 487.48,-385.5 487.48,-355 612.98,-355 612.98,-385.5"/>
<text text-anchor="start" x="495.48" y="-372" font-family="Helvetica,sans-Serif" font-size="10.00">src/planning/planning</text>
<text text-anchor="middle" x="550.23" y="-360.75" font-family="Helvetica,sans-Serif" font-size="10.00">/include/utils/position.hpp</text>
</a>
</g>
</g>
<!-- Node2 -->
<g id="Node000002" class="node">
<title>Node2</title>
<g id="a_Node000002"><a xlink:href="global__path__planner_8hpp.html" target="_top" xlink:title=" ">
<polygon fill="white" stroke="#666666" points="210.85,-186 93.6,-186 93.6,-144.25 210.85,-144.25 210.85,-186"/>
<text text-anchor="start" x="101.6" y="-172.5" font-family="Helvetica,sans-Serif" font-size="10.00">src/planning/planning</text>
<text text-anchor="start" x="101.6" y="-161.25" font-family="Helvetica,sans-Serif" font-size="10.00">/include/planning/global</text>
<text text-anchor="middle" x="152.23" y="-150" font-family="Helvetica,sans-Serif" font-size="10.00">_path_planner.hpp</text>
</a>
</g>
</g>
<!-- Node1&#45;&gt;Node2 -->
<g id="edge1_Node000001_Node000002" class="edge">
<title>Node1&#45;&gt;Node2</title>
<g id="a_edge1_Node000001_Node000002"><a xlink:title=" ">
<path fill="none" stroke="#63b8ff" d="M476,-358.22C434.36,-350.44 382.13,-337.95 338.23,-319 288.88,-297.7 278.75,-286.62 237.23,-252.5 212.03,-231.8 186.19,-204.5 169.71,-186.18"/>
<polygon fill="#63b8ff" stroke="#63b8ff" points="475.22,-361.64 485.68,-359.98 476.47,-354.75 475.22,-361.64"/>
</a>
</g>
</g>
<!-- Node10 -->
<g id="Node000010" class="node">
<title>Node10</title>
<g id="a_Node000010"><a xlink:href="local__path__planner_8hpp.html" target="_top" xlink:title=" ">
<polygon fill="white" stroke="#666666" points="511.23,-186 399.23,-186 399.23,-144.25 511.23,-144.25 511.23,-186"/>
<text text-anchor="start" x="407.23" y="-172.5" font-family="Helvetica,sans-Serif" font-size="10.00">src/planning/planning</text>
<text text-anchor="start" x="407.23" y="-161.25" font-family="Helvetica,sans-Serif" font-size="10.00">/include/planning/local</text>
<text text-anchor="middle" x="455.23" y="-150" font-family="Helvetica,sans-Serif" font-size="10.00">_path_planner.hpp</text>
</a>
</g>
</g>
<!-- Node1&#45;&gt;Node10 -->
<g id="edge10_Node000001_Node000010" class="edge">
<title>Node1&#45;&gt;Node10</title>
<g id="a_edge10_Node000001_Node000010"><a xlink:title=" ">
<path fill="none" stroke="#63b8ff" d="M553.51,-343.53C556.17,-312.49 556.44,-259.76 534.23,-222 525.54,-207.23 511.23,-195.36 497.17,-186.42"/>
<polygon fill="#63b8ff" stroke="#63b8ff" points="550.06,-342.85 552.52,-353.15 557.02,-343.56 550.06,-342.85"/>
</a>
</g>
</g>
<!-- Node12 -->
<g id="Node000012" class="node">
<title>Node12</title>
<g id="a_Node000012"><a xlink:href="files_8hpp.html" target="_top" xlink:title=" ">
<polygon fill="white" stroke="#666666" points="456.73,-319 347.73,-319 347.73,-288.5 456.73,-288.5 456.73,-319"/>
<text text-anchor="start" x="355.73" y="-305.5" font-family="Helvetica,sans-Serif" font-size="10.00">src/planning/planning</text>
<text text-anchor="middle" x="402.23" y="-294.25" font-family="Helvetica,sans-Serif" font-size="10.00">/include/utils/files.hpp</text>
</a>
</g>
</g>
<!-- Node1&#45;&gt;Node12 -->
<g id="edge15_Node000001_Node000012" class="edge">
<title>Node1&#45;&gt;Node12</title>
<g id="a_edge15_Node000001_Node000012"><a xlink:title=" ">
<path fill="none" stroke="#63b8ff" d="M506.32,-350.12C483.8,-340.3 456.79,-328.53 435.93,-319.44"/>
<polygon fill="#63b8ff" stroke="#63b8ff" points="504.69,-353.22 515.26,-354.01 507.49,-346.81 504.69,-353.22"/>
</a>
</g>
</g>
<!-- Node16 -->
<g id="Node000016" class="node">
<title>Node16</title>
<g id="a_Node000016"><a xlink:href="planning_2planning_2src_2utils_2position_8cpp.html" target="_top" xlink:title=" ">
<polygon fill="white" stroke="#666666" points="780.35,-319 672.1,-319 672.1,-288.5 780.35,-288.5 780.35,-319"/>
<text text-anchor="start" x="680.1" y="-305.5" font-family="Helvetica,sans-Serif" font-size="10.00">src/planning/planning</text>
<text text-anchor="middle" x="726.23" y="-294.25" font-family="Helvetica,sans-Serif" font-size="10.00">/src/utils/position.cpp</text>
</a>
</g>
</g>
<!-- Node1&#45;&gt;Node16 -->
<g id="edge26_Node000001_Node000016" class="edge">
<title>Node1&#45;&gt;Node16</title>
<g id="a_edge26_Node000001_Node000016"><a xlink:title=" ">
<path fill="none" stroke="#63b8ff" d="M600.63,-350.78C627.77,-340.83 660.78,-328.74 686.14,-319.44"/>
<polygon fill="#63b8ff" stroke="#63b8ff" points="599.77,-347.37 591.59,-354.09 602.18,-353.94 599.77,-347.37"/>
</a>
</g>
</g>
<!-- Node3 -->
<g id="Node000003" class="node">
<title>Node3</title>
<g id="a_Node000003"><a xlink:href="planning_8hpp.html" target="_top" xlink:title=" ">
<polygon fill="white" stroke="#666666" points="626.1,-102.62 480.35,-102.62 480.35,-72.12 626.1,-72.12 626.1,-102.62"/>
<text text-anchor="start" x="488.35" y="-89.12" font-family="Helvetica,sans-Serif" font-size="10.00">src/planning/planning</text>
<text text-anchor="middle" x="553.23" y="-77.88" font-family="Helvetica,sans-Serif" font-size="10.00">/include/planning/planning.hpp</text>
</a>
</g>
</g>
<!-- Node2&#45;&gt;Node3 -->
<g id="edge2_Node000002_Node000003" class="edge">
<title>Node2&#45;&gt;Node3</title>
<g id="a_edge2_Node000002_Node000003"><a xlink:title=" ">
<path fill="none" stroke="#63b8ff" d="M222.6,-150.75C234.49,-148.54 246.7,-146.3 258.23,-144.25 352.75,-127.4 377.18,-127.57 471.23,-108.25 478.83,-106.69 486.8,-104.92 494.66,-103.1"/>
<polygon fill="#63b8ff" stroke="#63b8ff" points="222.02,-147.3 212.83,-152.57 223.3,-154.18 222.02,-147.3"/>
</a>
</g>
</g>
<!-- Node6 -->
<g id="Node000006" class="node">
<title>Node6</title>
<g id="a_Node000006"><a xlink:href="planning_8cpp.html" target="_top" xlink:title=" ">
<polygon fill="white" stroke="#666666" points="279.48,-30.5 150.98,-30.5 150.98,0 279.48,0 279.48,-30.5"/>
<text text-anchor="start" x="158.98" y="-17" font-family="Helvetica,sans-Serif" font-size="10.00">src/planning/planning</text>
<text text-anchor="middle" x="215.23" y="-5.75" font-family="Helvetica,sans-Serif" font-size="10.00">/src/planning/planning.cpp</text>
</a>
</g>
</g>
<!-- Node2&#45;&gt;Node6 -->
<g id="edge8_Node000002_Node000006" class="edge">
<title>Node2&#45;&gt;Node6</title>
<g id="a_edge8_Node000002_Node000006"><a xlink:title=" ">
<path fill="none" stroke="#63b8ff" d="M154.12,-132.88C156.32,-113.03 161.05,-87.27 171.23,-66.5 177.86,-52.96 189.1,-40.22 198.56,-30.95"/>
<polygon fill="#63b8ff" stroke="#63b8ff" points="150.66,-132.3 153.22,-142.58 157.63,-132.94 150.66,-132.3"/>
</a>
</g>
</g>
<!-- Node8 -->
<g id="Node000008" class="node">
<title>Node8</title>
<g id="a_Node000008"><a xlink:href="global__path__planner_8cpp.html" target="_top" xlink:title=" ">
<polygon fill="white" stroke="#666666" points="123.98,-108.25 16.48,-108.25 16.48,-66.5 123.98,-66.5 123.98,-108.25"/>
<text text-anchor="start" x="24.48" y="-94.75" font-family="Helvetica,sans-Serif" font-size="10.00">src/planning/planning</text>
<text text-anchor="start" x="24.48" y="-83.5" font-family="Helvetica,sans-Serif" font-size="10.00">/src/planning/global</text>
<text text-anchor="middle" x="70.23" y="-72.25" font-family="Helvetica,sans-Serif" font-size="10.00">_path_planner.cpp</text>
</a>
</g>
</g>
<!-- Node2&#45;&gt;Node8 -->
<g id="edge7_Node000002_Node000008" class="edge">
<title>Node2&#45;&gt;Node8</title>
<g id="a_edge7_Node000002_Node000008"><a xlink:title=" ">
<path fill="none" stroke="#63b8ff" d="M121.9,-136.11C112.08,-127.03 101.37,-117.14 92.26,-108.73"/>
<polygon fill="#63b8ff" stroke="#63b8ff" points="119.42,-138.58 129.14,-142.8 124.17,-133.44 119.42,-138.58"/>
</a>
</g>
</g>
<!-- Node9 -->
<g id="Node000009" class="node">
<title>Node9</title>
<g id="a_Node000009"><a xlink:href="tests_8cpp.html" target="_top" xlink:title=" ">
<polygon fill="white" stroke="#666666" points="287.98,-102.62 180.48,-102.62 180.48,-72.12 287.98,-72.12 287.98,-102.62"/>
<text text-anchor="start" x="188.48" y="-89.12" font-family="Helvetica,sans-Serif" font-size="10.00">src/planning/planning</text>
<text text-anchor="middle" x="234.23" y="-77.88" font-family="Helvetica,sans-Serif" font-size="10.00">/test/tests.cpp</text>
</a>
</g>
</g>
<!-- Node2&#45;&gt;Node9 -->
<g id="edge9_Node000002_Node000009" class="edge">
<title>Node2&#45;&gt;Node9</title>
<g id="a_edge9_Node000002_Node000009"><a xlink:title=" ">
<path fill="none" stroke="#63b8ff" d="M182.39,-136.26C194.61,-124.97 208.23,-112.39 218.43,-102.96"/>
<polygon fill="#63b8ff" stroke="#63b8ff" points="180.28,-133.44 175.31,-142.8 185.03,-138.58 180.28,-133.44"/>
</a>
</g>
</g>
<!-- Node4 -->
<g id="Node000004" class="node">
<title>Node4</title>
<g id="a_Node000004"><a xlink:href="planning_2planning_2src_2adapter_2adapter_8cpp.html" target="_top" xlink:title=" ">
<polygon fill="white" stroke="#666666" points="463.73,-30.5 342.73,-30.5 342.73,0 463.73,0 463.73,-30.5"/>
<text text-anchor="start" x="350.73" y="-17" font-family="Helvetica,sans-Serif" font-size="10.00">src/planning/planning</text>
<text text-anchor="middle" x="403.23" y="-5.75" font-family="Helvetica,sans-Serif" font-size="10.00">/src/adapter/adapter.cpp</text>
</a>
</g>
</g>
<!-- Node3&#45;&gt;Node4 -->
<g id="edge3_Node000003_Node000004" class="edge">
<title>Node3&#45;&gt;Node4</title>
<g id="a_edge3_Node000003_Node000004"><a xlink:title=" ">
<path fill="none" stroke="#63b8ff" d="M511.41,-66.83C487.08,-55.45 456.92,-41.35 434.63,-30.93"/>
<polygon fill="#63b8ff" stroke="#63b8ff" points="509.87,-69.97 520.41,-71.03 512.83,-63.63 509.87,-69.97"/>
</a>
</g>
</g>
<!-- Node5 -->
<g id="Node000005" class="node">
<title>Node5</title>
<g id="a_Node000005"><a xlink:href="planning_2planning_2src_2main_8cpp.html" target="_top" xlink:title=" ">
<polygon fill="white" stroke="#666666" points="588.98,-30.5 481.48,-30.5 481.48,0 588.98,0 588.98,-30.5"/>
<text text-anchor="start" x="489.48" y="-17" font-family="Helvetica,sans-Serif" font-size="10.00">src/planning/planning</text>
<text text-anchor="middle" x="535.23" y="-5.75" font-family="Helvetica,sans-Serif" font-size="10.00">/src/main.cpp</text>
</a>
</g>
</g>
<!-- Node3&#45;&gt;Node5 -->
<g id="edge4_Node000003_Node000005" class="edge">
<title>Node3&#45;&gt;Node5</title>
<g id="a_edge4_Node000003_Node000005"><a xlink:title=" ">
<path fill="none" stroke="#63b8ff" d="M546.64,-60.73C544.05,-50.63 541.17,-39.41 538.95,-30.76"/>
<polygon fill="#63b8ff" stroke="#63b8ff" points="543.25,-61.56 549.12,-70.38 550.03,-59.82 543.25,-61.56"/>
</a>
</g>
</g>
<!-- Node3&#45;&gt;Node6 -->
<g id="edge5_Node000003_Node000006" class="edge">
<title>Node3&#45;&gt;Node6</title>
<g id="a_edge5_Node000003_Node000006"><a xlink:title=" ">
<path fill="none" stroke="#63b8ff" d="M482.73,-69.08C478.84,-68.19 474.99,-67.32 471.23,-66.5 406.3,-52.27 331.69,-37.84 279.83,-28.12"/>
<polygon fill="#63b8ff" stroke="#63b8ff" points="481.73,-72.44 492.26,-71.29 483.31,-65.62 481.73,-72.44"/>
</a>
</g>
</g>
<!-- Node7 -->
<g id="Node000007" class="node">
<title>Node7</title>
<g id="a_Node000007"><a xlink:href="integration__tests_8cpp.html" target="_top" xlink:title=" ">
<polygon fill="white" stroke="#666666" points="735.48,-30.5 606.98,-30.5 606.98,0 735.48,0 735.48,-30.5"/>
<text text-anchor="start" x="614.98" y="-17" font-family="Helvetica,sans-Serif" font-size="10.00">src/planning/planning</text>
<text text-anchor="middle" x="671.23" y="-5.75" font-family="Helvetica,sans-Serif" font-size="10.00">/test/integration_tests.cpp</text>
</a>
</g>
</g>
<!-- Node3&#45;&gt;Node7 -->
<g id="edge6_Node000003_Node000007" class="edge">
<title>Node3&#45;&gt;Node7</title>
<g id="a_edge6_Node000003_Node000007"><a xlink:title=" ">
<path fill="none" stroke="#63b8ff" d="M587.68,-65.9C606.53,-54.7 629.46,-41.07 646.52,-30.93"/>
<polygon fill="#63b8ff" stroke="#63b8ff" points="586.07,-62.78 579.27,-70.9 589.65,-68.8 586.07,-62.78"/>
</a>
</g>
</g>
<!-- Node10&#45;&gt;Node3 -->
<g id="edge11_Node000010_Node000003" class="edge">
<title>Node10&#45;&gt;Node3</title>
<g id="a_edge11_Node000010_Node000003"><a xlink:title=" ">
<path fill="none" stroke="#63b8ff" d="M490.43,-136.91C505.26,-125.45 521.92,-112.58 534.35,-102.96"/>
<polygon fill="#63b8ff" stroke="#63b8ff" points="488.46,-134.01 482.69,-142.9 492.74,-139.55 488.46,-134.01"/>
</a>
</g>
</g>
<!-- Node10&#45;&gt;Node6 -->
<g id="edge13_Node000010_Node000006" class="edge">
<title>Node10&#45;&gt;Node6</title>
<g id="a_edge13_Node000010_Node000006"><a xlink:title=" ">
<path fill="none" stroke="#63b8ff" d="M389.44,-139.17C371.06,-130.72 351.63,-120.31 335.23,-108.25 315.01,-93.39 316.56,-82.49 297.23,-66.5 280.63,-52.77 259.94,-40.12 243.49,-30.94"/>
<polygon fill="#63b8ff" stroke="#63b8ff" points="387.88,-142.31 398.44,-143.17 390.73,-135.91 387.88,-142.31"/>
</a>
</g>
</g>
<!-- Node10&#45;&gt;Node9 -->
<g id="edge14_Node000010_Node000009" class="edge">
<title>Node10&#45;&gt;Node9</title>
<g id="a_edge14_Node000010_Node000009"><a xlink:title=" ">
<path fill="none" stroke="#63b8ff" d="M388.43,-141.23C352.32,-128.85 308.8,-113.93 277.21,-103.11"/>
<polygon fill="#63b8ff" stroke="#63b8ff" points="386.86,-144.39 397.46,-144.32 389.13,-137.77 386.86,-144.39"/>
</a>
</g>
</g>
<!-- Node11 -->
<g id="Node000011" class="node">
<title>Node11</title>
<g id="a_Node000011"><a xlink:href="local__path__planner_8cpp.html" target="_top" xlink:title=" ">
<polygon fill="white" stroke="#666666" points="462.6,-108.25 343.85,-108.25 343.85,-66.5 462.6,-66.5 462.6,-108.25"/>
<text text-anchor="start" x="351.85" y="-94.75" font-family="Helvetica,sans-Serif" font-size="10.00">src/planning/planning</text>
<text text-anchor="start" x="351.85" y="-83.5" font-family="Helvetica,sans-Serif" font-size="10.00">/src/planning/local_path</text>
<text text-anchor="middle" x="403.23" y="-72.25" font-family="Helvetica,sans-Serif" font-size="10.00">_planner.cpp</text>
</a>
</g>
</g>
<!-- Node10&#45;&gt;Node11 -->
<g id="edge12_Node000010_Node000011" class="edge">
<title>Node10&#45;&gt;Node11</title>
<g id="a_edge12_Node000010_Node000011"><a xlink:title=" ">
<path fill="none" stroke="#63b8ff" d="M434.86,-134.45C428.95,-125.84 422.63,-116.63 417.2,-108.73"/>
<polygon fill="#63b8ff" stroke="#63b8ff" points="431.89,-136.31 440.44,-142.58 437.66,-132.35 431.89,-136.31"/>
</a>
</g>
</g>
<!-- Node12&#45;&gt;Node3 -->
<g id="edge16_Node000012_Node000003" class="edge">
<title>Node12&#45;&gt;Node3</title>
<g id="a_edge16_Node000012_Node000003"><a xlink:title=" ">
<path fill="none" stroke="#63b8ff" d="M468.18,-292.48C492.57,-285.31 518.17,-273.14 534.23,-252.5 569.1,-207.67 561.4,-134.01 556.11,-102.93"/>
<polygon fill="#63b8ff" stroke="#63b8ff" points="467.32,-289.08 458.56,-295.04 469.12,-295.85 467.32,-289.08"/>
</a>
</g>
</g>
<!-- Node12&#45;&gt;Node6 -->
<g id="edge22_Node000012_Node000006" class="edge">
<title>Node12&#45;&gt;Node6</title>
<g id="a_edge22_Node000012_Node000006"><a xlink:title=" ">
<path fill="none" stroke="#63b8ff" d="M336.02,-295.71C238.02,-281.07 60.24,-237.11 7.23,-108.25 0.17,-91.09 -4.25,-81.08 7.23,-66.5 24.89,-44.06 96.36,-30.45 150.64,-23.16"/>
<polygon fill="#63b8ff" stroke="#63b8ff" points="335.38,-299.15 345.77,-297.1 336.36,-292.22 335.38,-299.15"/>
</a>
</g>
</g>
<!-- Node12&#45;&gt;Node7 -->
<g id="edge24_Node000012_Node000007" class="edge">
<title>Node12&#45;&gt;Node7</title>
<g id="a_edge24_Node000012_Node000007"><a xlink:title=" ">
<path fill="none" stroke="#63b8ff" d="M468.19,-292.89C497.99,-285.72 532.07,-273.45 557.23,-252.5 630.55,-191.45 660.21,-72.1 668.57,-30.76"/>
<polygon fill="#63b8ff" stroke="#63b8ff" points="467.47,-289.46 458.48,-295.06 469,-296.29 467.47,-289.46"/>
</a>
</g>
</g>
<!-- Node12&#45;&gt;Node9 -->
<g id="edge25_Node000012_Node000009" class="edge">
<title>Node12&#45;&gt;Node9</title>
<g id="a_edge25_Node000012_Node000009"><a xlink:title=" ">
<path fill="none" stroke="#63b8ff" d="M336.44,-295.06C308.28,-288.36 277.5,-275.84 258.23,-252.5 221.93,-208.53 227.42,-134.4 231.78,-103.06"/>
<polygon fill="#63b8ff" stroke="#63b8ff" points="335.49,-298.44 346,-297.12 336.96,-291.6 335.49,-298.44"/>
</a>
</g>
</g>
<!-- Node13 -->
<g id="Node000013" class="node">
<title>Node13</title>
<g id="a_Node000013"><a xlink:href="track_8hpp.html" target="_top" xlink:title=" ">
<polygon fill="white" stroke="#666666" points="398.98,-252.5 267.48,-252.5 267.48,-222 398.98,-222 398.98,-252.5"/>
<text text-anchor="start" x="275.48" y="-239" font-family="Helvetica,sans-Serif" font-size="10.00">src/planning/planning</text>
<text text-anchor="middle" x="333.23" y="-227.75" font-family="Helvetica,sans-Serif" font-size="10.00">/include/planning/track.hpp</text>
</a>
</g>
</g>
<!-- Node12&#45;&gt;Node13 -->
<g id="edge17_Node000012_Node000013" class="edge">
<title>Node12&#45;&gt;Node13</title>
<g id="a_edge17_Node000012_Node000013"><a xlink:title=" ">
<path fill="none" stroke="#63b8ff" d="M372.25,-280.74C361.81,-271.53 350.84,-261.06 343.07,-252.83"/>
<polygon fill="#63b8ff" stroke="#63b8ff" points="369.8,-283.25 379.66,-287.13 374.37,-277.95 369.8,-283.25"/>
</a>
</g>
</g>
<!-- Node15 -->
<g id="Node000015" class="node">
<title>Node15</title>
<g id="a_Node000015"><a xlink:href="files_8cpp.html" target="_top" xlink:title=" ">
<polygon fill="white" stroke="#666666" points="524.98,-252.5 417.48,-252.5 417.48,-222 524.98,-222 524.98,-252.5"/>
<text text-anchor="start" x="425.48" y="-239" font-family="Helvetica,sans-Serif" font-size="10.00">src/planning/planning</text>
<text text-anchor="middle" x="471.23" y="-227.75" font-family="Helvetica,sans-Serif" font-size="10.00">/src/utils/files.cpp</text>
</a>
</g>
</g>
<!-- Node12&#45;&gt;Node15 -->
<g id="edge23_Node000012_Node000015" class="edge">
<title>Node12&#45;&gt;Node15</title>
<g id="a_edge23_Node000012_Node000015"><a xlink:title=" ">
<path fill="none" stroke="#63b8ff" d="M426.07,-280.46C435.85,-271.32 446.91,-260.98 455.63,-252.83"/>
<polygon fill="#63b8ff" stroke="#63b8ff" points="423.91,-277.69 418.99,-287.08 428.69,-282.81 423.91,-277.69"/>
</a>
</g>
</g>
<!-- Node13&#45;&gt;Node2 -->
<g id="edge18_Node000013_Node000002" class="edge">
<title>Node13&#45;&gt;Node2</title>
<g id="a_edge18_Node000013_Node000002"><a xlink:title=" ">
<path fill="none" stroke="#63b8ff" d="M284.68,-217.44C259.93,-207.85 229.8,-196.18 204.54,-186.39"/>
<polygon fill="#63b8ff" stroke="#63b8ff" points="283.28,-220.65 293.87,-221 285.81,-214.13 283.28,-220.65"/>
</a>
</g>
</g>
<!-- Node13&#45;&gt;Node10 -->
<g id="edge19_Node000013_Node000010" class="edge">
<title>Node13&#45;&gt;Node10</title>
<g id="a_edge19_Node000013_Node000010"><a xlink:title=" ">
<path fill="none" stroke="#63b8ff" d="M368.44,-216.01C384.63,-206.71 403.78,-195.7 419.97,-186.39"/>
<polygon fill="#63b8ff" stroke="#63b8ff" points="367.04,-212.78 360.11,-220.8 370.53,-218.85 367.04,-212.78"/>
</a>
</g>
</g>
<!-- Node13&#45;&gt;Node12 -->
<g id="edge20_Node000013_Node000012" class="edge">
<title>Node13&#45;&gt;Node12</title>
<g id="a_edge20_Node000013_Node000012"><a xlink:title=" ">
<path fill="none" stroke="#63b8ff" d="M363.14,-260.19C373.57,-269.4 384.54,-279.87 392.33,-288.11"/>
<polygon fill="#63b8ff" stroke="#63b8ff" points="365.59,-257.68 355.72,-253.82 361.02,-262.99 365.59,-257.68"/>
</a>
</g>
</g>
<!-- Node14 -->
<g id="Node000014" class="node">
<title>Node14</title>
<g id="a_Node000014"><a xlink:href="track_8cpp.html" target="_top" xlink:title=" ">
<polygon fill="white" stroke="#666666" points="381.35,-180.38 267.1,-180.38 267.1,-149.88 381.35,-149.88 381.35,-180.38"/>
<text text-anchor="start" x="275.1" y="-166.88" font-family="Helvetica,sans-Serif" font-size="10.00">src/planning/planning</text>
<text text-anchor="middle" x="324.23" y="-155.62" font-family="Helvetica,sans-Serif" font-size="10.00">/src/planning/track.cpp</text>
</a>
</g>
</g>
<!-- Node13&#45;&gt;Node14 -->
<g id="edge21_Node000013_Node000014" class="edge">
<title>Node13&#45;&gt;Node14</title>
<g id="a_edge21_Node000013_Node000014"><a xlink:title=" ">
<path fill="none" stroke="#63b8ff" d="M329.94,-210.6C328.64,-200.51 327.2,-189.28 326.09,-180.64"/>
<polygon fill="#63b8ff" stroke="#63b8ff" points="326.43,-210.75 331.17,-220.22 333.37,-209.85 326.43,-210.75"/>
</a>
</g>
</g>
</g>
</svg>
