<?xml version="1.0" encoding="UTF-8" standalone="no"?>
<!DOCTYPE svg PUBLIC "-//W3C//DTD SVG 1.1//EN"
 "http://www.w3.org/Graphics/SVG/1.1/DTD/svg11.dtd">
<!-- Generated by graphviz version 9.0.0 (20230911.1827)
 -->
<!-- Title: src/planning/planning/src/adapter/adapter.cpp Pages: 1 -->
<svg width="1461pt" height="415pt"
 viewBox="0.00 0.00 1460.75 415.00" xmlns="http://www.w3.org/2000/svg" xmlns:xlink="http://www.w3.org/1999/xlink">
<g id="graph0" class="graph" transform="scale(1 1) rotate(0) translate(4 411)">
<title>src/planning/planning/src/adapter/adapter.cpp</title>
<!-- Node1 -->
<g id="Node000001" class="node">
<title>Node1</title>
<g id="a_Node000001"><a xlink:title=" ">
<polygon fill="#999999" stroke="#666666" points="334.25,-407 213.25,-407 213.25,-376.5 334.25,-376.5 334.25,-407"/>
<text text-anchor="start" x="221.25" y="-393.5" font-family="Helvetica,sans-Serif" font-size="10.00">src/planning/planning</text>
<text text-anchor="middle" x="273.75" y="-382.25" font-family="Helvetica,sans-Serif" font-size="10.00">/src/adapter/adapter.cpp</text>
</a>
</g>
</g>
<!-- Node2 -->
<g id="Node000002" class="node">
<title>Node2</title>
<g id="a_Node000002"><a xlink:title=" ">
<polygon fill="#e0e0e0" stroke="#999999" points="101.5,-279.62 0,-279.62 0,-260.38 101.5,-260.38 101.5,-279.62"/>
<text text-anchor="middle" x="50.75" y="-266.12" font-family="Helvetica,sans-Serif" font-size="10.00">adapter/adapter.hpp</text>
</a>
</g>
</g>
<!-- Node1&#45;&gt;Node2 -->
<g id="edge1_Node000001_Node000002" class="edge">
<title>Node1&#45;&gt;Node2</title>
<g id="a_edge1_Node000001_Node000002"><a xlink:title=" ">
<path fill="none" stroke="#63b8ff" d="M246.41,-376.07C203.3,-352.92 120.09,-308.24 77.42,-285.32"/>
<polygon fill="#63b8ff" stroke="#63b8ff" points="79.29,-282.35 68.82,-280.7 75.98,-288.52 79.29,-282.35"/>
</a>
</g>
</g>
<!-- Node3 -->
<g id="Node000003" class="node">
<title>Node3</title>
<g id="a_Node000003"><a xlink:href="planning_8hpp.html" target="_top" xlink:title=" ">
<polygon fill="white" stroke="#666666" points="483.25,-340.5 374.25,-340.5 374.25,-321.25 483.25,-321.25 483.25,-340.5"/>
<text text-anchor="middle" x="428.75" y="-327" font-family="Helvetica,sans-Serif" font-size="10.00">planning/planning.hpp</text>
</a>
</g>
</g>
<!-- Node1&#45;&gt;Node3 -->
<g id="edge2_Node000001_Node000003" class="edge">
<title>Node1&#45;&gt;Node3</title>
<g id="a_edge2_Node000001_Node000003"><a xlink:title=" ">
<path fill="none" stroke="#63b8ff" d="M312.46,-376.05C337.66,-366.48 370.22,-354.11 394.48,-344.89"/>
<polygon fill="#63b8ff" stroke="#63b8ff" points="395.46,-348.26 403.56,-341.44 392.97,-341.72 395.46,-348.26"/>
</a>
</g>
</g>
<!-- Node3&#45;&gt;Node2 -->
<g id="edge8_Node000003_Node000002" class="edge">
<title>Node3&#45;&gt;Node2</title>
<g id="a_edge8_Node000003_Node000002"><a xlink:title=" ">
<path fill="none" stroke="#63b8ff" d="M373.99,-323.32C311.35,-315.53 205.82,-301.52 115.75,-285.25 110.89,-284.37 105.83,-283.39 100.79,-282.36"/>
<polygon fill="#63b8ff" stroke="#63b8ff" points="101.83,-279 91.32,-280.37 100.39,-285.85 101.83,-279"/>
</a>
</g>
</g>
<!-- Node4 -->
<g id="Node000004" class="node">
<title>Node4</title>
<g id="a_Node000004"><a xlink:title=" ">
<polygon fill="#e0e0e0" stroke="#999999" points="1452.75,-279.62 1394.75,-279.62 1394.75,-260.38 1452.75,-260.38 1452.75,-279.62"/>
<text text-anchor="middle" x="1423.75" y="-266.12" font-family="Helvetica,sans-Serif" font-size="10.00">functional</text>
</a>
</g>
</g>
<!-- Node3&#45;&gt;Node4 -->
<g id="edge3_Node000003_Node000004" class="edge">
<title>Node3&#45;&gt;Node4</title>
<g id="a_edge3_Node000003_Node000004"><a xlink:title=" ">
<path fill="none" stroke="#63b8ff" d="M483.47,-329.27C659.02,-327.02 1206.78,-317.52 1380.75,-285.25 1383.59,-284.72 1386.5,-284.05 1389.41,-283.29"/>
<polygon fill="#63b8ff" stroke="#63b8ff" points="1390.36,-286.66 1398.95,-280.45 1388.36,-279.95 1390.36,-286.66"/>
</a>
</g>
</g>
<!-- Node5 -->
<g id="Node000005" class="node">
<title>Node5</title>
<g id="a_Node000005"><a xlink:title=" ">
<polygon fill="#e0e0e0" stroke="#999999" points="530.12,-207.5 495.38,-207.5 495.38,-188.25 530.12,-188.25 530.12,-207.5"/>
<text text-anchor="middle" x="512.75" y="-194" font-family="Helvetica,sans-Serif" font-size="10.00">map</text>
</a>
</g>
</g>
<!-- Node3&#45;&gt;Node5 -->
<g id="edge4_Node000003_Node000005" class="edge">
<title>Node3&#45;&gt;Node5</title>
<g id="a_edge4_Node000003_Node000005"><a xlink:title=" ">
<path fill="none" stroke="#63b8ff" d="M375.9,-320.78C327.13,-310.04 266.01,-289.14 292.75,-254.75 316.14,-224.67 429.72,-208.15 483.89,-201.87"/>
<polygon fill="#63b8ff" stroke="#63b8ff" points="484.05,-205.38 493.6,-200.79 483.27,-198.42 484.05,-205.38"/>
</a>
</g>
</g>
<!-- Node6 -->
<g id="Node000006" class="node">
<title>Node6</title>
<g id="a_Node000006"><a xlink:title=" ">
<polygon fill="#e0e0e0" stroke="#999999" points="208,-279.62 157.5,-279.62 157.5,-260.38 208,-260.38 208,-279.62"/>
<text text-anchor="middle" x="182.75" y="-266.12" font-family="Helvetica,sans-Serif" font-size="10.00">memory</text>
</a>
</g>
</g>
<!-- Node3&#45;&gt;Node6 -->
<g id="edge5_Node000003_Node000006" class="edge">
<title>Node3&#45;&gt;Node6</title>
<g id="a_edge5_Node000003_Node000006"><a xlink:title=" ">
<path fill="none" stroke="#63b8ff" d="M377.22,-320.81C335.04,-312.91 274.02,-300.36 221.75,-285.25 220.15,-284.79 218.52,-284.29 216.88,-283.77"/>
<polygon fill="#63b8ff" stroke="#63b8ff" points="218.12,-280.5 207.52,-280.61 215.87,-287.13 218.12,-280.5"/>
</a>
</g>
</g>
<!-- Node7 -->
<g id="Node000007" class="node">
<title>Node7</title>
<g id="a_Node000007"><a xlink:title=" ">
<polygon fill="#e0e0e0" stroke="#999999" points="331.75,-80.12 291.75,-80.12 291.75,-60.88 331.75,-60.88 331.75,-80.12"/>
<text text-anchor="middle" x="311.75" y="-66.62" font-family="Helvetica,sans-Serif" font-size="10.00">string</text>
</a>
</g>
</g>
<!-- Node3&#45;&gt;Node7 -->
<g id="edge6_Node000003_Node000007" class="edge">
<title>Node3&#45;&gt;Node7</title>
<g id="a_edge6_Node000003_Node000007"><a xlink:title=" ">
<path fill="none" stroke="#63b8ff" d="M373.82,-328.4C341.73,-324.36 303.56,-313.37 282.75,-285.25 238.66,-225.67 280.08,-130.44 301.14,-90.31"/>
<polygon fill="#63b8ff" stroke="#63b8ff" points="304.15,-92.11 305.85,-81.65 298,-88.77 304.15,-92.11"/>
</a>
</g>
</g>
<!-- Node8 -->
<g id="Node000008" class="node">
<title>Node8</title>
<g id="a_Node000008"><a xlink:title=" ">
<polygon fill="#e0e0e0" stroke="#999999" points="465.25,-19.25 422.25,-19.25 422.25,0 465.25,0 465.25,-19.25"/>
<text text-anchor="middle" x="443.75" y="-5.75" font-family="Helvetica,sans-Serif" font-size="10.00">vector</text>
</a>
</g>
</g>
<!-- Node3&#45;&gt;Node8 -->
<g id="edge7_Node000003_Node000008" class="edge">
<title>Node3&#45;&gt;Node8</title>
<g id="a_edge7_Node000003_Node000008"><a xlink:title=" ">
<path fill="none" stroke="#63b8ff" d="M373.96,-328.27C301.82,-325 180.4,-315.1 148.75,-285.25 120.16,-258.28 129.75,-238.18 129.75,-198.88 129.75,-198.88 129.75,-198.88 129.75,-130.38 129.75,-70.6 330.95,-29.79 411.24,-15.88"/>
<polygon fill="#63b8ff" stroke="#63b8ff" points="411.4,-19.41 420.68,-14.28 410.23,-12.51 411.4,-19.41"/>
</a>
</g>
</g>
<!-- Node9 -->
<g id="Node000009" class="node">
<title>Node9</title>
<g id="a_Node000009"><a xlink:title=" ">
<polygon fill="#e0e0e0" stroke="#999999" points="419.75,-285.25 301.75,-285.25 301.75,-254.75 419.75,-254.75 419.75,-285.25"/>
<text text-anchor="start" x="309.75" y="-271.75" font-family="Helvetica,sans-Serif" font-size="10.00">custom_interfaces/msg</text>
<text text-anchor="middle" x="360.75" y="-260.5" font-family="Helvetica,sans-Serif" font-size="10.00">/cone_array.hpp</text>
</a>
</g>
</g>
<!-- Node3&#45;&gt;Node9 -->
<g id="edge9_Node000003_Node000009" class="edge">
<title>Node3&#45;&gt;Node9</title>
<g id="a_edge9_Node000003_Node000009"><a xlink:title=" ">
<path fill="none" stroke="#63b8ff" d="M418.42,-320.93C409.86,-313.52 397.33,-302.67 386.13,-292.97"/>
<polygon fill="#63b8ff" stroke="#63b8ff" points="388.53,-290.42 378.68,-286.52 383.95,-295.71 388.53,-290.42"/>
</a>
</g>
</g>
<!-- Node10 -->
<g id="Node000010" class="node">
<title>Node10</title>
<g id="a_Node000010"><a xlink:title=" ">
<polygon fill="#e0e0e0" stroke="#999999" points="555.75,-285.25 437.75,-285.25 437.75,-254.75 555.75,-254.75 555.75,-285.25"/>
<text text-anchor="start" x="445.75" y="-271.75" font-family="Helvetica,sans-Serif" font-size="10.00">custom_interfaces/msg</text>
<text text-anchor="middle" x="496.75" y="-260.5" font-family="Helvetica,sans-Serif" font-size="10.00">/point2d.hpp</text>
</a>
</g>
</g>
<!-- Node3&#45;&gt;Node10 -->
<g id="edge10_Node000003_Node000010" class="edge">
<title>Node3&#45;&gt;Node10</title>
<g id="a_edge10_Node000003_Node000010"><a xlink:title=" ">
<path fill="none" stroke="#63b8ff" d="M439.08,-320.93C447.64,-313.52 460.17,-302.67 471.37,-292.97"/>
<polygon fill="#63b8ff" stroke="#63b8ff" points="473.55,-295.71 478.82,-286.52 468.97,-290.42 473.55,-295.71"/>
</a>
</g>
</g>
<!-- Node11 -->
<g id="Node000011" class="node">
<title>Node11</title>
<g id="a_Node000011"><a xlink:title=" ">
<polygon fill="#e0e0e0" stroke="#999999" points="691.75,-285.25 573.75,-285.25 573.75,-254.75 691.75,-254.75 691.75,-285.25"/>
<text text-anchor="start" x="581.75" y="-271.75" font-family="Helvetica,sans-Serif" font-size="10.00">custom_interfaces/msg</text>
<text text-anchor="middle" x="632.75" y="-260.5" font-family="Helvetica,sans-Serif" font-size="10.00">/point_array.hpp</text>
</a>
</g>
</g>
<!-- Node3&#45;&gt;Node11 -->
<g id="edge11_Node000003_Node000011" class="edge">
<title>Node3&#45;&gt;Node11</title>
<g id="a_edge11_Node000003_Node000011"><a xlink:title=" ">
<path fill="none" stroke="#63b8ff" d="M460.18,-320.8C489.55,-312.33 534.24,-299.43 570.78,-288.88"/>
<polygon fill="#63b8ff" stroke="#63b8ff" points="571.74,-292.25 580.38,-286.11 569.8,-285.52 571.74,-292.25"/>
</a>
</g>
</g>
<!-- Node12 -->
<g id="Node000012" class="node">
<title>Node12</title>
<g id="a_Node000012"><a xlink:title=" ">
<polygon fill="#e0e0e0" stroke="#999999" points="827.75,-285.25 709.75,-285.25 709.75,-254.75 827.75,-254.75 827.75,-285.25"/>
<text text-anchor="start" x="717.75" y="-271.75" font-family="Helvetica,sans-Serif" font-size="10.00">custom_interfaces/msg</text>
<text text-anchor="middle" x="768.75" y="-260.5" font-family="Helvetica,sans-Serif" font-size="10.00">/pose.hpp</text>
</a>
</g>
</g>
<!-- Node3&#45;&gt;Node12 -->
<g id="edge12_Node000003_Node000012" class="edge">
<title>Node3&#45;&gt;Node12</title>
<g id="a_edge12_Node000003_Node000012"><a xlink:title=" ">
<path fill="none" stroke="#63b8ff" d="M483.58,-321.6C536.13,-313.52 617.96,-300.5 698.14,-285.69"/>
<polygon fill="#63b8ff" stroke="#63b8ff" points="698.76,-289.13 707.95,-283.87 697.48,-282.25 698.76,-289.13"/>
</a>
</g>
</g>
<!-- Node13 -->
<g id="Node000013" class="node">
<title>Node13</title>
<g id="a_Node000013"><a xlink:href="global__path__planner_8hpp.html" target="_top" xlink:title=" ">
<polygon fill="white" stroke="#666666" points="950,-285.25 845.5,-285.25 845.5,-254.75 950,-254.75 950,-285.25"/>
<text text-anchor="start" x="853.5" y="-271.75" font-family="Helvetica,sans-Serif" font-size="10.00">planning/global_path</text>
<text text-anchor="middle" x="897.75" y="-260.5" font-family="Helvetica,sans-Serif" font-size="10.00">_planner.hpp</text>
</a>
</g>
</g>
<!-- Node3&#45;&gt;Node13 -->
<g id="edge13_Node000003_Node000013" class="edge">
<title>Node3&#45;&gt;Node13</title>
<g id="a_edge13_Node000003_Node000013"><a xlink:title=" ">
<path fill="none" stroke="#63b8ff" d="M483.49,-326C559.91,-320.12 703.1,-307.42 834.23,-285.55"/>
<polygon fill="#63b8ff" stroke="#63b8ff" points="834.49,-289.06 843.77,-283.94 833.32,-282.16 834.49,-289.06"/>
</a>
</g>
</g>
<!-- Node25 -->
<g id="Node000025" class="node">
<title>Node25</title>
<g id="a_Node000025"><a xlink:href="files_8hpp.html" target="_top" xlink:title=" ">
<polygon fill="white" stroke="#666666" points="964.88,-141 892.62,-141 892.62,-121.75 964.88,-121.75 964.88,-141"/>
<text text-anchor="middle" x="928.75" y="-127.5" font-family="Helvetica,sans-Serif" font-size="10.00">utils/files.hpp</text>
</a>
</g>
</g>
<!-- Node3&#45;&gt;Node25 -->
<g id="edge52_Node000003_Node000025" class="edge">
<title>Node3&#45;&gt;Node25</title>
<g id="a_edge52_Node000003_Node000025"><a xlink:title=" ">
<path fill="none" stroke="#63b8ff" d="M483.4,-329.95C595.53,-329.27 859.32,-323.33 1076.75,-285.25 1182.83,-266.67 1244.89,-304.72 1309.75,-218.75 1320.93,-203.94 1322.08,-190.86 1309.75,-177 1287.92,-152.47 1073.58,-139.25 976.31,-134.47"/>
<polygon fill="#63b8ff" stroke="#63b8ff" points="976.72,-130.99 966.57,-134 976.39,-137.98 976.72,-130.99"/>
</a>
</g>
</g>
<!-- Node28 -->
<g id="Node000028" class="node">
<title>Node28</title>
<g id="a_Node000028"><a xlink:href="local__path__planner_8hpp.html" target="_top" xlink:title=" ">
<polygon fill="white" stroke="#666666" points="1067.38,-285.25 968.12,-285.25 968.12,-254.75 1067.38,-254.75 1067.38,-285.25"/>
<text text-anchor="start" x="976.12" y="-271.75" font-family="Helvetica,sans-Serif" font-size="10.00">planning/local_path</text>
<text text-anchor="middle" x="1017.75" y="-260.5" font-family="Helvetica,sans-Serif" font-size="10.00">_planner.hpp</text>
</a>
</g>
</g>
<!-- Node3&#45;&gt;Node28 -->
<g id="edge42_Node000003_Node000028" class="edge">
<title>Node3&#45;&gt;Node28</title>
<g id="a_edge42_Node000003_Node000028"><a xlink:title=" ">
<path fill="none" stroke="#63b8ff" d="M483.64,-328.02C578.26,-324.22 778.28,-313.55 956.48,-285.44"/>
<polygon fill="#63b8ff" stroke="#63b8ff" points="956.83,-288.93 966.15,-283.89 955.72,-282.02 956.83,-288.93"/>
</a>
</g>
</g>
<!-- Node13&#45;&gt;Node7 -->
<g id="edge14_Node000013_Node000007" class="edge">
<title>Node13&#45;&gt;Node7</title>
<g id="a_edge14_Node000013_Node000007"><a xlink:title=" ">
<path fill="none" stroke="#63b8ff" d="M845.26,-256.29C842.39,-255.74 839.54,-255.22 836.75,-254.75 682.52,-228.91 637.73,-259.48 486.75,-218.75 405.75,-196.9 361.75,-210.49 314.75,-141 305.02,-126.62 305.27,-106.48 307.36,-91.57"/>
<polygon fill="#63b8ff" stroke="#63b8ff" points="310.76,-92.49 309.1,-82.02 303.87,-91.23 310.76,-92.49"/>
</a>
</g>
</g>
<!-- Node13&#45;&gt;Node8 -->
<g id="edge16_Node000013_Node000008" class="edge">
<title>Node13&#45;&gt;Node8</title>
<g id="a_edge16_Node000013_Node000008"><a xlink:title=" ">
<path fill="none" stroke="#63b8ff" d="M845.28,-256.19C842.4,-255.66 839.55,-255.18 836.75,-254.75 728.16,-238.21 435.38,-279.34 343.75,-218.75 279.06,-175.97 235.8,-116.98 282.75,-55.25 298.16,-34.99 368.11,-21.54 410.57,-15.08"/>
<polygon fill="#63b8ff" stroke="#63b8ff" points="410.87,-18.57 420.26,-13.66 409.86,-11.65 410.87,-18.57"/>
</a>
</g>
</g>
<!-- Node14 -->
<g id="Node000014" class="node">
<title>Node14</title>
<g id="a_Node000014"><a xlink:title=" ">
<polygon fill="#e0e0e0" stroke="#999999" points="907,-207.5 868.5,-207.5 868.5,-188.25 907,-188.25 907,-207.5"/>
<text text-anchor="middle" x="887.75" y="-194" font-family="Helvetica,sans-Serif" font-size="10.00">utility</text>
</a>
</g>
</g>
<!-- Node13&#45;&gt;Node14 -->
<g id="edge15_Node000013_Node000014" class="edge">
<title>Node13&#45;&gt;Node14</title>
<g id="a_edge15_Node000013_Node000014"><a xlink:title=" ">
<path fill="none" stroke="#63b8ff" d="M895.68,-254.47C894.21,-244.21 892.24,-230.33 890.62,-219"/>
<polygon fill="#63b8ff" stroke="#63b8ff" points="894.09,-218.54 889.21,-209.13 887.16,-219.52 894.09,-218.54"/>
</a>
</g>
</g>
<!-- Node15 -->
<g id="Node000015" class="node">
<title>Node15</title>
<g id="a_Node000015"><a xlink:href="planning_2planning_2include_2utils_2position_8hpp.html" target="_top" xlink:title=" ">
<polygon fill="white" stroke="#666666" points="1251.88,-80.12 1155.62,-80.12 1155.62,-60.88 1251.88,-60.88 1251.88,-80.12"/>
<text text-anchor="middle" x="1203.75" y="-66.62" font-family="Helvetica,sans-Serif" font-size="10.00">../utils/position.hpp</text>
</a>
</g>
</g>
<!-- Node13&#45;&gt;Node15 -->
<g id="edge17_Node000013_Node000015" class="edge">
<title>Node13&#45;&gt;Node15</title>
<g id="a_edge17_Node000013_Node000015"><a xlink:title=" ">
<path fill="none" stroke="#63b8ff" d="M883.35,-254.5C866.13,-235.38 841.77,-201.32 859.75,-177 860.91,-175.43 1071.62,-111.5 1162.65,-83.93"/>
<polygon fill="#63b8ff" stroke="#63b8ff" points="1163.64,-87.29 1172.2,-81.04 1161.61,-80.59 1163.64,-87.29"/>
</a>
</g>
</g>
<!-- Node18 -->
<g id="Node000018" class="node">
<title>Node18</title>
<g id="a_Node000018"><a xlink:href="track_8hpp.html" target="_top" xlink:title=" ">
<polygon fill="white" stroke="#666666" points="802.25,-207.5 741.25,-207.5 741.25,-188.25 802.25,-188.25 802.25,-207.5"/>
<text text-anchor="middle" x="771.75" y="-194" font-family="Helvetica,sans-Serif" font-size="10.00">./track.hpp</text>
</a>
</g>
</g>
<!-- Node13&#45;&gt;Node18 -->
<g id="edge21_Node000013_Node000018" class="edge">
<title>Node13&#45;&gt;Node18</title>
<g id="a_edge21_Node000013_Node000018"><a xlink:title=" ">
<path fill="none" stroke="#63b8ff" d="M871.34,-254.3C849.76,-242.29 819.41,-225.4 797.9,-213.43"/>
<polygon fill="#63b8ff" stroke="#63b8ff" points="799.89,-210.53 789.45,-208.73 796.49,-216.65 799.89,-210.53"/>
</a>
</g>
</g>
<!-- Node15&#45;&gt;Node8 -->
<g id="edge20_Node000015_Node000008" class="edge">
<title>Node15&#45;&gt;Node8</title>
<g id="a_edge20_Node000015_Node000008"><a xlink:title=" ">
<path fill="none" stroke="#63b8ff" d="M1171.7,-60.41C1163.62,-58.41 1154.91,-56.52 1146.75,-55.25 890.99,-15.5 577.62,-10.97 476.71,-10.6"/>
<polygon fill="#63b8ff" stroke="#63b8ff" points="477,-7.1 466.99,-10.58 476.98,-14.1 477,-7.1"/>
</a>
</g>
</g>
<!-- Node16 -->
<g id="Node000016" class="node">
<title>Node16</title>
<g id="a_Node000016"><a xlink:title=" ">
<polygon fill="#e0e0e0" stroke="#999999" points="1225.25,-19.25 1182.25,-19.25 1182.25,0 1225.25,0 1225.25,-19.25"/>
<text text-anchor="middle" x="1203.75" y="-5.75" font-family="Helvetica,sans-Serif" font-size="10.00">cmath</text>
</a>
</g>
</g>
<!-- Node15&#45;&gt;Node16 -->
<g id="edge18_Node000015_Node000016" class="edge">
<title>Node15&#45;&gt;Node16</title>
<g id="a_edge18_Node000015_Node000016"><a xlink:title=" ">
<path fill="none" stroke="#63b8ff" d="M1203.75,-60.56C1203.75,-52.78 1203.75,-41.2 1203.75,-31.16"/>
<polygon fill="#63b8ff" stroke="#63b8ff" points="1207.25,-31.16 1203.75,-21.16 1200.25,-31.16 1207.25,-31.16"/>
</a>
</g>
</g>
<!-- Node17 -->
<g id="Node000017" class="node">
<title>Node17</title>
<g id="a_Node000017"><a xlink:title=" ">
<polygon fill="#e0e0e0" stroke="#999999" points="980.25,-19.25 931.25,-19.25 931.25,0 980.25,0 980.25,-19.25"/>
<text text-anchor="middle" x="955.75" y="-5.75" font-family="Helvetica,sans-Serif" font-size="10.00">fstream</text>
</a>
</g>
</g>
<!-- Node15&#45;&gt;Node17 -->
<g id="edge19_Node000015_Node000017" class="edge">
<title>Node15&#45;&gt;Node17</title>
<g id="a_edge19_Node000015_Node000017"><a xlink:title=" ">
<path fill="none" stroke="#63b8ff" d="M1167.89,-60.45C1160.89,-58.7 1153.59,-56.9 1146.75,-55.25 1092.76,-42.19 1030.02,-27.66 991.61,-18.83"/>
<polygon fill="#63b8ff" stroke="#63b8ff" points="992.51,-15.44 981.98,-16.62 990.94,-22.27 992.51,-15.44"/>
</a>
</g>
</g>
<!-- Node18&#45;&gt;Node7 -->
<g id="edge27_Node000018_Node000007" class="edge">
<title>Node18&#45;&gt;Node7</title>
<g id="a_edge27_Node000018_Node000007"><a xlink:title=" ">
<path fill="none" stroke="#63b8ff" d="M740.95,-193.92C643.34,-184.42 346.32,-154.52 330.75,-141 316.74,-128.83 312.59,-107.43 311.57,-91.58"/>
<polygon fill="#63b8ff" stroke="#63b8ff" points="315.08,-91.77 311.34,-81.86 308.08,-91.94 315.08,-91.77"/>
</a>
</g>
</g>
<!-- Node18&#45;&gt;Node8 -->
<g id="edge28_Node000018_Node000008" class="edge">
<title>Node18&#45;&gt;Node8</title>
<g id="a_edge28_Node000018_Node000008"><a xlink:title=" ">
<path fill="none" stroke="#63b8ff" d="M740.89,-195.73C670.44,-192.43 500.92,-180.5 462.75,-141 434.35,-111.62 436.34,-59.76 440.13,-31.1"/>
<polygon fill="#63b8ff" stroke="#63b8ff" points="443.59,-31.64 441.66,-21.22 436.67,-30.56 443.59,-31.64"/>
</a>
</g>
</g>
<!-- Node18&#45;&gt;Node17 -->
<g id="edge25_Node000018_Node000017" class="edge">
<title>Node18&#45;&gt;Node17</title>
<g id="a_edge25_Node000018_Node000017"><a xlink:title=" ">
<path fill="none" stroke="#63b8ff" d="M779.46,-187.93C799.3,-165.08 854.04,-102.96 903.75,-55.25 914.03,-45.39 926.07,-34.99 935.97,-26.71"/>
<polygon fill="#63b8ff" stroke="#63b8ff" points="938.04,-29.54 943.52,-20.48 933.58,-24.15 938.04,-29.54"/>
</a>
</g>
</g>
<!-- Node19 -->
<g id="Node000019" class="node">
<title>Node19</title>
<g id="a_Node000019"><a xlink:title=" ">
<polygon fill="#e0e0e0" stroke="#999999" points="559.75,-141 471.75,-141 471.75,-121.75 559.75,-121.75 559.75,-141"/>
<text text-anchor="middle" x="515.75" y="-127.5" font-family="Helvetica,sans-Serif" font-size="10.00">gsl/gsl_bspline.h</text>
</a>
</g>
</g>
<!-- Node18&#45;&gt;Node19 -->
<g id="edge22_Node000018_Node000019" class="edge">
<title>Node18&#45;&gt;Node19</title>
<g id="a_edge22_Node000018_Node000019"><a xlink:title=" ">
<path fill="none" stroke="#63b8ff" d="M740.87,-189.09C696.52,-177.92 614.42,-157.23 562.57,-144.17"/>
<polygon fill="#63b8ff" stroke="#63b8ff" points="563.7,-140.85 553.14,-141.8 561.99,-147.63 563.7,-140.85"/>
</a>
</g>
</g>
<!-- Node20 -->
<g id="Node000020" class="node">
<title>Node20</title>
<g id="a_Node000020"><a xlink:title=" ">
<polygon fill="#e0e0e0" stroke="#999999" points="663.62,-141 577.88,-141 577.88,-121.75 663.62,-121.75 663.62,-141"/>
<text text-anchor="middle" x="620.75" y="-127.5" font-family="Helvetica,sans-Serif" font-size="10.00">gsl/gsl_multifit.h</text>
</a>
</g>
</g>
<!-- Node18&#45;&gt;Node20 -->
<g id="edge23_Node000018_Node000020" class="edge">
<title>Node18&#45;&gt;Node20</title>
<g id="a_edge23_Node000018_Node000020"><a xlink:title=" ">
<path fill="none" stroke="#63b8ff" d="M750.44,-187.77C724.92,-176.87 681.94,-158.51 652.51,-145.94"/>
<polygon fill="#63b8ff" stroke="#63b8ff" points="653.92,-142.74 643.35,-142.03 651.17,-149.17 653.92,-142.74"/>
</a>
</g>
</g>
<!-- Node21 -->
<g id="Node000021" class="node">
<title>Node21</title>
<g id="a_Node000021"><a xlink:title=" ">
<polygon fill="#e0e0e0" stroke="#999999" points="727.38,-141 682.12,-141 682.12,-121.75 727.38,-121.75 727.38,-141"/>
<text text-anchor="middle" x="704.75" y="-127.5" font-family="Helvetica,sans-Serif" font-size="10.00">cstring</text>
</a>
</g>
</g>
<!-- Node18&#45;&gt;Node21 -->
<g id="edge24_Node000018_Node000021" class="edge">
<title>Node18&#45;&gt;Node21</title>
<g id="a_edge24_Node000018_Node000021"><a xlink:title=" ">
<path fill="none" stroke="#63b8ff" d="M762.43,-187.91C752.03,-177.89 734.97,-161.47 722.1,-149.08"/>
<polygon fill="#63b8ff" stroke="#63b8ff" points="724.71,-146.73 715.08,-142.32 719.85,-151.77 724.71,-146.73"/>
</a>
</g>
</g>
<!-- Node22 -->
<g id="Node000022" class="node">
<title>Node22</title>
<g id="a_Node000022"><a xlink:title=" ">
<polygon fill="#e0e0e0" stroke="#999999" points="798.5,-141 745,-141 745,-121.75 798.5,-121.75 798.5,-141"/>
<text text-anchor="middle" x="771.75" y="-127.5" font-family="Helvetica,sans-Serif" font-size="10.00">iostream</text>
</a>
</g>
</g>
<!-- Node18&#45;&gt;Node22 -->
<g id="edge26_Node000018_Node000022" class="edge">
<title>Node18&#45;&gt;Node22</title>
<g id="a_edge26_Node000018_Node000022"><a xlink:title=" ">
<path fill="none" stroke="#63b8ff" d="M771.75,-187.91C771.75,-178.86 771.75,-164.57 771.75,-152.75"/>
<polygon fill="#63b8ff" stroke="#63b8ff" points="775.25,-152.78 771.75,-142.78 768.25,-152.78 775.25,-152.78"/>
</a>
</g>
</g>
<!-- Node23 -->
<g id="Node000023" class="node">
<title>Node23</title>
<g id="a_Node000023"><a xlink:title=" ">
<polygon fill="#e0e0e0" stroke="#999999" points="1359.5,-80.12 1270,-80.12 1270,-60.88 1359.5,-60.88 1359.5,-80.12"/>
<text text-anchor="middle" x="1314.75" y="-66.62" font-family="Helvetica,sans-Serif" font-size="10.00">rclcpp/rclcpp.hpp</text>
</a>
</g>
</g>
<!-- Node18&#45;&gt;Node23 -->
<g id="edge29_Node000018_Node000023" class="edge">
<title>Node18&#45;&gt;Node23</title>
<g id="a_edge29_Node000018_Node000023"><a xlink:title=" ">
<path fill="none" stroke="#63b8ff" d="M802.52,-189.91C906.26,-166.44 1237.95,-91.35 1260.75,-85.75 1263.84,-84.99 1267.02,-84.19 1270.23,-83.38"/>
<polygon fill="#63b8ff" stroke="#63b8ff" points="1270.82,-86.84 1279.63,-80.95 1269.07,-80.06 1270.82,-86.84"/>
</a>
</g>
</g>
<!-- Node24 -->
<g id="Node000024" class="node">
<title>Node24</title>
<g id="a_Node000024"><a xlink:href="cone_8hpp.html" target="_top" xlink:title=" ">
<polygon fill="white" stroke="#666666" points="415.75,-141 339.75,-141 339.75,-121.75 415.75,-121.75 415.75,-141"/>
<text text-anchor="middle" x="377.75" y="-127.5" font-family="Helvetica,sans-Serif" font-size="10.00">utils/cone.hpp</text>
</a>
</g>
</g>
<!-- Node18&#45;&gt;Node24 -->
<g id="edge30_Node000018_Node000024" class="edge">
<title>Node18&#45;&gt;Node24</title>
<g id="a_edge30_Node000018_Node000024"><a xlink:title=" ">
<path fill="none" stroke="#63b8ff" d="M741.09,-191.89C681.23,-182.16 544.62,-159.91 429.75,-141 428.92,-140.86 428.08,-140.73 427.24,-140.59"/>
<polygon fill="#63b8ff" stroke="#63b8ff" points="428.02,-137.17 417.58,-138.99 426.87,-144.07 428.02,-137.17"/>
</a>
</g>
</g>
<!-- Node18&#45;&gt;Node25 -->
<g id="edge34_Node000018_Node000025" class="edge">
<title>Node18&#45;&gt;Node25</title>
<g id="a_edge34_Node000018_Node000025"><a xlink:title=" ">
<path fill="none" stroke="#63b8ff" d="M789.04,-187.77C813.67,-176.73 858.96,-158.03 891.38,-145.45"/>
<polygon fill="#63b8ff" stroke="#63b8ff" points="892.34,-148.83 900.42,-141.98 889.83,-142.29 892.34,-148.83"/>
</a>
</g>
</g>
<!-- Node24&#45;&gt;Node7 -->
<g id="edge32_Node000024_Node000007" class="edge">
<title>Node24&#45;&gt;Node7</title>
<g id="a_edge32_Node000024_Node000007"><a xlink:title=" ">
<path fill="none" stroke="#63b8ff" d="M367.73,-121.43C357.84,-112.62 342.49,-98.93 330.37,-88.11"/>
<polygon fill="#63b8ff" stroke="#63b8ff" points="332.79,-85.58 323,-81.53 328.13,-90.8 332.79,-85.58"/>
</a>
</g>
</g>
<!-- Node24&#45;&gt;Node8 -->
<g id="edge33_Node000024_Node000008" class="edge">
<title>Node24&#45;&gt;Node8</title>
<g id="a_edge33_Node000024_Node000008"><a xlink:title=" ">
<path fill="none" stroke="#63b8ff" d="M382.71,-121.37C393.41,-101.96 418.87,-55.77 433.3,-29.59"/>
<polygon fill="#63b8ff" stroke="#63b8ff" points="436.24,-31.5 438,-21.06 430.11,-28.12 436.24,-31.5"/>
</a>
</g>
</g>
<!-- Node24&#45;&gt;Node16 -->
<g id="edge31_Node000024_Node000016" class="edge">
<title>Node24&#45;&gt;Node16</title>
<g id="a_edge31_Node000024_Node000016"><a xlink:title=" ">
<path fill="none" stroke="#63b8ff" d="M416.21,-124.8C556.57,-104.45 1039.88,-34.38 1170.81,-15.4"/>
<polygon fill="#63b8ff" stroke="#63b8ff" points="1171.13,-18.89 1180.52,-13.99 1170.13,-11.96 1171.13,-18.89"/>
</a>
</g>
</g>
<!-- Node25&#45;&gt;Node7 -->
<g id="edge37_Node000025_Node000007" class="edge">
<title>Node25&#45;&gt;Node7</title>
<g id="a_edge37_Node000025_Node000007"><a xlink:title=" ">
<path fill="none" stroke="#63b8ff" d="M892.46,-126.91C781.51,-116.33 448.07,-84.51 343.49,-74.53"/>
<polygon fill="#63b8ff" stroke="#63b8ff" points="343.96,-71.06 333.67,-73.59 343.3,-78.03 343.96,-71.06"/>
</a>
</g>
</g>
<!-- Node25&#45;&gt;Node8 -->
<g id="edge38_Node000025_Node000008" class="edge">
<title>Node25&#45;&gt;Node8</title>
<g id="a_edge38_Node000025_Node000008"><a xlink:title=" ">
<path fill="none" stroke="#63b8ff" d="M919.5,-121.29C902.18,-104.92 862.96,-70.7 822.75,-55.25 759.81,-31.06 557.35,-17.13 477.03,-12.43"/>
<polygon fill="#63b8ff" stroke="#63b8ff" points="477.36,-8.94 467.17,-11.87 476.96,-15.93 477.36,-8.94"/>
</a>
</g>
</g>
<!-- Node25&#45;&gt;Node15 -->
<g id="edge40_Node000025_Node000015" class="edge">
<title>Node25&#45;&gt;Node15</title>
<g id="a_edge40_Node000025_Node000015"><a xlink:title=" ">
<path fill="none" stroke="#63b8ff" d="M965.11,-123.43C1008.47,-115.03 1083.08,-100.22 1146.75,-85.75 1150.28,-84.95 1153.93,-84.09 1157.59,-83.22"/>
<polygon fill="#63b8ff" stroke="#63b8ff" points="1158.18,-86.68 1167.07,-80.91 1156.52,-79.88 1158.18,-86.68"/>
</a>
</g>
</g>
<!-- Node25&#45;&gt;Node18 -->
<g id="edge39_Node000025_Node000018" class="edge">
<title>Node25&#45;&gt;Node18</title>
<g id="a_edge39_Node000025_Node000018"><a xlink:title=" ">
<path fill="none" stroke="#63b8ff" d="M911.56,-141.43C886.99,-152.46 841.71,-171.15 809.25,-183.75"/>
<polygon fill="#63b8ff" stroke="#63b8ff" points="808.28,-180.38 800.2,-187.23 810.79,-186.91 808.28,-180.38"/>
</a>
</g>
</g>
<!-- Node25&#45;&gt;Node23 -->
<g id="edge41_Node000025_Node000023" class="edge">
<title>Node25&#45;&gt;Node23</title>
<g id="a_edge41_Node000025_Node000023"><a xlink:title=" ">
<path fill="none" stroke="#63b8ff" d="M965.31,-123.88C969.83,-123.13 974.39,-122.4 978.75,-121.75 1103.7,-103.01 1136.73,-109.92 1260.75,-85.75 1264.53,-85.01 1268.43,-84.16 1272.34,-83.25"/>
<polygon fill="#63b8ff" stroke="#63b8ff" points="1272.88,-86.72 1281.75,-80.93 1271.2,-79.93 1272.88,-86.72"/>
</a>
</g>
</g>
<!-- Node26 -->
<g id="Node000026" class="node">
<title>Node26</title>
<g id="a_Node000026"><a xlink:title=" ">
<polygon fill="#e0e0e0" stroke="#999999" points="1137.38,-85.75 990.12,-85.75 990.12,-55.25 1137.38,-55.25 1137.38,-85.75"/>
<text text-anchor="start" x="998.12" y="-72.25" font-family="Helvetica,sans-Serif" font-size="10.00">ament_index_cpp/get</text>
<text text-anchor="middle" x="1063.75" y="-61" font-family="Helvetica,sans-Serif" font-size="10.00">_package_share_directory.hpp</text>
</a>
</g>
</g>
<!-- Node25&#45;&gt;Node26 -->
<g id="edge35_Node000025_Node000026" class="edge">
<title>Node25&#45;&gt;Node26</title>
<g id="a_edge35_Node000025_Node000026"><a xlink:title=" ">
<path fill="none" stroke="#63b8ff" d="M949.55,-121.3C968.15,-113.19 996.03,-101.03 1019.58,-90.76"/>
<polygon fill="#63b8ff" stroke="#63b8ff" points="1020.9,-94.01 1028.67,-86.8 1018.1,-87.59 1020.9,-94.01"/>
</a>
</g>
</g>
<!-- Node27 -->
<g id="Node000027" class="node">
<title>Node27</title>
<g id="a_Node000027"><a xlink:title=" ">
<polygon fill="#e0e0e0" stroke="#999999" points="972.5,-80.12 913,-80.12 913,-60.88 972.5,-60.88 972.5,-80.12"/>
<text text-anchor="middle" x="942.75" y="-66.62" font-family="Helvetica,sans-Serif" font-size="10.00">filesystem</text>
</a>
</g>
</g>
<!-- Node25&#45;&gt;Node27 -->
<g id="edge36_Node000025_Node000027" class="edge">
<title>Node25&#45;&gt;Node27</title>
<g id="a_edge36_Node000025_Node000027"><a xlink:title=" ">
<path fill="none" stroke="#63b8ff" d="M930.88,-121.43C932.75,-113.57 935.54,-101.82 937.95,-91.7"/>
<polygon fill="#63b8ff" stroke="#63b8ff" points="941.35,-92.54 940.25,-82 934.54,-90.92 941.35,-92.54"/>
</a>
</g>
</g>
<!-- Node28&#45;&gt;Node5 -->
<g id="edge46_Node000028_Node000005" class="edge">
<title>Node28&#45;&gt;Node5</title>
<g id="a_edge46_Node000028_Node000005"><a xlink:title=" ">
<path fill="none" stroke="#63b8ff" d="M967.94,-256.55C964.84,-255.91 961.76,-255.3 958.75,-254.75 802.37,-226.16 612.45,-207.69 541.39,-201.34"/>
<polygon fill="#63b8ff" stroke="#63b8ff" points="542.06,-197.88 531.79,-200.49 541.45,-204.86 542.06,-197.88"/>
</a>
</g>
</g>
<!-- Node28&#45;&gt;Node8 -->
<g id="edge48_Node000028_Node000008" class="edge">
<title>Node28&#45;&gt;Node8</title>
<g id="a_edge48_Node000028_Node000008"><a xlink:title=" ">
<path fill="none" stroke="#63b8ff" d="M1003.9,-254.31C985.16,-234.98 950.11,-200.68 915.75,-177 770.14,-76.66 557.73,-30.71 476.77,-16.08"/>
<polygon fill="#63b8ff" stroke="#63b8ff" points="477.53,-12.66 467.07,-14.38 476.31,-19.56 477.53,-12.66"/>
</a>
</g>
</g>
<!-- Node28&#45;&gt;Node14 -->
<g id="edge47_Node000028_Node000014" class="edge">
<title>Node28&#45;&gt;Node14</title>
<g id="a_edge47_Node000028_Node000014"><a xlink:title=" ">
<path fill="none" stroke="#63b8ff" d="M988.2,-254.31C968.85,-244.54 943.1,-231.25 920.75,-218.75 917.9,-217.16 914.95,-215.45 912.02,-213.73"/>
<polygon fill="#63b8ff" stroke="#63b8ff" points="914.09,-210.89 903.71,-208.76 910.5,-216.9 914.09,-210.89"/>
</a>
</g>
</g>
<!-- Node28&#45;&gt;Node15 -->
<g id="edge49_Node000028_Node000015" class="edge">
<title>Node28&#45;&gt;Node15</title>
<g id="a_edge49_Node000028_Node000015"><a xlink:title=" ">
<path fill="none" stroke="#63b8ff" d="M1006.78,-254.29C994.02,-235.23 976.54,-201.55 991.75,-177 1002.1,-160.29 1115.31,-109.67 1171.91,-85.13"/>
<polygon fill="#63b8ff" stroke="#63b8ff" points="1173.25,-88.36 1181.04,-81.18 1170.47,-81.94 1173.25,-88.36"/>
</a>
</g>
</g>
<!-- Node28&#45;&gt;Node16 -->
<g id="edge45_Node000028_Node000016" class="edge">
<title>Node28&#45;&gt;Node16</title>
<g id="a_edge45_Node000028_Node000016"><a xlink:title=" ">
<path fill="none" stroke="#63b8ff" d="M1067.57,-267.48C1146.32,-264.05 1294.55,-253.09 1332.75,-218.75 1388.08,-169 1413.98,-114.33 1368.75,-55.25 1352.81,-34.42 1280.19,-21.08 1236.78,-14.82"/>
<polygon fill="#63b8ff" stroke="#63b8ff" points="1237.53,-11.39 1227.15,-13.48 1236.57,-18.32 1237.53,-11.39"/>
</a>
</g>
</g>
<!-- Node28&#45;&gt;Node18 -->
<g id="edge50_Node000028_Node000018" class="edge">
<title>Node28&#45;&gt;Node18</title>
<g id="a_edge50_Node000028_Node000018"><a xlink:title=" ">
<path fill="none" stroke="#63b8ff" d="M967.67,-254.72C922.28,-241.78 856.15,-222.93 813.53,-210.79"/>
<polygon fill="#63b8ff" stroke="#63b8ff" points="814.74,-207.49 804.16,-208.11 812.82,-214.22 814.74,-207.49"/>
</a>
</g>
</g>
<!-- Node28&#45;&gt;Node23 -->
<g id="edge51_Node000028_Node000023" class="edge">
<title>Node28&#45;&gt;Node23</title>
<g id="a_edge51_Node000028_Node000023"><a xlink:title=" ">
<path fill="none" stroke="#63b8ff" d="M1067.59,-267.74C1142.52,-264.69 1278.77,-254.27 1309.75,-218.75 1340.77,-183.18 1329.67,-122.39 1321.06,-91.22"/>
<polygon fill="#63b8ff" stroke="#63b8ff" points="1324.5,-90.53 1318.29,-81.94 1317.79,-92.53 1324.5,-90.53"/>
</a>
</g>
</g>
<!-- Node29 -->
<g id="Node000029" class="node">
<title>Node29</title>
<g id="a_Node000029"><a xlink:title=" ">
<polygon fill="#e0e0e0" stroke="#999999" points="1162.5,-207.5 1001,-207.5 1001,-188.25 1162.5,-188.25 1162.5,-207.5"/>
<text text-anchor="middle" x="1081.75" y="-194" font-family="Helvetica,sans-Serif" font-size="10.00">CGAL/Delaunay_triangulation_2.h</text>
</a>
</g>
</g>
<!-- Node28&#45;&gt;Node29 -->
<g id="edge43_Node000028_Node000029" class="edge">
<title>Node28&#45;&gt;Node29</title>
<g id="a_edge43_Node000028_Node000029"><a xlink:title=" ">
<path fill="none" stroke="#63b8ff" d="M1031.01,-254.47C1041.28,-243.22 1055.53,-227.61 1066.31,-215.79"/>
<polygon fill="#63b8ff" stroke="#63b8ff" points="1068.58,-218.5 1072.74,-208.75 1063.41,-213.78 1068.58,-218.5"/>
</a>
</g>
</g>
<!-- Node30 -->
<g id="Node000030" class="node">
<title>Node30</title>
<g id="a_Node000030"><a xlink:title=" ">
<polygon fill="#e0e0e0" stroke="#999999" points="1300.88,-218.75 1180.62,-218.75 1180.62,-177 1300.88,-177 1300.88,-218.75"/>
<text text-anchor="start" x="1188.62" y="-205.25" font-family="Helvetica,sans-Serif" font-size="10.00">CGAL/Exact_predicates</text>
<text text-anchor="start" x="1188.62" y="-194" font-family="Helvetica,sans-Serif" font-size="10.00">_inexact_constructions</text>
<text text-anchor="middle" x="1240.75" y="-182.75" font-family="Helvetica,sans-Serif" font-size="10.00">_kernel.h</text>
</a>
</g>
</g>
<!-- Node28&#45;&gt;Node30 -->
<g id="edge44_Node000028_Node000030" class="edge">
<title>Node28&#45;&gt;Node30</title>
<g id="a_edge44_Node000028_Node000030"><a xlink:title=" ">
<path fill="none" stroke="#63b8ff" d="M1064.5,-254.3C1094.92,-244.73 1135.19,-232.07 1169.56,-221.26"/>
<polygon fill="#63b8ff" stroke="#63b8ff" points="1170.55,-224.62 1179.04,-218.28 1168.45,-217.94 1170.55,-224.62"/>
</a>
</g>
</g>
</g>
</svg>
