<?xml version="1.0" encoding="UTF-8" standalone="no"?>
<!DOCTYPE svg PUBLIC "-//W3C//DTD SVG 1.1//EN"
 "http://www.w3.org/Graphics/SVG/1.1/DTD/svg11.dtd">
<!-- Generated by graphviz version 9.0.0 (20230911.1827)
 -->
<!-- Title: src/planning/planning/src/communication/publisher.cpp Pages: 1 -->
<svg width="973pt" height="105pt"
 viewBox="0.00 0.00 973.38 105.00" xmlns="http://www.w3.org/2000/svg" xmlns:xlink="http://www.w3.org/1999/xlink">
<g id="graph0" class="graph" transform="scale(1 1) rotate(0) translate(4 101)">
<title>src/planning/planning/src/communication/publisher.cpp</title>
<!-- Node1 -->
<g id="Node000001" class="node">
<title>Node1</title>
<g id="a_Node000001"><a xlink:title=" ">
<polygon fill="#999999" stroke="#666666" points="496.38,-97 334.88,-97 334.88,-66.5 496.38,-66.5 496.38,-97"/>
<text text-anchor="start" x="342.88" y="-83.5" font-family="Helvetica,sans-Serif" font-size="10.00">src/planning/planning</text>
<text text-anchor="middle" x="415.62" y="-72.25" font-family="Helvetica,sans-Serif" font-size="10.00">/src/communication/publisher.cpp</text>
</a>
</g>
</g>
<!-- Node2 -->
<g id="Node000002" class="node">
<title>Node2</title>
<g id="a_Node000002"><a xlink:title=" ">
<polygon fill="#e0e0e0" stroke="#999999" points="147.25,-30.5 0,-30.5 0,0 147.25,0 147.25,-30.5"/>
<text text-anchor="start" x="8" y="-17" font-family="Helvetica,sans-Serif" font-size="10.00">ament_index_cpp/get</text>
<text text-anchor="middle" x="73.62" y="-5.75" font-family="Helvetica,sans-Serif" font-size="10.00">_package_share_directory.hpp</text>
</a>
</g>
</g>
<!-- Node1&#45;&gt;Node2 -->
<g id="edge1_Node000001_Node000002" class="edge">
<title>Node1&#45;&gt;Node2</title>
<g id="a_edge1_Node000001_Node000002"><a xlink:title=" ">
<path fill="none" stroke="#63b8ff" d="M337.59,-66.03C284.2,-55.96 213.43,-42.62 158.61,-32.28"/>
<polygon fill="#63b8ff" stroke="#63b8ff" points="159.48,-28.88 149,-30.47 158.18,-35.76 159.48,-28.88"/>
</a>
</g>
</g>
<!-- Node3 -->
<g id="Node000003" class="node">
<title>Node3</title>
<g id="a_Node000003"><a xlink:title=" ">
<polygon fill="#e0e0e0" stroke="#999999" points="223.62,-24.88 165.62,-24.88 165.62,-5.63 223.62,-5.63 223.62,-24.88"/>
<text text-anchor="middle" x="194.62" y="-11.38" font-family="Helvetica,sans-Serif" font-size="10.00">functional</text>
</a>
</g>
</g>
<!-- Node1&#45;&gt;Node3 -->
<g id="edge2_Node000001_Node000003" class="edge">
<title>Node1&#45;&gt;Node3</title>
<g id="a_edge2_Node000001_Node000003"><a xlink:title=" ">
<path fill="none" stroke="#63b8ff" d="M356.71,-66.02C320.64,-56.65 273.68,-43.81 232.62,-30.5 231.27,-30.06 229.89,-29.6 228.5,-29.13"/>
<polygon fill="#63b8ff" stroke="#63b8ff" points="229.84,-25.89 219.24,-25.84 227.49,-32.49 229.84,-25.89"/>
</a>
</g>
</g>
<!-- Node4 -->
<g id="Node000004" class="node">
<title>Node4</title>
<g id="a_Node000004"><a xlink:title=" ">
<polygon fill="#e0e0e0" stroke="#999999" points="291.88,-24.88 241.38,-24.88 241.38,-5.63 291.88,-5.63 291.88,-24.88"/>
<text text-anchor="middle" x="266.62" y="-11.38" font-family="Helvetica,sans-Serif" font-size="10.00">memory</text>
</a>
</g>
</g>
<!-- Node1&#45;&gt;Node4 -->
<g id="edge3_Node000001_Node000004" class="edge">
<title>Node1&#45;&gt;Node4</title>
<g id="a_edge3_Node000001_Node000004"><a xlink:title=" ">
<path fill="none" stroke="#63b8ff" d="M381.81,-66.11C356.65,-55.22 322.54,-40.46 297.98,-29.83"/>
<polygon fill="#63b8ff" stroke="#63b8ff" points="299.39,-26.62 288.83,-25.86 296.61,-33.05 299.39,-26.62"/>
</a>
</g>
</g>
<!-- Node5 -->
<g id="Node000005" class="node">
<title>Node5</title>
<g id="a_Node000005"><a xlink:title=" ">
<polygon fill="#e0e0e0" stroke="#999999" points="349.62,-24.88 309.62,-24.88 309.62,-5.63 349.62,-5.63 349.62,-24.88"/>
<text text-anchor="middle" x="329.62" y="-11.38" font-family="Helvetica,sans-Serif" font-size="10.00">string</text>
</a>
</g>
</g>
<!-- Node1&#45;&gt;Node5 -->
<g id="edge4_Node000001_Node000005" class="edge">
<title>Node1&#45;&gt;Node5</title>
<g id="a_edge4_Node000001_Node000005"><a xlink:title=" ">
<path fill="none" stroke="#63b8ff" d="M396.11,-66.11C382.42,-55.85 364.15,-42.14 350.22,-31.7"/>
<polygon fill="#63b8ff" stroke="#63b8ff" points="352.7,-29.18 342.6,-25.98 348.5,-34.78 352.7,-29.18"/>
</a>
</g>
</g>
<!-- Node6 -->
<g id="Node000006" class="node">
<title>Node6</title>
<g id="a_Node000006"><a xlink:title=" ">
<polygon fill="#e0e0e0" stroke="#999999" points="405.88,-24.88 367.38,-24.88 367.38,-5.63 405.88,-5.63 405.88,-24.88"/>
<text text-anchor="middle" x="386.62" y="-11.38" font-family="Helvetica,sans-Serif" font-size="10.00">utility</text>
</a>
</g>
</g>
<!-- Node1&#45;&gt;Node6 -->
<g id="edge5_Node000001_Node000006" class="edge">
<title>Node1&#45;&gt;Node6</title>
<g id="a_edge5_Node000001_Node000006"><a xlink:title=" ">
<path fill="none" stroke="#63b8ff" d="M409.04,-66.11C404.96,-57.03 399.67,-45.26 395.25,-35.43"/>
<polygon fill="#63b8ff" stroke="#63b8ff" points="398.51,-34.14 391.21,-26.45 392.12,-37.01 398.51,-34.14"/>
</a>
</g>
</g>
<!-- Node7 -->
<g id="Node000007" class="node">
<title>Node7</title>
<g id="a_Node000007"><a xlink:title=" ">
<polygon fill="#e0e0e0" stroke="#999999" points="467.12,-24.88 424.12,-24.88 424.12,-5.63 467.12,-5.63 467.12,-24.88"/>
<text text-anchor="middle" x="445.62" y="-11.38" font-family="Helvetica,sans-Serif" font-size="10.00">vector</text>
</a>
</g>
</g>
<!-- Node1&#45;&gt;Node7 -->
<g id="edge6_Node000001_Node000007" class="edge">
<title>Node1&#45;&gt;Node7</title>
<g id="a_edge6_Node000001_Node000007"><a xlink:title=" ">
<path fill="none" stroke="#63b8ff" d="M422.43,-66.11C426.66,-57.03 432.13,-45.26 436.7,-35.43"/>
<polygon fill="#63b8ff" stroke="#63b8ff" points="439.84,-36.99 440.88,-26.45 433.49,-34.04 439.84,-36.99"/>
</a>
</g>
</g>
<!-- Node8 -->
<g id="Node000008" class="node">
<title>Node8</title>
<g id="a_Node000008"><a xlink:title=" ">
<polygon fill="#e0e0e0" stroke="#999999" points="586,-30.5 485.25,-30.5 485.25,0 586,0 586,-30.5"/>
<text text-anchor="start" x="493.25" y="-17" font-family="Helvetica,sans-Serif" font-size="10.00">../../include/planning</text>
<text text-anchor="middle" x="535.62" y="-5.75" font-family="Helvetica,sans-Serif" font-size="10.00">/pathplanner.hpp</text>
</a>
</g>
</g>
<!-- Node1&#45;&gt;Node8 -->
<g id="edge7_Node000001_Node000008" class="edge">
<title>Node1&#45;&gt;Node8</title>
<g id="a_edge7_Node000001_Node000008"><a xlink:title=" ">
<path fill="none" stroke="#63b8ff" d="M442.85,-66.11C459.35,-57.25 480.61,-45.82 498.61,-36.14"/>
<polygon fill="#63b8ff" stroke="#63b8ff" points="500.02,-39.36 507.17,-31.54 496.7,-33.2 500.02,-39.36"/>
</a>
</g>
</g>
<!-- Node9 -->
<g id="Node000009" class="node">
<title>Node9</title>
<g id="a_Node000009"><a xlink:title=" ">
<polygon fill="#e0e0e0" stroke="#999999" points="721.62,-30.5 603.62,-30.5 603.62,0 721.62,0 721.62,-30.5"/>
<text text-anchor="start" x="611.62" y="-17" font-family="Helvetica,sans-Serif" font-size="10.00">custom_interfaces/msg</text>
<text text-anchor="middle" x="662.62" y="-5.75" font-family="Helvetica,sans-Serif" font-size="10.00">/point2d.hpp</text>
</a>
</g>
</g>
<!-- Node1&#45;&gt;Node9 -->
<g id="edge8_Node000001_Node000009" class="edge">
<title>Node1&#45;&gt;Node9</title>
<g id="a_edge8_Node000001_Node000009"><a xlink:title=" ">
<path fill="none" stroke="#63b8ff" d="M471.98,-66.03C508.81,-56.42 557.09,-43.81 595.85,-33.69"/>
<polygon fill="#63b8ff" stroke="#63b8ff" points="596.25,-37.2 605.05,-31.29 594.49,-30.43 596.25,-37.2"/>
</a>
</g>
</g>
<!-- Node10 -->
<g id="Node000010" class="node">
<title>Node10</title>
<g id="a_Node000010"><a xlink:title=" ">
<polygon fill="#e0e0e0" stroke="#999999" points="857.62,-30.5 739.62,-30.5 739.62,0 857.62,0 857.62,-30.5"/>
<text text-anchor="start" x="747.62" y="-17" font-family="Helvetica,sans-Serif" font-size="10.00">custom_interfaces/msg</text>
<text text-anchor="middle" x="798.62" y="-5.75" font-family="Helvetica,sans-Serif" font-size="10.00">/point_array.hpp</text>
</a>
</g>
</g>
<!-- Node1&#45;&gt;Node10 -->
<g id="edge9_Node000001_Node000010" class="edge">
<title>Node1&#45;&gt;Node10</title>
<g id="a_edge9_Node000001_Node000010"><a xlink:title=" ">
<path fill="none" stroke="#63b8ff" d="M496.74,-68.91C557.79,-59.75 643.8,-46.3 728.23,-30.89"/>
<polygon fill="#63b8ff" stroke="#63b8ff" points="728.63,-34.38 737.83,-29.13 727.36,-27.49 728.63,-34.38"/>
</a>
</g>
</g>
<!-- Node11 -->
<g id="Node000011" class="node">
<title>Node11</title>
<g id="a_Node000011"><a xlink:title=" ">
<polygon fill="#e0e0e0" stroke="#999999" points="965.38,-24.88 875.88,-24.88 875.88,-5.63 965.38,-5.63 965.38,-24.88"/>
<text text-anchor="middle" x="920.62" y="-11.38" font-family="Helvetica,sans-Serif" font-size="10.00">rclcpp/rclcpp.hpp</text>
</a>
</g>
</g>
<!-- Node1&#45;&gt;Node11 -->
<g id="edge10_Node000001_Node000011" class="edge">
<title>Node1&#45;&gt;Node11</title>
<g id="a_edge10_Node000001_Node000011"><a xlink:title=" ">
<path fill="none" stroke="#63b8ff" d="M496.81,-75.32C587.51,-68.41 738.45,-54.42 866.62,-30.5 870.46,-29.78 874.42,-28.94 878.38,-28.03"/>
<polygon fill="#63b8ff" stroke="#63b8ff" points="879.05,-31.47 887.92,-25.69 877.38,-24.67 879.05,-31.47"/>
</a>
</g>
</g>
</g>
</svg>
