<?xml version="1.0" encoding="UTF-8" standalone="no"?>
<!DOCTYPE svg PUBLIC "-//W3C//DTD SVG 1.1//EN"
 "http://www.w3.org/Graphics/SVG/1.1/DTD/svg11.dtd">
<!-- Generated by graphviz version 9.0.0 (20230911.1827)
 -->
<!-- Title: src/ros_can/include/ros_can.hpp Pages: 1 -->
<!--zoomable 160 -->

<svg id="main" version="1.1" xmlns="http://www.w3.org/2000/svg" xmlns:xlink="http://www.w3.org/1999/xlink" xml:space="preserve" onload="init(evt)">
<style type="text/css"><![CDATA[
.node, .edge {opacity: 0.7;}
.node.selected, .edge.selected {opacity: 1;}
.edge:hover path { stroke: red; }
.edge:hover polygon { stroke: red; fill: red; }
]]></style>

<defs>
  <circle id="rim" cx="0" cy="0" r="7"/>
  <circle id="rim2" cx="0" cy="0" r="3.5"/>
  <g id="zoomPlus">
    <use xlink:href="#rim" fill="#404040"><set attributeName="fill" to="#808080" begin="zoomplus.mouseover" end="zoomplus.mouseout"/></use>
    <path d="M-4,0h8M0,-4v8" fill="none" stroke="white" stroke-width="1.5" pointer-events="none"/>
  </g>
  <g id="zoomMin">
    <use xlink:href="#rim" fill="#404040"><set attributeName="fill" to="#808080" begin="zoomminus.mouseover" end="zoomminus.mouseout"/></use>
    <path d="M-4,0h8" fill="none" stroke="white" stroke-width="1.5" pointer-events="none"/>
  </g>
  <g id="arrowUp" transform="translate(30 24)">
    <use xlink:href="#rim"/>
    <path pointer-events="none" fill="none" stroke="white" stroke-width="1.5" d="M0,-3.0v7 M-2.5,-0.5L0,-3.0L2.5,-0.5"/>
  </g>
  <g id="arrowRight" transform="rotate(90) translate(36 -43)">
    <use xlink:href="#rim"/>
    <path pointer-events="none" fill="none" stroke="white" stroke-width="1.5" d="M0,-3.0v7 M-2.5,-0.5L0,-3.0L2.5,-0.5"/>
  </g>
  <g id="arrowDown" transform="rotate(180) translate(-30 -48)">
    <use xlink:href="#rim"/>
    <path pointer-events="none" fill="none" stroke="white" stroke-width="1.5" d="M0,-3.0v7 M-2.5,-0.5L0,-3.0L2.5,-0.5"/>
  </g>
  <g id="arrowLeft" transform="rotate(270) translate(-36 17)">
    <use xlink:href="#rim"/>
    <path pointer-events="none" fill="none" stroke="white" stroke-width="1.5" d="M0,-3.0v7 M-2.5,-0.5L0,-3.0L2.5,-0.5"/>
  </g>
  <g id="resetDef">
    <use xlink:href="#rim2" fill="#404040"><set attributeName="fill" to="#808080" begin="reset.mouseover" end="reset.mouseout"/></use>
  </g>
</defs>
<script type="application/ecmascript">
var viewWidth = 1880;
var viewHeight = 160;
var sectionId = 'dynsection-0';
</script>
<script type="application/ecmascript" xlink:href="svg.min.js"/>
<svg id="graph" class="graph">
<g id="viewport">
<title>src/ros_can/include/ros_can.hpp</title>
<!-- Node1 -->
<g id="Node000001" class="node">
<title>Node1</title>
<g id="a_Node000001"><a xlink:title=" ">
<polygon fill="#999999" stroke="#666666" points="1027.75,-152.25 927,-152.25 927,-121.75 1027.75,-121.75 1027.75,-152.25"/>
<text text-anchor="start" x="935" y="-138.75" font-family="Helvetica,sans-Serif" font-size="10.00">src/ros_can/include</text>
<text text-anchor="middle" x="977.38" y="-127.5" font-family="Helvetica,sans-Serif" font-size="10.00">/ros_can.hpp</text>
</a>
</g>
</g>
<!-- Node2 -->
<g id="Node000002" class="node">
<title>Node2</title>
<g id="a_Node000002"><a xlink:title=" ">
<polygon fill="#e0e0e0" stroke="#999999" points="136.75,-80.12 0,-80.12 0,-60.88 136.75,-60.88 136.75,-80.12"/>
<text text-anchor="middle" x="68.38" y="-66.62" font-family="Helvetica,sans-Serif" font-size="10.00">tf2/LinearMath/Quaternion.h</text>
</a>
</g>
</g>
<!-- Node1&#45;&gt;Node2 -->
<g id="edge1_Node000001_Node000002" class="edge">
<title>Node1&#45;&gt;Node2</title>
<g id="a_edge1_Node000001_Node000002"><a xlink:title=" ">
<path fill="none" stroke="#63b8ff" d="M926.53,-135.1C796.22,-132.32 439.83,-121.75 145.38,-85.75 138.21,-84.87 130.7,-83.75 123.3,-82.51"/>
<polygon fill="#63b8ff" stroke="#63b8ff" points="124.15,-79.11 113.7,-80.83 122.95,-86 124.15,-79.11"/>
</a>
</g>
</g>
<!-- Node3 -->
<g id="Node000003" class="node">
<title>Node3</title>
<g id="a_Node000003"><a xlink:title=" ">
<polygon fill="#e0e0e0" stroke="#999999" points="194.38,-80.12 154.38,-80.12 154.38,-60.88 194.38,-60.88 194.38,-80.12"/>
<text text-anchor="middle" x="174.38" y="-66.62" font-family="Helvetica,sans-Serif" font-size="10.00">string</text>
</a>
</g>
</g>
<!-- Node1&#45;&gt;Node3 -->
<g id="edge2_Node000001_Node000003" class="edge">
<title>Node1&#45;&gt;Node3</title>
<g id="a_edge2_Node000001_Node000003"><a xlink:title=" ">
<path fill="none" stroke="#63b8ff" d="M926.76,-135.28C777.44,-132.76 340.64,-122.38 203.38,-85.75 202.38,-85.48 201.38,-85.18 200.37,-84.85"/>
<polygon fill="#63b8ff" stroke="#63b8ff" points="201.87,-81.68 191.29,-81.09 199.19,-88.15 201.87,-81.68"/>
</a>
</g>
</g>
<!-- Node4 -->
<g id="Node000004" class="node">
<title>Node4</title>
<g id="a_Node000004"><a xlink:title=" ">
<polygon fill="#e0e0e0" stroke="#999999" points="366.38,-85.75 212.38,-85.75 212.38,-55.25 366.38,-55.25 366.38,-85.75"/>
<text text-anchor="start" x="220.38" y="-72.25" font-family="Helvetica,sans-Serif" font-size="10.00">ackermann_msgs/msg</text>
<text text-anchor="middle" x="289.38" y="-61" font-family="Helvetica,sans-Serif" font-size="10.00">/ackermann_drive_stamped.hpp</text>
</a>
</g>
</g>
<!-- Node1&#45;&gt;Node4 -->
<g id="edge3_Node000001_Node000004" class="edge">
<title>Node1&#45;&gt;Node4</title>
<g id="a_edge3_Node000001_Node000004"><a xlink:title=" ">
<path fill="none" stroke="#63b8ff" d="M926.89,-133.17C825.07,-127.17 587.64,-111.65 377.92,-86"/>
<polygon fill="#63b8ff" stroke="#63b8ff" points="378.54,-82.55 368.19,-84.8 377.69,-89.5 378.54,-82.55"/>
</a>
</g>
</g>
<!-- Node5 -->
<g id="Node000005" class="node">
<title>Node5</title>
<g id="a_Node000005"><a xlink:title=" ">
<polygon fill="#e0e0e0" stroke="#999999" points="534.12,-80.12 384.62,-80.12 384.62,-60.88 534.12,-60.88 534.12,-80.12"/>
<text text-anchor="middle" x="459.38" y="-66.62" font-family="Helvetica,sans-Serif" font-size="10.00">eufs_msgs/msg/can_state.hpp</text>
</a>
</g>
</g>
<!-- Node1&#45;&gt;Node5 -->
<g id="edge4_Node000001_Node000005" class="edge">
<title>Node1&#45;&gt;Node5</title>
<g id="a_edge4_Node000001_Node000005"><a xlink:title=" ">
<path fill="none" stroke="#63b8ff" d="M926.81,-131.02C845.74,-122.84 681.73,-105.48 543.38,-85.75 536.36,-84.75 529.03,-83.62 521.75,-82.46"/>
<polygon fill="#63b8ff" stroke="#63b8ff" points="522.32,-79 511.89,-80.84 521.19,-85.91 522.32,-79"/>
</a>
</g>
</g>
<!-- Node6 -->
<g id="Node000006" class="node">
<title>Node6</title>
<g id="a_Node000006"><a xlink:title=" ">
<polygon fill="#e0e0e0" stroke="#999999" points="682.38,-85.75 552.38,-85.75 552.38,-55.25 682.38,-55.25 682.38,-85.75"/>
<text text-anchor="start" x="560.38" y="-72.25" font-family="Helvetica,sans-Serif" font-size="10.00">eufs_msgs/msg/vehicle</text>
<text text-anchor="middle" x="617.38" y="-61" font-family="Helvetica,sans-Serif" font-size="10.00">_commands_stamped.hpp</text>
</a>
</g>
</g>
<!-- Node1&#45;&gt;Node6 -->
<g id="edge5_Node000001_Node000006" class="edge">
<title>Node1&#45;&gt;Node6</title>
<g id="a_edge5_Node000001_Node000006"><a xlink:title=" ">
<path fill="none" stroke="#63b8ff" d="M926.7,-127.35C871.85,-117.94 781.47,-102.26 693.95,-86.21"/>
<polygon fill="#63b8ff" stroke="#63b8ff" points="694.69,-82.79 684.22,-84.42 693.43,-89.67 694.69,-82.79"/>
</a>
</g>
</g>
<!-- Node7 -->
<g id="Node000007" class="node">
<title>Node7</title>
<g id="a_Node000007"><a xlink:title=" ">
<polygon fill="#e0e0e0" stroke="#999999" points="814.5,-85.75 700.25,-85.75 700.25,-55.25 814.5,-55.25 814.5,-85.75"/>
<text text-anchor="start" x="708.25" y="-72.25" font-family="Helvetica,sans-Serif" font-size="10.00">eufs_msgs/msg/wheel</text>
<text text-anchor="middle" x="757.38" y="-61" font-family="Helvetica,sans-Serif" font-size="10.00">_speeds_stamped.hpp</text>
</a>
</g>
</g>
<!-- Node1&#45;&gt;Node7 -->
<g id="edge6_Node000001_Node000007" class="edge">
<title>Node1&#45;&gt;Node7</title>
<g id="a_edge6_Node000001_Node000007"><a xlink:title=" ">
<path fill="none" stroke="#63b8ff" d="M927.18,-121.28C894.79,-111.79 852.47,-99.38 818.18,-89.33"/>
<polygon fill="#63b8ff" stroke="#63b8ff" points="819.39,-86.03 808.81,-86.58 817.42,-92.75 819.39,-86.03"/>
</a>
</g>
</g>
<!-- Node8 -->
<g id="Node000008" class="node">
<title>Node8</title>
<g id="a_Node000008"><a xlink:title=" ">
<polygon fill="#e0e0e0" stroke="#999999" points="984.62,-85.75 832.12,-85.75 832.12,-55.25 984.62,-55.25 984.62,-85.75"/>
<text text-anchor="start" x="840.12" y="-72.25" font-family="Helvetica,sans-Serif" font-size="10.00">geometry_msgs/msg/twist</text>
<text text-anchor="middle" x="908.38" y="-61" font-family="Helvetica,sans-Serif" font-size="10.00">_with_covariance_stamped.hpp</text>
</a>
</g>
</g>
<!-- Node1&#45;&gt;Node8 -->
<g id="edge7_Node000001_Node000008" class="edge">
<title>Node1&#45;&gt;Node8</title>
<g id="a_edge7_Node000001_Node000008"><a xlink:title=" ">
<path fill="none" stroke="#63b8ff" d="M961.72,-121.36C952.98,-113.2 941.93,-102.86 932.15,-93.72"/>
<polygon fill="#63b8ff" stroke="#63b8ff" points="934.77,-91.38 925.08,-87.11 929.99,-96.5 934.77,-91.38"/>
</a>
</g>
</g>
<!-- Node9 -->
<g id="Node000009" class="node">
<title>Node9</title>
<g id="a_Node000009"><a xlink:title=" ">
<polygon fill="#e0e0e0" stroke="#999999" points="1092.12,-80.12 1002.62,-80.12 1002.62,-60.88 1092.12,-60.88 1092.12,-80.12"/>
<text text-anchor="middle" x="1047.38" y="-66.62" font-family="Helvetica,sans-Serif" font-size="10.00">rclcpp/rclcpp.hpp</text>
</a>
</g>
</g>
<!-- Node1&#45;&gt;Node9 -->
<g id="edge8_Node000001_Node000009" class="edge">
<title>Node1&#45;&gt;Node9</title>
<g id="a_edge8_Node000001_Node000009"><a xlink:title=" ">
<path fill="none" stroke="#63b8ff" d="M993.26,-121.36C1004.08,-111.39 1018.42,-98.18 1029.62,-87.86"/>
<polygon fill="#63b8ff" stroke="#63b8ff" points="1031.7,-90.7 1036.69,-81.35 1026.96,-85.55 1031.7,-90.7"/>
</a>
</g>
</g>
<!-- Node10 -->
<g id="Node000010" class="node">
<title>Node10</title>
<g id="a_Node000010"><a xlink:title=" ">
<polygon fill="#e0e0e0" stroke="#999999" points="1242.88,-80.12 1109.88,-80.12 1109.88,-60.88 1242.88,-60.88 1242.88,-80.12"/>
<text text-anchor="middle" x="1176.38" y="-66.62" font-family="Helvetica,sans-Serif" font-size="10.00">sensor_msgs/msg/imu.hpp</text>
</a>
</g>
</g>
<!-- Node1&#45;&gt;Node10 -->
<g id="edge9_Node000001_Node000010" class="edge">
<title>Node1&#45;&gt;Node10</title>
<g id="a_edge9_Node000001_Node000010"><a xlink:title=" ">
<path fill="none" stroke="#63b8ff" d="M1022.53,-121.36C1057.25,-110.11 1104.71,-94.73 1137.69,-84.04"/>
<polygon fill="#63b8ff" stroke="#63b8ff" points="1138.41,-87.48 1146.85,-81.07 1136.26,-80.82 1138.41,-87.48"/>
</a>
</g>
</g>
<!-- Node11 -->
<g id="Node000011" class="node">
<title>Node11</title>
<g id="a_Node000011"><a xlink:title=" ">
<polygon fill="#e0e0e0" stroke="#999999" points="1375.88,-85.75 1260.88,-85.75 1260.88,-55.25 1375.88,-55.25 1375.88,-85.75"/>
<text text-anchor="start" x="1268.88" y="-72.25" font-family="Helvetica,sans-Serif" font-size="10.00">sensor_msgs/msg/nav</text>
<text text-anchor="middle" x="1318.38" y="-61" font-family="Helvetica,sans-Serif" font-size="10.00">_sat_fix.hpp</text>
</a>
</g>
</g>
<!-- Node1&#45;&gt;Node11 -->
<g id="edge10_Node000001_Node000011" class="edge">
<title>Node1&#45;&gt;Node11</title>
<g id="a_edge10_Node000001_Node000011"><a xlink:title=" ">
<path fill="none" stroke="#63b8ff" d="M1028.15,-127.22C1081.03,-117.97 1166.57,-102.69 1249.32,-86.33"/>
<polygon fill="#63b8ff" stroke="#63b8ff" points="1249.84,-89.79 1258.96,-84.41 1248.47,-82.93 1249.84,-89.79"/>
</a>
</g>
</g>
<!-- Node12 -->
<g id="Node000012" class="node">
<title>Node12</title>
<g id="a_Node000012"><a xlink:title=" ">
<polygon fill="#e0e0e0" stroke="#999999" points="1513.12,-80.12 1393.62,-80.12 1393.62,-60.88 1513.12,-60.88 1513.12,-80.12"/>
<text text-anchor="middle" x="1453.38" y="-66.62" font-family="Helvetica,sans-Serif" font-size="10.00">std_msgs/msg/bool.hpp</text>
</a>
</g>
</g>
<!-- Node1&#45;&gt;Node12 -->
<g id="edge11_Node000001_Node000012" class="edge">
<title>Node1&#45;&gt;Node12</title>
<g id="a_edge11_Node000001_Node000012"><a xlink:title=" ">
<path fill="none" stroke="#63b8ff" d="M1028.14,-131.13C1105.5,-123.4 1257.41,-107 1385.38,-85.75 1390.67,-84.87 1396.19,-83.87 1401.68,-82.81"/>
<polygon fill="#63b8ff" stroke="#63b8ff" points="1402.24,-86.26 1411.36,-80.87 1400.87,-79.4 1402.24,-86.26"/>
</a>
</g>
</g>
<!-- Node13 -->
<g id="Node000013" class="node">
<title>Node13</title>
<g id="a_Node000013"><a xlink:title=" ">
<polygon fill="#e0e0e0" stroke="#999999" points="1657.12,-80.12 1531.62,-80.12 1531.62,-60.88 1657.12,-60.88 1657.12,-80.12"/>
<text text-anchor="middle" x="1594.38" y="-66.62" font-family="Helvetica,sans-Serif" font-size="10.00">std_msgs/msg/string.hpp</text>
</a>
</g>
</g>
<!-- Node1&#45;&gt;Node13 -->
<g id="edge12_Node000001_Node000013" class="edge">
<title>Node1&#45;&gt;Node13</title>
<g id="a_edge12_Node000001_Node000013"><a xlink:title=" ">
<path fill="none" stroke="#63b8ff" d="M1027.92,-133.09C1124.41,-127.15 1341.35,-111.94 1522.38,-85.75 1528.44,-84.87 1534.78,-83.82 1541.06,-82.69"/>
<polygon fill="#63b8ff" stroke="#63b8ff" points="1541.57,-86.16 1550.75,-80.88 1540.28,-79.28 1541.57,-86.16"/>
</a>
</g>
</g>
<!-- Node14 -->
<g id="Node000014" class="node">
<title>Node14</title>
<g id="a_Node000014"><a xlink:title=" ">
<polygon fill="#e0e0e0" stroke="#999999" points="1793.38,-80.12 1675.38,-80.12 1675.38,-60.88 1793.38,-60.88 1793.38,-80.12"/>
<text text-anchor="middle" x="1734.38" y="-66.62" font-family="Helvetica,sans-Serif" font-size="10.00">std_srvs/srv/trigger.hpp</text>
</a>
</g>
</g>
<!-- Node1&#45;&gt;Node14 -->
<g id="edge13_Node000001_Node000014" class="edge">
<title>Node1&#45;&gt;Node14</title>
<g id="a_edge13_Node000001_Node000014"><a xlink:title=" ">
<path fill="none" stroke="#63b8ff" d="M1028.19,-134.62C1142.64,-131 1429.14,-119.11 1666.38,-85.75 1672.13,-84.94 1678.12,-83.93 1684.06,-82.83"/>
<polygon fill="#63b8ff" stroke="#63b8ff" points="1684.71,-86.27 1693.85,-80.91 1683.37,-79.4 1684.71,-86.27"/>
</a>
</g>
</g>
<!-- Node15 -->
<g id="Node000015" class="node">
<title>Node15</title>
<g id="a_Node000015"><a xlink:href="fs-ai__api_8h.html" target="_top" xlink:title=" ">
<polygon fill="white" stroke="#666666" points="1871.5,-80.12 1811.25,-80.12 1811.25,-60.88 1871.5,-60.88 1871.5,-80.12"/>
<text text-anchor="middle" x="1841.38" y="-66.62" font-family="Helvetica,sans-Serif" font-size="10.00">fs&#45;ai_api.h</text>
</a>
</g>
</g>
<!-- Node1&#45;&gt;Node15 -->
<g id="edge14_Node000001_Node000015" class="edge">
<title>Node1&#45;&gt;Node15</title>
<g id="a_edge14_Node000001_Node000015"><a xlink:title=" ">
<path fill="none" stroke="#63b8ff" d="M1028.09,-134.83C1183.76,-130.93 1653.21,-116.85 1802.38,-85.75 1804.69,-85.27 1807.05,-84.67 1809.41,-84.01"/>
<polygon fill="#63b8ff" stroke="#63b8ff" points="1810.38,-87.37 1818.8,-80.95 1808.21,-80.72 1810.38,-87.37"/>
</a>
</g>
</g>
<!-- Node16 -->
<g id="Node000016" class="node">
<title>Node16</title>
<g id="a_Node000016"><a xlink:title=" ">
<polygon fill="#e0e0e0" stroke="#999999" points="1865.12,-19.25 1817.62,-19.25 1817.62,0 1865.12,0 1865.12,-19.25"/>
<text text-anchor="middle" x="1841.38" y="-5.75" font-family="Helvetica,sans-Serif" font-size="10.00">stdint.h</text>
</a>
</g>
</g>
<!-- Node15&#45;&gt;Node16 -->
<g id="edge15_Node000015_Node000016" class="edge">
<title>Node15&#45;&gt;Node16</title>
<g id="a_edge15_Node000015_Node000016"><a xlink:title=" ">
<path fill="none" stroke="#63b8ff" d="M1841.38,-60.56C1841.38,-52.78 1841.38,-41.2 1841.38,-31.16"/>
<polygon fill="#63b8ff" stroke="#63b8ff" points="1844.88,-31.16 1841.38,-21.16 1837.88,-31.16 1844.88,-31.16"/>
</a>
</g>
</g>
</g>
</svg>

<g id="navigator" transform="translate(0 0)" fill="#404254">
  <rect fill="#f2f5e9" fill-opacity="0.5" stroke="#606060" stroke-width=".5" x="0" y="0" width="60" height="60"/>
  <use id="zoomplus" xlink:href="#zoomPlus" x="17" y="9" onmousedown="handleZoom(evt,'in')"/>
  <use id="zoomminus" xlink:href="#zoomMin" x="42" y="9" onmousedown="handleZoom(evt,'out')"/>
  <use id="reset" xlink:href="#resetDef" x="30" y="36" onmousedown="handleReset()"/>
   <use id="arrowup" xlink:href="#arrowUp" x="0" y="0" onmousedown="handlePan(0,-1)"/>
  <use id="arrowright" xlink:href="#arrowRight" x="0" y="0" onmousedown="handlePan(1,0)"/>
  <use id="arrowdown" xlink:href="#arrowDown" x="0" y="0" onmousedown="handlePan(0,1)"/>
  <use id="arrowleft" xlink:href="#arrowLeft" x="0" y="0" onmousedown="handlePan(-1,0)"/>
</g>
<svg viewBox="0 0 15 15" width="100%" height="30px" preserveAspectRatio="xMaxYMin meet">
 <g id="arrow_out" transform="scale(0.3 0.3)">
  <a xlink:href="ros__can_8hpp__incl_org.svg" target="_base">
   <rect id="button" ry="5" rx="5" y="6" x="6" height="38" width="38"
        fill="#f2f5e9" fill-opacity="0.5" stroke="#606060" stroke-width="1.0"/>
   <path id="arrow"
     d="M 11.500037,31.436501 C 11.940474,20.09759 22.043105,11.32322 32.158766,21.979434 L 37.068811,17.246167 C 37.068811,17.246167 37.088388,32 37.088388,32 L 22.160133,31.978069 C 22.160133,31.978069 26.997745,27.140456 26.997745,27.140456 C 18.528582,18.264221 13.291696,25.230495 11.500037,31.436501 z"
     style="fill:#404040;"/>
  </a>
 </g>
</svg>

<style type='text/css'>
<![CDATA[
[data-mouse-over-selected='false'] { opacity: 0.7; }
[data-mouse-over-selected='true']  { opacity: 1.0; }
]]>
</style>
<script type="application/ecmascript"><![CDATA[
document.addEventListener('DOMContentLoaded', (event) => {
  highlightEdges();
  highlightAdjacentNodes();
});
]]></script>
</svg>
