<?xml version="1.0" encoding="UTF-8" standalone="no"?>
<!DOCTYPE svg PUBLIC "-//W3C//DTD SVG 1.1//EN"
 "http://www.w3.org/Graphics/SVG/1.1/DTD/svg11.dtd">
<!-- Generated by graphviz version 9.0.0 (20230911.1827)
 -->
<!-- Title: src/ros_can/src/ros_can.cpp Pages: 1 -->
<!--zoomable 216 -->

<svg id="main" version="1.1" xmlns="http://www.w3.org/2000/svg" xmlns:xlink="http://www.w3.org/1999/xlink" xml:space="preserve" onload="init(evt)">
<style type="text/css"><![CDATA[
.node, .edge {opacity: 0.7;}
.node.selected, .edge.selected {opacity: 1;}
.edge:hover path { stroke: red; }
.edge:hover polygon { stroke: red; fill: red; }
]]></style>

<defs>
  <circle id="rim" cx="0" cy="0" r="7"/>
  <circle id="rim2" cx="0" cy="0" r="3.5"/>
  <g id="zoomPlus">
    <use xlink:href="#rim" fill="#404040"><set attributeName="fill" to="#808080" begin="zoomplus.mouseover" end="zoomplus.mouseout"/></use>
    <path d="M-4,0h8M0,-4v8" fill="none" stroke="white" stroke-width="1.5" pointer-events="none"/>
  </g>
  <g id="zoomMin">
    <use xlink:href="#rim" fill="#404040"><set attributeName="fill" to="#808080" begin="zoomminus.mouseover" end="zoomminus.mouseout"/></use>
    <path d="M-4,0h8" fill="none" stroke="white" stroke-width="1.5" pointer-events="none"/>
  </g>
  <g id="arrowUp" transform="translate(30 24)">
    <use xlink:href="#rim"/>
    <path pointer-events="none" fill="none" stroke="white" stroke-width="1.5" d="M0,-3.0v7 M-2.5,-0.5L0,-3.0L2.5,-0.5"/>
  </g>
  <g id="arrowRight" transform="rotate(90) translate(36 -43)">
    <use xlink:href="#rim"/>
    <path pointer-events="none" fill="none" stroke="white" stroke-width="1.5" d="M0,-3.0v7 M-2.5,-0.5L0,-3.0L2.5,-0.5"/>
  </g>
  <g id="arrowDown" transform="rotate(180) translate(-30 -48)">
    <use xlink:href="#rim"/>
    <path pointer-events="none" fill="none" stroke="white" stroke-width="1.5" d="M0,-3.0v7 M-2.5,-0.5L0,-3.0L2.5,-0.5"/>
  </g>
  <g id="arrowLeft" transform="rotate(270) translate(-36 17)">
    <use xlink:href="#rim"/>
    <path pointer-events="none" fill="none" stroke="white" stroke-width="1.5" d="M0,-3.0v7 M-2.5,-0.5L0,-3.0L2.5,-0.5"/>
  </g>
  <g id="resetDef">
    <use xlink:href="#rim2" fill="#404040"><set attributeName="fill" to="#808080" begin="reset.mouseover" end="reset.mouseout"/></use>
  </g>
</defs>
<script type="application/ecmascript">
var viewWidth = 1879;
var viewHeight = 216;
var sectionId = 'dynsection-0';
</script>
<script type="application/ecmascript" xlink:href="svg.min.js"/>
<svg id="graph" class="graph">
<g id="viewport">
<title>src/ros_can/src/ros_can.cpp</title>
<!-- Node1 -->
<g id="Node000001" class="node">
<title>Node1</title>
<g id="a_Node000001"><a xlink:title=" ">
<polygon fill="#999999" stroke="#666666" points="514,-207.5 414,-207.5 414,-177 514,-177 514,-207.5"/>
<text text-anchor="start" x="422" y="-194" font-family="Helvetica,sans-Serif" font-size="10.00">src/ros_can/src/ros</text>
<text text-anchor="middle" x="464" y="-182.75" font-family="Helvetica,sans-Serif" font-size="10.00">_can.cpp</text>
</a>
</g>
</g>
<!-- Node2 -->
<g id="Node000002" class="node">
<title>Node2</title>
<g id="a_Node000002"><a xlink:href="ros__can_8hpp.html" target="_top" xlink:title=" ">
<polygon fill="white" stroke="#666666" points="942.25,-141 873.75,-141 873.75,-121.75 942.25,-121.75 942.25,-141"/>
<text text-anchor="middle" x="908" y="-127.5" font-family="Helvetica,sans-Serif" font-size="10.00">ros_can.hpp</text>
</a>
</g>
</g>
<!-- Node1&#45;&gt;Node2 -->
<g id="edge1_Node000001_Node000002" class="edge">
<title>Node1&#45;&gt;Node2</title>
<g id="a_edge1_Node000001_Node000002"><a xlink:title=" ">
<path fill="none" stroke="#63b8ff" d="M514.07,-184.61C600.93,-173.09 778.26,-149.58 862.11,-138.46"/>
<polygon fill="#63b8ff" stroke="#63b8ff" points="862.35,-141.96 871.81,-137.17 861.43,-135.02 862.35,-141.96"/>
</a>
</g>
</g>
<!-- Node4 -->
<g id="Node000004" class="node">
<title>Node4</title>
<g id="a_Node000004"><a xlink:title=" ">
<polygon fill="#e0e0e0" stroke="#999999" points="40,-80.12 0,-80.12 0,-60.88 40,-60.88 40,-80.12"/>
<text text-anchor="middle" x="20" y="-66.62" font-family="Helvetica,sans-Serif" font-size="10.00">string</text>
</a>
</g>
</g>
<!-- Node1&#45;&gt;Node4 -->
<g id="edge17_Node000001_Node000004" class="edge">
<title>Node1&#45;&gt;Node4</title>
<g id="a_edge17_Node000001_Node000004"><a xlink:title=" ">
<path fill="none" stroke="#63b8ff" d="M413.8,-182C334.73,-166.66 177.01,-132.89 49,-85.75 48.37,-85.52 47.75,-85.28 47.11,-85.03"/>
<polygon fill="#63b8ff" stroke="#63b8ff" points="48.86,-81.98 38.3,-81.15 46.04,-88.39 48.86,-81.98"/>
</a>
</g>
</g>
<!-- Node3 -->
<g id="Node000003" class="node">
<title>Node3</title>
<g id="a_Node000003"><a xlink:title=" ">
<polygon fill="#e0e0e0" stroke="#999999" points="194.38,-80.12 57.62,-80.12 57.62,-60.88 194.38,-60.88 194.38,-80.12"/>
<text text-anchor="middle" x="126" y="-66.62" font-family="Helvetica,sans-Serif" font-size="10.00">tf2/LinearMath/Quaternion.h</text>
</a>
</g>
</g>
<!-- Node2&#45;&gt;Node3 -->
<g id="edge2_Node000002_Node000003" class="edge">
<title>Node2&#45;&gt;Node3</title>
<g id="a_edge2_Node000002_Node000003"><a xlink:title=" ">
<path fill="none" stroke="#63b8ff" d="M873.38,-129.65C770.74,-127.19 459.21,-117.45 203,-85.75 195.83,-84.86 188.32,-83.73 180.92,-82.49"/>
<polygon fill="#63b8ff" stroke="#63b8ff" points="181.78,-79.09 171.33,-80.81 180.57,-85.98 181.78,-79.09"/>
</a>
</g>
</g>
<!-- Node2&#45;&gt;Node4 -->
<g id="edge3_Node000002_Node000004" class="edge">
<title>Node2&#45;&gt;Node4</title>
<g id="a_edge3_Node000002_Node000004"><a xlink:title=" ">
<path fill="none" stroke="#63b8ff" d="M873.38,-129.4C722.91,-125.05 129.67,-106.72 49,-85.75 48,-85.49 47,-85.2 45.99,-84.87"/>
<polygon fill="#63b8ff" stroke="#63b8ff" points="47.48,-81.7 36.91,-81.13 44.82,-88.17 47.48,-81.7"/>
</a>
</g>
</g>
<!-- Node5 -->
<g id="Node000005" class="node">
<title>Node5</title>
<g id="a_Node000005"><a xlink:title=" ">
<polygon fill="#e0e0e0" stroke="#999999" points="366,-85.75 212,-85.75 212,-55.25 366,-55.25 366,-85.75"/>
<text text-anchor="start" x="220" y="-72.25" font-family="Helvetica,sans-Serif" font-size="10.00">ackermann_msgs/msg</text>
<text text-anchor="middle" x="289" y="-61" font-family="Helvetica,sans-Serif" font-size="10.00">/ackermann_drive_stamped.hpp</text>
</a>
</g>
</g>
<!-- Node2&#45;&gt;Node5 -->
<g id="edge4_Node000002_Node000005" class="edge">
<title>Node2&#45;&gt;Node5</title>
<g id="a_edge4_Node000002_Node000005"><a xlink:title=" ">
<path fill="none" stroke="#63b8ff" d="M873.29,-128.44C789.78,-123.58 570.84,-109.61 377.54,-86"/>
<polygon fill="#63b8ff" stroke="#63b8ff" points="378.17,-82.55 367.81,-84.8 377.31,-89.5 378.17,-82.55"/>
</a>
</g>
</g>
<!-- Node6 -->
<g id="Node000006" class="node">
<title>Node6</title>
<g id="a_Node000006"><a xlink:title=" ">
<polygon fill="#e0e0e0" stroke="#999999" points="533.75,-80.12 384.25,-80.12 384.25,-60.88 533.75,-60.88 533.75,-80.12"/>
<text text-anchor="middle" x="459" y="-66.62" font-family="Helvetica,sans-Serif" font-size="10.00">eufs_msgs/msg/can_state.hpp</text>
</a>
</g>
</g>
<!-- Node2&#45;&gt;Node6 -->
<g id="edge5_Node000002_Node000006" class="edge">
<title>Node2&#45;&gt;Node6</title>
<g id="a_edge5_Node000002_Node000006"><a xlink:title=" ">
<path fill="none" stroke="#63b8ff" d="M873.46,-126.69C808.58,-119.66 664.13,-103.42 543,-85.75 536.08,-84.74 528.86,-83.62 521.68,-82.46"/>
<polygon fill="#63b8ff" stroke="#63b8ff" points="522.4,-79.03 511.96,-80.87 521.27,-85.94 522.4,-79.03"/>
</a>
</g>
</g>
<!-- Node7 -->
<g id="Node000007" class="node">
<title>Node7</title>
<g id="a_Node000007"><a xlink:title=" ">
<polygon fill="#e0e0e0" stroke="#999999" points="682,-85.75 552,-85.75 552,-55.25 682,-55.25 682,-85.75"/>
<text text-anchor="start" x="560" y="-72.25" font-family="Helvetica,sans-Serif" font-size="10.00">eufs_msgs/msg/vehicle</text>
<text text-anchor="middle" x="617" y="-61" font-family="Helvetica,sans-Serif" font-size="10.00">_commands_stamped.hpp</text>
</a>
</g>
</g>
<!-- Node2&#45;&gt;Node7 -->
<g id="edge6_Node000002_Node000007" class="edge">
<title>Node2&#45;&gt;Node7</title>
<g id="a_edge6_Node000002_Node000007"><a xlink:title=" ">
<path fill="none" stroke="#63b8ff" d="M873.48,-123.39C829.35,-114.46 751.69,-98.75 693.35,-86.95"/>
<polygon fill="#63b8ff" stroke="#63b8ff" points="694.31,-83.57 683.81,-85.02 692.92,-90.43 694.31,-83.57"/>
</a>
</g>
</g>
<!-- Node8 -->
<g id="Node000008" class="node">
<title>Node8</title>
<g id="a_Node000008"><a xlink:title=" ">
<polygon fill="#e0e0e0" stroke="#999999" points="814.12,-85.75 699.88,-85.75 699.88,-55.25 814.12,-55.25 814.12,-85.75"/>
<text text-anchor="start" x="707.88" y="-72.25" font-family="Helvetica,sans-Serif" font-size="10.00">eufs_msgs/msg/wheel</text>
<text text-anchor="middle" x="757" y="-61" font-family="Helvetica,sans-Serif" font-size="10.00">_speeds_stamped.hpp</text>
</a>
</g>
</g>
<!-- Node2&#45;&gt;Node8 -->
<g id="edge7_Node000002_Node000008" class="edge">
<title>Node2&#45;&gt;Node8</title>
<g id="a_edge7_Node000002_Node000008"><a xlink:title=" ">
<path fill="none" stroke="#63b8ff" d="M884.74,-121.3C863.65,-113.08 831.9,-100.7 805.33,-90.35"/>
<polygon fill="#63b8ff" stroke="#63b8ff" points="806.69,-87.12 796.1,-86.74 804.14,-93.64 806.69,-87.12"/>
</a>
</g>
</g>
<!-- Node9 -->
<g id="Node000009" class="node">
<title>Node9</title>
<g id="a_Node000009"><a xlink:title=" ">
<polygon fill="#e0e0e0" stroke="#999999" points="984.25,-85.75 831.75,-85.75 831.75,-55.25 984.25,-55.25 984.25,-85.75"/>
<text text-anchor="start" x="839.75" y="-72.25" font-family="Helvetica,sans-Serif" font-size="10.00">geometry_msgs/msg/twist</text>
<text text-anchor="middle" x="908" y="-61" font-family="Helvetica,sans-Serif" font-size="10.00">_with_covariance_stamped.hpp</text>
</a>
</g>
</g>
<!-- Node2&#45;&gt;Node9 -->
<g id="edge8_Node000002_Node000009" class="edge">
<title>Node2&#45;&gt;Node9</title>
<g id="a_edge8_Node000002_Node000009"><a xlink:title=" ">
<path fill="none" stroke="#63b8ff" d="M908,-121.43C908,-114.98 908,-105.91 908,-97.26"/>
<polygon fill="#63b8ff" stroke="#63b8ff" points="911.5,-97.55 908,-87.55 904.5,-97.55 911.5,-97.55"/>
</a>
</g>
</g>
<!-- Node10 -->
<g id="Node000010" class="node">
<title>Node10</title>
<g id="a_Node000010"><a xlink:title=" ">
<polygon fill="#e0e0e0" stroke="#999999" points="1091.75,-80.12 1002.25,-80.12 1002.25,-60.88 1091.75,-60.88 1091.75,-80.12"/>
<text text-anchor="middle" x="1047" y="-66.62" font-family="Helvetica,sans-Serif" font-size="10.00">rclcpp/rclcpp.hpp</text>
</a>
</g>
</g>
<!-- Node2&#45;&gt;Node10 -->
<g id="edge9_Node000002_Node000010" class="edge">
<title>Node2&#45;&gt;Node10</title>
<g id="a_edge9_Node000002_Node000010"><a xlink:title=" ">
<path fill="none" stroke="#63b8ff" d="M929.41,-121.3C952.34,-111.6 988.95,-96.09 1015.23,-84.96"/>
<polygon fill="#63b8ff" stroke="#63b8ff" points="1016.55,-88.2 1024.4,-81.07 1013.82,-81.75 1016.55,-88.2"/>
</a>
</g>
</g>
<!-- Node11 -->
<g id="Node000011" class="node">
<title>Node11</title>
<g id="a_Node000011"><a xlink:title=" ">
<polygon fill="#e0e0e0" stroke="#999999" points="1242.5,-80.12 1109.5,-80.12 1109.5,-60.88 1242.5,-60.88 1242.5,-80.12"/>
<text text-anchor="middle" x="1176" y="-66.62" font-family="Helvetica,sans-Serif" font-size="10.00">sensor_msgs/msg/imu.hpp</text>
</a>
</g>
</g>
<!-- Node2&#45;&gt;Node11 -->
<g id="edge10_Node000002_Node000011" class="edge">
<title>Node2&#45;&gt;Node11</title>
<g id="a_edge10_Node000002_Node000011"><a xlink:title=" ">
<path fill="none" stroke="#63b8ff" d="M942.49,-122.8C988.42,-112.71 1070.08,-94.77 1123.64,-83"/>
<polygon fill="#63b8ff" stroke="#63b8ff" points="1124.12,-86.48 1133.14,-80.92 1122.62,-79.64 1124.12,-86.48"/>
</a>
</g>
</g>
<!-- Node12 -->
<g id="Node000012" class="node">
<title>Node12</title>
<g id="a_Node000012"><a xlink:title=" ">
<polygon fill="#e0e0e0" stroke="#999999" points="1375.5,-85.75 1260.5,-85.75 1260.5,-55.25 1375.5,-55.25 1375.5,-85.75"/>
<text text-anchor="start" x="1268.5" y="-72.25" font-family="Helvetica,sans-Serif" font-size="10.00">sensor_msgs/msg/nav</text>
<text text-anchor="middle" x="1318" y="-61" font-family="Helvetica,sans-Serif" font-size="10.00">_sat_fix.hpp</text>
</a>
</g>
</g>
<!-- Node2&#45;&gt;Node12 -->
<g id="edge11_Node000002_Node000012" class="edge">
<title>Node2&#45;&gt;Node12</title>
<g id="a_edge11_Node000002_Node000012"><a xlink:title=" ">
<path fill="none" stroke="#63b8ff" d="M942.32,-126.88C1002.49,-120.56 1131.14,-106.11 1249.09,-86.17"/>
<polygon fill="#63b8ff" stroke="#63b8ff" points="1249.35,-89.68 1258.61,-84.54 1248.17,-82.78 1249.35,-89.68"/>
</a>
</g>
</g>
<!-- Node13 -->
<g id="Node000013" class="node">
<title>Node13</title>
<g id="a_Node000013"><a xlink:title=" ">
<polygon fill="#e0e0e0" stroke="#999999" points="1512.75,-80.12 1393.25,-80.12 1393.25,-60.88 1512.75,-60.88 1512.75,-80.12"/>
<text text-anchor="middle" x="1453" y="-66.62" font-family="Helvetica,sans-Serif" font-size="10.00">std_msgs/msg/bool.hpp</text>
</a>
</g>
</g>
<!-- Node2&#45;&gt;Node13 -->
<g id="edge12_Node000002_Node000013" class="edge">
<title>Node2&#45;&gt;Node13</title>
<g id="a_edge12_Node000002_Node000013"><a xlink:title=" ">
<path fill="none" stroke="#63b8ff" d="M942.58,-128.49C1021.4,-123.89 1220.31,-110.63 1385,-85.75 1390.6,-84.9 1396.43,-83.89 1402.21,-82.8"/>
<polygon fill="#63b8ff" stroke="#63b8ff" points="1402.61,-86.29 1411.74,-80.92 1401.25,-79.42 1402.61,-86.29"/>
</a>
</g>
</g>
<!-- Node14 -->
<g id="Node000014" class="node">
<title>Node14</title>
<g id="a_Node000014"><a xlink:title=" ">
<polygon fill="#e0e0e0" stroke="#999999" points="1656.75,-80.12 1531.25,-80.12 1531.25,-60.88 1656.75,-60.88 1656.75,-80.12"/>
<text text-anchor="middle" x="1594" y="-66.62" font-family="Helvetica,sans-Serif" font-size="10.00">std_msgs/msg/string.hpp</text>
</a>
</g>
</g>
<!-- Node2&#45;&gt;Node14 -->
<g id="edge13_Node000002_Node000014" class="edge">
<title>Node2&#45;&gt;Node14</title>
<g id="a_edge13_Node000002_Node000014"><a xlink:title=" ">
<path fill="none" stroke="#63b8ff" d="M942.44,-129.36C1035.98,-126.27 1302.48,-115.34 1522,-85.75 1528.39,-84.89 1535.07,-83.81 1541.67,-82.64"/>
<polygon fill="#63b8ff" stroke="#63b8ff" points="1541.97,-86.14 1551.16,-80.87 1540.69,-79.26 1541.97,-86.14"/>
</a>
</g>
</g>
<!-- Node15 -->
<g id="Node000015" class="node">
<title>Node15</title>
<g id="a_Node000015"><a xlink:title=" ">
<polygon fill="#e0e0e0" stroke="#999999" points="1793,-80.12 1675,-80.12 1675,-60.88 1793,-60.88 1793,-80.12"/>
<text text-anchor="middle" x="1734" y="-66.62" font-family="Helvetica,sans-Serif" font-size="10.00">std_srvs/srv/trigger.hpp</text>
</a>
</g>
</g>
<!-- Node2&#45;&gt;Node15 -->
<g id="edge14_Node000002_Node000015" class="edge">
<title>Node2&#45;&gt;Node15</title>
<g id="a_edge14_Node000002_Node000015"><a xlink:title=" ">
<path fill="none" stroke="#63b8ff" d="M942.55,-130.15C1050.15,-129.08 1388.66,-122.77 1666,-85.75 1672.05,-84.94 1678.37,-83.9 1684.61,-82.74"/>
<polygon fill="#63b8ff" stroke="#63b8ff" points="1685.07,-86.22 1694.21,-80.85 1683.72,-79.35 1685.07,-86.22"/>
</a>
</g>
</g>
<!-- Node16 -->
<g id="Node000016" class="node">
<title>Node16</title>
<g id="a_Node000016"><a xlink:href="fs-ai__api_8h.html" target="_top" xlink:title=" ">
<polygon fill="white" stroke="#666666" points="1871.12,-80.12 1810.88,-80.12 1810.88,-60.88 1871.12,-60.88 1871.12,-80.12"/>
<text text-anchor="middle" x="1841" y="-66.62" font-family="Helvetica,sans-Serif" font-size="10.00">fs&#45;ai_api.h</text>
</a>
</g>
</g>
<!-- Node2&#45;&gt;Node16 -->
<g id="edge15_Node000002_Node000016" class="edge">
<title>Node2&#45;&gt;Node16</title>
<g id="a_edge15_Node000002_Node000016"><a xlink:title=" ">
<path fill="none" stroke="#63b8ff" d="M942.66,-130.03C1086.03,-128.4 1633.14,-120 1802,-85.75 1804.32,-85.28 1806.68,-84.7 1809.04,-84.04"/>
<polygon fill="#63b8ff" stroke="#63b8ff" points="1810,-87.4 1818.44,-80.99 1807.85,-80.74 1810,-87.4"/>
</a>
</g>
</g>
<!-- Node17 -->
<g id="Node000017" class="node">
<title>Node17</title>
<g id="a_Node000017"><a xlink:title=" ">
<polygon fill="#e0e0e0" stroke="#999999" points="1864.75,-19.25 1817.25,-19.25 1817.25,0 1864.75,0 1864.75,-19.25"/>
<text text-anchor="middle" x="1841" y="-5.75" font-family="Helvetica,sans-Serif" font-size="10.00">stdint.h</text>
</a>
</g>
</g>
<!-- Node16&#45;&gt;Node17 -->
<g id="edge16_Node000016_Node000017" class="edge">
<title>Node16&#45;&gt;Node17</title>
<g id="a_edge16_Node000016_Node000017"><a xlink:title=" ">
<path fill="none" stroke="#63b8ff" d="M1841,-60.56C1841,-52.78 1841,-41.2 1841,-31.16"/>
<polygon fill="#63b8ff" stroke="#63b8ff" points="1844.5,-31.16 1841,-21.16 1837.5,-31.16 1844.5,-31.16"/>
</a>
</g>
</g>
</g>
</svg>

<g id="navigator" transform="translate(0 0)" fill="#404254">
  <rect fill="#f2f5e9" fill-opacity="0.5" stroke="#606060" stroke-width=".5" x="0" y="0" width="60" height="60"/>
  <use id="zoomplus" xlink:href="#zoomPlus" x="17" y="9" onmousedown="handleZoom(evt,'in')"/>
  <use id="zoomminus" xlink:href="#zoomMin" x="42" y="9" onmousedown="handleZoom(evt,'out')"/>
  <use id="reset" xlink:href="#resetDef" x="30" y="36" onmousedown="handleReset()"/>
   <use id="arrowup" xlink:href="#arrowUp" x="0" y="0" onmousedown="handlePan(0,-1)"/>
  <use id="arrowright" xlink:href="#arrowRight" x="0" y="0" onmousedown="handlePan(1,0)"/>
  <use id="arrowdown" xlink:href="#arrowDown" x="0" y="0" onmousedown="handlePan(0,1)"/>
  <use id="arrowleft" xlink:href="#arrowLeft" x="0" y="0" onmousedown="handlePan(-1,0)"/>
</g>
<svg viewBox="0 0 15 15" width="100%" height="30px" preserveAspectRatio="xMaxYMin meet">
 <g id="arrow_out" transform="scale(0.3 0.3)">
  <a xlink:href="ros__can_8cpp__incl_org.svg" target="_base">
   <rect id="button" ry="5" rx="5" y="6" x="6" height="38" width="38"
        fill="#f2f5e9" fill-opacity="0.5" stroke="#606060" stroke-width="1.0"/>
   <path id="arrow"
     d="M 11.500037,31.436501 C 11.940474,20.09759 22.043105,11.32322 32.158766,21.979434 L 37.068811,17.246167 C 37.068811,17.246167 37.088388,32 37.088388,32 L 22.160133,31.978069 C 22.160133,31.978069 26.997745,27.140456 26.997745,27.140456 C 18.528582,18.264221 13.291696,25.230495 11.500037,31.436501 z"
     style="fill:#404040;"/>
  </a>
 </g>
</svg>

<style type='text/css'>
<![CDATA[
[data-mouse-over-selected='false'] { opacity: 0.7; }
[data-mouse-over-selected='true']  { opacity: 1.0; }
]]>
</style>
<script type="application/ecmascript"><![CDATA[
document.addEventListener('DOMContentLoaded', (event) => {
  highlightEdges();
  highlightAdjacentNodes();
});
]]></script>
</svg>
