<?xml version="1.0" encoding="UTF-8" standalone="no"?>
<!DOCTYPE svg PUBLIC "-//W3C//DTD SVG 1.1//EN"
 "http://www.w3.org/Graphics/SVG/1.1/DTD/svg11.dtd">
<!-- Generated by graphviz version 9.0.0 (20230911.1827)
 -->
<!-- Title: fs_ai_api_ai2vcu_struct Pages: 1 -->
<svg width="120pt" height="162pt"
 viewBox="0.00 0.00 120.00 162.00" xmlns="http://www.w3.org/2000/svg" xmlns:xlink="http://www.w3.org/1999/xlink">
<g id="graph0" class="graph" transform="scale(1 1) rotate(0) translate(4 158)">
<title>fs_ai_api_ai2vcu_struct</title>
<!-- Node1 -->
<g id="Node000001" class="node">
<title>Node1</title>
<g id="a_Node000001"><a xlink:title=" ">
<polygon fill="#999999" stroke="none" points="112,-154 0,-154 0,0 112,0 112,-154"/>
<text text-anchor="start" x="4.62" y="-140.5" font-family="Helvetica,sans-Serif" font-size="10.00">fs_ai_api_ai2vcu_struct</text>
<text text-anchor="start" x="54.5" y="-125.5" font-family="Helvetica,sans-Serif" font-size="10.00"> </text>
<text text-anchor="start" x="16.5" y="-110.5" font-family="Helvetica,sans-Serif" font-size="10.00">+</text>
<text text-anchor="start" x="39" y="-110.5" font-family="Helvetica,sans-Serif" font-size="10.00">_Alignas()</text>
<text text-anchor="start" x="16.5" y="-95.5" font-family="Helvetica,sans-Serif" font-size="10.00">+</text>
<text text-anchor="start" x="39" y="-95.5" font-family="Helvetica,sans-Serif" font-size="10.00">_Alignas()</text>
<text text-anchor="start" x="16.5" y="-80.5" font-family="Helvetica,sans-Serif" font-size="10.00">+</text>
<text text-anchor="start" x="39" y="-80.5" font-family="Helvetica,sans-Serif" font-size="10.00">_Alignas()</text>
<text text-anchor="start" x="16.5" y="-65.5" font-family="Helvetica,sans-Serif" font-size="10.00">+</text>
<text text-anchor="start" x="39" y="-65.5" font-family="Helvetica,sans-Serif" font-size="10.00">_Alignas()</text>
<text text-anchor="start" x="16.5" y="-50.5" font-family="Helvetica,sans-Serif" font-size="10.00">+</text>
<text text-anchor="start" x="39" y="-50.5" font-family="Helvetica,sans-Serif" font-size="10.00">_Alignas()</text>
<text text-anchor="start" x="16.5" y="-35.5" font-family="Helvetica,sans-Serif" font-size="10.00">+</text>
<text text-anchor="start" x="39" y="-35.5" font-family="Helvetica,sans-Serif" font-size="10.00">_Alignas()</text>
<text text-anchor="start" x="16.5" y="-20.5" font-family="Helvetica,sans-Serif" font-size="10.00">+</text>
<text text-anchor="start" x="39" y="-20.5" font-family="Helvetica,sans-Serif" font-size="10.00">_Alignas()</text>
<text text-anchor="start" x="16.5" y="-5.5" font-family="Helvetica,sans-Serif" font-size="10.00">+</text>
<text text-anchor="start" x="39" y="-5.5" font-family="Helvetica,sans-Serif" font-size="10.00">_Alignas()</text>
<polygon fill="#666666" stroke="#666666" points="0,-137 0,-137 112,-137 112,-137 0,-137"/>
<polygon fill="#666666" stroke="#666666" points="0,-122 0,-122 112,-122 112,-122 0,-122"/>
<polygon fill="none" stroke="#666666" points="0,0 0,-154 112,-154 112,0 0,0"/>
</a>
</g>
</g>
</g>
</svg>
