<?xml version="1.0" encoding="UTF-8" standalone="no"?>
<!DOCTYPE svg PUBLIC "-//W3C//DTD SVG 1.1//EN"
 "http://www.w3.org/Graphics/SVG/1.1/DTD/svg11.dtd">
<!-- Generated by graphviz version 9.0.0 (20230911.1827)
 -->
<!-- Title: Position::operator== Pages: 1 -->
<svg width="223pt" height="64pt"
 viewBox="0.00 0.00 223.00 64.25" xmlns="http://www.w3.org/2000/svg" xmlns:xlink="http://www.w3.org/1999/xlink">
<g id="graph0" class="graph" transform="scale(1 1) rotate(0) translate(4 60.25)">
<title>Position::operator==</title>
<!-- Node1 -->
<g id="Node000001" class="node">
<title>Node1</title>
<g id="a_Node000001"><a xlink:title=" ">
<polygon fill="#999999" stroke="#666666" points="103,-37.25 0,-37.25 0,-18 103,-18 103,-37.25"/>
<text text-anchor="middle" x="51.5" y="-23.75" font-family="Helvetica,sans-Serif" font-size="10.00">Position::operator==</text>
</a>
</g>
</g>
<!-- Node2 -->
<g id="Node000002" class="node">
<title>Node2</title>
<g id="a_Node000002"><a xlink:href="structPosition.html#a252efaf275c7276a6f35338d198de7ee" target="_top" xlink:title=" ">
<polygon fill="white" stroke="#666666" points="215,-56.25 139,-56.25 139,-37 215,-37 215,-56.25"/>
<text text-anchor="middle" x="177" y="-42.75" font-family="Helvetica,sans-Serif" font-size="10.00">Position::getX</text>
</a>
</g>
</g>
<!-- Node1&#45;&gt;Node2 -->
<g id="edge1_Node000001_Node000002" class="edge">
<title>Node1&#45;&gt;Node2</title>
<g id="a_edge1_Node000001_Node000002"><a xlink:title=" ">
<path fill="none" stroke="#63b8ff" d="M103.45,-35.46C111.39,-36.69 119.58,-37.95 127.47,-39.16"/>
<polygon fill="#63b8ff" stroke="#63b8ff" points="126.84,-42.6 137.26,-40.66 127.91,-35.68 126.84,-42.6"/>
</a>
</g>
</g>
<!-- Node3 -->
<g id="Node000003" class="node">
<title>Node3</title>
<g id="a_Node000003"><a xlink:href="structPosition.html#a53ad8ec2f8383db4d615b3fc4e888f77" target="_top" xlink:title=" ">
<polygon fill="white" stroke="#666666" points="215,-19.25 139,-19.25 139,0 215,0 215,-19.25"/>
<text text-anchor="middle" x="177" y="-5.75" font-family="Helvetica,sans-Serif" font-size="10.00">Position::getY</text>
</a>
</g>
</g>
<!-- Node1&#45;&gt;Node3 -->
<g id="edge2_Node000001_Node000003" class="edge">
<title>Node1&#45;&gt;Node3</title>
<g id="a_edge2_Node000001_Node000003"><a xlink:title=" ">
<path fill="none" stroke="#63b8ff" d="M103.45,-20.2C111.39,-19.04 119.58,-17.85 127.47,-16.7"/>
<polygon fill="#63b8ff" stroke="#63b8ff" points="127.87,-20.18 137.26,-15.27 126.86,-13.25 127.87,-20.18"/>
</a>
</g>
</g>
</g>
</svg>
