<?xml version="1.0" encoding="UTF-8" standalone="no"?>
<!DOCTYPE svg PUBLIC "-//W3C//DTD SVG 1.1//EN"
 "http://www.w3.org/Graphics/SVG/1.1/DTD/svg11.dtd">
<!-- Generated by graphviz version 9.0.0 (20230911.1827)
 -->
<!-- Title: VehicleState Pages: 1 -->
<svg width="95pt" height="385pt"
 viewBox="0.00 0.00 95.00 384.50" xmlns="http://www.w3.org/2000/svg" xmlns:xlink="http://www.w3.org/1999/xlink">

<svg id="main" version="1.1" xmlns="http://www.w3.org/2000/svg" xmlns:xlink="http://www.w3.org/1999/xlink" xml:space="preserve" onload="init(evt)">
<style type="text/css"><![CDATA[
.node, .edge {opacity: 0.7;}
.node.selected, .edge.selected {opacity: 1;}
.edge:hover path { stroke: red; }
.edge:hover polygon { stroke: red; fill: red; }
]]></style>
<script type="application/ecmascript" xlink:href="svg.min.js"/>
<svg id="graph" class="graph">
<g id="graph0" class="graph" transform="scale(1 1) rotate(0) translate(4 380.5)">
<title>VehicleState</title>
<!-- Node1 -->
<g id="Node000001" class="node">
<title>Node1</title>
<g id="a_Node000001"><a xlink:title="Struct for state of the vehicle.">
<polygon fill="#999999" stroke="none" points="77.5,-49 9.5,-49 9.5,0 77.5,0 77.5,-49"/>
<text text-anchor="start" x="15.75" y="-35.5" font-family="Helvetica,sans-Serif" font-size="10.00">VehicleState</text>
<text text-anchor="start" x="13.5" y="-20.5" font-family="Helvetica,sans-Serif" font-size="10.00">+</text>
<text text-anchor="start" x="23.5" y="-20.5" font-family="Helvetica,sans-Serif" font-size="10.00">last_update</text>
<text text-anchor="start" x="42" y="-5.5" font-family="Helvetica,sans-Serif" font-size="10.00"> </text>
<polygon fill="#666666" stroke="#666666" points="9.5,-32 9.5,-32 77.5,-32 77.5,-32 9.5,-32"/>
<polygon fill="#666666" stroke="#666666" points="9.5,-17 9.5,-17 21.5,-17 21.5,-17 9.5,-17"/>
<polygon fill="#666666" stroke="#666666" points="21.5,-17 21.5,-17 77.5,-17 77.5,-17 21.5,-17"/>
<polygon fill="none" stroke="#666666" points="9.5,0 9.5,-49 77.5,-49 77.5,0 9.5,0"/>
</a>
</g>
</g>
<!-- Node2 -->
<g id="Node000002" class="node">
<title>Node2</title>
<g id="a_Node000002"><a xlink:href="structPose.html" target="_top" xlink:title="Struct for pose representation.">
<polygon fill="white" stroke="none" points="75,-175.25 12,-175.25 12,-96.25 75,-96.25 75,-175.25"/>
<text text-anchor="start" x="32.25" y="-161.75" font-family="Helvetica,sans-Serif" font-size="10.00">Pose</text>
<text text-anchor="start" x="16" y="-146.75" font-family="Helvetica,sans-Serif" font-size="10.00">+</text>
<text text-anchor="start" x="26" y="-146.75" font-family="Helvetica,sans-Serif" font-size="10.00">orientation</text>
<text text-anchor="start" x="16" y="-131.75" font-family="Helvetica,sans-Serif" font-size="10.00">+</text>
<text text-anchor="start" x="26" y="-131.75" font-family="Helvetica,sans-Serif" font-size="10.00">Pose()</text>
<text text-anchor="start" x="16" y="-116.75" font-family="Helvetica,sans-Serif" font-size="10.00">+</text>
<text text-anchor="start" x="26" y="-116.75" font-family="Helvetica,sans-Serif" font-size="10.00">Pose()</text>
<text text-anchor="start" x="16" y="-101.75" font-family="Helvetica,sans-Serif" font-size="10.00">+</text>
<text text-anchor="start" x="26" y="-101.75" font-family="Helvetica,sans-Serif" font-size="10.00">Pose()</text>
<polygon fill="#666666" stroke="#666666" points="12,-158.25 12,-158.25 75,-158.25 75,-158.25 12,-158.25"/>
<polygon fill="#666666" stroke="#666666" points="12,-143.25 12,-143.25 24,-143.25 24,-143.25 12,-143.25"/>
<polygon fill="#666666" stroke="#666666" points="24,-143.25 24,-143.25 75,-143.25 75,-143.25 24,-143.25"/>
<polygon fill="none" stroke="#666666" points="12,-96.25 12,-175.25 75,-175.25 75,-96.25 12,-96.25"/>
</a>
</g>
</g>
<!-- Node2&#45;&gt;Node1 -->
<g id="edge1_Node000001_Node000002" class="edge">
<title>Node2&#45;&gt;Node1</title>
<g id="a_edge1_Node000001_Node000002"><a xlink:title=" ">
<path fill="none" stroke="#63b8ff" d="M43.5,-96.54C43.5,-85.25 43.5,-72.94 43.5,-61.78"/>
<polygon fill="none" stroke="#63b8ff" points="43.5,-61.78 39.5,-55.78 43.5,-49.78 47.5,-55.78 43.5,-61.78"/>
</a>
</g>
<text text-anchor="middle" x="58.12" y="-68.75" font-family="Helvetica,sans-Serif" font-size="10.00" fill="grey"> +pose</text>
</g>
<!-- Node3 -->
<g id="Node000003" class="node">
<title>Node3</title>
<g id="a_Node000003"><a xlink:href="structPosition.html" target="_top" xlink:title="Struct for position.">
<polygon fill="white" stroke="none" points="87,-376.5 0,-376.5 0,-222.5 87,-222.5 87,-376.5"/>
<text text-anchor="start" x="25.88" y="-363" font-family="Helvetica,sans-Serif" font-size="10.00">Position</text>
<text text-anchor="start" x="4" y="-348" font-family="Helvetica,sans-Serif" font-size="10.00">+</text>
<text text-anchor="start" x="14" y="-348" font-family="Helvetica,sans-Serif" font-size="10.00">x</text>
<text text-anchor="start" x="4" y="-333" font-family="Helvetica,sans-Serif" font-size="10.00">+</text>
<text text-anchor="start" x="14" y="-333" font-family="Helvetica,sans-Serif" font-size="10.00">y</text>
<text text-anchor="start" x="4" y="-318" font-family="Helvetica,sans-Serif" font-size="10.00">+</text>
<text text-anchor="start" x="14" y="-318" font-family="Helvetica,sans-Serif" font-size="10.00">Position()</text>
<text text-anchor="start" x="4" y="-303" font-family="Helvetica,sans-Serif" font-size="10.00">+</text>
<text text-anchor="start" x="14" y="-303" font-family="Helvetica,sans-Serif" font-size="10.00">Position()</text>
<text text-anchor="start" x="4" y="-288" font-family="Helvetica,sans-Serif" font-size="10.00">+</text>
<text text-anchor="start" x="14" y="-288" font-family="Helvetica,sans-Serif" font-size="10.00">Position()</text>
<text text-anchor="start" x="4" y="-273" font-family="Helvetica,sans-Serif" font-size="10.00">+</text>
<text text-anchor="start" x="14" y="-273" font-family="Helvetica,sans-Serif" font-size="10.00">getX()</text>
<text text-anchor="start" x="4" y="-258" font-family="Helvetica,sans-Serif" font-size="10.00">+</text>
<text text-anchor="start" x="14" y="-258" font-family="Helvetica,sans-Serif" font-size="10.00">getY()</text>
<text text-anchor="start" x="4" y="-243" font-family="Helvetica,sans-Serif" font-size="10.00">+</text>
<text text-anchor="start" x="14" y="-243" font-family="Helvetica,sans-Serif" font-size="10.00">getDistanceTo()</text>
<text text-anchor="start" x="4" y="-228" font-family="Helvetica,sans-Serif" font-size="10.00">+</text>
<text text-anchor="start" x="14" y="-228" font-family="Helvetica,sans-Serif" font-size="10.00">operator==()</text>
<polygon fill="#666666" stroke="#666666" points="0,-359.5 0,-359.5 87,-359.5 87,-359.5 0,-359.5"/>
<polygon fill="#666666" stroke="#666666" points="0,-329.5 0,-329.5 12,-329.5 12,-329.5 0,-329.5"/>
<polygon fill="#666666" stroke="#666666" points="12,-329.5 12,-329.5 87,-329.5 87,-329.5 12,-329.5"/>
<polygon fill="none" stroke="#666666" points="0,-222.5 0,-376.5 87,-376.5 87,-222.5 0,-222.5"/>
</a>
</g>
</g>
<!-- Node3&#45;&gt;Node2 -->
<g id="edge2_Node000002_Node000003" class="edge">
<title>Node3&#45;&gt;Node2</title>
<g id="a_edge2_Node000002_Node000003"><a xlink:title=" ">
<path fill="none" stroke="#63b8ff" d="M43.5,-222.83C43.5,-211.03 43.5,-199.07 43.5,-187.98"/>
<polygon fill="none" stroke="#63b8ff" points="43.5,-187.84 39.5,-181.84 43.5,-175.84 47.5,-181.84 43.5,-187.84"/>
</a>
</g>
<text text-anchor="middle" x="64.5" y="-195" font-family="Helvetica,sans-Serif" font-size="10.00" fill="grey"> +position</text>
</g>
</g>
</svg>
</svg>

<style type='text/css'>
<![CDATA[
[data-mouse-over-selected='false'] { opacity: 0.7; }
[data-mouse-over-selected='true']  { opacity: 1.0; }
]]>
</style>
<script type="application/ecmascript"><![CDATA[
document.addEventListener('DOMContentLoaded', (event) => {
  highlightEdges();
  highlightAdjacentNodes();
});
]]></script>
</svg>
