<?xml version="1.0" encoding="UTF-8" standalone="no"?>
<!DOCTYPE svg PUBLIC "-//W3C//DTD SVG 1.1//EN"
 "http://www.w3.org/Graphics/SVG/1.1/DTD/svg11.dtd">
<!-- Generated by graphviz version 9.0.0 (20230911.1827)
 -->
<!-- Title: pack_16_t Pages: 1 -->
<svg width="63pt" height="102pt"
 viewBox="0.00 0.00 63.00 102.00" xmlns="http://www.w3.org/2000/svg" xmlns:xlink="http://www.w3.org/1999/xlink">

<svg id="main" version="1.1" xmlns="http://www.w3.org/2000/svg" xmlns:xlink="http://www.w3.org/1999/xlink" xml:space="preserve" onload="init(evt)">
<style type="text/css"><![CDATA[
.node, .edge {opacity: 0.7;}
.node.selected, .edge.selected {opacity: 1;}
.edge:hover path { stroke: red; }
.edge:hover polygon { stroke: red; fill: red; }
]]></style>
<script type="application/ecmascript" xlink:href="svg.min.js"/>
<svg id="graph" class="graph">
<g id="graph0" class="graph" transform="scale(1 1) rotate(0) translate(4 98)">
<title>pack_16_t</title>
<!-- Node1 -->
<g id="Node000001" class="node">
<title>Node1</title>
<g id="a_Node000001"><a xlink:title=" ">
<polygon fill="#999999" stroke="none" points="55,-94 0,-94 0,0 55,0 55,-94"/>
<text text-anchor="start" x="5" y="-80.5" font-family="Helvetica,sans-Serif" font-size="10.00">pack_16_t</text>
<text text-anchor="start" x="6.5" y="-65.5" font-family="Helvetica,sans-Serif" font-size="10.00">+</text>
<text text-anchor="start" x="19" y="-65.5" font-family="Helvetica,sans-Serif" font-size="10.00">uword</text>
<text text-anchor="start" x="6.5" y="-50.5" font-family="Helvetica,sans-Serif" font-size="10.00">+</text>
<text text-anchor="start" x="19" y="-50.5" font-family="Helvetica,sans-Serif" font-size="10.00">sword</text>
<text text-anchor="start" x="6.5" y="-35.5" font-family="Helvetica,sans-Serif" font-size="10.00">+</text>
<text text-anchor="start" x="19" y="-35.5" font-family="Helvetica,sans-Serif" font-size="10.00">bytes</text>
<text text-anchor="start" x="6.5" y="-20.5" font-family="Helvetica,sans-Serif" font-size="10.00">+</text>
<text text-anchor="start" x="19" y="-20.5" font-family="Helvetica,sans-Serif" font-size="10.00">@1</text>
<text text-anchor="start" x="26" y="-5.5" font-family="Helvetica,sans-Serif" font-size="10.00"> </text>
<polygon fill="#666666" stroke="#666666" points="0,-77 0,-77 55,-77 55,-77 0,-77"/>
<polygon fill="#666666" stroke="#666666" points="0,-17 0,-17 17,-17 17,-17 0,-17"/>
<polygon fill="#666666" stroke="#666666" points="17,-17 17,-17 55,-17 55,-17 17,-17"/>
<polygon fill="none" stroke="#666666" points="0,0 0,-94 55,-94 55,0 0,0"/>
</a>
</g>
</g>
</g>
</svg>
</svg>

<style type='text/css'>
<![CDATA[
[data-mouse-over-selected='false'] { opacity: 0.7; }
[data-mouse-over-selected='true']  { opacity: 1.0; }
]]>
</style>
<script type="application/ecmascript"><![CDATA[
document.addEventListener('DOMContentLoaded', (event) => {
  highlightEdges();
  highlightAdjacentNodes();
});
]]></script>
</svg>
