<?xml version="1.0" encoding="UTF-8" standalone="no"?>
<!DOCTYPE svg PUBLIC "-//W3C//DTD SVG 1.1//EN"
 "http://www.w3.org/Graphics/SVG/1.1/DTD/svg11.dtd">
<!-- Generated by graphviz version 9.0.0 (20230911.1827)
 -->
<!-- Title: Position::getY Pages: 1 -->
<svg width="637pt" height="207pt"
 viewBox="0.00 0.00 637.00 206.88" xmlns="http://www.w3.org/2000/svg" xmlns:xlink="http://www.w3.org/1999/xlink">
<g id="graph0" class="graph" transform="scale(1 1) rotate(0) translate(4 202.88)">
<title>Position::getY</title>
<!-- Node1 -->
<g id="Node000001" class="node">
<title>Node1</title>
<g id="a_Node000001"><a xlink:title=" ">
<polygon fill="#999999" stroke="#666666" points="629,-104.88 553,-104.88 553,-85.62 629,-85.62 629,-104.88"/>
<text text-anchor="middle" x="591" y="-91.38" font-family="Helvetica,sans-Serif" font-size="10.00">Position::getY</text>
</a>
</g>
</g>
<!-- Node2 -->
<g id="Node000002" class="node">
<title>Node2</title>
<g id="a_Node000002"><a xlink:href="structPosition.html#a1332b03da4c176ced8aa49f925a8c33e" target="_top" xlink:title=" ">
<polygon fill="white" stroke="#666666" points="514,-180.88 395.25,-180.88 395.25,-161.62 514,-161.62 514,-180.88"/>
<text text-anchor="middle" x="454.62" y="-167.38" font-family="Helvetica,sans-Serif" font-size="10.00">Position::getDistanceTo</text>
</a>
</g>
</g>
<!-- Node1&#45;&gt;Node2 -->
<g id="edge1_Node000001_Node000002" class="edge">
<title>Node1&#45;&gt;Node2</title>
<g id="a_edge1_Node000001_Node000002"><a xlink:title=" ">
<path fill="none" stroke="#63b8ff" d="M569.09,-112.25C554.96,-123.2 535.57,-137.2 517,-147.25 507.14,-152.58 495.83,-157.35 485.63,-161.2"/>
<polygon fill="#63b8ff" stroke="#63b8ff" points="571.09,-115.14 576.77,-106.19 566.75,-109.64 571.09,-115.14"/>
</a>
</g>
</g>
<!-- Node3 -->
<g id="Node000003" class="node">
<title>Node3</title>
<g id="a_Node000003"><a xlink:href="classLocalPathPlanner.html#ae64befc2d63ed4eb841f7d94e464625b" target="_top" xlink:title="Process an array of cones to generate a local path.">
<polygon fill="white" stroke="#666666" points="356.25,-148.5 224,-148.5 224,-118 356.25,-118 356.25,-148.5"/>
<text text-anchor="start" x="232" y="-135" font-family="Helvetica,sans-Serif" font-size="10.00">LocalPathPlanner::process</text>
<text text-anchor="middle" x="290.12" y="-123.75" font-family="Helvetica,sans-Serif" font-size="10.00">NewArray</text>
</a>
</g>
</g>
<!-- Node1&#45;&gt;Node3 -->
<g id="edge10_Node000001_Node000003" class="edge">
<title>Node1&#45;&gt;Node3</title>
<g id="a_edge10_Node000001_Node000003"><a xlink:title=" ">
<path fill="none" stroke="#63b8ff" d="M545.13,-108.21C535.89,-110.52 526.18,-112.68 517,-114.25 463.47,-123.4 402.01,-128.21 356.73,-130.69"/>
<polygon fill="#63b8ff" stroke="#63b8ff" points="545.83,-111.65 554.63,-105.74 544.07,-104.87 545.83,-111.65"/>
</a>
</g>
</g>
<!-- Node9 -->
<g id="Node000009" class="node">
<title>Node9</title>
<g id="a_Node000009"><a xlink:href="tests_8cpp.html#a7f0a7445bb4ca573e25dec40f01e291f" target="_top" xlink:title=" ">
<polygon fill="white" stroke="#666666" points="486.25,-104.88 423,-104.88 423,-85.62 486.25,-85.62 486.25,-104.88"/>
<text text-anchor="middle" x="454.62" y="-91.38" font-family="Helvetica,sans-Serif" font-size="10.00">operator&lt;&lt;</text>
</a>
</g>
</g>
<!-- Node1&#45;&gt;Node9 -->
<g id="edge8_Node000001_Node000009" class="edge">
<title>Node1&#45;&gt;Node9</title>
<g id="a_edge8_Node000001_Node000009"><a xlink:title=" ">
<path fill="none" stroke="#63b8ff" d="M541.21,-95.25C522.95,-95.25 502.72,-95.25 486.51,-95.25"/>
<polygon fill="#63b8ff" stroke="#63b8ff" points="541.06,-98.75 551.06,-95.25 541.06,-91.75 541.06,-98.75"/>
</a>
</g>
</g>
<!-- Node10 -->
<g id="Node000010" class="node">
<title>Node10</title>
<g id="a_Node000010"><a xlink:href="structPosition.html#a2853571fea1d2591ffb1a74cd352c67f" target="_top" xlink:title=" ">
<polygon fill="white" stroke="#666666" points="506.12,-67.88 403.12,-67.88 403.12,-48.62 506.12,-48.62 506.12,-67.88"/>
<text text-anchor="middle" x="454.62" y="-54.38" font-family="Helvetica,sans-Serif" font-size="10.00">Position::operator==</text>
</a>
</g>
</g>
<!-- Node1&#45;&gt;Node10 -->
<g id="edge9_Node000001_Node000010" class="edge">
<title>Node1&#45;&gt;Node10</title>
<g id="a_edge9_Node000001_Node000010"><a xlink:title=" ">
<path fill="none" stroke="#63b8ff" d="M542.24,-82.1C525.82,-77.58 507.7,-72.59 492.3,-68.35"/>
<polygon fill="#63b8ff" stroke="#63b8ff" points="541.25,-85.46 551.82,-84.74 543.11,-78.71 541.25,-85.46"/>
</a>
</g>
</g>
<!-- Node11 -->
<g id="Node000011" class="node">
<title>Node11</title>
<g id="a_Node000011"><a xlink:href="classLocalPathPlanner.html#a0101a6887af84133c6f72fdf6809e6de" target="_top" xlink:title="Determine if two positions align in a certain direction.">
<polygon fill="white" stroke="#666666" points="517,-30.5 392.25,-30.5 392.25,0 517,0 517,-30.5"/>
<text text-anchor="start" x="400.25" y="-17" font-family="Helvetica,sans-Serif" font-size="10.00">LocalPathPlanner::vector</text>
<text text-anchor="middle" x="454.62" y="-5.75" font-family="Helvetica,sans-Serif" font-size="10.00">_direction</text>
</a>
</g>
</g>
<!-- Node1&#45;&gt;Node11 -->
<g id="edge11_Node000001_Node000011" class="edge">
<title>Node1&#45;&gt;Node11</title>
<g id="a_edge11_Node000001_Node000011"><a xlink:title=" ">
<path fill="none" stroke="#63b8ff" d="M570.95,-78.22C556.8,-66.2 536.63,-50.32 517,-39.25 511.72,-36.27 505.99,-33.5 500.23,-30.97"/>
<polygon fill="#63b8ff" stroke="#63b8ff" points="568.32,-80.58 578.16,-84.49 572.9,-75.29 568.32,-80.58"/>
</a>
</g>
</g>
<!-- Node2&#45;&gt;Node3 -->
<g id="edge2_Node000002_Node000003" class="edge">
<title>Node2&#45;&gt;Node3</title>
<g id="a_edge2_Node000002_Node000003"><a xlink:title=" ">
<path fill="none" stroke="#63b8ff" d="M399.7,-158.64C385.87,-155.41 370.84,-151.89 356.5,-148.54"/>
<polygon fill="#63b8ff" stroke="#63b8ff" points="398.5,-161.95 409.03,-160.82 400.09,-155.14 398.5,-161.95"/>
</a>
</g>
</g>
<!-- Node4 -->
<g id="Node000004" class="node">
<title>Node4</title>
<g id="a_Node000004"><a xlink:href="tests_8cpp.html#aef57f8f537bed02c0940fcd1dde6144a" target="_top" xlink:title=" ">
<polygon fill="white" stroke="#666666" points="188,-142.88 76.75,-142.88 76.75,-123.62 188,-123.62 188,-142.88"/>
<text text-anchor="middle" x="132.38" y="-129.38" font-family="Helvetica,sans-Serif" font-size="10.00">processTriangulations</text>
</a>
</g>
</g>
<!-- Node3&#45;&gt;Node4 -->
<g id="edge3_Node000003_Node000004" class="edge">
<title>Node3&#45;&gt;Node4</title>
<g id="a_edge3_Node000003_Node000004"><a xlink:title=" ">
<path fill="none" stroke="#63b8ff" d="M212.1,-133.25C203.98,-133.25 195.86,-133.25 188.07,-133.25"/>
<polygon fill="#63b8ff" stroke="#63b8ff" points="212.01,-136.75 222.01,-133.25 212.01,-129.75 212.01,-136.75"/>
</a>
</g>
</g>
<!-- Node5 -->
<g id="Node000005" class="node">
<title>Node5</title>
<g id="a_Node000005"><a xlink:href="tests_8cpp.html#afdc65423b0a5a3ca636f3aacfb1dba56" target="_top" xlink:title=" ">
<polygon fill="white" stroke="#666666" points="40.75,-198.88 0,-198.88 0,-179.62 40.75,-179.62 40.75,-198.88"/>
<text text-anchor="middle" x="20.38" y="-185.38" font-family="Helvetica,sans-Serif" font-size="10.00">TEST</text>
</a>
</g>
</g>
<!-- Node4&#45;&gt;Node5 -->
<g id="edge4_Node000004_Node000005" class="edge">
<title>Node4&#45;&gt;Node5</title>
<g id="a_edge4_Node000004_Node000005"><a xlink:title=" ">
<path fill="none" stroke="#63b8ff" d="M101.68,-148.37C82.51,-158.13 58.09,-170.56 41.24,-179.14"/>
<polygon fill="#63b8ff" stroke="#63b8ff" points="103.04,-151.6 110.36,-143.95 99.86,-145.37 103.04,-151.6"/>
</a>
</g>
</g>
<!-- Node6 -->
<g id="Node000006" class="node">
<title>Node6</title>
<g id="a_Node000006"><a xlink:href="tests_8cpp.html#aa4387a361b1943b82c6e9ef915917c12" target="_top" xlink:title=" ">
<polygon fill="white" stroke="#666666" points="40.75,-161.88 0,-161.88 0,-142.62 40.75,-142.62 40.75,-161.88"/>
<text text-anchor="middle" x="20.38" y="-148.38" font-family="Helvetica,sans-Serif" font-size="10.00">TEST</text>
</a>
</g>
</g>
<!-- Node4&#45;&gt;Node6 -->
<g id="edge5_Node000004_Node000006" class="edge">
<title>Node4&#45;&gt;Node6</title>
<g id="a_edge5_Node000004_Node000006"><a xlink:title=" ">
<path fill="none" stroke="#63b8ff" d="M65.16,-144.69C56.41,-146.2 48.06,-147.64 41.04,-148.85"/>
<polygon fill="#63b8ff" stroke="#63b8ff" points="65.63,-148.16 74.88,-143.01 64.43,-141.26 65.63,-148.16"/>
</a>
</g>
</g>
<!-- Node7 -->
<g id="Node000007" class="node">
<title>Node7</title>
<g id="a_Node000007"><a xlink:href="tests_8cpp.html#a978f4baa8d39fb740ed92fd44ba50933" target="_top" xlink:title=" ">
<polygon fill="white" stroke="#666666" points="40.75,-124.88 0,-124.88 0,-105.62 40.75,-105.62 40.75,-124.88"/>
<text text-anchor="middle" x="20.38" y="-111.38" font-family="Helvetica,sans-Serif" font-size="10.00">TEST</text>
</a>
</g>
</g>
<!-- Node4&#45;&gt;Node7 -->
<g id="edge6_Node000004_Node000007" class="edge">
<title>Node4&#45;&gt;Node7</title>
<g id="a_edge6_Node000004_Node000007"><a xlink:title=" ">
<path fill="none" stroke="#63b8ff" d="M65.16,-122.41C56.41,-120.98 48.06,-119.62 41.04,-118.47"/>
<polygon fill="#63b8ff" stroke="#63b8ff" points="64.45,-125.84 74.88,-124.01 65.58,-118.94 64.45,-125.84"/>
</a>
</g>
</g>
<!-- Node8 -->
<g id="Node000008" class="node">
<title>Node8</title>
<g id="a_Node000008"><a xlink:href="tests_8cpp.html#aaff9fd771beea10b1e522702042da27c" target="_top" xlink:title=" ">
<polygon fill="white" stroke="#666666" points="40.75,-87.88 0,-87.88 0,-68.62 40.75,-68.62 40.75,-87.88"/>
<text text-anchor="middle" x="20.38" y="-74.38" font-family="Helvetica,sans-Serif" font-size="10.00">TEST</text>
</a>
</g>
</g>
<!-- Node4&#45;&gt;Node8 -->
<g id="edge7_Node000004_Node000008" class="edge">
<title>Node4&#45;&gt;Node8</title>
<g id="a_edge7_Node000004_Node000008"><a xlink:title=" ">
<path fill="none" stroke="#63b8ff" d="M101.16,-118.14C81.99,-108.56 57.76,-96.44 41.05,-88.09"/>
<polygon fill="#63b8ff" stroke="#63b8ff" points="99.34,-121.14 109.85,-122.49 102.47,-114.88 99.34,-121.14"/>
</a>
</g>
</g>
<!-- Node11&#45;&gt;Node3 -->
<g id="edge12_Node000011_Node000003" class="edge">
<title>Node11&#45;&gt;Node3</title>
<g id="a_edge12_Node000011_Node000003"><a xlink:title=" ">
<path fill="none" stroke="#63b8ff" d="M397.87,-35.94C395.95,-37.01 394.07,-38.11 392.25,-39.25 356.73,-61.56 322.52,-97.3 304.42,-117.67"/>
<polygon fill="#63b8ff" stroke="#63b8ff" points="399.07,-39.26 406.42,-31.63 395.91,-33.01 399.07,-39.26"/>
</a>
</g>
</g>
</g>
</svg>
