<?xml version="1.0" encoding="UTF-8" standalone="no"?>
<!DOCTYPE svg PUBLIC "-//W3C//DTD SVG 1.1//EN"
 "http://www.w3.org/Graphics/SVG/1.1/DTD/svg11.dtd">
<!-- Generated by graphviz version 9.0.0 (20230911.1827)
 -->
<!-- Title: Pose Pages: 1 -->
<svg width="95pt" height="288pt"
 viewBox="0.00 0.00 95.00 288.25" xmlns="http://www.w3.org/2000/svg" xmlns:xlink="http://www.w3.org/1999/xlink">
<g id="graph0" class="graph" transform="scale(1 1) rotate(0) translate(4 284.25)">
<title>Pose</title>
<!-- Node1 -->
<g id="Node000001" class="node">
<title>Node1</title>
<g id="a_Node000001"><a xlink:title="Struct for pose representation.">
<polygon fill="#999999" stroke="none" points="75,-79 12,-79 12,0 75,0 75,-79"/>
<text text-anchor="start" x="32.25" y="-65.5" font-family="Helvetica,sans-Serif" font-size="10.00">Pose</text>
<text text-anchor="start" x="16" y="-50.5" font-family="Helvetica,sans-Serif" font-size="10.00">+</text>
<text text-anchor="start" x="26" y="-50.5" font-family="Helvetica,sans-Serif" font-size="10.00">orientation</text>
<text text-anchor="start" x="16" y="-35.5" font-family="Helvetica,sans-Serif" font-size="10.00">+</text>
<text text-anchor="start" x="26" y="-35.5" font-family="Helvetica,sans-Serif" font-size="10.00">Pose()</text>
<text text-anchor="start" x="16" y="-20.5" font-family="Helvetica,sans-Serif" font-size="10.00">+</text>
<text text-anchor="start" x="26" y="-20.5" font-family="Helvetica,sans-Serif" font-size="10.00">Pose()</text>
<text text-anchor="start" x="16" y="-5.5" font-family="Helvetica,sans-Serif" font-size="10.00">+</text>
<text text-anchor="start" x="26" y="-5.5" font-family="Helvetica,sans-Serif" font-size="10.00">Pose()</text>
<polygon fill="#666666" stroke="#666666" points="12,-62 12,-62 75,-62 75,-62 12,-62"/>
<polygon fill="#666666" stroke="#666666" points="12,-47 12,-47 24,-47 24,-47 12,-47"/>
<polygon fill="#666666" stroke="#666666" points="24,-47 24,-47 75,-47 75,-47 24,-47"/>
<polygon fill="none" stroke="#666666" points="12,0 12,-79 75,-79 75,0 12,0"/>
</a>
</g>
</g>
<!-- Node2 -->
<g id="Node000002" class="node">
<title>Node2</title>
<g id="a_Node000002"><a xlink:href="structPosition.html" target="_top" xlink:title="Struct for position.">
<polygon fill="white" stroke="none" points="87,-280.25 0,-280.25 0,-126.25 87,-126.25 87,-280.25"/>
<text text-anchor="start" x="25.88" y="-266.75" font-family="Helvetica,sans-Serif" font-size="10.00">Position</text>
<text text-anchor="start" x="4" y="-251.75" font-family="Helvetica,sans-Serif" font-size="10.00">+</text>
<text text-anchor="start" x="14" y="-251.75" font-family="Helvetica,sans-Serif" font-size="10.00">x</text>
<text text-anchor="start" x="4" y="-236.75" font-family="Helvetica,sans-Serif" font-size="10.00">+</text>
<text text-anchor="start" x="14" y="-236.75" font-family="Helvetica,sans-Serif" font-size="10.00">y</text>
<text text-anchor="start" x="4" y="-221.75" font-family="Helvetica,sans-Serif" font-size="10.00">+</text>
<text text-anchor="start" x="14" y="-221.75" font-family="Helvetica,sans-Serif" font-size="10.00">Position()</text>
<text text-anchor="start" x="4" y="-206.75" font-family="Helvetica,sans-Serif" font-size="10.00">+</text>
<text text-anchor="start" x="14" y="-206.75" font-family="Helvetica,sans-Serif" font-size="10.00">Position()</text>
<text text-anchor="start" x="4" y="-191.75" font-family="Helvetica,sans-Serif" font-size="10.00">+</text>
<text text-anchor="start" x="14" y="-191.75" font-family="Helvetica,sans-Serif" font-size="10.00">Position()</text>
<text text-anchor="start" x="4" y="-176.75" font-family="Helvetica,sans-Serif" font-size="10.00">+</text>
<text text-anchor="start" x="14" y="-176.75" font-family="Helvetica,sans-Serif" font-size="10.00">getX()</text>
<text text-anchor="start" x="4" y="-161.75" font-family="Helvetica,sans-Serif" font-size="10.00">+</text>
<text text-anchor="start" x="14" y="-161.75" font-family="Helvetica,sans-Serif" font-size="10.00">getY()</text>
<text text-anchor="start" x="4" y="-146.75" font-family="Helvetica,sans-Serif" font-size="10.00">+</text>
<text text-anchor="start" x="14" y="-146.75" font-family="Helvetica,sans-Serif" font-size="10.00">getDistanceTo()</text>
<text text-anchor="start" x="4" y="-131.75" font-family="Helvetica,sans-Serif" font-size="10.00">+</text>
<text text-anchor="start" x="14" y="-131.75" font-family="Helvetica,sans-Serif" font-size="10.00">operator==()</text>
<polygon fill="#666666" stroke="#666666" points="0,-263.25 0,-263.25 87,-263.25 87,-263.25 0,-263.25"/>
<polygon fill="#666666" stroke="#666666" points="0,-233.25 0,-233.25 12,-233.25 12,-233.25 0,-233.25"/>
<polygon fill="#666666" stroke="#666666" points="12,-233.25 12,-233.25 87,-233.25 87,-233.25 12,-233.25"/>
<polygon fill="none" stroke="#666666" points="0,-126.25 0,-280.25 87,-280.25 87,-126.25 0,-126.25"/>
</a>
</g>
</g>
<!-- Node2&#45;&gt;Node1 -->
<g id="edge1_Node000001_Node000002" class="edge">
<title>Node2&#45;&gt;Node1</title>
<g id="a_edge1_Node000001_Node000002"><a xlink:title=" ">
<path fill="none" stroke="#63b8ff" d="M43.5,-126.58C43.5,-114.78 43.5,-102.82 43.5,-91.73"/>
<polygon fill="none" stroke="#63b8ff" points="43.5,-91.59 39.5,-85.59 43.5,-79.59 47.5,-85.59 43.5,-91.59"/>
</a>
</g>
<text text-anchor="middle" x="64.5" y="-98.75" font-family="Helvetica,sans-Serif" font-size="10.00" fill="grey"> +position</text>
</g>
</g>
</svg>
