<?xml version="1.0" encoding="UTF-8" standalone="no"?>
<!DOCTYPE svg PUBLIC "-//W3C//DTD SVG 1.1//EN"
 "http://www.w3.org/Graphics/SVG/1.1/DTD/svg11.dtd">
<!-- Generated by graphviz version 9.0.0 (20230911.1827)
 -->
<!-- Title: ObservationData Pages: 1 -->
<svg width="104pt" height="288pt"
 viewBox="0.00 0.00 104.00 288.25" xmlns="http://www.w3.org/2000/svg" xmlns:xlink="http://www.w3.org/1999/xlink">
<g id="graph0" class="graph" transform="scale(1 1) rotate(0) translate(4 284.25)">
<title>ObservationData</title>
<!-- Node1 -->
<g id="Node000001" class="node">
<title>Node1</title>
<g id="a_Node000001"><a xlink:title="Struct containing observation data.">
<polygon fill="#999999" stroke="none" points="96,-79 0,-79 0,0 96,0 96,-79"/>
<text text-anchor="start" x="11.62" y="-65.5" font-family="Helvetica,sans-Serif" font-size="10.00">ObservationData</text>
<text text-anchor="start" x="4" y="-50.5" font-family="Helvetica,sans-Serif" font-size="10.00">+</text>
<text text-anchor="start" x="14" y="-50.5" font-family="Helvetica,sans-Serif" font-size="10.00">color</text>
<text text-anchor="start" x="4" y="-35.5" font-family="Helvetica,sans-Serif" font-size="10.00">+</text>
<text text-anchor="start" x="14" y="-35.5" font-family="Helvetica,sans-Serif" font-size="10.00">ObservationData()</text>
<text text-anchor="start" x="4" y="-20.5" font-family="Helvetica,sans-Serif" font-size="10.00">+</text>
<text text-anchor="start" x="14" y="-20.5" font-family="Helvetica,sans-Serif" font-size="10.00">ObservationData()</text>
<text text-anchor="start" x="4" y="-5.5" font-family="Helvetica,sans-Serif" font-size="10.00">+</text>
<text text-anchor="start" x="14" y="-5.5" font-family="Helvetica,sans-Serif" font-size="10.00">ObservationData()</text>
<polygon fill="#666666" stroke="#666666" points="0,-62 0,-62 96,-62 96,-62 0,-62"/>
<polygon fill="#666666" stroke="#666666" points="0,-47 0,-47 12,-47 12,-47 0,-47"/>
<polygon fill="#666666" stroke="#666666" points="12,-47 12,-47 96,-47 96,-47 12,-47"/>
<polygon fill="none" stroke="#666666" points="0,0 0,-79 96,-79 96,0 0,0"/>
</a>
</g>
</g>
<!-- Node2 -->
<g id="Node000002" class="node">
<title>Node2</title>
<g id="a_Node000002"><a xlink:href="structPosition.html" target="_top" xlink:title="Struct for position.">
<polygon fill="white" stroke="none" points="91.5,-280.25 4.5,-280.25 4.5,-126.25 91.5,-126.25 91.5,-280.25"/>
<text text-anchor="start" x="30.38" y="-266.75" font-family="Helvetica,sans-Serif" font-size="10.00">Position</text>
<text text-anchor="start" x="8.5" y="-251.75" font-family="Helvetica,sans-Serif" font-size="10.00">+</text>
<text text-anchor="start" x="18.5" y="-251.75" font-family="Helvetica,sans-Serif" font-size="10.00">x</text>
<text text-anchor="start" x="8.5" y="-236.75" font-family="Helvetica,sans-Serif" font-size="10.00">+</text>
<text text-anchor="start" x="18.5" y="-236.75" font-family="Helvetica,sans-Serif" font-size="10.00">y</text>
<text text-anchor="start" x="8.5" y="-221.75" font-family="Helvetica,sans-Serif" font-size="10.00">+</text>
<text text-anchor="start" x="18.5" y="-221.75" font-family="Helvetica,sans-Serif" font-size="10.00">Position()</text>
<text text-anchor="start" x="8.5" y="-206.75" font-family="Helvetica,sans-Serif" font-size="10.00">+</text>
<text text-anchor="start" x="18.5" y="-206.75" font-family="Helvetica,sans-Serif" font-size="10.00">Position()</text>
<text text-anchor="start" x="8.5" y="-191.75" font-family="Helvetica,sans-Serif" font-size="10.00">+</text>
<text text-anchor="start" x="18.5" y="-191.75" font-family="Helvetica,sans-Serif" font-size="10.00">Position()</text>
<text text-anchor="start" x="8.5" y="-176.75" font-family="Helvetica,sans-Serif" font-size="10.00">+</text>
<text text-anchor="start" x="18.5" y="-176.75" font-family="Helvetica,sans-Serif" font-size="10.00">getX()</text>
<text text-anchor="start" x="8.5" y="-161.75" font-family="Helvetica,sans-Serif" font-size="10.00">+</text>
<text text-anchor="start" x="18.5" y="-161.75" font-family="Helvetica,sans-Serif" font-size="10.00">getY()</text>
<text text-anchor="start" x="8.5" y="-146.75" font-family="Helvetica,sans-Serif" font-size="10.00">+</text>
<text text-anchor="start" x="18.5" y="-146.75" font-family="Helvetica,sans-Serif" font-size="10.00">getDistanceTo()</text>
<text text-anchor="start" x="8.5" y="-131.75" font-family="Helvetica,sans-Serif" font-size="10.00">+</text>
<text text-anchor="start" x="18.5" y="-131.75" font-family="Helvetica,sans-Serif" font-size="10.00">operator==()</text>
<polygon fill="#666666" stroke="#666666" points="4.5,-263.25 4.5,-263.25 91.5,-263.25 91.5,-263.25 4.5,-263.25"/>
<polygon fill="#666666" stroke="#666666" points="4.5,-233.25 4.5,-233.25 16.5,-233.25 16.5,-233.25 4.5,-233.25"/>
<polygon fill="#666666" stroke="#666666" points="16.5,-233.25 16.5,-233.25 91.5,-233.25 91.5,-233.25 16.5,-233.25"/>
<polygon fill="none" stroke="#666666" points="4.5,-126.25 4.5,-280.25 91.5,-280.25 91.5,-126.25 4.5,-126.25"/>
</a>
</g>
</g>
<!-- Node2&#45;&gt;Node1 -->
<g id="edge1_Node000001_Node000002" class="edge">
<title>Node2&#45;&gt;Node1</title>
<g id="a_edge1_Node000001_Node000002"><a xlink:title=" ">
<path fill="none" stroke="#63b8ff" d="M48,-126.58C48,-114.78 48,-102.82 48,-91.73"/>
<polygon fill="none" stroke="#63b8ff" points="48,-91.59 44,-85.59 48,-79.59 52,-85.59 48,-91.59"/>
</a>
</g>
<text text-anchor="middle" x="69" y="-98.75" font-family="Helvetica,sans-Serif" font-size="10.00" fill="grey"> +position</text>
</g>
</g>
</svg>
