<?xml version="1.0" encoding="UTF-8" standalone="no"?>
<!DOCTYPE svg PUBLIC "-//W3C//DTD SVG 1.1//EN"
 "http://www.w3.org/Graphics/SVG/1.1/DTD/svg11.dtd">
<!-- Generated by graphviz version 9.0.0 (20230911.1827)
 -->
<!-- Title: Position::getDistanceTo Pages: 1 -->
<svg width="519pt" height="138pt"
 viewBox="0.00 0.00 519.00 138.25" xmlns="http://www.w3.org/2000/svg" xmlns:xlink="http://www.w3.org/1999/xlink">
<g id="graph0" class="graph" transform="scale(1 1) rotate(0) translate(4 134.25)">
<title>Position::getDistanceTo</title>
<!-- Node1 -->
<g id="Node000001" class="node">
<title>Node1</title>
<g id="a_Node000001"><a xlink:title=" ">
<polygon fill="#999999" stroke="#666666" points="511,-74.25 392.25,-74.25 392.25,-55 511,-55 511,-74.25"/>
<text text-anchor="middle" x="451.62" y="-60.75" font-family="Helvetica,sans-Serif" font-size="10.00">Position::getDistanceTo</text>
</a>
</g>
</g>
<!-- Node2 -->
<g id="Node000002" class="node">
<title>Node2</title>
<g id="a_Node000002"><a xlink:href="classLocalPathPlanner.html#ae64befc2d63ed4eb841f7d94e464625b" target="_top" xlink:title="Process an array of cones to generate a local path.">
<polygon fill="white" stroke="#666666" points="356.25,-79.88 224,-79.88 224,-49.38 356.25,-49.38 356.25,-79.88"/>
<text text-anchor="start" x="232" y="-66.38" font-family="Helvetica,sans-Serif" font-size="10.00">LocalPathPlanner::process</text>
<text text-anchor="middle" x="290.12" y="-55.12" font-family="Helvetica,sans-Serif" font-size="10.00">NewArray</text>
</a>
</g>
</g>
<!-- Node1&#45;&gt;Node2 -->
<g id="edge1_Node000001_Node000002" class="edge">
<title>Node1&#45;&gt;Node2</title>
<g id="a_edge1_Node000001_Node000002"><a xlink:title=" ">
<path fill="none" stroke="#63b8ff" d="M380.87,-64.62C372.81,-64.62 364.61,-64.62 356.61,-64.62"/>
<polygon fill="#63b8ff" stroke="#63b8ff" points="380.63,-68.13 390.63,-64.63 380.63,-61.13 380.63,-68.13"/>
</a>
</g>
</g>
<!-- Node3 -->
<g id="Node000003" class="node">
<title>Node3</title>
<g id="a_Node000003"><a xlink:href="tests_8cpp.html#aef57f8f537bed02c0940fcd1dde6144a" target="_top" xlink:title=" ">
<polygon fill="white" stroke="#666666" points="188,-74.25 76.75,-74.25 76.75,-55 188,-55 188,-74.25"/>
<text text-anchor="middle" x="132.38" y="-60.75" font-family="Helvetica,sans-Serif" font-size="10.00">processTriangulations</text>
</a>
</g>
</g>
<!-- Node2&#45;&gt;Node3 -->
<g id="edge2_Node000002_Node000003" class="edge">
<title>Node2&#45;&gt;Node3</title>
<g id="a_edge2_Node000002_Node000003"><a xlink:title=" ">
<path fill="none" stroke="#63b8ff" d="M212.1,-64.62C203.98,-64.62 195.86,-64.62 188.07,-64.62"/>
<polygon fill="#63b8ff" stroke="#63b8ff" points="212.01,-68.13 222.01,-64.63 212.01,-61.13 212.01,-68.13"/>
</a>
</g>
</g>
<!-- Node4 -->
<g id="Node000004" class="node">
<title>Node4</title>
<g id="a_Node000004"><a xlink:href="tests_8cpp.html#afdc65423b0a5a3ca636f3aacfb1dba56" target="_top" xlink:title=" ">
<polygon fill="white" stroke="#666666" points="40.75,-130.25 0,-130.25 0,-111 40.75,-111 40.75,-130.25"/>
<text text-anchor="middle" x="20.38" y="-116.75" font-family="Helvetica,sans-Serif" font-size="10.00">TEST</text>
</a>
</g>
</g>
<!-- Node3&#45;&gt;Node4 -->
<g id="edge3_Node000003_Node000004" class="edge">
<title>Node3&#45;&gt;Node4</title>
<g id="a_edge3_Node000003_Node000004"><a xlink:title=" ">
<path fill="none" stroke="#63b8ff" d="M101.68,-79.74C82.51,-89.5 58.09,-101.93 41.24,-110.51"/>
<polygon fill="#63b8ff" stroke="#63b8ff" points="103.04,-82.98 110.36,-75.32 99.86,-76.74 103.04,-82.98"/>
</a>
</g>
</g>
<!-- Node5 -->
<g id="Node000005" class="node">
<title>Node5</title>
<g id="a_Node000005"><a xlink:href="tests_8cpp.html#aa4387a361b1943b82c6e9ef915917c12" target="_top" xlink:title=" ">
<polygon fill="white" stroke="#666666" points="40.75,-93.25 0,-93.25 0,-74 40.75,-74 40.75,-93.25"/>
<text text-anchor="middle" x="20.38" y="-79.75" font-family="Helvetica,sans-Serif" font-size="10.00">TEST</text>
</a>
</g>
</g>
<!-- Node3&#45;&gt;Node5 -->
<g id="edge4_Node000003_Node000005" class="edge">
<title>Node3&#45;&gt;Node5</title>
<g id="a_edge4_Node000003_Node000005"><a xlink:title=" ">
<path fill="none" stroke="#63b8ff" d="M65.16,-76.06C56.41,-77.57 48.06,-79.02 41.04,-80.23"/>
<polygon fill="#63b8ff" stroke="#63b8ff" points="65.63,-79.53 74.88,-74.38 64.43,-72.64 65.63,-79.53"/>
</a>
</g>
</g>
<!-- Node6 -->
<g id="Node000006" class="node">
<title>Node6</title>
<g id="a_Node000006"><a xlink:href="tests_8cpp.html#a978f4baa8d39fb740ed92fd44ba50933" target="_top" xlink:title=" ">
<polygon fill="white" stroke="#666666" points="40.75,-56.25 0,-56.25 0,-37 40.75,-37 40.75,-56.25"/>
<text text-anchor="middle" x="20.38" y="-42.75" font-family="Helvetica,sans-Serif" font-size="10.00">TEST</text>
</a>
</g>
</g>
<!-- Node3&#45;&gt;Node6 -->
<g id="edge5_Node000003_Node000006" class="edge">
<title>Node3&#45;&gt;Node6</title>
<g id="a_edge5_Node000003_Node000006"><a xlink:title=" ">
<path fill="none" stroke="#63b8ff" d="M65.16,-53.79C56.41,-52.36 48.06,-50.99 41.04,-49.84"/>
<polygon fill="#63b8ff" stroke="#63b8ff" points="64.45,-57.22 74.88,-55.38 65.58,-50.31 64.45,-57.22"/>
</a>
</g>
</g>
<!-- Node7 -->
<g id="Node000007" class="node">
<title>Node7</title>
<g id="a_Node000007"><a xlink:href="tests_8cpp.html#aaff9fd771beea10b1e522702042da27c" target="_top" xlink:title=" ">
<polygon fill="white" stroke="#666666" points="40.75,-19.25 0,-19.25 0,0 40.75,0 40.75,-19.25"/>
<text text-anchor="middle" x="20.38" y="-5.75" font-family="Helvetica,sans-Serif" font-size="10.00">TEST</text>
</a>
</g>
</g>
<!-- Node3&#45;&gt;Node7 -->
<g id="edge6_Node000003_Node000007" class="edge">
<title>Node3&#45;&gt;Node7</title>
<g id="a_edge6_Node000003_Node000007"><a xlink:title=" ">
<path fill="none" stroke="#63b8ff" d="M101.16,-49.52C81.99,-39.93 57.76,-27.82 41.05,-19.46"/>
<polygon fill="#63b8ff" stroke="#63b8ff" points="99.34,-52.52 109.85,-53.86 102.47,-46.26 99.34,-52.52"/>
</a>
</g>
</g>
</g>
</svg>
