<?xml version="1.0" encoding="UTF-8" standalone="no"?>
<!DOCTYPE svg PUBLIC "-//W3C//DTD SVG 1.1//EN"
 "http://www.w3.org/Graphics/SVG/1.1/DTD/svg11.dtd">
<!-- Generated by graphviz version 9.0.0 (20230911.1827)
 -->
<!-- Title: src/planning/planning/include/planning/track.hpp Pages: 1 -->
<svg width="968pt" height="216pt"
 viewBox="0.00 0.00 967.75 215.50" xmlns="http://www.w3.org/2000/svg" xmlns:xlink="http://www.w3.org/1999/xlink">
<g id="graph0" class="graph" transform="scale(1 1) rotate(0) translate(4 211.5)">
<title>src/planning/planning/include/planning/track.hpp</title>
<!-- Node1 -->
<g id="Node000001" class="node">
<title>Node1</title>
<g id="a_Node000001"><a xlink:title=" ">
<polygon fill="#999999" stroke="#666666" points="460.75,-207.5 329.25,-207.5 329.25,-177 460.75,-177 460.75,-207.5"/>
<text text-anchor="start" x="337.25" y="-194" font-family="Helvetica,sans-Serif" font-size="10.00">src/planning/planning</text>
<text text-anchor="middle" x="395" y="-182.75" font-family="Helvetica,sans-Serif" font-size="10.00">/include/planning/track.hpp</text>
</a>
</g>
</g>
<!-- Node2 -->
<g id="Node000002" class="node">
<title>Node2</title>
<g id="a_Node000002"><a xlink:title=" ">
<polygon fill="#e0e0e0" stroke="#999999" points="88,-141 0,-141 0,-121.75 88,-121.75 88,-141"/>
<text text-anchor="middle" x="44" y="-127.5" font-family="Helvetica,sans-Serif" font-size="10.00">gsl/gsl_bspline.h</text>
</a>
</g>
</g>
<!-- Node1&#45;&gt;Node2 -->
<g id="edge1_Node000001_Node000002" class="edge">
<title>Node1&#45;&gt;Node2</title>
<g id="a_edge1_Node000001_Node000002"><a xlink:title=" ">
<path fill="none" stroke="#63b8ff" d="M328.98,-180.18C262.71,-169.06 161.75,-152.13 99.48,-141.68"/>
<polygon fill="#63b8ff" stroke="#63b8ff" points="100.26,-138.26 89.82,-140.06 99.1,-145.17 100.26,-138.26"/>
</a>
</g>
</g>
<!-- Node3 -->
<g id="Node000003" class="node">
<title>Node3</title>
<g id="a_Node000003"><a xlink:title=" ">
<polygon fill="#e0e0e0" stroke="#999999" points="191.88,-141 106.12,-141 106.12,-121.75 191.88,-121.75 191.88,-141"/>
<text text-anchor="middle" x="149" y="-127.5" font-family="Helvetica,sans-Serif" font-size="10.00">gsl/gsl_multifit.h</text>
</a>
</g>
</g>
<!-- Node1&#45;&gt;Node3 -->
<g id="edge2_Node000001_Node000003" class="edge">
<title>Node1&#45;&gt;Node3</title>
<g id="a_edge2_Node000001_Node000003"><a xlink:title=" ">
<path fill="none" stroke="#63b8ff" d="M333.56,-176.55C291.72,-166.53 237.08,-153.46 198.14,-144.13"/>
<polygon fill="#63b8ff" stroke="#63b8ff" points="199.1,-140.77 188.56,-141.84 197.47,-147.57 199.1,-140.77"/>
</a>
</g>
</g>
<!-- Node4 -->
<g id="Node000004" class="node">
<title>Node4</title>
<g id="a_Node000004"><a xlink:title=" ">
<polygon fill="#e0e0e0" stroke="#999999" points="255.62,-141 210.38,-141 210.38,-121.75 255.62,-121.75 255.62,-141"/>
<text text-anchor="middle" x="233" y="-127.5" font-family="Helvetica,sans-Serif" font-size="10.00">cstring</text>
</a>
</g>
</g>
<!-- Node1&#45;&gt;Node4 -->
<g id="edge3_Node000001_Node000004" class="edge">
<title>Node1&#45;&gt;Node4</title>
<g id="a_edge3_Node000001_Node000004"><a xlink:title=" ">
<path fill="none" stroke="#63b8ff" d="M354.54,-176.55C327.44,-166.7 292.17,-153.88 266.62,-144.59"/>
<polygon fill="#63b8ff" stroke="#63b8ff" points="267.98,-141.36 257.39,-141.24 265.59,-147.94 267.98,-141.36"/>
</a>
</g>
</g>
<!-- Node5 -->
<g id="Node000005" class="node">
<title>Node5</title>
<g id="a_Node000005"><a xlink:title=" ">
<polygon fill="#e0e0e0" stroke="#999999" points="496.5,-19.25 447.5,-19.25 447.5,0 496.5,0 496.5,-19.25"/>
<text text-anchor="middle" x="472" y="-5.75" font-family="Helvetica,sans-Serif" font-size="10.00">fstream</text>
</a>
</g>
</g>
<!-- Node1&#45;&gt;Node5 -->
<g id="edge4_Node000001_Node000005" class="edge">
<title>Node1&#45;&gt;Node5</title>
<g id="a_edge4_Node000001_Node000005"><a xlink:title=" ">
<path fill="none" stroke="#63b8ff" d="M350.83,-176.64C334.37,-168.81 317.42,-157.32 308,-141 288.95,-107.99 284.86,-85.53 308,-55.25 323.47,-35.01 392.68,-21.77 436.1,-15.3"/>
<polygon fill="#63b8ff" stroke="#63b8ff" points="436.43,-18.79 445.83,-13.9 435.44,-11.86 436.43,-18.79"/>
</a>
</g>
</g>
<!-- Node6 -->
<g id="Node000006" class="node">
<title>Node6</title>
<g id="a_Node000006"><a xlink:title=" ">
<polygon fill="#e0e0e0" stroke="#999999" points="959.75,-141 906.25,-141 906.25,-121.75 959.75,-121.75 959.75,-141"/>
<text text-anchor="middle" x="933" y="-127.5" font-family="Helvetica,sans-Serif" font-size="10.00">iostream</text>
</a>
</g>
</g>
<!-- Node1&#45;&gt;Node6 -->
<g id="edge5_Node000001_Node000006" class="edge">
<title>Node1&#45;&gt;Node6</title>
<g id="a_edge5_Node000001_Node000006"><a xlink:title=" ">
<path fill="none" stroke="#63b8ff" d="M461.16,-187.49C555.38,-181.5 733.74,-167.84 894.88,-141.13"/>
<polygon fill="#63b8ff" stroke="#63b8ff" points="895.18,-144.63 904.46,-139.52 894.02,-137.73 895.18,-144.63"/>
</a>
</g>
</g>
<!-- Node7 -->
<g id="Node000007" class="node">
<title>Node7</title>
<g id="a_Node000007"><a xlink:title=" ">
<polygon fill="#e0e0e0" stroke="#999999" points="870,-80.12 830,-80.12 830,-60.88 870,-60.88 870,-80.12"/>
<text text-anchor="middle" x="850" y="-66.62" font-family="Helvetica,sans-Serif" font-size="10.00">string</text>
</a>
</g>
</g>
<!-- Node1&#45;&gt;Node7 -->
<g id="edge6_Node000001_Node000007" class="edge">
<title>Node1&#45;&gt;Node7</title>
<g id="a_edge6_Node000001_Node000007"><a xlink:title=" ">
<path fill="none" stroke="#63b8ff" d="M461.1,-180.05C546.16,-164.48 697.67,-132.8 821,-85.75 821.48,-85.57 821.97,-85.37 822.46,-85.18"/>
<polygon fill="#63b8ff" stroke="#63b8ff" points="823.64,-88.49 831.37,-81.24 820.81,-82.09 823.64,-88.49"/>
</a>
</g>
</g>
<!-- Node8 -->
<g id="Node000008" class="node">
<title>Node8</title>
<g id="a_Node000008"><a xlink:title=" ">
<polygon fill="#e0e0e0" stroke="#999999" points="712.5,-19.25 669.5,-19.25 669.5,0 712.5,0 712.5,-19.25"/>
<text text-anchor="middle" x="691" y="-5.75" font-family="Helvetica,sans-Serif" font-size="10.00">vector</text>
</a>
</g>
</g>
<!-- Node1&#45;&gt;Node8 -->
<g id="edge7_Node000001_Node000008" class="edge">
<title>Node1&#45;&gt;Node8</title>
<g id="a_edge7_Node000001_Node000008"><a xlink:title=" ">
<path fill="none" stroke="#63b8ff" d="M380.52,-176.86C355.26,-150.05 308.76,-91.86 341,-55.25 361.79,-31.64 574.53,-17.19 657.82,-12.4"/>
<polygon fill="#63b8ff" stroke="#63b8ff" points="657.83,-15.9 667.62,-11.85 657.44,-8.92 657.83,-15.9"/>
</a>
</g>
</g>
<!-- Node9 -->
<g id="Node000009" class="node">
<title>Node9</title>
<g id="a_Node000009"><a xlink:title=" ">
<polygon fill="#e0e0e0" stroke="#999999" points="439.75,-80.12 350.25,-80.12 350.25,-60.88 439.75,-60.88 439.75,-80.12"/>
<text text-anchor="middle" x="395" y="-66.62" font-family="Helvetica,sans-Serif" font-size="10.00">rclcpp/rclcpp.hpp</text>
</a>
</g>
</g>
<!-- Node1&#45;&gt;Node9 -->
<g id="edge8_Node000001_Node000009" class="edge">
<title>Node1&#45;&gt;Node9</title>
<g id="a_edge8_Node000001_Node000009"><a xlink:title=" ">
<path fill="none" stroke="#63b8ff" d="M395,-176.57C395,-155.28 395,-115.79 395,-91.76"/>
<polygon fill="#63b8ff" stroke="#63b8ff" points="398.5,-92 395,-82 391.5,-92 398.5,-92"/>
</a>
</g>
</g>
<!-- Node10 -->
<g id="Node000010" class="node">
<title>Node10</title>
<g id="a_Node000010"><a xlink:href="cone_8hpp.html" target="_top" xlink:title=" ">
<polygon fill="white" stroke="#666666" points="888,-141 812,-141 812,-121.75 888,-121.75 888,-141"/>
<text text-anchor="middle" x="850" y="-127.5" font-family="Helvetica,sans-Serif" font-size="10.00">utils/cone.hpp</text>
</a>
</g>
</g>
<!-- Node1&#45;&gt;Node10 -->
<g id="edge9_Node000001_Node000010" class="edge">
<title>Node1&#45;&gt;Node10</title>
<g id="a_edge9_Node000001_Node000010"><a xlink:title=" ">
<path fill="none" stroke="#63b8ff" d="M461.16,-182.69C553.23,-170.78 717.92,-149.47 800.26,-138.81"/>
<polygon fill="#63b8ff" stroke="#63b8ff" points="800.59,-142.3 810.06,-137.54 799.69,-135.36 800.59,-142.3"/>
</a>
</g>
</g>
<!-- Node12 -->
<g id="Node000012" class="node">
<title>Node12</title>
<g id="a_Node000012"><a xlink:href="files_8hpp.html" target="_top" xlink:title=" ">
<polygon fill="white" stroke="#666666" points="614.12,-141 541.88,-141 541.88,-121.75 614.12,-121.75 614.12,-141"/>
<text text-anchor="middle" x="578" y="-127.5" font-family="Helvetica,sans-Serif" font-size="10.00">utils/files.hpp</text>
</a>
</g>
</g>
<!-- Node1&#45;&gt;Node12 -->
<g id="edge13_Node000001_Node000012" class="edge">
<title>Node1&#45;&gt;Node12</title>
<g id="a_edge13_Node000001_Node000012"><a xlink:title=" ">
<path fill="none" stroke="#63b8ff" d="M434.77,-176.55C464.04,-166.75 503.72,-154.02 533.95,-144.74"/>
<polygon fill="#63b8ff" stroke="#63b8ff" points="534.63,-148.19 543.17,-141.93 532.59,-141.5 534.63,-148.19"/>
</a>
</g>
</g>
<!-- Node10&#45;&gt;Node7 -->
<g id="edge11_Node000010_Node000007" class="edge">
<title>Node10&#45;&gt;Node7</title>
<g id="a_edge11_Node000010_Node000007"><a xlink:title=" ">
<path fill="none" stroke="#63b8ff" d="M850,-121.43C850,-113.65 850,-102.08 850,-92.03"/>
<polygon fill="#63b8ff" stroke="#63b8ff" points="853.5,-92.04 850,-82.04 846.5,-92.04 853.5,-92.04"/>
</a>
</g>
</g>
<!-- Node10&#45;&gt;Node8 -->
<g id="edge12_Node000010_Node000008" class="edge">
<title>Node10&#45;&gt;Node8</title>
<g id="a_edge12_Node000010_Node000008"><a xlink:title=" ">
<path fill="none" stroke="#63b8ff" d="M858.5,-121.65C872.02,-106.72 895.3,-75.87 879,-55.25 860.02,-31.24 772.6,-18.79 723.93,-13.61"/>
<polygon fill="#63b8ff" stroke="#63b8ff" points="724.55,-10.16 714.25,-12.63 723.85,-17.12 724.55,-10.16"/>
</a>
</g>
</g>
<!-- Node11 -->
<g id="Node000011" class="node">
<title>Node11</title>
<g id="a_Node000011"><a xlink:title=" ">
<polygon fill="#e0e0e0" stroke="#999999" points="881.5,-19.25 838.5,-19.25 838.5,0 881.5,0 881.5,-19.25"/>
<text text-anchor="middle" x="860" y="-5.75" font-family="Helvetica,sans-Serif" font-size="10.00">cmath</text>
</a>
</g>
</g>
<!-- Node10&#45;&gt;Node11 -->
<g id="edge10_Node000010_Node000011" class="edge">
<title>Node10&#45;&gt;Node11</title>
<g id="a_edge10_Node000010_Node000011"><a xlink:title=" ">
<path fill="none" stroke="#63b8ff" d="M871.44,-121.37C885.79,-114.07 903.53,-102.27 912,-85.75 918.18,-73.69 917.66,-67.57 912,-55.25 906.54,-43.37 896.19,-33.47 886.15,-26.03"/>
<polygon fill="#63b8ff" stroke="#63b8ff" points="888.28,-23.25 878.04,-20.53 884.35,-29.04 888.28,-23.25"/>
</a>
</g>
</g>
<!-- Node12&#45;&gt;Node1 -->
<g id="edge18_Node000012_Node000001" class="edge">
<title>Node12&#45;&gt;Node1</title>
<g id="a_edge18_Node000012_Node000001"><a xlink:title=" ">
<path fill="none" stroke="#63b8ff" d="M554.71,-141.49C530.21,-149.93 490.86,-162.72 457.3,-173.22"/>
<polygon fill="#63b8ff" stroke="#63b8ff" points="456.59,-169.78 448.09,-176.1 458.67,-176.46 456.59,-169.78"/>
</a>
</g>
</g>
<!-- Node12&#45;&gt;Node7 -->
<g id="edge16_Node000012_Node000007" class="edge">
<title>Node12&#45;&gt;Node7</title>
<g id="a_edge16_Node000012_Node000007"><a xlink:title=" ">
<path fill="none" stroke="#63b8ff" d="M614.6,-126.83C662.84,-121.44 749.93,-109.24 821,-85.75 821.65,-85.54 822.3,-85.31 822.96,-85.07"/>
<polygon fill="#63b8ff" stroke="#63b8ff" points="824.24,-88.33 832.07,-81.19 821.5,-81.89 824.24,-88.33"/>
</a>
</g>
</g>
<!-- Node12&#45;&gt;Node8 -->
<g id="edge17_Node000012_Node000008" class="edge">
<title>Node12&#45;&gt;Node8</title>
<g id="a_edge17_Node000012_Node000008"><a xlink:title=" ">
<path fill="none" stroke="#63b8ff" d="M614.58,-128.38C644.1,-124.61 683.91,-114.18 704,-85.75 715.67,-69.24 708.78,-45.68 701.33,-29.37"/>
<polygon fill="#63b8ff" stroke="#63b8ff" points="704.62,-28.11 696.99,-20.76 698.37,-31.26 704.62,-28.11"/>
</a>
</g>
</g>
<!-- Node12&#45;&gt;Node9 -->
<g id="edge23_Node000012_Node000009" class="edge">
<title>Node12&#45;&gt;Node9</title>
<g id="a_edge23_Node000012_Node000009"><a xlink:title=" ">
<path fill="none" stroke="#63b8ff" d="M549.81,-121.3C518.78,-111.32 468.69,-95.21 433.93,-84.02"/>
<polygon fill="#63b8ff" stroke="#63b8ff" points="435.26,-80.77 424.67,-81.04 433.11,-87.44 435.26,-80.77"/>
</a>
</g>
</g>
<!-- Node13 -->
<g id="Node000013" class="node">
<title>Node13</title>
<g id="a_Node000013"><a xlink:title=" ">
<polygon fill="#e0e0e0" stroke="#999999" points="604.62,-85.75 457.38,-85.75 457.38,-55.25 604.62,-55.25 604.62,-85.75"/>
<text text-anchor="start" x="465.38" y="-72.25" font-family="Helvetica,sans-Serif" font-size="10.00">ament_index_cpp/get</text>
<text text-anchor="middle" x="531" y="-61" font-family="Helvetica,sans-Serif" font-size="10.00">_package_share_directory.hpp</text>
</a>
</g>
</g>
<!-- Node12&#45;&gt;Node13 -->
<g id="edge14_Node000012_Node000013" class="edge">
<title>Node12&#45;&gt;Node13</title>
<g id="a_edge14_Node000012_Node000013"><a xlink:title=" ">
<path fill="none" stroke="#63b8ff" d="M570.86,-121.43C565.24,-114.39 557.13,-104.23 549.7,-94.92"/>
<polygon fill="#63b8ff" stroke="#63b8ff" points="552.52,-92.85 543.55,-87.21 547.05,-97.21 552.52,-92.85"/>
</a>
</g>
</g>
<!-- Node14 -->
<g id="Node000014" class="node">
<title>Node14</title>
<g id="a_Node000014"><a xlink:title=" ">
<polygon fill="#e0e0e0" stroke="#999999" points="811.75,-80.12 752.25,-80.12 752.25,-60.88 811.75,-60.88 811.75,-80.12"/>
<text text-anchor="middle" x="782" y="-66.62" font-family="Helvetica,sans-Serif" font-size="10.00">filesystem</text>
</a>
</g>
</g>
<!-- Node12&#45;&gt;Node14 -->
<g id="edge15_Node000012_Node000014" class="edge">
<title>Node12&#45;&gt;Node14</title>
<g id="a_edge15_Node000012_Node000014"><a xlink:title=" ">
<path fill="none" stroke="#63b8ff" d="M612.14,-121.29C644.61,-112.55 694.79,-98.77 738,-85.75 739.85,-85.19 741.74,-84.61 743.65,-84.02"/>
<polygon fill="#63b8ff" stroke="#63b8ff" points="744.67,-87.37 753.15,-81.02 742.56,-80.7 744.67,-87.37"/>
</a>
</g>
</g>
<!-- Node15 -->
<g id="Node000015" class="node">
<title>Node15</title>
<g id="a_Node000015"><a xlink:href="planning_2planning_2include_2utils_2position_8hpp.html" target="_top" xlink:title=" ">
<polygon fill="white" stroke="#666666" points="695.5,-80.12 622.5,-80.12 622.5,-60.88 695.5,-60.88 695.5,-80.12"/>
<text text-anchor="middle" x="659" y="-66.62" font-family="Helvetica,sans-Serif" font-size="10.00">./position.hpp</text>
</a>
</g>
</g>
<!-- Node12&#45;&gt;Node15 -->
<g id="edge19_Node000012_Node000015" class="edge">
<title>Node12&#45;&gt;Node15</title>
<g id="a_edge19_Node000012_Node000015"><a xlink:title=" ">
<path fill="none" stroke="#63b8ff" d="M590.3,-121.43C602.79,-112.36 622.38,-98.12 637.45,-87.16"/>
<polygon fill="#63b8ff" stroke="#63b8ff" points="639.33,-90.13 645.36,-81.42 635.21,-84.46 639.33,-90.13"/>
</a>
</g>
</g>
<!-- Node15&#45;&gt;Node5 -->
<g id="edge21_Node000015_Node000005" class="edge">
<title>Node15&#45;&gt;Node5</title>
<g id="a_edge21_Node000015_Node000005"><a xlink:title=" ">
<path fill="none" stroke="#63b8ff" d="M630.44,-60.44C624.98,-58.72 619.31,-56.93 614,-55.25 577.78,-43.82 536.34,-30.81 507.61,-21.79"/>
<polygon fill="#63b8ff" stroke="#63b8ff" points="508.92,-18.54 498.33,-18.88 506.82,-25.21 508.92,-18.54"/>
</a>
</g>
</g>
<!-- Node15&#45;&gt;Node8 -->
<g id="edge22_Node000015_Node000008" class="edge">
<title>Node15&#45;&gt;Node8</title>
<g id="a_edge22_Node000015_Node000008"><a xlink:title=" ">
<path fill="none" stroke="#63b8ff" d="M663.86,-60.56C668.32,-52.35 675.08,-39.91 680.74,-29.5"/>
<polygon fill="#63b8ff" stroke="#63b8ff" points="683.67,-31.44 685.37,-20.98 677.52,-28.1 683.67,-31.44"/>
</a>
</g>
</g>
<!-- Node15&#45;&gt;Node11 -->
<g id="edge20_Node000015_Node000011" class="edge">
<title>Node15&#45;&gt;Node11</title>
<g id="a_edge20_Node000015_Node000011"><a xlink:title=" ">
<path fill="none" stroke="#63b8ff" d="M689.97,-60.43C727.09,-49.56 789.04,-31.41 827.04,-20.28"/>
<polygon fill="#63b8ff" stroke="#63b8ff" points="827.94,-23.66 836.55,-17.49 825.97,-16.95 827.94,-23.66"/>
</a>
</g>
</g>
</g>
</svg>
