<?xml version="1.0" encoding="UTF-8" standalone="no"?>
<!DOCTYPE svg PUBLIC "-//W3C//DTD SVG 1.1//EN"
 "http://www.w3.org/Graphics/SVG/1.1/DTD/svg11.dtd">
<!-- Generated by graphviz version 9.0.0 (20230911.1827)
 -->
<!-- Title: src/planning/planning/src/planning/track.cpp Pages: 1 -->
<!--zoomable 271 -->

<svg id="main" version="1.1" xmlns="http://www.w3.org/2000/svg" xmlns:xlink="http://www.w3.org/1999/xlink" xml:space="preserve" onload="init(evt)">
<style type="text/css"><![CDATA[
.node, .edge {opacity: 0.7;}
.node.selected, .edge.selected {opacity: 1;}
.edge:hover path { stroke: red; }
.edge:hover polygon { stroke: red; fill: red; }
]]></style>

<defs>
  <circle id="rim" cx="0" cy="0" r="7"/>
  <circle id="rim2" cx="0" cy="0" r="3.5"/>
  <g id="zoomPlus">
    <use xlink:href="#rim" fill="#404040"><set attributeName="fill" to="#808080" begin="zoomplus.mouseover" end="zoomplus.mouseout"/></use>
    <path d="M-4,0h8M0,-4v8" fill="none" stroke="white" stroke-width="1.5" pointer-events="none"/>
  </g>
  <g id="zoomMin">
    <use xlink:href="#rim" fill="#404040"><set attributeName="fill" to="#808080" begin="zoomminus.mouseover" end="zoomminus.mouseout"/></use>
    <path d="M-4,0h8" fill="none" stroke="white" stroke-width="1.5" pointer-events="none"/>
  </g>
  <g id="arrowUp" transform="translate(30 24)">
    <use xlink:href="#rim"/>
    <path pointer-events="none" fill="none" stroke="white" stroke-width="1.5" d="M0,-3.0v7 M-2.5,-0.5L0,-3.0L2.5,-0.5"/>
  </g>
  <g id="arrowRight" transform="rotate(90) translate(36 -43)">
    <use xlink:href="#rim"/>
    <path pointer-events="none" fill="none" stroke="white" stroke-width="1.5" d="M0,-3.0v7 M-2.5,-0.5L0,-3.0L2.5,-0.5"/>
  </g>
  <g id="arrowDown" transform="rotate(180) translate(-30 -48)">
    <use xlink:href="#rim"/>
    <path pointer-events="none" fill="none" stroke="white" stroke-width="1.5" d="M0,-3.0v7 M-2.5,-0.5L0,-3.0L2.5,-0.5"/>
  </g>
  <g id="arrowLeft" transform="rotate(270) translate(-36 17)">
    <use xlink:href="#rim"/>
    <path pointer-events="none" fill="none" stroke="white" stroke-width="1.5" d="M0,-3.0v7 M-2.5,-0.5L0,-3.0L2.5,-0.5"/>
  </g>
  <g id="resetDef">
    <use xlink:href="#rim2" fill="#404040"><set attributeName="fill" to="#808080" begin="reset.mouseover" end="reset.mouseout"/></use>
  </g>
</defs>
<script type="application/ecmascript">
var viewWidth = 905;
var viewHeight = 271;
var sectionId = 'dynsection-0';
</script>
<script type="application/ecmascript" xlink:href="svg.min.js"/>
<svg id="graph" class="graph">
<g id="viewport">
<title>src/planning/planning/src/planning/track.cpp</title>
<!-- Node1 -->
<g id="Node000001" class="node">
<title>Node1</title>
<g id="a_Node000001"><a xlink:title=" ">
<polygon fill="#999999" stroke="#666666" points="850.36,-262.75 736.11,-262.75 736.11,-232.25 850.36,-232.25 850.36,-262.75"/>
<text text-anchor="start" x="744.11" y="-249.25" font-family="Helvetica,sans-Serif" font-size="10.00">src/planning/planning</text>
<text text-anchor="middle" x="793.24" y="-238" font-family="Helvetica,sans-Serif" font-size="10.00">/src/planning/track.cpp</text>
</a>
</g>
</g>
<!-- Node2 -->
<g id="Node000002" class="node">
<title>Node2</title>
<g id="a_Node000002"><a xlink:href="track_8hpp.html" target="_top" xlink:title=" ">
<polygon fill="white" stroke="#666666" points="497.61,-196.25 402.86,-196.25 402.86,-177 497.61,-177 497.61,-196.25"/>
<text text-anchor="middle" x="450.24" y="-182.75" font-family="Helvetica,sans-Serif" font-size="10.00">planning/track.hpp</text>
</a>
</g>
</g>
<!-- Node1&#45;&gt;Node2 -->
<g id="edge1_Node000001_Node000002" class="edge">
<title>Node1&#45;&gt;Node2</title>
<g id="a_edge1_Node000001_Node000002"><a xlink:title=" ">
<path fill="none" stroke="#63b8ff" d="M735.83,-236.65C672.86,-225.84 572.34,-208.58 508.88,-197.69"/>
<polygon fill="#63b8ff" stroke="#63b8ff" points="509.81,-194.3 499.36,-196.06 508.63,-201.2 509.81,-194.3"/>
</a>
</g>
</g>
<!-- Node8 -->
<g id="Node000008" class="node">
<title>Node8</title>
<g id="a_Node000008"><a xlink:title=" ">
<polygon fill="#e0e0e0" stroke="#999999" points="700.24,-80.12 660.24,-80.12 660.24,-60.88 700.24,-60.88 700.24,-80.12"/>
<text text-anchor="middle" x="680.24" y="-66.62" font-family="Helvetica,sans-Serif" font-size="10.00">string</text>
</a>
</g>
</g>
<!-- Node1&#45;&gt;Node8 -->
<g id="edge25_Node000001_Node000008" class="edge">
<title>Node1&#45;&gt;Node8</title>
<g id="a_edge25_Node000001_Node000008"><a xlink:title=" ">
<path fill="none" stroke="#63b8ff" d="M784.14,-231.81C769.58,-208.39 740.08,-161.21 714.24,-121.75 707.2,-111.01 699.16,-99.1 692.66,-89.58"/>
<polygon fill="#63b8ff" stroke="#63b8ff" points="695.73,-87.86 687.19,-81.59 689.96,-91.82 695.73,-87.86"/>
</a>
</g>
</g>
<!-- Node17 -->
<g id="Node000017" class="node">
<title>Node17</title>
<g id="a_Node000017"><a xlink:title=" ">
<polygon fill="#e0e0e0" stroke="#999999" points="897.24,-196.25 821.24,-196.25 821.24,-177 897.24,-177 897.24,-196.25"/>
<text text-anchor="middle" x="859.24" y="-182.75" font-family="Helvetica,sans-Serif" font-size="10.00">utils/color.hpp</text>
</a>
</g>
</g>
<!-- Node1&#45;&gt;Node17 -->
<g id="edge26_Node000001_Node000017" class="edge">
<title>Node1&#45;&gt;Node17</title>
<g id="a_edge26_Node000001_Node000017"><a xlink:title=" ">
<path fill="none" stroke="#63b8ff" d="M809.55,-231.95C818.92,-223.59 830.73,-213.05 840.49,-204.35"/>
<polygon fill="#63b8ff" stroke="#63b8ff" points="842.8,-206.98 847.93,-197.71 838.14,-201.75 842.8,-206.98"/>
</a>
</g>
</g>
<!-- Node3 -->
<g id="Node000003" class="node">
<title>Node3</title>
<g id="a_Node000003"><a xlink:title=" ">
<polygon fill="#e0e0e0" stroke="#999999" points="449.24,-141 361.24,-141 361.24,-121.75 449.24,-121.75 449.24,-141"/>
<text text-anchor="middle" x="405.24" y="-127.5" font-family="Helvetica,sans-Serif" font-size="10.00">gsl/gsl_bspline.h</text>
</a>
</g>
</g>
<!-- Node2&#45;&gt;Node3 -->
<g id="edge2_Node000002_Node000003" class="edge">
<title>Node2&#45;&gt;Node3</title>
<g id="a_edge2_Node000002_Node000003"><a xlink:title=" ">
<path fill="none" stroke="#63b8ff" d="M442.81,-176.83C436.66,-169.55 427.72,-158.98 420.11,-149.98"/>
<polygon fill="#63b8ff" stroke="#63b8ff" points="422.93,-147.89 413.81,-142.52 417.59,-152.41 422.93,-147.89"/>
</a>
</g>
</g>
<!-- Node4 -->
<g id="Node000004" class="node">
<title>Node4</title>
<g id="a_Node000004"><a xlink:title=" ">
<polygon fill="#e0e0e0" stroke="#999999" points="625.11,-141 539.36,-141 539.36,-121.75 625.11,-121.75 625.11,-141"/>
<text text-anchor="middle" x="582.24" y="-127.5" font-family="Helvetica,sans-Serif" font-size="10.00">gsl/gsl_multifit.h</text>
</a>
</g>
</g>
<!-- Node2&#45;&gt;Node4 -->
<g id="edge3_Node000002_Node000004" class="edge">
<title>Node2&#45;&gt;Node4</title>
<g id="a_edge3_Node000002_Node000004"><a xlink:title=" ">
<path fill="none" stroke="#63b8ff" d="M472.63,-176.59C493.68,-168.1 525.44,-155.29 549.36,-145.64"/>
<polygon fill="#63b8ff" stroke="#63b8ff" points="550.37,-149.01 558.33,-142.02 547.75,-142.51 550.37,-149.01"/>
</a>
</g>
</g>
<!-- Node5 -->
<g id="Node000005" class="node">
<title>Node5</title>
<g id="a_Node000005"><a xlink:title=" ">
<polygon fill="#e0e0e0" stroke="#999999" points="688.86,-141 643.61,-141 643.61,-121.75 688.86,-121.75 688.86,-141"/>
<text text-anchor="middle" x="666.24" y="-127.5" font-family="Helvetica,sans-Serif" font-size="10.00">cstring</text>
</a>
</g>
</g>
<!-- Node2&#45;&gt;Node5 -->
<g id="edge4_Node000002_Node000005" class="edge">
<title>Node2&#45;&gt;Node5</title>
<g id="a_edge4_Node000002_Node000005"><a xlink:title=" ">
<path fill="none" stroke="#63b8ff" d="M489.08,-176.51C524.03,-168.23 577.09,-155.51 632.15,-141.49"/>
<polygon fill="#63b8ff" stroke="#63b8ff" points="632.9,-144.91 641.72,-139.04 631.16,-138.13 632.9,-144.91"/>
</a>
</g>
</g>
<!-- Node6 -->
<g id="Node000006" class="node">
<title>Node6</title>
<g id="a_Node000006"><a xlink:title=" ">
<polygon fill="#e0e0e0" stroke="#999999" points="675.74,-19.25 626.74,-19.25 626.74,0 675.74,0 675.74,-19.25"/>
<text text-anchor="middle" x="651.24" y="-5.75" font-family="Helvetica,sans-Serif" font-size="10.00">fstream</text>
</a>
</g>
</g>
<!-- Node2&#45;&gt;Node6 -->
<g id="edge5_Node000002_Node000006" class="edge">
<title>Node2&#45;&gt;Node6</title>
<g id="a_edge5_Node000002_Node000006"><a xlink:title=" ">
<path fill="none" stroke="#63b8ff" d="M497.95,-184.65C566.36,-182.13 687.08,-173.13 714.24,-141 724.5,-128.86 737.49,-107.58 709.24,-55.25 702.56,-42.88 690.83,-32.87 679.65,-25.49"/>
<polygon fill="#63b8ff" stroke="#63b8ff" points="681.77,-22.69 671.41,-20.48 678.13,-28.66 681.77,-22.69"/>
</a>
</g>
</g>
<!-- Node7 -->
<g id="Node000007" class="node">
<title>Node7</title>
<g id="a_Node000007"><a xlink:title=" ">
<polygon fill="#e0e0e0" stroke="#999999" points="520.99,-141 467.49,-141 467.49,-121.75 520.99,-121.75 520.99,-141"/>
<text text-anchor="middle" x="494.24" y="-127.5" font-family="Helvetica,sans-Serif" font-size="10.00">iostream</text>
</a>
</g>
</g>
<!-- Node2&#45;&gt;Node7 -->
<g id="edge6_Node000002_Node000007" class="edge">
<title>Node2&#45;&gt;Node7</title>
<g id="a_edge6_Node000002_Node000007"><a xlink:title=" ">
<path fill="none" stroke="#63b8ff" d="M457.5,-176.83C463.52,-169.55 472.25,-158.98 479.69,-149.98"/>
<polygon fill="#63b8ff" stroke="#63b8ff" points="482.18,-152.46 485.85,-142.53 476.78,-148.01 482.18,-152.46"/>
</a>
</g>
</g>
<!-- Node2&#45;&gt;Node8 -->
<g id="edge7_Node000002_Node000008" class="edge">
<title>Node2&#45;&gt;Node8</title>
<g id="a_edge7_Node000002_Node000008"><a xlink:title=" ">
<path fill="none" stroke="#63b8ff" d="M498.05,-184.05C562.81,-180.8 673.23,-170.91 698.24,-141 710.32,-126.55 701.86,-104.94 692.91,-89.66"/>
<polygon fill="#63b8ff" stroke="#63b8ff" points="696.04,-88.06 687.69,-81.53 690.15,-91.84 696.04,-88.06"/>
</a>
</g>
</g>
<!-- Node9 -->
<g id="Node000009" class="node">
<title>Node9</title>
<g id="a_Node000009"><a xlink:title=" ">
<polygon fill="#e0e0e0" stroke="#999999" points="416.74,-19.25 373.74,-19.25 373.74,0 416.74,0 416.74,-19.25"/>
<text text-anchor="middle" x="395.24" y="-5.75" font-family="Helvetica,sans-Serif" font-size="10.00">vector</text>
</a>
</g>
</g>
<!-- Node2&#45;&gt;Node9 -->
<g id="edge8_Node000002_Node000009" class="edge">
<title>Node2&#45;&gt;Node9</title>
<g id="a_edge8_Node000002_Node000009"><a xlink:title=" ">
<path fill="none" stroke="#63b8ff" d="M402.72,-182.97C297.16,-175.91 49.06,-152.38 6.24,-85.75 -1.09,-74.35 -2.78,-65.37 6.24,-55.25 29.79,-28.85 272.28,-15.88 362.05,-11.95"/>
<polygon fill="#63b8ff" stroke="#63b8ff" points="362.08,-15.45 371.92,-11.53 361.78,-8.46 362.08,-15.45"/>
</a>
</g>
</g>
<!-- Node10 -->
<g id="Node000010" class="node">
<title>Node10</title>
<g id="a_Node000010"><a xlink:title=" ">
<polygon fill="#e0e0e0" stroke="#999999" points="104.99,-80.12 15.49,-80.12 15.49,-60.88 104.99,-60.88 104.99,-80.12"/>
<text text-anchor="middle" x="60.24" y="-66.62" font-family="Helvetica,sans-Serif" font-size="10.00">rclcpp/rclcpp.hpp</text>
</a>
</g>
</g>
<!-- Node2&#45;&gt;Node10 -->
<g id="edge9_Node000002_Node000010" class="edge">
<title>Node2&#45;&gt;Node10</title>
<g id="a_edge9_Node000002_Node000010"><a xlink:title=" ">
<path fill="none" stroke="#63b8ff" d="M402.55,-184.05C345.2,-180.83 246.85,-170.98 168.24,-141 134.43,-128.1 100.08,-103.63 79.46,-87.43"/>
<polygon fill="#63b8ff" stroke="#63b8ff" points="81.93,-84.92 71.94,-81.39 77.54,-90.38 81.93,-84.92"/>
</a>
</g>
</g>
<!-- Node11 -->
<g id="Node000011" class="node">
<title>Node11</title>
<g id="a_Node000011"><a xlink:href="cone_8hpp.html" target="_top" xlink:title=" ">
<polygon fill="white" stroke="#666666" points="343.24,-141 267.24,-141 267.24,-121.75 343.24,-121.75 343.24,-141"/>
<text text-anchor="middle" x="305.24" y="-127.5" font-family="Helvetica,sans-Serif" font-size="10.00">utils/cone.hpp</text>
</a>
</g>
</g>
<!-- Node2&#45;&gt;Node11 -->
<g id="edge10_Node000002_Node000011" class="edge">
<title>Node2&#45;&gt;Node11</title>
<g id="a_edge10_Node000002_Node000011"><a xlink:title=" ">
<path fill="none" stroke="#63b8ff" d="M425.64,-176.59C402.31,-168.02 367,-155.06 340.64,-145.38"/>
<polygon fill="#63b8ff" stroke="#63b8ff" points="341.97,-142.14 331.38,-141.97 339.56,-148.71 341.97,-142.14"/>
</a>
</g>
</g>
<!-- Node13 -->
<g id="Node000013" class="node">
<title>Node13</title>
<g id="a_Node000013"><a xlink:href="files_8hpp.html" target="_top" xlink:title=" ">
<polygon fill="white" stroke="#666666" points="249.36,-141 177.11,-141 177.11,-121.75 249.36,-121.75 249.36,-141"/>
<text text-anchor="middle" x="213.24" y="-127.5" font-family="Helvetica,sans-Serif" font-size="10.00">utils/files.hpp</text>
</a>
</g>
</g>
<!-- Node2&#45;&gt;Node13 -->
<g id="edge14_Node000002_Node000013" class="edge">
<title>Node2&#45;&gt;Node13</title>
<g id="a_edge14_Node000002_Node000013"><a xlink:title=" ">
<path fill="none" stroke="#63b8ff" d="M404.54,-176.53C362.71,-167.55 301.28,-153.78 259.34,-144.01"/>
<polygon fill="#63b8ff" stroke="#63b8ff" points="260.33,-140.65 249.8,-141.78 258.73,-147.46 260.33,-140.65"/>
</a>
</g>
</g>
<!-- Node11&#45;&gt;Node8 -->
<g id="edge12_Node000011_Node000008" class="edge">
<title>Node11&#45;&gt;Node8</title>
<g id="a_edge12_Node000011_Node000008"><a xlink:title=" ">
<path fill="none" stroke="#63b8ff" d="M343.7,-123.22C346.58,-122.71 349.46,-122.22 352.24,-121.75 460.93,-103.46 590.35,-84.44 648.82,-76"/>
<polygon fill="#63b8ff" stroke="#63b8ff" points="648.96,-79.51 658.36,-74.62 647.97,-72.59 648.96,-79.51"/>
</a>
</g>
</g>
<!-- Node11&#45;&gt;Node9 -->
<g id="edge13_Node000011_Node000009" class="edge">
<title>Node11&#45;&gt;Node9</title>
<g id="a_edge13_Node000011_Node000009"><a xlink:title=" ">
<path fill="none" stroke="#63b8ff" d="M339.44,-121.32C357.68,-114.61 378.69,-103.49 390.24,-85.75 400.81,-69.5 400.81,-46.86 398.94,-30.69"/>
<polygon fill="#63b8ff" stroke="#63b8ff" points="402.41,-30.2 397.43,-20.85 395.49,-31.26 402.41,-30.2"/>
</a>
</g>
</g>
<!-- Node12 -->
<g id="Node000012" class="node">
<title>Node12</title>
<g id="a_Node000012"><a xlink:title=" ">
<polygon fill="#e0e0e0" stroke="#999999" points="532.74,-19.25 489.74,-19.25 489.74,0 532.74,0 532.74,-19.25"/>
<text text-anchor="middle" x="511.24" y="-5.75" font-family="Helvetica,sans-Serif" font-size="10.00">cmath</text>
</a>
</g>
</g>
<!-- Node11&#45;&gt;Node12 -->
<g id="edge11_Node000011_Node000012" class="edge">
<title>Node11&#45;&gt;Node12</title>
<g id="a_edge11_Node000011_Node000012"><a xlink:title=" ">
<path fill="none" stroke="#63b8ff" d="M343.44,-123.26C405.67,-111.58 522.35,-89.29 525.24,-85.75 538.19,-69.91 530.45,-45.89 522.26,-29.3"/>
<polygon fill="#63b8ff" stroke="#63b8ff" points="525.58,-28.08 517.74,-20.95 519.42,-31.41 525.58,-28.08"/>
</a>
</g>
</g>
<!-- Node13&#45;&gt;Node2 -->
<g id="edge19_Node000013_Node000002" class="edge">
<title>Node13&#45;&gt;Node2</title>
<g id="a_edge19_Node000013_Node000002"><a xlink:title=" ">
<path fill="none" stroke="#63b8ff" d="M249.59,-139.47C291.09,-148.28 358.83,-163.43 404.02,-173.96"/>
<polygon fill="#63b8ff" stroke="#63b8ff" points="402.99,-177.31 413.52,-176.19 404.58,-170.5 402.99,-177.31"/>
</a>
</g>
</g>
<!-- Node13&#45;&gt;Node8 -->
<g id="edge17_Node000013_Node000008" class="edge">
<title>Node13&#45;&gt;Node8</title>
<g id="a_edge17_Node000013_Node000008"><a xlink:title=" ">
<path fill="none" stroke="#63b8ff" d="M249.55,-123.19C252.48,-122.68 255.41,-122.19 258.24,-121.75 403.66,-99.18 578.66,-81.28 648.86,-74.47"/>
<polygon fill="#63b8ff" stroke="#63b8ff" points="648.84,-77.99 658.46,-73.54 648.17,-71.02 648.84,-77.99"/>
</a>
</g>
</g>
<!-- Node13&#45;&gt;Node9 -->
<g id="edge18_Node000013_Node000009" class="edge">
<title>Node13&#45;&gt;Node9</title>
<g id="a_edge18_Node000013_Node000009"><a xlink:title=" ">
<path fill="none" stroke="#63b8ff" d="M249.65,-122.52C286.69,-113.93 340.89,-99.56 357.24,-85.75 374.22,-71.4 384.43,-47.59 389.93,-30.62"/>
<polygon fill="#63b8ff" stroke="#63b8ff" points="393.25,-31.74 392.7,-21.16 386.53,-29.77 393.25,-31.74"/>
</a>
</g>
</g>
<!-- Node13&#45;&gt;Node10 -->
<g id="edge24_Node000013_Node000010" class="edge">
<title>Node13&#45;&gt;Node10</title>
<g id="a_edge24_Node000013_Node000010"><a xlink:title=" ">
<path fill="none" stroke="#63b8ff" d="M189.67,-121.3C164.17,-111.49 123.29,-95.76 94.31,-84.61"/>
<polygon fill="#63b8ff" stroke="#63b8ff" points="95.84,-81.45 85.25,-81.12 93.32,-87.98 95.84,-81.45"/>
</a>
</g>
</g>
<!-- Node14 -->
<g id="Node000014" class="node">
<title>Node14</title>
<g id="a_Node000014"><a xlink:title=" ">
<polygon fill="#e0e0e0" stroke="#999999" points="347.86,-85.75 200.61,-85.75 200.61,-55.25 347.86,-55.25 347.86,-85.75"/>
<text text-anchor="start" x="208.61" y="-72.25" font-family="Helvetica,sans-Serif" font-size="10.00">ament_index_cpp/get</text>
<text text-anchor="middle" x="274.24" y="-61" font-family="Helvetica,sans-Serif" font-size="10.00">_package_share_directory.hpp</text>
</a>
</g>
</g>
<!-- Node13&#45;&gt;Node14 -->
<g id="edge15_Node000013_Node000014" class="edge">
<title>Node13&#45;&gt;Node14</title>
<g id="a_edge15_Node000013_Node000014"><a xlink:title=" ">
<path fill="none" stroke="#63b8ff" d="M222.5,-121.43C230.11,-114.09 241.2,-103.38 251.17,-93.76"/>
<polygon fill="#63b8ff" stroke="#63b8ff" points="253.33,-96.55 258.09,-87.08 248.47,-91.51 253.33,-96.55"/>
</a>
</g>
</g>
<!-- Node15 -->
<g id="Node000015" class="node">
<title>Node15</title>
<g id="a_Node000015"><a xlink:title=" ">
<polygon fill="#e0e0e0" stroke="#999999" points="182.99,-80.12 123.49,-80.12 123.49,-60.88 182.99,-60.88 182.99,-80.12"/>
<text text-anchor="middle" x="153.24" y="-66.62" font-family="Helvetica,sans-Serif" font-size="10.00">filesystem</text>
</a>
</g>
</g>
<!-- Node13&#45;&gt;Node15 -->
<g id="edge16_Node000013_Node000015" class="edge">
<title>Node13&#45;&gt;Node15</title>
<g id="a_edge16_Node000013_Node000015"><a xlink:title=" ">
<path fill="none" stroke="#63b8ff" d="M204.12,-121.43C195.23,-112.7 181.46,-99.19 170.49,-88.43"/>
<polygon fill="#63b8ff" stroke="#63b8ff" points="173.11,-86.09 163.52,-81.59 168.2,-91.09 173.11,-86.09"/>
</a>
</g>
</g>
<!-- Node16 -->
<g id="Node000016" class="node">
<title>Node16</title>
<g id="a_Node000016"><a xlink:href="planning_2planning_2include_2utils_2position_8hpp.html" target="_top" xlink:title=" ">
<polygon fill="white" stroke="#666666" points="515.74,-80.12 442.74,-80.12 442.74,-60.88 515.74,-60.88 515.74,-80.12"/>
<text text-anchor="middle" x="479.24" y="-66.62" font-family="Helvetica,sans-Serif" font-size="10.00">./position.hpp</text>
</a>
</g>
</g>
<!-- Node13&#45;&gt;Node16 -->
<g id="edge20_Node000013_Node000016" class="edge">
<title>Node13&#45;&gt;Node16</title>
<g id="a_edge20_Node000013_Node000016"><a xlink:title=" ">
<path fill="none" stroke="#63b8ff" d="M249.67,-122.31C296.86,-111.87 379.24,-93.63 431.42,-82.08"/>
<polygon fill="#63b8ff" stroke="#63b8ff" points="431.91,-85.56 440.92,-79.98 430.4,-78.73 431.91,-85.56"/>
</a>
</g>
</g>
<!-- Node16&#45;&gt;Node6 -->
<g id="edge22_Node000016_Node000006" class="edge">
<title>Node16&#45;&gt;Node6</title>
<g id="a_edge22_Node000016_Node000006"><a xlink:title=" ">
<path fill="none" stroke="#63b8ff" d="M505.74,-60.43C535.15,-50.36 582.79,-34.05 615.5,-22.86"/>
<polygon fill="#63b8ff" stroke="#63b8ff" points="616.63,-26.17 624.95,-19.62 614.36,-19.55 616.63,-26.17"/>
</a>
</g>
</g>
<!-- Node16&#45;&gt;Node9 -->
<g id="edge23_Node000016_Node000009" class="edge">
<title>Node16&#45;&gt;Node9</title>
<g id="a_edge23_Node000016_Node000009"><a xlink:title=" ">
<path fill="none" stroke="#63b8ff" d="M466.48,-60.56C453.41,-51.39 432.83,-36.97 417.14,-25.98"/>
<polygon fill="#63b8ff" stroke="#63b8ff" points="419.55,-23.39 409.35,-20.52 415.53,-29.13 419.55,-23.39"/>
</a>
</g>
</g>
<!-- Node16&#45;&gt;Node12 -->
<g id="edge21_Node000016_Node000012" class="edge">
<title>Node16&#45;&gt;Node12</title>
<g id="a_edge21_Node000016_Node000012"><a xlink:title=" ">
<path fill="none" stroke="#63b8ff" d="M484.1,-60.56C488.56,-52.35 495.32,-39.91 500.98,-29.5"/>
<polygon fill="#63b8ff" stroke="#63b8ff" points="503.91,-31.44 505.61,-20.98 497.76,-28.1 503.91,-31.44"/>
</a>
</g>
</g>
</g>
</svg>

<g id="navigator" transform="translate(0 0)" fill="#404254">
  <rect fill="#f2f5e9" fill-opacity="0.5" stroke="#606060" stroke-width=".5" x="0" y="0" width="60" height="60"/>
  <use id="zoomplus" xlink:href="#zoomPlus" x="17" y="9" onmousedown="handleZoom(evt,'in')"/>
  <use id="zoomminus" xlink:href="#zoomMin" x="42" y="9" onmousedown="handleZoom(evt,'out')"/>
  <use id="reset" xlink:href="#resetDef" x="30" y="36" onmousedown="handleReset()"/>
   <use id="arrowup" xlink:href="#arrowUp" x="0" y="0" onmousedown="handlePan(0,-1)"/>
  <use id="arrowright" xlink:href="#arrowRight" x="0" y="0" onmousedown="handlePan(1,0)"/>
  <use id="arrowdown" xlink:href="#arrowDown" x="0" y="0" onmousedown="handlePan(0,1)"/>
  <use id="arrowleft" xlink:href="#arrowLeft" x="0" y="0" onmousedown="handlePan(-1,0)"/>
</g>
<svg viewBox="0 0 15 15" width="100%" height="30px" preserveAspectRatio="xMaxYMin meet">
 <g id="arrow_out" transform="scale(0.3 0.3)">
  <a xlink:href="track_8cpp__incl_org.svg" target="_base">
   <rect id="button" ry="5" rx="5" y="6" x="6" height="38" width="38"
        fill="#f2f5e9" fill-opacity="0.5" stroke="#606060" stroke-width="1.0"/>
   <path id="arrow"
     d="M 11.500037,31.436501 C 11.940474,20.09759 22.043105,11.32322 32.158766,21.979434 L 37.068811,17.246167 C 37.068811,17.246167 37.088388,32 37.088388,32 L 22.160133,31.978069 C 22.160133,31.978069 26.997745,27.140456 26.997745,27.140456 C 18.528582,18.264221 13.291696,25.230495 11.500037,31.436501 z"
     style="fill:#404040;"/>
  </a>
 </g>
</svg>

<style type='text/css'>
<![CDATA[
[data-mouse-over-selected='false'] { opacity: 0.7; }
[data-mouse-over-selected='true']  { opacity: 1.0; }
]]>
</style>
<script type="application/ecmascript"><![CDATA[
document.addEventListener('DOMContentLoaded', (event) => {
  highlightEdges();
  highlightAdjacentNodes();
});
]]></script>
</svg>
