<?xml version="1.0" encoding="UTF-8" standalone="no"?>
<!DOCTYPE svg PUBLIC "-//W3C//DTD SVG 1.1//EN"
 "http://www.w3.org/Graphics/SVG/1.1/DTD/svg11.dtd">
<!-- Generated by graphviz version 9.0.0 (20230911.1827)
 -->
<!-- Title: can_data_t Pages: 1 -->
<svg width="66pt" height="147pt"
 viewBox="0.00 0.00 66.00 147.00" xmlns="http://www.w3.org/2000/svg" xmlns:xlink="http://www.w3.org/1999/xlink">
<g id="graph0" class="graph" transform="scale(1 1) rotate(0) translate(4 143)">
<title>can_data_t</title>
<!-- Node1 -->
<g id="Node000001" class="node">
<title>Node1</title>
<g id="a_Node000001"><a xlink:title=" ">
<polygon fill="#999999" stroke="none" points="58,-139 0,-139 0,0 58,0 58,-139"/>
<text text-anchor="start" x="5" y="-125.5" font-family="Helvetica,sans-Serif" font-size="10.00">can_data_t</text>
<text text-anchor="start" x="6" y="-110.5" font-family="Helvetica,sans-Serif" font-size="10.00">+</text>
<text text-anchor="start" x="18" y="-110.5" font-family="Helvetica,sans-Serif" font-size="10.00">ubytes</text>
<text text-anchor="start" x="6" y="-95.5" font-family="Helvetica,sans-Serif" font-size="10.00">+</text>
<text text-anchor="start" x="18" y="-95.5" font-family="Helvetica,sans-Serif" font-size="10.00">sbytes</text>
<text text-anchor="start" x="6" y="-80.5" font-family="Helvetica,sans-Serif" font-size="10.00">+</text>
<text text-anchor="start" x="18" y="-80.5" font-family="Helvetica,sans-Serif" font-size="10.00">uwords</text>
<text text-anchor="start" x="6" y="-65.5" font-family="Helvetica,sans-Serif" font-size="10.00">+</text>
<text text-anchor="start" x="18" y="-65.5" font-family="Helvetica,sans-Serif" font-size="10.00">swords</text>
<text text-anchor="start" x="6" y="-50.5" font-family="Helvetica,sans-Serif" font-size="10.00">+</text>
<text text-anchor="start" x="18" y="-50.5" font-family="Helvetica,sans-Serif" font-size="10.00">ulongs</text>
<text text-anchor="start" x="6" y="-35.5" font-family="Helvetica,sans-Serif" font-size="10.00">+</text>
<text text-anchor="start" x="18" y="-35.5" font-family="Helvetica,sans-Serif" font-size="10.00">slongs</text>
<text text-anchor="start" x="6" y="-20.5" font-family="Helvetica,sans-Serif" font-size="10.00">+</text>
<text text-anchor="start" x="18" y="-20.5" font-family="Helvetica,sans-Serif" font-size="10.00">floats</text>
<text text-anchor="start" x="27.5" y="-5.5" font-family="Helvetica,sans-Serif" font-size="10.00"> </text>
<polygon fill="#666666" stroke="#666666" points="0,-122 0,-122 58,-122 58,-122 0,-122"/>
<polygon fill="#666666" stroke="#666666" points="0,-17 0,-17 16,-17 16,-17 0,-17"/>
<polygon fill="#666666" stroke="#666666" points="16,-17 16,-17 58,-17 58,-17 16,-17"/>
<polygon fill="none" stroke="#666666" points="0,0 0,-139 58,-139 58,0 0,0"/>
</a>
</g>
</g>
</g>
</svg>
